<svg width="1920" height="240" viewBox="0 0 1920 240" fill="none" xmlns="http://www.w3.org/2000/svg">
<g clip-path="url(#clip0_2645_84)">
<rect width="1920" height="240" fill="#FCF0E4"/>
<path d="M150.5 22.75C150.5 80.0495 104.05 126.5 46.75 126.5C-10.5495 126.5 -57 80.0495 -57 22.75C-57 -34.5495 -10.5495 -81 46.75 -81C104.05 -81 150.5 -34.5495 150.5 22.75Z" fill="black" fill-opacity="0.15"/>
<path d="M1887.5 15.75C1887.5 73.0495 1841.05 119.5 1783.75 119.5C1726.45 119.5 1680 73.0495 1680 15.75C1680 -41.5495 1726.45 -88 1783.75 -88C1841.05 -88 1887.5 -41.5495 1887.5 15.75Z" fill="black" fill-opacity="0.15"/>
<path d="M378 48C378 59.0457 369.046 68 358 68C346.954 68 338 59.0457 338 48C338 36.9543 346.954 28 358 28C369.046 28 378 36.9543 378 48Z" fill="black" fill-opacity="0.15"/>
<path d="M1035 390C1035 497.143 948.143 584 841 584C733.857 584 647 497.143 647 390C647 282.857 733.857 196 841 196C948.143 196 1035 282.857 1035 390Z" fill="black" fill-opacity="0.15"/>
<path d="M1611 176.5C1611 177.881 1609.88 179 1608.5 179C1607.12 179 1606 177.881 1606 176.5C1606 175.119 1607.12 174 1608.5 174C1609.88 174 1611 175.119 1611 176.5Z" fill="black" fill-opacity="0.5"/>
<path d="M1619 176.5C1619 177.881 1617.88 179 1616.5 179C1615.12 179 1614 177.881 1614 176.5C1614 175.119 1615.12 174 1616.5 174C1617.88 174 1619 175.119 1619 176.5Z" fill="black" fill-opacity="0.5"/>
<path d="M1628 176.5C1628 177.881 1626.88 179 1625.5 179C1624.12 179 1623 177.881 1623 176.5C1623 175.119 1624.12 174 1625.5 174C1626.88 174 1628 175.119 1628 176.5Z" fill="black" fill-opacity="0.5"/>
<path d="M1636 176.5C1636 177.881 1634.88 179 1633.5 179C1632.12 179 1631 177.881 1631 176.5C1631 175.119 1632.12 174 1633.5 174C1634.88 174 1636 175.119 1636 176.5Z" fill="black" fill-opacity="0.5"/>
<path d="M1611 185.5C1611 186.881 1609.88 188 1608.5 188C1607.12 188 1606 186.881 1606 185.5C1606 184.119 1607.12 183 1608.5 183C1609.88 183 1611 184.119 1611 185.5Z" fill="black" fill-opacity="0.5"/>
<path d="M1619 185.5C1619 186.881 1617.88 188 1616.5 188C1615.12 188 1614 186.881 1614 185.5C1614 184.119 1615.12 183 1616.5 183C1617.88 183 1619 184.119 1619 185.5Z" fill="black" fill-opacity="0.5"/>
<path d="M1628 185.5C1628 186.881 1626.88 188 1625.5 188C1624.12 188 1623 186.881 1623 185.5C1623 184.119 1624.12 183 1625.5 183C1626.88 183 1628 184.119 1628 185.5Z" fill="black" fill-opacity="0.5"/>
<path d="M1636 185.5C1636 186.881 1634.88 188 1633.5 188C1632.12 188 1631 186.881 1631 185.5C1631 184.119 1632.12 183 1633.5 183C1634.88 183 1636 184.119 1636 185.5Z" fill="black" fill-opacity="0.5"/>
<path d="M1611 195.5C1611 196.881 1609.88 198 1608.5 198C1607.12 198 1606 196.881 1606 195.5C1606 194.119 1607.12 193 1608.5 193C1609.88 193 1611 194.119 1611 195.5Z" fill="black" fill-opacity="0.5"/>
<path d="M1619 195.5C1619 196.881 1617.88 198 1616.5 198C1615.12 198 1614 196.881 1614 195.5C1614 194.119 1615.12 193 1616.5 193C1617.88 193 1619 194.119 1619 195.5Z" fill="black" fill-opacity="0.5"/>
<path d="M1628 195.5C1628 196.881 1626.88 198 1625.5 198C1624.12 198 1623 196.881 1623 195.5C1623 194.119 1624.12 193 1625.5 193C1626.88 193 1628 194.119 1628 195.5Z" fill="black" fill-opacity="0.5"/>
<path d="M1636 195.5C1636 196.881 1634.88 198 1633.5 198C1632.12 198 1631 196.881 1631 195.5C1631 194.119 1632.12 193 1633.5 193C1634.88 193 1636 194.119 1636 195.5Z" fill="black" fill-opacity="0.5"/>
<path d="M1611 204.5C1611 205.881 1609.88 207 1608.5 207C1607.12 207 1606 205.881 1606 204.5C1606 203.119 1607.12 202 1608.5 202C1609.88 202 1611 203.119 1611 204.5Z" fill="black" fill-opacity="0.5"/>
<path d="M1619 204.5C1619 205.881 1617.88 207 1616.5 207C1615.12 207 1614 205.881 1614 204.5C1614 203.119 1615.12 202 1616.5 202C1617.88 202 1619 203.119 1619 204.5Z" fill="black" fill-opacity="0.5"/>
<path d="M1628 204.5C1628 205.881 1626.88 207 1625.5 207C1624.12 207 1623 205.881 1623 204.5C1623 203.119 1624.12 202 1625.5 202C1626.88 202 1628 203.119 1628 204.5Z" fill="black" fill-opacity="0.5"/>
<path d="M1636 204.5C1636 205.881 1634.88 207 1633.5 207C1632.12 207 1631 205.881 1631 204.5C1631 203.119 1632.12 202 1633.5 202C1634.88 202 1636 203.119 1636 204.5Z" fill="black" fill-opacity="0.5"/>
<path d="M1611 213.5C1611 214.881 1609.88 216 1608.5 216C1607.12 216 1606 214.881 1606 213.5C1606 212.119 1607.12 211 1608.5 211C1609.88 211 1611 212.119 1611 213.5Z" fill="black" fill-opacity="0.5"/>
<path d="M1619 213.5C1619 214.881 1617.88 216 1616.5 216C1615.12 216 1614 214.881 1614 213.5C1614 212.119 1615.12 211 1616.5 211C1617.88 211 1619 212.119 1619 213.5Z" fill="black" fill-opacity="0.5"/>
<path d="M1628 213.5C1628 214.881 1626.88 216 1625.5 216C1624.12 216 1623 214.881 1623 213.5C1623 212.119 1624.12 211 1625.5 211C1626.88 211 1628 212.119 1628 213.5Z" fill="black" fill-opacity="0.5"/>
<path d="M1636 213.5C1636 214.881 1634.88 216 1633.5 216C1632.12 216 1631 214.881 1631 213.5C1631 212.119 1632.12 211 1633.5 211C1634.88 211 1636 212.119 1636 213.5Z" fill="black" fill-opacity="0.5"/>
<path d="M679 9.5C679 10.8807 677.881 12 676.5 12C675.119 12 674 10.8807 674 9.5C674 8.11929 675.119 7 676.5 7C677.881 7 679 8.11929 679 9.5Z" fill="black" fill-opacity="0.5"/>
<path d="M687 9.5C687 10.8807 685.881 12 684.5 12C683.119 12 682 10.8807 682 9.5C682 8.11929 683.119 7 684.5 7C685.881 7 687 8.11929 687 9.5Z" fill="black" fill-opacity="0.5"/>
<path d="M696 9.5C696 10.8807 694.881 12 693.5 12C692.119 12 691 10.8807 691 9.5C691 8.11929 692.119 7 693.5 7C694.881 7 696 8.11929 696 9.5Z" fill="black" fill-opacity="0.5"/>
<path d="M704 9.5C704 10.8807 702.881 12 701.5 12C700.119 12 699 10.8807 699 9.5C699 8.11929 700.119 7 701.5 7C702.881 7 704 8.11929 704 9.5Z" fill="black" fill-opacity="0.5"/>
<path d="M679 18.5C679 19.8807 677.881 21 676.5 21C675.119 21 674 19.8807 674 18.5C674 17.1193 675.119 16 676.5 16C677.881 16 679 17.1193 679 18.5Z" fill="black" fill-opacity="0.5"/>
<path d="M687 18.5C687 19.8807 685.881 21 684.5 21C683.119 21 682 19.8807 682 18.5C682 17.1193 683.119 16 684.5 16C685.881 16 687 17.1193 687 18.5Z" fill="black" fill-opacity="0.5"/>
<path d="M696 18.5C696 19.8807 694.881 21 693.5 21C692.119 21 691 19.8807 691 18.5C691 17.1193 692.119 16 693.5 16C694.881 16 696 17.1193 696 18.5Z" fill="black" fill-opacity="0.5"/>
<path d="M704 18.5C704 19.8807 702.881 21 701.5 21C700.119 21 699 19.8807 699 18.5C699 17.1193 700.119 16 701.5 16C702.881 16 704 17.1193 704 18.5Z" fill="black" fill-opacity="0.5"/>
<path d="M679 28.5C679 29.8807 677.881 31 676.5 31C675.119 31 674 29.8807 674 28.5C674 27.1193 675.119 26 676.5 26C677.881 26 679 27.1193 679 28.5Z" fill="black" fill-opacity="0.5"/>
<path d="M687 28.5C687 29.8807 685.881 31 684.5 31C683.119 31 682 29.8807 682 28.5C682 27.1193 683.119 26 684.5 26C685.881 26 687 27.1193 687 28.5Z" fill="black" fill-opacity="0.5"/>
<path d="M696 28.5C696 29.8807 694.881 31 693.5 31C692.119 31 691 29.8807 691 28.5C691 27.1193 692.119 26 693.5 26C694.881 26 696 27.1193 696 28.5Z" fill="black" fill-opacity="0.5"/>
<path d="M704 28.5C704 29.8807 702.881 31 701.5 31C700.119 31 699 29.8807 699 28.5C699 27.1193 700.119 26 701.5 26C702.881 26 704 27.1193 704 28.5Z" fill="black" fill-opacity="0.5"/>
<path d="M679 37.5C679 38.8807 677.881 40 676.5 40C675.119 40 674 38.8807 674 37.5C674 36.1193 675.119 35 676.5 35C677.881 35 679 36.1193 679 37.5Z" fill="black" fill-opacity="0.5"/>
<path d="M687 37.5C687 38.8807 685.881 40 684.5 40C683.119 40 682 38.8807 682 37.5C682 36.1193 683.119 35 684.5 35C685.881 35 687 36.1193 687 37.5Z" fill="black" fill-opacity="0.5"/>
<path d="M696 37.5C696 38.8807 694.881 40 693.5 40C692.119 40 691 38.8807 691 37.5C691 36.1193 692.119 35 693.5 35C694.881 35 696 36.1193 696 37.5Z" fill="black" fill-opacity="0.5"/>
<path d="M704 37.5C704 38.8807 702.881 40 701.5 40C700.119 40 699 38.8807 699 37.5C699 36.1193 700.119 35 701.5 35C702.881 35 704 36.1193 704 37.5Z" fill="black" fill-opacity="0.5"/>
<path d="M679 46.5C679 47.8807 677.881 49 676.5 49C675.119 49 674 47.8807 674 46.5C674 45.1193 675.119 44 676.5 44C677.881 44 679 45.1193 679 46.5Z" fill="black" fill-opacity="0.5"/>
<path d="M687 46.5C687 47.8807 685.881 49 684.5 49C683.119 49 682 47.8807 682 46.5C682 45.1193 683.119 44 684.5 44C685.881 44 687 45.1193 687 46.5Z" fill="black" fill-opacity="0.5"/>
<path d="M696 46.5C696 47.8807 694.881 49 693.5 49C692.119 49 691 47.8807 691 46.5C691 45.1193 692.119 44 693.5 44C694.881 44 696 45.1193 696 46.5Z" fill="black" fill-opacity="0.5"/>
<path d="M704 46.5C704 47.8807 702.881 49 701.5 49C700.119 49 699 47.8807 699 46.5C699 45.1193 700.119 44 701.5 44C702.881 44 704 45.1193 704 46.5Z" fill="black" fill-opacity="0.5"/>
</g>
<defs>
<clipPath id="clip0_2645_84">
<rect width="1920" height="240" fill="white"/>
</clipPath>
</defs>
</svg>
