<svg width="237" height="47" viewBox="0 0 237 47" fill="none" xmlns="http://www.w3.org/2000/svg">
<path d="M18.3717 41.3477C18.5635 41.573 18.7533 41.7984 18.9747 42.0593C19.0439 42.1404 19.0399 42.2709 18.9648 42.346C17.664 43.6487 16.1636 44.5719 14.3548 44.9099C10.9645 45.5445 8.13173 44.3604 5.71802 42.0475C2.23285 38.7086 0.443816 34.5691 0.0642636 29.7832C-0.360756 24.4141 1.33142 19.7764 4.87391 15.7753C5.51242 15.0518 5.5144 15.0637 6.25176 15.6943C6.95749 16.2972 7.65729 16.912 8.6635 16.9496C9.81402 16.9911 10.5909 16.3763 11.2116 15.5065C12.5816 13.5909 13.232 11.3769 13.7736 9.13315C14.4794 6.19952 15.025 3.31532 15.1337 0.290756C15.1337 0.265058 15.1376 0.231451 15.1436 0.187961C15.1633 0.0396982 15.2938 -0.0373984 15.4322 0.017953C19.4076 1.61721 22.4164 4.38478 24.9467 7.74145C27.4079 11.0072 29.274 14.5635 30.2624 18.6437C30.3237 18.8987 30.4917 18.9303 30.64 18.7149C30.7705 18.5271 30.897 18.3373 31.0057 18.1396C31.4624 17.3074 31.8913 16.4573 32.3401 15.6211C32.6109 15.1151 32.9173 15.0735 33.3206 15.5223C36.3886 18.9462 38.2409 22.8504 38.3536 27.5375C38.4287 30.7123 37.9602 33.7487 36.5942 36.6132C34.9198 40.122 32.5812 43.028 28.847 44.5086C25.5141 45.8292 21.7482 44.8427 19.4709 42.3104C19.4076 42.2392 19.4017 42.1186 19.461 42.0415C19.5677 41.9032 19.6745 41.7608 19.7812 41.6205C19.7872 41.6145 19.7951 41.6047 19.799 41.5987C20.0738 41.324 20.3486 41.0472 20.6234 40.7724C23.1992 38.1986 25.777 35.6228 28.3528 33.0489C28.3686 33.0173 28.3943 32.9718 28.4101 32.9402L28.6849 31.5287C28.6849 31.5248 28.6869 31.5208 28.6869 31.5188L29.0111 30.228C29.0111 30.1983 29.0111 30.1529 29.0111 30.1232C28.8253 29.4036 28.6414 28.6821 28.4556 27.9625C28.4497 27.9487 28.4398 27.925 28.4338 27.9111L27.7894 26.7843C27.7795 26.7725 27.7637 26.7507 27.7538 26.7389C27.4276 26.4166 27.0995 26.0944 26.7733 25.7702L26.7773 25.7742C25.6781 24.8253 24.3912 24.7027 23.0074 24.9894C23.0015 24.9913 22.9936 24.9933 22.9877 24.9933L21.426 25.448C21.4082 25.4559 21.3825 25.4697 21.3647 25.4776C20.6846 25.9501 20.0066 26.4245 19.3266 26.897C19.2455 26.897 19.1664 26.897 19.0854 26.897C18.5121 26.5016 17.9388 26.1063 17.3675 25.7109C17.3576 25.705 17.3418 25.6971 17.3319 25.6911L16.2605 25.2285C16.2506 25.2246 16.2348 25.2206 16.2249 25.2167C15.8513 25.1297 15.4796 25.0408 15.106 24.9538C15.0922 24.9518 15.0704 24.9498 15.0586 24.9478L13.396 24.9459C13.3684 24.9538 13.3249 24.9637 13.2952 24.9716L11.605 25.8849L11.3026 26.047C11.2868 26.0588 11.2611 26.0806 11.2453 26.0924L10.7827 26.6104C10.7787 26.6143 10.7708 26.6242 10.7669 26.6301L10.4723 27.0492H10.4782C10.3102 27.3299 10.1422 27.6087 9.97217 27.8894C9.96624 27.9032 9.95635 27.9269 9.95042 27.9427C9.80216 28.4765 9.65587 29.0122 9.50761 29.546C9.50564 29.5618 9.50168 29.5875 9.4997 29.6033L9.50563 30.3861C9.50563 30.394 9.50761 30.4079 9.50761 30.4158L9.70332 31.7402C9.70925 31.76 9.72111 31.7916 9.72704 31.8134L10.5711 33.3217C10.5889 33.3533 10.6008 33.4087 10.5968 33.4443L10.5889 33.5194C10.6146 33.5767 10.6443 33.6459 10.668 33.7033C11.3915 34.2746 11.9549 35.008 12.6053 35.6544C14.5169 37.5521 16.4344 39.444 18.35 41.3378C18.3619 41.3378 18.3678 41.3437 18.3717 41.3477Z" fill="url(#paint0_linear_2645_239)"/>
<path d="M46.925 35.6069L50.3825 30.7043C52.2072 32.529 55.0182 34.0492 58.4757 34.0492C60.7174 34.0492 62.0854 33.1754 62.0854 31.9596C62.0854 28.5021 47.7217 31.2756 47.7217 21.5101C47.7217 17.2539 51.3314 13.4545 57.8293 13.4545C61.8956 13.4545 65.4302 14.6702 68.1266 16.9891L64.5545 21.6623C62.4274 19.9148 59.6519 19.041 57.1453 19.041C55.2456 19.041 54.4094 19.8001 54.4094 20.8656C54.4094 24.0958 68.7355 21.7394 68.7355 31.163C68.7355 36.2553 64.9736 39.6377 58.1713 39.6377C53.0434 39.6337 49.4712 38.0384 46.925 35.6069Z" fill="white"/>
<path d="M82.1129 39.1772V36.973C80.9723 38.2659 78.8452 39.6338 75.7673 39.6338C71.5863 39.6338 69.7261 37.2775 69.7261 33.8951V20.8223H75.5775V31.5011C75.5775 33.7053 76.7181 34.4644 78.6179 34.4644C80.2903 34.4644 81.4309 33.5531 82.1149 32.6793V20.8223H87.9663V39.1772H82.1129Z" fill="white"/>
<path d="M89.8266 43.8901L92.3727 39.709C93.7782 41.2292 95.8302 41.8361 97.9593 41.8361C99.8966 41.8361 102.632 41.0375 102.632 37.6176V36.212C101.112 37.9991 99.2877 38.8728 97.1982 38.8728C92.7147 38.8728 89.103 35.7949 89.103 29.6015C89.103 23.5603 92.6001 20.3677 97.1982 20.3677C99.2501 20.3677 101.15 21.1663 102.632 22.989V20.8223H108.446V37.5424C108.446 45.0287 102.518 46.624 97.9573 46.624C94.8062 46.626 92.1829 45.8293 89.8266 43.8901ZM102.634 32.0725V27.17C101.913 26.1816 100.355 25.5351 99.1375 25.5351C96.8186 25.5351 95.1087 26.9407 95.1087 29.6015C95.1087 32.2999 96.8186 33.7054 99.1375 33.7054C100.353 33.7054 101.911 33.0609 102.634 32.0725Z" fill="white"/>
<path d="M121.671 39.1772V37.3526C120.531 38.7206 118.327 39.6319 115.972 39.6319C113.159 39.6319 109.664 37.7322 109.664 33.5907C109.664 29.1448 113.161 27.6997 115.972 27.6997C118.404 27.6997 120.57 28.4588 121.671 29.8268V27.6226C121.671 26.0273 120.303 24.9618 117.947 24.9618C116.122 24.9618 114.223 25.6458 112.74 26.8991L110.651 23.2123C113.007 21.1979 116.16 20.3617 118.973 20.3617C123.381 20.3617 127.523 21.9965 127.523 27.6958V39.1713H121.671V39.1772ZM121.671 34.4664V32.8316C121.062 31.9954 119.695 31.5387 118.404 31.5387C116.846 31.5387 115.478 32.2227 115.478 33.6678C115.478 35.1128 116.846 35.7949 118.404 35.7949C119.695 35.7968 121.062 35.3402 121.671 34.4664Z" fill="white"/>
<path d="M129.879 39.1771V20.8222H135.731V23.0639C136.946 21.5813 139.265 20.328 141.469 20.328V25.9521C141.127 25.877 140.633 25.7999 140.026 25.7999C138.506 25.7999 136.492 26.4463 135.733 27.4723V39.1771H129.879Z" fill="white"/>
<path d="M172.439 39.1773V22.6845L166.016 39.1773H163.128L156.744 22.6845V39.1773H150.209V13.8323H159.291L164.573 27.5891L169.892 13.8323H178.974V39.1793H172.439V39.1773Z" fill="white"/>
<path d="M192.313 39.1772V37.3526C191.173 38.7206 188.969 39.6319 186.614 39.6319C183.803 39.6319 180.306 37.7322 180.306 33.5907C180.306 29.1448 183.803 27.6997 186.614 27.6997C189.046 27.6997 191.212 28.4588 192.313 29.8268V27.6226C192.313 26.0273 190.945 24.9618 188.589 24.9618C186.764 24.9618 184.865 25.6458 183.382 26.8991L181.293 23.2123C183.649 21.1979 186.802 20.3617 189.615 20.3617C194.023 20.3617 198.165 21.9965 198.165 27.6958V39.1713H192.313V39.1772ZM192.313 34.4664V32.8316C191.705 31.9954 190.337 31.5387 189.046 31.5387C187.488 31.5387 186.12 32.2227 186.12 33.6678C186.12 35.1128 187.488 35.7949 189.046 35.7949C190.337 35.7968 191.705 35.3402 192.313 34.4664Z" fill="white"/>
<path d="M212.149 39.1773L208.12 32.6794L206.373 34.769V39.1773H200.521V13.8323H206.373V28.1584L211.959 20.8243H219.027L212.262 29.1844L219.369 39.1793H212.149V39.1773Z" fill="white"/>
<path d="M217.848 29.983C217.848 24.6633 221.877 20.3696 227.614 20.3696C233.048 20.3696 237 24.3589 237 30.5919V31.8452H223.927C224.269 33.5551 225.864 35.1129 228.525 35.1129C229.818 35.1129 232.06 34.5435 233.086 33.5551L235.555 37.2024C233.73 38.8372 230.69 39.6339 227.879 39.6339C222.217 39.6339 217.848 35.9471 217.848 29.983ZM227.614 24.8907C225.068 24.8907 224.079 26.7153 223.852 28.0457H231.413C231.263 26.7528 230.312 24.8907 227.614 24.8907Z" fill="white"/>
<defs>
<linearGradient id="paint0_linear_2645_239" x1="38.3613" y1="22.5474" x2="4.14388e-07" y2="22.5474" gradientUnits="userSpaceOnUse">
<stop stop-color="#FF695B"/>
<stop offset="1" stop-color="#FE426F"/>
</linearGradient>
</defs>
</svg>
