<svg width="28" height="28" viewBox="0 0 28 28" fill="none" xmlns="http://www.w3.org/2000/svg">
<path d="M25.0135 12.8917L14.2918 23.6134C12.9784 24.9269 11.1969 25.6648 9.33934 25.6648C7.48179 25.6648 5.70033 24.9269 4.38684 23.6134C3.07336 22.2999 2.33545 20.5184 2.33545 18.6609C2.33545 16.8034 3.07336 15.0219 4.38684 13.7084L15.1085 2.98674C15.9842 2.11108 17.1718 1.61914 18.4102 1.61914C19.6485 1.61914 20.8362 2.11108 21.7118 2.98674C22.5875 3.86239 23.0794 5.05004 23.0794 6.2884C23.0794 7.52677 22.5875 8.71441 21.7118 9.59007L10.9785 20.3117C10.5407 20.7496 9.94686 20.9955 9.32768 20.9955C8.70849 20.9955 8.11467 20.7496 7.67684 20.3117C7.23901 19.8739 6.99304 19.2801 6.99304 18.6609C6.99304 18.0417 7.23901 17.4479 7.67684 17.0101L17.5818 7.11674" stroke="white" stroke-opacity="0.6" stroke-width="2" stroke-linecap="round" stroke-linejoin="round"/>
</svg>
