<svg width="261" height="160" viewBox="0 0 261 160" fill="none" xmlns="http://www.w3.org/2000/svg">
<path fill-rule="evenodd" clip-rule="evenodd" d="M69.7076 51.7238C96.6488 51.3641 130.429 45.9919 140.208 71.0633C150.888 98.4441 129.142 125.638 105.206 142.73C81.9607 159.328 51.5661 167.413 28.118 151.102C3.39996 133.908 -6.83622 100.627 4.77949 72.8714C14.4843 49.6818 44.5417 52.0598 69.7076 51.7238Z" fill="#FDE7E7"/>
<g clip-path="url(#clip0_1993_93)">
<path d="M256.48 119.948H80.9273C79.7289 119.947 78.58 119.47 77.7326 118.622C76.8852 117.774 76.4086 116.624 76.4072 115.425V7.09807C76.4082 6.2195 76.7574 5.37718 77.3782 4.75592C77.999 4.13467 78.8407 3.78519 79.7186 3.78418H257.631C258.525 3.7852 259.381 4.1407 260.012 4.7727C260.644 5.4047 260.999 6.26159 261 7.15536V115.425C260.999 116.624 260.522 117.774 259.675 118.622C258.827 119.47 257.679 119.947 256.48 119.948Z" fill="#F2F2F2"/>
<path d="M250.076 113.543H86.4653C84.0669 113.543 82.1157 111.714 82.1157 109.467V15.1342C82.1157 13.4674 83.5616 12.1113 85.3388 12.1113H251.149C252.956 12.1113 254.426 13.4898 254.426 15.184V109.467C254.425 111.714 252.474 113.543 250.076 113.543Z" fill="white"/>
<path d="M260.937 6.8398H76.3438V4.53693C76.3455 3.33371 76.8241 2.18031 77.6746 1.32977C78.525 0.479221 79.6779 0.000993338 80.8803 0H256.401C257.603 0.000987545 258.756 0.479211 259.606 1.32976C260.457 2.1803 260.935 3.33371 260.937 4.53693V6.8398Z" fill="#CCCCCC"/>
<path d="M84.588 4.60143C85.236 4.60143 85.7614 4.0757 85.7614 3.42718C85.7614 2.77866 85.236 2.25293 84.588 2.25293C83.9399 2.25293 83.4146 2.77866 83.4146 3.42718C83.4146 4.0757 83.9399 4.60143 84.588 4.60143Z" fill="white"/>
<path d="M89.0421 4.60143C89.6901 4.60143 90.2155 4.0757 90.2155 3.42718C90.2155 2.77866 89.6901 2.25293 89.0421 2.25293C88.394 2.25293 87.8687 2.77866 87.8687 3.42718C87.8687 4.0757 88.394 4.60143 89.0421 4.60143Z" fill="white"/>
<path d="M93.4962 4.60143C94.1442 4.60143 94.6696 4.0757 94.6696 3.42718C94.6696 2.77866 94.1442 2.25293 93.4962 2.25293C92.8481 2.25293 92.3228 2.77866 92.3228 3.42718C92.3228 4.0757 92.8481 4.60143 93.4962 4.60143Z" fill="white"/>
<path d="M112.579 95.9982H71.8057C70.5347 95.9968 69.3162 95.4909 68.4174 94.5915C67.5187 93.6921 67.0132 92.4727 67.0117 91.2008V42.9103C67.0128 41.959 67.3909 41.047 68.063 40.3744C68.7351 39.7017 69.6465 39.3234 70.597 39.3223H113.73C114.696 39.3234 115.622 39.7078 116.305 40.3912C116.988 41.0746 117.372 42.0011 117.373 42.9676V91.2008C117.371 92.4727 116.866 93.6921 115.967 94.5915C115.068 95.4909 113.85 95.9968 112.579 95.9982Z" fill="white"/>
<path d="M112.579 95.9982H71.8057C70.5347 95.9968 69.3162 95.4909 68.4174 94.5915C67.5187 93.6921 67.0132 92.4727 67.0117 91.2008V42.9103C67.0128 41.959 67.3909 41.047 68.063 40.3744C68.7351 39.7017 69.6465 39.3234 70.597 39.3223H113.73C114.696 39.3234 115.622 39.7078 116.305 40.3912C116.988 41.0746 117.372 42.0011 117.373 42.9676V91.2008C117.371 92.4727 116.866 93.6921 115.967 94.5915C115.068 95.4909 113.85 95.9968 112.579 95.9982ZM70.597 39.8705C69.7917 39.8715 69.0197 40.192 68.4502 40.7619C67.8808 41.3318 67.5605 42.1044 67.5596 42.9103V91.2008C67.5609 92.3274 68.0086 93.4074 68.8047 94.204C69.6007 95.0006 70.68 95.4487 71.8057 95.45H112.579C113.705 95.4487 114.784 95.0006 115.58 94.204C116.376 93.4074 116.824 92.3274 116.825 91.2008V42.9676C116.824 42.1465 116.498 41.3593 115.918 40.7787C115.337 40.1981 114.551 39.8715 113.73 39.8705H70.597Z" fill="#3F3D56"/>
<path d="M92.1924 70.1956C96.8407 70.1956 100.609 66.4247 100.609 61.7731C100.609 57.1215 96.8407 53.3506 92.1924 53.3506C87.5441 53.3506 83.7759 57.1215 83.7759 61.7731C83.7759 66.4247 87.5441 70.1956 92.1924 70.1956Z" fill="#F16667"/>
<path d="M105.676 81.9695H78.7085V81.8835C78.7113 79.3999 79.6985 77.0187 81.4534 75.2625C83.2084 73.5063 85.5878 72.5184 88.0697 72.5156H96.3144C98.7963 72.5184 101.176 73.5063 102.931 75.2625C104.686 77.0187 105.673 79.3999 105.676 81.8835V81.9695Z" fill="#F16667"/>
<path d="M68.6808 77.6881C68.3212 77.8695 67.9262 77.9698 67.5237 77.9819C67.1211 77.994 66.7208 77.9177 66.351 77.7582C65.9811 77.5988 65.6507 77.3601 65.383 77.059C65.1152 76.758 64.9167 76.4018 64.8014 76.0157L55.0215 75.5883L58.0046 71.4648L66.8345 72.5029C67.4955 72.352 68.1889 72.4491 68.7833 72.7757C69.3776 73.1023 69.8315 73.6357 70.0591 74.2748C70.2867 74.914 70.2721 75.6145 70.0181 76.2436C69.764 76.8726 69.2882 77.3866 68.6808 77.6881Z" fill="#FFB8B8"/>
<path d="M41.528 73.7803L36.1498 63.4149C35.4088 61.9905 35.0817 60.3868 35.2059 58.7857C35.3301 57.1847 35.9004 55.6506 36.8522 54.3578C37.0438 54.1018 37.2471 53.8528 37.4565 53.6179C38.3108 52.6578 39.3755 51.9085 40.5672 51.4286C41.759 50.9487 43.0456 50.7512 44.3263 50.8516C45.6502 50.9417 46.9354 51.3369 48.0813 52.0066C49.2272 52.6763 50.2027 53.6021 50.9316 54.7118L53.5144 58.6188C53.7788 58.8551 57.3339 62.138 56.0114 66.4099L55.7841 70.5064C55.7682 70.7726 55.667 71.0265 55.4956 71.2307C55.3241 71.4348 55.0914 71.5781 54.8321 71.6395L42.9011 74.4134C42.6344 74.4757 42.3547 74.4472 42.106 74.3326C41.8573 74.2179 41.654 74.0236 41.528 73.7803Z" fill="#F16667"/>
<path d="M37.7564 93.4522C37.4755 93.1634 37.2614 92.8165 37.129 92.4359C36.9966 92.0552 36.9493 91.6502 36.9902 91.2493C37.0312 90.8484 37.1595 90.4613 37.3661 90.1154C37.5727 89.7695 37.8526 89.4731 38.1861 89.2471L35.6577 79.7832L40.4837 81.393L42.1448 90.1333C42.487 90.7191 42.6026 91.4101 42.4697 92.0754C42.3368 92.7408 41.9646 93.3342 41.4237 93.7433C40.8828 94.1524 40.2107 94.3488 39.5348 94.2951C38.8589 94.2414 38.2261 93.9415 37.7564 93.4522Z" fill="#FFB8B8"/>
<path d="M36.5707 88.9742C36.3935 88.8883 36.2396 88.7607 36.1222 88.6024C36.0049 88.4442 35.9274 88.2599 35.8965 88.0652L34.2317 71.902C34.0076 70.5896 33.9745 69.2517 34.1334 67.9298L36.1291 55.8352C36.2123 55.1292 36.5644 54.4827 37.1122 54.0301C37.6599 53.5776 38.361 53.3539 39.0694 53.4058C39.442 53.4324 39.8054 53.5343 40.1375 53.7054C40.4696 53.8765 40.7636 54.1132 41.0018 54.4012C41.2399 54.6892 41.4173 55.0225 41.5231 55.381C41.6289 55.7395 41.6609 56.1158 41.6173 56.487L39.988 70.3612L41.8539 86.7249C41.8828 86.9706 41.8368 87.2193 41.722 87.4384C41.6071 87.6575 41.4288 87.8367 41.2103 87.9526L37.6807 88.9613C37.5099 89.0513 37.3202 89.0993 37.1273 89.1015C36.9343 89.1038 36.7436 89.0601 36.5707 88.9742Z" fill="#F16667"/>
<path d="M63.3107 138.264L66.6103 137.638L65.7668 124.604L60.897 125.528L63.3107 138.264Z" fill="#FFB8B8"/>
<path d="M62.2646 137.346L68.7628 136.113C69.3067 136.01 69.8658 136.015 70.4077 136.128C70.9496 136.241 71.4639 136.459 71.9214 136.771C72.3789 137.083 72.7705 137.482 73.0738 137.945C73.3772 138.408 73.5864 138.927 73.6895 139.471L73.715 139.606L63.0756 141.625L62.2646 137.346Z" fill="#2F2E41"/>
<path d="M34.1114 138.367L37.4699 138.367L39.0676 125.403L34.1108 125.404L34.1114 138.367Z" fill="#FFB8B8"/>
<path d="M33.2544 137.27L39.8684 137.27H39.8687C40.4222 137.27 40.9703 137.379 41.4817 137.591C41.9931 137.803 42.4578 138.113 42.8492 138.505C43.2406 138.897 43.551 139.362 43.7628 139.873C43.9747 140.385 44.0837 140.934 44.0837 141.487V141.625L33.2546 141.625L33.2544 137.27Z" fill="#2F2E41"/>
<path d="M43.9378 47.9448C47.6537 47.9448 50.6661 44.9302 50.6661 41.2116C50.6661 37.493 47.6537 34.4785 43.9378 34.4785C40.2218 34.4785 37.2095 37.493 37.2095 41.2116C37.2095 44.9302 40.2218 47.9448 43.9378 47.9448Z" fill="#FFB8B8"/>
<path d="M33.5582 133.157C33.4425 133.032 33.3538 132.885 33.2975 132.725C33.2412 132.564 33.2185 132.394 33.2308 132.224L37.8105 90.6231C37.7711 90.2336 37.1491 83.17 42.196 74.132L42.2239 74.082L55.7479 70.3291L57.2432 76.6415L67.2648 131.527C67.3007 131.844 67.212 132.163 67.0175 132.416C66.823 132.669 66.5378 132.836 66.2223 132.882L62.7341 133.406C62.4395 133.45 62.1388 133.386 61.8878 133.225C61.6367 133.065 61.4521 132.819 61.3682 132.533L49.5581 95.5161C49.5333 95.4309 49.4817 95.3559 49.411 95.3025C49.3402 95.249 49.254 95.2199 49.1653 95.2195C49.0766 95.2191 48.9902 95.2474 48.9189 95.3001C48.8476 95.3529 48.7953 95.4274 48.7698 95.5124L39.0809 132.661C39.0055 132.917 38.8496 133.141 38.6363 133.302C38.423 133.462 38.1638 133.549 37.8971 133.55H34.46C34.2908 133.55 34.1235 133.515 33.9684 133.447C33.8133 133.38 33.6737 133.281 33.5582 133.157Z" fill="#2F2E41"/>
<path d="M62.1409 76.9381L47.5693 74.4378C46.6221 74.2787 45.7449 73.8371 45.0527 73.1708C44.3604 72.5044 43.8854 71.6445 43.6897 70.7035L40.647 56.3226C40.5289 55.7644 40.5339 55.1872 40.6617 54.6311C40.7894 54.0751 41.0368 53.5536 41.3866 53.1031C41.7364 52.6525 42.1803 52.2838 42.6871 52.0226C43.194 51.7613 43.7517 51.6139 44.3214 51.5905C45.3064 51.5547 46.2691 51.8897 47.0195 52.5293C47.7698 53.169 48.2534 54.0668 48.3747 55.0457L49.9016 67.864L62.7563 71.2064C62.9994 71.2901 63.2103 71.4479 63.3593 71.6576C63.5084 71.8672 63.5882 72.1183 63.5875 72.3756L63.582 75.7254C63.5818 75.9048 63.5423 76.082 63.4665 76.2446C63.3907 76.4073 63.2803 76.5513 63.1431 76.6668C63.0058 76.7823 62.8451 76.8664 62.672 76.9133C62.4989 76.9601 62.3176 76.9686 62.1409 76.9381Z" fill="#F16667"/>
<path d="M49.6611 39.6483C50.7322 39.4267 51.7735 38.7137 52.0596 37.6573C52.3096 36.7345 51.9398 35.7396 51.361 34.979C50.6063 34.0378 49.5588 33.3761 48.3851 33.099C47.2115 32.822 45.9789 32.9456 44.8835 33.4501C44.9868 32.906 44.5779 32.3691 44.0746 32.1387C43.5536 31.9462 42.9966 31.8713 42.4433 31.9194C40.6928 31.9439 38.8292 32.0024 37.3818 32.988C36.2277 33.7738 35.4949 35.066 35.1153 36.4103C34.7357 37.7547 34.6736 39.1653 34.6139 40.561C34.5093 43.007 35.467 48.1555 35.467 48.1555C35.467 48.1555 38.8539 49.0872 40.3376 49.5189C41.932 49.9828 44.6222 50.4467 46.2166 50.9106C46.6247 51.0294 47.1712 51.096 47.3763 50.7235C47.54 50.4262 47.3506 50.0639 47.1602 49.7829C46.3219 48.5454 45.3614 47.3783 44.7165 46.0298C44.0715 44.6812 43.7697 43.0788 44.3235 41.6902C44.8772 40.3016 48.5901 39.8699 49.6611 39.6483Z" fill="#2F2E41"/>
<path d="M155.304 87.0265H242.921C244.084 87.0265 245.199 86.5644 246.021 85.7418C246.843 84.9192 247.304 83.8036 247.304 82.6403V43.0141C247.304 41.8508 246.843 40.7352 246.021 39.9126C245.199 39.0901 244.084 38.6279 242.921 38.6279H155.304C154.142 38.6279 153.027 39.0901 152.205 39.9126C151.383 40.7352 150.921 41.8508 150.921 43.0141V82.6403C150.921 83.8036 151.383 84.9192 152.205 85.7418C153.027 86.5644 154.142 87.0265 155.304 87.0265Z" fill="#F2F2F2"/>
<path d="M233.355 65.02H163.5C162.919 65.02 162.361 64.7889 161.95 64.3777C161.539 63.9664 161.309 63.4085 161.309 62.8269C161.309 62.2452 161.539 61.6874 161.95 61.2761C162.361 60.8648 162.919 60.6338 163.5 60.6338H233.355C233.937 60.6338 234.494 60.8648 234.905 61.2761C235.316 61.6874 235.547 62.2452 235.547 62.8269C235.547 63.4085 235.316 63.9664 234.905 64.3777C234.494 64.7889 233.937 65.02 233.355 65.02Z" fill="white"/>
<path d="M233.355 74.3413H163.5C162.919 74.3413 162.361 74.1102 161.95 73.6989C161.539 73.2877 161.309 72.7298 161.309 72.1482C161.309 71.5665 161.539 71.0087 161.95 70.5974C162.361 70.1861 162.919 69.9551 163.5 69.9551H233.355C233.937 69.9551 234.494 70.1861 234.905 70.5974C235.316 71.0087 235.547 71.5665 235.547 72.1482C235.547 72.7298 235.316 73.2877 234.905 73.6989C234.494 74.1102 233.937 74.3413 233.355 74.3413Z" fill="white"/>
<path d="M221.028 55.6997H163.5C162.919 55.6997 162.361 55.4686 161.95 55.0573C161.539 54.6461 161.309 54.0882 161.309 53.5066C161.309 52.9249 161.539 52.3671 161.95 51.9558C162.361 51.5445 162.919 51.3135 163.5 51.3135H221.028C221.609 51.3135 222.167 51.5445 222.578 51.9558C222.989 52.3671 223.22 52.9249 223.22 53.5066C223.22 54.0882 222.989 54.6461 222.578 55.0573C222.167 55.4686 221.609 55.6997 221.028 55.6997Z" fill="white"/>
<path d="M84.7462 142H19.2739C19.2013 142 19.1316 141.972 19.0802 141.92C19.0289 141.869 19 141.799 19 141.726C19 141.654 19.0289 141.584 19.0802 141.532C19.1316 141.481 19.2013 141.452 19.2739 141.452H84.7462C84.8188 141.452 84.8885 141.481 84.9399 141.532C84.9913 141.584 85.0201 141.654 85.0201 141.726C85.0201 141.799 84.9913 141.869 84.9399 141.92C84.8885 141.972 84.8188 142 84.7462 142Z" fill="#CCCCCC"/>
</g>
<defs>
<clipPath id="clip0_1993_93">
<rect width="242" height="142" fill="white" transform="translate(19)"/>
</clipPath>
</defs>
</svg>
