<svg xmlns="http://www.w3.org/2000/svg" version="1.1" xmlns:xlink="http://www.w3.org/1999/xlink" width="512" height="512" x="0" y="0" viewBox="0 0 512 512" style="enable-background:new 0 0 512 512" xml:space="preserve" class=""><g><circle cx="333.28" cy="227.854" r="8" transform="rotate(-22.18 332.975 227.519)" fill="#fff" opacity="1" data-original="#fff"></circle><path d="M330.743 263.541a8 8 0 1 0-10.452-4.329 8 8 0 0 0 10.452 4.329zM354.71 279.592a8 8 0 1 0-10.453-4.33 8 8 0 0 0 10.453 4.33z" fill="#fff" opacity="1" data-original="#fff"></path><path d="M53.634 434.867c-14.941 8.208-22.495 8.938-24.608 8.074h-.01a8 8 0 1 0-6.123 14.782l73.894 30.608.017.007a8 8 0 0 0 6.123-14.782c-2.1-.871-6.933-6.719-11.7-23.114a199.714 199.714 0 0 1-4.744-20.8l44.817-108.2c2.389-1.859 11.946-4.146 18.99-5.832 28.021-6.7 74.919-17.927 80.727-68.47C235.25 210.274 247.76 161.873 256 132.5c8.241 29.373 20.751 77.774 24.986 114.636 5.807 50.543 52.7 61.765 80.726 68.47 7.045 1.686 16.6 3.974 18.99 5.832l44.817 108.2a199.259 199.259 0 0 1-4.7 20.654c-4.782 16.5-9.632 22.388-11.745 23.263a8 8 0 1 0 6.123 14.782l73.91-30.615a8 8 0 1 0-6.123-14.782h-.009c-2.116.864-9.666.134-24.609-8.074a199.48 199.48 0 0 1-18.066-11.355l-44.817-108.2c.377-3 5.516-11.378 9.305-17.55 15.073-24.556 40.3-65.653 8.667-105.5-35.318-44.49-76.054-121.823-76.462-122.6a8 8 0 0 0-10.144-3.673L256 95.341l-70.849-29.347a8 8 0 0 0-10.145 3.673c-.407.776-41.126 78.089-76.462 122.6-31.632 39.845-6.405 80.942 8.667 105.5 3.789 6.173 8.929 14.548 9.305 17.551L71.7 423.512a199.508 199.508 0 0 1-18.066 11.355zm382.552 19.875a198.686 198.686 0 0 0 3.178-12.585 198.436 198.436 0 0 0 11.148 6.651q4.287 2.361 8.2 4.184l-25.359 10.5q1.47-4.048 2.833-8.75zm-35.262-252.528c24.669 31.073 4.763 63.5-9.772 87.179a171.061 171.061 0 0 0-8.739 15.272 170.849 170.849 0 0 0-16.977-4.62c-27.021-6.465-64.026-15.32-68.555-54.735-1.537-13.372-4.078-28.041-7.09-42.738l85.926-35.592c8.263 12.52 16.838 24.692 25.207 35.234zM326.268 83.553c6.707 12.438 22.347 40.819 40.631 69.761l-80.536 33.36c-7.537-33.4-16.545-64.523-20.6-78.06zm-140.536 0 60.5 25.061c-4.053 13.537-13.061 44.665-20.6 78.06l-80.532-33.36c18.284-28.942 33.925-57.323 40.632-69.761zm-74.656 118.661c8.369-10.542 16.944-22.712 25.206-35.234l85.927 35.592c-3.012 14.7-5.553 29.366-7.09 42.738-4.529 39.415-41.535 48.27-68.555 54.735a170.8 170.8 0 0 0-16.978 4.62 170.567 170.567 0 0 0-8.739-15.272c-14.534-23.678-34.439-56.106-9.771-87.179zM75.814 454.742q1.364 4.7 2.837 8.755l-25.359-10.5q3.907-1.823 8.2-4.184a198.749 198.749 0 0 0 11.147-6.651 196.59 196.59 0 0 0 3.175 12.58z" fill="#fff" opacity="1" data-original="#fff"></path><circle cx="178.72" cy="227.854" r="8" transform="rotate(-68.03 178.812 227.952)" fill="#fff" opacity="1" data-original="#fff"></circle><path d="M176.927 253.089a8 8 0 1 0 10.453-4.33 8 8 0 0 0-10.453 4.33zM157.29 279.592a8 8 0 1 0-4.329-10.453 8 8 0 0 0 4.329 10.453zM264 64V32a8 8 0 0 0-16 0v32a8 8 0 0 0 16 0zM216.007 64a8 8 0 0 0 6.649-12.439l-16-24a8 8 0 1 0-13.312 8.876l16 24A7.991 7.991 0 0 0 216.007 64zM295.992 64a7.992 7.992 0 0 0 6.664-3.563l16-24a8 8 0 0 0-13.312-8.876l-16 24A8 8 0 0 0 295.992 64z" fill="#fff" opacity="1" data-original="#fff"></path></g></svg>