<svg width="500" height="500" viewBox="0 0 500 500" fill="none" xmlns="http://www.w3.org/2000/svg">
<path d="M181.61 417C235.43 445.12 322.7 445.12 376.52 417C430.34 388.88 430.34 343.3 376.52 315.18C322.7 287.06 235.43 287.07 181.61 315.18C127.79 343.29 127.79 388.84 181.61 417Z" fill="#F5F5F5" fill-opacity="0.5"/>
<path d="M217.71 302.645C217.46 302.305 217.6 279.535 209.88 272.765C202.16 265.995 195.35 271.365 199.82 279.475C202.82 284.825 211.11 294.295 211.12 303.365L217.71 302.645Z" fill="#FF7865"/>
<path opacity="0.6" d="M217.71 302.645C217.46 302.305 217.6 279.535 209.88 272.765C202.16 265.995 195.35 271.365 199.82 279.475C202.82 284.825 211.11 294.295 211.12 303.365L217.71 302.645Z" fill="white"/>
<path d="M215 303.18C214.898 303.181 214.799 303.143 214.723 303.075C214.647 303.006 214.6 302.912 214.59 302.81C212.27 280.98 203.53 273.16 203.44 273.08C203.358 273.009 203.307 272.908 203.3 272.799C203.292 272.69 203.328 272.583 203.4 272.5C203.472 272.418 203.573 272.368 203.682 272.36C203.79 272.353 203.898 272.389 203.98 272.46C204.35 272.78 213.06 280.53 215.41 302.72C215.421 302.83 215.389 302.94 215.319 303.026C215.25 303.113 215.15 303.168 215.04 303.18H215Z" fill="white"/>
<path d="M216.22 326.75C213.39 313.9 209.35 306.44 193.36 298.21C178.63 290.62 165.96 282.6 180.69 279.69C192.92 277.27 216.46 296.69 217.3 313.69L216.22 326.75Z" fill="#FF7865"/>
<path d="M214.65 310.6C214.566 310.601 214.484 310.577 214.414 310.531C214.344 310.484 214.291 310.418 214.26 310.34C209.43 297.46 194 285 180.63 283.13C180.522 283.112 180.425 283.054 180.36 282.966C180.294 282.878 180.266 282.768 180.28 282.66C180.287 282.606 180.305 282.553 180.333 282.506C180.361 282.459 180.398 282.418 180.441 282.386C180.485 282.353 180.535 282.33 180.588 282.317C180.641 282.304 180.696 282.301 180.75 282.31C194.41 284.22 210.11 296.92 215.04 310.05C215.076 310.153 215.069 310.266 215.023 310.365C214.976 310.464 214.893 310.541 214.79 310.58L214.65 310.6Z" fill="white"/>
<path d="M333.93 346.236C333.51 346.796 333.44 348.086 333.01 349.836C332.575 351.123 332.475 352.5 332.72 353.836C333.725 355.514 335.319 356.758 337.19 357.326C339.49 358.046 342.32 357.446 345.06 355.806C347.8 354.166 349.87 352.176 353.78 351.066C357.69 349.956 359.63 349.066 361.48 347.566C363.65 345.826 366.54 341.026 362.4 339.916C358.26 338.806 349.25 342.726 341.06 343.086L333.93 346.236Z" fill="#263238"/>
<path d="M333.93 341.117V347.257C334.178 347.949 334.615 348.557 335.191 349.014C335.767 349.47 336.46 349.755 337.19 349.837C337.863 349.945 338.554 349.873 339.19 349.627C340.184 349.245 341.046 348.582 341.671 347.72C342.296 346.857 342.657 345.831 342.71 344.767L342.95 341.117H333.93Z" fill="#FFA8A7"/>
<path d="M345.65 303.195C345.7 310.825 343.51 343.805 343.51 343.805C343.51 343.805 340.39 347.755 333.61 343.805L331.3 306.995L345.65 303.195Z" fill="#FF7865"/>
<path opacity="0.5" d="M345.65 303.195C345.7 310.825 343.51 343.805 343.51 343.805C343.51 343.805 340.39 347.755 333.61 343.805L331.3 306.995L345.65 303.195Z" fill="black"/>
<path d="M325.85 372.418C326.71 366.048 333.32 354.068 344.67 349.008C356.02 343.948 369.75 345.378 372.36 347.578C374.97 349.778 375.65 354.378 370.19 355.858C364.73 357.338 360.44 359.858 363.82 362.708C367.2 365.558 368.25 369.488 362.72 370.558C357.19 371.628 350.66 367.688 349.12 371.208C347.58 374.728 350.83 377.428 344.67 378.698C338.51 379.968 330.94 375.208 326.67 382.228L325.85 372.418Z" fill="#FF7865"/>
<path d="M326.22 377.242C326.167 377.251 326.113 377.251 326.06 377.242C326.01 377.221 325.964 377.19 325.926 377.152C325.888 377.113 325.858 377.068 325.837 377.018C325.817 376.967 325.806 376.914 325.807 376.859C325.807 376.805 325.819 376.752 325.84 376.702C334.26 356.702 358.6 347.702 367.09 348.242C367.2 348.249 367.302 348.3 367.375 348.382C367.448 348.464 367.485 348.572 367.48 348.682C367.477 348.736 367.464 348.79 367.44 348.84C367.417 348.889 367.383 348.933 367.342 348.97C367.301 349.006 367.253 349.034 367.201 349.051C367.15 349.069 367.095 349.076 367.04 349.072C360.3 348.662 335.37 356.252 326.6 377.022C326.564 377.091 326.509 377.148 326.442 377.187C326.375 377.226 326.298 377.245 326.22 377.242Z" fill="white"/>
<path d="M359.55 364.996C359.494 365.006 359.436 365.006 359.38 364.996C359.27 364.936 347.84 359.876 337.28 362.246C337.227 362.259 337.173 362.262 337.119 362.253C337.066 362.245 337.014 362.225 336.968 362.196C336.923 362.167 336.883 362.129 336.853 362.085C336.822 362.04 336.801 361.989 336.79 361.936C336.778 361.884 336.777 361.829 336.786 361.776C336.795 361.723 336.815 361.672 336.844 361.627C336.902 361.535 336.994 361.47 337.1 361.446C347.93 359.016 359.61 364.186 359.72 364.236C359.81 364.272 359.884 364.339 359.929 364.424C359.974 364.51 359.988 364.608 359.968 364.703C359.947 364.797 359.894 364.882 359.818 364.941C359.741 365 359.647 365.03 359.55 365.026V364.996Z" fill="white"/>
<path d="M265.65 272.391L229.88 293.041L314.84 342.091L341.67 326.601L350.61 321.441L265.65 272.391Z" fill="#FF7865"/>
<path d="M350.61 321.438V326.607L323.78 342.098L323.77 336.927L350.61 321.438Z" fill="#FF7865"/>
<path opacity="0.2" d="M350.61 321.438V326.607L323.78 342.098L323.77 336.927L350.61 321.438Z" fill="black"/>
<path d="M269.48 298.21C269.48 298.21 300.81 288.75 306.25 287.26C311.69 285.77 322.15 283.26 325.2 284.63C328.25 286 329.8 287.58 330.08 291.99C330.14 292.82 330.08 296.85 330.08 296.85C330.08 296.85 314.94 301.53 302.54 301.53C290.14 301.53 269.48 298.21 269.48 298.21Z" fill="#FF7865"/>
<path opacity="0.6" d="M269.48 298.21C269.48 298.21 300.81 288.75 306.25 287.26C311.69 285.77 322.15 283.26 325.2 284.63C328.25 286 329.8 287.58 330.08 291.99C330.14 292.82 330.08 296.85 330.08 296.85C330.08 296.85 314.94 301.53 302.54 301.53C290.14 301.53 269.48 298.21 269.48 298.21Z" fill="black"/>
<path d="M296.26 244.971L294.18 256.201L282.66 257.531L284.32 242.031L296.26 244.971Z" fill="#FFA8A7"/>
<path d="M307 236C307 236 308.51 240.63 308.05 240.92C307.222 241.096 306.372 241.143 305.53 241.06L307 236Z" fill="#F28F8F"/>
<path d="M304 221.151C306 223.241 307.87 226.731 307 235.581C306.09 245.281 303.19 247.871 302 248.431C300.17 249.281 294 247.801 291.94 246.311C289.42 244.451 284.66 239.811 283.42 234.101C281.96 227.381 283.83 219.741 288.74 218.191C295.7 216.001 302.36 219.381 304 221.151Z" fill="#FFA8A7"/>
<path d="M308.57 225.919C307.39 228.139 305.17 233.669 298.86 235.229C298.86 235.229 298.51 231.469 295.39 231.429C292.27 231.389 291.21 235.239 292.76 237.919C294.31 240.599 296.26 239.989 296.26 239.989C296.26 239.989 295.94 245.279 292.13 247.169C292.13 247.169 287.54 249.259 283.36 246.589C281.48 245.389 279.3 240.179 278.18 235.999C275.8 227.159 276.23 220.389 281.85 218.999C283.03 215.289 284.94 214.099 288.47 213.869C296.09 213.359 301.01 218.999 307.34 218.999C310.64 218.999 309.91 223.389 308.57 225.919Z" fill="#263238"/>
<path d="M282 219.639L278.18 217.999C278.287 217.749 278.442 217.522 278.637 217.332C278.831 217.142 279.062 216.992 279.314 216.891C279.567 216.79 279.837 216.739 280.109 216.742C280.381 216.745 280.65 216.802 280.9 216.909C281.15 217.016 281.377 217.171 281.567 217.366C281.757 217.561 281.907 217.791 282.008 218.043C282.109 218.296 282.16 218.566 282.157 218.838C282.154 219.11 282.097 219.379 281.99 219.629L282 219.639Z" fill="#263238"/>
<path d="M269.56 294.441C269.56 300.441 268.99 306.721 271.5 311.131C274.01 315.541 285.38 324.621 298.18 322.461C306.54 321.051 333.57 310.751 333.57 310.751C333.57 310.751 345.57 306.341 345.65 303.201C345.73 298.561 345.41 292.041 334.92 292.321C325.36 292.571 296.99 297.221 296.99 297.221L269.56 294.441Z" fill="#FF7865"/>
<path opacity="0.5" d="M269.56 294.441C269.56 300.441 268.99 306.721 271.5 311.131C274.01 315.541 285.38 324.621 298.18 322.461C306.54 321.051 333.57 310.751 333.57 310.751C333.57 310.751 345.57 306.341 345.65 303.201C345.73 298.561 345.41 292.041 334.92 292.321C325.36 292.571 296.99 297.221 296.99 297.221L269.56 294.441Z" fill="black"/>
<path d="M271.79 255.539C272.79 252.399 276.79 248.979 280.79 249.719C288.12 251.079 296.14 253.459 298.26 254.079C298.26 254.079 297.26 270.239 305.59 275.079L306.68 295.649C306.68 295.649 304.63 299.739 301.47 301.759C298.04 303.929 293.28 307.199 284.67 306.479C281.691 306.244 278.796 305.382 276.174 303.948C273.553 302.514 271.264 300.541 269.46 298.159C269.46 298.159 269.56 278.719 269.89 270.019C270.19 262.679 271.08 257.699 271.79 255.539Z" fill="#FF7865"/>
<path opacity="0.2" d="M271.79 255.539C272.79 252.399 276.79 248.979 280.79 249.719C288.12 251.079 296.14 253.459 298.26 254.079C298.26 254.079 297.26 270.239 305.59 275.079L306.68 295.649C306.68 295.649 304.63 299.739 301.47 301.759C298.04 303.929 293.28 307.199 284.67 306.479C281.691 306.244 278.796 305.382 276.174 303.948C273.553 302.514 271.264 300.541 269.46 298.159C269.46 298.159 269.56 278.719 269.89 270.019C270.19 262.679 271.08 257.699 271.79 255.539Z" fill="black"/>
<path d="M305.82 279.106C305.82 279.106 301.49 274.616 299.97 269.406C299.97 269.406 299.97 277.026 305.91 281.146L305.82 279.106Z" fill="#FF7865"/>
<path opacity="0.4" d="M305.82 279.106C305.82 279.106 301.49 274.616 299.97 269.406C299.97 269.406 299.97 277.026 305.91 281.146L305.82 279.106Z" fill="black"/>
<path d="M334.29 264.35L338.94 257.67C338.94 257.67 340.05 256.06 340.46 255.39C340.87 254.72 341.15 252.48 339.78 251.91C337.3 250.91 332.14 248.44 330.63 248.43C330.01 248.43 327.42 252.77 322.98 258.62C320.32 262.12 316.65 266.98 316.65 267.41C316.65 267.84 315.7 268.28 319.56 270.25C322.327 271.608 325.192 272.758 328.13 273.69L334.29 264.35Z" fill="#FF7865"/>
<path opacity="0.6" d="M334.29 264.35L338.94 257.67C338.94 257.67 340.05 256.06 340.46 255.39C340.87 254.72 341.15 252.48 339.78 251.91C337.3 250.91 332.14 248.44 330.63 248.43C330.01 248.43 327.42 252.77 322.98 258.62C320.32 262.12 316.65 266.98 316.65 267.41C316.65 267.84 315.7 268.28 319.56 270.25C322.327 271.608 325.192 272.758 328.13 273.69L334.29 264.35Z" fill="black"/>
<path d="M337.25 257.096C334.4 261.196 328.32 271.336 328.14 271.616C327.96 271.896 319.14 268.086 316.77 267.056C316.711 267.166 316.671 267.284 316.65 267.406C316.65 267.826 315.7 268.276 319.56 270.246C322.327 271.605 325.192 272.754 328.13 273.686L334.29 264.346L338.94 257.666C338.94 257.666 340.05 256.056 340.46 255.386C340.87 254.716 341.15 252.476 339.78 251.906C340.05 252.046 340.09 252.996 337.25 257.096Z" fill="#263238"/>
<path d="M329.73 250.562L338.53 254.133L328.71 269.143L319.94 265.383L329.73 250.562Z" fill="#FF7865"/>
<path opacity="0.8" d="M329.73 250.562L338.53 254.133L328.71 269.143L319.94 265.383L329.73 250.562Z" fill="white"/>
<path d="M298.28 254.078C302.8 255.438 305.56 255.688 310.56 263.378C315.56 271.068 326.51 286.318 327.56 288.158C329.07 290.708 329.72 293.738 328.42 296.088C327.2 298.268 323.66 297.318 318.7 292.958C313.9 288.748 304.4 276.848 304.4 276.848C301.271 269.594 299.209 261.924 298.28 254.078Z" fill="#FFA8A7"/>
<path d="M327.35 297.221C329.64 296.561 333.09 288.051 335.73 278.401C338.37 268.751 339.73 266.601 339.73 263.561C339.73 260.521 339.59 256.641 339.59 256.641L335.07 263.151C334.888 261.874 334.504 260.635 333.93 259.481C333.35 258.291 332.26 257.361 331.37 258.071C330.89 258.451 332.15 260.071 331.88 263.741C331.8 265.203 331.891 266.669 332.15 268.111L323.73 288.491L327.35 297.221Z" fill="#FFA8A7"/>
<path d="M298.28 254.078C300.523 254.554 302.714 255.251 304.82 256.158C306.853 256.958 308.582 258.379 309.76 260.218C313.26 266.028 318.26 274.298 318.26 274.298C318.26 274.298 319.12 281.498 310.37 284.018L305.71 279.018C303.806 276.982 302.243 274.652 301.08 272.118C299.11 267.758 296.86 260.878 298.28 254.078Z" fill="#FF7865"/>
<path opacity="0.2" d="M298.28 254.078C300.523 254.554 302.714 255.251 304.82 256.158C306.853 256.958 308.582 258.379 309.76 260.218C313.26 266.028 318.26 274.298 318.26 274.298C318.26 274.298 319.12 281.498 310.37 284.018L305.71 279.018C303.806 276.982 302.243 274.652 301.08 272.118C299.11 267.758 296.86 260.878 298.28 254.078Z" fill="black"/>
<path d="M310.07 158.629L216.76 104.759C214.41 103.399 212.46 104.239 212.07 106.609C212.288 105.121 212.818 103.695 213.626 102.427C214.435 101.158 215.503 100.075 216.76 99.2492L220.64 96.9992C222.117 96.2499 223.749 95.8594 225.405 95.8594C227.061 95.8594 228.693 96.2499 230.17 96.9992L323.49 150.869C324.894 151.754 326.053 152.979 326.86 154.429L313.44 162.179C312.64 160.726 311.48 159.503 310.07 158.629Z" fill="#37474F"/>
<path d="M328.25 380.478C328.161 382.131 327.683 383.74 326.854 385.174C326.025 386.608 324.869 387.825 323.48 388.728L319.6 390.997C318.255 391.672 316.783 392.054 315.281 392.12C313.778 392.185 312.278 391.932 310.88 391.378C313.13 392.228 314.88 390.957 314.88 388.237V166.878C314.82 165.22 314.338 163.606 313.48 162.188L326.9 154.438C327.754 155.861 328.233 157.478 328.29 159.137L328.25 380.478Z" fill="#263238"/>
<path d="M310.07 158.631L216.76 104.761C214.13 103.241 212 104.471 212 107.511V328.851C212.09 330.503 212.568 332.111 213.395 333.544C214.222 334.977 215.375 336.196 216.76 337.101L310.07 391.001C312.71 392.511 314.83 391.281 314.83 388.241V166.881C314.742 165.228 314.265 163.619 313.438 162.186C312.611 160.752 311.457 159.534 310.07 158.631ZM310.36 356.861C310.36 358.691 309.09 359.431 307.5 358.511L219.33 307.601C218.488 307.056 217.789 306.318 217.29 305.448C216.79 304.579 216.506 303.603 216.46 302.601V138.871C216.46 137.041 217.74 136.301 219.33 137.221L222.84 139.221L307.5 188.111C308.34 188.656 309.039 189.395 309.536 190.264C310.033 191.134 310.316 192.11 310.36 193.111V356.861Z" fill="#455A64"/>
<path d="M263.41 140.088C263.9 140.404 264.307 140.831 264.599 141.336C264.891 141.84 265.06 142.406 265.09 142.988C265.09 144.058 264.34 144.498 263.41 143.988C262.923 143.67 262.519 143.241 262.228 142.738C261.938 142.234 261.771 141.669 261.74 141.088C261.74 139.998 262.49 139.548 263.41 140.088Z" fill="#263238"/>
<path d="M263.41 340.919C265.331 342.18 266.929 343.876 268.073 345.868C269.218 347.861 269.878 350.095 270 352.389C270 356.609 267 358.329 263.38 356.209C261.454 354.953 259.851 353.261 258.701 351.27C257.551 349.279 256.886 347.045 256.76 344.749C256.79 340.519 259.76 338.809 263.41 340.919Z" fill="#263238"/>
<path d="M279.25 157.132C280.226 157.767 281.039 158.623 281.622 159.631C282.206 160.638 282.544 161.769 282.61 162.932C282.61 165.072 281.1 165.932 279.25 164.872C278.275 164.234 277.463 163.376 276.881 162.367C276.299 161.357 275.963 160.225 275.9 159.062C275.9 156.922 277.4 156.062 279.25 157.132Z" fill="#263238"/>
<path d="M271.05 156.402C271.05 157.832 269.99 158.402 268.67 157.612L246.61 144.872C245.923 144.443 245.348 143.856 244.933 143.16C244.517 142.465 244.273 141.681 244.22 140.872C244.22 139.442 245.29 138.872 246.61 139.662L268.67 152.402C269.356 152.832 269.93 153.419 270.344 154.114C270.758 154.81 271 155.594 271.05 156.402Z" fill="#263238"/>
<path d="M229.88 143.306L219.32 137.216C217.74 136.296 216.46 137.036 216.46 138.866V302.646C216.506 303.646 216.79 304.621 217.287 305.491C217.784 306.36 218.481 307.099 219.32 307.646L229.88 313.746V143.306Z" fill="#263238"/>
<g opacity="0.15">
<path d="M310.36 193.082V339.512L222.84 289.002V139.242L307.5 188.132C308.334 188.673 309.028 189.403 309.525 190.263C310.022 191.124 310.308 192.09 310.36 193.082Z" fill="white"/>
</g>
<path d="M223.39 140.197L307.23 188.607C307.975 189.103 308.596 189.765 309.044 190.54C309.491 191.316 309.753 192.184 309.81 193.077V338.557L223.39 288.668V140.197ZM222.84 139.197V288.997L310.36 339.517V193.077C310.316 192.077 310.033 191.101 309.536 190.231C309.038 189.361 308.34 188.623 307.5 188.077L222.84 139.188V139.197Z" fill="white"/>
<path d="M310.37 356.861V344.681L229.88 298.211L217.3 305.461C217.773 306.334 218.461 307.07 219.3 307.601L307.49 358.511C309.08 359.431 310.37 358.691 310.37 356.861Z" fill="#37474F"/>
<path d="M310.37 349.84L283.54 365.33V360.17L310.37 344.68V349.84Z" fill="#FF7865"/>
<path opacity="0.2" d="M310.37 349.84L283.54 365.33V360.17L310.37 344.68V349.84Z" fill="black"/>
<path d="M198.58 311.117L283.54 360.167V365.327L198.58 316.277V311.117Z" fill="#FF7865"/>
<path opacity="0.2" d="M198.58 311.117L283.54 360.167V365.327L198.58 316.277V311.117Z" fill="black"/>
<path d="M229.88 293.039L198.58 311.119L283.54 360.169L310.37 344.679V339.509L229.88 293.039Z" fill="#FF7865"/>
<path d="M229.88 293.039L198.58 311.119L283.54 360.169L310.37 344.679V339.509L229.88 293.039Z" fill="#FF7865"/>
<path d="M230.66 252.195C228 252.195 225.97 252.355 221.06 259.475C216.9 265.475 203.29 284.295 202.48 285.185C201.67 286.075 208.62 289.245 208.62 289.245L227 270.775L230.66 252.195Z" fill="#FFA8A7"/>
<path d="M205.24 283.665C205.24 283.665 206.7 282.885 210.39 282.915C212.68 282.915 214.11 283.075 214.39 282.335C214.76 281.225 215.66 279.185 216.13 279.195V284.625L205.24 283.665Z" fill="#F28F8F"/>
<path d="M198.78 365.067C192.63 373.187 187.83 375.067 186.15 376.827C184.47 378.587 185.44 382.057 189.55 382.827C193.66 383.597 198.11 382.657 200.76 380.007C203.41 377.357 205.24 373.907 207.94 372.007C210.64 370.107 212.03 369.567 212.44 367.287C212.85 365.007 210.79 358.227 210.79 358.227L198.78 365.067Z" fill="#263238"/>
<path d="M201.73 352.688C202.3 355.638 202.94 358.217 200.93 361.767C200.277 362.908 199.56 364.01 198.78 365.068C195.19 369.898 192.27 373.667 191.78 374.327C191.29 374.987 194.31 377.087 197.78 375.647C201.25 374.207 204.24 369.067 206.5 365.967C207.5 364.587 208.5 363.337 209.28 362.367C210.337 361.077 210.884 359.444 210.82 357.777L210.63 353.068L201.73 352.688Z" fill="#FFA8A7"/>
<path d="M213.75 376.606C207.6 384.736 202.8 386.606 201.12 388.376C199.44 390.146 200.42 393.596 204.52 394.376C208.62 395.156 213.08 394.196 215.73 391.556C218.38 388.916 220.21 385.446 222.92 383.556C225.63 381.666 227.01 381.106 227.41 378.826C227.81 376.546 225.77 369.766 225.77 369.766L213.75 376.606Z" fill="#263238"/>
<path d="M216.7 364.227C217.28 367.177 217.91 369.757 215.9 373.307C215.252 374.45 214.534 375.552 213.75 376.607C210.16 381.437 207.24 385.207 206.75 385.867C206.26 386.527 209.28 388.637 212.75 387.197C216.22 385.757 219.21 380.617 221.47 377.517C222.47 376.137 223.47 374.877 224.25 373.917C225.306 372.622 225.853 370.986 225.79 369.317L225.61 364.607L216.7 364.227Z" fill="#FFA8A7"/>
<path d="M256.8 291.997C261.51 301.677 259.65 311.267 246.92 317.547C239.81 321.057 226.05 327.257 226.05 327.257C226.05 327.257 228.05 332.757 228.12 342.027C228.19 350.187 226.02 367.937 226.02 367.937C226.02 367.937 220.7 370.407 216.89 367.937C216.89 367.937 215.2 356.937 213.89 345.847C212.3 331.917 210.96 323.727 211.67 320.727C212.3 318.077 217.84 314.197 222.07 311.227L207.31 318.167C207.31 318.167 210.48 322.547 211.23 330.437C212.14 339.977 210.99 356.377 210.99 356.377C209.579 357.067 208.039 357.457 206.47 357.522C204.9 357.587 203.334 357.327 201.87 356.757C201.87 356.757 191.48 316.307 193.04 310.697C195.28 302.647 225.94 290.387 227.5 287.227L256.8 291.997Z" fill="#FF7865"/>
<path opacity="0.2" d="M256.8 291.997C261.51 301.677 259.65 311.267 246.92 317.547C239.81 321.057 226.05 327.257 226.05 327.257C226.05 327.257 228.05 332.757 228.12 342.027C228.19 350.187 226.02 367.937 226.02 367.937C226.02 367.937 220.7 370.407 216.89 367.937C216.89 367.937 215.2 356.937 213.89 345.847C212.3 331.917 210.96 323.727 211.67 320.727C212.3 318.077 217.84 314.197 222.07 311.227L207.31 318.167C207.31 318.167 210.48 322.547 211.23 330.437C212.14 339.977 210.99 356.377 210.99 356.377C209.579 357.067 208.039 357.457 206.47 357.522C204.9 357.587 203.334 357.327 201.87 356.757C201.87 356.757 191.48 316.307 193.04 310.697C195.28 302.647 225.94 290.387 227.5 287.227L256.8 291.997Z" fill="black"/>
<path d="M246.34 252.222C255.94 253.122 257.47 251.582 260.34 259.362L251.54 281.792L256.8 292.002C255.56 293.852 240.9 301.732 228.02 292.332C225.759 284.105 223.957 275.759 222.62 267.332C221.62 260.242 227.9 252.422 231.01 252.112C232.132 251.979 233.26 251.916 234.39 251.922L246.34 252.222Z" fill="#FF7865"/>
<path opacity="0.6" d="M246.34 252.222C255.94 253.122 257.47 251.582 260.34 259.362L251.54 281.792L256.8 292.002C255.56 293.852 240.9 301.732 228.02 292.332C225.759 284.105 223.957 275.759 222.62 267.332C221.62 260.242 227.9 252.422 231.01 252.112C232.132 251.979 233.26 251.916 234.39 251.922L246.34 252.222Z" fill="white"/>
<path d="M212.87 283.648C214.87 283.708 214.79 282.428 215.29 281.178C215.88 279.708 216.42 278.398 216.42 278.398L217.74 283.158L219.55 291.978C219.55 291.978 214.24 291.908 210.34 291.978C206.44 292.048 202.01 290.748 201.56 287.978C201.28 286.258 202.56 283.848 206.56 283.468C208.665 283.367 210.774 283.427 212.87 283.648Z" fill="#FFA8A7"/>
<path d="M216.63 272.388C214.63 273.088 215.15 276.438 215.99 280.188C216.83 283.938 218.22 290.238 218.65 291.898C219.08 293.558 219.65 294.588 222.13 294.588C224.61 294.588 228.65 294.858 230.4 294.588C232.15 294.318 232.4 292.768 232.04 289.238C231.618 285.209 230.991 281.204 230.16 277.238C229.46 273.888 229.03 272.108 226.95 272.108C224.53 272.078 218.73 271.658 216.63 272.388Z" fill="#263238"/>
<path d="M216.5 282.516C216.7 283.396 218.5 284.126 220.14 284.196C222.514 284.289 224.891 284.128 227.23 283.716C228.9 283.266 229.96 286.146 228.35 288.776C226.74 291.406 223.1 292.206 218.66 291.966C217.327 290.653 216.445 288.951 216.14 287.106C216.006 285.566 216.128 284.015 216.5 282.516Z" fill="#FFA8A7"/>
<path d="M251.58 281.785C251.58 281.785 250.58 283.445 247.47 283.445C250.22 281.575 252.61 277.875 254.85 273.445L251.58 281.785Z" fill="#FF7865"/>
<path opacity="0.1" d="M251.58 281.785C251.58 281.785 250.58 283.445 247.47 283.445C250.22 281.575 252.61 277.875 254.85 273.445L251.58 281.785Z" fill="white"/>
<path d="M255.93 253.227C261.23 254.227 263.44 259.227 263.6 269.027C263.76 278.827 262.5 311.307 262.39 312.747C262.276 313.85 262.458 314.964 262.917 315.975C263.375 316.985 264.094 317.855 265 318.497C268.78 321.197 273.34 323.367 275.57 324.877C278.51 326.877 275.57 330.137 271.96 330.357C268.58 330.567 263.17 327.637 261.79 326.487C262.474 327.394 263.004 328.408 263.36 329.487C263.95 331.787 263.36 333.137 262.3 332.657C261.7 332.387 260.97 331.477 258.9 328.947C255.31 324.537 254.54 322.557 254.5 317.077C254.5 313.367 254.19 294.237 253.89 286.957C253.7 282.497 253.74 272.807 253.82 266.787C253.9 260.767 254.82 254.077 255.93 253.227Z" fill="#FFA8A7"/>
<path d="M223.08 233.999C223.08 233.999 219.71 228.619 222.08 223.449C224.45 218.279 234.14 211.529 245.19 216.329C255.69 220.899 254.76 232.979 254.8 238.449C254.87 243.629 223.08 233.999 223.08 233.999Z" fill="#263238"/>
<path d="M226.16 223.128C227.69 220.128 237.41 215.338 246.65 220.028C255.89 224.718 254.82 237.348 254.82 246.028V262.028C254.82 264.308 249.47 267.448 244.33 265.628L244.7 242.258C244.7 242.258 246.14 227.988 241.7 224.568C237.26 221.148 226.16 223.128 226.16 223.128Z" fill="#263238"/>
<path d="M244.7 235.681C245.3 236.041 246.16 234.881 246.9 234.101C247.64 233.321 250.07 232.271 251.27 234.811C252.47 237.351 249.71 240.861 248.07 242.001C247.611 242.4 247.038 242.643 246.432 242.696C245.827 242.748 245.22 242.606 244.7 242.291L244.54 252.151C244.54 252.151 242.11 257.491 236.29 258.281C230.47 259.071 231.66 254.281 233.57 251.911V248.301C232.115 248.612 230.619 248.687 229.14 248.521C228.38 248.321 226.56 246.131 225.39 243.681C224.08 240.921 221.89 236.031 223.84 227.761C225.93 218.881 235.47 218.611 241.17 222.191C246.87 225.771 244.7 235.681 244.7 235.681Z" fill="#FFA8A7"/>
<path d="M233.58 248.303C233.58 248.303 238.98 247.213 240.86 246.213C241.972 245.637 242.882 244.738 243.47 243.633C243.182 244.722 242.679 245.742 241.99 246.633C240.61 248.393 233.58 249.693 233.58 249.693V248.303Z" fill="#F28F8F"/>
<path d="M233.64 235.45C233.648 235.664 233.719 235.872 233.844 236.046C233.968 236.22 234.142 236.353 234.342 236.429C234.542 236.505 234.761 236.521 234.97 236.473C235.179 236.426 235.369 236.318 235.517 236.163C235.665 236.009 235.764 235.813 235.802 235.603C235.84 235.392 235.815 235.174 235.73 234.978C235.645 234.781 235.503 234.614 235.324 234.497C235.144 234.38 234.934 234.319 234.72 234.32C234.575 234.323 234.431 234.354 234.298 234.413C234.165 234.471 234.045 234.555 233.944 234.66C233.844 234.765 233.765 234.889 233.713 235.025C233.661 235.16 233.636 235.305 233.64 235.45Z" fill="#263238"/>
<path d="M234.79 231.357L237.1 232.637C237.264 232.319 237.299 231.951 237.198 231.609C237.098 231.266 236.869 230.975 236.56 230.797C236.408 230.714 236.24 230.663 236.068 230.646C235.895 230.63 235.721 230.648 235.556 230.701C235.391 230.753 235.238 230.838 235.106 230.951C234.975 231.063 234.867 231.201 234.79 231.357Z" fill="#263238"/>
<path d="M246.62 214.251L247.25 218.071C247.768 217.981 248.23 217.689 248.535 217.261C248.84 216.832 248.964 216.301 248.88 215.781C248.836 215.53 248.742 215.291 248.603 215.078C248.465 214.864 248.285 214.68 248.074 214.538C247.863 214.395 247.626 214.296 247.376 214.247C247.126 214.198 246.869 214.199 246.62 214.251Z" fill="#263238"/>
<path d="M251.24 216.141L247.7 217.681C247.918 218.155 248.314 218.525 248.801 218.712C249.289 218.899 249.83 218.888 250.31 218.681C250.541 218.578 250.749 218.431 250.921 218.246C251.094 218.062 251.227 217.845 251.314 217.608C251.401 217.371 251.439 217.119 251.426 216.867C251.414 216.615 251.35 216.368 251.24 216.141Z" fill="#263238"/>
<path d="M234.38 242.133L231.91 243.063C231.963 243.23 232.049 243.384 232.163 243.516C232.277 243.649 232.417 243.756 232.574 243.833C232.731 243.91 232.902 243.954 233.077 243.962C233.252 243.971 233.426 243.944 233.59 243.883C233.922 243.749 234.189 243.492 234.336 243.166C234.483 242.84 234.499 242.47 234.38 242.133Z" fill="#F28F8F"/>
<path d="M224 232.271L226.11 230.641C226.01 230.498 225.882 230.378 225.734 230.287C225.586 230.195 225.421 230.135 225.25 230.108C225.078 230.082 224.902 230.091 224.734 230.134C224.566 230.178 224.408 230.255 224.27 230.361C223.989 230.584 223.804 230.906 223.754 231.262C223.703 231.617 223.792 231.978 224 232.271Z" fill="#263238"/>
<path d="M224.65 235.138C224.66 235.349 224.731 235.553 224.856 235.724C224.98 235.895 225.152 236.025 225.35 236.099C225.548 236.173 225.764 236.188 225.97 236.141C226.176 236.093 226.363 235.987 226.51 235.834C226.656 235.681 226.754 235.489 226.791 235.281C226.829 235.073 226.805 234.858 226.722 234.664C226.639 234.469 226.501 234.304 226.324 234.187C226.148 234.07 225.941 234.008 225.73 234.008C225.437 234.016 225.16 234.139 224.957 234.35C224.755 234.562 224.645 234.845 224.65 235.138Z" fill="#263238"/>
<path d="M229.15 234.648L230.03 241.098L226.47 240.598L229.15 234.648Z" fill="#F28F8F"/>
<path d="M226.11 222.168C226.11 222.168 231 232.638 245.57 231.168C245.57 231.168 247.25 223.868 241.5 221.048C235.75 218.228 228.87 218.068 226.11 222.168Z" fill="#263238"/>
<path d="M241.16 229.861C242.87 230.081 243.37 232.691 242.95 234.861C242.53 237.031 244.59 237.211 246.2 234.861C247.236 233.06 247.822 231.036 247.91 228.961L241.16 229.861Z" fill="#263238"/>
<path d="M222.11 311.259C222.11 311.259 230.99 305.259 233.58 304.069C233.58 304.069 228.58 303.069 226.16 299.789C226.567 301.342 227.281 302.797 228.26 304.069L207.35 318.199L222.11 311.259Z" fill="#FF7865"/>
<path opacity="0.4" d="M222.11 311.259C222.11 311.259 230.99 305.259 233.58 304.069C233.58 304.069 228.58 303.069 226.16 299.789C226.567 301.342 227.281 302.797 228.26 304.069L207.35 318.199L222.11 311.259Z" fill="black"/>
<path d="M428.24 221.694L366.88 186.274C365.3 185.364 364.02 186.094 364.02 187.924V274.254C364.067 275.254 364.351 276.229 364.848 277.098C365.346 277.967 366.042 278.706 366.88 279.254L428.24 314.674C429.82 315.584 431.1 314.844 431.1 313.024V226.644C431.046 225.652 430.759 224.687 430.262 223.827C429.765 222.967 429.072 222.236 428.24 221.694Z" fill="#E0E0E0" fill-opacity="0.5"/>
<path d="M349 258.55L368.49 269.81V254.32L349.42 256.52C347.61 256.73 347.42 257.64 349 258.55Z" fill="#E0E0E0"/>
<path d="M375.35 204.063L419.77 229.713C420.456 230.142 421.03 230.729 421.444 231.425C421.858 232.121 422.1 232.905 422.15 233.713C422.15 235.133 421.09 235.713 419.77 234.913L375.35 209.273C374.665 208.842 374.092 208.255 373.678 207.56C373.264 206.864 373.022 206.081 372.97 205.273C373 203.843 374 203.303 375.35 204.063Z" fill="#F0F0F0"/>
<path d="M375.33 219.54L419.75 245.19C420.437 245.619 421.012 246.206 421.428 246.901C421.843 247.597 422.087 248.381 422.14 249.19C422.14 250.61 421.07 251.19 419.75 250.39L375.33 224.75C374.647 224.317 374.075 223.729 373.661 223.034C373.248 222.339 373.004 221.557 372.95 220.75C373 219.32 374 218.78 375.33 219.54Z" fill="#F0F0F0"/>
<path d="M375.35 234.997L419.77 260.647C420.45 261.072 421.019 261.651 421.433 262.337C421.847 263.024 422.092 263.798 422.15 264.597C422.15 266.027 421.09 266.597 419.77 265.807L375.35 240.197C374.67 239.773 374.101 239.194 373.687 238.507C373.273 237.821 373.028 237.047 372.97 236.247C373 234.817 374 234.277 375.35 234.997Z" fill="#F0F0F0"/>
<path d="M375.35 250.532L419.77 276.172C420.455 276.603 421.028 277.19 421.442 277.885C421.856 278.581 422.098 279.365 422.15 280.172C422.15 281.602 421.09 282.172 419.77 281.382L375.35 255.732C374.664 255.303 374.09 254.716 373.676 254.02C373.262 253.324 373.02 252.54 372.97 251.732C373 250.312 374 249.772 375.35 250.532Z" fill="#F0F0F0"/>
<path d="M375.35 266.003L419.77 291.653C420.456 292.083 421.03 292.67 421.444 293.365C421.858 294.061 422.1 294.845 422.15 295.653C422.15 297.073 421.09 297.653 419.77 296.853L375.35 271.213C374.665 270.783 374.092 270.196 373.678 269.5C373.264 268.805 373.022 268.021 372.97 267.213C373 265.803 374 265.263 375.35 266.003Z" fill="#F0F0F0"/>
<path d="M368.49 118.212V158.072C368.54 159.071 368.825 160.045 369.322 160.914C369.818 161.783 370.513 162.522 371.35 163.072L419.29 190.742C420.87 191.662 422.15 190.922 422.15 189.092V149.192C422.103 148.192 421.819 147.217 421.322 146.348C420.825 145.478 420.128 144.74 419.29 144.192L371.35 116.522C369.78 115.652 368.49 116.382 368.49 118.212Z" fill="#F0F0F0" fill-opacity="0.5"/>
<path d="M354.37 136.004L373 138.154V153.644L353.56 138.004C353.347 137.864 353.189 137.655 353.114 137.412C353.038 137.169 353.049 136.907 353.144 136.671C353.24 136.436 353.414 136.24 353.638 136.118C353.861 135.997 354.12 135.956 354.37 136.004Z" fill="#F0F0F0" fill-opacity="0.5"/>
<path d="M422.15 138.143C424.104 139.415 425.73 141.131 426.896 143.15C428.061 145.169 428.734 147.434 428.86 149.763C428.86 154.043 425.86 155.763 422.15 153.633C420.196 152.358 418.57 150.641 417.405 148.62C416.239 146.599 415.566 144.332 415.44 142.003C415.44 137.743 418.45 136.003 422.15 138.143Z" fill="#FF7865"/>
<path opacity="0.7" d="M422.15 138.143C424.104 139.415 425.73 141.131 426.896 143.15C428.061 145.169 428.734 147.434 428.86 149.763C428.86 154.043 425.86 155.763 422.15 153.633C420.196 152.358 418.57 150.641 417.405 148.62C416.239 146.599 415.566 144.332 415.44 142.003C415.44 137.743 418.45 136.003 422.15 138.143Z" fill="white"/>
<path d="M379.82 129.571L410.82 147.471C411.505 147.902 412.077 148.49 412.491 149.185C412.905 149.88 413.148 150.664 413.2 151.471C413.2 152.891 412.13 153.471 410.82 152.671L379.82 134.771C379.136 134.34 378.563 133.752 378.149 133.057C377.736 132.362 377.493 131.578 377.44 130.771C377.44 129.351 378.51 128.811 379.82 129.571Z" fill="#E6E6E6"/>
<path d="M379.82 142.102L410.82 160.002C411.505 160.434 412.077 161.021 412.491 161.716C412.905 162.412 413.148 163.195 413.2 164.002C413.2 165.422 412.13 166.002 410.82 165.202L379.82 147.302C379.136 146.871 378.563 146.284 378.149 145.588C377.736 144.893 377.493 144.11 377.44 143.302C377.44 141.882 378.51 141.342 379.82 142.102Z" fill="#E6E6E6"/>
<path d="M379.82 154.634L410.82 172.534C411.505 172.965 412.077 173.552 412.491 174.248C412.905 174.943 413.148 175.726 413.2 176.534C413.2 177.954 412.13 178.534 410.82 177.734L379.82 159.834C379.136 159.402 378.563 158.815 378.149 158.12C377.736 157.424 377.493 156.641 377.44 155.834C377.44 154.414 378.51 153.874 379.82 154.634Z" fill="#E6E6E6"/>
<path d="M177.83 169.997L116.48 134.577C114.9 133.667 113.62 134.407 113.62 136.227V222.597C113.666 223.597 113.95 224.572 114.447 225.442C114.944 226.311 115.641 227.05 116.48 227.597L177.83 262.997C179.41 263.907 180.69 263.167 180.69 261.347V174.997C180.644 173.996 180.36 173.021 179.863 172.152C179.365 171.283 178.669 170.544 177.83 169.997Z" fill="#E0E0E0" fill-opacity="0.5"/>
<path d="M124.94 152.423L169.36 178.063C170.047 178.492 170.622 179.079 171.038 179.774C171.453 180.47 171.697 181.254 171.75 182.063C171.75 183.493 170.68 184.063 169.36 183.273L124.94 157.623C124.256 157.191 123.683 156.604 123.269 155.909C122.856 155.213 122.613 154.43 122.56 153.623C122.56 152.203 123.63 151.663 124.94 152.423Z" fill="#F0F0F0"/>
<path d="M124.93 167.899L169.35 193.539C170.035 193.97 170.607 194.558 171.021 195.253C171.435 195.948 171.678 196.732 171.73 197.539C171.73 198.969 170.66 199.539 169.35 198.739L124.93 173.099C124.244 172.67 123.67 172.083 123.256 171.387C122.842 170.692 122.6 169.907 122.55 169.099C122.55 167.679 123.61 167.139 124.93 167.899Z" fill="#F0F0F0"/>
<path d="M124.94 183.392L169.36 209.002C170.047 209.432 170.622 210.019 171.038 210.714C171.453 211.41 171.697 212.194 171.75 213.002C171.75 214.422 170.68 215.002 169.36 214.202L124.94 188.562C124.257 188.13 123.685 187.542 123.271 186.847C122.858 186.152 122.614 185.369 122.56 184.562C122.56 183.172 123.63 182.632 124.94 183.392Z" fill="#F0F0F0"/>
<path d="M124.94 198.877L169.36 224.527C170.041 224.951 170.612 225.529 171.028 226.216C171.443 226.902 171.69 227.677 171.75 228.477C171.75 229.907 170.68 230.477 169.36 229.687L124.94 203.997C124.262 203.57 123.694 202.991 123.28 202.305C122.867 201.619 122.62 200.845 122.56 200.047C122.56 198.657 123.63 198.117 124.94 198.877Z" fill="#F0F0F0"/>
<path d="M124.94 214.376L169.36 239.996C170.047 240.426 170.622 241.013 171.038 241.708C171.453 242.404 171.697 243.188 171.75 243.996C171.75 245.416 170.68 245.996 169.36 245.196L124.94 219.556C124.256 219.125 123.683 218.538 123.269 217.842C122.856 217.147 122.613 216.364 122.56 215.556C122.56 214.156 123.63 213.616 124.94 214.376Z" fill="#F0F0F0"/>
<path d="M176.22 251.732L193.67 261.802C193.888 261.924 194.142 261.967 194.389 261.924C194.635 261.881 194.859 261.754 195.024 261.566C195.188 261.377 195.282 261.137 195.29 260.887C195.299 260.637 195.221 260.392 195.07 260.192L176.22 236.242V251.732Z" fill="#E0E0E0"/>
<path d="M68.9 249.881V289.741C68.9473 290.742 69.2312 291.716 69.7283 292.586C70.2255 293.455 70.9218 294.194 71.76 294.741L119.7 322.411C121.28 323.321 122.56 322.591 122.56 320.761V280.861C122.513 279.861 122.229 278.886 121.732 278.017C121.235 277.148 120.538 276.409 119.7 275.861L71.76 248.231C70.18 247.311 68.9 248.051 68.9 249.881Z" fill="#F0F0F0" fill-opacity="0.5"/>
<path d="M137.27 310.391L118.09 290.461V306.001L136.09 312.251C136.335 312.366 136.613 312.388 136.873 312.313C137.132 312.238 137.356 312.07 137.501 311.842C137.646 311.613 137.702 311.34 137.66 311.073C137.617 310.806 137.479 310.563 137.27 310.391Z" fill="#F0F0F0" fill-opacity="0.5"/>
<path d="M122.56 269.808C124.514 271.081 126.14 272.796 127.305 274.815C128.471 276.834 129.144 279.1 129.27 281.428C129.27 285.698 126.27 287.428 122.56 285.298C120.607 284.025 118.982 282.309 117.817 280.29C116.651 278.271 115.977 276.006 115.85 273.678C115.85 269.398 118.86 267.668 122.56 269.808Z" fill="#FF7865"/>
<path opacity="0.7" d="M122.56 269.808C124.514 271.081 126.14 272.796 127.305 274.815C128.471 276.834 129.144 279.1 129.27 281.428C129.27 285.698 126.27 287.428 122.56 285.298C120.607 284.025 118.982 282.309 117.817 280.29C116.651 278.271 115.977 276.006 115.85 273.678C115.85 269.398 118.86 267.668 122.56 269.808Z" fill="white"/>
<path d="M80.23 261.239L111.23 279.139C111.915 279.57 112.487 280.158 112.901 280.853C113.315 281.548 113.558 282.332 113.61 283.139C113.61 284.559 112.54 285.139 111.22 284.339L80.22 266.439C79.5338 266.01 78.96 265.423 78.546 264.727C78.1321 264.031 77.8901 263.247 77.84 262.439C77.85 260.999 78.91 260.479 80.23 261.239Z" fill="#E6E6E6"/>
<path d="M80.23 273.771L111.23 291.671C111.915 292.102 112.487 292.689 112.901 293.385C113.315 294.08 113.558 294.864 113.61 295.671C113.61 297.091 112.54 297.671 111.22 296.871L80.22 278.971C79.5338 278.541 78.96 277.954 78.546 277.259C78.1321 276.563 77.8901 275.779 77.84 274.971C77.85 273.551 78.91 273.001 80.23 273.771Z" fill="#E6E6E6"/>
<path d="M80.23 286.298L111.23 304.198C111.915 304.629 112.487 305.216 112.901 305.912C113.315 306.607 113.558 307.39 113.61 308.198C113.61 309.618 112.54 310.198 111.22 309.398L80.22 291.498C79.5338 291.068 78.96 290.481 78.546 289.786C78.1321 289.09 77.8901 288.306 77.84 287.498C77.85 286.078 78.91 285.538 80.23 286.298Z" fill="#E6E6E6"/>
<path d="M104.67 64.0002V103.86C104.717 104.861 105 105.836 105.497 106.705C105.995 107.574 106.691 108.313 107.53 108.86L155.47 136.54C157.05 137.45 158.33 136.71 158.33 134.88V95.0002C158.284 93.9998 158 93.0248 157.503 92.1555C157.006 91.2862 156.309 90.5474 155.47 90.0002L107.53 62.3502C106 61.4402 104.67 62.1802 104.67 64.0002Z" fill="#F0F0F0" fill-opacity="0.5"/>
<path d="M173 124.518L153.82 104.578V120.068L171.82 126.318C172.055 126.41 172.314 126.418 172.555 126.341C172.795 126.264 173.001 126.107 173.139 125.896C173.278 125.685 173.339 125.433 173.314 125.183C173.289 124.932 173.178 124.697 173 124.518Z" fill="#F0F0F0" fill-opacity="0.5"/>
<path d="M158.33 83.9314C160.276 85.2084 161.894 86.9258 163.053 88.9446C164.212 90.9634 164.879 93.2268 165 95.5514C165 99.8314 162 101.551 158.29 99.4214C156.338 98.1477 154.713 96.432 153.547 94.4131C152.381 92.3943 151.707 90.1292 151.58 87.8014C151.62 83.5314 154.63 81.7914 158.33 83.9314Z" fill="#FF7865"/>
<path opacity="0.7" d="M158.33 83.9314C160.276 85.2084 161.894 86.9258 163.053 88.9446C164.212 90.9634 164.879 93.2268 165 95.5514C165 99.8314 162 101.551 158.29 99.4214C156.338 98.1477 154.713 96.432 153.547 94.4131C152.381 92.3943 151.707 90.1292 151.58 87.8014C151.62 83.5314 154.63 81.7914 158.33 83.9314Z" fill="white"/>
<path d="M116 75.3602L147 93.2602C147.685 93.6914 148.257 94.2788 148.671 94.9741C149.084 95.6694 149.328 96.4528 149.38 97.2602C149.38 98.6802 148.31 99.2602 147 98.4602L116 80.5602C115.314 80.1307 114.74 79.5438 114.326 78.8481C113.912 78.1525 113.67 77.3681 113.62 76.5602C113.62 75.1402 114.68 74.6002 116 75.3602Z" fill="#E6E6E6"/>
<path d="M116 87.8914L147 105.791C147.685 106.223 148.257 106.81 148.671 107.505C149.084 108.201 149.328 108.984 149.38 109.791C149.38 111.211 148.31 111.791 147 110.991L116 93.0914C115.314 92.662 114.74 92.0751 114.326 91.3794C113.912 90.6837 113.67 89.8994 113.62 89.0914C113.62 87.6714 114.68 87.1314 116 87.8914Z" fill="#E6E6E6"/>
<path d="M116 100.423L147 118.323C147.685 118.754 148.257 119.341 148.671 120.037C149.084 120.732 149.328 121.515 149.38 122.323C149.38 123.743 148.31 124.323 147 123.523L116 105.623C115.314 105.193 114.74 104.606 114.326 103.911C113.912 103.215 113.67 102.431 113.62 101.623C113.62 100.203 114.68 99.6627 116 100.423Z" fill="#E6E6E6"/>
</svg>
