<svg width="14" height="14" viewBox="0 0 14 14" fill="none" xmlns="http://www.w3.org/2000/svg">
<path d="M6.54739 0.964187C6.72735 0.58081 7.27265 0.58081 7.45261 0.964188L9.04975 4.36654C9.12054 4.51733 9.26177 4.62296 9.42641 4.64827L13.0389 5.20349C13.441 5.26529 13.6049 5.75589 13.3207 6.04699L10.6764 8.75522C10.5655 8.86882 10.5151 9.02833 10.5406 9.18502L11.1602 12.9836C11.2274 13.3956 10.7901 13.7036 10.4248 13.5016L7.24196 11.7416C7.0914 11.6583 6.9086 11.6583 6.75804 11.7416L3.57523 13.5016C3.20994 13.7036 2.77259 13.3956 2.83978 12.9836L3.45936 9.18502C3.48492 9.02833 3.43454 8.86882 3.32363 8.75522L0.679347 6.04699C0.395121 5.75589 0.559019 5.26529 0.961143 5.20349L4.57359 4.64827C4.73823 4.62296 4.87946 4.51733 4.95025 4.36654L6.54739 0.964187Z" fill="white"/>
</svg>
