<svg width="40" height="40" viewBox="0 0 40 40" fill="none" xmlns="http://www.w3.org/2000/svg">
<path d="M31.25 35H23.5219C24.8201 33.8408 26.0444 32.6014 27.1875 31.2891C31.4766 26.3563 33.75 21.1562 33.75 16.25C33.75 12.6033 32.3013 9.10591 29.7227 6.52728C27.1441 3.94866 23.6467 2.5 20 2.5C16.3533 2.5 12.8559 3.94866 10.2773 6.52728C7.69866 9.10591 6.25 12.6033 6.25 16.25C6.25 21.1562 8.51719 26.3563 12.8125 31.2891C13.9556 32.6014 15.1799 33.8408 16.4781 35H8.75C8.41848 35 8.10054 35.1317 7.86612 35.3661C7.6317 35.6005 7.5 35.9185 7.5 36.25C7.5 36.5815 7.6317 36.8995 7.86612 37.1339C8.10054 37.3683 8.41848 37.5 8.75 37.5H31.25C31.5815 37.5 31.8995 37.3683 32.1339 37.1339C32.3683 36.8995 32.5 36.5815 32.5 36.25C32.5 35.9185 32.3683 35.6005 32.1339 35.3661C31.8995 35.1317 31.5815 35 31.25 35ZM8.75 16.25C8.75 13.2663 9.93526 10.4048 12.045 8.29505C14.1548 6.18526 17.0163 5 20 5C22.9837 5 25.8452 6.18526 27.955 8.29505C30.0647 10.4048 31.25 13.2663 31.25 16.25C31.25 25.1922 22.5828 32.6562 20 34.6875C17.4172 32.6562 8.75 25.1922 8.75 16.25ZM26.25 16.25C26.25 15.0139 25.8834 13.8055 25.1967 12.7777C24.5099 11.7499 23.5338 10.9488 22.3918 10.4758C21.2497 10.0027 19.9931 9.87893 18.7807 10.1201C17.5683 10.3612 16.4547 10.9565 15.5806 11.8306C14.7065 12.7047 14.1112 13.8183 13.8701 15.0307C13.6289 16.2431 13.7527 17.4997 14.2258 18.6418C14.6988 19.7838 15.4999 20.7599 16.5277 21.4467C17.5555 22.1334 18.7639 22.5 20 22.5C21.6576 22.5 23.2473 21.8415 24.4194 20.6694C25.5915 19.4973 26.25 17.9076 26.25 16.25ZM16.25 16.25C16.25 15.5083 16.4699 14.7833 16.882 14.1666C17.294 13.5499 17.8797 13.0693 18.5649 12.7855C19.2502 12.5016 20.0042 12.4274 20.7316 12.5721C21.459 12.7167 22.1272 13.0739 22.6517 13.5983C23.1761 14.1228 23.5333 14.791 23.6779 15.5184C23.8226 16.2458 23.7484 16.9998 23.4645 17.6851C23.1807 18.3703 22.7001 18.956 22.0834 19.368C21.4667 19.7801 20.7417 20 20 20C19.0054 20 18.0516 19.6049 17.3483 18.9017C16.6451 18.1984 16.25 17.2446 16.25 16.25Z" fill="white"/>
</svg>
