<svg width="1440" height="240" viewBox="0 0 1440 240" fill="none" xmlns="http://www.w3.org/2000/svg">
<g clip-path="url(#clip0_80_333)">
<rect width="1440" height="240" rx="20" fill="#232323"/>
<path d="M150.5 22.75C150.5 80.0495 104.05 126.5 46.75 126.5C-10.5495 126.5 -57 80.0495 -57 22.75C-57 -34.5495 -10.5495 -81 46.75 -81C104.05 -81 150.5 -34.5495 150.5 22.75Z" fill="white" fill-opacity="0.15"/>
<path d="M1466.5 15.75C1466.5 73.0495 1420.05 119.5 1362.75 119.5C1305.45 119.5 1259 73.0495 1259 15.75C1259 -41.5495 1305.45 -88 1362.75 -88C1420.05 -88 1466.5 -41.5495 1466.5 15.75Z" fill="white" fill-opacity="0.15"/>
<path d="M378 48C378 59.0457 369.046 68 358 68C346.954 68 338 59.0457 338 48C338 36.9543 346.954 28 358 28C369.046 28 378 36.9543 378 48Z" fill="white" fill-opacity="0.15"/>
<path d="M775 390C775 497.143 688.143 584 581 584C473.857 584 387 497.143 387 390C387 282.857 473.857 196 581 196C688.143 196 775 282.857 775 390Z" fill="white" fill-opacity="0.15"/>
<path d="M1362 176.5C1362 177.881 1360.88 179 1359.5 179C1358.12 179 1357 177.881 1357 176.5C1357 175.119 1358.12 174 1359.5 174C1360.88 174 1362 175.119 1362 176.5Z" fill="white" fill-opacity="0.5"/>
<path d="M1370 176.5C1370 177.881 1368.88 179 1367.5 179C1366.12 179 1365 177.881 1365 176.5C1365 175.119 1366.12 174 1367.5 174C1368.88 174 1370 175.119 1370 176.5Z" fill="white" fill-opacity="0.5"/>
<path d="M1379 176.5C1379 177.881 1377.88 179 1376.5 179C1375.12 179 1374 177.881 1374 176.5C1374 175.119 1375.12 174 1376.5 174C1377.88 174 1379 175.119 1379 176.5Z" fill="white" fill-opacity="0.5"/>
<path d="M1387 176.5C1387 177.881 1385.88 179 1384.5 179C1383.12 179 1382 177.881 1382 176.5C1382 175.119 1383.12 174 1384.5 174C1385.88 174 1387 175.119 1387 176.5Z" fill="white" fill-opacity="0.5"/>
<path d="M1362 185.5C1362 186.881 1360.88 188 1359.5 188C1358.12 188 1357 186.881 1357 185.5C1357 184.119 1358.12 183 1359.5 183C1360.88 183 1362 184.119 1362 185.5Z" fill="white" fill-opacity="0.5"/>
<path d="M1370 185.5C1370 186.881 1368.88 188 1367.5 188C1366.12 188 1365 186.881 1365 185.5C1365 184.119 1366.12 183 1367.5 183C1368.88 183 1370 184.119 1370 185.5Z" fill="white" fill-opacity="0.5"/>
<path d="M1379 185.5C1379 186.881 1377.88 188 1376.5 188C1375.12 188 1374 186.881 1374 185.5C1374 184.119 1375.12 183 1376.5 183C1377.88 183 1379 184.119 1379 185.5Z" fill="white" fill-opacity="0.5"/>
<path d="M1387 185.5C1387 186.881 1385.88 188 1384.5 188C1383.12 188 1382 186.881 1382 185.5C1382 184.119 1383.12 183 1384.5 183C1385.88 183 1387 184.119 1387 185.5Z" fill="white" fill-opacity="0.5"/>
<path d="M1362 195.5C1362 196.881 1360.88 198 1359.5 198C1358.12 198 1357 196.881 1357 195.5C1357 194.119 1358.12 193 1359.5 193C1360.88 193 1362 194.119 1362 195.5Z" fill="white" fill-opacity="0.5"/>
<path d="M1370 195.5C1370 196.881 1368.88 198 1367.5 198C1366.12 198 1365 196.881 1365 195.5C1365 194.119 1366.12 193 1367.5 193C1368.88 193 1370 194.119 1370 195.5Z" fill="white" fill-opacity="0.5"/>
<path d="M1379 195.5C1379 196.881 1377.88 198 1376.5 198C1375.12 198 1374 196.881 1374 195.5C1374 194.119 1375.12 193 1376.5 193C1377.88 193 1379 194.119 1379 195.5Z" fill="white" fill-opacity="0.5"/>
<path d="M1387 195.5C1387 196.881 1385.88 198 1384.5 198C1383.12 198 1382 196.881 1382 195.5C1382 194.119 1383.12 193 1384.5 193C1385.88 193 1387 194.119 1387 195.5Z" fill="white" fill-opacity="0.5"/>
<path d="M1362 204.5C1362 205.881 1360.88 207 1359.5 207C1358.12 207 1357 205.881 1357 204.5C1357 203.119 1358.12 202 1359.5 202C1360.88 202 1362 203.119 1362 204.5Z" fill="white" fill-opacity="0.5"/>
<path d="M1370 204.5C1370 205.881 1368.88 207 1367.5 207C1366.12 207 1365 205.881 1365 204.5C1365 203.119 1366.12 202 1367.5 202C1368.88 202 1370 203.119 1370 204.5Z" fill="white" fill-opacity="0.5"/>
<path d="M1379 204.5C1379 205.881 1377.88 207 1376.5 207C1375.12 207 1374 205.881 1374 204.5C1374 203.119 1375.12 202 1376.5 202C1377.88 202 1379 203.119 1379 204.5Z" fill="white" fill-opacity="0.5"/>
<path d="M1387 204.5C1387 205.881 1385.88 207 1384.5 207C1383.12 207 1382 205.881 1382 204.5C1382 203.119 1383.12 202 1384.5 202C1385.88 202 1387 203.119 1387 204.5Z" fill="white" fill-opacity="0.5"/>
<path d="M1362 213.5C1362 214.881 1360.88 216 1359.5 216C1358.12 216 1357 214.881 1357 213.5C1357 212.119 1358.12 211 1359.5 211C1360.88 211 1362 212.119 1362 213.5Z" fill="white" fill-opacity="0.5"/>
<path d="M1370 213.5C1370 214.881 1368.88 216 1367.5 216C1366.12 216 1365 214.881 1365 213.5C1365 212.119 1366.12 211 1367.5 211C1368.88 211 1370 212.119 1370 213.5Z" fill="white" fill-opacity="0.5"/>
<path d="M1379 213.5C1379 214.881 1377.88 216 1376.5 216C1375.12 216 1374 214.881 1374 213.5C1374 212.119 1375.12 211 1376.5 211C1377.88 211 1379 212.119 1379 213.5Z" fill="white" fill-opacity="0.5"/>
<path d="M1387 213.5C1387 214.881 1385.88 216 1384.5 216C1383.12 216 1382 214.881 1382 213.5C1382 212.119 1383.12 211 1384.5 211C1385.88 211 1387 212.119 1387 213.5Z" fill="white" fill-opacity="0.5"/>
<path d="M679 6.5C679 7.88071 677.881 9 676.5 9C675.119 9 674 7.88071 674 6.5C674 5.11929 675.119 4 676.5 4C677.881 4 679 5.11929 679 6.5Z" fill="white" fill-opacity="0.5"/>
<path d="M687 6.5C687 7.88071 685.881 9 684.5 9C683.119 9 682 7.88071 682 6.5C682 5.11929 683.119 4 684.5 4C685.881 4 687 5.11929 687 6.5Z" fill="white" fill-opacity="0.5"/>
<path d="M696 6.5C696 7.88071 694.881 9 693.5 9C692.119 9 691 7.88071 691 6.5C691 5.11929 692.119 4 693.5 4C694.881 4 696 5.11929 696 6.5Z" fill="white" fill-opacity="0.5"/>
<path d="M704 6.5C704 7.88071 702.881 9 701.5 9C700.119 9 699 7.88071 699 6.5C699 5.11929 700.119 4 701.5 4C702.881 4 704 5.11929 704 6.5Z" fill="white" fill-opacity="0.5"/>
<path d="M679 16.5C679 17.8807 677.881 19 676.5 19C675.119 19 674 17.8807 674 16.5C674 15.1193 675.119 14 676.5 14C677.881 14 679 15.1193 679 16.5Z" fill="white" fill-opacity="0.5"/>
<path d="M687 16.5C687 17.8807 685.881 19 684.5 19C683.119 19 682 17.8807 682 16.5C682 15.1193 683.119 14 684.5 14C685.881 14 687 15.1193 687 16.5Z" fill="white" fill-opacity="0.5"/>
<path d="M696 16.5C696 17.8807 694.881 19 693.5 19C692.119 19 691 17.8807 691 16.5C691 15.1193 692.119 14 693.5 14C694.881 14 696 15.1193 696 16.5Z" fill="white" fill-opacity="0.5"/>
<path d="M704 16.5C704 17.8807 702.881 19 701.5 19C700.119 19 699 17.8807 699 16.5C699 15.1193 700.119 14 701.5 14C702.881 14 704 15.1193 704 16.5Z" fill="white" fill-opacity="0.5"/>
<path d="M679 25.5C679 26.8807 677.881 28 676.5 28C675.119 28 674 26.8807 674 25.5C674 24.1193 675.119 23 676.5 23C677.881 23 679 24.1193 679 25.5Z" fill="white" fill-opacity="0.5"/>
<path d="M687 25.5C687 26.8807 685.881 28 684.5 28C683.119 28 682 26.8807 682 25.5C682 24.1193 683.119 23 684.5 23C685.881 23 687 24.1193 687 25.5Z" fill="white" fill-opacity="0.5"/>
<path d="M696 25.5C696 26.8807 694.881 28 693.5 28C692.119 28 691 26.8807 691 25.5C691 24.1193 692.119 23 693.5 23C694.881 23 696 24.1193 696 25.5Z" fill="white" fill-opacity="0.5"/>
<path d="M704 25.5C704 26.8807 702.881 28 701.5 28C700.119 28 699 26.8807 699 25.5C699 24.1193 700.119 23 701.5 23C702.881 23 704 24.1193 704 25.5Z" fill="white" fill-opacity="0.5"/>
<path d="M679 34.5C679 35.8807 677.881 37 676.5 37C675.119 37 674 35.8807 674 34.5C674 33.1193 675.119 32 676.5 32C677.881 32 679 33.1193 679 34.5Z" fill="white" fill-opacity="0.5"/>
<path d="M687 34.5C687 35.8807 685.881 37 684.5 37C683.119 37 682 35.8807 682 34.5C682 33.1193 683.119 32 684.5 32C685.881 32 687 33.1193 687 34.5Z" fill="white" fill-opacity="0.5"/>
<path d="M696 34.5C696 35.8807 694.881 37 693.5 37C692.119 37 691 35.8807 691 34.5C691 33.1193 692.119 32 693.5 32C694.881 32 696 33.1193 696 34.5Z" fill="white" fill-opacity="0.5"/>
<path d="M704 34.5C704 35.8807 702.881 37 701.5 37C700.119 37 699 35.8807 699 34.5C699 33.1193 700.119 32 701.5 32C702.881 32 704 33.1193 704 34.5Z" fill="white" fill-opacity="0.5"/>
</g>
<defs>
<clipPath id="clip0_80_333">
<rect width="1440" height="240" rx="20" fill="white"/>
</clipPath>
</defs>
</svg>
