<svg width="359" height="370" viewBox="0 0 359 370" fill="none" xmlns="http://www.w3.org/2000/svg">
<g clip-path="url(#clip0_91_604)">
<rect width="359" height="370" rx="5" fill="#232323"/>
<path d="M65 25C65 48.7482 45.7482 68 22 68C-1.74824 68 -21 48.7482 -21 25C-21 1.25176 -1.74824 -18 22 -18C45.7482 -18 65 1.25176 65 25Z" fill="white" fill-opacity="0.15"/>
<path d="M173.095 14.5476C173.095 15.4023 172.402 16.0952 171.548 16.0952C170.693 16.0952 170 15.4023 170 14.5476C170 13.6929 170.693 13 171.548 13C172.402 13 173.095 13.6929 173.095 14.5476Z" fill="white" fill-opacity="0.5"/>
<path d="M178.048 14.5476C178.048 15.4023 177.355 16.0952 176.5 16.0952C175.645 16.0952 174.952 15.4023 174.952 14.5476C174.952 13.6929 175.645 13 176.5 13C177.355 13 178.048 13.6929 178.048 14.5476Z" fill="white" fill-opacity="0.5"/>
<path d="M183.619 14.5476C183.619 15.4023 182.926 16.0952 182.072 16.0952C181.217 16.0952 180.524 15.4023 180.524 14.5476C180.524 13.6929 181.217 13 182.072 13C182.926 13 183.619 13.6929 183.619 14.5476Z" fill="white" fill-opacity="0.5"/>
<path d="M188.572 14.5476C188.572 15.4023 187.879 16.0952 187.024 16.0952C186.169 16.0952 185.476 15.4023 185.476 14.5476C185.476 13.6929 186.169 13 187.024 13C187.879 13 188.572 13.6929 188.572 14.5476Z" fill="white" fill-opacity="0.5"/>
<path d="M173.095 20.1191C173.095 20.9738 172.402 21.6667 171.548 21.6667C170.693 21.6667 170 20.9738 170 20.1191C170 19.2643 170.693 18.5714 171.548 18.5714C172.402 18.5714 173.095 19.2643 173.095 20.1191Z" fill="white" fill-opacity="0.5"/>
<path d="M178.048 20.1191C178.048 20.9738 177.355 21.6667 176.5 21.6667C175.645 21.6667 174.952 20.9738 174.952 20.1191C174.952 19.2643 175.645 18.5714 176.5 18.5714C177.355 18.5714 178.048 19.2643 178.048 20.1191Z" fill="white" fill-opacity="0.5"/>
<path d="M183.619 20.1191C183.619 20.9738 182.926 21.6667 182.072 21.6667C181.217 21.6667 180.524 20.9738 180.524 20.1191C180.524 19.2643 181.217 18.5714 182.072 18.5714C182.926 18.5714 183.619 19.2643 183.619 20.1191Z" fill="white" fill-opacity="0.5"/>
<path d="M188.572 20.1191C188.572 20.9738 187.879 21.6667 187.024 21.6667C186.169 21.6667 185.476 20.9738 185.476 20.1191C185.476 19.2643 186.169 18.5714 187.024 18.5714C187.879 18.5714 188.572 19.2643 188.572 20.1191Z" fill="white" fill-opacity="0.5"/>
<path d="M173.095 26.3095C173.095 27.1642 172.402 27.8571 171.548 27.8571C170.693 27.8571 170 27.1642 170 26.3095C170 25.4548 170.693 24.7619 171.548 24.7619C172.402 24.7619 173.095 25.4548 173.095 26.3095Z" fill="white" fill-opacity="0.5"/>
<path d="M178.048 26.3095C178.048 27.1642 177.355 27.8571 176.5 27.8571C175.645 27.8571 174.952 27.1642 174.952 26.3095C174.952 25.4548 175.645 24.7619 176.5 24.7619C177.355 24.7619 178.048 25.4548 178.048 26.3095Z" fill="white" fill-opacity="0.5"/>
<path d="M183.619 26.3095C183.619 27.1642 182.926 27.8571 182.072 27.8571C181.217 27.8571 180.524 27.1642 180.524 26.3095C180.524 25.4548 181.217 24.7619 182.072 24.7619C182.926 24.7619 183.619 25.4548 183.619 26.3095Z" fill="white" fill-opacity="0.5"/>
<path d="M188.572 26.3095C188.572 27.1642 187.879 27.8571 187.024 27.8571C186.169 27.8571 185.476 27.1642 185.476 26.3095C185.476 25.4548 186.169 24.7619 187.024 24.7619C187.879 24.7619 188.572 25.4548 188.572 26.3095Z" fill="white" fill-opacity="0.5"/>
<path d="M173.095 31.881C173.095 32.7357 172.402 33.4286 171.548 33.4286C170.693 33.4286 170 32.7357 170 31.881C170 31.0262 170.693 30.3334 171.548 30.3334C172.402 30.3334 173.095 31.0262 173.095 31.881Z" fill="white" fill-opacity="0.5"/>
<path d="M178.048 31.881C178.048 32.7357 177.355 33.4286 176.5 33.4286C175.645 33.4286 174.952 32.7357 174.952 31.881C174.952 31.0262 175.645 30.3334 176.5 30.3334C177.355 30.3334 178.048 31.0262 178.048 31.881Z" fill="white" fill-opacity="0.5"/>
<path d="M183.619 31.881C183.619 32.7357 182.926 33.4286 182.072 33.4286C181.217 33.4286 180.524 32.7357 180.524 31.881C180.524 31.0262 181.217 30.3334 182.072 30.3334C182.926 30.3334 183.619 31.0262 183.619 31.881Z" fill="white" fill-opacity="0.5"/>
<path d="M188.572 31.881C188.572 32.7357 187.879 33.4286 187.024 33.4286C186.169 33.4286 185.476 32.7357 185.476 31.881C185.476 31.0262 186.169 30.3334 187.024 30.3334C187.879 30.3334 188.572 31.0262 188.572 31.881Z" fill="white" fill-opacity="0.5"/>
<path d="M173.095 37.4524C173.095 38.3071 172.402 39 171.548 39C170.693 39 170 38.3071 170 37.4524C170 36.5977 170.693 35.9048 171.548 35.9048C172.402 35.9048 173.095 36.5977 173.095 37.4524Z" fill="white" fill-opacity="0.5"/>
<path d="M178.048 37.4524C178.048 38.3071 177.355 39 176.5 39C175.645 39 174.952 38.3071 174.952 37.4524C174.952 36.5977 175.645 35.9048 176.5 35.9048C177.355 35.9048 178.048 36.5977 178.048 37.4524Z" fill="white" fill-opacity="0.5"/>
<path d="M183.619 37.4524C183.619 38.3071 182.926 39 182.072 39C181.217 39 180.524 38.3071 180.524 37.4524C180.524 36.5977 181.217 35.9048 182.072 35.9048C182.926 35.9048 183.619 36.5977 183.619 37.4524Z" fill="white" fill-opacity="0.5"/>
<path d="M188.572 37.4524C188.572 38.3071 187.879 39 187.024 39C186.169 39 185.476 38.3071 185.476 37.4524C185.476 36.5977 186.169 35.9048 187.024 35.9048C187.879 35.9048 188.572 36.5977 188.572 37.4524Z" fill="white" fill-opacity="0.5"/>
<path d="M324.095 322.548C324.095 323.402 323.402 324.095 322.548 324.095C321.693 324.095 321 323.402 321 322.548C321 321.693 321.693 321 322.548 321C323.402 321 324.095 321.693 324.095 322.548Z" fill="white" fill-opacity="0.5"/>
<path d="M329.048 322.548C329.048 323.402 328.355 324.095 327.5 324.095C326.645 324.095 325.952 323.402 325.952 322.548C325.952 321.693 326.645 321 327.5 321C328.355 321 329.048 321.693 329.048 322.548Z" fill="white" fill-opacity="0.5"/>
<path d="M334.619 322.548C334.619 323.402 333.926 324.095 333.072 324.095C332.217 324.095 331.524 323.402 331.524 322.548C331.524 321.693 332.217 321 333.072 321C333.926 321 334.619 321.693 334.619 322.548Z" fill="white" fill-opacity="0.5"/>
<path d="M339.572 322.548C339.572 323.402 338.879 324.095 338.024 324.095C337.169 324.095 336.476 323.402 336.476 322.548C336.476 321.693 337.169 321 338.024 321C338.879 321 339.572 321.693 339.572 322.548Z" fill="white" fill-opacity="0.5"/>
<path d="M324.095 328.119C324.095 328.974 323.402 329.667 322.548 329.667C321.693 329.667 321 328.974 321 328.119C321 327.264 321.693 326.571 322.548 326.571C323.402 326.571 324.095 327.264 324.095 328.119Z" fill="white" fill-opacity="0.5"/>
<path d="M329.048 328.119C329.048 328.974 328.355 329.667 327.5 329.667C326.645 329.667 325.952 328.974 325.952 328.119C325.952 327.264 326.645 326.571 327.5 326.571C328.355 326.571 329.048 327.264 329.048 328.119Z" fill="white" fill-opacity="0.5"/>
<path d="M334.619 328.119C334.619 328.974 333.926 329.667 333.072 329.667C332.217 329.667 331.524 328.974 331.524 328.119C331.524 327.264 332.217 326.571 333.072 326.571C333.926 326.571 334.619 327.264 334.619 328.119Z" fill="white" fill-opacity="0.5"/>
<path d="M339.572 328.119C339.572 328.974 338.879 329.667 338.024 329.667C337.169 329.667 336.476 328.974 336.476 328.119C336.476 327.264 337.169 326.571 338.024 326.571C338.879 326.571 339.572 327.264 339.572 328.119Z" fill="white" fill-opacity="0.5"/>
<path d="M324.095 334.309C324.095 335.164 323.402 335.857 322.548 335.857C321.693 335.857 321 335.164 321 334.309C321 333.455 321.693 332.762 322.548 332.762C323.402 332.762 324.095 333.455 324.095 334.309Z" fill="white" fill-opacity="0.5"/>
<path d="M329.048 334.309C329.048 335.164 328.355 335.857 327.5 335.857C326.645 335.857 325.952 335.164 325.952 334.309C325.952 333.455 326.645 332.762 327.5 332.762C328.355 332.762 329.048 333.455 329.048 334.309Z" fill="white" fill-opacity="0.5"/>
<path d="M334.619 334.309C334.619 335.164 333.926 335.857 333.072 335.857C332.217 335.857 331.524 335.164 331.524 334.309C331.524 333.455 332.217 332.762 333.072 332.762C333.926 332.762 334.619 333.455 334.619 334.309Z" fill="white" fill-opacity="0.5"/>
<path d="M339.572 334.309C339.572 335.164 338.879 335.857 338.024 335.857C337.169 335.857 336.476 335.164 336.476 334.309C336.476 333.455 337.169 332.762 338.024 332.762C338.879 332.762 339.572 333.455 339.572 334.309Z" fill="white" fill-opacity="0.5"/>
<path d="M324.095 339.881C324.095 340.736 323.402 341.429 322.548 341.429C321.693 341.429 321 340.736 321 339.881C321 339.026 321.693 338.333 322.548 338.333C323.402 338.333 324.095 339.026 324.095 339.881Z" fill="white" fill-opacity="0.5"/>
<path d="M329.048 339.881C329.048 340.736 328.355 341.429 327.5 341.429C326.645 341.429 325.952 340.736 325.952 339.881C325.952 339.026 326.645 338.333 327.5 338.333C328.355 338.333 329.048 339.026 329.048 339.881Z" fill="white" fill-opacity="0.5"/>
<path d="M334.619 339.881C334.619 340.736 333.926 341.429 333.072 341.429C332.217 341.429 331.524 340.736 331.524 339.881C331.524 339.026 332.217 338.333 333.072 338.333C333.926 338.333 334.619 339.026 334.619 339.881Z" fill="white" fill-opacity="0.5"/>
<path d="M339.572 339.881C339.572 340.736 338.879 341.429 338.024 341.429C337.169 341.429 336.476 340.736 336.476 339.881C336.476 339.026 337.169 338.333 338.024 338.333C338.879 338.333 339.572 339.026 339.572 339.881Z" fill="white" fill-opacity="0.5"/>
<path d="M324.095 345.452C324.095 346.307 323.402 347 322.548 347C321.693 347 321 346.307 321 345.452C321 344.598 321.693 343.905 322.548 343.905C323.402 343.905 324.095 344.598 324.095 345.452Z" fill="white" fill-opacity="0.5"/>
<path d="M329.048 345.452C329.048 346.307 328.355 347 327.5 347C326.645 347 325.952 346.307 325.952 345.452C325.952 344.598 326.645 343.905 327.5 343.905C328.355 343.905 329.048 344.598 329.048 345.452Z" fill="white" fill-opacity="0.5"/>
<path d="M334.619 345.452C334.619 346.307 333.926 347 333.072 347C332.217 347 331.524 346.307 331.524 345.452C331.524 344.598 332.217 343.905 333.072 343.905C333.926 343.905 334.619 344.598 334.619 345.452Z" fill="white" fill-opacity="0.5"/>
<path d="M339.572 345.452C339.572 346.307 338.879 347 338.024 347C337.169 347 336.476 346.307 336.476 345.452C336.476 344.598 337.169 343.905 338.024 343.905C338.879 343.905 339.572 344.598 339.572 345.452Z" fill="white" fill-opacity="0.5"/>
<path d="M504 69C504 117.049 465.049 156 417 156C368.951 156 330 117.049 330 69C330 20.9512 368.951 -18 417 -18C465.049 -18 504 20.9512 504 69Z" fill="white" fill-opacity="0.15"/>
<path d="M182 435C182 489.676 137.676 534 83 534C28.3238 534 -16 489.676 -16 435C-16 380.324 28.3238 336 83 336C137.676 336 182 380.324 182 435Z" fill="white" fill-opacity="0.15"/>
</g>
<defs>
<clipPath id="clip0_91_604">
<rect width="359" height="370" rx="5" fill="white"/>
</clipPath>
</defs>
</svg>
