<svg xmlns="http://www.w3.org/2000/svg" version="1.1" xmlns:xlink="http://www.w3.org/1999/xlink" width="512" height="512" x="0" y="0" viewBox="0 0 24 24" style="enable-background:new 0 0 512 512" xml:space="preserve" class=""><g><path d="M22 11a1 1 0 0 0-1 1v6a3 3 0 0 1-3 3H6a3 3 0 0 1-3-3V6a3 3 0 0 1 3-3h6a1 1 0 0 0 0-2H6a5 5 0 0 0-5 5v12a5 5 0 0 0 5 5h12a5 5 0 0 0 5-5v-6a1 1 0 0 0-1-1z" fill="#ffffff" opacity="1" data-original="#000000" class=""></path><path d="M7.88 10.46A3 3 0 0 0 7 12.59V14a3 3 0 0 0 3 3h1.41a3 3 0 0 0 2.13-.88l8.58-8.58a3 3 0 0 0 0-4.25l-1.41-1.41a3 3 0 0 0-4.25 0zm11.41-7.17 1.42 1.42a1 1 0 0 1 0 1.41l-.86.88L17 4.15l.86-.86a1 1 0 0 1 1.43 0zM9 12.59a1 1 0 0 1 .29-.71l6.31-6.31 2.83 2.83-6.31 6.31a1 1 0 0 1-.71.29H10a1 1 0 0 1-1-1z" fill="#ffffff" opacity="1" data-original="#000000" class=""></path></g></svg>