<svg width="191" height="34" viewBox="0 0 191 34" fill="none" xmlns="http://www.w3.org/2000/svg">
<path d="M0 22.1524L3.45749 17.2499C5.28211 19.0745 8.09317 20.5947 11.5507 20.5947C13.7924 20.5947 15.1604 19.7209 15.1604 18.5052C15.1604 15.0477 0.796665 17.8212 0.796665 8.05561C0.796665 3.79948 4.40637 0 10.9042 0C14.9706 0 18.5052 1.21576 21.2016 3.53458L17.6294 8.20783C15.5024 6.4603 12.7269 5.58654 10.2202 5.58654C8.3205 5.58654 7.4843 6.34565 7.4843 7.41116C7.4843 10.6413 21.8104 8.28492 21.8104 17.7085C21.8104 22.8008 18.0485 26.1832 11.2462 26.1832C6.11831 26.1792 2.54617 24.5839 0 22.1524Z" fill="white"/>
<path d="M35.1879 25.7227V23.5186C34.0472 24.8114 31.9202 26.1794 28.8422 26.1794C24.6612 26.1794 22.801 23.823 22.801 20.4406V7.3678H28.6525V18.0467C28.6525 20.2508 29.7931 21.0099 31.6928 21.0099C33.3652 21.0099 34.5059 20.0986 35.1899 19.2249V7.3678H41.0413V25.7227H35.1879Z" fill="white"/>
<path d="M42.9015 30.4356L45.4477 26.2546C46.8532 27.7748 48.9052 28.3817 51.0342 28.3817C52.9715 28.3817 55.7074 27.583 55.7074 24.1631V22.7576C54.1873 24.5446 52.3626 25.4184 50.2731 25.4184C45.7897 25.4184 42.178 22.3404 42.178 16.147C42.178 10.1058 45.675 6.91321 50.2731 6.91321C52.3251 6.91321 54.2248 7.71185 55.7074 9.53449V7.36788H61.5213V24.088C61.5213 31.5742 55.5928 33.1696 51.0322 33.1696C47.8812 33.1715 45.2579 32.3749 42.9015 30.4356ZM55.7094 18.6181V13.7155C54.9879 12.7271 53.4301 12.0807 52.2124 12.0807C49.8936 12.0807 48.1836 13.4862 48.1836 16.147C48.1836 18.8454 49.8936 20.2509 52.2124 20.2509C53.4282 20.2509 54.9859 19.6065 55.7094 18.6181Z" fill="white"/>
<path d="M74.7463 25.7228V23.8981C73.6057 25.2661 71.4015 26.1774 69.0471 26.1774C66.2341 26.1774 62.739 24.2777 62.739 20.1362C62.739 15.6903 66.236 14.2452 69.0471 14.2452C71.4786 14.2452 73.6452 15.0043 74.7463 16.3723V14.1681C74.7463 12.5728 73.3783 11.5073 71.022 11.5073C69.1973 11.5073 67.2976 12.1913 65.815 13.4446L63.7255 9.75782C66.0818 7.74343 69.2349 6.90723 72.0479 6.90723C76.4563 6.90723 80.5977 8.54207 80.5977 14.2413V25.7168H74.7463V25.7228ZM74.7463 21.012V19.3771C74.1375 18.5409 72.7695 18.0843 71.4786 18.0843C69.9209 18.0843 68.5529 18.7682 68.5529 20.2133C68.5529 21.6584 69.9209 22.3404 71.4786 22.3404C72.7695 22.3424 74.1375 21.8857 74.7463 21.012Z" fill="white"/>
<path d="M82.9541 25.7227V7.36774H88.8055V9.60948C90.0213 8.12685 92.3401 6.87354 94.5443 6.87354V12.4976C94.2023 12.4225 93.7081 12.3454 93.1012 12.3454C91.581 12.3454 89.5666 12.9918 88.8075 14.0178V25.7227H82.9541Z" fill="white"/>
<path d="M125.513 25.7228V9.23008L119.091 25.7228H116.203L109.819 9.23008V25.7228H103.284V0.377808H112.366L117.648 14.1346L122.967 0.377808H132.049V25.7248H125.513V25.7228Z" fill="white"/>
<path d="M145.389 25.7228V23.8981C144.248 25.2661 142.044 26.1774 139.689 26.1774C136.878 26.1774 133.381 24.2777 133.381 20.1362C133.381 15.6903 136.878 14.2452 139.689 14.2452C142.121 14.2452 144.287 15.0043 145.389 16.3723V14.1681C145.389 12.5728 144.021 11.5073 141.664 11.5073C139.84 11.5073 137.94 12.1913 136.457 13.4446L134.368 9.75782C136.724 7.74343 139.877 6.90723 142.69 6.90723C147.099 6.90723 151.24 8.54207 151.24 14.2413V25.7168H145.389V25.7228ZM145.389 21.012V19.3771C144.78 18.5409 143.412 18.0843 142.121 18.0843C140.563 18.0843 139.195 18.7682 139.195 20.2133C139.195 21.6584 140.563 22.3404 142.121 22.3404C143.412 22.3424 144.78 21.8857 145.389 21.012Z" fill="white"/>
<path d="M165.224 25.7228L161.195 19.225L159.448 21.3145V25.7228H153.596V0.377808H159.448V14.7039L165.034 7.36988H172.101L165.337 15.7299L172.443 25.7248H165.224V25.7228Z" fill="white"/>
<path d="M170.923 16.5285C170.923 11.2088 174.952 6.91516 180.689 6.91516C186.123 6.91516 190.075 10.9044 190.075 17.1374V18.3907H177.002C177.344 20.1007 178.939 21.6584 181.6 21.6584C182.893 21.6584 185.135 21.0891 186.161 20.1007L188.63 23.7479C186.805 25.3828 183.765 26.1794 180.954 26.1794C175.292 26.1794 170.923 22.4926 170.923 16.5285ZM180.689 11.4362C178.143 11.4362 177.154 13.2608 176.927 14.5912H184.488C184.338 13.2984 183.387 11.4362 180.689 11.4362Z" fill="white"/>
</svg>
