<svg width="148" height="32" viewBox="0 0 148 32" fill="none" xmlns="http://www.w3.org/2000/svg">
<path d="M66.6354 19.6477C67.9029 20.4809 69.7045 21.0779 71.7021 21.0779C73.8687 21.0779 75.8359 19.9142 75.8359 17.7486C75.8359 16.2846 74.8692 15.2861 72.7026 14.1224C70.1033 12.7259 68.1361 10.9617 68.1361 8.26648C68.1361 3.97238 71.8711 1.31091 76.4038 1.31091C78.905 1.31091 80.5376 1.91135 81.4063 2.44094L80.1387 5.63538C79.4053 5.23734 77.9045 4.60318 76.1029 4.63691C73.6017 4.63691 72.2023 6.06715 72.2023 7.56485C72.2023 9.09629 73.4699 10.0273 75.5689 11.1911C78.3034 12.6213 79.9359 14.4192 79.9359 17.1482C79.9359 21.6413 76.2686 24.4006 71.2661 24.4006C68.5316 24.3668 66.2974 23.6011 65.2969 22.8354L66.6354 19.6477Z" fill="white"/>
<path d="M98.9459 7.86804L96.8131 19.0503C96.448 20.9797 96.2114 22.6765 96.012 24.0764H92.5441L92.9125 21.2496H92.8449C91.2765 23.3444 89.2451 24.4441 87.2103 24.4441C84.8443 24.4441 82.9751 23.1791 82.9751 19.8531C82.9751 18.9896 83.0765 18.0552 83.3097 16.9589L85.0437 7.87478H88.9105L87.2441 16.7261C87.0785 17.5256 86.9771 18.3217 86.9771 18.9558C86.9771 20.2882 87.5111 21.253 89.0457 21.253C90.8473 21.253 92.9125 19.1245 93.5817 15.7614L95.0453 7.86804H98.9459Z" fill="white"/>
<path d="M100.747 26.967C101.68 27.5337 103.481 27.9318 105.016 27.9318C107.551 27.9318 109.484 26.7343 110.286 22.9732L110.684 21.1449H110.617C109.282 23.0744 107.581 24.0054 105.516 24.0054C102.282 24.0054 100.45 21.3439 100.45 18.2811C100.416 12.857 104.316 7.50037 111.053 7.50037C113.152 7.50037 115.187 7.96587 116.687 8.63039L114.22 22.0084C113.618 25.1691 112.719 27.699 110.887 29.2304C109.187 30.6269 106.919 31.0283 104.884 31.0283C102.785 31.0283 100.848 30.5966 99.7837 29.9321L100.747 26.967ZM112.483 10.9309C112.05 10.7319 111.215 10.5329 110.316 10.5329C106.916 10.5329 104.516 14.1928 104.516 17.6874C104.516 19.3841 105.182 20.983 107.115 20.983C109.048 20.983 110.982 18.6859 111.55 15.7579L112.483 10.9309Z" fill="white"/>
<path d="M128.788 24.073C128.788 23.1083 128.92 21.8096 129.055 20.4468H128.988C127.385 23.4085 125.219 24.4407 123.154 24.4407C120.254 24.4407 118.351 22.1772 118.351 18.9153C118.351 13.39 122.217 7.50037 129.789 7.50037C131.556 7.50037 133.456 7.83431 134.724 8.23235L133.023 16.6856C132.557 19.0806 132.29 22.1435 132.358 24.073H128.788ZM130.357 10.6644C129.958 10.5633 129.457 10.4992 128.758 10.4992C125.188 10.4992 122.39 14.5268 122.39 18.2205C122.39 19.9172 123.022 21.3137 124.725 21.3137C126.561 21.3137 128.761 19.0503 129.528 14.9248L130.357 10.6644Z" fill="white"/>
<path d="M136.19 24.073L138.09 14.0916C138.523 11.7945 138.756 9.29829 138.925 7.86804H142.291C142.19 8.96771 142.092 10.0977 141.926 11.2615H142.028C143.13 9.09927 144.894 7.50037 147.095 7.50037C147.395 7.50037 147.696 7.5341 147.96 7.5341L147.193 11.329C146.993 11.2952 146.726 11.2952 146.459 11.2952C143.691 11.2952 141.923 14.0916 141.291 17.5525L140.057 24.073H136.19Z" fill="white"/>
<path d="M14.447 14.0916H6.37879L5.11127 20.7806H14.18L13.5479 24.0763H0.578613L4.84762 1.64783H17.3167L16.6846 4.94344H8.11615L6.98383 10.8331H15.0858L14.447 14.0916Z" fill="white"/>
<path d="M16.9819 24.0731L21.4842 0.447144H25.3848L20.8487 24.0731H16.9819Z" fill="white"/>
<path d="M25.2837 24.0731L28.3832 7.86819H32.25L29.1505 24.0731H25.2837ZM28.9849 3.47628C28.9849 2.1135 30.053 1.14539 31.3205 1.14539C32.5542 1.14539 33.3891 1.97857 33.3891 3.20979C33.3553 4.64003 32.2872 5.54068 30.9554 5.54068C29.7859 5.54068 28.9849 4.7075 28.9849 3.47628Z" fill="white"/>
<path d="M41.8221 3.70886L41.0548 7.86803H44.6884L44.0867 10.8634H40.4565L39.189 17.3839C39.0234 18.1496 38.8882 18.9828 38.8882 19.681C38.8882 20.5783 39.287 21.145 40.3213 21.145C40.7878 21.145 41.2542 21.1113 41.6565 21.0438L41.2914 24.0729C40.7236 24.3057 39.6893 24.4069 38.7564 24.4069C36.0895 24.4069 34.9234 22.9429 34.9234 21.0809C34.9234 20.1836 35.0248 19.283 35.258 18.0855L36.6573 10.8634H34.4907L35.0586 7.86803H37.2252L37.8268 4.83888L41.8221 3.70886Z" fill="white"/>
<path d="M57.2622 23.142C55.6601 23.9752 53.4935 24.4407 51.5263 24.4407C47.024 24.4407 44.8574 21.678 44.8574 17.7179C44.8574 12.8267 48.4572 7.50037 54.0613 7.50037C57.2622 7.50037 59.2971 9.33203 59.2971 12.0576C59.2971 16.2168 54.93 17.5492 48.66 17.4143C48.5924 17.981 48.7276 19.0773 49.0926 19.7114C49.7247 20.8077 50.8942 21.3744 52.4254 21.3744C54.2608 21.3744 55.7277 20.9089 56.8938 20.3085L57.2622 23.142ZM53.5611 10.398C51.1274 10.398 49.5253 12.5602 49.0588 14.5234C53.0608 14.5571 55.6263 14.0242 55.6263 12.061C55.6297 11.0288 54.7948 10.398 53.5611 10.398Z" fill="white"/>
</svg>

