<svg width="157" height="34" viewBox="0 0 157 34" fill="none" xmlns="http://www.w3.org/2000/svg">
<path d="M1.46014 21.5846C2.84285 22.4935 4.80814 23.1448 6.98728 23.1448C9.35079 23.1448 11.4968 21.8753 11.4968 19.5129C11.4968 17.9159 10.4422 16.8267 8.0787 15.5572C5.24323 14.0338 3.09727 12.1093 3.09727 9.16916C3.09727 4.48485 7.17164 1.58154 12.1162 1.58154C14.8447 1.58154 16.6257 2.23654 17.5733 2.81426L16.1906 6.29897C15.3905 5.86476 13.7533 5.17297 11.788 5.20977C9.0595 5.20977 7.53299 6.76997 7.53299 8.40378C7.53299 10.0744 8.9157 11.09 11.2055 12.3595C14.1884 13.9197 15.9693 15.881 15.9693 18.8579C15.9693 23.7593 11.9687 26.7693 6.51163 26.7693C3.52867 26.7325 1.09142 25.8972 0 25.0619L1.46014 21.5846Z" fill="white"/>
<path d="M36.7066 8.73505L34.38 20.9334C33.9817 23.0382 33.7236 24.8891 33.5061 26.4162H29.723L30.1249 23.3326H30.0512C28.3403 25.6177 26.1243 26.8173 23.9046 26.8173C21.3235 26.8173 19.2845 25.4374 19.2845 21.8091C19.2845 20.8671 19.3951 19.8479 19.6495 18.6519L21.5411 8.7424H25.7592L23.9414 18.398C23.7608 19.2701 23.6502 20.1385 23.6502 20.8303C23.6502 22.2838 24.2327 23.3362 25.9067 23.3362C27.872 23.3362 30.1249 21.0143 30.855 17.3456L32.4516 8.73505H36.7066Z" fill="white"/>
<path d="M38.6712 29.5697C39.6888 30.1879 41.6541 30.6221 43.3281 30.6221C46.0935 30.6221 48.2026 29.3158 49.0765 25.2129L49.5116 23.2184H49.4378C47.9814 25.3233 46.1267 26.3389 43.8738 26.3389C40.3452 26.3389 38.3467 23.4356 38.3467 20.0944C38.3098 14.1773 42.5649 8.33392 49.9135 8.33392C52.2033 8.33392 54.423 8.84173 56.0601 9.56664L53.3684 24.1605C52.7121 27.6084 51.7313 30.3682 49.7328 32.0388C47.8781 33.5622 45.404 34.0001 43.1843 34.0001C40.8946 34.0001 38.7818 33.5291 37.6203 32.8042L38.6712 29.5697ZM51.4732 12.0762C51.0012 11.8591 50.0905 11.642 49.1097 11.642C45.4003 11.642 42.7824 15.6345 42.7824 19.4467C42.7824 21.2976 43.5088 23.0418 45.6179 23.0418C47.727 23.0418 49.8361 20.5359 50.4555 17.3419L51.4732 12.0762Z" fill="white"/>
<path d="M69.2608 26.4125C69.2608 25.3601 69.4046 23.9434 69.5521 22.4568H69.4784C67.7306 25.6876 65.3671 26.8136 63.1142 26.8136C59.9506 26.8136 57.8747 24.3445 57.8747 20.7861C57.8747 14.7587 62.0929 8.33392 70.3522 8.33392C72.2807 8.33392 74.3529 8.69821 75.7356 9.13242L73.8809 18.3538C73.3721 20.9665 73.0808 24.3077 73.1545 26.4125H69.2608ZM70.9717 11.7855C70.5366 11.6751 69.9909 11.6052 69.2276 11.6052C65.3339 11.6052 62.2809 15.9988 62.2809 20.0281C62.2809 21.879 62.9704 23.4024 64.8288 23.4024C66.831 23.4024 69.2313 20.9333 70.0683 16.433L70.9717 11.7855Z" fill="white"/>
<path d="M77.3353 26.4125L79.4075 15.5241C79.8795 13.0182 80.1339 10.2952 80.3183 8.73501H83.9908C83.8801 9.93461 83.7732 11.1673 83.5925 12.4368H83.7032C84.9052 10.0781 86.8299 8.33392 89.2303 8.33392C89.5585 8.33392 89.8866 8.37072 90.1742 8.37072L89.3372 12.5104C89.1197 12.4736 88.8284 12.4736 88.5371 12.4736C85.5173 12.4736 83.5889 15.5241 82.8993 19.2995L81.5535 26.4125H77.3353Z" fill="white"/>
<path d="M107.428 15.524H98.6269L97.2442 22.8209H107.137L106.447 26.416H92.2996L96.9566 1.94946H110.559L109.869 5.54456H100.522L99.2869 11.9694H108.125L107.428 15.524Z" fill="white"/>
<path d="M110.194 26.4123L115.105 0.639404H119.36L114.412 26.4123H110.194Z" fill="white"/>
<path d="M119.249 26.4125L122.63 8.73508H126.849L123.467 26.4125H119.249ZM123.287 3.94407C123.287 2.45745 124.452 1.40137 125.835 1.40137C127.18 1.40137 128.091 2.31026 128.091 3.65336C128.054 5.21357 126.889 6.19606 125.436 6.19606C124.161 6.19606 123.287 5.28717 123.287 3.94407Z" fill="white"/>
<path d="M137.291 4.19763L136.454 8.73474H140.417L139.761 12.0023H135.801L134.418 19.1153C134.238 19.9506 134.09 20.8595 134.09 21.6212C134.09 22.6 134.525 23.2182 135.654 23.2182C136.162 23.2182 136.671 23.1814 137.11 23.1078L136.712 26.4122C136.092 26.6661 134.964 26.7765 133.946 26.7765C131.037 26.7765 129.765 25.1795 129.765 23.1483C129.765 22.1695 129.876 21.187 130.13 19.8807L131.657 12.0023H129.293L129.913 8.73474H132.276L132.932 5.43033L137.291 4.19763Z" fill="white"/>
<path d="M154.132 25.3969C152.385 26.3058 150.021 26.8136 147.875 26.8136C142.964 26.8136 140.6 23.7999 140.6 19.4798C140.6 14.1442 144.527 8.33392 150.641 8.33392C154.132 8.33392 156.352 10.332 156.352 13.3053C156.352 17.8424 151.588 19.2959 144.748 19.1487C144.675 19.7669 144.822 20.9628 145.22 21.6546C145.91 22.8505 147.186 23.4687 148.856 23.4687C150.858 23.4687 152.458 22.9609 153.73 22.3059L154.132 25.3969ZM150.095 11.4948C147.44 11.4948 145.692 13.8535 145.183 15.9951C149.549 16.0319 152.348 15.4505 152.348 13.3089C152.351 12.1829 151.441 11.4948 150.095 11.4948Z" fill="white"/>
</svg>
