<svg width="40" height="40" viewBox="0 0 40 40" fill="none" xmlns="http://www.w3.org/2000/svg">
<path d="M19.1576 36.6772C19.3555 36.8774 19.5557 37.0757 19.7866 37.3077C19.8591 37.3807 19.8547 37.4948 19.7756 37.5622C18.4209 38.7165 16.8552 39.536 14.9683 39.8354C11.4322 40.3985 8.4788 39.3471 5.96303 37.2965C2.32793 34.3347 0.463092 30.6639 0.0672549 26.4187C-0.376963 21.6552 1.38891 17.5428 5.0812 13.9936C5.74752 13.3518 5.74752 13.3612 6.51721 13.9206C7.25391 14.4557 7.98181 15.002 9.03298 15.0338C10.2337 15.0713 11.0407 14.5249 11.6895 13.7541C13.1167 12.0553 13.7962 10.0907 14.3592 8.10004C15.0959 5.49752 15.6633 2.93991 15.7776 0.256945C15.7776 0.234494 15.782 0.204558 15.7886 0.167139C15.8084 0.036171 15.9469 -0.0330548 16.0899 0.0155904C20.2352 1.43378 23.3711 3.88849 26.01 6.86707C28.5764 9.7652 30.5204 12.9196 31.5539 16.5362C31.6177 16.7626 31.7914 16.7907 31.9476 16.5998C32.0839 16.4333 32.2159 16.2649 32.3302 16.0891C32.8074 15.35 33.2538 14.5979 33.7222 13.8551C34.0059 13.4061 34.3226 13.3687 34.7448 13.7691C37.9445 16.8056 39.8753 20.2688 39.9919 24.4261C40.071 27.2419 39.5806 29.9361 38.1578 32.4769C36.4117 35.5902 33.9729 38.1683 30.0805 39.4799C26.606 40.6511 22.6784 39.7774 20.3055 37.5303C20.2396 37.4667 20.2352 37.3601 20.2946 37.2927C20.4045 37.1693 20.5167 37.0439 20.6288 36.9185C20.6332 36.9129 20.642 36.9054 20.6486 36.8998C20.9345 36.6547 21.2226 36.4115 21.5085 36.1664C24.1958 33.882 26.8809 31.5994 29.5681 29.3149C29.5857 29.2869 29.6121 29.2457 29.6275 29.2176L29.9156 27.966C29.9156 27.9641 29.9178 27.9585 29.9178 27.9566L30.2543 26.8116C30.2543 26.7854 30.2543 26.7461 30.2543 26.7199C30.0607 26.08 29.8672 25.442 29.6737 24.8022C29.6671 24.7891 29.6583 24.7685 29.6517 24.7554L28.981 23.7563C28.97 23.7451 28.9546 23.7264 28.9436 23.7151C28.6027 23.4289 28.2619 23.1426 27.921 22.8564L27.9254 22.8601C26.7797 22.0182 25.436 21.9096 23.9956 22.1641C23.989 22.166 23.9802 22.1678 23.9758 22.1678L22.3463 22.572C22.3287 22.5795 22.3001 22.5907 22.2825 22.5982C21.5744 23.0173 20.8663 23.4364 20.1582 23.8573C20.0746 23.8573 19.9911 23.8573 19.9075 23.8573C19.3094 23.5074 18.7134 23.1557 18.1152 22.8058C18.1042 22.8002 18.0889 22.7927 18.0779 22.789L16.9607 22.3774C16.9497 22.3736 16.9343 22.3699 16.9233 22.3662C16.5341 22.2876 16.1471 22.2109 15.7578 22.1323C15.7446 22.1304 15.7226 22.1285 15.7072 22.1267L13.9743 22.1248C13.9436 22.1304 13.8996 22.1416 13.8688 22.1473L12.1073 22.9574L11.7906 23.1015C11.773 23.1127 11.7467 23.1314 11.7313 23.1426L11.2497 23.6029C11.2453 23.6066 11.2387 23.6141 11.2343 23.6197L10.9264 23.9902H10.933C10.7571 24.239 10.5811 24.4878 10.4052 24.7348C10.3986 24.7479 10.3876 24.7685 10.381 24.7816C10.2271 25.2549 10.0731 25.7302 9.91921 26.2035C9.91701 26.2185 9.91261 26.2409 9.91041 26.254L9.91701 26.9482C9.91701 26.9556 9.91921 26.9669 9.91921 26.9744L10.1237 28.1493C10.1303 28.168 10.1413 28.1961 10.1501 28.2129L11.0298 29.5507C11.0473 29.5787 11.0605 29.6274 11.0561 29.6592L11.0495 29.7247C11.0759 29.7752 11.1067 29.8369 11.1331 29.8874C11.8874 30.3945 12.4746 31.0456 13.1541 31.6181C15.1487 33.302 17.1476 34.9802 19.1444 36.6603C19.1466 36.6678 19.1532 36.6734 19.1576 36.6772Z" fill="white"/>
</svg>
