<svg width="286" height="344" viewBox="0 0 286 344" fill="none" xmlns="http://www.w3.org/2000/svg">
<path d="M136.977 315.424C138.392 317.145 139.823 318.851 141.474 320.846C141.993 321.474 141.961 322.455 141.395 323.035C131.71 332.962 120.514 340.01 107.024 342.584C81.7401 347.427 60.6234 338.385 42.6357 320.75C16.6447 295.279 3.31111 263.71 0.480872 227.201C-2.69528 186.235 9.93073 150.868 36.3306 120.345C41.0948 114.826 41.0948 114.906 46.598 119.717C51.8654 124.319 57.0699 129.018 64.5858 129.291C73.1708 129.613 78.9413 124.914 83.5798 118.285C93.7844 103.675 98.643 86.7804 102.668 69.6603C107.936 47.2787 111.992 25.2832 112.81 2.20973C112.81 2.01664 112.841 1.7592 112.888 1.43739C113.03 0.311071 114.021 -0.284271 115.043 0.134077C144.682 12.3305 167.103 33.441 185.972 59.0568C204.321 83.9807 218.221 111.109 225.611 142.212C226.067 144.158 227.309 144.4 228.425 142.759C229.4 141.327 230.343 139.878 231.161 138.366C234.573 132.01 237.765 125.542 241.114 119.154C243.142 115.292 245.406 114.971 248.425 118.414C271.303 144.529 285.108 174.312 285.942 210.064C286.508 234.28 283.002 257.45 272.828 279.301C260.344 306.075 242.906 328.248 215.076 339.527C190.233 349.6 162.15 342.085 145.185 322.761C144.713 322.214 144.681 321.297 145.106 320.717C145.892 319.656 146.694 318.578 147.496 317.499C147.527 317.451 147.59 317.387 147.638 317.339C149.682 315.231 151.741 313.139 153.785 311.031C173 291.385 192.198 271.755 211.412 252.108C211.538 251.867 211.727 251.513 211.837 251.272L213.897 240.507C213.897 240.491 213.912 240.443 213.912 240.427L216.318 230.58C216.318 230.354 216.318 230.016 216.318 229.791C214.934 224.288 213.551 218.801 212.167 213.299C212.12 213.186 212.057 213.009 212.01 212.896L207.214 204.304C207.135 204.208 207.025 204.047 206.947 203.95C204.51 201.488 202.072 199.026 199.635 196.565L199.667 196.597C191.475 189.356 181.868 188.423 171.569 190.611C171.522 190.627 171.459 190.643 171.427 190.643L159.776 194.119C159.65 194.183 159.446 194.28 159.32 194.344C154.257 197.948 149.194 201.553 144.131 205.173C143.534 205.173 142.936 205.173 142.339 205.173C138.062 202.164 133.801 199.139 129.524 196.13C129.445 196.082 129.335 196.018 129.257 195.985L121.269 192.446C121.191 192.413 121.08 192.381 121.002 192.349C118.219 191.673 115.451 191.013 112.668 190.338C112.574 190.322 112.417 190.305 112.307 190.289L99.9166 190.273C99.6964 190.322 99.382 190.418 99.1618 190.466L86.5673 197.434L84.3031 198.672C84.1773 198.769 83.9886 198.93 83.8785 199.026L80.4351 202.985C80.4036 203.017 80.3565 203.081 80.325 203.129L78.1237 206.315H78.1709C76.913 208.455 75.6551 210.595 74.3972 212.719C74.3501 212.832 74.2715 213.009 74.2243 213.122C73.1236 217.192 72.023 221.279 70.9223 225.35C70.9066 225.479 70.8752 225.672 70.8594 225.785L70.9066 231.754C70.9066 231.819 70.9223 231.915 70.9223 231.979L72.3846 242.084C72.4318 242.245 72.5104 242.486 72.5733 242.631L78.8627 254.136C78.9885 254.377 79.0829 254.795 79.0514 255.069L79.0042 255.632C79.1929 256.067 79.413 256.598 79.6017 257.032C84.9949 261.393 89.1931 266.992 94.0517 271.916C108.313 286.397 122.606 300.83 136.883 315.279C136.898 315.343 136.946 315.392 136.977 315.424Z" fill="white"/>
</svg>
