<svg width="512" height="512" viewBox="0 0 512 512" fill="none" xmlns="http://www.w3.org/2000/svg">
<path d="M84.0333 463.039C81.5359 463.048 79.0802 462.399 76.9126 461.158C66.0452 454.9 57.0119 445.897 50.7165 435.051C44.4211 424.205 41.0843 411.896 41.04 399.356L41.04 112.644C41.0756 93.6627 48.6316 75.4689 62.0535 62.047C75.4755 48.625 93.6693 41.069 112.651 41.0334L399.362 41.0334C418.344 41.069 436.537 48.625 449.959 62.047C463.381 75.4689 470.937 93.6627 470.973 112.644V341.986C471.166 343.982 470.941 345.996 470.31 347.899C469.679 349.802 468.656 351.552 467.309 353.037C465.961 354.521 464.318 355.707 462.485 356.519C460.652 357.331 458.669 357.75 456.664 357.75C454.659 357.75 452.676 357.331 450.843 356.519C449.01 355.707 447.367 354.521 446.019 353.037C444.672 351.552 443.65 349.802 443.019 347.899C442.388 345.996 442.162 343.982 442.355 341.986V112.644C442.355 101.242 437.826 90.3061 429.763 82.2433C421.7 74.1805 410.765 69.6509 399.362 69.6509H112.651C101.248 69.6509 90.3127 74.1805 82.2499 82.2433C74.1871 90.3061 69.6574 101.242 69.6574 112.644V399.356C69.6704 406.88 71.6639 414.267 75.4373 420.777C79.2108 427.286 84.6314 432.687 91.1541 436.437C93.9122 438.007 96.0736 440.444 97.3013 443.371C98.5289 446.297 98.7539 449.547 97.941 452.615C97.1281 455.682 95.3231 458.395 92.8074 460.329C90.2917 462.263 87.2067 463.311 84.0333 463.308V463.039Z" fill="white"/>
<path d="M341.992 470.967H165.585C155.359 470.967 145.551 466.904 138.319 459.673C131.088 452.442 127.026 442.634 127.026 432.407C126.623 401.131 137.323 370.724 157.224 346.592C177.124 322.46 204.937 306.166 235.718 300.606C255.828 297.377 276.418 298.956 295.8 305.214C315.183 311.473 332.808 322.232 347.232 336.613C349.247 338.628 351.128 340.643 352.875 342.793C354.336 344.181 355.489 345.861 356.259 347.724C357.029 349.587 357.399 351.59 357.345 353.605C357.29 355.62 356.812 357.601 355.943 359.419C355.073 361.238 353.831 362.853 352.296 364.16C350.762 365.467 348.97 366.437 347.036 367.006C345.103 367.576 343.071 367.732 341.073 367.466C339.075 367.199 337.156 366.516 335.439 365.459C333.723 364.403 332.248 362.997 331.109 361.334L327.079 356.9C315.838 345.685 302.1 337.294 286.99 332.413C271.88 327.532 255.829 326.301 240.152 328.82C216.123 333.298 194.461 346.149 179.013 365.09C163.565 384.031 155.332 407.835 155.777 432.273C155.777 434.91 156.825 437.439 158.689 439.303C160.554 441.168 163.083 442.215 165.72 442.215H341.992C343.988 442.022 346.002 442.247 347.905 442.878C349.808 443.509 351.558 444.532 353.042 445.879C354.527 447.227 355.713 448.87 356.525 450.703C357.337 452.536 357.756 454.519 357.756 456.524C357.756 458.529 357.337 460.511 356.525 462.345C355.713 464.178 354.527 465.821 353.042 467.169C351.558 468.516 349.808 469.538 347.905 470.169C346.002 470.8 343.988 471.026 341.992 470.832V470.967ZM256.005 270.376C238.999 270.376 222.374 265.333 208.234 255.885C194.093 246.437 183.072 233.007 176.564 217.295C170.056 201.583 168.353 184.294 171.671 167.615C174.989 150.935 183.178 135.613 195.204 123.588C207.229 111.563 222.551 103.373 239.23 100.055C255.91 96.7376 273.199 98.4404 288.911 104.949C304.623 111.457 318.052 122.478 327.501 136.618C336.949 150.759 341.992 167.383 341.992 184.39C341.957 207.184 332.886 229.034 316.768 245.152C300.65 261.27 278.8 270.341 256.005 270.376ZM256.005 127.021C244.659 127.021 233.567 130.385 224.133 136.689C214.699 142.993 207.345 151.953 203.003 162.436C198.661 172.918 197.525 184.453 199.739 195.582C201.952 206.71 207.416 216.933 215.439 224.956C223.463 232.979 233.685 238.443 244.813 240.657C255.942 242.87 267.477 241.734 277.96 237.392C288.443 233.05 297.402 225.697 303.706 216.262C310.01 206.828 313.375 195.736 313.375 184.39C313.375 169.174 307.33 154.582 296.572 143.824C285.813 133.065 271.221 127.021 256.005 127.021Z" fill="white"/>
<path d="M427.975 384.98H413.6V370.738C413.793 368.743 413.567 366.729 412.936 364.826C412.305 362.923 411.283 361.173 409.936 359.688C408.588 358.204 406.945 357.017 405.112 356.205C403.279 355.394 401.296 354.974 399.291 354.974C397.286 354.974 395.303 355.394 393.47 356.205C391.637 357.017 389.994 358.204 388.646 359.688C387.299 361.173 386.277 362.923 385.646 364.826C385.015 366.729 384.789 368.743 384.982 370.738V384.98H370.741C367.185 385.325 363.885 386.981 361.484 389.626C359.083 392.272 357.753 395.716 357.753 399.289C357.753 402.861 359.083 406.305 361.484 408.951C363.885 411.596 367.185 413.252 370.741 413.597H384.982V427.973C384.789 429.969 385.015 431.983 385.646 433.886C386.277 435.789 387.299 437.539 388.646 439.023C389.994 440.508 391.637 441.694 393.47 442.506C395.303 443.318 397.286 443.737 399.291 443.737C401.296 443.737 403.279 443.318 405.112 442.506C406.945 441.694 408.588 440.508 409.936 439.023C411.283 437.539 412.305 435.789 412.936 433.886C413.567 431.983 413.793 429.969 413.6 427.973V413.597H427.975C431.531 413.252 434.831 411.596 437.232 408.951C439.633 406.305 440.963 402.861 440.963 399.289C440.963 395.716 439.633 392.272 437.232 389.626C434.831 386.981 431.531 385.325 427.975 384.98Z" fill="white"/>
</svg>
