<svg width="512" height="512" viewBox="0 0 512 512" fill="none" xmlns="http://www.w3.org/2000/svg">
<path d="M449.493 208.853C436.053 190.933 420.053 175.573 402.773 162.133L458.027 119.253C459.699 117.979 461.1 116.383 462.147 114.56C463.194 112.737 463.867 110.723 464.125 108.637C464.384 106.55 464.223 104.433 463.652 102.41C463.081 100.386 462.111 98.497 460.8 96.8533C459.529 95.1762 457.935 93.7708 456.112 92.7202C454.289 91.6695 452.274 90.995 450.186 90.7365C448.098 90.4779 445.979 90.6406 443.954 91.2149C441.93 91.7892 440.041 92.7634 438.4 94.08L374.613 143.573C338.773 123.307 298.027 112 256.213 112C180.48 112 108.16 148.267 62.7201 208.853C52.5408 222.464 47.04 239.004 47.04 256C47.04 272.996 52.5408 289.536 62.7201 303.147C76.1601 321.067 92.1601 336.427 109.44 349.867L54.1868 392.747C52.5145 394.021 51.1136 395.617 50.0664 397.44C49.0191 399.263 48.3466 401.277 48.0883 403.363C47.8299 405.45 47.991 407.567 48.562 409.59C49.133 411.614 50.1025 413.503 51.4135 415.147C54.6135 419.2 59.3068 421.333 64.0001 421.333C67.4135 421.333 70.8268 420.267 73.8135 417.92L137.6 368.427C173.44 388.693 214.187 400 256 400C331.733 400 404.053 363.733 449.493 303.147C470.4 275.413 470.4 236.587 449.493 208.853ZM88.1068 283.947C82.0818 275.875 78.8266 266.072 78.8266 256C78.8266 245.928 82.0818 236.125 88.1068 228.053C107.687 202.015 133.04 180.873 162.172 166.288C191.304 151.703 223.421 144.074 256 144C287.787 144 318.72 151.467 346.88 165.12L307.627 195.627C293.547 183.68 275.627 176.213 256 176.213C211.84 176.213 176 212.053 176 256.213C176 269.013 179.2 280.747 184.533 291.413L135.467 329.6C117.547 317.013 101.333 301.867 88.1068 284.16V283.947ZM304 256C304 282.453 282.453 304 256 304C246.4 304 237.653 301.227 230.187 296.32L301.44 241.067C302.933 245.76 304 250.88 304 256ZM208 256C208 229.547 229.547 208 256 208C265.6 208 274.347 210.773 281.813 215.68L210.56 270.933C209.067 266.24 208 261.12 208 256ZM423.893 283.947C404.313 309.985 378.961 331.127 349.829 345.712C320.697 360.296 288.579 367.926 256 368C224.213 368 193.28 360.533 165.12 346.88L204.373 316.373C218.453 328.32 236.373 335.787 256 335.787C300.16 335.787 336 299.947 336 255.787C336 242.987 332.8 231.253 327.467 220.587L376.533 182.4C394.453 194.987 410.667 210.133 423.893 227.84C436.267 244.267 436.267 267.307 423.893 283.733V283.947Z" fill="white"/>
</svg>
