<svg width="512" height="512" viewBox="0 0 512 512" fill="none" xmlns="http://www.w3.org/2000/svg">
<path d="M489.354 227.229C479.57 215.152 466.645 206.007 452 200.8V136C452 63.215 392.785 4 320 4H192C119.215 4 60.0004 63.215 60.0004 136V200.8C43.6226 206.591 29.4429 217.317 19.4136 231.501C9.38442 245.684 3.99902 262.629 3.99902 280C3.99902 297.371 9.38442 314.316 19.4136 328.499C29.4429 342.683 43.6226 353.409 60.0004 359.2V408C60.0232 428.149 68.0376 447.467 82.2855 461.715C96.5333 475.963 115.851 483.977 136 484H214.064C216.553 491.013 221.15 497.085 227.226 501.382C233.302 505.679 240.559 507.991 248 508H280C289.548 508 298.705 504.207 305.456 497.456C312.208 490.705 316 481.548 316 472C316 462.452 312.208 453.295 305.456 446.544C298.705 439.793 289.548 436 280 436H248C240.559 436.009 233.302 438.321 227.226 442.618C221.15 446.915 216.553 452.987 214.064 460H136C122.214 459.984 108.997 454.501 99.2481 444.752C89.4996 435.004 84.0161 421.786 84.0004 408V372H96.0004C105.545 371.989 114.696 368.193 121.445 361.444C128.194 354.695 131.99 345.545 132 336V224C131.99 214.455 128.194 205.305 121.445 198.556C114.696 191.807 105.545 188.011 96.0004 188H84.0004V136C84.0327 107.367 95.4216 79.9151 115.669 59.6681C135.916 39.4212 163.367 28.0323 192 28H320C348.634 28.0323 376.085 39.4212 396.332 59.6681C416.579 79.9151 427.968 107.367 428 136V188H416C406.456 188.011 397.305 191.807 390.556 198.556C383.807 205.305 380.011 214.455 380 224V336C380.011 345.545 383.807 354.695 390.556 361.444C397.305 368.193 406.456 371.989 416 372H440C443.183 372 446.235 370.736 448.486 368.485C450.736 366.235 452 363.183 452 360V359.2C464.668 354.722 476.077 347.27 485.268 337.47C494.46 327.671 501.167 315.809 504.827 302.881C508.486 289.953 508.991 276.336 506.298 263.172C503.606 250.009 497.796 237.682 489.354 227.229ZM248 460H280C283.183 460 286.235 461.264 288.486 463.515C290.736 465.765 292 468.817 292 472C292 475.183 290.736 478.235 288.486 480.485C286.235 482.736 283.183 484 280 484H248C244.818 484 241.766 482.736 239.515 480.485C237.265 478.235 236 475.183 236 472C236 468.817 237.265 465.765 239.515 463.515C241.766 461.264 244.818 460 248 460ZM28.0005 280C28.0627 269.096 31.0689 258.411 36.7014 249.074C42.334 239.737 50.3838 232.095 60.0004 226.955V333.045C50.3838 327.905 42.334 320.263 36.7014 310.926C31.0689 301.589 28.0627 290.904 28.0005 280ZM108 224V336C107.997 339.182 106.732 342.232 104.482 344.481C102.232 346.731 99.182 347.997 96.0004 348H84.0004V212H96.0004C99.182 212.003 102.232 213.269 104.482 215.519C106.732 217.768 107.997 220.818 108 224ZM404 336V224C404.004 220.818 405.269 217.768 407.519 215.519C409.769 213.269 412.819 212.003 416 212H428V348H416C412.819 347.997 409.769 346.731 407.519 344.481C405.269 342.232 404.004 339.182 404 336ZM452 333.045V226.955C461.658 232.046 469.742 239.677 475.381 249.025C481.02 258.373 484.001 269.083 484.001 280C484.001 290.917 481.02 301.627 475.381 310.975C469.742 320.323 461.658 327.954 452 333.045Z" fill="white"/>
<path d="M350.563 213.954C348.612 212.679 346.332 212.001 344.001 212.001C341.67 212.001 339.39 212.679 337.438 213.954L298.805 239.184L266.247 185.756C265.176 183.998 263.671 182.546 261.877 181.538C260.082 180.53 258.059 180.001 256 180.001C253.942 180.001 251.919 180.53 250.124 181.538C248.33 182.546 246.825 183.998 245.753 185.756L213.2 239.183L174.567 213.953C172.616 212.678 170.335 211.999 168.004 211.999C165.673 211.999 163.393 212.678 161.441 213.953C159.489 215.227 157.951 217.043 157.015 219.178C156.078 221.312 155.784 223.674 156.167 225.973L172.167 321.973C172.634 324.774 174.08 327.319 176.246 329.155C178.413 330.991 181.16 331.999 184 332H328C330.841 332 333.59 330.992 335.757 329.156C337.925 327.32 339.37 324.775 339.837 321.973L355.837 225.973C356.221 223.674 355.926 221.313 354.989 219.179C354.053 217.044 352.515 215.229 350.563 213.954ZM317.834 308H194.166L184.332 249L210.438 266.049C211.784 266.928 213.293 267.528 214.875 267.813C216.456 268.098 218.08 268.062 219.647 267.707C221.215 267.353 222.696 266.687 224.001 265.749C225.307 264.812 226.411 263.621 227.247 262.249L256 215.061L284.753 262.245C285.59 263.617 286.694 264.808 288 265.745C289.305 266.683 290.786 267.349 292.354 267.703C293.921 268.058 295.544 268.094 297.126 267.809C298.708 267.524 300.217 266.924 301.562 266.045L327.668 249L317.834 308Z" fill="white"/>
<path d="M256 176C262.627 176 268 170.627 268 164C268 157.373 262.627 152 256 152C249.373 152 244 157.373 244 164C244 170.627 249.373 176 256 176Z" fill="white"/>
<path d="M352 204C358.627 204 364 198.627 364 192C364 185.373 358.627 180 352 180C345.373 180 340 185.373 340 192C340 198.627 345.373 204 352 204Z" fill="white"/>
<path d="M160 204C166.627 204 172 198.627 172 192C172 185.373 166.627 180 160 180C153.373 180 148 185.373 148 192C148 198.627 153.373 204 160 204Z" fill="white"/>
</svg>
