<svg width="492" height="512" viewBox="0 0 492 512" fill="none" xmlns="http://www.w3.org/2000/svg">
<path d="M496 319.996C487.168 319.996 480 327.164 480 335.996V447.996H32V255.996H208C216.832 255.996 224 248.828 224 239.996C224 231.164 216.832 223.996 208 223.996H32V159.996H208C216.832 159.996 224 152.828 224 143.996C224 135.164 216.832 127.996 208 127.996H32C14.336 127.996 0 142.332 0 159.996V447.996C0 465.66 14.336 479.996 32 479.996H480C497.664 479.996 512 465.66 512 447.996V335.996C512 327.164 504.832 319.996 496 319.996Z" fill="white"/>
<path d="M144 319.996H80C71.168 319.996 64 327.164 64 335.996C64 344.828 71.168 351.996 80 351.996H144C152.832 351.996 160 344.828 160 335.996C160 327.164 152.832 319.996 144 319.996ZM502.304 81.276L390.304 33.276C388.303 32.4364 386.154 32.004 383.984 32.004C381.814 32.004 379.665 32.4364 377.664 33.276L265.664 81.276C262.793 82.5196 260.348 84.5757 258.631 87.1912C256.914 89.8067 256 92.8672 256 95.996V159.996C256 248.028 288.544 299.484 376.032 349.884C378.496 351.292 381.248 351.996 384 351.996C386.752 351.996 389.504 351.292 391.968 349.884C479.456 299.612 512 248.156 512 159.996V95.996C512 89.596 508.192 83.804 502.304 81.276ZM480 159.996C480 233.884 455.552 274.556 384 317.436C312.448 274.46 288 233.788 288 159.996V106.556L384 65.404L480 106.556V159.996Z" fill="white"/>
<path d="M442.016 131.484C435.136 126.044 425.088 127.1 419.52 133.98L369.216 196.892L349.312 167.132C344.352 159.772 334.4 157.82 327.136 162.684C319.808 167.58 317.792 177.532 322.688 184.86L354.688 232.86C357.536 237.116 362.208 239.74 367.328 239.996H368C372.832 239.996 377.44 237.82 380.512 233.98L444.512 153.98C450.016 147.068 448.928 137.02 442.016 131.484Z" fill="white"/>
</svg>
