<svg width="512" height="512" viewBox="0 0 512 512" fill="none" xmlns="http://www.w3.org/2000/svg">
<path d="M296.32 121.6H135.04C127.621 121.6 121.6 127.621 121.6 135.04C121.6 142.459 127.621 148.48 135.04 148.48H296.32C303.738 148.48 309.76 142.459 309.76 135.04C309.76 127.621 303.738 121.6 296.32 121.6ZM242.56 175.36H135.04C127.621 175.36 121.6 181.381 121.6 188.8C121.6 196.219 127.621 202.24 135.04 202.24H242.56C249.978 202.24 256 196.219 256 188.8C256 181.381 249.978 175.36 242.56 175.36Z" fill="white"/>
<path d="M336.64 40.96H94.72C65.0713 40.96 40.96 65.0714 40.96 94.72V363.52C40.96 368.735 43.9705 373.492 48.7014 375.697C50.4875 376.524 52.4315 376.955 54.4 376.96C57.4912 376.96 60.5555 375.885 63.0016 373.842L139.905 309.76H336.64C366.289 309.76 390.4 285.649 390.4 256V94.72C390.4 65.0714 366.289 40.96 336.64 40.96ZM363.52 256C363.52 270.811 351.478 282.88 336.64 282.88H135.04C131.895 282.88 128.858 283.982 126.438 285.998L67.84 334.839V94.72C67.84 79.9091 79.8822 67.84 94.72 67.84H336.64C351.478 67.84 363.52 79.9091 363.52 94.72V256Z" fill="white"/>
<path d="M417.279 148.48C409.861 148.48 403.839 154.501 403.839 161.92C403.839 169.339 409.861 175.36 417.279 175.36C432.117 175.36 444.159 187.429 444.159 202.24V429.618L398.786 393.33C396.4 391.438 393.445 390.406 390.399 390.4H202.239C187.402 390.4 175.359 378.331 175.359 363.52V350.08C175.359 342.661 169.338 336.64 161.919 336.64C154.501 336.64 148.479 342.661 148.479 350.08V363.52C148.479 393.169 172.591 417.28 202.239 417.28H385.669L449.186 468.11C451.581 470.006 454.545 471.038 457.599 471.04C459.562 471.04 461.551 470.61 463.432 469.723C465.711 468.62 467.632 466.898 468.977 464.754C470.323 462.61 471.037 460.131 471.039 457.6V202.24C471.039 172.591 446.928 148.48 417.279 148.48Z" fill="white"/>
</svg>
