<svg width="66" height="66" viewBox="0 0 66 66" fill="none" xmlns="http://www.w3.org/2000/svg">
<path d="M51.095 24.7638C49.61 24.5163 48.1525 24.2138 46.75 23.8701V16.4863C46.75 8.91008 40.5763 2.73633 33 2.73633C25.4238 2.73633 19.25 8.91008 19.25 16.4863V23.8701C17.8475 24.2138 16.39 24.5163 14.905 24.7638C14.245 24.8738 13.75 25.4513 13.75 26.1251C13.75 42.5976 13.75 54.5051 32.4225 63.1263C32.6041 63.2081 32.8009 63.2503 33 63.2503C33.1991 63.2503 33.3959 63.2081 33.5775 63.1263C52.25 54.5051 52.25 42.5976 52.25 26.1251C52.2509 25.7979 52.1352 25.481 51.9235 25.2315C51.7118 24.982 51.418 24.8162 51.095 24.7638ZM22 16.5001C22 10.4363 26.9363 5.50008 33 5.50008C39.0638 5.50008 44 10.4363 44 16.5001V23.1413C43.0375 22.8526 42.1163 22.5501 41.25 22.2338V16.4863C41.25 11.9351 37.5513 8.23633 33 8.23633C28.4488 8.23633 24.75 11.9351 24.75 16.4863V22.2338C23.8838 22.5501 22.9625 22.8526 22 23.1413V16.5001ZM38.5 21.1338C36.52 20.2263 34.9525 19.2501 33.9763 18.2876C33.4538 17.7651 32.5463 17.7651 32.0375 18.2876C31.0613 19.2638 29.4938 20.2401 27.5138 21.1338V16.5001C27.5138 13.4613 29.975 11.0001 33.0138 11.0001C36.0525 11.0001 38.5138 13.4613 38.5138 16.5001V21.1338H38.5ZM33 60.3626C16.885 52.7038 16.5138 43.0101 16.5 27.2801C23.6225 25.9738 29.7138 23.6776 33 21.0788C36.2863 23.6638 42.3775 25.9601 49.5 27.2801C49.5 43.0101 49.115 52.7038 33 60.3626Z" fill="white"/>
<path d="M33.3428 49.8873C33.0499 49.8873 32.7676 49.7841 32.5476 49.5968C31.7165 48.8903 30.9153 48.2264 30.2084 47.6408L30.2048 47.6377C28.1323 45.9206 26.3426 44.4378 25.0974 42.977C23.7055 41.3441 23.0571 39.7958 23.0571 38.1043C23.0571 36.461 23.6367 34.9448 24.6891 33.8351C25.7539 32.7122 27.2151 32.0938 28.8039 32.0938C29.9914 32.0938 31.0788 32.4587 32.0361 33.1785C32.5192 33.5418 32.957 33.9864 33.3428 34.5051C33.7287 33.9864 34.1665 33.5418 34.6497 33.1785C35.607 32.4587 36.6944 32.0938 37.8819 32.0938C39.4705 32.0938 40.9319 32.7122 41.9967 33.8351C43.0491 34.9448 43.6285 36.461 43.6285 38.1043C43.6285 39.7957 42.9803 41.3441 41.5884 42.9769C40.3431 44.4378 38.5536 45.9205 36.4814 47.6374C35.7733 48.224 34.9709 48.8889 34.1379 49.5971C33.9178 49.7843 33.6353 49.8874 33.3428 49.8873ZM28.8039 33.2653C27.5557 33.2653 26.4091 33.7496 25.5749 34.6291C24.7283 35.5219 24.262 36.7561 24.262 38.1043C24.262 39.5269 24.8058 40.7992 26.0252 42.2295C27.2037 43.6121 28.9566 45.0645 30.9863 46.7461L30.99 46.7492C31.6996 47.3371 32.5039 48.0036 33.3411 48.7153C34.1833 48.0022 34.9889 47.3347 35.6999 46.7458C37.7294 45.0642 39.4821 43.6121 40.6607 42.2295C41.8798 40.7992 42.4236 39.5269 42.4236 38.1043C42.4236 36.756 41.9573 35.5219 41.1108 34.6291C40.2767 33.7496 39.13 33.2653 37.8819 33.2653C36.9675 33.2653 36.128 33.5479 35.3867 34.1052C34.7262 34.602 34.266 35.23 33.9962 35.6695C33.8575 35.8955 33.6133 36.0303 33.3428 36.0303C33.0724 36.0303 32.8282 35.8955 32.6894 35.6695C32.4198 35.23 31.9596 34.602 31.2989 34.1052C30.5577 33.5479 29.7181 33.2653 28.8039 33.2653Z" fill="white"/>
</svg>
