<svg width="66" height="66" viewBox="0 0 66 66" fill="none" xmlns="http://www.w3.org/2000/svg">
<mask id="path-1-inside-1_3266_11" fill="white">
<path d="M43.8198 54.8363C43.1757 55.3562 42.4267 55.7306 41.6243 55.9339C40.8219 56.1371 39.985 56.1643 39.171 56.0137L30.029 54.3508C28.2482 54.0237 26.4762 54.4947 25.1592 55.6314C23.1154 57.3991 21.3419 60.8646 20.2139 63.4608C20.1392 63.6333 20.0277 63.7874 19.8874 63.9124C19.7471 64.0374 19.5812 64.1303 19.4013 64.1847C19.2243 64.2398 19.0374 64.2549 18.8539 64.2291C18.6704 64.2032 18.4949 64.1369 18.3401 64.035C16.2149 62.6555 14.3324 60.7977 13.4253 59.1798C12.8631 58.2095 12.4041 57.183 12.056 56.117C11.9814 55.8742 11.9813 55.6147 12.0557 55.3719C12.1301 55.1292 12.2755 54.9142 12.4732 54.7549L19.0742 49.2891C19.4623 51.5917 20.8506 53.6792 23.0965 54.5368C21.8681 53.6879 21.1486 52.272 20.916 50.7646C20.6224 48.8705 21.0556 47.459 22.2621 45.9864C23.0282 45.0488 23.8698 44.338 24.7595 43.8713C26.6812 42.8625 27.943 43.1125 29.6932 43.4571L30.311 43.5777C30.561 43.6213 30.8198 43.5821 31.0422 43.4585C34.2693 41.6632 38.0197 40.8376 40.6029 40.4596C41.4315 40.3288 42.2659 40.714 42.7194 41.4292C42.9479 41.7896 43.0657 42.2091 43.0581 42.6357C43.0523 43.3626 42.3545 43.8713 41.7018 43.9804C40.6131 44.1606 39.5882 44.5909 38.5881 45.0372C37.6447 45.4587 36.694 45.8396 35.8538 46.4501C34.0687 47.7439 32.7895 49.7063 32.1513 51.772C33.5192 49.6482 35.5005 47.9503 37.9688 47.5476L41.2643 49.4287C41.7839 49.7257 42.3799 49.8621 42.977 49.8207C43.5742 49.7793 44.1456 49.562 44.6193 49.1961L51.7815 43.6722C52.0131 43.5117 52.2749 43.3999 52.5511 43.3436C52.8272 43.2874 53.1119 43.2878 53.3878 43.3449C53.6638 43.402 53.9253 43.5146 54.1564 43.6758C54.3875 43.837 54.5835 44.0435 54.7324 44.2827C54.9388 44.6064 55.0179 44.9952 54.9542 45.3738C54.8906 45.7524 54.6888 46.094 54.3879 46.3324L43.8198 54.8363ZM49.6257 16.7577C49.6258 16.6021 49.6591 16.4483 49.7236 16.3066C49.788 16.165 49.882 16.0387 49.9993 15.9364C50.3772 15.6118 50.6585 15.1895 50.8124 14.7156C50.9662 14.2418 50.9867 13.7348 50.8715 13.2501C50.7648 12.7638 50.5263 12.3164 50.1822 11.9566C49.8381 11.5969 49.4017 11.3388 48.9207 11.2106C48.7709 11.169 48.6317 11.0959 48.5124 10.9961C48.3931 10.8964 48.2965 10.7723 48.2291 10.6322C48.1616 10.492 48.1249 10.3391 48.1213 10.1837C48.1178 10.0282 48.1475 9.87382 48.2084 9.73076C48.4079 9.2744 48.478 8.77196 48.4111 8.27842C48.3442 7.78488 48.1428 7.31925 47.829 6.93248C47.521 6.54125 47.1117 6.24196 46.6455 6.06717C46.1793 5.89237 45.6741 5.84876 45.1848 5.94108C45.0317 5.96981 44.8742 5.96521 44.723 5.92761C44.5719 5.89001 44.4306 5.82028 44.3088 5.72317C44.187 5.62606 44.0875 5.50386 44.0172 5.36486C43.9469 5.22587 43.9073 5.07336 43.9012 4.91771C43.8835 4.41975 43.729 3.93628 43.4546 3.52036C43.1803 3.10443 42.7966 2.77212 42.3458 2.55988C41.8989 2.34048 41.4003 2.24818 40.9045 2.29304C40.4086 2.33791 39.9347 2.51822 39.5344 2.81427C39.4087 2.90631 39.2646 2.97024 39.112 3.00174C38.9594 3.03324 38.8018 3.03156 38.6498 2.99682C38.4979 2.96208 38.3552 2.89509 38.2315 2.80039C38.1077 2.70569 38.0058 2.58549 37.9325 2.44794C37.7004 2.00745 37.3515 1.63935 36.9241 1.38397C36.4966 1.12859 36.0072 0.995782 35.5093 1.0001C34.4786 1.0001 33.573 1.54086 33.086 2.44794C33.0124 2.58514 32.9103 2.70498 32.7865 2.79939C32.6627 2.89381 32.5201 2.96062 32.3683 2.99533C32.2166 3.03004 32.0591 3.03184 31.9066 3.0006C31.7541 2.96937 31.61 2.90583 31.4841 2.81427C31.0842 2.51738 30.6103 2.33644 30.1144 2.2913C29.6184 2.24617 29.1196 2.33859 28.6727 2.55842C28.222 2.7708 27.8384 3.10314 27.5641 3.51904C27.2897 3.93494 27.1352 4.41833 27.1173 4.91625C27.1102 5.07142 27.0701 5.22329 26.9995 5.36168C26.929 5.50007 26.8297 5.6218 26.7083 5.7187C26.5869 5.8156 26.4462 5.88544 26.2956 5.92354C26.145 5.96164 25.9881 5.96713 25.8352 5.93963C25.3457 5.84703 24.8402 5.8905 24.3737 6.0653C23.9072 6.24011 23.4976 6.53955 23.1895 6.93102C22.876 7.31794 22.6749 7.78364 22.6082 8.27718C22.5416 8.77071 22.6119 9.27307 22.8116 9.72931C22.8728 9.87234 22.9026 10.0268 22.8992 10.1823C22.8958 10.3379 22.8591 10.4909 22.7916 10.631C22.7241 10.7712 22.6274 10.8953 22.508 10.995C22.3886 11.0947 22.2492 11.1677 22.0993 11.2091C21.6181 11.3375 21.1815 11.5958 20.8374 11.9558C20.4933 12.3158 20.255 12.7636 20.1485 13.2501C19.9188 14.2531 20.2444 15.2576 21.0207 15.935C21.1379 16.0373 21.2318 16.1635 21.2962 16.3052C21.3606 16.4469 21.3939 16.6007 21.3939 16.7563C21.3939 16.9119 21.3606 17.0657 21.2962 17.2074C21.2318 17.349 21.1379 17.4753 21.0207 17.5776C20.643 17.9021 20.3618 18.3242 20.208 18.7977C20.0542 19.2713 20.0336 19.778 20.1485 20.2625C20.3767 21.2655 21.1079 22.0287 22.0993 22.302C22.2492 22.3438 22.3884 22.417 22.5077 22.5169C22.627 22.6168 22.7235 22.7411 22.791 22.8813C22.8584 23.0215 22.8951 23.1745 22.8987 23.33C22.9022 23.4856 22.8725 23.6401 22.8116 23.7833C22.6122 24.2393 22.542 24.7414 22.6087 25.2346C22.6753 25.7279 22.8762 26.1933 23.1895 26.5801C23.4975 26.9717 23.9071 27.2713 24.3735 27.4464C24.84 27.6214 25.3456 27.6652 25.8352 27.5729C25.9882 27.5452 26.1453 27.5505 26.2961 27.5885C26.4468 27.6265 26.5877 27.6963 26.7093 27.7932C26.8309 27.8902 26.9303 28.012 27.0009 28.1505C27.0715 28.289 27.1117 28.441 27.1188 28.5963C27.1369 29.094 27.2916 29.5771 27.5659 29.9927C27.8403 30.4083 28.2237 30.7404 28.6742 30.9527C29.1208 31.1729 29.6194 31.2658 30.1154 31.2212C30.6113 31.1766 31.0854 30.9962 31.4855 30.6998C31.6115 30.6086 31.7555 30.5454 31.9079 30.5143C32.0602 30.4832 32.2175 30.485 32.3691 30.5195C32.5207 30.5541 32.6632 30.6206 32.7871 30.7146C32.911 30.8086 33.0134 30.9279 33.0875 31.0646C33.5744 31.9717 34.4801 32.5125 35.5107 32.5139C36.5399 32.5139 37.447 31.9717 37.934 31.0646C38.0077 30.9276 38.1099 30.8079 38.2338 30.7136C38.3576 30.6193 38.5002 30.5526 38.652 30.5181C38.8038 30.4835 38.9612 30.4818 39.1136 30.5132C39.2661 30.5445 39.4101 30.6081 39.5359 30.6998C39.9364 30.9959 40.4107 31.1761 40.9068 31.2207C41.4029 31.2653 41.9018 31.1726 42.3487 30.9527C42.7991 30.7407 43.1825 30.4088 43.4568 29.9935C43.7312 29.5781 43.8859 29.0952 43.9041 28.5978C43.911 28.4425 43.951 28.2904 44.0215 28.1519C44.0919 28.0133 44.1912 27.8914 44.3126 27.7944C44.434 27.6973 44.5748 27.6273 44.7255 27.5891C44.8762 27.551 45.0333 27.5454 45.1863 27.5729C45.6757 27.6651 46.1809 27.6213 46.6472 27.4462C47.1134 27.2712 47.5227 26.9716 47.8305 26.5801C48.4715 25.7762 48.6154 24.7296 48.2084 23.7833C48.147 23.6403 48.1169 23.4858 48.1202 23.3301C48.1235 23.1745 48.1602 23.0215 48.2277 22.8812C48.2952 22.741 48.392 22.6168 48.5115 22.5172C48.6311 22.4175 48.7706 22.3446 48.9207 22.3034C49.4021 22.1752 49.8389 21.9169 50.1832 21.5569C50.5276 21.1969 50.7662 20.7491 50.873 20.2625C50.9879 19.778 50.9673 19.2713 50.8134 18.7977C50.6596 18.3242 50.3784 17.9021 50.0008 17.5776C49.8835 17.4753 49.7895 17.3491 49.725 17.2074C49.6606 17.0657 49.6272 16.9119 49.6272 16.7563L49.6257 16.7577ZM25.4456 20.3439C25.414 20.3544 25.3807 20.3585 25.3475 20.356C25.3143 20.3536 25.2819 20.3446 25.2522 20.3296C25.2225 20.3146 25.196 20.2939 25.1743 20.2687C25.1527 20.2434 25.1362 20.2142 25.1258 20.1826C24.8066 19.2155 24.6246 18.2085 24.585 17.1909C24.5827 17.1237 24.607 17.0583 24.6528 17.009C24.6986 16.9596 24.762 16.9305 24.8292 16.9278C24.9891 16.9118 25.088 17.0325 25.0938 17.172C25.1316 18.146 25.3046 19.1039 25.607 20.0227C25.6506 20.1564 25.5779 20.2989 25.447 20.3425L25.4456 20.3439ZM27.2612 10.3864C26.6667 11.1546 26.1823 12.002 25.8221 12.9041C25.7939 12.9619 25.7449 13.007 25.6849 13.0301C25.6249 13.0533 25.5583 13.0528 25.4986 13.0289C25.4389 13.0049 25.3905 12.9592 25.3632 12.901C25.3358 12.8428 25.3315 12.7764 25.3511 12.7151C25.7275 11.7691 26.2339 10.8801 26.8556 10.0738C26.8761 10.0474 26.9015 10.0252 26.9305 10.0086C26.9595 9.99201 26.9915 9.98127 27.0246 9.97702C27.0577 9.97277 27.0914 9.97509 27.1236 9.98384C27.1559 9.99259 27.1861 10.0076 27.2125 10.028C27.239 10.0485 27.2611 10.0739 27.2777 10.1029C27.2943 10.1319 27.3051 10.1639 27.3093 10.197C27.3136 10.2301 27.3113 10.2638 27.3025 10.296C27.2938 10.3283 27.2787 10.3585 27.2583 10.3849L27.2612 10.3864ZM30.0958 25.9681C30.0602 26.0249 30.0035 26.0654 29.9382 26.0806C29.8728 26.0959 29.8041 26.0847 29.747 26.0495C28.8827 25.5115 28.0975 24.856 27.4138 24.1016C27.3744 24.0511 27.3555 23.9875 27.3609 23.9236C27.3664 23.8597 27.3957 23.8002 27.4431 23.7571C27.4905 23.7139 27.5525 23.6902 27.6166 23.6908C27.6807 23.6913 27.7422 23.716 27.7889 23.76C28.443 24.481 29.1931 25.1061 30.0144 25.6178C30.1336 25.6905 30.1714 25.8489 30.0958 25.9681ZM30.5596 7.58371C30.5002 7.61591 30.4305 7.62319 30.3657 7.60397C30.301 7.58476 30.2465 7.5406 30.2143 7.48123C30.1821 7.42186 30.1748 7.35213 30.1941 7.28738C30.2133 7.22264 30.2574 7.16818 30.3168 7.13599C31.2122 6.65103 32.1713 6.2943 33.166 6.07627C33.1986 6.06861 33.2325 6.0676 33.2656 6.07331C33.2987 6.07902 33.3303 6.09133 33.3585 6.1095C33.3867 6.12768 33.411 6.15135 33.4298 6.17911C33.4487 6.20687 33.4618 6.23814 33.4683 6.27106C33.4826 6.33678 33.4703 6.40548 33.4341 6.46215C33.3978 6.51881 33.3406 6.55882 33.275 6.57342C32.327 6.78139 31.4129 7.12148 30.5596 7.58371ZM37.0545 27.5831C36.0469 27.7254 35.0245 27.7273 34.0164 27.5889C33.9495 27.5797 33.889 27.5442 33.8482 27.4904C33.8075 27.4366 33.7898 27.3687 33.799 27.3018C33.8083 27.2349 33.8437 27.1745 33.8976 27.1337C33.9514 27.093 34.0192 27.0753 34.0861 27.0845C34.435 27.1325 34.7912 27.163 35.1473 27.1761C35.7695 27.2008 36.3785 27.1659 36.9847 27.0787C37.1301 27.0584 37.2522 27.1557 37.2711 27.2967C37.29 27.4378 37.194 27.5628 37.0545 27.5831ZM40.0548 14.8229L36.1605 19.4019C35.8538 19.7624 35.4075 19.9689 34.9351 19.9689H34.9118C34.6746 19.9659 34.4411 19.9104 34.2279 19.8063C34.0148 19.7022 33.8273 19.5522 33.6791 19.3671L32.0437 17.3276C31.8629 17.1018 31.7792 16.8135 31.811 16.5261C31.8427 16.2386 31.9874 15.9755 32.2131 15.7947C32.4388 15.6139 32.7271 15.5301 33.0146 15.5619C33.3021 15.5937 33.5652 15.7383 33.746 15.964L34.9467 17.4613L38.3933 13.41C38.5849 13.2046 38.8483 13.081 39.1286 13.0648C39.409 13.0486 39.6848 13.1411 39.8988 13.323C40.1127 13.505 40.2483 13.7624 40.2774 14.0417C40.3065 14.321 40.2268 14.6008 40.0548 14.8229ZM40.677 7.40491C40.6617 7.43461 40.6406 7.46099 40.615 7.48255C40.5895 7.5041 40.5599 7.52041 40.5281 7.53054C40.4962 7.54066 40.4627 7.54441 40.4294 7.54156C40.3961 7.53871 40.3636 7.52933 40.3339 7.51394C39.4739 7.06434 38.5549 6.73794 37.604 6.54435C37.5712 6.53793 37.5399 6.52507 37.5121 6.5065C37.4843 6.48793 37.4604 6.46403 37.4419 6.43618C37.4234 6.40833 37.4106 6.37709 37.4042 6.34425C37.3978 6.31142 37.3981 6.27765 37.4048 6.2449C37.4112 6.21207 37.4241 6.18085 37.4427 6.15303C37.4612 6.12521 37.4851 6.10135 37.513 6.08283C37.5408 6.06431 37.5721 6.05149 37.6049 6.04513C37.6378 6.03876 37.6715 6.03897 37.7043 6.04574C38.7044 6.24926 39.6667 6.59087 40.568 7.0633C40.693 7.12727 40.7424 7.28135 40.677 7.40491ZM43.6425 24.0638C42.9625 24.8212 42.1807 25.4807 41.3195 26.0233C41.2621 26.0588 41.1931 26.0703 41.1273 26.0554C41.0615 26.0404 41.0042 26.0002 40.9677 25.9434C40.9319 25.8861 40.9202 25.8169 40.9352 25.751C40.9501 25.6851 40.9906 25.6278 41.0477 25.5916C41.87 25.0763 42.6162 24.4486 43.2645 23.7266C43.3097 23.6766 43.3727 23.6465 43.4399 23.6427C43.5071 23.6389 43.5731 23.6617 43.6236 23.7062C43.674 23.7514 43.7044 23.8147 43.7082 23.8823C43.712 23.9498 43.6889 24.0162 43.6439 24.0667L43.6425 24.0638ZM45.1426 12.7675C44.7709 11.871 44.2757 11.031 43.6715 10.2715C43.6505 10.2455 43.6349 10.2155 43.6256 10.1833C43.6163 10.1512 43.6134 10.1175 43.6172 10.0842C43.621 10.051 43.6313 10.0188 43.6476 9.98954C43.664 9.96031 43.6859 9.93461 43.7122 9.91393C43.7382 9.89296 43.7681 9.87737 43.8001 9.86806C43.8321 9.85874 43.8657 9.8559 43.8988 9.85969C43.932 9.86347 43.964 9.87382 43.9932 9.89012C44.0223 9.90642 44.0478 9.92835 44.0684 9.95463C44.7036 10.7506 45.2238 11.6319 45.6136 12.5727C45.6395 12.6351 45.6394 12.7053 45.6135 12.7677C45.5876 12.8301 45.538 12.8797 45.4755 12.9056C45.4131 12.9314 45.3429 12.9313 45.2805 12.9054C45.2181 12.8795 45.1685 12.8299 45.1426 12.7675ZM46.4364 17.1415C46.4016 18.1577 46.2255 19.1641 45.9131 20.1317C45.9028 20.1636 45.8863 20.1931 45.8646 20.2186C45.8428 20.2441 45.8163 20.2651 45.7865 20.2803C45.7566 20.2956 45.7241 20.3048 45.6907 20.3075C45.6573 20.3102 45.6237 20.3062 45.5918 20.2959C45.5599 20.2856 45.5304 20.2691 45.5049 20.2474C45.4794 20.2257 45.4584 20.1992 45.4432 20.1693C45.4279 20.1395 45.4187 20.107 45.416 20.0736C45.4133 20.0402 45.4173 20.0066 45.4276 19.9747C45.7256 19.056 45.8942 18.0951 45.9276 17.1226L45.9305 17.0238C45.9334 16.8828 46.0425 16.7577 46.1907 16.7752C46.258 16.7767 46.3218 16.8048 46.3684 16.8533C46.415 16.9018 46.4405 16.9667 46.4393 17.0339L46.4364 17.1415Z"/>
</mask>
<path d="M43.8198 54.8363C43.1757 55.3562 42.4267 55.7306 41.6243 55.9339C40.8219 56.1371 39.985 56.1643 39.171 56.0137L30.029 54.3508C28.2482 54.0237 26.4762 54.4947 25.1592 55.6314C23.1154 57.3991 21.3419 60.8646 20.2139 63.4608C20.1392 63.6333 20.0277 63.7874 19.8874 63.9124C19.7471 64.0374 19.5812 64.1303 19.4013 64.1847C19.2243 64.2398 19.0374 64.2549 18.8539 64.2291C18.6704 64.2032 18.4949 64.1369 18.3401 64.035C16.2149 62.6555 14.3324 60.7977 13.4253 59.1798C12.8631 58.2095 12.4041 57.183 12.056 56.117C11.9814 55.8742 11.9813 55.6147 12.0557 55.3719C12.1301 55.1292 12.2755 54.9142 12.4732 54.7549L19.0742 49.2891C19.4623 51.5917 20.8506 53.6792 23.0965 54.5368C21.8681 53.6879 21.1486 52.272 20.916 50.7646C20.6224 48.8705 21.0556 47.459 22.2621 45.9864C23.0282 45.0488 23.8698 44.338 24.7595 43.8713C26.6812 42.8625 27.943 43.1125 29.6932 43.4571L30.311 43.5777C30.561 43.6213 30.8198 43.5821 31.0422 43.4585C34.2693 41.6632 38.0197 40.8376 40.6029 40.4596C41.4315 40.3288 42.2659 40.714 42.7194 41.4292C42.9479 41.7896 43.0657 42.2091 43.0581 42.6357C43.0523 43.3626 42.3545 43.8713 41.7018 43.9804C40.6131 44.1606 39.5882 44.5909 38.5881 45.0372C37.6447 45.4587 36.694 45.8396 35.8538 46.4501C34.0687 47.7439 32.7895 49.7063 32.1513 51.772C33.5192 49.6482 35.5005 47.9503 37.9688 47.5476L41.2643 49.4287C41.7839 49.7257 42.3799 49.8621 42.977 49.8207C43.5742 49.7793 44.1456 49.562 44.6193 49.1961L51.7815 43.6722C52.0131 43.5117 52.2749 43.3999 52.5511 43.3436C52.8272 43.2874 53.1119 43.2878 53.3878 43.3449C53.6638 43.402 53.9253 43.5146 54.1564 43.6758C54.3875 43.837 54.5835 44.0435 54.7324 44.2827C54.9388 44.6064 55.0179 44.9952 54.9542 45.3738C54.8906 45.7524 54.6888 46.094 54.3879 46.3324L43.8198 54.8363ZM49.6257 16.7577C49.6258 16.6021 49.6591 16.4483 49.7236 16.3066C49.788 16.165 49.882 16.0387 49.9993 15.9364C50.3772 15.6118 50.6585 15.1895 50.8124 14.7156C50.9662 14.2418 50.9867 13.7348 50.8715 13.2501C50.7648 12.7638 50.5263 12.3164 50.1822 11.9566C49.8381 11.5969 49.4017 11.3388 48.9207 11.2106C48.7709 11.169 48.6317 11.0959 48.5124 10.9961C48.3931 10.8964 48.2965 10.7723 48.2291 10.6322C48.1616 10.492 48.1249 10.3391 48.1213 10.1837C48.1178 10.0282 48.1475 9.87382 48.2084 9.73076C48.4079 9.2744 48.478 8.77196 48.4111 8.27842C48.3442 7.78488 48.1428 7.31925 47.829 6.93248C47.521 6.54125 47.1117 6.24196 46.6455 6.06717C46.1793 5.89237 45.6741 5.84876 45.1848 5.94108C45.0317 5.96981 44.8742 5.96521 44.723 5.92761C44.5719 5.89001 44.4306 5.82028 44.3088 5.72317C44.187 5.62606 44.0875 5.50386 44.0172 5.36486C43.9469 5.22587 43.9073 5.07336 43.9012 4.91771C43.8835 4.41975 43.729 3.93628 43.4546 3.52036C43.1803 3.10443 42.7966 2.77212 42.3458 2.55988C41.8989 2.34048 41.4003 2.24818 40.9045 2.29304C40.4086 2.33791 39.9347 2.51822 39.5344 2.81427C39.4087 2.90631 39.2646 2.97024 39.112 3.00174C38.9594 3.03324 38.8018 3.03156 38.6498 2.99682C38.4979 2.96208 38.3552 2.89509 38.2315 2.80039C38.1077 2.70569 38.0058 2.58549 37.9325 2.44794C37.7004 2.00745 37.3515 1.63935 36.9241 1.38397C36.4966 1.12859 36.0072 0.995782 35.5093 1.0001C34.4786 1.0001 33.573 1.54086 33.086 2.44794C33.0124 2.58514 32.9103 2.70498 32.7865 2.79939C32.6627 2.89381 32.5201 2.96062 32.3683 2.99533C32.2166 3.03004 32.0591 3.03184 31.9066 3.0006C31.7541 2.96937 31.61 2.90583 31.4841 2.81427C31.0842 2.51738 30.6103 2.33644 30.1144 2.2913C29.6184 2.24617 29.1196 2.33859 28.6727 2.55842C28.222 2.7708 27.8384 3.10314 27.5641 3.51904C27.2897 3.93494 27.1352 4.41833 27.1173 4.91625C27.1102 5.07142 27.0701 5.22329 26.9995 5.36168C26.929 5.50007 26.8297 5.6218 26.7083 5.7187C26.5869 5.8156 26.4462 5.88544 26.2956 5.92354C26.145 5.96164 25.9881 5.96713 25.8352 5.93963C25.3457 5.84703 24.8402 5.8905 24.3737 6.0653C23.9072 6.24011 23.4976 6.53955 23.1895 6.93102C22.876 7.31794 22.6749 7.78364 22.6082 8.27718C22.5416 8.77071 22.6119 9.27307 22.8116 9.72931C22.8728 9.87234 22.9026 10.0268 22.8992 10.1823C22.8958 10.3379 22.8591 10.4909 22.7916 10.631C22.7241 10.7712 22.6274 10.8953 22.508 10.995C22.3886 11.0947 22.2492 11.1677 22.0993 11.2091C21.6181 11.3375 21.1815 11.5958 20.8374 11.9558C20.4933 12.3158 20.255 12.7636 20.1485 13.2501C19.9188 14.2531 20.2444 15.2576 21.0207 15.935C21.1379 16.0373 21.2318 16.1635 21.2962 16.3052C21.3606 16.4469 21.3939 16.6007 21.3939 16.7563C21.3939 16.9119 21.3606 17.0657 21.2962 17.2074C21.2318 17.349 21.1379 17.4753 21.0207 17.5776C20.643 17.9021 20.3618 18.3242 20.208 18.7977C20.0542 19.2713 20.0336 19.778 20.1485 20.2625C20.3767 21.2655 21.1079 22.0287 22.0993 22.302C22.2492 22.3438 22.3884 22.417 22.5077 22.5169C22.627 22.6168 22.7235 22.7411 22.791 22.8813C22.8584 23.0215 22.8951 23.1745 22.8987 23.33C22.9022 23.4856 22.8725 23.6401 22.8116 23.7833C22.6122 24.2393 22.542 24.7414 22.6087 25.2346C22.6753 25.7279 22.8762 26.1933 23.1895 26.5801C23.4975 26.9717 23.9071 27.2713 24.3735 27.4464C24.84 27.6214 25.3456 27.6652 25.8352 27.5729C25.9882 27.5452 26.1453 27.5505 26.2961 27.5885C26.4468 27.6265 26.5877 27.6963 26.7093 27.7932C26.8309 27.8902 26.9303 28.012 27.0009 28.1505C27.0715 28.289 27.1117 28.441 27.1188 28.5963C27.1369 29.094 27.2916 29.5771 27.5659 29.9927C27.8403 30.4083 28.2237 30.7404 28.6742 30.9527C29.1208 31.1729 29.6194 31.2658 30.1154 31.2212C30.6113 31.1766 31.0854 30.9962 31.4855 30.6998C31.6115 30.6086 31.7555 30.5454 31.9079 30.5143C32.0602 30.4832 32.2175 30.485 32.3691 30.5195C32.5207 30.5541 32.6632 30.6206 32.7871 30.7146C32.911 30.8086 33.0134 30.9279 33.0875 31.0646C33.5744 31.9717 34.4801 32.5125 35.5107 32.5139C36.5399 32.5139 37.447 31.9717 37.934 31.0646C38.0077 30.9276 38.1099 30.8079 38.2338 30.7136C38.3576 30.6193 38.5002 30.5526 38.652 30.5181C38.8038 30.4835 38.9612 30.4818 39.1136 30.5132C39.2661 30.5445 39.4101 30.6081 39.5359 30.6998C39.9364 30.9959 40.4107 31.1761 40.9068 31.2207C41.4029 31.2653 41.9018 31.1726 42.3487 30.9527C42.7991 30.7407 43.1825 30.4088 43.4568 29.9935C43.7312 29.5781 43.8859 29.0952 43.9041 28.5978C43.911 28.4425 43.951 28.2904 44.0215 28.1519C44.0919 28.0133 44.1912 27.8914 44.3126 27.7944C44.434 27.6973 44.5748 27.6273 44.7255 27.5891C44.8762 27.551 45.0333 27.5454 45.1863 27.5729C45.6757 27.6651 46.1809 27.6213 46.6472 27.4462C47.1134 27.2712 47.5227 26.9716 47.8305 26.5801C48.4715 25.7762 48.6154 24.7296 48.2084 23.7833C48.147 23.6403 48.1169 23.4858 48.1202 23.3301C48.1235 23.1745 48.1602 23.0215 48.2277 22.8812C48.2952 22.741 48.392 22.6168 48.5115 22.5172C48.6311 22.4175 48.7706 22.3446 48.9207 22.3034C49.4021 22.1752 49.8389 21.9169 50.1832 21.5569C50.5276 21.1969 50.7662 20.7491 50.873 20.2625C50.9879 19.778 50.9673 19.2713 50.8134 18.7977C50.6596 18.3242 50.3784 17.9021 50.0008 17.5776C49.8835 17.4753 49.7895 17.3491 49.725 17.2074C49.6606 17.0657 49.6272 16.9119 49.6272 16.7563L49.6257 16.7577ZM25.4456 20.3439C25.414 20.3544 25.3807 20.3585 25.3475 20.356C25.3143 20.3536 25.2819 20.3446 25.2522 20.3296C25.2225 20.3146 25.196 20.2939 25.1743 20.2687C25.1527 20.2434 25.1362 20.2142 25.1258 20.1826C24.8066 19.2155 24.6246 18.2085 24.585 17.1909C24.5827 17.1237 24.607 17.0583 24.6528 17.009C24.6986 16.9596 24.762 16.9305 24.8292 16.9278C24.9891 16.9118 25.088 17.0325 25.0938 17.172C25.1316 18.146 25.3046 19.1039 25.607 20.0227C25.6506 20.1564 25.5779 20.2989 25.447 20.3425L25.4456 20.3439ZM27.2612 10.3864C26.6667 11.1546 26.1823 12.002 25.8221 12.9041C25.7939 12.9619 25.7449 13.007 25.6849 13.0301C25.6249 13.0533 25.5583 13.0528 25.4986 13.0289C25.4389 13.0049 25.3905 12.9592 25.3632 12.901C25.3358 12.8428 25.3315 12.7764 25.3511 12.7151C25.7275 11.7691 26.2339 10.8801 26.8556 10.0738C26.8761 10.0474 26.9015 10.0252 26.9305 10.0086C26.9595 9.99201 26.9915 9.98127 27.0246 9.97702C27.0577 9.97277 27.0914 9.97509 27.1236 9.98384C27.1559 9.99259 27.1861 10.0076 27.2125 10.028C27.239 10.0485 27.2611 10.0739 27.2777 10.1029C27.2943 10.1319 27.3051 10.1639 27.3093 10.197C27.3136 10.2301 27.3113 10.2638 27.3025 10.296C27.2938 10.3283 27.2787 10.3585 27.2583 10.3849L27.2612 10.3864ZM30.0958 25.9681C30.0602 26.0249 30.0035 26.0654 29.9382 26.0806C29.8728 26.0959 29.8041 26.0847 29.747 26.0495C28.8827 25.5115 28.0975 24.856 27.4138 24.1016C27.3744 24.0511 27.3555 23.9875 27.3609 23.9236C27.3664 23.8597 27.3957 23.8002 27.4431 23.7571C27.4905 23.7139 27.5525 23.6902 27.6166 23.6908C27.6807 23.6913 27.7422 23.716 27.7889 23.76C28.443 24.481 29.1931 25.1061 30.0144 25.6178C30.1336 25.6905 30.1714 25.8489 30.0958 25.9681ZM30.5596 7.58371C30.5002 7.61591 30.4305 7.62319 30.3657 7.60397C30.301 7.58476 30.2465 7.5406 30.2143 7.48123C30.1821 7.42186 30.1748 7.35213 30.1941 7.28738C30.2133 7.22264 30.2574 7.16818 30.3168 7.13599C31.2122 6.65103 32.1713 6.2943 33.166 6.07627C33.1986 6.06861 33.2325 6.0676 33.2656 6.07331C33.2987 6.07902 33.3303 6.09133 33.3585 6.1095C33.3867 6.12768 33.411 6.15135 33.4298 6.17911C33.4487 6.20687 33.4618 6.23814 33.4683 6.27106C33.4826 6.33678 33.4703 6.40548 33.4341 6.46215C33.3978 6.51881 33.3406 6.55882 33.275 6.57342C32.327 6.78139 31.4129 7.12148 30.5596 7.58371ZM37.0545 27.5831C36.0469 27.7254 35.0245 27.7273 34.0164 27.5889C33.9495 27.5797 33.889 27.5442 33.8482 27.4904C33.8075 27.4366 33.7898 27.3687 33.799 27.3018C33.8083 27.2349 33.8437 27.1745 33.8976 27.1337C33.9514 27.093 34.0192 27.0753 34.0861 27.0845C34.435 27.1325 34.7912 27.163 35.1473 27.1761C35.7695 27.2008 36.3785 27.1659 36.9847 27.0787C37.1301 27.0584 37.2522 27.1557 37.2711 27.2967C37.29 27.4378 37.194 27.5628 37.0545 27.5831ZM40.0548 14.8229L36.1605 19.4019C35.8538 19.7624 35.4075 19.9689 34.9351 19.9689H34.9118C34.6746 19.9659 34.4411 19.9104 34.2279 19.8063C34.0148 19.7022 33.8273 19.5522 33.6791 19.3671L32.0437 17.3276C31.8629 17.1018 31.7792 16.8135 31.811 16.5261C31.8427 16.2386 31.9874 15.9755 32.2131 15.7947C32.4388 15.6139 32.7271 15.5301 33.0146 15.5619C33.3021 15.5937 33.5652 15.7383 33.746 15.964L34.9467 17.4613L38.3933 13.41C38.5849 13.2046 38.8483 13.081 39.1286 13.0648C39.409 13.0486 39.6848 13.1411 39.8988 13.323C40.1127 13.505 40.2483 13.7624 40.2774 14.0417C40.3065 14.321 40.2268 14.6008 40.0548 14.8229ZM40.677 7.40491C40.6617 7.43461 40.6406 7.46099 40.615 7.48255C40.5895 7.5041 40.5599 7.52041 40.5281 7.53054C40.4962 7.54066 40.4627 7.54441 40.4294 7.54156C40.3961 7.53871 40.3636 7.52933 40.3339 7.51394C39.4739 7.06434 38.5549 6.73794 37.604 6.54435C37.5712 6.53793 37.5399 6.52507 37.5121 6.5065C37.4843 6.48793 37.4604 6.46403 37.4419 6.43618C37.4234 6.40833 37.4106 6.37709 37.4042 6.34425C37.3978 6.31142 37.3981 6.27765 37.4048 6.2449C37.4112 6.21207 37.4241 6.18085 37.4427 6.15303C37.4612 6.12521 37.4851 6.10135 37.513 6.08283C37.5408 6.06431 37.5721 6.05149 37.6049 6.04513C37.6378 6.03876 37.6715 6.03897 37.7043 6.04574C38.7044 6.24926 39.6667 6.59087 40.568 7.0633C40.693 7.12727 40.7424 7.28135 40.677 7.40491ZM43.6425 24.0638C42.9625 24.8212 42.1807 25.4807 41.3195 26.0233C41.2621 26.0588 41.1931 26.0703 41.1273 26.0554C41.0615 26.0404 41.0042 26.0002 40.9677 25.9434C40.9319 25.8861 40.9202 25.8169 40.9352 25.751C40.9501 25.6851 40.9906 25.6278 41.0477 25.5916C41.87 25.0763 42.6162 24.4486 43.2645 23.7266C43.3097 23.6766 43.3727 23.6465 43.4399 23.6427C43.5071 23.6389 43.5731 23.6617 43.6236 23.7062C43.674 23.7514 43.7044 23.8147 43.7082 23.8823C43.712 23.9498 43.6889 24.0162 43.6439 24.0667L43.6425 24.0638ZM45.1426 12.7675C44.7709 11.871 44.2757 11.031 43.6715 10.2715C43.6505 10.2455 43.6349 10.2155 43.6256 10.1833C43.6163 10.1512 43.6134 10.1175 43.6172 10.0842C43.621 10.051 43.6313 10.0188 43.6476 9.98954C43.664 9.96031 43.6859 9.93461 43.7122 9.91393C43.7382 9.89296 43.7681 9.87737 43.8001 9.86806C43.8321 9.85874 43.8657 9.8559 43.8988 9.85969C43.932 9.86347 43.964 9.87382 43.9932 9.89012C44.0223 9.90642 44.0478 9.92835 44.0684 9.95463C44.7036 10.7506 45.2238 11.6319 45.6136 12.5727C45.6395 12.6351 45.6394 12.7053 45.6135 12.7677C45.5876 12.8301 45.538 12.8797 45.4755 12.9056C45.4131 12.9314 45.3429 12.9313 45.2805 12.9054C45.2181 12.8795 45.1685 12.8299 45.1426 12.7675ZM46.4364 17.1415C46.4016 18.1577 46.2255 19.1641 45.9131 20.1317C45.9028 20.1636 45.8863 20.1931 45.8646 20.2186C45.8428 20.2441 45.8163 20.2651 45.7865 20.2803C45.7566 20.2956 45.7241 20.3048 45.6907 20.3075C45.6573 20.3102 45.6237 20.3062 45.5918 20.2959C45.5599 20.2856 45.5304 20.2691 45.5049 20.2474C45.4794 20.2257 45.4584 20.1992 45.4432 20.1693C45.4279 20.1395 45.4187 20.107 45.416 20.0736C45.4133 20.0402 45.4173 20.0066 45.4276 19.9747C45.7256 19.056 45.8942 18.0951 45.9276 17.1226L45.9305 17.0238C45.9334 16.8828 46.0425 16.7577 46.1907 16.7752C46.258 16.7767 46.3218 16.8048 46.3684 16.8533C46.415 16.9018 46.4405 16.9667 46.4393 17.0339L46.4364 17.1415Z" stroke="white" stroke-width="2.4" mask="url(#path-1-inside-1_3266_11)"/>
</svg>
