<svg width="205" height="196" viewBox="0 0 205 196" fill="none" xmlns="http://www.w3.org/2000/svg">
<path d="M89.0902 175.752C74.3432 174.416 60.2444 168.747 47.6041 159.028C44.9707 157.003 38.5695 150.767 35.612 147.324C28.6841 139.266 22.445 126.995 19.6495 115.819C17.8264 108.691 17.3402 103.467 17.5428 94.3558C17.8669 81.0326 19.9331 72.407 25.443 61.1492C29.4539 53.05 33.5863 47.2591 40.4331 40.3343C54.1268 26.4442 71.3857 18.507 91.197 16.9277C101.528 16.1177 111.616 17.3731 121.947 20.6938C127.578 22.5161 138.396 27.6591 140.583 29.5624L142.001 30.7773L140.381 29.9268C134.425 26.7277 132.643 25.8773 128.834 24.3789C111.292 17.4946 90.9944 17.7376 73.8976 25.0268C62.3511 29.9673 52.7493 37.2566 44.9707 47.0161C28.8462 67.183 24.7138 94.5987 34.0725 118.856C40.3521 135.135 52.4657 148.863 67.861 156.962C89.2523 168.261 114.006 168.544 135.317 157.691C155.979 147.203 170.199 127.967 174.493 104.682C174.939 102.09 175.182 98.6078 175.182 92.7359C175.223 85.6492 175.101 83.7863 174.331 80.0202C173.481 75.9706 173.4 74.7963 174.007 75.4037C174.412 75.7682 175.425 81.0731 176.033 85.8516C178.788 107.233 173.116 128.21 159.949 145.381C155.209 151.536 144.878 160.769 138.355 164.657C123.649 173.444 106.471 177.291 89.0902 175.752Z" fill="#fff"/>
<path d="M95.41 142.668C90.1027 127.927 72.8033 105.249 57.9347 93.5056C55.7874 91.8048 52.2222 89.4965 49.7509 88.2412L48.0088 87.3098L49.4268 87.0263C58.907 84.9205 70.575 87.6742 80.0552 94.1941C83.9851 96.9073 90.3863 103.549 94.1946 108.854C95.9772 111.324 97.5572 113.308 97.7193 113.268C97.8408 113.227 99.4614 110.919 101.284 108.125C103.108 105.33 105.295 102.172 106.106 101.038C106.956 99.9445 108.982 97.1908 110.603 94.9635C120.488 81.5998 133.615 68.2362 148.686 56.2089C152.494 53.1717 162.298 46.166 168.132 42.2379C171.819 39.8081 188.997 29.0767 190.415 28.3478C191.792 27.6593 191.509 27.9428 184.135 34.2197C160.475 54.4271 146.863 68.5197 132.926 87.2693C127.294 94.8015 120.123 105.492 115.262 113.592C110.36 121.772 103.594 133.597 100.515 139.428C98.6511 142.911 96.99 145.786 96.828 145.786C96.6659 145.786 96.0177 144.368 95.41 142.668Z" fill="#fff"/>
</svg>
