<svg width="25" height="23" viewBox="0 0 25 23" fill="none" xmlns="http://www.w3.org/2000/svg">
<path d="M22.6045 2.1559C22.0131 1.53929 21.3111 1.05015 20.5383 0.716428C19.7656 0.382705 18.9374 0.210937 18.1009 0.210938C17.2645 0.210937 16.4362 0.382705 15.6635 0.716428C14.8908 1.05015 14.1887 1.53929 13.5974 2.1559L12.3702 3.43498L11.143 2.1559C9.9486 0.910974 8.32863 0.211583 6.63947 0.211583C4.95032 0.211583 3.33035 0.910974 2.13593 2.1559C0.941522 3.40082 0.270508 5.0893 0.270508 6.84989C0.270508 8.61047 0.941522 10.299 2.13593 11.5439L3.36312 12.823L12.3702 22.2109L21.3773 12.823L22.6045 11.5439C23.1961 10.9276 23.6653 10.1958 23.9855 9.39038C24.3057 8.58497 24.4705 7.7217 24.4705 6.84989C24.4705 5.97807 24.3057 5.1148 23.9855 4.30939C23.6653 3.50398 23.1961 2.77222 22.6045 2.1559Z" fill="white"/>
</svg>
