<svg xmlns="http://www.w3.org/2000/svg" version="1.1" xmlns:xlink="http://www.w3.org/1999/xlink" width="512" height="512" x="0" y="0" viewBox="0 0 512 512" style="enable-background:new 0 0 512 512" xml:space="preserve" class=""><g><path d="M512 160c0-8.531-3.332-16.57-9.383-22.617-4.11-4.11-9.137-6.969-14.617-8.375V120c0-8.531-3.332-16.57-9.383-22.617-5.555-5.555-17.43-8.453-20.933-9.203A8.136 8.136 0 0 0 456 88v-.125C456 52.656 427.29 24 392 24h-24c-12.77 0-24.824 4.969-34.008 14.055-7.3 7.382-11.949 16.687-13.457 26.734-10.695 2.352-19.52 9.797-23.851 20.516-4.297 10.632-3.227 22.406 2.515 31.82-3.965 3.86-6.351 9.648-6.351 16.46 0 6.267 2.125 12.571 6.293 17.446a31.098 31.098 0 0 0-3.067 2.899c-4.414 4.797-7.113 10.89-7.84 17.3-8.062 3.649-15.433 8.66-21.886 15.114l-10.344 10.344-10.344-10.344c-14.308-14.305-33.363-22.188-53.656-22.188s-39.348 7.883-53.656 22.188c-2.024 2.02-3.868 4.156-5.606 6.336-8.305-7.114-18.133-12.32-28.738-15.118V176c0-4.258 1.668-8.273 4.695-11.305A15.875 15.875 0 0 1 120.004 160a8.006 8.006 0 0 0 7.715-5.867c5.254-4.524 8.285-11.04 8.285-18.133v-8h1.84c5.765 0 11.105-3.117 13.937-8.14s2.735-11.22-.258-16.157l-15.52-25.914v-8.68c11.063-4 20.395-12.004 25.876-22.968 2.387-4.782 2.137-10.344-.672-14.883C158.402 26.71 153.539 24 148.199 24h-5.207C139.426 10.21 126.882 0 112 0H73.2c-7.16 0-14.388 1.695-20.946 4.93l-2.39 1.195c-7.704 3.852-14.235 9.813-18.927 17.297a47.017 47.017 0 0 0-6.394 17.453C10.48 44.242 0 56.922 0 72v14.11c0 13.413 7.102 25.538 18.66 32.109L40 146.66v26.266c-17.25 18.476-26.8 42.37-26.8 67.793a96.87 96.87 0 0 0 4.581 29.539c2.469 55.336-2.293 98.71-17.543 159.805-.066.277.024.55-.011.828C.168 431.27 0 431.605 0 432v3.156c0 19.063 5.512 55.54 17.344 73.281A7.997 7.997 0 0 0 24 512h120c4.078 0 7.5-3.063 7.95-7.117l8-72c.019-.156-.055-.305-.048-.461.012-.176.098-.332.098-.508l-.902-87.195 22.722-7.586 68.524 68.523c1.562 1.563 3.61 2.344 5.656 2.344s4.094-.781 5.656-2.344l61.008-61.011 4.672 28.039-36.332 29.066a8.01 8.01 0 0 0-2.992 5.805 8.006 8.006 0 0 0 2.332 6.101l12 12c4.855 4.852 11.3 7.32 17.73 7.32.25 0 .5-.054.75-.062l-8.762 70.094A7.998 7.998 0 0 0 320 512h160a8.002 8.002 0 0 0 6.86-3.883c7.34-12.242 11.218-26.195 11.218-40.36 0-16.058-4.855-31.429-13.95-44.577l9.528-9.524a8.008 8.008 0 0 0 2.305-6.445 7.989 7.989 0 0 0-3.524-5.867l-42.128-28.086 8.539-17.137c1.32-1.324 2.46-2.586 3.257-3.707 1.762-2.219 3.286-4.82 4.852-8.305l9.719-22.699 25.383 6.348a7.99 7.99 0 0 0 6.863-1.453A8.004 8.004 0 0 0 512 320V208c0-.137-.07-.25-.078-.383.008-.27.078-.52.078-.789zm-204.152 4.766c2.824-3.07 6.687-4.766 10.87-4.766H320a7.998 7.998 0 0 0 7.988-8.398A7.997 7.997 0 0 0 320 144c-10.84 0-11.152-9.352-11.152-10.414 0-.055.039-5.586 3.152-5.586a7.998 7.998 0 0 0 5.656-13.656l-2-2c-6.636-6.64-6.492-15.219-4.14-21.04C314.328 84.353 320.332 80.126 328 80c4.418 0 8-3.578 8-8 0-8.523 3.328-16.586 9.305-22.633C351.41 43.328 359.473 40 368 40h24c26.469 0 48 21.477 48 47.875 0 3.813 0 7.75 2.746 11.406 3.156 3.89 7.742 4.633 12.336 4.711 5.137 1.195 10.922 3.406 12.223 4.703C470.332 111.727 472 115.742 472 120v16c0 4.422 3.582 8 8 8 4.262 0 8.277 1.664 11.305 4.695C494.332 151.727 496 155.742 496 160v46.828c0 11.559-7.7 21.465-17.973 24.313-.246.062-.48.168-.73.226-.844.203-1.734.258-2.61.36-.785.09-1.55.226-2.355.238-.773.008-1.496-.059-2.223-.125-.46-.04-.949-.047-1.394-.117-.875-.141-1.692-.383-2.488-.641-.278-.09-.579-.137-.844-.242-.848-.328-1.621-.766-2.367-1.235-.176-.109-.383-.183-.555-.3a13.517 13.517 0 0 1-2.45-2.188C457.462 224.22 456 220.164 456 216c0-1.008-.23-1.965-.578-2.867-.117-.301-.293-.551-.445-.832-.301-.567-.633-1.094-1.059-1.57a7.403 7.403 0 0 0-.762-.723 7.816 7.816 0 0 0-1.492-1.008 7.859 7.859 0 0 0-.988-.46c-.188-.067-.344-.196-.54-.25-.5-.138-1.003-.122-1.507-.161-.219-.02-.406-.129-.629-.129-6.04 0-11.836-1.648-16.89-4.844a30.586 30.586 0 0 1-5.774-4.492c-4.422-4.422-7.43-10.047-8.758-16.539-.383-1.594-.578-3.414-.578-5.406 0-1.211.059-2.422.215-3.828.039-.47.113-.938.348-1.875.093-.465.238-.93.375-1.395.015-.05.027-.098.042-.152 1.157-3.57 3.149-7.047 5.72-10 .34-.383.671-.719 1.167-1.156a35.082 35.082 0 0 1 2.375-1.993l18.559-13.922A7.998 7.998 0 0 0 440 128h-23.766c-.113-.016-.222-.031-.336-.04-2.218-.218-4.265-1.163-5.93-2.82-.46-.437-.863-1.046-1.245-1.898-.22-.476-.395-.953-.563-1.32 0-.656 0-1.29-.16-1.922 0-2.133.816-4.11 2.45-5.703 1.445-1.477 3.413-2.297 5.55-2.297 4.418 0 8-3.578 8-8s-3.582-8-8-8c-8.824 0-16-7.18-16-16 0-4.422-3.582-8-8-8h-16c-8.535 0-16.566 3.328-22.617 9.383C347.332 87.43 344 95.469 344 104c0 4.414-3.59 8-8 8-4.418 0-8 3.578-8 8v8c0 19.32 13.766 35.477 32 39.195v8.344c-1.21-.758-2.473-1.406-3.719-2.09-.597-.328-1.172-.691-1.777-1a75.576 75.576 0 0 0-7.441-3.32c-.583-.223-1.18-.395-1.77-.602a73.949 73.949 0 0 0-8.555-2.48 74.619 74.619 0 0 0-6.207-1.125c-.648-.09-1.289-.215-1.937-.29a75.621 75.621 0 0 0-8.035-.48c-.676-.004-1.344.055-2.016.067a75.213 75.213 0 0 0-6.066.367c-.993.098-1.977.226-2.965.371-.684.098-1.375.137-2.059.254.129-.156.262-.305.395-.445zm57.187 132.43c.086.015.168.003.254.019l32.977 6.598 61.996 13.773-14.344 28.684c-1.203 1.105-2.477 2.117-4.027 2.953-.043.023-.07.047-.114.07-.039.023-.074.043-.12.066-.063.028-.122.067-.188.098-.153.066-.305.133-.438.2-.535.265-1.066.546-1.969.913-.535.25-1.062.477-1.597.602-.223.047-.692.219-.91.289-.528.086-.727.125-1.227.312l-.887.196c-.644.11-1.293.164-2.132.234-3.168.375-6.524-.016-9.7-1.07l-91.742-30.61-41.156-17.632c-4.816-2.07-7.387-7.235-6.11-12.305 1.18-4.727 5.426-8.024 10.32-8.024.583 0 1.22.047 1.716.125l31.039 5.204c2.312.367 4.695-.266 6.492-1.782A8.01 8.01 0 0 0 336 280v-10.563c0-3 2.441-5.437 5.441-5.437a5.535 5.535 0 0 1 5.36 4.18l5.441 21.757a7.992 7.992 0 0 0 6.156 5.899zm-.34-204.5A15.875 15.875 0 0 1 376 88h9.012c1.84 7.125 6.082 13.297 11.808 17.602-3.129 4.093-4.82 9.093-4.82 14.398 0 .719 0 1.734.203 2.93.09 1.039.305 2 .559 3.093.347 1.282.812 2.57 1.386 3.829 1.23 2.726 2.86 5.062 4.434 6.515.035.04.078.067.117.106.047.043.082.109.13.152.171.168.378.297.55.465 4.016 4 9.191 6.433 14.824 6.793.79.117 1.414.117 1.797.117h.023a47.465 47.465 0 0 0-2.82 2.39c-.894.782-1.68 1.57-2.21 2.18-.06.059-.106.133-.165.192-.047.054-.098.09-.144.144-.036.043-.059.094-.094.137a38.012 38.012 0 0 0-8.95 15.894c-.292.977-.57 1.954-.644 2.415-.36 1.335-.61 2.789-.703 3.984a48.436 48.436 0 0 0-.293 5.383v5.062l-13.27 22.11c-.18-.336-.425-.641-.609-.977-.816-1.46-1.758-2.848-2.672-4.254-.879-1.347-1.715-2.707-2.68-4-1.019-1.367-2.164-2.644-3.28-3.95-.829-.964-1.555-2.003-2.434-2.929.078-.144.11-.312.18-.465.077-.168.132-.34.199-.515.332-.88.566-1.805.566-2.801v-24c0-4.422-3.582-8-8-8-13.234 0-24-10.766-24-24v-1.367c9.312-3.305 16-12.203 16-22.633 0-4.258 1.668-8.273 4.695-11.305zm-26.617 247.1 79.473 26.517c2.234.742 4.523 1.234 6.82 1.574.172.023.336.09.504.113h-82.098zm57.961-52.741-14.43-2.88c9.196-12.788 14.23-28.07 14.23-44.175 0-5.852-.812-11.45-2.077-16.742l13.36-22.25c1.96 3.222 4.206 6.277 6.905 8.976a46.371 46.371 0 0 0 8.657 6.774c3.804 2.41 7.949 4.199 12.28 5.418zm-217.207-.946c1.793 1.508 4.176 2.141 6.492 1.782l30.906-5.18c5.934-.953 10.848 2.586 12.172 7.883 1.274 5.062-1.297 10.226-6.113 12.297L181.188 320.5l-32.407 10.816c-.09.028-.187.028-.277.059l-59.09 19.746c-11.75 3.848-24.789-1.969-29.66-13.312l-8.606-20.09 62.586-13.91c.004 0 .008-.004.012-.004l33.16-6.602c.016-.004.031 0 .043-.004l6.7-1.37a7.997 7.997 0 0 0 6.113-5.895l5.433-21.735c.63-2.476 2.832-4.203 5.364-4.203 3 0 5.441 2.438 5.441 5.438v10.562a8.013 8.013 0 0 0 2.832 6.113zm-133.52 16.512L33.707 267.77l-1.629-34.31 20.8-48.538 17.009 2.836 19.023 3.172 14.121 98.863zm78.715-96.262c-1.414 2.825-2.574 5.723-3.609 8.649-.203.578-.41 1.148-.602 1.73a75.121 75.121 0 0 0-2.285 8.692c-.097.492-.164.988-.25 1.48a74.68 74.68 0 0 0-1.027 8.457c-.02.313-.067.63-.082.945-.149 2.985-.078 5.97.129 8.946.039.613.09 1.222.144 1.84.278 2.949.696 5.879 1.317 8.78.086.4.203.786.293 1.18a76.52 76.52 0 0 0 2.336 8.028c.156.437.285.883.445 1.32a75.6 75.6 0 0 0 3.625 8.149c.293.57.598 1.129.906 1.695 1.457 2.664 3.031 5.27 4.82 7.773.043.055.07.122.11.176l-11.574 2.305-13.07-91.5c6.777 2.59 13.077 6.34 18.402 11.289a.338.338 0 0 0-.028.066zm12.254-96.93 1.602 2.571H128c-4.418 0-8 3.578-8 8v16c0 2.867-1.508 5.46-4.035 6.937a7.97 7.97 0 0 0-1.973 1.625c-6.25 1.188-12.004 4.211-16.61 8.82-5.71 5.712-9 13.18-9.35 21.18L56 169.222v-20.277l11.578-5.789c.297-.148.586-.312.86-.5 7.812-5.21 12.523-13.578 12.93-22.953.402-9.375-3.567-18.11-10.891-23.969l-2.543-2.03a31.882 31.882 0 0 0 10.683-7.087c4.113-4.11 6.969-9.14 8.38-14.617H120v8c0 1.445.39 2.867 1.133 4.11zm-108.703-4.585C20.438 101.274 16 94.094 16 86.109V72c0-8.82 7.176-16 16-16 4.418 0 8-3.578 8-8 0-5.727 1.582-11.336 4.535-16.148 3.09-4.93 7.406-8.875 12.492-11.422l2.348-1.172C63.695 17.125 68.477 16 73.199 16H112c8.824 0 16 7.18 16 16 0 4.422 3.582 8 8 8l11.207-.32C141.852 49.766 131.512 56 120.031 56H80c-4.418 0-8 3.578-8 8 0 4.258-1.668 8.273-4.695 11.305A15.875 15.875 0 0 1 56 80h-8a8.005 8.005 0 0 0-7.55 5.352A8.014 8.014 0 0 0 43 94.25l17.48 13.984c3.297 2.633 5.083 6.563 4.903 10.782-.176 4.07-2.16 7.718-5.457 10.078l-9.531 4.765-19.997-26.656a7.964 7.964 0 0 0-2.82-2.36zM136.84 496H28.566c-7.351-14.078-11.699-39.445-12.449-56h126.945zm7.078-72H18.188c9.382-39.348 14.343-71.824 15.777-105.77l11.082 25.887c.926 2.156 2.074 4.16 3.332 6.067.394.601.84 1.148 1.266 1.722a39.91 39.91 0 0 0 3.02 3.64 40.625 40.625 0 0 0 1.636 1.645 40.688 40.688 0 0 0 3.695 3.067c.52.383 1.008.797 1.54 1.152 1.847 1.235 3.769 2.336 5.788 3.25.281.13.586.207.871.332a41.457 41.457 0 0 0 5.43 1.875c.68.18 1.371.305 2.063.453 1.539.328 3.093.57 4.671.715.735.07 1.457.133 2.196.16.5.02.988.11 1.488.11 1.121 0 2.25-.172 3.375-.266.715-.062 1.422-.07 2.133-.172 2.316-.324 4.625-.808 6.906-1.562l48.695-16.262zM256 388.687 198.012 330.7l30.582-13.105c12.086-5.18 18.531-18.18 15.328-30.899-2.969-11.851-13.594-20.132-25.844-20.132-1.332 0-2.781.109-4.363.343L192 270.546v-1.108c0-11.82-9.617-21.438-21.441-21.438-9.864 0-18.446 6.695-20.88 16.305l-3.488 13.941c-.535-.644-1.113-1.262-1.62-1.922a60.534 60.534 0 0 1-2.579-3.601 61.06 61.06 0 0 1-2.691-4.555c-.688-1.285-1.36-2.57-1.95-3.895-.706-1.586-1.3-3.207-1.863-4.84-.472-1.374-.957-2.75-1.328-4.148-.433-1.637-.726-3.3-1.02-4.96-.253-1.458-.538-2.91-.687-4.38-.164-1.636-.164-3.285-.191-4.933-.024-1.516-.098-3.035-.008-4.555.098-1.617.383-3.223.613-4.832.223-1.54.367-3.082.711-4.605.371-1.657.957-3.27 1.477-4.899.453-1.434.804-2.887 1.37-4.293.977-2.422 2.212-4.773 3.528-7.094.32-.566.527-1.168.871-1.726 2.36-4.031 5.328-7.852 8.832-11.352 11.285-11.281 26.324-17.5 42.344-17.5 16.016 0 31.055 6.219 42.34 17.5l16.004 16a7.997 7.997 0 0 0 11.312 0l16-16c6.14-6.14 13.258-10.703 21.27-13.617 18.265-6.945 38.793-4.516 54.918 6.594a56.643 56.643 0 0 1 8.5 7.023c7.37 7.375 12.629 16.446 15.265 26.469 1.477 4.969 2.23 10.312 2.23 15.875 0 14.266-4.929 27.75-13.968 38.5l-3.558-14.219C359.887 254.7 351.3 248 341.44 248 329.617 248 320 257.617 320 269.438v1.113l-21.848-3.664a29.257 29.257 0 0 0-4.23-.325c-12.254 0-22.875 8.286-25.844 20.125-3.207 12.727 3.238 25.727 15.328 30.907l30.582 13.101zM427.816 496 432 485.54l4.184 10.46zm47.473 0h-21.871l-13.988-34.969c-1.22-3.039-4.16-5.031-7.43-5.031s-6.21 1.992-7.43 5.031L410.582 496h-81.52l8.817-70.52c.281-.265.566-.468.855-.68.23-.167.454-.374.684-.51.344-.208.684-.34 1.023-.49.207-.085.418-.21.625-.28.375-.125.73-.196 1.086-.266.157-.031.325-.09.473-.113.496-.07.96-.102 1.375-.102 1.7 0 4.18.453 6.344 2.617 9.422 9.422 25.89 9.422 35.312 0 2.164-2.164 4.645-2.617 6.344-2.617s4.18.453 6.344 2.617c9.422 9.422 25.89 9.422 35.312 0 2.164-2.164 4.645-2.617 6.344-2.617s4.18.453 6.344 2.617c1 .996 2.101 1.864 3.242 2.66.45.32.906.61 1.375.899.707.43 1.434.808 2.18 1.164.945.46 1.918.848 2.918 1.183.703.235 1.406.47 2.125.645.664.156 1.332.277 2.011.379.942.148 1.887.234 2.84.277.324.012.637.094.965.094.098 0 .191-.02.29-.02a25.015 25.015 0 0 0 3.374-.25c.387-.058.754-.171 1.133-.246.687-.132 1.375-.242 2.047-.437 7.355 10.555 11.234 22.883 11.234 35.75 0 9.8-2.336 19.48-6.789 28.246zm-4.934-81.672c-.382.383-.734.672-1.398 1.102-1.465 1.015-3.133 1.53-4.957 1.53-1.7 0-4.18-.452-6.344-2.616-4.71-4.711-10.98-7.305-17.656-7.305s-12.945 2.594-17.656 7.305c-2.164 2.164-4.645 2.617-6.344 2.617s-4.18-.453-6.344-2.617c-9.422-9.422-25.89-9.422-35.312 0-2.164 2.164-4.645 2.617-6.344 2.617s-4.18-.453-6.344-2.617c-9.422-9.422-25.87-9.438-35.332.015a6.377 6.377 0 0 1-.89.743c-3.543 2.734-8.61 2.406-11.778-.758l-5.68-5.68L338.806 384h98.773l37.863 25.242zM496 309.758l-22.266-5.57-61.164-13.586 33.34-55.57c.64.913 1.336 1.796 2.074 2.64 1.243 1.418 2.836 2.902 4.73 4.308.102.07.2.145.302.22a29.692 29.692 0 0 0 5.472 3.093c.063.023.121.05.184.078 1.84.785 3.875 1.43 6.129 1.887.191.039.39.066.586.101 2.047.375 4.21.637 6.613.637h.043c.418 0 .836-.008 1.258-.02.531-.019 1.027-.175 1.554-.214 1.872-.133 3.708-.364 5.5-.75a33.995 33.995 0 0 0 1.567-.395c5.148-1.324 9.945-3.527 14.078-6.637zm0 0" fill="#fff" opacity="1" data-original="#fff" class=""></path></g></svg>