<svg width="601" height="561" viewBox="0 0 601 561" fill="none" xmlns="http://www.w3.org/2000/svg">
<path d="M565.035 182.233C565.066 150.849 554.424 120.386 534.853 95.8389C515.282 71.2914 487.945 54.1163 457.323 47.1294C426.701 40.1425 394.612 43.7585 366.316 57.3845C338.021 71.0105 315.199 93.838 301.592 122.124C287.985 93.8392 265.165 71.0125 236.871 57.3863C208.577 43.76 176.49 40.1428 145.869 47.1276C115.247 54.1125 87.91 71.2849 68.3381 95.8295C48.7661 120.374 38.1211 150.835 38.1482 182.217C38.1482 269.608 136.125 352.231 203.806 396.419C274.891 442.863 307.698 478.376 307.698 478.376C307.698 478.376 354.182 418.283 417.077 385.487C485.013 350.07 565.035 263.204 565.035 182.233Z" fill="#37474F"/>
<path opacity="0.5" d="M565.035 182.233C565.066 150.849 554.424 120.386 534.853 95.8389C515.282 71.2914 487.945 54.1163 457.323 47.1294C426.701 40.1425 394.612 43.7585 366.316 57.3845C338.021 71.0105 315.199 93.838 301.592 122.124C287.985 93.8392 265.165 71.0125 236.871 57.3863C208.577 43.76 176.49 40.1428 145.869 47.1276C115.247 54.1125 87.91 71.2849 68.3381 95.8295C48.7661 120.374 38.1211 150.835 38.1482 182.217C38.1482 269.608 136.125 352.231 203.806 396.419C274.891 442.863 307.698 478.376 307.698 478.376C307.698 478.376 354.182 418.283 417.077 385.487C485.013 350.07 565.035 263.204 565.035 182.233Z" fill="white"/>
<path d="M529.414 130.434C523.498 127.256 520.81 129.894 518.663 127.256C516.517 124.619 524.579 117.596 508.454 110.62C508.454 110.62 507.388 95.5891 485.347 95.0489C463.306 94.5086 469.222 110.08 463.322 113.83C457.422 117.58 455.8 111.685 449.884 115.419C443.969 119.153 446.704 126.7 441.822 127.765C436.94 128.829 430.531 122.998 424.631 126.7C418.731 130.402 418.715 133.675 416.028 133.675C413.34 133.675 407.965 131.53 404.737 133.675C401.508 135.821 397.755 138.442 397.755 138.442H533.723C533.723 138.442 535.329 133.66 529.414 130.434Z" fill="white"/>
<path d="M190.448 229.932C184.532 226.754 181.845 229.392 179.698 226.754C177.551 224.117 185.614 217.094 169.488 210.118C169.488 210.118 168.423 195.087 146.382 194.547C124.341 194.007 130.256 209.578 124.356 213.328C118.457 217.078 116.835 211.183 110.919 214.917C105.003 218.651 107.738 226.198 102.856 227.263C97.974 228.327 91.5652 222.496 85.6653 226.198C79.7654 229.9 79.7495 233.174 77.062 233.174C74.3744 233.174 68.9993 231.029 65.7711 233.174C62.5428 235.319 58.7898 237.94 58.7898 237.94H194.742C194.742 237.94 196.364 233.158 190.448 229.932Z" fill="white"/>
<path d="M119.443 192.036C115.992 190.161 114.433 191.734 113.193 190.161C111.952 188.588 116.628 184.552 107.245 180.485C107.245 180.485 106.625 171.746 93.8075 171.444C80.9899 171.142 84.4408 180.183 81.0058 182.36C77.5708 184.537 76.6326 181.12 73.1976 183.297C69.7626 185.474 71.3211 189.859 68.4268 190.479C65.5325 191.099 61.859 187.667 58.424 189.86C54.9891 192.052 54.9891 193.911 53.4306 193.911C51.8721 193.911 48.6598 192.672 46.8628 193.911C45.0658 195.151 42.8076 196.724 42.8076 196.724H121.86C121.86 196.724 122.878 193.864 119.443 192.036Z" fill="white"/>
<path d="M349.077 50.4476C349.091 49.0414 348.622 47.673 347.75 46.5692C346.878 45.4655 345.655 44.6928 344.283 44.3793C342.911 44.0658 341.473 44.2304 340.207 44.8457C338.942 45.461 337.925 46.4901 337.325 47.7623C336.72 46.4958 335.701 45.4729 334.436 44.8619C333.171 44.251 331.736 44.0884 330.366 44.401C328.996 44.7135 327.774 45.4825 326.9 46.5815C326.026 47.6804 325.552 49.0439 325.557 50.4476C325.557 54.3405 329.93 58.0267 332.952 59.9811C334.632 61.0281 336.189 62.2592 337.595 63.6515C338.944 61.9719 340.601 60.5644 342.478 59.5044C345.499 57.9314 349.077 54.0545 349.077 50.4476Z" fill="#37474F"/>
<path d="M349.077 50.4476C349.091 49.0414 348.622 47.673 347.75 46.5692C346.878 45.4655 345.655 44.6928 344.283 44.3793C342.911 44.0658 341.473 44.2304 340.207 44.8457C338.942 45.461 337.925 46.4901 337.325 47.7623C336.72 46.4958 335.701 45.4729 334.436 44.8619C333.171 44.251 331.736 44.0884 330.366 44.401C328.996 44.7135 327.774 45.4825 326.9 46.5815C326.026 47.6804 325.552 49.0439 325.557 50.4476C325.557 54.3405 329.93 58.0267 332.952 59.9811C334.632 61.0281 336.189 62.2592 337.595 63.6515C338.944 61.9719 340.601 60.5644 342.478 59.5044C345.499 57.9314 349.077 54.0545 349.077 50.4476Z" fill="#F16667"/>
<path d="M311.324 24.9296C311.328 24.1493 311.066 23.391 310.581 22.7797C310.096 22.1683 309.416 21.7403 308.655 21.5664C307.894 21.3924 307.096 21.4828 306.393 21.8227C305.69 22.1625 305.124 22.7316 304.788 23.436C304.452 22.7316 303.886 22.1625 303.183 21.8227C302.48 21.4828 301.683 21.3924 300.921 21.5664C300.16 21.7403 299.481 22.1683 298.996 22.7797C298.51 23.391 298.248 24.1493 298.252 24.9296C298.252 27.0905 300.685 29.1402 302.355 30.2366C303.291 30.8239 304.16 31.5112 304.947 32.2863C305.695 31.3502 306.612 30.5632 307.651 29.9664C308.622 29.4824 309.463 28.7721 310.102 27.8956C310.741 27.019 311.161 26.0018 311.324 24.9296Z" fill="#37474F"/>
<path d="M311.324 24.9296C311.328 24.1493 311.066 23.391 310.581 22.7797C310.096 22.1683 309.416 21.7403 308.655 21.5664C307.894 21.3924 307.096 21.4828 306.393 21.8227C305.69 22.1625 305.124 22.7316 304.788 23.436C304.452 22.7316 303.886 22.1625 303.183 21.8227C302.48 21.4828 301.683 21.3924 300.921 21.5664C300.16 21.7403 299.481 22.1683 298.996 22.7797C298.51 23.391 298.248 24.1493 298.252 24.9296C298.252 27.0905 300.685 29.1402 302.355 30.2366C303.291 30.8239 304.16 31.5112 304.947 32.2863C305.695 31.3502 306.612 30.5632 307.651 29.9664C308.622 29.4824 309.463 28.7721 310.102 27.8956C310.741 27.019 311.161 26.0018 311.324 24.9296Z" fill="#F16667"/>
<path d="M283.511 45.3632C283.506 44.5853 283.239 43.8317 282.752 43.2249C282.265 42.6181 281.586 42.1937 280.827 42.0206C280.068 41.8476 279.273 41.9361 278.571 42.2718C277.868 42.6074 277.3 43.1705 276.959 43.8696C276.623 43.1652 276.057 42.5961 275.354 42.2563C274.651 41.9164 273.853 41.826 273.092 42C272.33 42.1739 271.651 42.6019 271.166 43.2132C270.681 43.8246 270.419 44.5829 270.423 45.3632C270.423 47.54 272.856 49.5897 274.541 50.686C275.476 51.2622 276.341 51.9447 277.118 52.7199C277.871 51.788 278.794 51.0064 279.837 50.4159C280.809 49.9282 281.649 49.2149 282.289 48.3358C282.928 47.4567 283.347 46.4374 283.511 45.3632Z" fill="#37474F"/>
<path d="M283.511 45.3632C283.506 44.5853 283.239 43.8317 282.752 43.2249C282.265 42.6181 281.586 42.1937 280.827 42.0206C280.068 41.8476 279.273 41.9361 278.571 42.2718C277.868 42.6074 277.3 43.1705 276.959 43.8696C276.623 43.1652 276.057 42.5961 275.354 42.2563C274.651 41.9164 273.853 41.826 273.092 42C272.33 42.1739 271.651 42.6019 271.166 43.2132C270.681 43.8246 270.419 44.5829 270.423 45.3632C270.423 47.54 272.856 49.5897 274.541 50.686C275.476 51.2622 276.341 51.9447 277.118 52.7199C277.871 51.788 278.794 51.0064 279.837 50.4159C280.809 49.9282 281.649 49.2149 282.289 48.3358C282.928 47.4567 283.347 46.4374 283.511 45.3632Z" fill="#F16667"/>
<path d="M296.137 543.664C407.257 543.664 497.338 533.925 497.338 521.912C497.338 509.898 407.257 500.16 296.137 500.16C185.017 500.16 94.9365 509.898 94.9365 521.912C94.9365 533.925 185.017 543.664 296.137 543.664Z" fill="#37474F"/>
<path opacity="0.5" d="M296.137 543.664C407.257 543.664 497.338 533.925 497.338 521.912C497.338 509.898 407.257 500.16 296.137 500.16C185.017 500.16 94.9365 509.898 94.9365 521.912C94.9365 533.925 185.017 543.664 296.137 543.664Z" fill="white"/>
<path d="M118.171 491.118H175.309C174.212 484.143 169.711 485.366 169.123 474.546C168.821 469.096 173.894 462.359 173.433 455.193C173.067 449.298 167.246 443.244 166.801 436.507C166.388 430.422 171.365 423.669 170.872 417.106C170.427 410.894 164.511 404.951 164.002 398.5C163.493 392.049 168.36 385.392 167.787 379.036C167.215 372.68 161.203 366.833 160.567 360.557C159.931 354.281 164.623 347.178 163.907 341.013C163.144 334.467 156.957 328.81 156.115 322.788C155.176 316.067 159.565 308.901 158.532 303.102C157.276 295.999 150.66 290.851 149.276 285.623C146.684 275.852 147.002 266.445 143.933 265.826C140.864 265.206 139.926 274.406 137.445 284.718C136.204 289.898 129.732 295.141 128.667 302.196C127.808 307.964 132.388 314.907 131.625 321.644C130.957 327.634 124.929 333.386 124.341 339.901C123.8 346.018 128.682 352.771 128.205 359.175C127.728 365.578 121.844 371.33 121.494 377.654C121.145 383.978 126.122 390.603 125.788 396.832C125.454 403.06 119.682 409.273 119.427 415.422C119.109 421.937 124.198 428.499 124.007 434.489C123.737 441.179 118.06 447.312 117.853 453.159C117.614 460.262 122.83 466.824 122.624 472.226C122.274 483.952 116.883 481.521 116.692 490.975L118.171 491.118Z" fill="#F16667" fill-opacity="0.6"/>
<path d="M142.693 284.591V488.481" stroke="#263238" stroke-width="0.75" stroke-miterlimit="10"/>
<path d="M151.614 305.962L142.311 314.002L134.694 303.864" stroke="#263238" stroke-width="0.75" stroke-miterlimit="10"/>
<path d="M151.614 341.458L142.311 349.482L134.694 339.345" stroke="#263238" stroke-width="0.75" stroke-miterlimit="10"/>
<path d="M151.614 374.841L142.311 382.865L134.694 372.728" stroke="#263238" stroke-width="0.75" stroke-miterlimit="10"/>
<path d="M151.614 414.548L142.311 422.572L134.694 412.435" stroke="#263238" stroke-width="0.75" stroke-miterlimit="10"/>
<path d="M151.614 454.685L142.311 462.709L134.694 452.571" stroke="#263238" stroke-width="0.75" stroke-miterlimit="10"/>
<path d="M79.2411 491.118H123.355C122.496 485.732 119.03 486.685 118.584 478.328C118.346 474.117 122.242 468.921 121.908 463.392C121.622 458.832 117.137 454.176 116.787 448.964C116.469 444.198 120.302 439.049 119.968 433.981C119.618 429.214 115.054 424.606 114.656 419.681C114.259 414.755 118.012 409.559 117.582 404.649C117.153 399.74 112.494 395.227 112.001 390.349C111.508 385.471 115.181 380.021 114.577 375.254C113.988 370.202 109.218 365.832 108.566 361.177C107.85 355.997 111.237 350.467 110.442 345.987C109.472 340.505 104.367 336.532 103.286 332.497C101.282 324.949 101.537 317.688 99.1672 317.211C96.7977 316.734 95.9866 323.837 94.1578 331.797C93.2037 335.786 88.2102 339.837 87.3833 345.335C86.7154 349.768 90.2458 355.17 89.6733 360.334C89.1485 364.958 84.5049 369.407 84.0437 374.428C83.6303 379.195 87.3992 384.359 87.0334 389.3C86.6677 394.242 82.1513 398.691 81.8333 403.601C81.5152 408.51 85.4273 413.595 85.1569 418.409C84.8866 423.224 80.3861 427.943 80.2271 432.71C79.9885 437.731 83.9483 442.799 83.7575 447.471C83.5507 452.635 79.1775 457.37 78.9867 461.882C78.7958 467.364 82.8192 472.417 82.692 476.596C82.4217 485.652 78.2711 483.778 78.1279 491.055L79.2411 491.118Z" fill="#F16667" fill-opacity="0.6"/>
<path d="M98.1812 331.702V489.085" stroke="#263238" stroke-width="0.75" stroke-miterlimit="10"/>
<path d="M105.067 348.195L97.8791 354.392L92.011 346.574" stroke="#263238" stroke-width="0.75" stroke-miterlimit="10"/>
<path d="M105.067 375.588L97.8791 381.785L92.011 373.967" stroke="#263238" stroke-width="0.75" stroke-miterlimit="10"/>
<path d="M105.067 401.36L97.8791 407.557L92.011 399.724" stroke="#263238" stroke-width="0.75" stroke-miterlimit="10"/>
<path d="M105.067 432.011L97.8791 438.208L92.011 430.39" stroke="#263238" stroke-width="0.75" stroke-miterlimit="10"/>
<path d="M105.067 462.994L97.8791 469.191L92.011 461.358" stroke="#263238" stroke-width="0.75" stroke-miterlimit="10"/>
<path d="M451.3 491.118H506.641C505.575 484.35 501.234 485.541 500.646 475.07C500.359 469.795 505.257 463.249 504.828 456.321C504.478 450.617 498.849 444.754 498.467 438.223C498.069 432.328 502.888 425.782 502.411 419.426C501.981 413.42 496.257 407.652 495.764 401.408C495.271 395.164 499.978 388.697 499.421 382.548C498.865 376.398 493.06 370.726 492.44 364.656C491.82 358.587 496.352 351.707 495.62 345.732C494.889 339.377 488.894 333.911 488.083 328.079C487.176 321.565 491.422 314.621 490.436 309.012C489.212 302.132 482.803 297.159 481.467 292.09C478.954 282.636 479.257 273.516 476.299 272.928C473.341 272.34 472.403 281.222 469.938 291.216C468.729 296.222 462.463 301.306 461.43 308.202C460.603 313.763 465.04 320.548 464.308 327.031C463.656 332.83 457.82 338.407 457.247 344.715C456.722 350.642 461.461 357.173 460.984 363.385C460.507 369.598 454.878 375.159 454.48 381.276C454.083 387.394 458.981 393.813 458.647 399.867C458.313 405.921 452.747 411.911 452.461 417.869C452.158 424.225 457.136 430.581 456.897 436.38C456.627 442.863 451.141 448.805 450.934 454.462C450.695 461.342 455.705 467.698 455.593 472.925C455.259 484.286 450.043 481.934 449.853 491.087L451.3 491.118Z" fill="#F16667" fill-opacity="0.6"/>
<path d="M475.059 291.089V488.56" stroke="#263238" stroke-width="0.75" stroke-miterlimit="10"/>
<path d="M483.694 311.793L474.693 319.563L467.314 309.743" stroke="#263238" stroke-width="0.75" stroke-miterlimit="10"/>
<path d="M483.694 346.161L474.693 353.931L467.314 344.111" stroke="#263238" stroke-width="0.75" stroke-miterlimit="10"/>
<path d="M483.694 378.48L474.693 386.266L467.314 376.446" stroke="#263238" stroke-width="0.75" stroke-miterlimit="10"/>
<path d="M483.694 416.947L474.693 424.733L467.314 414.914" stroke="#263238" stroke-width="0.75" stroke-miterlimit="10"/>
<path d="M483.694 455.828L474.693 463.598L467.314 453.779" stroke="#263238" stroke-width="0.75" stroke-miterlimit="10"/>
<path d="M413.563 491.118H456.293C455.466 485.891 452.111 486.812 451.666 478.725C451.443 474.657 455.212 469.604 454.846 464.265C454.576 459.848 450.218 455.336 449.884 450.283C449.582 445.739 453.288 440.749 452.938 435.776C452.588 431.136 448.167 426.688 447.785 421.873C447.404 417.059 451.045 412.069 450.616 407.319C450.187 402.568 445.702 398.198 445.225 393.511C444.748 388.824 448.246 383.501 447.706 378.893C447.149 373.999 442.522 369.772 441.901 365.26C441.202 360.239 444.462 354.884 443.698 350.547C442.76 345.224 437.814 341.394 436.781 337.47C434.841 330.177 435.079 323.169 432.789 322.677C430.499 322.184 429.784 329.033 427.939 336.802C427.001 340.663 422.166 344.588 421.371 349.911C420.719 354.217 424.154 359.444 423.581 364.45C423.088 368.914 418.572 373.22 418.143 378.098C417.729 382.674 421.323 387.632 421.021 392.51C420.719 397.388 416.25 401.598 415.996 406.318C415.741 411.037 419.463 415.994 419.176 420.618C418.89 425.242 414.628 429.913 414.406 434.521C414.167 439.383 418.016 444.293 417.825 448.821C417.618 453.826 413.388 458.355 413.229 462.788C413.038 468.095 416.95 472.989 416.823 477.088C416.568 485.875 412.545 484.048 412.402 491.118H413.563Z" fill="#F16667" fill-opacity="0.6"/>
<path d="M431.93 336.707V489.148" stroke="#263238" stroke-width="0.75" stroke-miterlimit="10"/>
<path d="M438.61 352.692L431.644 358.682L425.967 351.103" stroke="#263238" stroke-width="0.75" stroke-miterlimit="10"/>
<path d="M438.61 379.227L431.644 385.217L425.967 377.638" stroke="#263238" stroke-width="0.75" stroke-miterlimit="10"/>
<path d="M438.61 404.173L431.644 410.179L425.967 402.6" stroke="#263238" stroke-width="0.75" stroke-miterlimit="10"/>
<path d="M438.61 433.869L431.644 439.876L425.967 432.296" stroke="#263238" stroke-width="0.75" stroke-miterlimit="10"/>
<path d="M438.61 463.884L431.644 469.875L425.967 462.295" stroke="#263238" stroke-width="0.75" stroke-miterlimit="10"/>
<path d="M259.306 271.879C259.306 271.879 261.294 300.083 262.487 312.794C263.68 325.505 265.27 336.628 265.667 344.572C265.881 354.525 263.555 364.367 258.909 373.173C253.74 383.104 250.56 397.007 252.945 409.321C255.331 421.635 256.126 437.127 254.535 442.291C252.945 447.455 241.018 455.4 242.608 461.358C244.199 467.316 250.56 467.316 253.74 474.467C256.921 481.617 269.245 492.739 272.426 490.356C275.607 487.972 270.438 480.028 268.45 470.097C266.462 460.166 266.065 439.908 267.655 432.36C269.245 424.813 281.968 377.543 284.353 369.201C286.738 360.859 294.69 343.778 295.485 315.972C296.28 288.166 296.28 273.071 296.28 273.071L259.306 271.879Z" fill="white" stroke="#263238" stroke-linecap="round" stroke-linejoin="round"/>
<path d="M327.497 89.9482C328.858 89.6621 330.107 88.9873 331.093 88.0058C332.078 87.0243 332.757 85.7783 333.047 84.4188C333.763 79.8427 328.944 67.5604 321.915 60.0925C314.886 52.6245 299.254 51.6553 287.2 57.2006C275.145 62.746 273.698 71.4056 269.373 79.6044C265.047 87.8032 246.107 153.457 238.156 166.995C230.204 180.533 206.35 201.602 214.302 225.388C220.663 244.455 235.818 246.044 246.425 246.044C257.032 246.044 263.298 234.715 266.431 227.263C269.564 219.811 276.068 195.23 276.068 183.186C276.068 171.142 278.23 146.816 283.542 136.472C288.853 126.128 303.548 100.101 306.68 96.7488C309.813 93.3962 323.792 87.1041 323.792 87.1041L327.497 89.9482Z" fill="#37474F" stroke="#263238" stroke-linecap="round" stroke-linejoin="round"/>
<path d="M301.226 94.7627C301.226 94.7627 269.42 108.396 254.647 135.836C239.873 163.277 224.432 224.895 226.276 241.086" stroke="#263238" stroke-linecap="round" stroke-linejoin="round"/>
<path d="M272.649 113.798C272.649 113.798 232.129 192.958 240.684 245.122" stroke="#263238" stroke-linecap="round" stroke-linejoin="round"/>
<path d="M256.444 117.357C262.332 106.416 271.666 97.721 283.001 92.6175C302.355 83.6242 323.521 76.8713 323.521 67.4331" stroke="#263238" stroke-linecap="round" stroke-linejoin="round"/>
<path d="M290.857 113.798L282.906 128.479L301.226 130.895L305.329 119.82L290.857 113.798Z" fill="white" stroke="#263238" stroke-linecap="round" stroke-linejoin="round"/>
<path d="M326.288 79.1118C326.288 79.1118 328.467 86.8181 327.735 91.6325C327.004 96.4469 326.05 100.07 326.288 101.516C326.527 102.962 329.183 104.884 327.497 106.282C326.253 107.273 324.878 108.085 323.41 108.698C323.41 108.698 319.307 117.119 317.144 120.487C316.019 122.116 314.501 123.434 312.73 124.32C310.959 125.206 308.993 125.631 307.014 125.556C302.911 125.556 290.857 113.75 290.857 113.75L301.226 94.6832C301.226 94.6832 321.231 86.1031 326.288 79.1118Z" fill="white" stroke="#263238" stroke-linecap="round" stroke-linejoin="round"/>
<path d="M322.917 97.1777L322.44 100.546C321.851 100.623 321.252 100.553 320.697 100.342C320.142 100.132 319.648 99.7868 319.259 99.3387" stroke="#263238" stroke-linecap="round" stroke-linejoin="round"/>
<path d="M316.89 111.621C315.911 111.386 314.995 110.942 314.204 110.32C313.413 109.697 312.767 108.91 312.31 108.014" stroke="#263238" stroke-linecap="round" stroke-linejoin="round"/>
<path d="M318.83 93.8095C318.83 93.8095 320.993 89.9485 323.41 91.3944" stroke="#263238" stroke-linecap="round" stroke-linejoin="round"/>
<path d="M269.421 171.841C269.421 171.841 262.423 174.241 256.873 184.553C251.323 194.865 260.261 199.727 266.272 197.55C272.283 195.373 282.429 177.609 269.421 171.841Z" fill="white" stroke="#263238" stroke-linecap="round" stroke-linejoin="round"/>
<path d="M257.334 271.212C257.334 271.212 259.847 296.985 263.854 313.255C266.125 322.647 269.031 331.873 272.553 340.871C272.553 340.871 250.83 332.926 231.047 330.034C215.033 327.683 189.7 316.02 186.949 315.511C184.198 315.003 180.445 302.244 178.187 300.75C175.929 299.257 166.164 299.495 157.402 301.751C148.64 304.008 137.603 305.994 134.343 308.25C131.083 310.506 132.594 312.508 135.933 313.017C143.556 314.191 151.023 316.211 158.197 319.039C167.214 322.789 197.016 333.546 203.027 336.056C209.038 338.567 246.123 356.077 257.382 361.336C268.641 366.595 284.687 375.843 291.7 374.588C298.713 373.332 302.482 360.287 301.973 353.566C301.464 346.845 299.969 276.98 300.224 274.74C300.478 272.499 257.334 271.212 257.334 271.212Z" fill="white" stroke="#263238" stroke-linecap="round" stroke-linejoin="round"/>
<path d="M272.553 340.871C272.553 340.871 280.505 342.984 282.636 350.404" stroke="#263238" stroke-linecap="round" stroke-linejoin="round"/>
<path d="M273.507 129.926C273.507 129.926 267.003 142.208 267.719 154.729C268.434 167.249 269.897 191.099 268.212 200.013C266.526 208.927 260.976 219.525 259.767 221.924C258.559 224.323 248.636 232.284 248.206 244.089C247.777 255.895 253.74 269.369 253.74 269.369V274.914C260.941 277.045 268.415 278.116 275.925 278.092C283.69 278.068 291.436 277.324 299.063 275.868L307.491 220.001L311.785 185.315C311.785 185.315 321.184 162.197 319.975 154.252C318.766 146.307 314.202 134.263 307.253 129.926C300.303 125.588 281.713 119.82 273.507 129.926Z" fill="white" stroke="#263238" stroke-linecap="round" stroke-linejoin="round"/>
<path d="M273.507 129.925C273.507 129.925 267.003 142.208 267.719 154.728C268.037 160.21 268.498 167.837 268.768 175.384C278.628 172.81 290.587 167.265 293.115 155.364C295.085 145.001 294.178 134.296 290.491 124.412C284.067 123.84 277.531 124.968 273.507 129.925Z" fill="white" stroke="#263238" stroke-linecap="round" stroke-linejoin="round"/>
<path d="M275.925 278.044C283.688 278.036 291.434 277.307 299.063 275.867L305.869 230.822C282.015 234.365 266.113 224.831 260.467 220.525C260.181 221.129 259.926 221.606 259.767 221.924C258.559 224.339 248.636 232.283 248.206 244.089C247.777 255.895 253.74 269.369 253.74 269.369V274.914C260.944 277.029 268.417 278.083 275.925 278.044Z" fill="#263238" stroke="#263238" stroke-linecap="round" stroke-linejoin="round"/>
<path d="M376.191 128.241C378.012 128.294 379.799 128.749 381.424 129.573C383.049 130.397 384.471 131.57 385.589 133.008C388.961 137.775 388.77 145.719 383.665 147.467C378.56 149.215 374.744 149.39 369.687 144.575C364.63 139.761 368.096 130.99 370.879 129.401C372.486 128.473 374.343 128.067 376.191 128.241Z" fill="white" stroke="#263238" stroke-linecap="round" stroke-linejoin="round"/>
<path d="M355.215 85.1339C355.215 85.1339 351.128 79.8428 353.768 76.2201C356.408 72.5974 367.031 68.7681 372.581 70.214C378.131 71.6599 392.094 84.4189 395.465 97.6546C398.836 110.89 391.855 116.452 385.589 119.582C379.956 122.4 374.163 124.888 368.24 127.034C367.508 127.034 360.288 122.712 357.871 117.897C355.454 113.083 354.5 104.646 355.947 103.2C357.394 101.754 361.004 99.8314 359.127 96.7013C357.251 93.5711 354.357 91.3943 355.502 89.2334C355.838 88.5904 355.989 87.8669 355.938 87.1432C355.888 86.4196 355.637 85.7241 355.215 85.1339Z" fill="#263238" stroke="#263238" stroke-linecap="round" stroke-linejoin="round"/>
<path d="M325.302 469.033C325.302 469.033 320.802 497.109 318.671 500.017C316.54 502.924 295.358 509.296 291.636 511.139C287.915 512.982 288.456 516.446 292.432 516.7C296.407 516.955 320.261 518.035 327.163 518.035C334.065 518.035 343.59 521.213 345.705 519.084C347.821 516.955 344.386 505.054 343.59 494.726C343.24 486.243 343.506 477.747 344.386 469.303L325.302 469.033Z" fill="white" stroke="#263238" stroke-linecap="round" stroke-linejoin="round"/>
<path d="M322.647 503.465C322.294 502.621 321.763 501.864 321.091 501.244C320.418 500.625 319.62 500.157 318.75 499.874C318.734 499.926 318.707 499.975 318.671 500.017C316.556 502.94 295.358 509.296 291.636 511.139C287.915 512.982 288.456 516.446 292.432 516.7C296.407 516.954 320.261 518.035 327.163 518.035C334.065 518.035 343.59 521.213 345.705 519.084C346.994 517.797 346.23 512.903 345.26 506.944C341.173 508.088 336.816 509.55 333.778 509.55C326.622 509.55 325.032 508.231 322.647 503.465Z" fill="#263238" stroke="#263238" stroke-linecap="round" stroke-linejoin="round"/>
<path d="M289.601 512.807C288.44 514.571 289.49 516.509 292.432 516.7C296.407 516.97 320.261 518.035 327.163 518.035C334.065 518.035 343.59 521.212 345.705 519.083C346.296 518.165 346.533 517.064 346.373 515.985C336.689 515.985 321.374 515.556 310.72 515.381C303.6 515.407 296.505 514.542 289.601 512.807Z" fill="#F16667" stroke="#263238" stroke-linecap="round" stroke-linejoin="round"/>
<path d="M308.7 362.321C308.7 362.321 315.204 391.954 317.86 402.298C320.516 412.642 322.631 450.951 323.41 462.025C324.189 473.1 322.678 495.504 321.724 498.872C320.77 502.241 303.404 512.839 297.616 515.254C291.827 517.669 287.724 519.592 288.217 522.229C288.71 524.867 307.984 528.982 319.546 528.49C331.107 527.997 337.627 524.406 343.161 523.914C348.695 523.421 350.635 521.753 350.635 515.016C350.635 508.279 345.578 503.893 345.101 487.559C344.839 473.005 345.481 458.449 347.025 443.975C347.996 434.823 352.814 426.147 347.741 408.081C342.668 390.015 338.581 386.647 338.104 381.07C337.627 375.493 335.941 359.397 335.941 359.397L308.7 362.321Z" fill="white" stroke="#263238" stroke-linecap="round" stroke-linejoin="round"/>
<path d="M299.54 278.998C299.54 278.998 298.093 314.399 299.063 327.889C300.033 341.379 305.329 359.921 305.329 359.921C305.329 359.921 322.44 361.606 331.6 358.952C340.76 356.299 343.161 353.899 343.161 353.899L342.684 304.77C342.684 304.77 350.874 293.934 354.007 286.227C355.887 281.739 356.713 276.88 356.424 272.022C351.36 263.992 343.957 257.704 335.21 254.004C320.754 247.934 305.329 264.078 299.54 278.998Z" fill="#263238" stroke="#263238" stroke-linecap="round" stroke-linejoin="round"/>
<path d="M321.231 276.106C321.231 276.106 316.89 308.869 318.337 330.781" stroke="white" stroke-linecap="round" stroke-linejoin="round"/>
<path d="M301.226 263.824L298.332 284.48L331.361 267.621L367.747 286.402C367.747 286.402 359.557 260.884 358.841 258.946C358.126 257.007 349.952 244.804 337.229 244.328C324.507 243.851 301.226 263.824 301.226 263.824Z" fill="white" stroke="#263238" stroke-linecap="round" stroke-linejoin="round"/>
<path d="M325.811 150.883C325.811 150.883 271.583 176.163 263.87 183.154C256.157 190.146 251.578 204.112 254.71 208.927C257.843 213.741 262.9 212.534 270.374 210.849C277.849 209.165 296.169 198.567 303.881 196.152C311.594 193.737 308.938 193.991 308.938 193.991C308.938 193.991 301.957 246.25 301.226 260.217C300.494 274.184 300.271 271.53 300.271 271.53C300.271 271.53 326.097 254.004 333.763 252.749C341.428 251.494 363.421 268.162 363.421 268.162C363.421 268.162 360.765 254.672 359.08 246.727C358.012 241.657 357.447 236.495 357.394 231.315C357.394 230.6 371.372 192.545 371.372 192.545C371.372 192.545 370.402 206.035 374.012 204.827C377.622 203.62 391.855 174.241 392.586 167.742C393.318 161.243 373.503 146.784 373.503 146.784C373.011 145.959 372.347 145.248 371.557 144.7C370.768 144.152 369.869 143.779 368.923 143.606C365.854 143.177 329.437 148.23 325.811 150.883Z" fill="#37474F" stroke="#263238" stroke-linecap="round" stroke-linejoin="round"/>
<path d="M371.372 192.545C371.372 192.545 369.687 165.327 365.584 154.729" stroke="#263238" stroke-linecap="round" stroke-linejoin="round"/>
<path d="M308.938 193.991L357.394 176.163" stroke="#263238" stroke-linecap="round" stroke-linejoin="round"/>
<path d="M330.391 186.761C333.603 192.018 338.081 196.387 343.416 199.473" stroke="#263238" stroke-linecap="round" stroke-linejoin="round"/>
<path d="M328.467 187.27C328.467 187.27 338.836 226.277 349.681 234.937" stroke="#263238" stroke-linecap="round" stroke-linejoin="round"/>
<path d="M325.573 188.207C325.573 188.207 327.99 217.824 333.524 229.63" stroke="#263238" stroke-linecap="round" stroke-linejoin="round"/>
<path d="M360.034 81.0503C360.034 81.0503 347.503 87.3106 345.34 89.9483C343.177 92.5859 342.446 95.4936 339.313 97.6545C336.18 99.8154 331.838 100.308 332.809 101.992C334.091 103.724 335.545 105.321 337.15 106.759C337.15 106.759 333.969 116.88 332.379 120.726C330.789 124.571 331.186 127.717 333.826 128.194C336.466 128.67 348.298 128.194 348.298 128.194L345.403 145.783L367.27 139.602L369.035 125.302L361.974 115.768C361.974 115.768 369.432 113.846 370.88 110.477C371.218 109.876 371.377 109.19 371.338 108.502C371.298 107.813 371.062 107.15 370.657 106.592C370.252 106.033 369.695 105.602 369.052 105.35C368.41 105.098 367.708 105.036 367.031 105.17C364.375 105.663 358.841 108.793 358.841 108.062C358.841 107.331 363.898 100.594 363.898 98.6714C363.898 96.7488 358.11 92.1727 359.557 91.2035C361.004 90.2342 368.001 88.3117 368.24 85.1815C368.478 82.0513 360.034 81.0503 360.034 81.0503Z" fill="white" stroke="#263238" stroke-linecap="round" stroke-linejoin="round"/>
<path d="M347.2 97.3846C346.723 98.5445 345.976 99.3549 345.61 99.1801C345.244 99.0053 345.228 97.9089 345.706 96.7331C346.183 95.5573 346.93 94.7629 347.296 94.9377C347.662 95.1124 347.677 96.2088 347.2 97.3846Z" fill="#263238"/>
<path d="M347.741 90.4407C347.741 90.4407 351.128 88.0255 352.082 93.0783" stroke="#263238" stroke-linecap="round" stroke-linejoin="round"/>
<path d="M339.313 111.875C340.42 112.489 341.665 112.811 342.931 112.811C344.196 112.811 345.441 112.489 346.548 111.875" stroke="#263238" stroke-linecap="round" stroke-linejoin="round"/>
<path d="M270.263 142.78C270.263 142.78 267.973 127.812 279.057 123.951C290.141 120.09 307.253 122.267 324.364 127.129C341.475 131.991 354.261 128.336 361.481 128.575C368.701 128.813 379.562 130.752 379.562 135.804C379.436 137.734 378.898 139.614 377.985 141.318C377.072 143.023 375.804 144.513 374.267 145.687C373.058 146.402 369.925 143.749 369.925 143.749C369.925 143.749 338.502 150.216 320.993 151.948C297.568 154.252 287.359 156.873 277.881 151.709" fill="white"/>
<path d="M270.263 142.78C270.263 142.78 267.973 127.812 279.057 123.951C290.141 120.09 307.253 122.267 324.364 127.129C341.475 131.991 354.261 128.336 361.481 128.575C368.701 128.813 379.562 130.752 379.562 135.804C379.436 137.734 378.898 139.614 377.985 141.318C377.072 143.023 375.804 144.513 374.267 145.687C373.058 146.402 369.925 143.749 369.925 143.749C369.925 143.749 338.502 150.216 320.993 151.948C297.568 154.252 287.359 156.873 277.881 151.709" stroke="#263238" stroke-linecap="round" stroke-linejoin="round"/>
<path d="M359.795 121.504C359.795 121.504 354.007 128.972 354.007 131.61C354.007 134.247 356.662 133.055 358.11 132.102C359.557 131.149 365.584 123.665 364.614 122.219C363.644 120.773 361.974 119.327 359.795 121.504Z" fill="white" stroke="#263238" stroke-linecap="round" stroke-linejoin="round"/>
<path d="M369.194 124.396C369.194 124.396 363.421 131.864 363.421 134.502C363.421 137.139 366.061 135.948 367.508 134.994C368.955 134.041 374.982 126.557 374.012 125.111C373.042 123.665 371.372 122.219 369.194 124.396Z" fill="white" stroke="#263238" stroke-linecap="round" stroke-linejoin="round"/>
<path d="M373.631 127.86C373.631 127.86 369.194 133.58 369.194 135.614C369.194 137.648 371.229 136.71 372.374 135.979C373.519 135.248 378.083 129.528 377.352 128.416C376.62 127.304 375.285 126.207 373.631 127.86Z" fill="white" stroke="#263238" stroke-linecap="round" stroke-linejoin="round"/>
<path d="M364.614 122.219C364.614 122.219 357.632 132.579 358.11 134.263C358.587 135.948 361.719 133.787 365.584 129.926C369.448 126.064 370.402 118.374 364.614 122.219Z" fill="white" stroke="#263238" stroke-linecap="round" stroke-linejoin="round"/>
<path d="M274.366 168.759C274.366 168.759 281.347 175.115 281.809 177.736C282.27 180.358 279.439 179.611 277.849 178.912C276.259 178.213 269.039 171.889 269.739 170.3C270.438 168.711 271.854 166.995 274.366 168.759Z" fill="white" stroke="#263238" stroke-linecap="round" stroke-linejoin="round"/>
<path d="M265.667 173.224C265.667 173.224 272.649 179.579 273.11 182.185C273.571 184.791 270.74 184.076 269.15 183.377C267.56 182.678 260.34 176.354 261.04 174.765C261.74 173.176 263.091 171.46 265.667 173.224Z" fill="white" stroke="#263238" stroke-linecap="round" stroke-linejoin="round"/>
<path d="M261.835 177.402C261.835 177.402 267.178 182.265 267.528 184.267C267.878 186.269 265.731 185.713 264.507 185.172C263.282 184.632 257.764 179.802 258.304 178.578C258.845 177.355 259.927 176.052 261.835 177.402Z" fill="white" stroke="#263238" stroke-linecap="round" stroke-linejoin="round"/>
<path d="M269.738 170.3C269.738 170.3 278.405 179.293 278.231 181.041C278.056 182.789 274.573 181.184 270.12 178.054C265.667 174.924 263.377 167.488 269.738 170.3Z" fill="white" stroke="#263238" stroke-linecap="round" stroke-linejoin="round"/>
<path d="M301.464 348.847C301.464 348.847 301.703 360.398 303.404 362.575C305.106 364.752 315.697 364.736 325.096 364.498C334.494 364.259 342.446 363.29 343.654 360.875C344.863 358.46 345.34 346.67 343.893 345.955C342.446 345.24 327.736 348.116 317.144 348.116C306.553 348.116 301.464 345.955 301.464 348.847Z" fill="white" stroke="#263238" stroke-linecap="round" stroke-linejoin="round"/>
<path d="M319.546 528.49C331.123 528.013 337.627 524.407 343.161 523.914C348.695 523.421 350.635 521.753 350.635 515.016C350.635 511.838 349.57 509.296 348.361 505.816C340.712 509.089 329.914 509.471 329.914 509.471C330.154 506.479 329.571 503.48 328.228 500.795C326.05 497.188 321.963 499.842 321.963 499.842L321.263 499.715C318.321 503.719 302.991 513.014 297.616 515.254C291.827 517.654 287.724 519.592 288.217 522.23C288.71 524.867 307.984 528.983 319.546 528.49Z" fill="#263238" stroke="#263238" stroke-linecap="round" stroke-linejoin="round"/>
<path d="M350.492 517.765C343.861 519.354 327.401 525.9 311.117 524.39C297.854 523.151 291.35 521.133 288.853 520.148C288.605 520.425 288.421 520.755 288.317 521.112C288.212 521.47 288.189 521.846 288.249 522.214C288.726 524.867 308.016 528.967 319.577 528.474C331.139 527.981 337.659 524.39 343.193 523.898C347.852 523.517 349.951 522.23 350.492 517.765Z" fill="#F16667" stroke="#263238" stroke-linecap="round" stroke-linejoin="round"/>
<path d="M168.486 323.043C168.942 321.834 169.174 320.552 169.17 319.261C169.17 316.258 182.194 313.509 183.705 313.509H184.93C182.56 309.743 179.92 301.91 178.187 300.798C175.929 299.288 166.164 299.542 157.402 301.799C148.64 304.055 137.603 306.041 134.343 308.297C131.083 310.554 132.594 312.556 135.933 313.064C143.556 314.239 151.023 316.258 158.197 319.086C160.471 319.976 164.177 321.406 168.486 323.043Z" fill="#263238" stroke="#263238" stroke-linecap="round" stroke-linejoin="round"/>
<path d="M180.556 304.5C180.022 303.106 179.217 301.831 178.187 300.75C175.929 299.241 166.164 299.495 157.402 301.751C148.64 304.008 137.603 305.994 134.343 308.25C131.592 310.173 132.26 311.889 134.518 312.683C135.44 311.587 137.508 310.077 142.119 308.25C151.025 304.739 171.842 303.42 180.556 304.5Z" fill="#F16667" stroke="#263238" stroke-linecap="round" stroke-linejoin="round"/>
<path d="M268.45 470.097C267.455 464.348 266.897 458.532 266.781 452.698C266.681 452.651 266.573 452.624 266.462 452.619C262.487 452.619 260.101 456.591 260.101 456.591L252.246 446.025C248.365 450.792 241.368 456.702 242.608 461.358C244.199 467.316 250.56 467.316 253.74 474.467C256.921 481.617 269.245 492.739 272.426 490.356C275.607 487.972 270.438 480.028 268.45 470.097Z" fill="#263238" stroke="#263238" stroke-linecap="round" stroke-linejoin="round"/>
<path d="M272.426 490.356C272.732 490.118 272.973 489.807 273.126 489.45C258.813 481.315 257.557 471.082 255.331 468.111C253.661 465.887 247.173 460.167 243.388 456.989C242.593 458.31 242.316 459.877 242.608 461.39C244.199 467.349 250.56 467.349 253.74 474.499C256.921 481.649 269.245 492.739 272.426 490.356Z" fill="#F16667" stroke="#263238" stroke-linecap="round" stroke-linejoin="round"/>
</svg>
