<svg xmlns="http://www.w3.org/2000/svg" version="1.1" xmlns:xlink="http://www.w3.org/1999/xlink" width="512" height="512" x="0" y="0" viewBox="0 0 512 512" style="enable-background:new 0 0 512 512" xml:space="preserve" class=""><g><circle cx="186.182" cy="186.182" r="23.273" fill="#f16667" opacity="1" data-original="#000000" class=""></circle><path d="M162.909 221.091h46.545v128h-46.545z" fill="#f16667" opacity="1" data-original="#000000" class=""></path><path d="M256 0C114.615 0 0 114.615 0 256s114.615 256 256 256 256-114.615 256-256S397.385 0 256 0zm0 488.727C127.468 488.727 23.273 384.532 23.273 256S127.468 23.273 256 23.273 488.727 127.468 488.727 256 384.532 488.727 256 488.727z" fill="#f16667" opacity="1" data-original="#000000" class=""></path><path d="M318.371 221.091c-34.909 0-39.098 20.713-39.098 20.713v-20.713h-46.545v128h46.545v-69.818s0-23.273 19.782-23.273c11.636 0 15.127 10.356 15.127 23.273v69.818h46.545v-69.818c0-36.422-15.825-58.182-42.356-58.182z" fill="#f16667" opacity="1" data-original="#000000" class=""></path></g></svg>