<svg width="22" height="22" viewBox="0 0 22 22" fill="none" xmlns="http://www.w3.org/2000/svg">
<path d="M17.4167 10.083H4.58333C3.57081 10.083 2.75 10.9038 2.75 11.9163V18.333C2.75 19.3455 3.57081 20.1663 4.58333 20.1663H17.4167C18.4292 20.1663 19.25 19.3455 19.25 18.333V11.9163C19.25 10.9038 18.4292 10.083 17.4167 10.083Z" stroke="white" stroke-width="2" stroke-linecap="round" stroke-linejoin="round"/>
<path d="M6.4165 10.083V6.41634C6.4165 5.20077 6.89939 4.03498 7.75893 3.17544C8.61847 2.31589 9.78426 1.83301 10.9998 1.83301C12.2154 1.83301 13.3812 2.31589 14.2407 3.17544C15.1003 4.03498 15.5832 5.20077 15.5832 6.41634V10.083" stroke="white" stroke-width="2" stroke-linecap="round" stroke-linejoin="round"/>
</svg>
