<svg width="55" height="65" viewBox="0 0 55 65" fill="none" xmlns="http://www.w3.org/2000/svg">
<path d="M26.4299 59.6614C26.6973 59.9818 26.9677 60.2992 27.2797 60.6705C27.3777 60.7873 27.3718 60.9699 27.2648 61.0777C25.4346 62.9253 23.3193 64.2368 20.7701 64.7159C15.9926 65.6172 12.0025 63.9344 8.60362 60.6525C3.69247 55.9124 1.17302 50.0374 0.638227 43.2431C0.038074 35.6193 2.42383 29.0377 7.41223 23.3573C8.31246 22.3302 8.31246 22.3452 9.35233 23.2405C10.3476 24.0969 11.3311 24.9713 12.7512 25.0222C14.3734 25.0821 15.4638 24.2077 16.3402 22.974C18.2685 20.2551 19.1865 17.111 19.9471 13.9249C20.9424 9.75972 21.7089 5.66638 21.8634 1.37241C21.8634 1.33648 21.8694 1.28857 21.8783 1.22868C21.905 1.01907 22.0922 0.908279 22.2853 0.986133C27.8858 3.25589 32.1225 7.18454 35.6878 11.9516C39.155 16.5899 41.7814 21.6385 43.1778 27.4267C43.2639 27.789 43.4986 27.8339 43.7096 27.5285C43.8938 27.262 44.0721 26.9925 44.2266 26.711C44.8713 25.5282 45.4744 24.3245 46.1072 23.1357C46.4905 22.417 46.9183 22.3572 47.4888 22.998C51.8117 27.8579 54.4202 33.4005 54.5777 40.054C54.6847 44.5606 54.0221 48.8726 52.0999 52.9389C49.7408 57.9216 46.4459 62.0479 41.1872 64.147C36.4929 66.0215 31.1866 64.6231 27.9808 61.0268C27.8917 60.925 27.8858 60.7543 27.966 60.6465C28.1145 60.4489 28.2661 60.2483 28.4176 60.0476C28.4235 60.0387 28.4354 60.0267 28.4443 60.0177C28.8306 59.6254 29.2198 59.2362 29.606 58.8439C33.2366 55.1877 36.8643 51.5346 40.4949 47.8784C40.5187 47.8335 40.5543 47.7676 40.5751 47.7227L40.9643 45.7194C40.9643 45.7165 40.9673 45.7075 40.9673 45.7045L41.4219 43.8719C41.4219 43.83 41.4219 43.7671 41.4219 43.7252C41.1604 42.7011 40.899 41.68 40.6375 40.6559C40.6286 40.635 40.6167 40.602 40.6078 40.5811L39.7016 38.9821C39.6868 38.9641 39.666 38.9341 39.6511 38.9162C39.1906 38.458 38.7301 37.9999 38.2696 37.5417L38.2755 37.5477C36.7276 36.2003 34.9123 36.0266 32.9663 36.4338C32.9574 36.4368 32.9455 36.4398 32.9395 36.4398L30.738 37.0866C30.7142 37.0986 30.6756 37.1165 30.6518 37.1285C29.6951 37.7993 28.7385 38.47 27.7818 39.1437C27.6689 39.1437 27.556 39.1437 27.4431 39.1437C26.635 38.5838 25.8298 38.0209 25.0217 37.4609C25.0068 37.4519 24.986 37.4399 24.9712 37.4339L23.4619 36.7752C23.447 36.7692 23.4262 36.7632 23.4114 36.7572C22.8855 36.6315 22.3626 36.5087 21.8367 36.3829C21.8189 36.3799 21.7892 36.3769 21.7684 36.3739L19.4272 36.3709C19.3856 36.3799 19.3262 36.3979 19.2846 36.4069L16.9047 37.7034L16.4769 37.934C16.4531 37.952 16.4175 37.9819 16.3967 37.9999L15.746 38.7365C15.7401 38.7425 15.7312 38.7545 15.7252 38.7635L15.3093 39.3563H15.3182C15.0805 39.7546 14.8428 40.1529 14.6052 40.5481C14.5962 40.5691 14.5814 40.602 14.5725 40.623C14.3645 41.3806 14.1565 42.1411 13.9485 42.8987C13.9456 42.9227 13.9396 42.9586 13.9367 42.9796L13.9456 44.0905C13.9456 44.1025 13.9485 44.1204 13.9485 44.1324L14.2249 46.0129C14.2338 46.0428 14.2486 46.0878 14.2605 46.1147L15.4489 48.2557C15.4727 48.3006 15.4905 48.3785 15.4846 48.4294L15.4757 48.5342C15.5113 48.615 15.5529 48.7138 15.5886 48.7947C16.6076 49.6062 17.4009 50.6482 18.319 51.5645C21.0137 54.2595 23.7144 56.9454 26.4121 59.6344C26.4151 59.6464 26.424 59.6554 26.4299 59.6614Z" fill="white"/>
</svg>
