<svg width="102" height="23" viewBox="0 0 102 23" fill="none" xmlns="http://www.w3.org/2000/svg">
<path d="M7.12329 18.7488C7.19688 18.8471 7.27129 18.9444 7.35715 19.0582C7.38413 19.094 7.3825 19.15 7.35306 19.1831C6.84937 19.7495 6.26718 20.1517 5.56561 20.2986C4.25078 20.5749 3.15264 20.0589 2.21721 19.0527C0.865583 17.5994 0.17219 15.7981 0.0250071 13.715C-0.140164 11.3776 0.516433 9.35966 1.88932 7.61807C2.13708 7.30317 2.13708 7.30776 2.42326 7.58226C2.69719 7.84483 2.96784 8.11291 3.35869 8.12852C3.80515 8.14688 4.10523 7.8788 4.34645 7.50056C4.87712 6.66694 5.12979 5.70296 5.33911 4.72613C5.61304 3.44908 5.824 2.19407 5.86652 0.877547C5.86652 0.86653 5.86815 0.851841 5.87061 0.833479C5.87797 0.769214 5.92948 0.735245 5.98263 0.759115C7.52396 1.45502 8.68997 2.65953 9.67119 4.12111C10.6254 5.54321 11.3482 7.09109 11.7326 8.86574C11.7563 8.97682 11.8209 8.99059 11.8789 8.89695C11.9296 8.81524 11.9787 8.73261 12.0212 8.64632C12.1986 8.28368 12.3646 7.91461 12.5388 7.55013C12.6443 7.32979 12.762 7.31143 12.919 7.5079C14.1087 8.99794 14.8267 10.6973 14.87 12.7373C14.8994 14.119 14.7171 15.441 14.1881 16.6878C13.5388 18.2154 12.632 19.4805 11.1847 20.1241C9.89278 20.6988 8.4324 20.2701 7.55012 19.1675C7.52559 19.1363 7.52396 19.0839 7.54603 19.0509C7.58692 18.9903 7.62862 18.9288 7.67032 18.8673C7.67196 18.8645 7.67523 18.8608 7.67768 18.8581C7.78398 18.7378 7.8911 18.6185 7.99739 18.4982C8.9966 17.3772 9.99499 16.2572 10.9942 15.1362C11.0007 15.1224 11.0105 15.1022 11.0163 15.0885L11.1234 14.4743C11.1234 14.4734 11.1242 14.4706 11.1242 14.4697L11.2493 13.9078C11.2493 13.895 11.2493 13.8757 11.2493 13.8628C11.1774 13.5488 11.1054 13.2358 11.0334 12.9218C11.031 12.9154 11.0277 12.9053 11.0253 12.8989L10.7759 12.4086C10.7718 12.4031 10.7661 12.3939 10.762 12.3884C10.6352 12.2479 10.5085 12.1075 10.3817 11.967L10.3834 11.9688C9.95737 11.5557 9.45777 11.5025 8.92219 11.6273C8.91974 11.6282 8.91647 11.6291 8.91483 11.6291L8.30893 11.8275C8.30239 11.8311 8.29176 11.8366 8.28522 11.8403C8.02192 12.046 7.75863 12.2516 7.49534 12.4582C7.46427 12.4582 7.43319 12.4582 7.40212 12.4582C7.17971 12.2865 6.95812 12.1139 6.73571 11.9422C6.73162 11.9395 6.7259 11.9358 6.72181 11.9339L6.30643 11.732C6.30234 11.7301 6.29662 11.7283 6.29253 11.7265C6.1478 11.6879 6.00389 11.6503 5.85916 11.6117C5.85425 11.6108 5.84608 11.6099 5.84035 11.609L5.19602 11.608C5.18457 11.6108 5.16822 11.6163 5.15677 11.619L4.50181 12.0166L4.38406 12.0873C4.37752 12.0928 4.36771 12.102 4.36198 12.1075L4.18291 12.3333C4.18128 12.3351 4.17882 12.3388 4.17719 12.3416L4.06271 12.5234H4.06517C3.99975 12.6455 3.93434 12.7676 3.86892 12.8888C3.86647 12.8952 3.86238 12.9053 3.85993 12.9117C3.80269 13.144 3.74545 13.3772 3.68822 13.6094C3.6874 13.6168 3.68576 13.6278 3.68495 13.6342L3.6874 13.9748C3.6874 13.9785 3.68822 13.984 3.68822 13.9877L3.76426 14.5642C3.76671 14.5734 3.7708 14.5872 3.77407 14.5955L4.10114 15.2519C4.10769 15.2657 4.11259 15.2895 4.11096 15.3051L4.1085 15.3373C4.11832 15.3621 4.12976 15.3923 4.13958 15.4171C4.42004 15.6659 4.63836 15.9854 4.89102 16.2664C5.63266 17.0926 6.37593 17.9161 7.11839 18.7406C7.1192 18.7442 7.12166 18.747 7.12329 18.7488Z" fill="#F16667"/>
<path d="M20.5769 15.5808C21.2834 16.1032 22.2875 16.4777 23.4009 16.4777C24.6086 16.4777 25.705 15.7479 25.705 14.3899C25.705 13.4718 25.1662 12.8457 23.9586 12.1159C22.5098 11.2402 21.4133 10.1339 21.4133 8.44377C21.4133 5.751 23.4951 4.08203 26.0216 4.08203C27.4157 4.08203 28.3257 4.45855 28.8098 4.79066L28.1033 6.79384C27.6945 6.54423 26.858 6.14656 25.8539 6.16771C24.4597 6.16771 23.6798 7.0646 23.6798 8.00379C23.6798 8.96413 24.3863 9.54795 25.5562 10.2777C27.0803 11.1746 27.9903 12.3021 27.9903 14.0133C27.9903 16.8309 25.9462 18.5612 23.1579 18.5612C21.6338 18.5401 20.3885 18.0599 19.8308 17.5797L20.5769 15.5808Z" fill="white"/>
<path d="M38.5854 8.19434L37.3966 15.2065C37.1931 16.4165 37.0612 17.4805 36.9501 18.3583H35.0171L35.2225 16.5857H35.1848C34.3106 17.8993 33.1784 18.5889 32.0442 18.5889C30.7254 18.5889 29.6836 17.7957 29.6836 15.71C29.6836 15.1685 29.7401 14.5825 29.8701 13.8951L30.8366 8.19856H32.9919L32.0631 13.7491C31.9707 14.2504 31.9142 14.7496 31.9142 15.1473C31.9142 15.9828 32.2119 16.5878 33.0672 16.5878C34.0714 16.5878 35.2225 15.2531 35.5955 13.1441L36.4113 8.19434H38.5854Z" fill="white"/>
<path d="M39.5897 20.1707C40.1096 20.5261 41.1138 20.7757 41.9691 20.7757C43.3821 20.7757 44.4597 20.0248 44.9062 17.6662L45.1286 16.5197H45.0909C44.3467 17.7297 43.3991 18.3135 42.248 18.3135C40.445 18.3135 39.4239 16.6445 39.4239 14.7239C39.405 11.3225 41.5791 7.96338 45.3339 7.96338C46.5039 7.96338 47.638 8.25529 48.4745 8.672L47.0992 17.0613C46.7638 19.0433 46.2627 20.6298 45.2416 21.5901C44.294 22.4658 43.0298 22.7176 41.8957 22.7176C40.7257 22.7176 39.6462 22.4468 39.0527 22.0301L39.5897 20.1707ZM46.1308 10.1146C45.8897 9.98983 45.4243 9.86503 44.9232 9.86503C43.0279 9.86503 41.6903 12.1601 41.6903 14.3516C41.6903 15.4156 42.0614 16.4182 43.1391 16.4182C44.2167 16.4182 45.2943 14.9777 45.6109 13.1416L46.1308 10.1146Z" fill="white"/>
<path d="M55.2193 18.3558C55.2193 17.7508 55.2928 16.9365 55.3682 16.0819H55.3305C54.4375 17.9391 53.2299 18.5864 52.0787 18.5864C50.4623 18.5864 49.4016 17.167 49.4016 15.1215C49.4016 11.6567 51.5569 7.96338 55.777 7.96338C56.7623 7.96338 57.8211 8.17279 58.5276 8.42239L57.5799 13.7233C57.32 15.2252 57.1711 17.1459 57.2088 18.3558H55.2193ZM56.0935 9.94753C55.8712 9.88407 55.5924 9.84387 55.2024 9.84387C53.2129 9.84387 51.653 12.3695 51.653 14.6858C51.653 15.7498 52.0053 16.6255 52.9548 16.6255C53.9778 16.6255 55.2043 15.2061 55.6319 12.6191L56.0935 9.94753Z" fill="white"/>
<path d="M59.3452 18.3558L60.404 12.0967C60.6452 10.6561 60.7752 9.09083 60.8694 8.19395H62.7458C62.6893 8.88353 62.6346 9.59215 62.5423 10.3219H62.5988C63.213 8.96603 64.1965 7.96338 65.4229 7.96338C65.5906 7.96338 65.7583 7.98453 65.9052 7.98453L65.4776 10.3642C65.3664 10.3431 65.2176 10.3431 65.0687 10.3431C63.5258 10.3431 62.5404 12.0967 62.1881 14.267L61.5005 18.3558H59.3452Z" fill="white"/>
<path d="M77.0019 12.0968H72.5049L71.7984 16.2914H76.8531L76.5008 18.358H69.272L71.6514 4.29346H78.6014L78.2491 6.3601H73.4732L72.8421 10.0534H77.358L77.0019 12.0968Z" fill="white"/>
<path d="M78.4146 18.356L80.924 3.54053H83.0981L80.5698 18.356H78.4146Z" fill="white"/>
<path d="M83.0422 18.3562L84.7698 8.19429H86.9251L85.1975 18.3562H83.0422ZM85.1052 5.44018C85.1052 4.58561 85.7005 3.97852 86.407 3.97852C87.0947 3.97852 87.56 4.50099 87.56 5.27307C87.5412 6.16996 86.9458 6.73474 86.2035 6.73474C85.5517 6.73474 85.1052 6.21227 85.1052 5.44018Z" fill="white"/>
<path d="M92.2602 5.58594L91.8325 8.19409H93.8578L93.5224 10.0725H91.499L90.7926 14.1613C90.7002 14.6415 90.6249 15.164 90.6249 15.6018C90.6249 16.1645 90.8472 16.5199 91.4237 16.5199C91.6837 16.5199 91.9437 16.4987 92.1679 16.4564L91.9644 18.356C91.6479 18.5019 91.0714 18.5654 90.5514 18.5654C89.0649 18.5654 88.415 17.6473 88.415 16.4797C88.415 15.917 88.4715 15.3522 88.6015 14.6013L89.3815 10.0725H88.1738L88.4903 8.19409H89.698L90.0333 6.29456L92.2602 5.58594Z" fill="white"/>
<path d="M100.866 17.772C99.9726 18.2945 98.765 18.5864 97.6685 18.5864C95.159 18.5864 93.9514 16.854 93.9514 14.3706C93.9514 11.3034 95.9578 7.96338 99.0815 7.96338C100.866 7.96338 102 9.11199 102 10.8211C102 13.4293 99.5657 14.2648 96.0709 14.1802C96.0332 14.5356 96.1086 15.2231 96.312 15.6207C96.6643 16.3082 97.3162 16.6636 98.1696 16.6636C99.1926 16.6636 100.01 16.3717 100.66 15.9952L100.866 17.772ZM98.8027 9.78042C97.4462 9.78042 96.5532 11.1363 96.2932 12.3674C98.5238 12.3886 99.9538 12.0544 99.9538 10.8233C99.9556 10.176 99.4903 9.78042 98.8027 9.78042Z" fill="white"/>
</svg>
