<svg width="217" height="43" viewBox="0 0 217 43" fill="none" xmlns="http://www.w3.org/2000/svg">
<path d="M15.6452 35.1343C15.8068 35.326 15.9702 35.516 16.1588 35.7383C16.2181 35.8082 16.2145 35.9175 16.1498 35.982C15.0435 37.0878 13.7649 37.8728 12.224 38.1596C9.33616 38.6991 6.92426 37.6918 4.86975 35.7275C1.90111 32.8904 0.378187 29.3739 0.0549241 25.3073C-0.307849 20.7442 1.13426 16.8048 4.14959 13.4049C4.69375 12.7902 4.69375 12.7991 5.32231 13.335C5.92394 13.8476 6.51839 14.3709 7.37683 14.4014C8.35739 14.4372 9.01649 13.9139 9.54628 13.1755C10.7118 11.5481 11.2668 9.66625 11.7265 7.75929C12.3281 5.26625 12.7915 2.81624 12.8849 0.246136C12.8849 0.224629 12.8885 0.195953 12.8939 0.160108C12.91 0.0346494 13.0232 -0.0316642 13.1399 0.0149345C16.5252 1.37347 19.0861 3.72491 21.2412 6.57819C23.337 9.3544 24.9246 12.3761 25.7687 15.8406C25.8208 16.0574 25.9626 16.0843 26.0902 15.9015C26.2015 15.742 26.3093 15.5807 26.4026 15.4122C26.7924 14.7043 27.1569 13.9838 27.5395 13.2723C27.7711 12.8421 28.0297 12.8063 28.3745 13.1898C30.9876 16.0987 32.5644 19.4161 32.6596 23.3985C32.7242 26.0959 32.3237 28.6767 31.1618 31.1106C29.7358 34.093 27.7442 36.5627 24.5654 37.8191C21.7279 38.941 18.5204 38.104 16.5826 35.9515C16.5288 35.8906 16.5252 35.7884 16.5737 35.7239C16.6635 35.6056 16.755 35.4855 16.8466 35.3655C16.8502 35.3601 16.8574 35.3529 16.8628 35.3475C17.0963 35.1128 17.3315 34.8798 17.565 34.645C19.7596 32.4566 21.9524 30.2701 24.147 28.0817C24.1614 28.0548 24.1829 28.0154 24.1955 27.9885L24.4307 26.7895C24.4307 26.7877 24.4325 26.7823 24.4325 26.7805L24.7073 25.6837C24.7073 25.6586 24.7073 25.6209 24.7073 25.5959C24.5493 24.9829 24.3912 24.3717 24.2332 23.7588C24.2278 23.7462 24.2206 23.7265 24.2152 23.714L23.6675 22.7569C23.6585 22.7462 23.6459 22.7282 23.637 22.7175C23.3586 22.4433 23.0802 22.1691 22.8019 21.8948L22.8055 21.8984C21.8698 21.0919 20.7725 20.988 19.5962 21.2317C19.5908 21.2335 19.5836 21.2353 19.58 21.2353L18.2492 21.6224C18.2349 21.6296 18.2115 21.6403 18.1972 21.6475C17.6189 22.049 17.0406 22.4504 16.4623 22.8537C16.3941 22.8537 16.3258 22.8537 16.2576 22.8537C15.7691 22.5185 15.2824 22.1816 14.7939 21.8464C14.7849 21.8411 14.7724 21.8339 14.7634 21.8303L13.8511 21.436C13.8421 21.4324 13.8295 21.4289 13.8205 21.4253C13.5027 21.35 13.1866 21.2765 12.8687 21.2012C12.8579 21.1994 12.84 21.1976 12.8274 21.1959L11.4122 21.1941C11.3871 21.1994 11.3512 21.2102 11.326 21.2156L9.8875 21.9916L9.62889 22.1296C9.61453 22.1404 9.59297 22.1583 9.5804 22.1691L9.1871 22.61C9.18351 22.6135 9.17812 22.6207 9.17453 22.6261L8.9231 22.9809H8.92849C8.78482 23.2193 8.64114 23.4577 8.49747 23.6943C8.49208 23.7068 8.48311 23.7265 8.47772 23.7391C8.352 24.1925 8.22629 24.6477 8.10058 25.1012C8.09878 25.1155 8.09519 25.137 8.09339 25.1496L8.09878 25.8145C8.09878 25.8217 8.10058 25.8324 8.10058 25.8396L8.2676 26.9651C8.27298 26.9831 8.28196 27.0099 8.28915 27.0261L9.00751 28.3075C9.02188 28.3344 9.03265 28.381 9.02906 28.4115L9.02367 28.4742C9.04523 28.5226 9.07037 28.5818 9.09192 28.6301C9.70791 29.1159 10.1874 29.7396 10.7424 30.288C12.3712 31.901 14.0037 33.5087 15.6344 35.1181C15.6362 35.1253 15.6416 35.1307 15.6452 35.1343Z" fill="#F16667"/>
<path d="M45.1935 28.9492C46.7452 29.9692 48.9507 30.7001 51.3962 30.7001C54.0485 30.7001 56.4568 29.2755 56.4568 26.6243C56.4568 24.8322 55.2733 23.6098 52.621 22.1852C49.439 20.4756 47.0307 18.3159 47.0307 15.0165C47.0307 9.75966 51.6031 6.50153 57.1519 6.50153C60.2139 6.50153 62.2125 7.23657 63.2759 7.88489L61.7242 11.7955C60.8263 11.3082 58.9891 10.5319 56.7836 10.5732C53.7216 10.5732 52.0086 12.3241 52.0086 14.1575C52.0086 16.0323 53.5603 17.172 56.1299 18.5967C59.4774 20.3476 61.476 22.5486 61.476 25.8893C61.476 31.3897 56.9864 34.7676 50.8624 34.7676C47.5149 34.7263 44.7797 33.7889 43.5549 32.8516L45.1935 28.9492Z" fill="white"/>
<path d="M84.7469 14.5296L82.1359 28.2187C81.689 30.5808 81.3994 32.6579 81.1553 34.3716H76.9098L77.3608 30.9111H77.2781C75.3581 33.4755 72.8713 34.8217 70.3803 34.8217C67.4838 34.8217 65.1956 33.2732 65.1956 29.2015C65.1956 28.1444 65.3197 27.0006 65.6052 25.6585L67.7279 14.5379H72.4616L70.4217 25.3735C70.2189 26.3522 70.0948 27.3268 70.0948 28.1031C70.0948 29.7342 70.7486 30.9153 72.6271 30.9153C74.8326 30.9153 77.3608 28.3096 78.1801 24.1925L79.9718 14.5296H84.7469Z" fill="white"/>
<path d="M86.9518 37.9105C88.0938 38.6042 90.2993 39.0915 92.1779 39.0915C95.2812 39.0915 97.6481 37.6255 98.6288 33.0212L99.117 30.783H99.0343C97.3998 33.1451 95.3185 34.2848 92.7903 34.2848C88.8303 34.2848 86.5876 31.0267 86.5876 27.2771C86.5462 20.637 91.3213 14.0794 99.5681 14.0794C102.138 14.0794 104.629 14.6493 106.466 15.4628L103.445 31.8402C102.709 35.7095 101.608 38.8066 99.3653 40.6813C97.284 42.3909 94.5075 42.8823 92.0165 42.8823C89.4469 42.8823 87.0759 42.3538 85.7725 41.5403L86.9518 37.9105ZM101.318 18.2791C100.789 18.0354 99.7667 17.7918 98.666 17.7918C94.5033 17.7918 91.5655 22.2722 91.5655 26.5503C91.5655 28.6275 92.3806 30.5848 94.7475 30.5848C97.1143 30.5848 99.4812 27.7727 100.176 24.1883L101.318 18.2791Z" fill="white"/>
<path d="M121.28 34.3674C121.28 33.1864 121.442 31.5965 121.607 29.9282H121.524C119.563 33.5539 116.911 34.8175 114.382 34.8175C110.832 34.8175 108.503 32.0467 108.503 28.0535C108.503 21.2894 113.236 14.0794 122.505 14.0794C124.669 14.0794 126.995 14.4882 128.546 14.9755L126.465 25.3239C125.894 28.2558 125.567 32.0054 125.65 34.3674H121.28ZM123.2 17.9528C122.712 17.829 122.1 17.7505 121.243 17.7505C116.873 17.7505 113.447 22.6811 113.447 27.2028C113.447 29.2799 114.221 30.9895 116.307 30.9895C118.553 30.9895 121.247 28.2187 122.186 23.1683L123.2 17.9528Z" fill="white"/>
<path d="M130.342 34.3674L132.667 22.1484C133.197 19.3362 133.482 16.2804 133.689 14.5295H137.81C137.686 15.8757 137.566 17.2591 137.364 18.6837H137.488C138.837 16.0368 140.997 14.0794 143.69 14.0794C144.059 14.0794 144.427 14.1207 144.75 14.1207L143.81 18.7663C143.566 18.725 143.239 18.725 142.912 18.725C139.524 18.725 137.359 22.1484 136.586 26.3852L135.075 34.3674H130.342Z" fill="white"/>
<path d="M162.096 22.1483H152.219L150.667 30.337H161.769L160.995 34.3715H145.118L150.344 6.91473H165.609L164.835 10.9492H154.346L152.96 18.1592H162.878L162.096 22.1483Z" fill="white"/>
<path d="M165.199 34.3673L170.71 5.44464H175.485L169.932 34.3673H165.199Z" fill="white"/>
<path d="M175.362 34.3673L179.156 14.5294H183.89L180.095 34.3673H175.362ZM179.893 9.15283C179.893 7.48453 181.2 6.29938 182.752 6.29938C184.262 6.29938 185.284 7.31935 185.284 8.8266C185.243 10.5775 183.935 11.6801 182.305 11.6801C180.873 11.6801 179.893 10.6601 179.893 9.15283Z" fill="white"/>
<path d="M195.608 9.43774L194.669 14.5294H199.117L198.38 18.1963H193.936L192.385 26.1785C192.182 27.1159 192.016 28.1359 192.016 28.9907C192.016 30.0891 192.505 30.7829 193.771 30.7829C194.342 30.7829 194.913 30.7416 195.405 30.659L194.958 34.3672C194.263 34.6522 192.997 34.7761 191.855 34.7761C188.59 34.7761 187.163 32.9839 187.163 30.7044C187.163 29.606 187.287 28.5034 187.572 27.0375L189.285 18.1963H186.633L187.328 14.5294H189.981L190.717 10.8211L195.608 9.43774Z" fill="white"/>
<path d="M214.509 33.2277C212.548 34.2476 209.895 34.8175 207.487 34.8175C201.975 34.8175 199.323 31.4355 199.323 26.5875C199.323 20.5998 203.73 14.0794 210.59 14.0794C214.509 14.0794 217 16.3217 217 19.6583C217 24.7499 211.654 26.381 203.978 26.2159C203.895 26.9096 204.061 28.2517 204.508 29.028C205.282 30.3701 206.713 31.0638 208.588 31.0638C210.834 31.0638 212.63 30.494 214.058 29.7589L214.509 33.2277ZM209.978 17.6266C206.999 17.6266 205.037 20.2736 204.466 22.6769C209.366 22.7182 212.506 22.0658 212.506 19.6624C212.51 18.3988 211.488 17.6266 209.978 17.6266Z" fill="white"/>
</svg>
