<svg width="178" height="36" viewBox="0 0 178 36" fill="none" xmlns="http://www.w3.org/2000/svg">
<path d="M12.78 28.6999C12.912 28.8566 13.0455 29.0118 13.1996 29.1933C13.248 29.2504 13.245 29.3397 13.1922 29.3924C12.2885 30.2957 11.244 30.937 9.98533 31.1712C7.62638 31.6119 5.65618 30.7891 3.97792 29.1845C1.55295 26.867 0.308927 23.9945 0.0448655 20.6726C-0.251471 16.9452 0.926539 13.7273 3.38965 10.95C3.83415 10.4478 3.83415 10.4551 4.34761 10.8929C4.83906 11.3116 5.32464 11.7391 6.02587 11.764C6.82686 11.7933 7.36525 11.3658 7.79802 10.7626C8.7501 9.43325 9.20341 7.89602 9.57897 6.33829C10.0704 4.30182 10.4489 2.30048 10.5252 0.20106C10.5252 0.183491 10.5281 0.160067 10.5325 0.130786C10.5457 0.0283038 10.6382 -0.0258654 10.7335 0.0121995C13.4988 1.12194 15.5908 3.04275 17.3512 5.37349C19.0632 7.64127 20.36 10.1096 21.0495 12.9396C21.0921 13.1168 21.208 13.1387 21.3121 12.9894C21.4031 12.8591 21.4911 12.7273 21.5674 12.5897C21.8857 12.0114 22.1835 11.4229 22.496 10.8416C22.6852 10.4903 22.8965 10.461 23.1782 10.7743C25.3127 13.1504 26.6007 15.8604 26.6784 19.1134C26.7313 21.3168 26.4041 23.425 25.455 25.4132C24.2902 27.8493 22.6632 29.8668 20.0666 30.893C17.7488 31.8095 15.1287 31.1258 13.5458 29.3675C13.5018 29.3177 13.4988 29.2343 13.5384 29.1816C13.6118 29.085 13.6866 28.9869 13.7614 28.8888C13.7643 28.8844 13.7702 28.8785 13.7746 28.8741C13.9653 28.6824 14.1575 28.492 14.3482 28.3002C16.1409 26.5127 17.9321 24.7265 19.7248 22.939C19.7366 22.917 19.7542 22.8848 19.7644 22.8628L19.9566 21.8834C19.9566 21.8819 19.9581 21.8775 19.9581 21.8761L20.1825 20.9801C20.1825 20.9596 20.1825 20.9288 20.1825 20.9083C20.0534 20.4076 19.9243 19.9084 19.7952 19.4077C19.7908 19.3975 19.785 19.3814 19.7806 19.3711L19.3331 18.5893C19.3258 18.5805 19.3155 18.5659 19.3082 18.5571C19.0808 18.3331 18.8534 18.1091 18.626 17.8851L18.629 17.888C17.8646 17.2292 16.9683 17.1443 16.0074 17.3434C16.003 17.3449 15.9971 17.3463 15.9942 17.3463L14.9072 17.6626C14.8954 17.6684 14.8763 17.6772 14.8646 17.6831C14.3922 18.011 13.9199 18.339 13.4475 18.6684C13.3917 18.6684 13.336 18.6684 13.2802 18.6684C12.8812 18.3946 12.4836 18.1194 12.0846 17.8456C12.0773 17.8412 12.067 17.8353 12.0597 17.8324L11.3144 17.5103C11.3071 17.5074 11.2968 17.5045 11.2895 17.5015C11.0298 17.44 10.7716 17.38 10.512 17.3185C10.5032 17.3171 10.4885 17.3156 10.4782 17.3141L9.32224 17.3127C9.3017 17.3171 9.27236 17.3259 9.25182 17.3302L8.07675 17.9642L7.8655 18.0769C7.85376 18.0857 7.83616 18.1003 7.82589 18.1091L7.50461 18.4693C7.50168 18.4722 7.49728 18.478 7.49435 18.4824L7.28896 18.7723H7.29337C7.176 18.967 7.05864 19.1618 6.94128 19.355C6.93688 19.3653 6.92955 19.3814 6.92514 19.3916C6.82245 19.762 6.71976 20.1339 6.61707 20.5043C6.61561 20.516 6.61267 20.5335 6.6112 20.5438L6.61561 21.087C6.61561 21.0928 6.61707 21.1016 6.61707 21.1074L6.7535 22.0269C6.75791 22.0415 6.76524 22.0635 6.77111 22.0766L7.35791 23.1234C7.36965 23.1454 7.37845 23.1834 7.37552 23.2083L7.37112 23.2596C7.38872 23.2991 7.40926 23.3474 7.42686 23.3869C7.93005 23.7837 8.32174 24.2932 8.77505 24.7412C10.1056 26.0588 11.4391 27.372 12.7712 28.6867C12.7727 28.6926 12.7771 28.697 12.78 28.6999Z" fill="#F16667"/>
<path d="M36.9171 23.6478C38.1846 24.4809 39.9862 25.078 41.9838 25.078C44.1505 25.078 46.1177 23.9142 46.1177 21.7486C46.1177 20.2847 45.151 19.2862 42.9843 18.1225C40.3851 16.726 38.4179 14.9618 38.4179 12.2666C38.4179 7.97249 42.1528 5.31104 46.6855 5.31104C49.1867 5.31104 50.8193 5.91147 51.688 6.44106L50.4205 9.63548C49.687 9.23744 48.1862 8.60329 46.3847 8.63702C43.8834 8.63702 42.4841 10.0673 42.4841 11.565C42.4841 13.0964 43.7516 14.0274 45.8506 15.1911C48.5851 16.6214 50.2177 18.4193 50.2177 21.1482C50.2177 25.6413 46.5503 28.4006 41.5478 28.4006C38.8133 28.3669 36.5791 27.6012 35.5786 26.8354L36.9171 23.6478Z" fill="white"/>
<path d="M69.2275 11.8682L67.0946 23.0503C66.7296 24.9798 66.493 26.6765 66.2936 28.0764H62.8256L63.194 25.2497H63.1264C61.5581 27.3444 59.5267 28.4441 57.4919 28.4441C55.1258 28.4441 53.2567 27.1791 53.2567 23.8531C53.2567 22.9896 53.3581 22.0552 53.5913 20.9589L55.3253 11.8749H59.192L57.5257 20.7262C57.36 21.5256 57.2586 22.3217 57.2586 22.9559C57.2586 24.2883 57.7927 25.253 59.3272 25.253C61.1288 25.253 63.194 23.1245 63.8633 19.7615L65.3269 11.8682H69.2275Z" fill="white"/>
<path d="M71.0287 30.9672C71.9616 31.5339 73.7632 31.932 75.2977 31.932C77.8328 31.932 79.7661 30.7345 80.5672 26.9734L80.9661 25.1451H80.8985C79.5633 27.0746 77.8632 28.0056 75.798 28.0056C72.5632 28.0056 70.7312 25.3441 70.7312 22.2812C70.6974 16.8571 74.598 11.5005 81.3345 11.5005C83.4335 11.5005 85.4683 11.966 86.9691 12.6305L84.5016 26.0086C83.9 29.1693 83.0009 31.6992 81.1689 33.2306C79.4687 34.6272 77.2007 35.0286 75.1659 35.0286C73.0669 35.0286 71.1301 34.5968 70.0654 33.9323L71.0287 30.9672ZM82.7643 14.931C82.3316 14.732 81.4967 14.533 80.5976 14.533C77.1973 14.533 74.7975 18.1929 74.7975 21.6876C74.7975 23.3843 75.4633 24.9832 77.3967 24.9832C79.3301 24.9832 81.2635 22.686 81.8314 19.7581L82.7643 14.931Z" fill="white"/>
<path d="M99.07 28.073C99.07 27.1083 99.2018 25.8096 99.337 24.4468H99.2694C97.6673 27.4085 95.5007 28.4407 93.4355 28.4407C90.5354 28.4407 88.6324 26.1773 88.6324 22.9154C88.6324 17.3901 92.4992 11.5005 100.071 11.5005C101.838 11.5005 103.738 11.8344 105.005 12.2325L103.305 20.6857C102.839 23.0807 102.572 26.1436 102.639 28.073H99.07ZM100.638 14.6646C100.24 14.5634 99.7393 14.4993 99.0396 14.4993C95.4703 14.4993 92.6716 18.5269 92.6716 22.2205C92.6716 23.9172 93.3036 25.3137 95.0072 25.3137C96.8426 25.3137 99.043 23.0503 99.8103 18.9249L100.638 14.6646Z" fill="white"/>
<path d="M106.472 28.073L108.372 18.0917C108.804 15.7946 109.037 13.2984 109.206 11.8682H112.573C112.472 12.9678 112.374 14.0979 112.208 15.2616H112.309C113.411 13.0994 115.176 11.5005 117.376 11.5005C117.677 11.5005 117.978 11.5342 118.241 11.5342L117.474 15.3291C117.275 15.2953 117.008 15.2953 116.741 15.2953C113.972 15.2953 112.205 18.0917 111.572 21.5526L110.339 28.073H106.472Z" fill="white"/>
<path d="M132.868 18.0917H124.8L123.533 24.7808H132.601L131.969 28.0764H119L123.269 5.64795H135.738L135.106 8.94356H126.537L125.405 14.8332H133.507L132.868 18.0917Z" fill="white"/>
<path d="M135.404 28.0732L139.906 4.44727H143.806L139.27 28.0732H135.404Z" fill="white"/>
<path d="M143.705 28.0732L146.804 11.8683H150.671L147.572 28.0732H143.705ZM147.406 7.47639C147.406 6.11362 148.474 5.14551 149.742 5.14551C150.975 5.14551 151.81 5.97869 151.81 7.20991C151.776 8.64014 150.708 9.54079 149.377 9.54079C148.207 9.54079 147.406 8.70761 147.406 7.47639Z" fill="white"/>
<path d="M160.243 7.70898L159.476 11.8681H163.11L162.508 14.8635H158.878L157.61 21.3839C157.445 22.1497 157.31 22.9828 157.31 23.6811C157.31 24.5784 157.708 25.1451 158.743 25.1451C159.209 25.1451 159.676 25.1113 160.078 25.0439L159.713 28.073C159.145 28.3058 158.111 28.4069 157.178 28.4069C154.511 28.4069 153.345 26.943 153.345 25.081C153.345 24.1837 153.446 23.2831 153.679 22.0856L155.079 14.8635H152.912L153.48 11.8681H155.647L156.248 8.839L160.243 7.70898Z" fill="white"/>
<path d="M175.684 27.142C174.081 27.9752 171.915 28.4407 169.948 28.4407C165.445 28.4407 163.279 25.6781 163.279 21.7179C163.279 16.8268 166.879 11.5005 172.483 11.5005C175.684 11.5005 177.718 13.3321 177.718 16.0577C177.718 20.2168 173.351 21.5493 167.081 21.4143C167.014 21.981 167.149 23.0773 167.514 23.7115C168.146 24.8078 169.316 25.3745 170.847 25.3745C172.682 25.3745 174.149 24.909 175.315 24.3085L175.684 27.142ZM171.982 14.3981C169.549 14.3981 167.947 16.5603 167.48 18.5235C171.482 18.5572 174.048 18.0243 174.048 16.0611C174.051 15.0289 173.216 14.3981 171.982 14.3981Z" fill="white"/>
</svg>
