<svg width="102" height="21" viewBox="0 0 102 21" fill="none" xmlns="http://www.w3.org/2000/svg">
<path d="M7.90683 17.7952C7.98936 17.8922 8.07103 17.9892 8.16632 18.1015C8.1961 18.1364 8.1944 18.1925 8.16207 18.2249C7.60225 18.7855 6.9565 19.1828 6.17802 19.3283C4.71892 19.6014 3.49973 19.0918 2.46092 18.0964C0.960975 16.6594 0.19101 14.8778 0.0276577 12.8181C-0.155262 10.5073 0.573014 8.51138 2.09763 6.78938C2.37244 6.47799 2.37329 6.48309 2.69063 6.7545C2.99436 7.01399 3.29554 7.27858 3.7286 7.29475C4.22376 7.31261 4.55812 7.04802 4.82527 6.67367C5.41486 5.84925 5.69477 4.89637 5.92789 3.93072C6.23162 2.66815 6.46644 1.42685 6.51323 0.125136C6.51323 0.114075 6.51494 0.099612 6.51749 0.0808946C6.526 0.0170853 6.58215 -0.0160955 6.6417 0.00772662C8.35264 0.696016 9.64755 1.88712 10.7366 3.33177C11.7958 4.73727 12.5989 6.26784 13.0243 8.02387C13.0507 8.13363 13.123 8.14724 13.1868 8.0545C13.243 7.97368 13.2974 7.892 13.3442 7.80692C13.5408 7.44874 13.7254 7.0829 13.9185 6.72302C14.0351 6.50521 14.1669 6.48735 14.3405 6.68048C15.6609 8.15405 16.4581 9.83436 16.5066 11.8516C16.539 13.218 16.3373 14.5248 15.7494 15.7576C15.0288 17.2677 14.0223 18.5184 12.4152 19.1556C10.9807 19.7239 9.35998 19.2994 8.37987 18.2095C8.35264 18.1789 8.35009 18.127 8.37562 18.0938C8.42156 18.0343 8.4675 17.973 8.51344 17.9126C8.516 17.9101 8.5194 17.9058 8.5211 17.9033C8.63936 17.785 8.75762 17.6659 8.87588 17.5476C9.98446 16.4399 11.0939 15.3313 12.2025 14.2236C12.2093 14.21 12.2203 14.1904 12.2271 14.1768L12.3454 13.5693C12.3454 13.5676 12.3463 13.5659 12.3463 13.5651L12.4858 13.0095C12.4858 12.9967 12.4858 12.9772 12.4858 12.9644C12.4058 12.6547 12.3267 12.3442 12.2467 12.0345C12.2442 12.0285 12.2399 12.0183 12.2374 12.0124L11.96 11.5274C11.9557 11.5223 11.9489 11.513 11.9447 11.5079C11.8043 11.3692 11.6631 11.2305 11.5227 11.091L11.5244 11.0927C11.0514 10.6843 10.4975 10.6315 9.90193 10.7549C9.89938 10.7558 9.89598 10.7566 9.89343 10.7566L9.2213 10.9523C9.21364 10.9557 9.20258 10.9617 9.19493 10.9651C8.90225 11.1684 8.61043 11.3726 8.31776 11.5759C8.28288 11.5759 8.24885 11.5759 8.21396 11.5759C7.96724 11.4058 7.72051 11.2356 7.47463 11.0655C7.47037 11.0629 7.46357 11.0595 7.45931 11.0569L6.99818 10.8579C6.99393 10.8562 6.98712 10.8545 6.98287 10.8528C6.82207 10.8153 6.66212 10.777 6.50132 10.7396C6.49537 10.7387 6.48601 10.7379 6.4809 10.737L5.76539 10.7362C5.75348 10.7396 5.73476 10.7439 5.722 10.7473L4.99457 11.1403L4.8644 11.2101C4.8576 11.2152 4.84654 11.2245 4.83973 11.2297L4.64064 11.4526C4.63894 11.4543 4.63554 11.4585 4.63384 11.4611L4.50707 11.6414H4.50962C4.43731 11.7622 4.36499 11.8822 4.29182 12.003C4.28927 12.009 4.28501 12.0192 4.28246 12.026C4.21865 12.2557 4.15569 12.4863 4.09188 12.716C4.09103 12.7228 4.08933 12.7339 4.08848 12.7407L4.09103 13.0776C4.09103 13.081 4.09188 13.0869 4.09188 13.0903L4.17611 13.6604C4.17867 13.6689 4.18377 13.6825 4.18632 13.6918L4.54961 14.341C4.55727 14.3546 4.56237 14.3784 4.56067 14.3937L4.55727 14.4261C4.56833 14.4507 4.58109 14.4805 4.5913 14.5052C4.90269 14.7511 5.14516 15.0667 5.42507 15.3449C6.24779 16.1617 7.07305 16.9759 7.89747 17.791C7.90258 17.791 7.90513 17.7935 7.90683 17.7952Z" fill="#F16667"/>
<path d="M20.1956 15.3245L21.6836 13.2145C22.4689 13.9998 23.6787 14.6541 25.1667 14.6541C26.1315 14.6541 26.7203 14.278 26.7203 13.7548C26.7203 12.2667 20.5384 13.4604 20.5384 9.2575C20.5384 7.42575 22.092 5.79053 24.8885 5.79053C26.6386 5.79053 28.1598 6.31376 29.3203 7.31174L27.7829 9.32301C26.8675 8.57091 25.6729 8.19486 24.5941 8.19486C23.7765 8.19486 23.4166 8.52157 23.4166 8.98014C23.4166 10.3703 29.5823 9.35619 29.5823 13.4119C29.5823 15.6035 27.9633 17.0592 25.0357 17.0592C22.8288 17.0575 21.2914 16.371 20.1956 15.3245Z" fill="white"/>
<path d="M35.3398 16.861V15.9124C34.8489 16.4688 33.9335 17.0575 32.6088 17.0575C30.8094 17.0575 30.0088 16.0434 30.0088 14.5877V8.96143H32.5271V13.5574C32.5271 14.506 33.018 14.8327 33.8356 14.8327C34.5554 14.8327 35.0463 14.4405 35.3407 14.0645V8.96143H37.859V16.861H35.3398Z" fill="white"/>
<path d="M38.6595 18.8892L39.7554 17.0898C40.3603 17.744 41.2434 18.0052 42.1597 18.0052C42.9935 18.0052 44.171 17.6615 44.171 16.1896V15.5847C43.5167 16.3538 42.7314 16.7299 41.8321 16.7299C39.9025 16.7299 38.3481 15.4052 38.3481 12.7397C38.3481 10.1397 39.8532 8.76562 41.8321 8.76562C42.7153 8.76562 43.5329 9.10934 44.171 9.89377V8.96131H46.6731V16.1573C46.6731 19.3792 44.1216 20.0658 42.1588 20.0658C40.8027 20.0667 39.6737 19.7238 38.6595 18.8892ZM44.1718 13.8032V11.6932C43.8613 11.2678 43.1908 10.9896 42.6668 10.9896C41.6688 10.9896 40.9328 11.5945 40.9328 12.7397C40.9328 13.901 41.6688 14.5059 42.6668 14.5059C43.19 14.5059 43.8604 14.2286 44.1718 13.8032Z" fill="white"/>
<path d="M52.365 16.861V16.0757C51.8741 16.6645 50.9254 17.0567 49.9121 17.0567C48.7015 17.0567 47.1973 16.2391 47.1973 14.4567C47.1973 12.5432 48.7023 11.9213 49.9121 11.9213C50.9586 11.9213 51.8911 12.248 52.365 12.8368V11.8881C52.365 11.2015 51.7762 10.743 50.7621 10.743C49.9768 10.743 49.1592 11.0373 48.5211 11.5767L47.6218 9.99002C48.636 9.12307 49.993 8.76318 51.2036 8.76318C53.1009 8.76318 54.8833 9.46679 54.8833 11.9196V16.8585H52.365V16.861ZM52.365 14.8336V14.13C52.1029 13.7701 51.5142 13.5736 50.9586 13.5736C50.2882 13.5736 49.6994 13.8679 49.6994 14.4899C49.6994 15.1118 50.2882 15.4053 50.9586 15.4053C51.5142 15.4062 52.1029 15.2096 52.365 14.8336Z" fill="white"/>
<path d="M55.8975 16.8613V8.96172H58.4158V9.92652C58.939 9.28842 59.937 8.74902 60.8856 8.74902V11.1695C60.7385 11.1372 60.5258 11.104 60.2646 11.104C59.6103 11.104 58.7434 11.3822 58.4167 11.8238V16.8613H55.8975Z" fill="white"/>
<path d="M74.2141 16.8611V9.76296L71.4499 16.8611H70.2069L67.4597 9.76296V16.8611H64.647V5.95312H68.5555L70.8288 11.8738L73.1183 5.95312H77.0268V16.862H74.2141V16.8611Z" fill="white"/>
<path d="M82.7678 16.861V16.0757C82.2769 16.6645 81.3283 17.0567 80.315 17.0567C79.1051 17.0567 77.6001 16.2391 77.6001 14.4567C77.6001 12.5432 79.1051 11.9213 80.315 11.9213C81.3614 11.9213 82.2939 12.248 82.7678 12.8368V11.8881C82.7678 11.2015 82.1791 10.743 81.1649 10.743C80.3796 10.743 79.562 11.0373 78.9239 11.5767L78.0246 9.99002C79.0388 9.12307 80.3958 8.76318 81.6065 8.76318C83.5037 8.76318 85.2861 9.46679 85.2861 11.9196V16.8585H82.7678V16.861ZM82.7678 14.8336V14.13C82.5058 13.7701 81.917 13.5736 81.3614 13.5736C80.691 13.5736 80.1023 13.8679 80.1023 14.4899C80.1023 15.1118 80.691 15.4053 81.3614 15.4053C81.917 15.4062 82.5058 15.2096 82.7678 14.8336Z" fill="white"/>
<path d="M91.3046 16.8611L89.5707 14.0646L88.8186 14.9638V16.8611H86.3003V5.95312H88.8186V12.1188L91.223 8.96237H94.2645L91.3531 12.5604L94.4117 16.862H91.3046V16.8611Z" fill="white"/>
<path d="M93.7576 12.904C93.7576 10.6145 95.4915 8.7666 97.9605 8.7666C100.299 8.7666 102 10.4835 102 13.166V13.7054H96.3737C96.5209 14.4414 97.2075 15.1118 98.3527 15.1118C98.9091 15.1118 99.8739 14.8668 100.315 14.4414L101.378 16.0111C100.593 16.7147 99.2843 17.0576 98.0745 17.0576C95.6378 17.0576 93.7576 15.4708 93.7576 12.904ZM97.9605 10.7124C96.8647 10.7124 96.4393 11.4976 96.3414 12.0702H99.5957C99.531 11.5138 99.1218 10.7124 97.9605 10.7124Z" fill="white"/>
</svg>
