<svg width="223" height="43" viewBox="0 0 223 43" fill="none" xmlns="http://www.w3.org/2000/svg">
<path d="M15.6452 35.1343C15.8068 35.326 15.9702 35.516 16.1588 35.7383C16.2181 35.8082 16.2145 35.9175 16.1498 35.982C15.0435 37.0878 13.7649 37.8728 12.224 38.1596C9.33616 38.6991 6.92426 37.6918 4.86975 35.7275C1.90111 32.8904 0.378187 29.3739 0.0549241 25.3073C-0.307849 20.7442 1.13426 16.8048 4.14959 13.4049C4.69375 12.7902 4.69375 12.7991 5.32231 13.335C5.92394 13.8476 6.51839 14.3709 7.37683 14.4014C8.35739 14.4372 9.01649 13.9139 9.54628 13.1755C10.7118 11.5481 11.2668 9.66625 11.7265 7.75929C12.3281 5.26625 12.7915 2.81624 12.8849 0.246136C12.8849 0.224629 12.8885 0.195953 12.8939 0.160108C12.91 0.0346494 13.0232 -0.0316642 13.1399 0.0149345C16.5252 1.37347 19.0861 3.72491 21.2412 6.57819C23.337 9.3544 24.9246 12.3761 25.7687 15.8406C25.8208 16.0574 25.9626 16.0843 26.0902 15.9015C26.2015 15.742 26.3093 15.5807 26.4026 15.4122C26.7924 14.7043 27.1569 13.9838 27.5395 13.2723C27.7711 12.8421 28.0297 12.8063 28.3745 13.1898C30.9876 16.0987 32.5644 19.4161 32.6596 23.3985C32.7242 26.0959 32.3237 28.6767 31.1618 31.1106C29.7358 34.093 27.7442 36.5627 24.5654 37.8191C21.7279 38.941 18.5204 38.104 16.5826 35.9515C16.5288 35.8906 16.5252 35.7884 16.5737 35.7239C16.6635 35.6056 16.755 35.4855 16.8466 35.3655C16.8502 35.3601 16.8574 35.3529 16.8628 35.3475C17.0963 35.1128 17.3315 34.8798 17.565 34.645C19.7596 32.4566 21.9524 30.2701 24.147 28.0817C24.1614 28.0548 24.1829 28.0154 24.1955 27.9885L24.4307 26.7895C24.4307 26.7877 24.4325 26.7823 24.4325 26.7805L24.7073 25.6837C24.7073 25.6586 24.7073 25.6209 24.7073 25.5959C24.5493 24.9829 24.3912 24.3717 24.2332 23.7588C24.2278 23.7462 24.2206 23.7265 24.2152 23.714L23.6675 22.7569C23.6585 22.7462 23.6459 22.7282 23.637 22.7175C23.3586 22.4433 23.0802 22.1691 22.8019 21.8948L22.8055 21.8984C21.8698 21.0919 20.7725 20.988 19.5962 21.2317C19.5908 21.2335 19.5836 21.2353 19.58 21.2353L18.2492 21.6224C18.2349 21.6296 18.2115 21.6403 18.1972 21.6475C17.6189 22.049 17.0406 22.4504 16.4623 22.8537C16.3941 22.8537 16.3258 22.8537 16.2576 22.8537C15.7691 22.5185 15.2824 22.1816 14.7939 21.8464C14.7849 21.8411 14.7724 21.8339 14.7634 21.8303L13.8511 21.436C13.8421 21.4324 13.8295 21.4289 13.8205 21.4253C13.5027 21.35 13.1866 21.2765 12.8687 21.2012C12.8579 21.1994 12.84 21.1976 12.8274 21.1959L11.4122 21.1941C11.3871 21.1994 11.3512 21.2102 11.326 21.2156L9.8875 21.9916L9.62889 22.1296C9.61453 22.1404 9.59297 22.1583 9.5804 22.1691L9.1871 22.61C9.18351 22.6135 9.17812 22.6207 9.17453 22.6261L8.9231 22.9809H8.92849C8.78482 23.2193 8.64114 23.4577 8.49747 23.6943C8.49208 23.7068 8.48311 23.7265 8.47772 23.7391C8.352 24.1925 8.22629 24.6477 8.10058 25.1012C8.09878 25.1155 8.09519 25.137 8.09339 25.1496L8.09878 25.8145C8.09878 25.8217 8.10058 25.8324 8.10058 25.8396L8.2676 26.9651C8.27298 26.9831 8.28196 27.0099 8.28915 27.0261L9.00751 28.3075C9.02188 28.3344 9.03265 28.381 9.02906 28.4115L9.02367 28.4742C9.04523 28.5226 9.07037 28.5818 9.09192 28.6301C9.70791 29.1159 10.1874 29.7396 10.7424 30.288C12.3712 31.901 14.0037 33.5087 15.6344 35.1181C15.6362 35.1253 15.6416 35.1307 15.6452 35.1343Z" fill="#F16667"/>
<path d="M123.075 28.9492C124.627 29.9692 126.832 30.7001 129.278 30.7001C131.93 30.7001 134.338 29.2755 134.338 26.6243C134.338 24.8322 133.155 23.6098 130.503 22.1852C127.321 20.4756 124.912 18.3159 124.912 15.0165C124.912 9.75966 129.485 6.50153 135.034 6.50153C138.096 6.50153 140.094 7.23657 141.158 7.88489L139.606 11.7955C138.708 11.3082 136.871 10.5319 134.665 10.5732C131.603 10.5732 129.89 12.3241 129.89 14.1575C129.89 16.0323 131.442 17.172 134.011 18.5967C137.359 20.3476 139.358 22.5486 139.358 25.8893C139.358 31.3897 134.868 34.7676 128.744 34.7676C125.396 34.7263 122.661 33.7889 121.437 32.8516L123.075 28.9492Z" fill="white"/>
<path d="M162.628 14.5296L160.018 28.2187C159.571 30.5808 159.281 32.6579 159.037 34.3716H154.791L155.242 30.9111H155.16C153.24 33.4755 150.753 34.8217 148.262 34.8217C145.365 34.8217 143.077 33.2732 143.077 29.2015C143.077 28.1444 143.201 27.0006 143.487 25.6585L145.61 14.5379H150.343L148.303 25.3735C148.1 26.3522 147.976 27.3268 147.976 28.1031C147.976 29.7342 148.63 30.9153 150.509 30.9153C152.714 30.9153 155.242 28.3096 156.062 24.1925L157.853 14.5296H162.628Z" fill="white"/>
<path d="M164.833 37.9105C165.975 38.6042 168.181 39.0915 170.059 39.0915C173.163 39.0915 175.53 37.6255 176.51 33.0212L176.999 30.783H176.916C175.281 33.1451 173.2 34.2848 170.672 34.2848C166.712 34.2848 164.469 31.0267 164.469 27.2771C164.428 20.637 169.203 14.0794 177.45 14.0794C180.019 14.0794 182.51 14.6493 184.347 15.4628L181.327 31.8402C180.59 35.7095 179.49 38.8066 177.247 40.6813C175.166 42.3909 172.389 42.8823 169.898 42.8823C167.328 42.8823 164.957 42.3538 163.654 41.5403L164.833 37.9105ZM179.2 18.2791C178.67 18.0354 177.648 17.7918 176.548 17.7918C172.385 17.7918 169.447 22.2722 169.447 26.5503C169.447 28.6275 170.262 30.5848 172.629 30.5848C174.996 30.5848 177.363 27.7727 178.058 24.1883L179.2 18.2791Z" fill="white"/>
<path d="M199.162 34.3674C199.162 33.1864 199.323 31.5965 199.489 29.9282H199.406C197.445 33.5539 194.792 34.8175 192.264 34.8175C188.714 34.8175 186.384 32.0467 186.384 28.0535C186.384 21.2894 191.118 14.0794 200.387 14.0794C202.551 14.0794 204.876 14.4882 206.428 14.9755L204.347 25.3239C203.776 28.2558 203.449 32.0054 203.531 34.3674H199.162ZM201.082 17.9528C200.594 17.829 199.981 17.7505 199.125 17.7505C194.755 17.7505 191.329 22.6811 191.329 27.2028C191.329 29.2799 192.103 30.9895 194.188 30.9895C196.435 30.9895 199.129 28.2187 200.068 23.1683L201.082 17.9528Z" fill="white"/>
<path d="M208.223 34.3674L210.549 22.1484C211.078 19.3362 211.364 16.2804 211.571 14.5295H215.692C215.568 15.8757 215.448 17.2591 215.245 18.6837H215.369C216.718 16.0368 218.878 14.0794 221.572 14.0794C221.94 14.0794 222.309 14.1207 222.631 14.1207L221.692 18.7663C221.448 18.725 221.121 18.725 220.794 18.725C217.405 18.725 215.241 22.1484 214.467 26.3852L212.957 34.3674H208.223Z" fill="white"/>
<path d="M60.5325 22.1483H50.6555L49.1038 30.337H60.2056L59.4319 34.3715H43.5549L48.781 6.91473H64.0456L63.2718 10.9492H52.7823L51.3962 18.1592H61.3146L60.5325 22.1483Z" fill="white"/>
<path d="M63.6354 34.3673L69.147 5.44464H73.9221L68.3691 34.3673H63.6354Z" fill="white"/>
<path d="M73.7983 34.3673L77.5927 14.5294H82.3264L78.532 34.3673H73.7983ZM78.3293 9.15283C78.3293 7.48453 79.6368 6.29938 81.1885 6.29938C82.6989 6.29938 83.7209 7.31935 83.7209 8.8266C83.6795 10.5775 82.372 11.6801 80.7417 11.6801C79.31 11.6801 78.3293 10.6601 78.3293 9.15283Z" fill="white"/>
<path d="M94.0447 9.43774L93.1054 14.5294H97.5536L96.8171 18.1963H92.373L90.8213 26.1785C90.6186 27.1159 90.4531 28.1359 90.4531 28.9907C90.4531 30.0891 90.9413 30.7829 92.2075 30.7829C92.7785 30.7829 93.3495 30.7416 93.842 30.659L93.3951 34.3672C92.6999 34.6522 91.4337 34.7761 90.2917 34.7761C87.0269 34.7761 85.5993 32.9839 85.5993 30.7044C85.5993 29.606 85.7235 28.5034 86.009 27.0375L87.7221 18.1963H85.0697L85.7649 14.5294H88.4172L89.1538 10.8211L94.0447 9.43774Z" fill="white"/>
<path d="M112.946 33.2277C110.984 34.2476 108.332 34.8175 105.924 34.8175C100.412 34.8175 97.7596 31.4355 97.7596 26.5875C97.7596 20.5998 102.166 14.0794 109.027 14.0794C112.946 14.0794 115.437 16.3217 115.437 19.6583C115.437 24.7499 110.09 26.381 102.415 26.2159C102.332 26.9096 102.497 28.2517 102.944 29.028C103.718 30.3701 105.15 31.0638 107.024 31.0638C109.271 31.0638 111.067 30.494 112.495 29.7589L112.946 33.2277ZM108.415 17.6266C105.435 17.6266 103.474 20.2736 102.903 22.6769C107.802 22.7182 110.943 22.0658 110.943 19.6624C110.947 18.3988 109.925 17.6266 108.415 17.6266Z" fill="white"/>
</svg>
