<svg width="183" height="36" viewBox="0 0 183 36" fill="none" xmlns="http://www.w3.org/2000/svg">
<path d="M12.78 28.6999C12.912 28.8565 13.0455 29.0117 13.1996 29.1933C13.248 29.2504 13.245 29.3397 13.1922 29.3924C12.2885 30.2957 11.244 30.9369 9.98533 31.1712C7.62638 31.6118 5.65618 30.7891 3.97792 29.1845C1.55295 26.8669 0.308927 23.9945 0.0448655 20.6726C-0.251471 16.9452 0.926539 13.7272 3.38965 10.95C3.83415 10.4478 3.83415 10.4551 4.34761 10.8929C4.83906 11.3116 5.32464 11.7391 6.02587 11.764C6.82686 11.7933 7.36525 11.3658 7.79802 10.7626C8.7501 9.43324 9.20341 7.896 9.57897 6.33828C10.0704 4.30181 10.4489 2.30048 10.5252 0.201059C10.5252 0.183491 10.5281 0.160067 10.5325 0.130786C10.5457 0.0283038 10.6382 -0.0258653 10.7335 0.0121995C13.4988 1.12193 15.5908 3.04274 17.3512 5.37348C19.0632 7.64126 20.36 10.1096 21.0495 12.9396C21.0921 13.1167 21.208 13.1387 21.3121 12.9894C21.4031 12.8591 21.4911 12.7273 21.5674 12.5897C21.8857 12.0114 22.1835 11.4229 22.496 10.8416C22.6852 10.4903 22.8965 10.461 23.1782 10.7743C25.3127 13.1504 26.6007 15.8603 26.6784 19.1134C26.7313 21.3168 26.4041 23.425 25.455 25.4131C24.2902 27.8493 22.6632 29.8667 20.0666 30.893C17.7488 31.8095 15.1287 31.1258 13.5458 29.3675C13.5018 29.3177 13.4988 29.2343 13.5384 29.1815C13.6118 29.0849 13.6866 28.9868 13.7614 28.8887C13.7643 28.8843 13.7702 28.8785 13.7746 28.8741C13.9653 28.6823 14.1575 28.492 14.3482 28.3002C16.1409 26.5126 17.9321 24.7265 19.7248 22.9389C19.7366 22.917 19.7542 22.8848 19.7644 22.8628L19.9566 21.8834C19.9566 21.8819 19.9581 21.8775 19.9581 21.876L20.1825 20.98C20.1825 20.9595 20.1825 20.9288 20.1825 20.9083C20.0534 20.4076 19.9243 19.9084 19.7952 19.4077C19.7908 19.3974 19.785 19.3813 19.7806 19.3711L19.3331 18.5893C19.3258 18.5805 19.3155 18.5659 19.3082 18.5571C19.0808 18.3331 18.8534 18.1091 18.626 17.8851L18.629 17.888C17.8646 17.2292 16.9683 17.1443 16.0074 17.3434C16.003 17.3449 15.9971 17.3463 15.9942 17.3463L14.9072 17.6626C14.8954 17.6684 14.8763 17.6772 14.8646 17.683C14.3922 18.011 13.9199 18.3389 13.4475 18.6683C13.3917 18.6683 13.336 18.6683 13.2802 18.6683C12.8812 18.3946 12.4836 18.1193 12.0846 17.8456C12.0773 17.8412 12.067 17.8353 12.0597 17.8324L11.3144 17.5103C11.3071 17.5074 11.2968 17.5044 11.2895 17.5015C11.0298 17.44 10.7716 17.38 10.512 17.3185C10.5032 17.317 10.4885 17.3156 10.4782 17.3141L9.32224 17.3126C9.3017 17.317 9.27236 17.3258 9.25182 17.3302L8.07675 17.9641L7.8655 18.0769C7.85376 18.0857 7.83616 18.1003 7.82589 18.1091L7.50461 18.4692C7.50168 18.4722 7.49728 18.478 7.49435 18.4824L7.28896 18.7723H7.29337C7.176 18.967 7.05864 19.1617 6.94128 19.355C6.93688 19.3652 6.92955 19.3813 6.92514 19.3916C6.82245 19.762 6.71976 20.1338 6.61707 20.5042C6.61561 20.5159 6.61267 20.5335 6.6112 20.5438L6.61561 21.0869C6.61561 21.0928 6.61707 21.1016 6.61707 21.1074L6.7535 22.0268C6.75791 22.0415 6.76524 22.0634 6.77111 22.0766L7.35791 23.1234C7.36965 23.1453 7.37845 23.1834 7.37552 23.2083L7.37112 23.2595C7.38872 23.2991 7.40926 23.3474 7.42686 23.3869C7.93005 23.7837 8.32174 24.2931 8.77505 24.7411C10.1056 26.0588 11.4391 27.372 12.7712 28.6867C12.7727 28.6926 12.7771 28.697 12.78 28.6999Z" fill="#F16667"/>
<path d="M101.635 23.6478C102.903 24.481 104.704 25.0781 106.702 25.0781C108.869 25.0781 110.836 23.9143 110.836 21.7487C110.836 20.2847 109.869 19.2863 107.703 18.1225C105.103 16.726 103.136 14.9618 103.136 12.2666C103.136 7.9725 106.871 5.31104 111.404 5.31104C113.905 5.31104 115.538 5.91147 116.406 6.44106L115.139 9.6355C114.405 9.23746 112.905 8.6033 111.103 8.63703C108.602 8.63703 107.202 10.0673 107.202 11.565C107.202 13.0964 108.47 14.0274 110.569 15.1912C113.303 16.6214 114.936 18.4193 114.936 21.1483C114.936 25.6414 111.269 28.4007 106.266 28.4007C103.532 28.367 101.297 27.6012 100.297 26.8355L101.635 23.6478Z" fill="white"/>
<path d="M133.946 11.8682L131.813 23.0504C131.448 24.9799 131.211 26.6766 131.012 28.0765H127.544L127.912 25.2497H127.845C126.277 27.3445 124.245 28.4442 122.21 28.4442C119.844 28.4442 117.975 27.1792 117.975 23.8532C117.975 22.9897 118.076 22.0553 118.31 20.959L120.044 11.8749H123.91L122.244 20.7262C122.078 21.5257 121.977 22.3218 121.977 22.9559C121.977 24.2884 122.511 25.2531 124.046 25.2531C125.847 25.2531 127.912 23.1246 128.582 19.7615L130.045 11.8682H133.946Z" fill="white"/>
<path d="M135.747 30.9671C136.68 31.5338 138.481 31.9319 140.016 31.9319C142.551 31.9319 144.484 30.7344 145.286 26.9733L145.684 25.145H145.617C144.282 27.0745 142.581 28.0055 140.516 28.0055C137.282 28.0055 135.45 25.344 135.45 22.2812C135.416 16.8571 139.316 11.5005 146.053 11.5005C148.152 11.5005 150.187 11.966 151.687 12.6305L149.22 26.0086C148.618 29.1692 147.719 31.6991 145.887 33.2306C144.187 34.6271 141.919 35.0285 139.884 35.0285C137.785 35.0285 135.848 34.5967 134.784 33.9322L135.747 30.9671ZM147.483 14.931C147.05 14.732 146.215 14.533 145.316 14.533C141.916 14.533 139.516 18.1929 139.516 21.6875C139.516 23.3842 140.182 24.9831 142.115 24.9831C144.048 24.9831 145.982 22.686 146.55 19.7581L147.483 14.931Z" fill="white"/>
<path d="M163.788 28.0731C163.788 27.1084 163.92 25.8097 164.055 24.4469H163.988C162.385 27.4086 160.219 28.4408 158.154 28.4408C155.254 28.4408 153.351 26.1774 153.351 22.9155C153.351 17.3901 157.217 11.5005 164.789 11.5005C166.556 11.5005 168.456 11.8344 169.724 12.2325L168.023 20.6858C167.557 23.0808 167.29 26.1436 167.358 28.0731H163.788ZM165.357 14.6646C164.958 14.5634 164.457 14.4993 163.758 14.4993C160.188 14.4993 157.39 18.5269 157.39 22.2206C157.39 23.9173 158.022 25.3138 159.725 25.3138C161.561 25.3138 163.761 23.0504 164.528 18.925L165.357 14.6646Z" fill="white"/>
<path d="M171.19 28.0731L173.09 18.0917C173.523 15.7946 173.756 13.2984 173.925 11.8682H177.291C177.19 12.9678 177.092 14.0979 176.926 15.2616H177.028C178.13 13.0994 179.894 11.5005 182.095 11.5005C182.395 11.5005 182.696 11.5342 182.96 11.5342L182.193 15.3291C181.993 15.2954 181.726 15.2954 181.459 15.2954C178.691 15.2954 176.923 18.0917 176.291 21.5527L175.057 28.0731H171.19Z" fill="white"/>
<path d="M49.447 18.0917H41.3788L40.1113 24.7808H49.18L48.5479 28.0764H35.5786L39.8476 5.64795H52.3167L51.6846 8.94357H43.1161L41.9838 14.8332H50.0858L49.447 18.0917Z" fill="white"/>
<path d="M51.9819 28.0732L56.4842 4.44727H60.3848L55.8487 28.0732H51.9819Z" fill="white"/>
<path d="M60.2837 28.0732L63.3832 11.8683H67.25L64.1505 28.0732H60.2837ZM63.9849 7.4764C63.9849 6.11362 65.053 5.14551 66.3205 5.14551C67.5542 5.14551 68.3891 5.97869 68.3891 7.20991C68.3553 8.64015 67.2872 9.5408 65.9554 9.5408C64.7859 9.5408 63.9849 8.70762 63.9849 7.4764Z" fill="white"/>
<path d="M76.8221 7.70898L76.0548 11.8681H79.6884L79.0867 14.8636H75.4565L74.189 21.384C74.0234 22.1497 73.8882 22.9829 73.8882 23.6811C73.8882 24.5784 74.287 25.1451 75.3213 25.1451C75.7878 25.1451 76.2542 25.1114 76.6565 25.0439L76.2914 28.0731C75.7236 28.3058 74.6893 28.407 73.7564 28.407C71.0895 28.407 69.9234 26.943 69.9234 25.081C69.9234 24.1838 70.0248 23.2831 70.258 22.0856L71.6573 14.8636H69.4907L70.0586 11.8681H72.2252L72.8268 8.839L76.8221 7.70898Z" fill="white"/>
<path d="M92.2622 27.1421C90.6601 27.9753 88.4935 28.4408 86.5263 28.4408C82.024 28.4408 79.8574 25.6781 79.8574 21.718C79.8574 16.8268 83.4572 11.5005 89.0613 11.5005C92.2622 11.5005 94.2971 13.3322 94.2971 16.0577C94.2971 20.2169 89.93 21.5493 83.66 21.4144C83.5924 21.9811 83.7276 23.0774 84.0926 23.7115C84.7247 24.8078 85.8942 25.3745 87.4254 25.3745C89.2608 25.3745 90.7277 24.909 91.8938 24.3086L92.2622 27.1421ZM88.5611 14.3981C86.1274 14.3981 84.5253 16.5603 84.0588 18.5235C88.0608 18.5573 90.6263 18.0243 90.6263 16.0611C90.6297 15.0289 89.7948 14.3981 88.5611 14.3981Z" fill="white"/>
</svg>
