<svg width="189" height="37" viewBox="0 0 189 37" fill="none" xmlns="http://www.w3.org/2000/svg">
<g id="Logo">
<g id="Group">
<g id="Group_2">
<path id="Vector" d="M13.1852 30.4703C13.3214 30.6319 13.4592 30.792 13.6181 30.9793C13.668 31.0382 13.665 31.1303 13.6105 31.1847C12.6782 32.1167 11.6005 32.7782 10.3019 33.0199C7.86819 33.4746 5.83552 32.6257 4.10405 30.9702C1.60219 28.5792 0.318723 25.6157 0.0462881 22.1885C-0.259444 18.3428 0.955917 15.0229 3.49713 12.1575C3.95572 11.6394 3.95572 11.647 4.48546 12.0986C4.99249 12.5306 5.49347 12.9717 6.21693 12.9973C7.04332 13.0276 7.59878 12.5865 8.04527 11.9642C9.02755 10.5927 9.49523 9.00673 9.88269 7.39961C10.3897 5.29857 10.7802 3.23378 10.8589 1.06779C10.8589 1.04966 10.8619 1.02549 10.8665 0.995285C10.8801 0.889553 10.9755 0.833666 11.0738 0.872938C13.9268 2.01786 16.0851 3.99958 17.9013 6.40422C19.6676 8.74391 21.0056 11.2905 21.7169 14.2102C21.7608 14.393 21.8804 14.4157 21.9879 14.2616C22.0817 14.1272 22.1725 13.9912 22.2512 13.8492C22.5797 13.2526 22.8869 12.6454 23.2093 12.0458C23.4045 11.6833 23.6225 11.653 23.9131 11.9763C26.1152 14.4277 27.4441 17.2236 27.5243 20.5798C27.5788 22.8531 27.2413 25.0281 26.2621 27.0793C25.0603 29.5927 23.3818 31.6741 20.7029 32.7329C18.3115 33.6785 15.6084 32.9731 13.9753 31.159C13.9299 31.1077 13.9268 31.0216 13.9677 30.9672C14.0434 30.8675 14.1206 30.7663 14.1978 30.6651C14.2008 30.6606 14.2068 30.6545 14.2114 30.65C14.4081 30.4521 14.6064 30.2558 14.8032 30.0579C16.6527 28.2137 18.5007 26.3709 20.3502 24.5266C20.3623 24.504 20.3805 24.4707 20.3911 24.4481L20.5894 23.4376C20.5894 23.4361 20.5909 23.4316 20.5909 23.43L20.8225 22.5056C20.8225 22.4845 20.8225 22.4528 20.8225 22.4316C20.6893 21.9151 20.5561 21.4 20.4229 20.8834C20.4183 20.8729 20.4123 20.8562 20.4077 20.8457L19.9461 20.0391C19.9386 20.03 19.928 20.0149 19.9204 20.0058C19.6858 19.7747 19.4512 19.5436 19.2166 19.3125L19.2196 19.3156C18.4311 18.6359 17.5063 18.5483 16.515 18.7537C16.5104 18.7552 16.5044 18.7567 16.5013 18.7567L15.3798 19.083C15.3677 19.089 15.348 19.0981 15.3359 19.1041C14.8486 19.4424 14.3612 19.7808 13.8739 20.1206C13.8163 20.1206 13.7588 20.1206 13.7013 20.1206C13.2896 19.8382 12.8795 19.5542 12.4678 19.2718C12.4602 19.2672 12.4496 19.2612 12.4421 19.2582L11.6732 18.9259C11.6656 18.9229 11.655 18.9198 11.6475 18.9168C11.3796 18.8534 11.1132 18.7914 10.8453 18.728C10.8362 18.7265 10.8211 18.725 10.8105 18.7235L9.61782 18.722C9.59663 18.7265 9.56636 18.7356 9.54517 18.7401L8.33284 19.3941L8.11489 19.5104C8.10278 19.5195 8.08462 19.5346 8.07403 19.5436L7.74256 19.9152C7.73954 19.9182 7.735 19.9243 7.73197 19.9288L7.52008 20.2279H7.52462C7.40354 20.4288 7.28245 20.6297 7.16137 20.829C7.15683 20.8396 7.14926 20.8562 7.14472 20.8668C7.03877 21.249 6.93283 21.6326 6.82688 22.0148C6.82537 22.0268 6.82234 22.045 6.82083 22.0555L6.82537 22.6159C6.82537 22.622 6.82688 22.631 6.82688 22.6371L6.96764 23.5856C6.97218 23.6007 6.97975 23.6234 6.9858 23.637L7.59121 24.717C7.60332 24.7396 7.6124 24.7789 7.60937 24.8046L7.60483 24.8574C7.623 24.8982 7.64418 24.9481 7.66235 24.9888C8.18149 25.3982 8.5856 25.9238 9.05328 26.386C10.426 27.7454 11.8018 29.1003 13.1761 30.4567C13.1776 30.4627 13.1822 30.4672 13.1852 30.4703Z" fill="#F16667"/>
</g>
</g>
<g id="Group_3">
<path id="Vector_2" d="M38.0875 25.258C39.3952 26.1176 41.2539 26.7336 43.3149 26.7336C45.5502 26.7336 47.5797 25.5329 47.5797 23.2986C47.5797 21.7883 46.5824 20.7581 44.3471 19.5575C41.6654 18.1167 39.6358 16.2966 39.6358 13.5159C39.6358 9.08569 43.4892 6.33984 48.1656 6.33984C50.7462 6.33984 52.4305 6.95931 53.3267 7.5057L52.019 10.8014C51.2623 10.3907 49.7139 9.73648 47.8552 9.77128C45.2747 9.77128 43.831 11.2469 43.831 12.7921C43.831 14.372 45.1387 15.3326 47.3043 16.5332C50.1254 18.0088 51.8098 19.8637 51.8098 22.6792C51.8098 27.3148 48.0261 30.1615 42.865 30.1615C40.0438 30.1267 37.7388 29.3367 36.7065 28.5467L38.0875 25.258Z" fill="white"/>
<path id="Vector_3" d="M71.4218 13.105L69.2213 24.6417C68.8447 26.6323 68.6006 28.3829 68.3948 29.8271H64.8169L65.1971 26.9108H65.1273C63.5092 29.0719 61.4134 30.2065 59.3141 30.2065C56.873 30.2065 54.9446 28.9014 54.9446 25.47C54.9446 24.5791 55.0492 23.6151 55.2898 22.484L57.0788 13.1119H61.0682L59.349 22.2439C59.1781 23.0687 59.0735 23.89 59.0735 24.5443C59.0735 25.9189 59.6244 26.9142 61.2077 26.9142C63.0664 26.9142 65.1971 24.7183 65.8875 21.2485L67.3975 13.105H71.4218Z" fill="white"/>
<path id="Vector_4" d="M73.28 32.8096C74.2425 33.3942 76.1012 33.8049 77.6844 33.8049C80.2998 33.8049 82.2945 32.5694 83.121 28.6891L83.5325 26.8028H83.4627C82.0853 28.7935 80.3312 29.754 78.2005 29.754C74.8632 29.754 72.9731 27.0081 72.9731 23.8482C72.9382 18.2521 76.9625 12.7256 83.9126 12.7256C86.0781 12.7256 88.1775 13.2058 89.7258 13.8914L87.1801 27.6937C86.5594 30.9546 85.6318 33.5648 83.7417 35.1447C81.9876 36.5855 79.6477 36.9997 77.5484 36.9997C75.3828 36.9997 73.3846 36.5542 72.2861 35.8686L73.28 32.8096ZM85.3877 16.2649C84.9413 16.0596 84.08 15.8542 83.1524 15.8542C79.6442 15.8542 77.1683 19.6302 77.1683 23.2357C77.1683 24.9862 77.8552 26.6358 79.8499 26.6358C81.8446 26.6358 83.8393 24.2658 84.4252 21.245L85.3877 16.2649Z" fill="white"/>
<path id="Vector_5" d="M102.211 29.8236C102.211 28.8283 102.347 27.4884 102.486 26.0824H102.417C100.764 29.138 98.5284 30.2029 96.3977 30.2029C93.4057 30.2029 91.4424 27.8677 91.4424 24.5024C91.4424 18.8019 95.4318 12.7256 103.243 12.7256C105.067 12.7256 107.027 13.0701 108.335 13.4808L106.58 22.2021C106.099 24.673 105.824 27.8329 105.893 29.8236H102.211ZM103.829 15.99C103.418 15.8856 102.901 15.8194 102.18 15.8194C98.4971 15.8194 95.6096 19.9748 95.6096 23.7855C95.6096 25.536 96.2617 26.9768 98.0193 26.9768C99.9129 26.9768 102.183 24.6416 102.975 20.3854L103.829 15.99Z" fill="white"/>
<path id="Vector_6" d="M109.848 29.8236L111.807 19.5258C112.254 17.1558 112.494 14.5805 112.669 13.1049H116.142C116.037 14.2395 115.936 15.4053 115.765 16.606H115.87C117.007 14.3752 118.827 12.7256 121.097 12.7256C121.408 12.7256 121.718 12.7604 121.99 12.7604L121.199 16.6756C120.993 16.6408 120.717 16.6408 120.442 16.6408C117.586 16.6408 115.762 19.5258 115.11 23.0964L113.837 29.8236H109.848Z" fill="white"/>
<path id="Vector_7" d="M142.53 19.5258H134.206L132.899 26.427H142.255L141.603 29.8271H128.222L132.627 6.6875H145.491L144.839 10.0876H135.999L134.83 16.164H143.189L142.53 19.5258Z" fill="white"/>
<path id="Vector_8" d="M145.145 29.8238L149.79 5.44873H153.815L149.135 29.8238H145.145Z" fill="white"/>
<path id="Vector_9" d="M153.711 29.8236L156.908 13.1049H160.898L157.7 29.8236H153.711ZM157.529 8.57373C157.529 7.16775 158.631 6.16895 159.939 6.16895C161.212 6.16895 162.073 7.02854 162.073 8.2988C162.038 9.77439 160.936 10.7036 159.562 10.7036C158.356 10.7036 157.529 9.84399 157.529 8.57373Z" fill="white"/>
<path id="Vector_10" d="M170.773 8.81396L169.982 13.105H173.73L173.11 16.1954H169.364L168.057 22.9225C167.886 23.7125 167.746 24.5721 167.746 25.2925C167.746 26.2182 168.158 26.8029 169.225 26.8029C169.706 26.8029 170.187 26.7681 170.602 26.6985L170.226 29.8237C169.64 30.0638 168.573 30.1682 167.61 30.1682C164.859 30.1682 163.656 28.6578 163.656 26.7368C163.656 25.811 163.76 24.8818 164.001 23.6464L165.445 16.1954H163.209L163.795 13.105H166.031L166.651 9.97981L170.773 8.81396Z" fill="white"/>
<path id="Vector_11" d="M186.702 28.8631C185.049 29.7227 182.814 30.2029 180.784 30.2029C176.139 30.2029 173.904 27.3527 173.904 23.267C173.904 18.2208 177.618 12.7256 183.4 12.7256C186.702 12.7256 188.802 14.6153 188.802 17.4273C188.802 21.7183 184.296 23.093 177.827 22.9538C177.757 23.5384 177.897 24.6695 178.274 25.3237C178.926 26.4548 180.132 27.0395 181.712 27.0395C183.606 27.0395 185.119 26.5592 186.322 25.9397L186.702 28.8631ZM182.884 15.715C180.373 15.715 178.72 17.9458 178.239 19.9713C182.368 20.0061 185.014 19.4562 185.014 17.4308C185.018 16.3658 184.157 15.715 182.884 15.715Z" fill="white"/>
</g>
</g>
</svg>
