<svg width="232" height="47" viewBox="0 0 232 47" fill="none" xmlns="http://www.w3.org/2000/svg">
<g clip-path="url(#clip0_3333_55)">
<path d="M18.2217 41.3477C18.412 41.573 18.6002 41.7984 18.8198 42.0593C18.8884 42.1404 18.8845 42.2709 18.81 42.346C17.5198 43.6487 16.0317 44.5719 14.2376 44.9099C10.875 45.5445 8.06535 44.3604 5.67134 42.0475C2.21462 38.7086 0.440193 34.5691 0.0637388 29.7832C-0.357811 24.4141 1.32055 19.7764 4.83412 15.7753C5.46742 15.0518 5.46938 15.0637 6.20073 15.6943C6.90069 16.2972 7.59478 16.912 8.59278 16.9496C9.73391 16.9911 10.5044 16.3763 11.1201 15.5065C12.4789 13.5909 13.124 11.3769 13.6612 9.13315C14.3612 6.19952 14.9023 3.31532 15.0102 0.290756C15.0102 0.265058 15.014 0.231451 15.02 0.187961C15.0395 0.0396982 15.169 -0.0373984 15.3062 0.017953C19.2492 1.61721 22.2334 4.38478 24.7431 7.74145C27.1842 11.0072 29.035 14.5635 30.0154 18.6437C30.0762 18.8987 30.2428 18.9303 30.3899 18.7149C30.5193 18.5271 30.6448 18.3373 30.7526 18.1396C31.2056 17.3074 31.631 16.4573 32.0761 15.6211C32.3447 15.1151 32.6486 15.0735 33.0486 15.5223C36.0916 18.9462 37.9287 22.8504 38.0405 27.5375C38.115 30.7123 37.6503 33.7487 36.2955 36.6132C34.6347 40.122 32.3152 43.028 28.6115 44.5086C25.3058 45.8292 21.5707 44.8427 19.312 42.3104C19.2492 42.2392 19.2433 42.1186 19.3021 42.0415C19.408 41.9032 19.5139 41.7608 19.6197 41.6205C19.6257 41.6145 19.6335 41.6047 19.6374 41.5987C19.9099 41.324 20.1825 41.0472 20.455 40.7724C23.0098 38.1986 25.5666 35.6228 28.1214 33.0489C28.137 33.0173 28.1625 32.9718 28.1782 32.9402L28.4507 31.5287C28.4507 31.5248 28.4527 31.5208 28.4527 31.5188L28.7743 30.228C28.7743 30.1983 28.7743 30.1529 28.7743 30.1232C28.59 29.4036 28.4076 28.6821 28.2233 27.9625C28.2175 27.9487 28.2076 27.925 28.2017 27.9111L27.5625 26.7843C27.5527 26.7725 27.5371 26.7507 27.5272 26.7389C27.2037 26.4166 26.8783 26.0944 26.5547 25.7702L26.5587 25.7742C25.4685 24.8253 24.1921 24.7027 22.8196 24.9894C22.8137 24.9913 22.8059 24.9933 22.8 24.9933L21.2511 25.448C21.2334 25.4559 21.208 25.4697 21.1903 25.4776C20.5157 25.9501 19.8433 26.4245 19.1688 26.897C19.0884 26.897 19.0099 26.897 18.9296 26.897C18.361 26.5016 17.7924 26.1063 17.2257 25.7109C17.2159 25.705 17.2002 25.6971 17.1904 25.6911L16.1278 25.2285C16.1179 25.2246 16.1023 25.2206 16.0925 25.2167C15.7219 25.1297 15.3532 25.0408 14.9827 24.9538C14.969 24.9518 14.9474 24.9498 14.9357 24.9478L13.2866 24.9459C13.2593 24.9538 13.2161 24.9637 13.1867 24.9716L11.5103 25.8849L11.2103 26.047C11.1947 26.0588 11.1692 26.0806 11.1535 26.0924L10.6947 26.6104C10.6907 26.6143 10.6829 26.6242 10.679 26.6301L10.3868 27.0492H10.3927C10.226 27.3299 10.0594 27.6087 9.89076 27.8894C9.88488 27.9032 9.87507 27.9269 9.86919 27.9427C9.72214 28.4765 9.57705 29.0122 9.43 29.546C9.42804 29.5618 9.42412 29.5875 9.42215 29.6033L9.42803 30.3861C9.42803 30.394 9.43 30.4079 9.43 30.4158L9.62411 31.7402C9.62999 31.76 9.64175 31.7916 9.64764 31.8134L10.4848 33.3217C10.5025 33.3533 10.5143 33.4087 10.5103 33.4443L10.5025 33.5194C10.528 33.5767 10.5574 33.6459 10.5809 33.7033C11.2985 34.2746 11.8573 35.008 12.5024 35.6544C14.3984 37.5521 16.3002 39.444 18.2002 41.3378C18.212 41.3378 18.2179 41.3437 18.2217 41.3477Z" fill="#F16667"/>
<path d="M46.5415 35.607L49.9708 30.7045C51.7806 32.5291 54.5686 34.0493 57.9979 34.0493C60.2213 34.0493 61.5781 33.1755 61.5781 31.9598C61.5781 28.5023 47.3317 31.2758 47.3317 21.5102C47.3317 17.2541 50.9119 13.4546 57.3568 13.4546C61.3899 13.4546 64.8956 14.6703 67.57 16.9892L64.0271 21.6624C61.9174 19.9149 59.1645 19.0411 56.6784 19.0411C54.7942 19.0411 53.9648 19.8002 53.9648 20.8658C53.9648 24.0959 68.174 21.7395 68.174 31.1631C68.174 36.2554 64.4428 39.6378 57.696 39.6378C52.61 39.6338 49.0669 38.0385 46.5415 35.607Z" fill="#232323"/>
<path d="M81.4424 39.1772V36.973C80.3111 38.2659 78.2014 39.6338 75.1486 39.6338C71.0018 39.6338 69.1567 37.2775 69.1567 33.8951V20.8223H74.9604V31.5011C74.9604 33.7053 76.0917 34.4644 77.976 34.4644C79.6347 34.4644 80.766 33.5531 81.4444 32.6793V20.8223H87.248V39.1772H81.4424Z" fill="#232323"/>
<path d="M89.0932 43.8901L91.6185 39.709C93.0125 41.2292 95.0478 41.8361 97.1595 41.8361C99.081 41.8361 101.794 41.0375 101.794 37.6176V36.212C100.286 37.9991 98.477 38.8728 96.4046 38.8728C91.9577 38.8728 88.3755 35.7949 88.3755 29.6015C88.3755 23.5603 91.844 20.3677 96.4046 20.3677C98.4398 20.3677 100.324 21.1663 101.794 22.989V20.8223H107.561V37.5424C107.561 45.0287 101.681 46.624 97.1575 46.624C94.0321 46.626 91.4302 45.8293 89.0932 43.8901ZM101.796 32.0725V27.17C101.081 26.1816 99.5356 25.5351 98.3281 25.5351C96.0281 25.5351 94.3322 26.9407 94.3322 29.6015C94.3322 32.2999 96.0281 33.7054 98.3281 33.7054C99.5337 33.7054 101.079 33.0609 101.796 32.0725Z" fill="#232323"/>
<path d="M120.678 39.1773V37.3527C119.547 38.7207 117.361 39.632 115.026 39.632C112.236 39.632 108.769 37.7323 108.769 33.5908C108.769 29.1449 112.237 27.6998 115.026 27.6998C117.438 27.6998 119.586 28.4589 120.678 29.8269V27.6227C120.678 26.0274 119.321 24.9619 116.984 24.9619C115.174 24.9619 113.291 25.6459 111.82 26.8992L109.748 23.2124C112.085 21.198 115.212 20.3618 118.002 20.3618C122.374 20.3618 126.482 21.9967 126.482 27.6959V39.1714H120.678V39.1773ZM120.678 34.4665V32.8317C120.074 31.9955 118.718 31.5388 117.438 31.5388C115.892 31.5388 114.536 32.2228 114.536 33.6679C114.536 35.113 115.892 35.795 117.438 35.795C118.718 35.797 120.074 35.3403 120.678 34.4665Z" fill="#232323"/>
<path d="M128.819 39.1773V20.8223H134.623V23.0641C135.828 21.5814 138.128 20.3281 140.314 20.3281V25.9522C139.975 25.8771 139.485 25.8 138.883 25.8C137.375 25.8 135.378 26.4464 134.625 27.4724V39.1773H128.819Z" fill="#232323"/>
<path d="M165.08 39.1775V22.6848L158.71 39.1775H155.845L149.513 22.6848V39.1775H143.032V13.8325H152.04L157.278 27.5893L162.554 13.8325H171.562V39.1795H165.08V39.1775Z" fill="#232323"/>
<path d="M185.784 39.1773V37.3527C184.653 38.7207 182.467 39.632 180.132 39.632C177.343 39.632 173.875 37.7323 173.875 33.5908C173.875 29.1449 177.343 27.6998 180.132 27.6998C182.544 27.6998 184.692 28.4589 185.784 29.8269V27.6227C185.784 26.0274 184.427 24.9619 182.09 24.9619C180.28 24.9619 178.397 25.6459 176.926 26.8992L174.854 23.2124C177.191 21.198 180.318 20.3618 183.108 20.3618C187.48 20.3618 191.588 21.9967 191.588 27.6959V39.1714H185.784V39.1773ZM185.784 34.4665V32.8317C185.181 31.9955 183.824 31.5388 182.544 31.5388C180.998 31.5388 179.642 32.2228 179.642 33.6679C179.642 35.113 180.998 35.795 182.544 35.795C183.824 35.797 185.181 35.3403 185.784 34.4665Z" fill="#232323"/>
<path d="M205.458 39.1775L201.462 32.6797L199.729 34.7692V39.1775H193.925V13.8325H199.729V28.1587L205.269 20.8246H212.28L205.57 29.1846L212.619 39.1795H205.458V39.1775Z" fill="#232323"/>
<path d="M212.103 29.983C212.103 24.6633 216.099 20.3696 221.789 20.3696C227.178 20.3696 231.098 24.3589 231.098 30.5919V31.8452H218.132C218.471 33.5551 220.053 35.1129 222.692 35.1129C223.975 35.1129 226.199 34.5435 227.216 33.5551L229.665 37.2024C227.855 38.8372 224.84 39.6339 222.052 39.6339C216.436 39.6339 212.103 35.9471 212.103 29.983ZM221.789 24.8907C219.264 24.8907 218.283 26.7153 218.058 28.0457H225.557C225.408 26.7528 224.465 24.8907 221.789 24.8907Z" fill="#232323"/>
</g>
<defs>
<clipPath id="clip0_3333_55">
<rect width="232" height="47" fill="white"/>
</clipPath>
</defs>
</svg>
