<svg width="33" height="22" viewBox="0 0 33 22" fill="none" xmlns="http://www.w3.org/2000/svg">
<path d="M0.20232 20.8825C5.14907 36.1372 24.8134 35.6787 30.8822 23.5102C37.3461 10.5481 23.9503 -3.58669 10.1094 1.59373C3.28211 4.15087 -2.30967 11.593 0.20232 20.8825C0.929115 23.3823 2.5099 25.675 4.92195 27.4341C2.5099 25.675 0.933658 23.3823 0.20232 20.8825Z" fill="#A4021A"/>
<path d="M4.91684 27.4336C-6.02143 17.4828 1.83705 2.81894 11.8168 2.99089C22.3372 3.17165 26.8706 18.8496 18.5533 26.2917C13.0024 31.2561 7.94212 28.8621 4.91684 27.4336C2.50479 25.6745 0.928544 23.3775 0.197207 20.8821C0.283513 21.1466 0.397077 21.4993 0.483384 21.7638C0.628743 22.143 0.82861 22.65 0.992139 23.0204L1.31012 23.6685C1.42822 23.8889 1.58721 24.1843 1.7144 24.4003L2.00967 24.8853C2.10961 25.0352 2.23678 25.2336 2.33672 25.3791L2.60926 25.7627C2.69556 25.8773 2.80461 26.0272 2.89091 26.1374L3.14075 26.4549C3.21797 26.5475 3.32245 26.6709 3.39967 26.7635L3.64495 27.0413C3.71763 27.1206 3.81756 27.2308 3.89478 27.3102L4.14009 27.5659C4.21732 27.6409 4.31724 27.7423 4.38992 27.8128L4.6443 28.0553C4.72152 28.1258 4.82598 28.2272 4.90774 28.2934L5.18486 28.5359C5.27116 28.6064 5.38925 28.7078 5.4801 28.7784L5.80263 29.0341C5.9071 29.1134 6.04338 29.2192 6.14786 29.2942L6.58846 29.6028C7.6196 30.2774 8.30099 30.6698 9.61376 31.2297L10.4677 31.5515C11.617 31.9175 11.7124 31.9483 12.4937 32.1203L13.5839 32.3143C14.0926 32.3716 14.7649 32.4465 15.2737 32.4774L16.4683 32.4906C16.9271 32.4642 17.5358 32.4333 17.9946 32.3848L19.2165 32.1996C19.639 32.1026 20.2113 31.9836 20.6338 31.869L21.833 31.4854C22.2282 31.3223 22.7597 31.1195 23.1503 30.9431L24.295 30.3611C24.6584 30.1363 25.1535 29.8497 25.5033 29.6116L26.5572 28.8313C26.9206 28.5138 27.4157 28.095 27.7655 27.7555L28.6739 26.79C28.9374 26.4593 29.3053 26.0228 29.5552 25.6789L30.2638 24.612C30.4637 24.246 30.7453 23.7699 30.9316 23.3951L31.4358 22.2532C31.572 21.8608 31.7628 21.3494 31.8855 20.9526L32.1853 19.771C32.258 19.361 32.3625 18.8099 32.417 18.3955L32.5169 17.2139C32.5169 16.7774 32.5305 16.1999 32.5169 15.7634L32.4215 14.6523C32.208 13.2724 32.1853 13.1313 31.9082 12.1349L31.622 11.2531C31.4767 10.8739 31.2722 10.3669 31.1132 9.99658L30.7953 9.34848C30.6772 9.12803 30.5182 8.83264 30.391 8.6166L30.0957 8.13163C29.9958 7.98172 29.8686 7.78333 29.7687 7.63783L29.5007 7.25427C29.4144 7.13963 29.3054 6.98973 29.219 6.87951L28.9692 6.56207C28.892 6.46948 28.7875 6.34603 28.7103 6.25344L28.465 5.9757C28.3923 5.89634 28.2924 5.78611 28.2152 5.70675L27.9699 5.45544C27.8926 5.38049 27.7973 5.27909 27.72 5.20854L27.4657 4.96606C27.3884 4.89552 27.2794 4.79852 27.2022 4.72798L26.9251 4.4855C26.8388 4.41055 26.7207 4.31354 26.6298 4.243L26.3073 3.98729C26.2029 3.90793 26.0666 3.80653 25.9621 3.72717L25.5215 3.41415C24.1996 2.55001 23.491 2.20611 22.31 1.71232L21.4332 1.39488C20.2477 1.03776 20.175 1.01572 19.4391 0.861408L18.3353 0.67623C17.8311 0.623323 17.1634 0.557201 16.6591 0.535156H15.4599C15.0057 0.566018 14.397 0.601284 13.9427 0.654191L12.7208 0.852582C12.2983 0.953986 11.7305 1.07745 11.3126 1.19649L10.1134 1.59328C9.71823 1.75641 9.18675 1.96803 8.80064 2.14879L7.66503 2.74399C7.30163 2.97325 6.81106 3.26424 6.46129 3.50673L5.41653 4.29592C5.09401 4.5869 4.65337 4.96165 4.33994 5.26145L3.43144 6.22699C2.99537 6.77369 2.4321 7.51438 2.04145 8.08753L1.40097 9.18535C1.21927 9.56011 0.969443 10.0495 0.810457 10.4331L0.37437 11.5926C0.260808 11.9894 0.0972711 12.5185 -0.00266317 12.9197L-0.234306 14.11C-0.27973 14.5289 -0.35696 15.0888 -0.384215 15.5077L-0.416016 16.6804C-0.393303 17.1257 -0.37059 17.7209 -0.329708 18.1662L-0.175251 19.2464C-0.0707747 19.7402 0.0791157 20.3971 0.210847 20.8821C0.937642 23.3775 2.51843 25.6745 4.93048 27.4336" fill="#A4021A"/>
<path d="M1.26501 23.3946C-4.54027 11.3981 5.59397 -0.0605386 15.4466 3.28579C25.7534 6.78643 26.3394 23.7694 16.3142 28.5266C8.5375 32.2124 3.06837 26.785 1.26501 23.399C0.810762 22.5966 0.456437 21.7545 0.202059 20.8904C0.288366 21.1549 0.40193 21.5076 0.488237 21.7722C0.638138 22.1513 0.833467 22.6584 1.00154 23.0287L1.31952 23.6768C1.44216 23.8972 1.59661 24.1926 1.7238 24.4087L2.01905 24.8937C2.11898 25.0436 2.24618 25.2419 2.34612 25.3874L2.61866 25.771C2.70496 25.8856 2.81398 26.0355 2.90029 26.1458L3.15012 26.4632C3.22734 26.5558 3.33182 26.6792 3.40904 26.7718L3.65435 27.0496C3.72703 27.1289 3.82696 27.2392 3.90418 27.3185L4.14947 27.5698C4.22669 27.6448 4.32207 27.7462 4.3993 27.8211L4.65367 28.0636C4.73544 28.1342 4.83992 28.2312 4.91714 28.3061L5.19423 28.5486C5.28054 28.6235 5.39865 28.7205 5.4895 28.7911L5.81203 29.0468C5.9165 29.1262 6.05275 29.2276 6.15723 29.3069L6.59786 29.6155C7.629 30.2901 8.31036 30.6825 9.62314 31.2424L10.4771 31.5643C11.6264 31.9302 11.7218 31.9611 12.5031 32.133L13.5933 32.327C14.0975 32.3843 14.7743 32.4548 15.2831 32.4901L16.4777 32.5033C16.9365 32.4769 17.5497 32.446 18.004 32.3975L19.2259 32.2124C19.6529 32.1154 20.2207 31.9963 20.6432 31.8817L21.8424 31.4937C22.2376 31.335 22.7691 31.1278 23.1597 30.9514L24.3044 30.3695C24.6678 30.1446 25.1629 29.858 25.5127 29.6199L26.5666 28.8396C26.93 28.5221 27.4251 28.1033 27.7749 27.7682L28.6833 26.8027C28.9468 26.472 29.3148 26.0355 29.5646 25.6917L30.2732 24.6247C30.4731 24.2588 30.7547 23.7826 30.9364 23.4079L31.4406 22.266C31.5769 21.878 31.7722 21.3577 31.8903 20.9653L32.1901 19.7838C32.2628 19.3737 32.3673 18.827 32.4218 18.4082L32.5217 17.2266C32.5217 16.7901 32.5354 16.2082 32.5172 15.7761L32.4218 14.6651C32.2083 13.2851 32.1856 13.144 31.9085 12.1476L31.6223 11.2614C31.477 10.8823 31.2725 10.3752 31.1136 10.0049L30.7956 9.3524C30.6775 9.13195 30.5185 8.83656 30.3913 8.62052L30.096 8.13554C29.9961 7.98564 29.8689 7.78725 29.769 7.64175L29.4964 7.25818C29.4101 7.14355 29.3011 6.99365 29.2148 6.88343L28.9604 6.56599C28.8832 6.4734 28.7833 6.34995 28.7015 6.25736L28.4562 5.9796C28.3835 5.90024 28.2836 5.79003 28.2064 5.71067L27.9611 5.45495C27.8884 5.38 27.7885 5.27859 27.7113 5.20805L27.4569 4.96557C27.3751 4.89503 27.2752 4.79803 27.1934 4.72749L26.9163 4.485C26.8255 4.41005 26.7119 4.31305 26.6211 4.24251L26.3031 3.9868C26.1986 3.90744 26.0623 3.80604 25.9579 3.72668L25.5173 3.41805C24.1954 2.55391 23.4868 2.21003 22.3057 1.71624L21.429 1.3988C20.2435 1.04168 20.1708 1.01964 19.4349 0.865328L18.3311 0.680149C17.8269 0.631652 17.1591 0.565516 16.6549 0.539062H15.4557C15.0014 0.569925 14.3927 0.605204 13.9385 0.658111L12.7166 0.856501C12.2941 0.957905 11.7263 1.08135 11.3084 1.20039L10.1092 1.59719C9.71399 1.76032 9.18254 1.97195 8.79643 2.15271L7.66081 2.74791C7.29742 2.97717 6.80682 3.26816 6.45705 3.51065L5.41229 4.29983C5.08977 4.59081 4.64915 4.96557 4.33572 5.26537L3.42723 6.23091C2.99115 6.77761 2.42789 7.5183 2.03723 8.09145L1.39673 9.18926C1.21503 9.56401 0.965197 10.0578 0.801668 10.437L0.365581 11.5965C0.25202 11.9933 0.0885106 12.5224 -0.0114237 12.9236L-0.243094 14.114C-0.293061 14.5328 -0.365753 15.0927 -0.39755 15.5116L-0.429351 16.6799C-0.406638 17.1252 -0.383925 17.7204 -0.343043 18.1657L-0.188587 19.2459C-0.0841099 19.7397 0.0658038 20.3966 0.192993 20.8816C0.447371 21.7457 0.801668 22.5878 1.25592 23.3902" fill="#9F0219"/>
<path d="M1.50031 9.00409C7.24653 -1.08339 20.3152 0.591975 23.6994 11.8434C27.1471 23.3065 16.1543 34.0994 6.4062 28.8264C4.4166 27.7506 1.74108 25.5506 0.296574 21.1902C0.264776 21.0888 0.232969 20.9874 0.201172 20.886C0.287479 21.1505 0.401043 21.5032 0.48735 21.7722C0.637251 22.1513 0.832579 22.6584 1.00065 23.0287L1.31863 23.6812C1.43673 23.9017 1.59573 24.197 1.72292 24.4131L2.01816 24.8981C2.11809 25.048 2.2453 25.2463 2.34523 25.3918L2.61777 25.7754C2.70408 25.8856 2.81309 26.0399 2.8994 26.1502L3.15378 26.4676C3.231 26.5602 3.33548 26.6836 3.4127 26.7718L3.65798 27.0496C3.73066 27.1289 3.83062 27.2392 3.9033 27.3185L4.14858 27.5698C4.2258 27.6448 4.32119 27.7462 4.39841 27.8167L4.65279 28.0592C4.73455 28.1298 4.83449 28.2267 4.91626 28.2973L5.19334 28.5398C5.27965 28.6147 5.39776 28.7117 5.48407 28.7823L5.80659 29.038C5.91107 29.1173 6.04732 29.2187 6.15634 29.2981L6.59698 29.6067C7.62812 30.2813 8.30947 30.6781 9.62225 31.238L10.4762 31.5599C11.6255 31.9258 11.7209 31.9522 12.5022 32.1286L13.5924 32.327C14.0966 32.3843 14.7734 32.4548 15.2822 32.4901L16.4768 32.5033C16.9356 32.4769 17.5443 32.446 18.0031 32.3975L19.225 32.2124C19.652 32.1154 20.2198 31.9963 20.6423 31.8817L21.8415 31.4937C22.2367 31.3306 22.7682 31.1278 23.1588 30.9514L24.3035 30.365C24.6669 30.1402 25.1575 29.8536 25.5118 29.6155L26.5657 28.8352C26.9291 28.5177 27.4242 28.0989 27.774 27.7594L28.6825 26.7939C28.9459 26.4632 29.3139 26.0267 29.5637 25.6828L30.2723 24.6159C30.4722 24.25 30.7538 23.7738 30.9355 23.399L31.4397 22.2571C31.576 21.8648 31.7713 21.3533 31.8894 20.9565L32.1893 19.775C32.2619 19.3649 32.3664 18.8138 32.4209 18.3994L32.5208 17.2178C32.5208 16.7813 32.5345 16.1994 32.5163 15.7673L32.4209 14.6563C32.2074 13.2763 32.1847 13.1308 31.9076 12.1388L31.6214 11.257C31.4761 10.8779 31.2762 10.3708 31.1081 10.0005L30.7947 9.3524C30.6766 9.13195 30.5176 8.83656 30.395 8.62052L30.0997 8.13554C29.9998 7.98564 29.8726 7.78725 29.7727 7.64175L29.5001 7.25818C29.4138 7.14355 29.3048 6.99365 29.2185 6.88343L28.9641 6.56599C28.8869 6.4734 28.7869 6.34995 28.7052 6.25736L28.4599 5.9796C28.3872 5.90024 28.2873 5.79003 28.2146 5.71067L27.9693 5.45936C27.8966 5.38441 27.7967 5.28301 27.7195 5.21246L27.4651 4.96998C27.3833 4.89944 27.2834 4.80244 27.2016 4.7319L26.9245 4.4894C26.8382 4.41445 26.7201 4.31746 26.6338 4.24692L26.3113 3.99121C26.2068 3.91185 26.0705 3.81045 25.9661 3.73109L25.5254 3.41805C24.2036 2.55391 23.4949 2.21003 22.3139 1.71624L21.4372 1.3988C20.2516 1.04168 20.1789 1.01964 19.4431 0.865328L18.3392 0.680149C17.835 0.631652 17.1673 0.561107 16.6631 0.539062H15.4639C15.0096 0.569925 14.4009 0.605195 13.9467 0.66251L12.7248 0.860915C12.3023 0.962319 11.7345 1.08577 11.3166 1.20481L10.1174 1.6016C9.72219 1.76914 9.19072 1.97636 8.80461 2.15712L7.66444 2.75232C7.30559 2.98158 6.81502 3.27256 6.46071 3.51505L5.41595 4.30424C5.08889 4.59522 4.65278 4.96998 4.33935 5.27419L3.43086 6.23972C2.99478 6.78201 2.43152 7.52711 2.04087 8.10027L1.40039 9.19808L0.932503 10.1504L1.47306 9.06141C1.47306 9.06141 1.49123 9.02172 1.50486 9.00849" fill="#9A0218"/>
<path d="M0.293318 21.187C0.193384 20.874 0.0888963 20.4463 -0.00195312 20.1289C0.057099 20.3538 0.138865 20.658 0.197917 20.8828C0.229714 20.9842 0.256979 21.0856 0.293318 21.187Z" fill="#9A0218"/>
<path d="M2.65086 7.20087C10.7592 -2.93071 23.6007 2.96835 24.8772 14.3168C26.249 26.4808 13.7072 35.0605 4.85395 28.0239C2.5918 26.2251 1.54249 24.1265 1.19727 23.4387L1.52434 24.0648L1.71966 24.4087L2.0149 24.8937C2.11484 25.0436 2.24204 25.2419 2.34198 25.3874L2.61451 25.771C2.70082 25.8856 2.80984 26.0355 2.89614 26.1458L3.146 26.4632C3.22322 26.5558 3.32768 26.6792 3.4049 26.7718L3.65021 27.0496C3.72289 27.1333 3.82282 27.2392 3.90004 27.3185L4.14532 27.5742C4.22255 27.6492 4.31796 27.7506 4.39518 27.8211L4.64956 28.0636C4.73132 28.1342 4.83578 28.2312 4.913 28.3061L5.19011 28.5486C5.27642 28.6235 5.39451 28.7205 5.48536 28.7911L5.80788 29.0468C5.90782 29.1262 6.04864 29.2276 6.15311 29.3069L6.59372 29.6155C7.62486 30.2901 8.30625 30.6825 9.61902 31.2424L10.473 31.5643C11.6222 31.9302 11.7176 31.9611 12.4989 32.133L13.5891 32.327C14.0979 32.3843 14.7702 32.4593 15.2789 32.4901L16.4736 32.5033C16.9324 32.4769 17.5411 32.446 17.9999 32.3975L19.2218 32.2124C19.6488 32.1154 20.2166 31.9963 20.639 31.8817L21.8382 31.4937C22.2334 31.335 22.7649 31.1278 23.1556 30.9514L24.2957 30.3695C24.6591 30.1446 25.1543 29.858 25.5086 29.6199L26.5624 28.8396C26.9258 28.5221 27.4209 28.1033 27.7707 27.7682L28.6792 26.8027C28.9427 26.472 29.3106 26.0355 29.5604 25.6917L30.2691 24.6247C30.4689 24.2588 30.7506 23.7826 30.9323 23.4079L31.4365 22.266C31.5728 21.8736 31.7681 21.3577 31.8862 20.9653L32.186 19.7838C32.2587 19.3737 32.3632 18.827 32.4177 18.4082L32.5176 17.2266C32.5176 16.7901 32.5312 16.2082 32.5176 15.7761L32.4222 14.6651C32.2087 13.2851 32.186 13.144 31.9089 12.1476L31.6227 11.2614C31.4774 10.8823 31.2729 10.3752 31.114 10.0049L30.796 9.3524C30.6779 9.13195 30.5189 8.83656 30.3917 8.62052L30.0965 8.13554C29.9965 7.98564 29.8693 7.78725 29.7694 7.64175L29.4968 7.25818C29.4105 7.14355 29.3015 6.99365 29.2152 6.88343L28.9654 6.56599C28.8882 6.4734 28.7837 6.34995 28.7065 6.25736L28.4612 5.9796C28.3885 5.90024 28.2886 5.79003 28.2113 5.71067L27.966 5.45495C27.8934 5.38 27.7934 5.27859 27.7162 5.20805L27.4618 4.96557C27.3801 4.89503 27.2756 4.79803 27.1984 4.72749L26.9213 4.485C26.8304 4.41005 26.7169 4.31305 26.626 4.24251L26.3035 3.9868C26.199 3.90744 26.0627 3.80604 25.9583 3.72668L25.5177 3.41805C24.1958 2.55391 23.4872 2.21003 22.3061 1.71624L21.4294 1.3988C20.2439 1.04168 20.1712 1.01964 19.4353 0.865328L18.3315 0.680149C17.8273 0.631652 17.1595 0.565516 16.6553 0.539062H15.4561C15.0018 0.569925 14.3931 0.605204 13.9389 0.658111L12.717 0.856501C12.2945 0.957905 11.7267 1.08135 11.3088 1.20039L10.1096 1.59719C9.71439 1.76032 9.18295 1.97195 8.79684 2.15271L7.66122 2.74791C7.29782 2.97717 6.80722 3.26816 6.45745 3.51065L5.41269 4.29983C5.09017 4.59081 4.64956 4.96557 4.33613 5.26537L3.42763 6.23091C3.15054 6.57921 2.76896 7.03773 2.5055 7.39926L2.65086 7.20087Z" fill="#950217"/>
<path d="M4.34436 5.25554C14.6467 -3.97222 26.0392 5.81106 25.6804 16.3879C25.2534 29.0326 11.9803 35.615 3.83106 27.2249C3.66753 27.053 3.16333 26.5371 2.54102 25.6862L2.81355 26.0522L2.88625 26.1492L3.13608 26.4666C3.2133 26.5592 3.31778 26.6826 3.395 26.7752L3.64029 27.053C3.71296 27.1323 3.81289 27.2426 3.89012 27.3219L4.13543 27.5776C4.21265 27.6526 4.31258 27.754 4.38526 27.8245L4.63963 28.067C4.71686 28.1376 4.82134 28.239 4.90311 28.3051L5.18019 28.5476C5.2665 28.6181 5.38458 28.7195 5.47543 28.7901L5.79796 29.0458C5.90244 29.1251 6.03871 29.2265 6.14319 29.3059L6.5838 29.6145C7.61494 30.2891 8.29632 30.6815 9.6091 31.2414L10.4631 31.5632C11.6123 31.9292 11.7077 31.96 12.489 32.132L13.5792 32.326C14.088 32.3833 14.7603 32.4582 15.269 32.4891L16.4637 32.5023C16.9225 32.4715 17.5357 32.445 17.99 32.3965L19.2119 32.2113C19.6389 32.1144 20.2067 31.9953 20.6291 31.8807L21.8283 31.4971C22.2235 31.3384 22.755 31.1312 23.1456 30.9548L24.2904 30.3729C24.6538 30.148 25.1489 29.8614 25.4986 29.6233L26.5525 28.843C26.9159 28.5255 27.411 28.1067 27.7608 27.7716L28.6693 26.8061C28.9328 26.4754 29.3007 26.0389 29.5505 25.695L30.2592 24.6281C30.459 24.2622 30.7407 23.786 30.9224 23.4113L31.4266 22.2694C31.5628 21.877 31.7536 21.3655 31.8763 20.9687L32.1761 19.7872C32.2488 19.3771 32.3532 18.826 32.4077 18.4116L32.5077 17.23C32.5077 16.7935 32.5213 16.216 32.5077 15.7795L32.4123 14.6685C32.1988 13.2929 32.1761 13.1474 31.899 12.151L31.6128 11.2692C31.4675 10.8901 31.2631 10.3831 31.1041 10.0127L30.7861 9.36461C30.668 9.14417 30.509 8.84877 30.3818 8.63274L30.0866 8.14776C29.9866 7.99786 29.8594 7.79946 29.7595 7.65397L29.4869 7.2704C29.4006 7.15577 29.2916 7.00586 29.2053 6.89564L28.9555 6.5782C28.8782 6.48562 28.7783 6.36216 28.6966 6.26958L28.4513 5.99182C28.3786 5.91246 28.2786 5.80224 28.2014 5.72288L27.9561 5.46716C27.8789 5.39221 27.779 5.29081 27.7063 5.22026L27.4519 4.97778C27.3747 4.90724 27.2702 4.81024 27.1885 4.7397L26.9113 4.49722C26.8205 4.42227 26.707 4.32526 26.6161 4.25472L26.2936 3.99901C26.1891 3.91965 26.0528 3.81825 25.9483 3.73889L25.5077 3.42586C24.1859 2.56173 23.4773 2.21783 22.2962 1.72404L21.4195 1.4066C20.2339 1.04948 20.1612 1.02744 19.4254 0.873127L18.3215 0.687949C17.8173 0.639451 17.1496 0.573328 16.6454 0.546875H15.4462C14.9919 0.577737 14.3832 0.613003 13.929 0.66591L12.7071 0.864314C12.2846 0.965718 11.7168 1.08917 11.2989 1.20821L10.0997 1.605C9.7045 1.76813 9.17302 1.97974 8.78691 2.16051L7.65129 2.75571C7.2879 2.98497 6.7973 3.27596 6.44753 3.51845L5.40277 4.30764C5.08025 4.59862 4.63963 4.97338 4.3262 5.27318L4.3353 5.26435L4.34436 5.25554Z" fill="#900217"/>
<path d="M6.98434 3.16436C19.6896 -3.85897 29.1561 10.1965 25.7629 20.8924C22.4696 31.2753 11.3769 34.7318 4.18164 27.6071C4.31791 27.7438 4.50871 27.9246 4.64953 28.0612C4.72675 28.1318 4.83575 28.2288 4.91297 28.2993L5.19008 28.5418C5.28093 28.6167 5.39448 28.7137 5.48533 28.7843L5.80785 29.04C5.91233 29.1194 6.04861 29.2208 6.15308 29.3001L6.59369 29.6087C7.62483 30.2833 8.31076 30.6801 9.61899 31.24L10.4729 31.5619C11.6222 31.9278 11.7176 31.9587 12.4989 32.1306L13.5937 32.329C14.0979 32.3863 14.7747 32.4569 15.2834 32.4921L16.4827 32.5054C16.9414 32.4789 17.5501 32.448 18.0089 32.3996L19.2308 32.2144C19.6578 32.1174 20.2256 31.9983 20.6481 31.8837L21.8473 31.4957C22.2425 31.3326 22.7785 31.1298 23.1646 30.9534L24.3048 30.3671C24.6682 30.1422 25.1633 29.8556 25.5176 29.6176L26.5715 28.8372C26.9394 28.5197 27.43 28.0965 27.7798 27.7614L28.6883 26.7959C28.9563 26.4608 29.3197 26.0287 29.5695 25.6848L30.2781 24.6179C30.478 24.2564 30.7596 23.7758 30.9413 23.4011L31.4456 22.2592C31.5818 21.8668 31.7771 21.3553 31.8953 20.9585L32.195 19.777C32.2677 19.3669 32.3722 18.8158 32.4222 18.4014L32.5176 17.2198C32.5176 16.7833 32.5312 16.2014 32.5176 15.7693L32.4222 14.6583C32.2041 13.2783 32.1814 13.1328 31.9089 12.1408L31.6227 11.259C31.4728 10.8799 31.2775 10.3729 31.1094 9.9981L30.7914 9.35C30.6688 9.12955 30.5143 8.83416 30.3871 8.61812L30.0919 8.13315C29.9919 7.98324 29.8648 7.78485 29.7648 7.63935L29.4923 7.25579C29.406 7.14556 29.2969 6.99125 29.2106 6.88103L28.9563 6.56359C28.879 6.471 28.7746 6.34755 28.6974 6.25496L28.4521 5.97722C28.3748 5.89786 28.2794 5.78763 28.2068 5.70827L27.9615 5.45256C27.8842 5.37761 27.7888 5.28062 27.7116 5.20567L27.4572 4.96317C27.38 4.89263 27.2756 4.79564 27.1938 4.72069L26.9167 4.47819C26.8304 4.40324 26.7123 4.30625 26.626 4.23571L26.3035 3.98C26.199 3.90064 26.0627 3.79923 25.9582 3.71987L25.5176 3.40684C24.1958 2.5427 23.4871 2.19882 22.3061 1.70502L21.4339 1.38317C20.2483 1.02605 20.1757 1.00401 19.4353 0.849703L18.3314 0.664524C17.8318 0.616027 17.1595 0.549891 16.6553 0.523438H15.4561C15.0018 0.5543 14.3931 0.589579 13.9389 0.642486L12.7169 0.840876C12.2945 0.94228 11.7267 1.06573 11.3088 1.18477L10.1096 1.58158C9.71436 1.74911 9.18746 1.95632 8.7968 2.13708L7.66119 2.73228C7.29779 2.96155 6.80719 3.25254 6.45742 3.49502C6.35295 3.56997 6.21667 3.67138 6.11219 3.74633C6.37565 3.56998 6.72088 3.32748 6.98888 3.15553" fill="#8B0216"/>
<path d="M8.46859 2.31193C20.8877 -3.23443 30.545 10.001 26.3614 21.8256C23.1953 30.78 13.4108 34.4438 6.22461 29.3559L6.66976 29.6645C7.3693 30.1142 8.15971 30.6213 9.6133 31.2385L10.4673 31.5604C11.6165 31.9263 11.7119 31.9571 12.4978 32.1291L13.588 32.3231C14.0922 32.3804 14.769 32.4509 15.2777 32.4862L16.4724 32.4994C16.9312 32.473 17.5399 32.4421 17.9987 32.3936L19.2206 32.2085C19.6476 32.1115 20.2154 31.9924 20.6379 31.8778L21.8416 31.4898C22.2368 31.3267 22.7683 31.1239 23.1589 30.9475L24.2991 30.3611C24.6625 30.1363 25.1576 29.8497 25.5119 29.6116L26.5658 28.8313C26.9292 28.5138 27.4243 28.095 27.7741 27.7555L28.678 26.79C28.946 26.4549 29.3094 26.0228 29.5593 25.6789L30.2679 24.612C30.4678 24.246 30.7494 23.7699 30.9311 23.3951L31.4353 22.2532C31.5716 21.8652 31.7669 21.3494 31.885 20.9526L32.1848 19.771C32.2575 19.361 32.362 18.8143 32.412 18.3955L32.5119 17.2139C32.5119 16.7774 32.5255 16.1954 32.5119 15.7634L32.4165 14.6568C32.203 13.2768 32.1758 13.1313 31.9032 12.1393L31.617 11.2575C31.4671 10.8783 31.2718 10.3713 31.1037 9.99658L30.7857 9.34848C30.6676 9.12803 30.5086 8.83264 30.3815 8.6166L30.0862 8.13163C29.9863 7.98172 29.8591 7.78333 29.7591 7.63783L29.4866 7.25427C29.4003 7.14404 29.2913 6.98973 29.205 6.87951L28.9506 6.56207C28.8734 6.46948 28.7689 6.34603 28.6917 6.25344L28.4464 5.9757C28.3737 5.89634 28.2738 5.78611 28.2011 5.70675L27.9558 5.45104C27.8831 5.37609 27.7832 5.27469 27.7059 5.20414L27.4516 4.96165C27.3743 4.89111 27.2699 4.79412 27.1881 4.72358L26.911 4.48108C26.8247 4.41054 26.7066 4.31355 26.6203 4.2386L26.2978 3.98288C26.1933 3.90352 26.057 3.79771 25.9526 3.72276L25.5119 3.41415C24.1901 2.55001 23.4815 2.20611 22.3004 1.71232L21.4283 1.39488C20.2427 1.03776 20.17 1.01572 19.4341 0.861408L18.3303 0.67623C17.8261 0.623323 17.1583 0.561609 16.6541 0.535156H15.4549C15.0007 0.566018 14.392 0.601284 13.9377 0.654191L12.7158 0.852582C12.2933 0.953986 11.7255 1.07745 11.3076 1.19649L10.1084 1.59328C9.71322 1.76082 9.18629 1.96803 8.80018 2.14879C8.65482 2.21933 8.45952 2.31633 8.30962 2.39129C8.35958 2.36924 8.42317 2.33397 8.47314 2.30752" fill="#860215"/>
<path d="M12.4714 0.923125C25.8535 -1.46648 32.6899 15.5297 25.5037 25.6613C18.6128 35.3828 9.50516 31.2297 8.49219 30.7271L9.06 31.0004L9.61874 31.2429L10.4727 31.5692C11.6219 31.9351 11.7173 31.9616 12.4986 32.1379L13.5934 32.3363C14.0976 32.3936 14.7744 32.4642 15.2832 32.495L16.4824 32.5083C16.9412 32.4818 17.5499 32.4509 18.0041 32.4024L19.2306 32.2173C19.653 32.1203 20.2254 32.0012 20.6478 31.8866L21.8471 31.4986C22.2423 31.3355 22.7782 31.1327 23.1644 30.9563L24.3091 30.37C24.6725 30.1451 25.1676 29.8585 25.5219 29.6204L26.5758 28.8401C26.9392 28.5226 27.4343 28.1038 27.7841 27.7643L28.6926 26.7988C28.9606 26.4681 29.324 26.0316 29.5738 25.6877L30.2824 24.6208C30.4823 24.2549 30.7639 23.7787 30.9502 23.4039L31.4544 22.2621C31.5906 21.8741 31.786 21.3582 31.9041 20.9614L32.2039 19.7799C32.2766 19.3698 32.381 18.8231 32.431 18.4043L32.531 17.2227C32.531 16.7862 32.5446 16.2043 32.531 15.7722L32.4356 14.6612C32.2175 13.2812 32.1948 13.1357 31.9223 12.1437L31.6361 11.2575C31.4862 10.8783 31.2908 10.3713 31.1228 10.001L30.8048 9.35289C30.6821 9.13245 30.5277 8.83705 30.4005 8.62102L30.1053 8.13604C30.0053 7.98614 29.8781 7.78774 29.7782 7.64225L29.5102 7.25868C29.4239 7.14405 29.3149 6.99414 29.2286 6.88392L28.9742 6.56648C28.897 6.4739 28.797 6.35044 28.7153 6.25786L28.47 5.9801C28.3973 5.90074 28.2974 5.79052 28.2247 5.71116L27.9794 5.45544C27.9022 5.38049 27.8068 5.27909 27.7296 5.20854L27.4752 4.96606C27.398 4.89552 27.2935 4.79852 27.2117 4.72798L26.9346 4.4855C26.8483 4.41496 26.7302 4.31354 26.6439 4.243L26.3214 3.98729C26.2169 3.90793 26.0806 3.80212 25.9761 3.72717L25.5355 3.41415C24.2137 2.55442 23.5051 2.20611 22.324 1.71232L21.4519 1.39488C20.2663 1.03776 20.1936 1.01572 19.4532 0.861408L18.3494 0.67623C17.8497 0.623323 17.1774 0.557201 16.6732 0.535156H15.474C15.0197 0.566018 14.411 0.601284 13.9568 0.654191L12.7303 0.852582C12.3079 0.953986 11.7401 1.07745 11.3222 1.19649L12.1671 0.984856C12.2624 0.96722 12.3896 0.936361 12.4896 0.918726" fill="#810214"/>
<path d="M1.96041 24.0983C7.88378 32.5325 20.0939 29.1597 22.0608 18.5475C24.0913 7.59591 13.3666 -0.569306 4.9312 5.50611C-0.63787 9.52259 -2.05514 18.3844 1.95586 24.0983" fill="#A9021B"/>
<path d="M1.28232 22.6876C6.60609 32.3033 18.5165 29.1069 21.1375 19.813C24.3308 8.50426 14.0058 0.43604 6.09281 5.02567C-0.511942 8.85698 -1.72479 17.2515 1.28232 22.6876Z" fill="#AE021B"/>
<path d="M0.537479 20.5669C3.76717 30.1914 15.1642 30.0107 19.3751 22.4318C24.976 12.3532 16.5497 1.95265 7.90538 4.58033C1.75033 6.4541 -1.69287 13.9227 0.537479 20.5669Z" fill="#B3021C"/>
<path d="M0.456762 19.7595C3.19133 29.049 14.1114 30.3496 19.0037 21.9683C24.064 13.3005 16.21 1.96972 7.32952 5.12647C1.27441 7.27799 -1.11494 14.4292 0.452215 19.7595" fill="#B8021D"/>
<path d="M0.356965 18.5046C2.21938 27.6134 12.1628 30.0779 17.8 22.8341C23.5508 15.4449 17.7682 3.84956 8.96947 5.1105C2.65544 6.01431 -0.783195 12.9274 0.356965 18.5046Z" fill="#BD021E"/>
<path d="M0.502762 18.1904C2.20619 27.7753 12.6448 29.1067 17.478 22.4449C23.2333 14.509 15.9835 3.95857 8.42028 5.62953C2.38788 6.96101 -0.387563 13.1863 0.502762 18.1904Z" fill="#C2021E"/>
<path d="M0.723923 18.1499C2.54091 27.9728 13.0567 27.9772 17.1449 22.0561C22.6822 14.0364 15.5551 4.38978 7.86467 6.19742C2.95426 7.35254 -0.184575 12.6035 0.719376 18.1499" fill="#C7021F"/>
<path d="M0.829041 16.7016C1.38776 26.26 11.0587 27.7458 15.8737 22.7946C22.4966 15.9918 16.278 6.37162 9.57329 6.47743C3.9906 6.5612 0.542865 11.8342 0.829041 16.7016Z" fill="#CC0220"/>
<path d="M1.11445 16.7192C1.655 25.7573 11.7166 27.5341 16.5815 21.4146C21.3148 15.4626 15.7685 5.82043 8.34153 7.08578C3.3221 7.9411 0.869148 12.685 1.1099 16.7192" fill="#D10321"/>
<path d="M1.45079 16.7751C2.14124 25.8221 12.3027 26.4217 16.3592 21.162C20.729 15.4921 15.6324 6.59946 8.57338 7.57382C3.23143 8.3101 1.19641 13.3979 1.45533 16.7795" fill="#D60322"/>
<path d="M1.83242 15.4006C1.21465 23.8921 10.3904 26.0568 15.1237 21.9478C20.6019 17.1906 16.3683 8.30234 10.136 8.07748C4.00371 7.85704 2.02321 12.7729 1.83242 15.4006Z" fill="#DB0322"/>
<path d="M2.24173 15.5267C1.78748 23.3392 10.4863 25.429 14.8925 21.6947C19.6167 17.6915 17.3727 8.90017 9.96393 8.55628C4.93087 8.32261 2.41888 12.4934 2.24173 15.5223" fill="#E00323"/>
<path d="M2.71343 15.6968C2.37275 22.8392 10.5628 24.8232 14.6601 21.4416C18.9437 17.9056 17.4992 9.23782 9.5362 9.01737C6.87886 8.94242 2.92239 11.2791 2.71343 15.7012" fill="#E50324"/>
<path d="M3.23248 15.9224C3.20976 22.0816 10.2551 24.5329 14.4251 21.1954C19.1901 17.3861 16.5782 9.93955 10.3142 9.47662C6.09422 9.168 3.2461 12.5584 3.23248 15.9224Z" fill="#EA0325"/>
<path d="M3.93686 14.7059C2.72402 20.7946 10.0238 24.2732 14.2619 21.0238C18.4455 17.8098 16.6285 11.051 11.2639 9.89585C8.06596 9.20807 4.5728 11.5007 3.93686 14.7103" fill="#EF0325"/>
<path d="M4.44433 14.9667C3.47678 20.2926 9.69996 24.0887 14.0925 20.8526C16.0958 19.3756 16.7817 16.9463 15.9822 14.1775C15.7641 13.428 14.7648 10.9282 10.9991 10.1963C8.75059 9.75985 5.12569 11.206 4.43978 14.9667" fill="#F40326"/>
<path d="M4.85715 15.1932C4.29843 20.1443 9.89476 23.5303 13.9285 20.6778C14.8324 20.0385 16.8266 18.1427 15.7954 14.3731C15.482 13.24 14.469 11.234 11.1576 10.5462C8.25946 9.94661 5.19784 12.204 4.8617 15.1932" fill="#F90327"/>
<path d="M5.28082 15.4404C4.88108 20.3827 10.2639 22.8737 13.7571 20.5061C17.1185 18.2223 16.4598 12.0367 11.7311 10.9609C7.17049 9.92045 5.40801 13.8796 5.28082 15.4404Z" fill="#FA2141"/>
<path d="M5.81708 14.9932C5.49456 16.5363 5.6354 18.7363 8.16101 20.4734C9.38748 21.3155 11.8631 21.4654 13.5893 20.3368C15.2109 19.283 15.8514 17.4842 15.4971 14.9932C15.3018 13.6309 13.6074 11.713 12.3174 11.3956C9.76451 10.7695 9.41928 10.9635 7.76582 11.8761C7.52052 12.0128 6.27587 12.7976 5.81708 14.9888" fill="#FA2E4C"/>
<path d="M5.96103 15.8656C5.9474 17.832 7.51457 19.9438 8.30496 20.2525C10.2809 21.0284 10.3218 21.0416 12.0207 20.7551C12.7248 20.636 13.7968 20.0982 14.4827 19.2032C15.4502 17.9466 15.4639 16.4432 15.4412 16.0111C15.4078 15.2587 14.993 14.2299 14.1965 12.9249C13.4425 11.6948 10.4672 11.2011 9.70404 11.373C6.02919 12.1931 5.96557 15.7201 5.96557 15.8701" fill="#FA3754"/>
<path d="M6.49773 14.5296C6.13434 15.6935 5.90722 17.9552 8.46008 20.0274C9.18688 20.6138 11.7398 20.9621 13.2433 19.9965C15.5146 18.5328 15.2375 15.9183 15.2238 15.8081C15.0648 14.4458 14.0973 13.1319 14.0564 13.0746C13.6748 12.5632 12.8981 12.087 12.2939 11.8622C11.658 11.6241 10.7177 11.5492 10.0409 11.6021C9.80467 11.6241 8.26478 12.1884 8.2557 12.1928C8.24207 12.1973 6.95198 13.0746 6.49773 14.5296Z" fill="#FA3F5B"/>
<path d="M6.73334 14.6784C6.48805 15.5602 6.17917 17.8264 8.61393 19.8015L10.2083 20.4011C11.3303 20.41 12.0708 20.4144 13.0746 19.828C14.7554 18.8492 15.1778 17.0019 15.0097 15.6043C14.9007 14.6784 13.9286 13.2367 13.9195 13.2235C13.5198 12.7297 12.743 12.258 12.1389 12.0375C11.8527 11.9361 10.3401 11.46 8.50492 12.355C8.24145 12.4828 7.07857 13.4351 6.73334 14.6784Z" fill="#FB4761"/>
<path d="M6.97042 14.8372C6.97042 14.8372 6.86595 16.3406 6.89321 16.4861C6.99768 17.0945 7.37925 17.8485 7.59729 18.4304C7.7699 18.8889 8.38311 19.2725 8.76922 19.5855C9.16896 19.9118 9.8685 20.1896 10.3909 20.1984C11.7127 20.2292 12.5395 19.8809 12.9165 19.6737C13.5933 19.299 15.1332 18.1306 14.7925 15.4103C14.7108 14.7358 14.2338 13.8937 13.7841 13.3823C13.3617 12.9061 12.594 12.4432 11.9853 12.2271C10.5862 11.7289 7.63363 12.1919 6.97497 14.8416" fill="#FB4D66"/>
<path d="M7.2103 15.0008C6.97863 15.9443 6.88779 17.7652 8.89556 19.4008C9.30439 19.7359 10.0312 19.9784 10.5672 19.9916C11.5892 20.0225 12.7385 19.5199 12.7476 19.5155C14.0921 18.8101 14.8189 17.2714 14.6009 15.6004C14.5691 15.3579 13.8151 13.7266 13.6379 13.5282C13.2245 13.0477 12.4342 12.6156 11.8255 12.404C11.7891 12.3907 8.03248 11.6633 7.2103 15.0008Z" fill="#FB536C"/>
<path d="M7.45589 15.1668C7.19697 16.2293 7.69662 17.5123 7.86015 17.9355C8.04639 18.4161 8.61877 18.8835 9.02305 19.2141C9.44096 19.5536 10.1995 19.7608 10.7446 19.7873C11.1853 19.8049 12.5707 19.364 12.5798 19.3596C13.9834 18.6586 14.5694 17.0141 14.4104 15.8237C14.315 15.1315 13.9516 14.2189 13.4974 13.681C13.0886 13.196 12.28 12.7948 11.6713 12.5876C11.644 12.5788 8.19631 12.0938 7.45135 15.1668" fill="#FB5970"/>
<path d="M7.68399 15.3219C7.68399 15.3219 7.57496 16.6269 8.01104 17.7203C8.20182 18.2009 8.75601 18.6947 9.16029 19.0297C9.16484 19.0341 10.7229 19.55 10.9455 19.5632C11.3997 19.5897 12.013 19.4001 12.4218 19.2061C14.1797 18.3596 14.2978 16.4594 14.2297 15.9964C14.1797 15.6261 13.5483 14.0521 13.3666 13.8361C13.2985 13.7567 11.6223 12.8 11.5178 12.7824C10.9091 12.6766 9.98702 12.6854 9.47373 13.0249C8.76964 13.4922 7.89295 14.0742 7.68399 15.3263" fill="#FB5E75"/>
<path d="M7.90625 15.482C7.90625 15.482 8.07886 17.2984 8.15608 17.488C8.35595 17.9774 8.88288 18.5065 9.29624 18.846C9.30987 18.8548 10.8679 19.7277 12.2579 19.0488C14.2067 18.0964 14.0477 16.205 14.0431 16.1874C14.0431 16.1742 13.3072 14.08 13.23 13.983C13.18 13.9257 11.4312 13.0086 11.3404 12.9954C10.0685 12.7705 8.15609 13.6523 7.9108 15.4776" fill="#FB6379"/>
<path d="M8.12812 15.6434C8.06906 16.1196 8.12356 16.7853 8.31435 17.2218C8.52784 17.72 9.00481 18.3108 9.42726 18.6591C9.57262 18.7782 11.3714 19.0647 11.3851 19.0647C11.5986 19.0868 11.8893 18.9854 12.0846 18.8928C13.5609 18.183 13.8925 16.6046 13.8562 16.3797C13.7426 15.6831 13.5337 14.6955 13.0749 14.1533C12.666 13.6727 11.7939 13.3156 11.1625 13.2098C10.0995 13.0334 8.34616 13.9108 8.13266 15.6346" fill="#FB677D"/>
<path d="M8.35521 15.808C8.31433 16.1519 8.3416 16.6369 8.48242 16.9499C8.71408 17.457 9.08654 18.1712 9.56804 18.4666C10.095 18.7928 10.9898 18.7443 11.6076 18.8149C11.703 18.8281 11.8302 18.7796 11.9165 18.7399C13.5791 17.8758 13.6563 16.7868 13.6154 16.3591C13.5518 15.7243 13.3474 14.8205 12.9158 14.3355C12.4934 13.8637 11.5758 13.6786 10.9853 13.4317C10.263 13.1363 8.89576 14.3928 8.88667 14.4104C8.60958 14.7675 8.40972 15.3627 8.35521 15.808Z" fill="#FB6C81"/>
<path d="M8.58364 15.9797C8.56093 16.1913 8.56546 16.4911 8.66085 16.6807C8.91977 17.1921 9.23776 17.9548 9.72835 18.259C10.2371 18.5765 11.1183 18.5104 11.718 18.5588C11.7952 18.5677 11.8815 18.4883 11.9451 18.453C12.2585 18.2635 12.7445 18.043 12.9262 17.7256C13.1806 17.2847 13.3623 16.5881 13.3078 16.0899C13.2579 15.5961 13.1034 14.8907 12.7582 14.5203C12.3266 14.0574 11.4181 13.8678 10.814 13.6562C10.6959 13.6165 10.5142 13.6606 10.4006 13.7003C8.8471 14.2426 8.63361 15.5564 8.58819 15.9753" fill="#FC7084"/>
<path d="M8.81084 16.1467C8.80175 16.2261 8.79721 16.3363 8.83809 16.4069C9.12427 16.9139 9.39227 17.7251 9.8874 18.0469C10.269 18.2894 10.9413 18.3291 11.391 18.2674C11.8134 18.2057 12.3267 17.9015 12.6719 17.6546C12.7174 17.6193 12.7901 17.5708 12.7991 17.5135C12.89 17.0065 13.0581 16.3231 12.999 15.8117C12.9581 15.4589 12.8491 14.9563 12.5993 14.6918C12.1677 14.2333 11.2774 13.8189 10.6369 13.8718C10.16 13.9114 9.5876 14.3435 9.29234 14.7094C9.00616 15.0666 8.85171 15.6926 8.80629 16.1423" fill="#FC7488"/>
<path d="M9.14131 15.9521C9.12314 16.0976 9.12316 16.3048 9.18675 16.4371C9.40025 16.878 9.6319 17.5614 10.0498 17.8347C10.3042 18.0022 10.763 18.0419 11.0628 17.9802C11.5261 17.8832 12.2166 17.7068 12.4982 17.3321C12.8253 16.8956 12.6981 16.0844 12.689 15.5465C12.689 15.3349 12.5981 15.0351 12.4482 14.8764C12.0667 14.4752 9.43203 13.4258 9.14131 15.9521Z" fill="#FC788B"/>
<path d="M9.64067 15.2398C9.57708 15.738 9.66338 16.4214 9.78149 16.9108C9.84054 17.1533 10.0041 17.4883 10.2175 17.625C10.3447 17.7088 10.5809 17.7352 10.7308 17.6955C11.1942 17.5677 11.9165 17.4486 12.2026 17.0739C12.2117 17.0607 12.507 15.2839 12.298 15.0635C12.1436 14.9003 12.0391 14.7945 9.8587 14.94C9.74514 14.9488 9.65431 15.134 9.64522 15.2442" fill="#FC7C8F"/>
<path d="M10.3629 17.3878C10.3629 17.3878 10.372 17.4054 10.3766 17.4099C10.4402 17.4495 11.8937 16.8191 11.9028 16.8102C12.1708 16.4619 12.3344 15.686 12.03 15.3685C11.653 14.9717 10.5355 14.9762 10.1676 15.3818C9.75423 15.8359 10.1767 16.8102 10.3629 17.3878Z" fill="#FC8092"/>
<path d="M10.8006 16.8747C11.0231 17.007 11.4501 16.7601 11.6046 16.5573C11.7409 16.3765 11.8226 15.9753 11.6682 15.8078C11.4728 15.6005 10.9005 15.6005 10.7052 15.8078C10.4826 16.0458 10.5189 16.7072 10.8006 16.8747Z" fill="#FC8395"/>
<path d="M11.2394 16.3254C11.2394 16.3254 11.2894 16.3166 11.2984 16.3033C11.3075 16.2901 11.3166 16.2592 11.303 16.246C11.2894 16.2328 11.2439 16.2284 11.2303 16.246C11.2121 16.2636 11.2167 16.3121 11.2349 16.3254" fill="#FC8798"/>
<g style="mix-blend-mode:overlay">
<mask id="mask0_4247_353160" style="mask-type:luminance" maskUnits="userSpaceOnUse" x="2" y="10" width="18" height="17">
<path d="M19.3758 10.8047H2.8457V26.9015H19.3758V10.8047Z" fill="white"/>
</mask>
<g mask="url(#mask0_4247_353160)">
<mask id="mask1_4247_353160" style="mask-type:luminance" maskUnits="userSpaceOnUse" x="2" y="10" width="18" height="17">
<path d="M19.3758 10.8047H2.8457V26.9015H19.3758V10.8047Z" fill="white"/>
</mask>
<g mask="url(#mask1_4247_353160)">
<path d="M2.8691 19.4179C2.52841 14.9826 5.94891 11.138 10.5005 10.825C15.052 10.512 19.0176 13.8539 19.3537 18.2848C19.6899 22.7157 16.2739 26.5647 11.7224 26.8777C7.17081 27.1907 3.20524 23.8488 2.8691 19.4179Z" fill="#EDEDEE"/>
</g>
</g>
</g>
<g style="mix-blend-mode:overlay">
<mask id="mask2_4247_353160" style="mask-type:luminance" maskUnits="userSpaceOnUse" x="19" y="0" width="12" height="11">
<path d="M30.9685 0.964844H19.9121V10.1132H30.9685V0.964844Z" fill="white"/>
</mask>
<g mask="url(#mask2_4247_353160)">
<mask id="mask3_4247_353160" style="mask-type:luminance" maskUnits="userSpaceOnUse" x="19" y="0" width="12" height="11">
<path d="M30.9685 0.964844H19.9121V10.1132H30.9685V0.964844Z" fill="white"/>
</mask>
<g mask="url(#mask3_4247_353160)">
<path d="M19.9347 2.62749C19.8893 2.05434 19.9074 1.50323 19.9847 0.960938C24.7724 2.1337 28.8152 5.33894 30.9684 9.63758C30.2779 9.88889 29.5466 10.0388 28.7789 10.0917C24.2364 10.4047 20.2754 7.06722 19.9347 2.62749Z" fill="#EDEDEE"/>
</g>
</g>
</g>
<g style="mix-blend-mode:overlay">
<mask id="mask4_4247_353160" style="mask-type:luminance" maskUnits="userSpaceOnUse" x="2" y="10" width="18" height="17">
<path d="M19.3758 10.8047H2.8457V26.9015H19.3758V10.8047Z" fill="white"/>
</mask>
<g mask="url(#mask4_4247_353160)">
<mask id="mask5_4247_353160" style="mask-type:luminance" maskUnits="userSpaceOnUse" x="2" y="10" width="18" height="17">
<path d="M19.3758 10.8047H2.8457V26.9015H19.3758V10.8047Z" fill="white"/>
</mask>
<g mask="url(#mask5_4247_353160)">
<path d="M2.8691 19.4179C2.52841 14.9826 5.94891 11.138 10.5005 10.825C15.052 10.512 19.0176 13.8539 19.3537 18.2848C19.6899 22.7157 16.2739 26.5647 11.7224 26.8777C7.17081 27.1907 3.20524 23.8488 2.8691 19.4179Z" fill="#EDEDEE"/>
</g>
</g>
</g>
<g style="mix-blend-mode:overlay">
<mask id="mask6_4247_353160" style="mask-type:luminance" maskUnits="userSpaceOnUse" x="19" y="0" width="12" height="11">
<path d="M30.9685 0.964844H19.9121V10.1132H30.9685V0.964844Z" fill="white"/>
</mask>
<g mask="url(#mask6_4247_353160)">
<mask id="mask7_4247_353160" style="mask-type:luminance" maskUnits="userSpaceOnUse" x="19" y="0" width="12" height="11">
<path d="M30.9685 0.964844H19.9121V10.1132H30.9685V0.964844Z" fill="white"/>
</mask>
<g mask="url(#mask7_4247_353160)">
<path d="M19.9347 2.62749C19.8893 2.05434 19.9074 1.50323 19.9847 0.960938C24.7724 2.1337 28.8152 5.33894 30.9684 9.63758C30.2779 9.88889 29.5466 10.0388 28.7789 10.0917C24.2364 10.4047 20.2754 7.06722 19.9347 2.62749Z" fill="#EDEDEE"/>
</g>
</g>
</g>
<g opacity="0.9">
<mask id="mask8_4247_353160" style="mask-type:luminance" maskUnits="userSpaceOnUse" x="2" y="10" width="18" height="17">
<path d="M19.3758 10.8047H2.8457V26.9015H19.3758V10.8047Z" fill="white"/>
</mask>
<g mask="url(#mask8_4247_353160)">
<mask id="mask9_4247_353160" style="mask-type:luminance" maskUnits="userSpaceOnUse" x="2" y="10" width="18" height="17">
<path d="M19.3758 10.8047H2.8457V26.9015H19.3758V10.8047Z" fill="white"/>
</mask>
<g mask="url(#mask9_4247_353160)">
<path d="M2.8691 19.4179C2.52841 14.9826 5.94891 11.138 10.5005 10.825C15.052 10.512 19.0176 13.8539 19.3537 18.2848C19.6899 22.7157 16.2739 26.5647 11.7224 26.8777C7.17081 27.1907 3.20524 23.8488 2.8691 19.4179Z" fill="#EDEDEE"/>
</g>
</g>
</g>
<g opacity="0.81">
<mask id="mask10_4247_353160" style="mask-type:luminance" maskUnits="userSpaceOnUse" x="19" y="0" width="12" height="11">
<path d="M30.9685 0.964844H19.9121V10.1132H30.9685V0.964844Z" fill="white"/>
</mask>
<g mask="url(#mask10_4247_353160)">
<mask id="mask11_4247_353160" style="mask-type:luminance" maskUnits="userSpaceOnUse" x="19" y="0" width="12" height="11">
<path d="M30.9685 0.964844H19.9121V10.1132H30.9685V0.964844Z" fill="white"/>
</mask>
<g mask="url(#mask11_4247_353160)">
<path d="M19.9347 2.62749C19.8893 2.05434 19.9074 1.50323 19.9847 0.960938C24.7724 2.1337 28.8152 5.33894 30.9684 9.63758C30.2779 9.88889 29.5466 10.0388 28.7789 10.0917C24.2364 10.4047 20.2754 7.06722 19.9347 2.62749Z" fill="#EDEDEE"/>
</g>
</g>
</g>
<g style="mix-blend-mode:color">
<mask id="mask12_4247_353160" style="mask-type:luminance" maskUnits="userSpaceOnUse" x="-1" y="0" width="34" height="33">
<path d="M32.4989 0.457031H-0.556641V32.5404H32.4989V0.457031Z" fill="white"/>
</mask>
<g mask="url(#mask12_4247_353160)">
<mask id="mask13_4247_353160" style="mask-type:luminance" maskUnits="userSpaceOnUse" x="-1" y="0" width="34" height="33">
<path d="M15.8644 0.457031C11.6308 0.483484 7.41084 2.07949 4.20386 5.23624C1.06047 8.32686 -0.520301 12.3433 -0.556641 16.3686V16.6244C-0.524843 20.7246 1.11954 24.816 4.36741 27.9199C10.8677 34.1408 21.3335 34.0658 27.7384 27.7567C30.8954 24.6485 32.4762 20.61 32.4944 16.567V16.4259C32.4762 12.3037 30.8318 8.19459 27.5703 5.07312C24.377 2.01777 20.2297 0.483484 16.0779 0.457031H15.8598H15.8644Z" fill="white"/>
</mask>
<g mask="url(#mask13_4247_353160)">
<path d="M15.732 -15.5902L-17.9082 17.5312L16.2072 50.1727L49.8474 17.0513L15.732 -15.5902Z" fill="url(#paint0_linear_4247_353160)"/>
</g>
</g>
</g>
<defs>
<linearGradient id="paint0_linear_4247_353160" x1="3.63404" y1="5.39607" x2="26.4817" y2="28.6016" gradientUnits="userSpaceOnUse">
<stop stop-color="#14316C"/>
<stop offset="1" stop-color="#0053FD"/>
</linearGradient>
</defs>
</svg>
