<svg width="27" height="30" viewBox="0 0 27 30" fill="none" xmlns="http://www.w3.org/2000/svg">
<path d="M9.12663 27.334C24.1185 35.0612 38.2072 20.9067 33.589 7.71137C28.6712 -6.34761 8.31244 -7.31125 2.02371 6.21137C-1.07853 12.884 0.362656 22.2794 9.12663 27.334Z" fill="#A4021A"/>
<path d="M17.4696 28.8297C2.0332 29.2069 -3.12785 12.9207 4.31661 6.03438C12.1682 -1.22466 27.1787 7.10256 26.6172 18.4116C26.2475 25.957 20.7496 27.7524 17.4649 28.8297C14.3814 29.2342 11.5178 28.6569 9.12207 27.3342C9.3841 27.466 9.73034 27.6478 9.99237 27.7797C10.3854 27.9569 10.9048 28.1842 11.3072 28.3433L12.0231 28.5978C12.2758 28.6751 12.608 28.7842 12.8654 28.8524L13.4456 29.0024C13.628 29.0433 13.8713 29.1024 14.0538 29.1387L14.5405 29.2296C14.6855 29.2524 14.882 29.2842 15.0271 29.3069L15.4482 29.3615C15.5745 29.3751 15.7383 29.3933 15.8693 29.4069L16.253 29.4387C16.3653 29.4433 16.5197 29.4569 16.6367 29.4615L17.0064 29.4751C17.1186 29.4751 17.2637 29.4796 17.3713 29.4842H17.7409C17.8532 29.4796 18.003 29.4751 18.1106 29.4751L18.499 29.4569C18.6159 29.4478 18.775 29.4387 18.8967 29.4296L19.3225 29.3887C19.4535 29.3705 19.636 29.3524 19.767 29.3387L20.3191 29.2569C21.5778 29.0251 22.3733 28.8388 23.7536 28.3297L24.6193 27.966C25.7376 27.4296 25.8265 27.3842 26.5283 26.9615L27.4782 26.3388C27.8946 26.0251 28.4421 25.6024 28.8398 25.2706L29.7288 24.4388C30.047 24.0979 30.4682 23.6479 30.7676 23.2888L31.5256 22.2933C31.7643 21.9252 32.0965 21.4343 32.3164 21.057L32.9106 19.9297C33.0791 19.5343 33.3224 19.007 33.4721 18.607L33.8745 17.3752C33.9774 16.957 34.1225 16.3979 34.2021 15.9752L34.3939 14.6661C34.422 14.1752 34.4734 13.5207 34.4781 13.0298L34.4267 11.6843C34.3752 11.2525 34.319 10.6798 34.2442 10.248L33.9681 8.96616C33.8418 8.55708 33.692 8.00708 33.5517 7.60709L33.0697 6.41164C32.8779 6.02983 32.6392 5.5162 32.4287 5.14348L31.7689 4.06167C31.5162 3.71167 31.184 3.2344 30.9126 2.89349L30.1032 1.95259C29.7803 1.62986 29.3545 1.19805 29.0176 0.888959L28.1239 0.138968C26.9401 -0.720116 26.8137 -0.81102 25.8732 -1.34738L25.0029 -1.79283C24.6099 -1.97011 24.0905 -2.19737 23.6881 -2.35646L22.9722 -2.611C22.7195 -2.68828 22.3873 -2.79738 22.13 -2.86556L21.5497 -3.01555C21.3673 -3.05646 21.124 -3.11101 20.9415 -3.14737L20.4549 -3.23827C20.3098 -3.261 20.1179 -3.29283 19.9682 -3.31555L19.5471 -3.3701C19.4207 -3.38373 19.257 -3.40192 19.1306 -3.41555L18.7423 -3.44737C18.63 -3.45646 18.4756 -3.46555 18.3586 -3.4701L17.9936 -3.48373C17.8813 -3.48373 17.7363 -3.48828 17.624 -3.48828H17.259C17.1467 -3.48828 16.997 -3.48373 16.8894 -3.47918L16.5057 -3.46101C16.384 -3.45192 16.2296 -3.44283 16.1079 -3.43374L15.6821 -3.39282C15.5464 -3.37464 15.3686 -3.35646 15.233 -3.33827L14.6762 -3.25646C13.0619 -2.96101 12.2851 -2.71556 11.0499 -2.25193L10.1702 -1.87011C9.03316 -1.30194 8.96766 -1.26557 8.30791 -0.86103L7.36272 -0.22466C6.95563 0.0935194 6.41286 0.516237 6.0245 0.848053L5.14482 1.68896C4.836 2.02986 4.41485 2.48441 4.12007 2.8435L3.37142 3.84803C3.13747 4.22076 2.81459 4.70711 2.59468 5.08892L2.00979 6.22528C1.84602 6.62527 1.6121 7.148 1.46237 7.55255L1.06928 8.7889C0.9757 9.21162 0.830685 9.77071 0.755819 10.1934L0.578011 11.5071C0.554615 11.948 0.512492 12.5343 0.507812 12.9707L0.559276 14.3207C0.648179 15.0252 0.788566 15.9661 0.92426 16.6661L1.27051 17.9206C1.41556 18.3206 1.59801 18.857 1.76178 19.2524L2.30457 20.4115C2.51513 20.7843 2.79121 21.2843 3.01581 21.6479L3.73172 22.6842C4.00779 23.0251 4.36808 23.4888 4.66286 23.8161L5.51443 24.6979C5.86069 25.0069 6.32392 25.4297 6.68421 25.7251L7.60136 26.4115C8.04587 26.6978 8.6401 27.0797 9.10333 27.3478C11.499 28.6706 14.3673 29.2433 17.4462 28.8433" fill="#A4021A"/>
<path d="M11.7752 28.4309C-1.4246 23.7037 -2.52883 8.172 7.19435 3.70385C17.3621 -0.968842 30.4448 11.0902 26.636 21.6264C23.6835 29.7946 15.6214 29.6536 11.7752 28.4355C10.844 28.1673 9.95503 27.7991 9.12683 27.34C9.38886 27.4719 9.7351 27.6537 9.99713 27.7855C10.3902 27.9582 10.9095 28.19 11.3119 28.3491L12.0278 28.6037C12.2805 28.6809 12.6174 28.7855 12.8701 28.8582L13.4503 29.0082C13.6328 29.0491 13.8761 29.1082 14.0586 29.1446L14.5405 29.2355C14.6856 29.2582 14.8821 29.29 15.0272 29.3127L15.4529 29.3673C15.5793 29.3809 15.743 29.3991 15.8741 29.4128L16.2578 29.4445C16.3701 29.4491 16.5245 29.4627 16.6414 29.4673L17.0111 29.4809C17.1187 29.4809 17.2684 29.4855 17.376 29.49H17.7457C17.858 29.4855 18.0078 29.4809 18.1201 29.4809L18.5037 29.4627C18.6254 29.4537 18.7798 29.4446 18.9014 29.4355L19.3272 29.3946C19.4583 29.3764 19.6408 29.3582 19.7718 29.34L20.3239 29.2582C21.5826 29.0264 22.378 28.8355 23.7583 28.3264L24.6287 27.9628C25.7423 27.4219 25.8359 27.3809 26.5378 26.9582L27.4876 26.3355C27.9041 26.0219 28.4515 25.5991 28.8492 25.2673L29.7336 24.4355C30.0518 24.0946 30.4729 23.6446 30.7723 23.2855L31.5303 22.2901C31.769 21.9219 32.1012 21.431 32.3211 21.0537L32.9154 19.9264C33.0838 19.531 33.3271 19.0083 33.4769 18.6037L33.8793 17.3719C33.9822 16.9537 34.1273 16.3947 34.2068 15.9719L34.3986 14.6583C34.4314 14.1674 34.4782 13.5129 34.4829 13.022L34.4314 11.6765C34.3799 11.2447 34.3238 10.6674 34.2489 10.2402L33.9729 8.95835C33.8512 8.54926 33.6968 8.00382 33.5564 7.59928L33.0745 6.40383C32.8873 6.02201 32.644 5.50838 32.4381 5.13565L31.7783 4.05384C31.521 3.70384 31.1935 3.22659 30.9221 2.88568L30.1126 1.94932C29.7898 1.6266 29.3639 1.19023 29.027 0.885683L28.1334 0.135692C26.9495 -0.723392 26.8232 -0.814296 25.8827 -1.35066L25.0124 -1.80065C24.6193 -1.97792 24.0999 -2.2052 23.6975 -2.36429L22.9817 -2.61883C22.729 -2.6961 22.3967 -2.80519 22.1394 -2.87337L21.5592 -3.02337C21.3767 -3.06428 21.1334 -3.11882 20.9509 -3.15519L20.4643 -3.2461C20.3192 -3.26883 20.1227 -3.30064 19.9776 -3.32337L19.5565 -3.37791C19.4302 -3.39154 19.2664 -3.40973 19.1401 -3.42337L18.7517 -3.45519C18.6394 -3.46428 18.485 -3.47336 18.3727 -3.47791L18.0031 -3.49154C17.8908 -3.49154 17.7457 -3.49155 17.6334 -3.49609H17.2684C17.1561 -3.49155 17.0064 -3.49155 16.8988 -3.48701L16.5151 -3.46882C16.3934 -3.45973 16.239 -3.45064 16.1174 -3.44155L15.6916 -3.40518C15.5559 -3.387 15.3781 -3.36882 15.2424 -3.35064L14.6856 -3.26882C13.0713 -2.97337 12.2945 -2.73247 11.0639 -2.26429L10.1843 -1.88248C9.04723 -1.3143 8.98173 -1.27793 8.32666 -0.873392L7.37679 -0.237036C6.9697 0.0811434 6.42694 0.503875 6.04325 0.83569L5.15889 1.6766C4.85007 2.02205 4.42899 2.47203 4.13888 2.83112L3.39023 3.83567C3.15628 4.20839 2.83341 4.69475 2.61349 5.07656L2.0286 6.21292C1.86483 6.61291 1.63085 7.13564 1.48112 7.54018L1.09278 8.77654C0.994516 9.19926 0.854122 9.75835 0.779256 10.1811L0.601448 11.4947C0.578052 11.9356 0.535929 12.522 0.53125 12.9629L0.58277 14.3083C0.671673 15.0128 0.812003 15.9538 0.947697 16.6538L1.29395 17.9083C1.439 18.3083 1.62151 18.8447 1.78528 19.2401L2.32807 20.3992C2.53863 20.7719 2.81003 21.2719 3.0393 21.6355L3.75516 22.6719C4.03123 23.0173 4.3962 23.4764 4.6863 23.8082L5.53793 24.6901C5.88418 25.0037 6.34741 25.4219 6.70771 25.7173L7.62479 26.4037C8.06931 26.69 8.66359 27.0719 9.12683 27.3355C9.95503 27.7946 10.844 28.1627 11.7752 28.4309Z" fill="#9F0219"/>
<path d="M1.22771 17.6959C-2.07574 6.25511 8.76105 -1.69937 19.6259 4.18695C30.6967 10.1824 30.6733 25.8277 19.5932 28.8049C17.3332 29.414 13.7302 29.6777 9.42546 27.4913C9.3272 27.4413 9.22894 27.3868 9.13067 27.3322C9.3927 27.464 9.73901 27.6459 10.001 27.7777C10.3941 27.9549 10.9134 28.1868 11.3112 28.3413L12.0271 28.5958C12.2797 28.6731 12.612 28.7822 12.8693 28.8504L13.4495 29.0004C13.632 29.0413 13.8753 29.0958 14.0578 29.1322L14.5444 29.2231C14.6895 29.2458 14.8813 29.2776 15.0311 29.3004L15.4522 29.3549C15.5785 29.3686 15.7469 29.3867 15.8686 29.3958L16.257 29.4277C16.3693 29.4367 16.5237 29.4458 16.6407 29.4504L17.0103 29.464C17.1226 29.464 17.2676 29.4686 17.3799 29.4731H17.7496C17.8619 29.4686 18.0117 29.4686 18.1193 29.464L18.5029 29.4458C18.6246 29.4367 18.779 29.4277 18.9007 29.4186L19.3265 29.3777C19.4622 29.364 19.6399 29.3413 19.7756 29.3276L20.3278 29.2458C21.5865 29.014 22.3819 28.8277 23.7623 28.3186L24.6326 27.9549C25.7462 27.414 25.8398 27.3686 26.5417 26.9459L27.4915 26.3231C27.908 26.0095 28.4554 25.5868 28.8531 25.255L29.7375 24.4277C30.051 24.0822 30.4768 23.6322 30.7762 23.2777L31.5342 22.2822C31.7729 21.9141 32.1051 21.4232 32.325 21.0459L32.9193 19.9187C33.0877 19.5232 33.3264 18.9959 33.4808 18.5959L33.8832 17.3641C33.9814 16.9459 34.1312 16.3869 34.2107 15.9641L34.4025 14.6505C34.4353 14.1596 34.4821 13.5051 34.4868 13.0142L34.4353 11.6687C34.3839 11.2369 34.3277 10.6642 34.2528 10.2369L33.9768 8.95509C33.8551 8.546 33.7007 7.99601 33.5557 7.59601L33.0737 6.40057C32.8818 6.01875 32.6432 5.50512 32.4327 5.12785L31.7729 4.04604C31.5155 3.69604 31.188 3.21877 30.9166 2.87787L30.1072 1.94151C29.7843 1.61879 29.3585 1.18697 29.0216 0.877884L28.1279 0.127893C26.9441 -0.731191 26.8177 -0.822109 25.8772 -1.35847L25.0069 -1.80391C24.6139 -1.98118 24.0945 -2.20846 23.6921 -2.36755L22.9762 -2.62209C22.7235 -2.69937 22.3913 -2.80845 22.1339 -2.87664L21.5584 -3.02663C21.3759 -3.06754 21.1326 -3.12209 20.9501 -3.15845L20.4682 -3.24936C20.3231 -3.27209 20.1266 -3.3039 19.9816 -3.32663L19.5604 -3.38117C19.4341 -3.39481 19.2703 -3.41299 19.1393 -3.42663L18.7556 -3.45845C18.6433 -3.46299 18.4889 -3.47663 18.3719 -3.48117L18.0023 -3.49481C17.89 -3.49481 17.7449 -3.49936 17.6373 -3.50391H17.2723C17.16 -3.49936 17.0103 -3.49935 16.898 -3.49481L16.5143 -3.47663C16.3973 -3.46754 16.2383 -3.45845 16.1166 -3.44936L15.6908 -3.40844C15.5598 -3.39481 15.3773 -3.37209 15.2463 -3.35845L14.6895 -3.27664C13.0752 -2.98118 12.2984 -2.73572 11.0678 -2.27209L10.1882 -1.89027C9.05113 -1.3221 8.98096 -1.28573 8.32588 -0.881191L7.38069 -0.244835C6.97361 0.068799 6.43084 0.491516 6.04248 0.827878L5.1628 1.66878C4.85398 2.01423 4.43289 2.46423 4.14279 2.82332L3.39414 3.82786C3.16019 4.20058 2.83263 4.69149 2.61739 5.06876L2.03719 6.20512C1.86874 6.60511 1.63944 7.12783 1.48971 7.53237L1.09668 8.76872C0.998422 9.19145 0.858028 9.75053 0.783163 10.1733L0.605354 11.4869C0.581959 11.9278 0.539835 12.5096 0.535156 12.9505L0.586677 14.296C0.67558 15.0005 0.81591 15.9414 0.951604 16.6414L1.29785 17.8959L1.66752 18.9232L1.25107 17.7459C1.25107 17.7459 1.23702 17.7005 1.23234 17.6868" fill="#9A0218"/>
<path d="M9.42198 27.4946C9.11316 27.331 8.72016 27.0946 8.41602 26.9219C8.62658 27.0491 8.91201 27.2128 9.12257 27.3355C9.22083 27.3901 9.31909 27.4446 9.41735 27.4946" fill="#9A0218"/>
<path d="M0.727338 15.5668C-0.877596 2.43504 12.9398 -2.25584 22.3308 5.17592C32.4002 13.144 29.5974 28.253 17.8529 29.3075C14.8536 29.5757 12.5187 28.7757 11.7513 28.5121L12.4625 28.7439L12.8603 28.8621L13.4405 29.0121C13.623 29.053 13.8663 29.1076 14.0487 29.1439L14.5307 29.2348C14.6758 29.2576 14.8723 29.2894 15.0174 29.3121L15.4432 29.3666C15.5695 29.3803 15.7332 29.3985 15.8642 29.4076L16.248 29.4394C16.3603 29.4485 16.5146 29.4576 16.6316 29.4621L17.0013 29.4757C17.1089 29.4757 17.2587 29.4803 17.3663 29.4848H17.7359C17.8482 29.4803 17.9933 29.4803 18.1056 29.4757L18.4939 29.4576C18.6109 29.4485 18.77 29.4394 18.8917 29.4303L19.3174 29.3894C19.4531 29.3757 19.631 29.353 19.7667 29.3394L20.3188 29.2575C21.5774 29.0257 22.3729 28.8394 23.7532 28.3303L24.6236 27.9666C25.7372 27.4257 25.8308 27.3803 26.5326 26.9576L27.4825 26.3348C27.8989 26.0212 28.4464 25.5985 28.8441 25.2667L29.7284 24.4349C30.0466 24.0894 30.4678 23.6394 30.7672 23.2849L31.5253 22.2894C31.7639 21.9212 32.0914 21.4303 32.316 21.0531L32.9103 19.9258C33.0787 19.5303 33.322 19.0031 33.4717 18.6031L33.8741 17.3713C33.9771 16.9531 34.1222 16.394 34.2017 15.9713L34.3936 14.6577C34.4263 14.1668 34.4731 13.5122 34.4777 13.0213L34.4263 11.6759C34.3748 11.2441 34.3187 10.6713 34.2438 10.2441L33.9677 8.96226C33.8461 8.55317 33.6917 8.00316 33.5513 7.60317L33.0693 6.40773C32.8775 6.02592 32.6342 5.51228 32.4283 5.13956L31.7685 4.05775C31.5112 3.70775 31.1837 3.23048 30.9123 2.88957L30.1028 1.95322C29.7799 1.63049 29.3541 1.19868 29.0172 0.889589L28.1235 0.139598C26.9397 -0.719486 26.8134 -0.81039 25.8729 -1.34675L25.0072 -1.79221C24.6142 -1.96948 24.0948 -2.19674 23.6924 -2.35583L22.9765 -2.61038C22.7238 -2.68765 22.3916 -2.79675 22.1343 -2.86493L21.5541 -3.01492C21.3716 -3.05583 21.1282 -3.11038 20.9457 -3.14675L20.4638 -3.23765C20.3188 -3.26037 20.1222 -3.2922 19.9772 -3.31492L19.5561 -3.36947C19.4297 -3.3831 19.266 -3.40129 19.1396 -3.41492L18.7513 -3.44674C18.639 -3.45129 18.4846 -3.46492 18.3676 -3.46947L17.9979 -3.4831C17.8903 -3.4831 17.7406 -3.48764 17.633 -3.49219H17.268C17.1557 -3.48764 17.006 -3.48765 16.8984 -3.4831L16.5146 -3.46492C16.393 -3.45583 16.2386 -3.44674 16.1169 -3.43764L15.6911 -3.39674C15.5554 -3.3831 15.3776 -3.36038 15.2466 -3.34674L14.6898 -3.26492C13.0755 -2.96946 12.2988 -2.72856 11.0635 -2.26038L10.1838 -1.87857C9.04677 -1.31039 8.98127 -1.27403 8.32152 -0.869486L7.37633 -0.23313C6.96925 0.0805039 6.42648 0.503235 6.03811 0.839596L5.15844 1.68049C4.84962 2.02594 4.42853 2.47594 4.13374 2.83503L3.3851 3.83956C3.15114 4.21229 2.82827 4.7032 2.60835 5.08047L2.02346 6.21682C1.85501 6.61682 1.62572 7.13955 1.47598 7.54409L1.08295 8.78044C0.984693 9.20317 0.844299 9.76225 0.769434 10.185L0.591625 11.4986C0.56823 11.9395 0.526163 12.5213 0.521484 12.9622L0.572948 14.3122C0.629097 14.7622 0.689884 15.3667 0.76475 15.8167L0.722654 15.5668H0.727338Z" fill="#950217"/>
<path d="M0.521484 12.9472C1.19995 -1.06629 16.8515 -1.88446 24.4691 6.13366C33.5747 15.7154 28.7458 29.8699 16.5193 29.438C16.2713 29.4289 15.518 29.4017 14.4278 29.2108L14.9004 29.288L15.022 29.3062L15.4432 29.3607C15.5695 29.3744 15.7379 29.3926 15.8642 29.4062L16.2526 29.438C16.3649 29.4471 16.5193 29.4562 16.6363 29.4608L17.006 29.4744C17.1136 29.4744 17.2633 29.4789 17.3756 29.4789H17.7453C17.8575 29.4789 18.0073 29.4744 18.1149 29.4698L18.4986 29.4517C18.6202 29.4426 18.7746 29.4335 18.8963 29.4244L19.3221 29.388C19.4578 29.3698 19.6356 29.3517 19.7713 29.3335L20.3234 29.2517C21.5821 29.0198 22.3776 28.8335 23.7579 28.3199L24.6236 27.9562C25.7419 27.4153 25.8308 27.3744 26.5326 26.9471L27.4825 26.3244C27.8989 26.0108 28.4464 25.5881 28.8441 25.2562L29.7331 24.4244C30.0466 24.0835 30.4724 23.629 30.7719 23.2744L31.5299 22.279C31.7685 21.9063 32.1008 21.4199 32.3207 21.0426L32.9149 19.9154C33.0834 19.5199 33.3267 18.9926 33.4764 18.5926L33.8788 17.3609C33.9817 16.9427 34.1268 16.3836 34.2111 15.9609L34.4029 14.6472C34.4309 14.1563 34.4824 13.5018 34.4871 13.0109L34.4356 11.6654C34.3842 11.2336 34.328 10.6564 34.2532 10.2291L33.9771 8.94728C33.8554 8.53819 33.701 7.98818 33.556 7.58819L33.0787 6.39275C32.8869 6.01094 32.6435 5.4973 32.4377 5.12003L31.7779 4.03822C31.5205 3.68367 31.193 3.21096 30.9216 2.87005L30.1075 1.92915C29.7893 1.60642 29.3635 1.17461 29.0266 0.865522L28.1329 0.115531C26.9444 -0.743553 26.8227 -0.834471 25.8822 -1.37083L25.0119 -1.81627C24.6189 -1.99354 24.0995 -2.22537 23.6971 -2.37991L22.9812 -2.63446C22.7285 -2.71173 22.3916 -2.81627 22.1389 -2.889L21.5587 -3.03899C21.3762 -3.0799 21.1329 -3.13445 20.9504 -3.17081L20.4685 -3.26173C20.3235 -3.28445 20.1316 -3.31626 19.9819 -3.33899L19.5607 -3.39353C19.4344 -3.40717 19.266 -3.42535 19.1396 -3.43899L18.756 -3.47081C18.6437 -3.47536 18.4892 -3.48899 18.3722 -3.49353L18.0026 -3.50717C17.895 -3.50717 17.7453 -3.51172 17.6376 -3.51172H17.268C17.1557 -3.51172 17.0107 -3.50718 16.8984 -3.50263L16.5146 -3.48445C16.3977 -3.47536 16.2386 -3.46627 16.1169 -3.45718L15.6911 -3.41627C15.5554 -3.39809 15.3776 -3.3799 15.2466 -3.36626L14.6898 -3.28445C13.0755 -2.989 12.3034 -2.74355 11.0682 -2.27991L10.1885 -1.8981C9.05146 -1.32538 8.98128 -1.29356 8.3262 -0.889017L7.38102 -0.252661C6.97393 0.0655184 6.43584 0.483704 6.0428 0.820065L5.16312 1.66551C4.8543 2.00641 4.43321 2.46096 4.13843 2.82005L3.38978 3.82458C3.15582 4.19731 2.82827 4.68822 2.61303 5.07003L2.03283 6.20184C1.86438 6.60184 1.6304 7.12457 1.48535 7.52911L1.09701 8.76546C0.998744 9.18364 0.85835 9.74727 0.783485 10.17L0.605676 11.4836C0.582281 11.9245 0.540157 12.5109 0.535478 12.9472V12.9336L0.521484 12.9472Z" fill="#900217"/>
<path d="M0.900066 9.56155C4.98493 -4.52015 22.4006 -0.852007 27.8845 9.38428C33.2046 19.3206 27.6412 29.6523 17.057 29.4796C17.2582 29.4796 17.5343 29.4841 17.7355 29.4796C17.8478 29.4796 17.9975 29.475 18.1052 29.4705L18.4888 29.4523C18.6105 29.4432 18.7649 29.4341 18.8866 29.425L19.3123 29.3841C19.448 29.366 19.6259 29.3477 19.7616 29.3296L20.3137 29.2477C21.5724 29.0159 22.3678 28.8296 23.7482 28.3205L24.6138 27.9569C25.7274 27.416 25.821 27.375 26.5229 26.9478L27.4727 26.325C27.8892 26.0114 28.4366 25.5887 28.8344 25.2523L29.7234 24.4205C30.0369 24.0796 30.4627 23.6251 30.7622 23.2705L31.5202 22.2751C31.7588 21.9069 32.0863 21.416 32.3109 21.0387L32.9052 19.9115C33.0783 19.516 33.3169 18.9888 33.4666 18.5888L33.869 17.3569C33.972 16.9388 34.1171 16.3797 34.2013 15.9569L34.3932 14.6433C34.4212 14.1524 34.4727 13.4979 34.4773 13.007L34.4259 11.6615C34.3744 11.2297 34.3183 10.657 34.2434 10.2252L33.9673 8.94337C33.8457 8.53428 33.6913 7.98429 33.5462 7.5843L33.0689 6.38885C32.8771 6.00703 32.6338 5.49341 32.4279 5.11614L31.7681 4.03432C31.5108 3.67978 31.1833 3.20251 30.9119 2.86615L30.1024 1.92979C29.7795 1.60707 29.3584 1.17525 29.0168 0.866166L28.1231 0.116174C26.9393 -0.74291 26.813 -0.833827 25.8725 -1.37019L25.0022 -1.81563C24.6091 -1.9929 24.0897 -2.22473 23.692 -2.37927L22.9761 -2.63381C22.7234 -2.71108 22.3912 -2.82017 22.1339 -2.88835L21.5537 -3.03835C21.3712 -3.07926 21.1278 -3.13381 20.9453 -3.17017L20.4634 -3.26108C20.3184 -3.28381 20.1265 -3.31562 19.9768 -3.33835L19.5557 -3.39289C19.4293 -3.40653 19.2609 -3.42471 19.1345 -3.43835L18.7509 -3.47017C18.6386 -3.47471 18.4842 -3.48834 18.3672 -3.49289L17.9975 -3.50653C17.8852 -3.50653 17.7402 -3.51108 17.6326 -3.51562H17.2629C17.1506 -3.51562 17.0009 -3.50653 16.8933 -3.50653L16.5096 -3.48835C16.3926 -3.47926 16.2335 -3.47017 16.1118 -3.46108L15.686 -3.42018C15.5503 -3.40654 15.3726 -3.3838 15.2415 -3.37017L14.6847 -3.28835C13.0704 -2.9929 12.2984 -2.752 11.0631 -2.28382L10.1834 -1.90199C9.04638 -1.33382 8.9762 -1.29746 8.32112 -0.888373L7.37594 -0.252017C6.97353 0.0616167 6.43077 0.484348 6.0424 0.820709L5.16273 1.66615C4.85391 2.00706 4.43281 2.4616 4.13803 2.82069L3.38938 3.82522C3.15543 4.19795 2.82787 4.68886 2.61264 5.07068L2.03243 6.20248C1.86866 6.60248 1.63469 7.12976 1.48495 7.52975L1.09661 8.76611C0.998348 9.18429 0.857954 9.74337 0.783089 10.1706C0.759693 10.2979 0.736286 10.4706 0.712891 10.5979C0.773719 10.2843 0.843931 9.86155 0.914117 9.54792" fill="#8B0216"/>
<path d="M1.3542 7.89018C6.33277 -4.90518 23.2758 -1.97338 29.0218 9.64472C33.3733 18.4446 28.9188 28.0082 19.8601 29.3218L20.4169 29.2355C21.2638 29.0764 22.2231 28.8946 23.7485 28.3218L24.6188 27.9582C25.7324 27.4173 25.826 27.3718 26.5278 26.9491L27.4777 26.3264C27.8941 26.0128 28.4415 25.59 28.8393 25.2582L29.7236 24.4264C30.0371 24.0855 30.463 23.6355 30.7624 23.281L31.5204 22.2855C31.7591 21.9173 32.0913 21.4264 32.3112 21.0492L32.9054 19.9219C33.0739 19.5219 33.3125 18.9992 33.4669 18.5992L33.8693 17.3674C33.9676 16.9447 34.1173 16.3901 34.1969 15.9674L34.3887 14.6583C34.4215 14.1674 34.4683 13.5129 34.4729 13.022L34.4215 11.6765C34.37 11.2447 34.3138 10.672 34.239 10.2447L33.9629 8.9629C33.8413 8.55381 33.6869 8.00835 33.5418 7.60381L33.0598 6.41291C32.868 6.0311 32.6294 5.51747 32.4188 5.1402L31.7591 4.05839C31.5017 3.70839 31.1742 3.23112 30.9028 2.89021L30.0933 1.95386C29.7704 1.63113 29.3447 1.19478 29.0078 0.890233L28.114 0.140242C26.9256 -0.718843 26.8039 -0.809746 25.8634 -1.34611L24.9931 -1.79611C24.6 -1.96884 24.0807 -2.20065 23.6829 -2.35974L22.967 -2.61428C22.7144 -2.69155 22.3774 -2.80064 22.1248 -2.86882L21.5492 -3.01883C21.3668 -3.05974 21.1235 -3.11427 20.941 -3.15064L20.459 -3.24155C20.314 -3.26428 20.1221 -3.2961 19.9724 -3.31883L19.5513 -3.37337C19.4249 -3.38701 19.2611 -3.40519 19.1301 -3.41883L18.7465 -3.45064C18.6342 -3.45973 18.4798 -3.46883 18.3628 -3.47337L17.9931 -3.48701C17.8855 -3.48701 17.7358 -3.49155 17.6281 -3.49609H17.2585C17.1509 -3.49155 17.0012 -3.49155 16.8889 -3.48701L16.5052 -3.46882C16.3882 -3.45973 16.2291 -3.45064 16.1121 -3.44155L15.6863 -3.40064C15.5506 -3.38701 15.3728 -3.36427 15.2418 -3.35064L14.685 -3.26882C13.0707 -2.97337 12.294 -2.73247 11.0633 -2.26429L10.1837 -1.88248C9.04665 -1.3143 8.97647 -1.27793 8.3214 -0.873392L7.37621 -0.237036C6.96912 0.0765979 6.42635 0.499329 6.03799 0.83569L5.15831 1.6766C4.84949 2.02205 4.42841 2.47203 4.1383 2.83112L3.38966 3.83567C3.1557 4.20839 2.82815 4.69929 2.61291 5.07656L2.02802 6.21292C1.85957 6.61291 1.63027 7.13564 1.48054 7.54018C1.42907 7.69473 1.3542 7.90381 1.30273 8.05835C1.32145 8.00835 1.34016 7.93564 1.35888 7.88564" fill="#860215"/>
<path d="M3.2543 4.05839C11.2883 -7.09607 28.966 0.581149 31.2447 13.0674C33.4298 25.0491 23.6599 28.3946 22.5416 28.74L23.1592 28.54L23.7488 28.3264L24.6144 27.9628C25.7327 27.4219 25.8216 27.3764 26.5235 26.9537L27.4687 26.3309C27.8851 26.0173 28.4326 25.5946 28.8303 25.2628L29.7193 24.431C30.0328 24.0855 30.4586 23.6355 30.7581 23.281L31.5161 22.2855C31.7548 21.9173 32.0823 21.4264 32.3069 21.0492L32.9011 19.9219C33.0742 19.5265 33.3129 18.9992 33.4626 18.5992L33.865 17.3674C33.9633 16.9447 34.113 16.3901 34.1926 15.9674L34.3844 14.6538C34.4125 14.1629 34.4639 13.5083 34.4686 13.0174L34.4171 11.672C34.3657 11.2402 34.3095 10.6674 34.2346 10.2402L33.9586 8.95835C33.8323 8.54926 33.6825 7.99927 33.5375 7.59928L33.0555 6.40383C32.8637 6.02201 32.625 5.50838 32.4145 5.13565L31.7548 4.05384C31.4974 3.70384 31.1698 3.22658 30.8984 2.88568L30.089 1.94932C29.7661 1.6266 29.345 1.19477 29.0034 0.885683L28.1097 0.135692C26.9212 -0.723393 26.7996 -0.814296 25.8544 -1.35066L24.9887 -1.79611C24.5957 -1.97338 24.0763 -2.20519 23.6739 -2.35974L22.958 -2.61428C22.7053 -2.69155 22.3684 -2.80064 22.1157 -2.86882L21.5355 -3.01883C21.3531 -3.05974 21.1098 -3.11427 20.9273 -3.15064L20.4453 -3.24155C20.3003 -3.26428 20.1084 -3.2961 19.9587 -3.31883L19.5376 -3.37337C19.4113 -3.38701 19.2428 -3.40519 19.1212 -3.41883L18.7374 -3.45064C18.6251 -3.45518 18.4708 -3.46883 18.3538 -3.47337L17.9841 -3.48701C17.8765 -3.48701 17.7268 -3.49155 17.6191 -3.49609H17.2495C17.1372 -3.49155 16.9875 -3.49155 16.8799 -3.48701L16.4962 -3.46882C16.3792 -3.45973 16.2201 -3.45064 16.0984 -3.44155L15.6727 -3.40064C15.5417 -3.38701 15.3591 -3.36427 15.2281 -3.35064L14.6713 -3.26882C13.057 -2.97337 12.2803 -2.72792 11.045 -2.26429L10.1653 -1.88248C9.02833 -1.3143 8.95815 -1.27793 8.30307 -0.873392L7.3532 -0.237036C6.94612 0.0765977 6.40803 0.499329 6.01967 0.83569L5.13999 1.68113C4.83117 2.02204 4.41002 2.47658 4.11524 2.83567L3.36659 3.84021C3.13264 4.21293 2.80508 4.70384 2.58984 5.08111L3.05307 4.33567C3.10922 4.25385 3.1841 4.14476 3.24025 4.06294" fill="#810214"/>
<path d="M12.8096 28.4558C23.4406 30.4876 29.8837 19.4332 23.4171 10.256C16.7494 0.787876 2.79632 2.32876 1.13992 12.715C0.0450069 19.5741 5.6085 27.0786 12.8096 28.4558Z" fill="#A9021B"/>
<path d="M11.2643 27.898C22.3304 31.2207 28.6894 20.5026 23.6874 11.839C17.5999 1.29365 4.01642 2.62091 1.63007 11.5527C-0.35855 19.0026 5.00369 26.0207 11.2597 27.898" fill="#AE021B"/>
<path d="M9.13619 26.86C18.6769 31.6554 26.8981 23.5191 24.3433 14.9964C20.9416 3.66471 7.00724 1.94653 2.63228 9.94647C-0.488689 15.6464 2.55269 23.5464 9.13619 26.86Z" fill="#B3021C"/>
<path d="M8.4768 26.3315C17.3999 31.2315 26.3837 24.5134 23.7307 14.9226C20.984 5.00445 6.77828 2.19992 2.61855 10.7544C-0.221666 16.5907 3.35786 23.5179 8.4768 26.327" fill="#B8021D"/>
<path d="M7.46555 25.4786C15.6166 30.8604 24.7502 25.6831 23.4868 16.4014C22.2001 6.93782 9.3185 2.48331 3.80183 9.59235C-0.152014 14.6878 2.47295 22.1832 7.46555 25.4786Z" fill="#BD021E"/>
<path d="M7.3387 25.1432C15.733 30.9841 24.38 24.6251 22.9622 16.3433C21.2731 6.47522 8.09205 3.82068 3.78727 10.3615C0.352809 15.5751 2.95438 22.0978 7.3387 25.1432Z" fill="#C2021E"/>
<path d="M7.47467 24.9633C16.1263 30.8951 23.8422 23.5178 22.4291 16.2952C20.5153 6.51796 8.10163 4.44071 3.80621 11.1725C1.06425 15.4724 2.67858 21.5315 7.47467 24.9678" fill="#C7021F"/>
<path d="M6.47344 23.8195C14.0068 30.4422 22.2046 24.7423 22.0502 17.7241C21.8396 8.07876 10.1138 5.38333 5.27087 10.1697C1.23748 14.156 2.63657 20.4468 6.47344 23.8195Z" fill="#CC0220"/>
<path d="M6.69768 23.6343C13.824 29.8888 22.5318 24.1252 21.5445 16.2161C20.5806 8.52528 9.33202 5.33894 4.82136 11.4843C1.77526 15.6389 3.51589 20.8434 6.69768 23.6388" fill="#D10321"/>
<path d="M6.98442 23.4382C14.2324 29.5972 22.1354 22.8973 21.1855 16.1837C20.1655 8.95195 9.80592 6.00197 5.34673 11.6792C1.97777 15.9701 4.27522 21.1382 6.98442 23.4382Z" fill="#D60322"/>
<path d="M6.24064 22.1656C12.1176 28.8337 20.4604 23.9792 20.8675 17.6338C21.3401 10.2929 11.6122 6.74294 6.8723 10.9565C2.20723 15.102 4.42046 20.1019 6.24064 22.1656Z" fill="#DB0322"/>
<path d="M6.63239 21.9676C12.121 28.0221 20.0568 23.4494 20.5106 17.6085C20.9926 11.3495 12.7948 6.47222 7.10498 11.4267C3.24004 14.7903 4.5034 19.6176 6.63239 21.9676Z" fill="#E00323"/>
<path d="M7.10566 21.7603C12.1778 27.2421 19.6597 22.9467 20.1463 17.5876C20.6517 11.9831 13.1371 6.63316 7.12908 12.0604C5.12642 13.8695 3.96598 18.3694 7.10566 21.7603Z" fill="#E50324"/>
<path d="M7.6582 21.5631C12.2297 26.0995 19.2249 22.9495 19.7958 17.5722C20.4509 11.4268 12.9877 7.79505 8.05123 11.8541C4.72438 14.5904 5.16424 19.0813 7.6582 21.5586" fill="#EA0325"/>
<path d="M7.26514 20.1756C10.9102 25.4937 18.86 22.9256 19.5478 17.562C20.2216 12.262 13.8534 8.57567 9.05727 11.4938C6.19834 13.2347 5.34203 17.3711 7.26514 20.1756Z" fill="#EF0325"/>
<path d="M7.83032 20.0065C11.087 24.5974 18.48 23.011 19.2941 17.5474C19.6638 15.0565 18.3583 12.7884 15.7099 11.3202C14.994 10.9202 12.3924 9.78836 9.08897 11.8929C7.11438 13.152 5.53288 16.761 7.835 20.0019" fill="#F40326"/>
<path d="M8.30299 19.8831C11.583 23.9104 18.2086 22.4649 19.0415 17.5377C19.2287 16.4332 19.2802 13.6423 15.7147 11.5968C14.6385 10.9787 12.4019 10.2241 9.45872 12.0423C6.88521 13.6377 6.32373 17.4468 8.30299 19.8786" fill="#F90327"/>
<path d="M8.799 19.7693C12.1867 23.6783 17.9934 21.7238 18.7889 17.5329C19.5563 13.4921 14.4607 9.41481 10.1934 11.9466C6.07575 14.3875 7.73216 18.5329 8.799 19.7693Z" fill="#FA2141"/>
<path d="M8.85555 19.0653C9.76798 20.4244 11.5133 21.938 14.6577 21.4426C16.1877 21.2017 18.1109 19.5699 18.5413 17.529C18.9437 15.6153 18.0734 13.8426 15.9585 12.2654C14.798 11.4017 12.1309 11.1836 10.9471 11.8563C8.61222 13.1881 8.49993 13.5744 7.96651 15.4108C7.88696 15.6835 7.55944 17.1335 8.85555 19.0653Z" fill="#FA2E4C"/>
<path d="M9.61252 19.604C11.0677 21.054 13.791 21.504 14.6005 21.1767C16.6265 20.354 16.6639 20.3404 17.698 18.9358C18.1238 18.354 18.5075 17.2086 18.3484 16.0677C18.1192 14.4631 17.0102 13.3495 16.6733 13.0495C16.0868 12.5192 15.0169 12.0556 13.4634 11.6586C11.9942 11.2814 9.44411 13.0131 9.00895 13.6768C6.92207 16.8631 9.50491 19.4949 9.6172 19.604" fill="#FA3754"/>
<path d="M9.00991 18.2475C9.60884 19.3566 11.1295 21.1793 14.5453 20.9066C15.5139 20.8293 17.6475 19.2884 18.0312 17.5248C18.6067 14.8521 16.4544 13.1293 16.3655 13.0566C15.2331 12.1703 13.5439 11.8839 13.4737 11.8703C12.814 11.7612 11.8876 11.9612 11.2746 12.2203C10.6335 12.493 9.88486 13.093 9.43099 13.6112C9.2719 13.793 8.56536 15.2884 8.56068 15.3021C8.556 15.3157 8.2612 16.8657 9.01454 18.252" fill="#FA3F5B"/>
<path d="M9.29556 18.1914C9.77283 19.0095 11.2327 20.8914 14.4894 20.6277L16.1083 19.9459C16.9365 19.1641 17.484 18.6459 17.7835 17.5141C18.2888 15.6141 17.2219 13.9641 16.0522 13.055C15.2801 12.455 13.4974 12.0732 13.4787 12.0732C12.8189 11.9914 11.9018 12.1914 11.2889 12.455C11.0034 12.5778 9.53885 13.2914 8.86038 15.2368C8.76211 15.5186 8.61708 17.0323 9.29087 18.1868" fill="#FB4761"/>
<path d="M9.58952 18.1369C9.58952 18.1369 10.633 19.3142 10.7593 19.4006C11.2927 19.7733 12.1302 20.0597 12.7245 20.3324C13.1924 20.546 13.9317 20.4006 14.4417 20.3597C14.9798 20.3187 15.6957 20.0324 16.0887 19.6733C17.076 18.7688 17.427 17.9324 17.5487 17.5142C17.7639 16.7597 18.0259 14.8233 15.7472 13.0643C15.1857 12.6279 14.2078 12.3415 13.4919 12.2824C12.8274 12.2279 11.9197 12.4279 11.3114 12.6961C9.91702 13.3143 8.0922 15.7279 9.58483 18.1369" fill="#FB4D66"/>
<path d="M9.8857 18.0889C10.4191 18.9435 11.7105 20.3435 14.401 20.1344C14.9484 20.0935 15.6644 19.7571 16.0715 19.398C16.8435 18.7026 17.3114 17.5253 17.3161 17.5162C17.7747 16.0571 17.1617 14.4162 15.7626 13.3435C15.5567 13.1844 13.7881 12.5208 13.512 12.4935C12.8476 12.4344 11.9492 12.6708 11.3409 12.939C11.3035 12.9571 8.00464 15.0617 9.89033 18.0889" fill="#FB536C"/>
<path d="M10.1898 18.039C10.7934 18.998 12.1176 19.5935 12.5528 19.7889C13.0487 20.0117 13.8161 19.9526 14.3589 19.9071C14.9204 19.8662 15.6316 19.4844 16.048 19.1162C16.3849 18.8208 17.0775 17.5253 17.0775 17.5117C17.5828 16.0117 16.7874 14.3935 15.786 13.6299C15.2058 13.189 14.2513 12.7708 13.5213 12.6981C12.8616 12.6299 11.9679 12.9026 11.3643 13.1754C11.3409 13.189 8.44917 15.2572 10.1945 18.0344" fill="#FB5970"/>
<path d="M10.4737 17.9968C10.4737 17.9968 11.3674 19.0331 12.4998 19.5286C13.0004 19.7468 13.7725 19.724 14.3199 19.6831C14.3293 19.6831 15.8547 18.9695 16.0278 18.8195C16.3788 18.5149 16.6876 17.9513 16.842 17.5195C17.4971 15.6604 16.1682 14.1832 15.7751 13.8923C15.4616 13.6559 13.8239 12.9423 13.5291 12.9104C13.4215 12.8968 11.4797 13.3741 11.3861 13.4377C10.8621 13.7877 10.1929 14.4468 10.0713 15.0513C9.90283 15.8922 9.69232 16.9331 10.4691 17.9968" fill="#FB5E75"/>
<path d="M10.7544 17.9582C10.7544 17.9582 12.233 19.1718 12.4295 19.2582C12.9396 19.4763 13.721 19.4991 14.2824 19.4536C14.3012 19.4536 16.0933 18.9945 16.6033 17.5218C17.3239 15.4536 15.7985 14.1764 15.7845 14.1627C15.7704 14.1536 13.6742 13.1309 13.5432 13.1173C13.4636 13.1082 11.4984 13.6673 11.4188 13.7218C10.3192 14.4537 9.5753 16.44 10.7498 17.9536" fill="#FB6379"/>
<path d="M11.0409 17.9142C11.3497 18.3051 11.8877 18.7551 12.3557 18.946C12.8844 19.1597 13.6752 19.2597 14.2414 19.2188C14.4379 19.2051 15.9679 18.1551 15.982 18.1415C16.1551 18.0051 16.2955 17.7279 16.3657 17.5233C16.9178 15.9643 15.9867 14.5734 15.7902 14.437C15.1866 14.0052 14.3022 13.4279 13.5582 13.3552C12.8985 13.2916 11.9954 13.6416 11.4526 14.0097C10.5402 14.6279 9.90851 16.5006 11.0362 17.9188" fill="#FB677D"/>
<path d="M11.3309 17.8784C11.5555 18.1602 11.9345 18.4966 12.2761 18.6284C12.8235 18.8375 13.6283 19.1011 14.2038 18.9784C14.8308 18.8466 15.4532 18.183 15.9632 17.8011C16.0427 17.742 16.1036 17.6193 16.1316 17.5284C16.7072 15.7239 15.9538 14.8693 15.6029 14.5875C15.0788 14.1648 14.26 13.6466 13.5815 13.5966C12.9217 13.5512 12.1076 14.0557 11.4899 14.2921C10.7366 14.583 10.6758 16.4648 10.6758 16.483C10.7413 16.9375 11.0361 17.5148 11.3309 17.8784Z" fill="#FB6C81"/>
<path d="M11.6206 17.8423C11.761 18.0151 11.9902 18.2332 12.2008 18.3059C12.767 18.5014 13.5717 18.8378 14.1613 18.715C14.7696 18.5878 15.3639 17.9241 15.8458 17.5378C15.9067 17.4923 15.916 17.3741 15.9347 17.2969C16.0236 16.9378 16.2155 16.4332 16.1125 16.0742C15.9722 15.5742 15.5885 14.9333 15.172 14.6014C14.7649 14.2742 14.1286 13.8651 13.5998 13.8378C12.9401 13.8015 12.1306 14.3014 11.5317 14.5696C11.4147 14.6242 11.3164 14.7832 11.2603 14.8969C10.5257 16.3832 11.3492 17.5014 11.6253 17.8423" fill="#FC7084"/>
<path d="M11.9164 17.8121C11.9679 17.8757 12.0521 17.9621 12.1316 17.9848C12.7212 18.1576 13.5213 18.5666 14.1249 18.4485C14.5835 18.3621 15.1075 17.9167 15.3929 17.553C15.6596 17.2121 15.8094 16.6258 15.8796 16.203C15.8889 16.144 15.903 16.0576 15.8702 16.0076C15.5614 15.5757 15.173 14.953 14.7472 14.6212C14.4524 14.3939 13.9986 14.0985 13.6243 14.0803C12.9645 14.0485 12.0053 14.3667 11.5748 14.853C11.252 15.2167 11.1584 15.9348 11.2145 16.4121C11.2707 16.8757 11.6263 17.4439 11.9258 17.8076" fill="#FC7488"/>
<path d="M12.0141 17.4338C12.1123 17.552 12.2667 17.7065 12.4118 17.7565C12.8984 17.9338 13.5769 18.2701 14.0823 18.1792C14.3911 18.1247 14.756 17.8292 14.9291 17.5747C15.2005 17.1792 15.5749 16.5611 15.5 16.0883C15.4158 15.5429 14.7233 15.0338 14.3115 14.6474C14.1524 14.4929 13.8623 14.3338 13.6377 14.3247C13.0622 14.2974 10.3436 15.3792 12.0141 17.4383" fill="#FC788B"/>
<path d="M11.8457 16.5554C12.1732 16.9645 12.7394 17.4054 13.1933 17.6826C13.4179 17.819 13.7828 17.9508 14.0449 17.9054C14.2039 17.8736 14.3958 17.7326 14.4754 17.5963C14.7187 17.1781 15.1632 16.5827 15.093 16.1008C15.093 16.0872 13.9841 14.5781 13.6612 14.5599C13.4272 14.5509 13.2728 14.5418 11.7802 16.1827C11.7053 16.269 11.7755 16.4645 11.8457 16.5554Z" fill="#FC7C8F"/>
<path d="M13.9785 17.6239C13.9785 17.6239 13.9972 17.633 14.0065 17.633C14.0814 17.6194 14.6804 16.1331 14.6804 16.1194C14.6195 15.674 14.1609 14.9922 13.6977 14.9694C13.1222 14.9422 12.308 15.7285 12.3408 16.2876C12.3736 16.9103 13.4123 17.3285 13.9785 17.6239Z" fill="#FC8092"/>
<path d="M13.9127 16.9426C14.1747 16.8835 14.3058 16.4017 14.2636 16.1427C14.2262 15.9108 13.9922 15.5608 13.7536 15.5472C13.4541 15.5336 13.0377 15.9381 13.047 16.2245C13.0611 16.5563 13.5805 17.0154 13.9127 16.9381" fill="#FC8395"/>
<path d="M13.8289 16.2296C13.8289 16.2296 13.857 16.1887 13.857 16.1705C13.857 16.1523 13.8382 16.1295 13.8195 16.125C13.7961 16.125 13.7633 16.1568 13.768 16.175C13.768 16.2023 13.8101 16.2341 13.8335 16.2296" fill="#FC8798"/>
<path d="M19.7629 29.3343C16.0945 29.8116 12.515 29.1389 9.12734 27.3344C4.98165 25.048 2.24902 20.5299 2.25838 14.9799C2.2771 6.23909 9.11796 -1.75178 17.531 -2.85177C9.12264 -1.75178 2.2771 6.23909 2.25838 14.9799C2.24902 20.5299 4.98165 25.048 9.12734 27.3344C-5.10183 18.8617 -0.156036 0.161847 13.5491 -3.04722C28.4427 -6.53355 40.1077 9.69361 31.6385 22.1117C28.9387 26.0707 24.6105 28.7025 19.7629 29.3343Z" fill="#A4021A"/>
<path d="M2.26288 14.981C2.25352 20.531 4.98614 25.0491 9.12715 27.3355C8.83704 27.1628 8.44865 26.9309 8.15854 26.7582C7.7187 26.4537 7.13383 26.0446 6.70803 25.7173L5.78626 24.9264C5.45404 24.5946 5.00012 24.1537 4.68662 23.8082L3.88651 22.8492C3.62916 22.4901 3.27826 22.0128 3.03962 21.6401L2.39859 20.5401C2.21142 20.1492 1.94936 19.6355 1.78091 19.2446L1.32705 18.0356C1.21008 17.6219 1.03697 17.0719 0.938709 16.6583L0.690703 15.3674C0.615837 14.6492 0.540974 13.6901 0.517578 12.9674L0.573725 11.622C0.629874 11.1902 0.686035 10.6129 0.760901 10.1856L1.04164 8.90381C1.16797 8.49472 1.32234 7.94473 1.46739 7.54473L1.94936 6.35382C2.1412 5.97201 2.3892 5.45383 2.59976 5.08111L3.25953 4.0084C3.51688 3.65385 3.85376 3.17658 4.12515 2.83567L4.92994 1.9084C5.2528 1.58568 5.68332 1.14933 6.0249 0.84024L6.91857 0.099334C7.33033 -0.196118 7.88251 -0.596117 8.3083 -0.868842L9.16924 -1.37339C10.3109 -1.9552 10.3531 -1.98247 11.0456 -2.25974L11.6679 -2.4961C12.7862 -2.86428 13.5816 -3.10973 15.224 -3.35064L15.6638 -3.40064C15.7902 -3.41428 15.9633 -3.43246 16.0943 -3.44155L16.4874 -3.46882C16.6044 -3.47337 16.7587 -3.48246 16.8757 -3.48701L17.2454 -3.49609C17.353 -3.49609 17.5027 -3.49609 17.6103 -3.49609L17.9753 -3.48701C18.0876 -3.48246 18.2327 -3.47792 18.345 -3.47337L18.7239 -3.45064C18.8409 -3.44155 18.9954 -3.42792 19.1123 -3.41883L19.5241 -3.37791C19.6551 -3.35973 19.8235 -3.34155 19.9546 -3.32337L20.4225 -3.25064C20.5722 -3.22336 20.7734 -3.18701 20.9232 -3.15519L21.4846 -3.03247C21.6718 -2.98247 21.9245 -2.92337 22.1117 -2.87337L22.8089 -2.66429C23.0662 -2.57338 23.4124 -2.45974 23.6698 -2.36429L24.5354 -2.0052C24.9331 -1.81429 25.4619 -1.55974 25.8503 -1.35066L26.8282 -0.768843C28.0167 0.0493329 28.1664 0.15387 28.9993 0.885683L29.8837 1.74022C30.1878 2.08113 30.6042 2.53114 30.8943 2.88568L31.643 3.8993C31.877 4.26748 32.1951 4.75838 32.4103 5.13565L32.9906 6.27201C33.1544 6.672 33.3836 7.19473 33.5287 7.59927L33.9171 8.84017C34.0106 9.25834 34.151 9.81744 34.2258 10.2447L34.399 11.5583C34.4177 11.9992 34.4598 12.5811 34.4598 13.022L34.4036 14.3719C34.3428 14.8538 34.2726 15.4947 34.1837 15.9719L33.889 17.2492C33.7579 17.6583 33.5989 18.2037 33.4491 18.6037L32.9531 19.7901C32.7566 20.1719 32.5086 20.6855 32.2934 21.0583L31.6196 22.1219C31.3576 22.4719 31.0207 22.9491 30.7446 23.2901L29.9304 24.2082C29.5982 24.531 29.1631 24.9628 28.8168 25.2719L27.9231 25.9991C27.502 26.2946 26.9451 26.69 26.51 26.9628L25.6584 27.4537C24.5401 28.0128 24.4699 28.0446 23.7353 28.3355L23.1176 28.5582C22.2614 28.8309 21.3724 29.1127 19.7487 29.3446L19.3088 29.3946C19.1778 29.4082 19.0094 29.4264 18.8784 29.4355L18.4854 29.4627C18.3684 29.4673 18.2139 29.4764 18.097 29.4809L17.7273 29.49C17.6197 29.49 17.47 29.49 17.3577 29.49L16.9927 29.4809C16.8804 29.4809 16.7353 29.4718 16.623 29.4673L16.2441 29.4445C16.1271 29.4355 15.9726 29.4218 15.8557 29.4127L15.4393 29.3673C15.3129 29.3491 15.1398 29.3309 15.0088 29.3127L14.5409 29.24C14.3911 29.2127 14.1899 29.1764 14.0402 29.1446L13.4787 29.0218C13.2915 28.9764 13.0389 28.9127 12.8517 28.8627L12.1545 28.6536C11.8972 28.5627 11.5509 28.4491 11.2935 28.3491L10.4279 27.99C10.0302 27.7991 9.50146 27.5446 9.1131 27.3355C4.96741 25.0491 2.23479 20.531 2.24883 14.981C2.26754 6.2402 9.1084 -1.75066 17.5168 -2.85065C17.5121 -2.85065 17.5027 -2.8461 17.498 -2.84155C2.85241 1.20387 8.06498 16.9356 17.0161 21.2219C27.3195 26.1582 36.8321 18.2492 33.4351 7.572C32.1858 3.64931 28.4612 -2.92338 17.5168 -2.85065C9.1084 -1.75066 2.26286 6.2402 2.24883 14.981" fill="#A4021A"/>
<path d="M2.26288 14.981C2.25352 20.531 4.98614 25.0491 9.12715 27.3355C8.83704 27.1628 8.44865 26.9309 8.15854 26.7582C7.7187 26.4537 7.13383 26.0446 6.70803 25.7173L5.78626 24.9264C5.45404 24.5946 5.00012 24.1537 4.68662 23.8082L3.88651 22.8492C3.62916 22.4901 3.27826 22.0128 3.03962 21.6401L2.39859 20.5401C2.21142 20.1492 1.94936 19.6355 1.78091 19.2446L1.32705 18.0356C1.21008 17.6219 1.03697 17.0719 0.938709 16.6583L0.690703 15.3674C0.615837 14.6492 0.540974 13.6901 0.517578 12.9674L0.573725 11.622C0.629874 11.1902 0.686035 10.6129 0.760901 10.1856L1.04164 8.90381C1.16797 8.49472 1.32234 7.94473 1.46739 7.54473L1.94936 6.35382C2.1412 5.97201 2.3892 5.45383 2.59976 5.08111L3.25953 4.0084C3.51688 3.65385 3.85376 3.17658 4.12515 2.83567L4.92994 1.9084C5.2528 1.58568 5.68332 1.14933 6.0249 0.84024L6.91857 0.099334C7.33033 -0.196118 7.88251 -0.596117 8.3083 -0.868842L9.16924 -1.37339C10.3109 -1.9552 10.3531 -1.98247 11.0456 -2.25974L11.6679 -2.4961C12.7862 -2.86428 13.5816 -3.10973 15.224 -3.35064L15.6638 -3.40064C15.7902 -3.41428 15.9633 -3.43246 16.0943 -3.44155L16.4874 -3.46882C16.6044 -3.47337 16.7587 -3.48246 16.8757 -3.48701L17.2454 -3.49609C17.353 -3.49609 17.5027 -3.49609 17.6103 -3.49609L17.9753 -3.48701C18.0876 -3.48246 18.2327 -3.47792 18.345 -3.47337L18.7239 -3.45064C18.8409 -3.44155 18.9954 -3.42792 19.1123 -3.41883L19.5241 -3.37791C19.6551 -3.35973 19.8235 -3.34155 19.9546 -3.32337L20.4225 -3.25064C20.5722 -3.22336 20.7734 -3.18701 20.9232 -3.15519L21.4846 -3.03247C21.6718 -2.98247 21.9245 -2.92337 22.1117 -2.87337L22.8089 -2.66429C23.0662 -2.57338 23.4124 -2.45974 23.6698 -2.36429L24.5354 -2.0052C24.9331 -1.81429 25.4619 -1.55974 25.8503 -1.35066L26.8282 -0.768843C28.0167 0.0493329 28.1664 0.15387 28.9993 0.885683L29.8837 1.74022C30.1878 2.08113 30.6042 2.53114 30.8943 2.88568L31.643 3.8993C31.877 4.26748 32.1951 4.75838 32.4103 5.13565L32.9906 6.27201C33.1544 6.672 33.3836 7.19473 33.5287 7.59927L33.9171 8.84017C34.0106 9.25834 34.151 9.81744 34.2258 10.2447L34.399 11.5583C34.4177 11.9992 34.4598 12.5811 34.4598 13.022L34.4036 14.3719C34.3428 14.8538 34.2726 15.4947 34.1837 15.9719L33.889 17.2492C33.7579 17.6583 33.5989 18.2037 33.4491 18.6037L32.9531 19.7901C32.7566 20.1719 32.5086 20.6855 32.2934 21.0583L31.6196 22.1219C31.3576 22.4719 31.0207 22.9491 30.7446 23.2901L29.9304 24.2082C29.5982 24.531 29.1631 24.9628 28.8168 25.2719L27.9231 25.9991C27.502 26.2946 26.9451 26.69 26.51 26.9628L25.6584 27.4537C24.5401 28.0128 24.4699 28.0446 23.7353 28.3355L23.1176 28.5582C22.2614 28.8309 21.3724 29.1127 19.7487 29.3446L19.3088 29.3946C19.1778 29.4082 19.0094 29.4264 18.8784 29.4355L18.4854 29.4627C18.3684 29.4673 18.2139 29.4764 18.097 29.4809L17.7273 29.49C17.6197 29.49 17.47 29.49 17.3577 29.49L16.9927 29.4809C16.8804 29.4809 16.7353 29.4718 16.623 29.4673L16.2441 29.4445C16.1271 29.4355 15.9726 29.4218 15.8557 29.4127L15.4393 29.3673C15.3129 29.3491 15.1398 29.3309 15.0088 29.3127L14.5409 29.24C14.3911 29.2127 14.1899 29.1764 14.0402 29.1446L13.4787 29.0218C13.2915 28.9764 13.0389 28.9127 12.8517 28.8627L12.1545 28.6536C11.8972 28.5627 11.5509 28.4491 11.2935 28.3491L10.4279 27.99C10.0302 27.7991 9.50146 27.5446 9.1131 27.3355C4.96741 25.0491 2.23479 20.531 2.24883 14.981C2.26286 7.72656 6.97943 0.990236 13.3898 -1.71883C13.3524 -1.69611 13.2962 -1.66883 13.2588 -1.64611C2.93667 4.75839 8.24747 19.6083 19.1825 22.731C30.0662 25.84 38.0627 15.4765 32.5554 5.40838C28.5314 -1.9552 19.7534 -5.21881 13.3898 -1.71883C6.97943 0.990236 2.26286 7.72656 2.24883 14.981" fill="#9F0219"/>
<path d="M33.5482 7.5988C33.7307 8.1397 34.0161 8.95333 34.2454 10.2397L34.4185 11.5533C34.4419 11.9942 34.4793 12.5806 34.484 13.0169L34.4232 14.3624C34.3624 14.8442 34.2922 15.4851 34.208 15.9624L33.9132 17.2396C33.7822 17.6487 33.6231 18.1942 33.478 18.5987L32.982 19.7805C32.7855 20.1623 32.5328 20.676 32.3223 21.0487L31.6485 22.1123C31.3864 22.4623 31.0449 22.9396 30.7688 23.2805L29.9546 24.1987C29.6224 24.5214 29.1872 24.9532 28.841 25.2623L27.9473 25.9896C27.5262 26.285 26.9694 26.6759 26.5342 26.9532L25.678 27.4441C24.5597 28.0032 24.4941 28.035 23.7548 28.3259L23.1372 28.5486C22.2762 28.8214 21.3919 29.1032 19.7683 29.335L19.3284 29.385C19.1974 29.3986 19.0242 29.4168 18.8979 29.4259L18.5002 29.4532C18.3832 29.4577 18.2288 29.4668 18.1118 29.4713L17.7422 29.4804C17.6299 29.4804 17.4848 29.4804 17.3726 29.4804H17.0029C16.8953 29.4713 16.7455 29.4668 16.6332 29.4577L16.2542 29.435C16.1373 29.4259 15.9828 29.4123 15.8658 29.4032L15.4541 29.3577C15.3277 29.3395 15.1547 29.3213 15.0283 29.3032L14.5557 29.2304C14.406 29.2032 14.2048 29.1668 14.055 29.1395L13.4936 29.0168C13.3064 28.9713 13.0537 28.9077 12.8666 28.8577L12.1694 28.6486C11.912 28.5623 11.5657 28.4441 11.3084 28.3486L10.4428 27.9896C10.045 27.7986 9.51633 27.5441 9.12797 27.335C4.98696 25.0487 2.25434 20.5305 2.2637 14.9806C2.27305 8.68971 5.81978 2.78975 10.9434 -0.4375C10.8732 -0.373864 10.775 -0.287501 10.7048 -0.223865C1.38404 9.20788 11.2476 24.2441 23.1933 23.835C31.7187 23.5441 36.6505 15.376 33.3377 7.02607C33.3985 7.19425 33.4921 7.41697 33.5482 7.5897" fill="#9A0218"/>
<path d="M2.26288 14.981C2.25352 20.531 4.98614 25.0491 9.12715 27.3355C8.83704 27.1628 8.44865 26.9309 8.15854 26.7582C7.7187 26.4537 7.13383 26.0446 6.70803 25.7173L5.78626 24.9264C5.45404 24.5946 5.00012 24.1537 4.68662 23.8082L3.88651 22.8492C3.62916 22.4901 3.27826 22.0128 3.03962 21.6401L2.39859 20.5401C2.21142 20.1492 1.94936 19.6355 1.78091 19.2446L1.32705 18.0356C1.21008 17.6219 1.03697 17.0719 0.938709 16.6583L0.690703 15.3674C0.615837 14.6492 0.540974 13.6901 0.517578 12.9674L0.573725 11.622C0.629874 11.1902 0.686035 10.6129 0.760901 10.1856L1.04164 8.90381C1.16797 8.49472 1.32234 7.94473 1.46739 7.54473L1.94936 6.35382C2.1412 5.97201 2.3892 5.45383 2.59976 5.08111L3.25953 4.0084C3.51688 3.65385 3.85376 3.17658 4.12515 2.83567L4.92994 1.9084C5.2528 1.58568 5.68332 1.14933 6.0249 0.84024L6.91857 0.099334C7.33033 -0.196118 7.88251 -0.596117 8.3083 -0.868842L9.16924 -1.37339C10.3109 -1.9552 10.3531 -1.98247 11.0456 -2.25974L11.6679 -2.4961C12.7862 -2.86428 13.5816 -3.10973 15.224 -3.35064L15.6638 -3.40064C15.7902 -3.41428 15.9633 -3.43246 16.0943 -3.44155L16.4874 -3.46882C16.6044 -3.47337 16.7587 -3.48246 16.8757 -3.48701L17.2454 -3.49609C17.353 -3.49609 17.5027 -3.49609 17.6103 -3.49609L17.9753 -3.48701C18.0876 -3.48246 18.2327 -3.47792 18.345 -3.47337L18.7239 -3.45064C18.8409 -3.44155 18.9954 -3.42792 19.1123 -3.41883L19.5241 -3.37791C19.6551 -3.35973 19.8235 -3.34155 19.9546 -3.32337L20.4225 -3.25064C20.5722 -3.22336 20.7734 -3.18701 20.9232 -3.15519L21.4846 -3.03247C21.6718 -2.98247 21.9245 -2.92337 22.1117 -2.87337L22.8089 -2.66429C23.0662 -2.57338 23.4124 -2.45974 23.6698 -2.36429L24.5354 -2.0052C24.9331 -1.81429 25.4619 -1.55974 25.8503 -1.35066C26.0655 -1.22338 26.3556 -1.05521 26.5708 -0.927935C26.2807 -1.09157 25.8877 -1.3143 25.5976 -1.48248C17.1284 -5.5779 11.8831 -1.32338 10.9192 -0.427936C5.80028 2.79477 2.24882 8.69471 2.23946 14.9856" fill="#9A0218"/>
<path d="M34.2454 10.24C34.3624 11.0263 34.4793 11.7673 34.4793 13.0218L34.4232 14.3672C34.3624 14.849 34.2922 15.4899 34.2033 15.9672L33.9085 17.2445C33.7775 17.6536 33.6184 18.199 33.4686 18.6036L32.9727 19.7853C32.7762 20.1672 32.5282 20.6808 32.3129 21.0535L31.6392 22.1217C31.3771 22.4717 31.0402 22.949 30.7595 23.2899L29.9453 24.2081C29.6178 24.5308 29.1779 24.9626 28.8317 25.2717L27.938 25.999C27.5168 26.2944 26.96 26.6899 26.5249 26.9626L25.6733 27.4489C24.555 28.008 24.4895 28.0399 23.7502 28.3308L23.1325 28.5535C22.2762 28.8262 21.3872 29.1126 19.7636 29.3398L19.3237 29.3898C19.1927 29.4035 19.0243 29.4217 18.8933 29.4307L18.5002 29.458C18.3832 29.4626 18.2288 29.4716 18.1118 29.4762L17.7422 29.4853C17.6345 29.4853 17.4849 29.4853 17.3726 29.4853H17.0029C16.8906 29.4762 16.7455 29.4717 16.6332 29.4671L16.2542 29.4444C16.1373 29.4353 15.9828 29.4262 15.8658 29.4126L15.4541 29.3671C15.3231 29.3489 15.1546 29.3307 15.0236 29.3126L14.5557 29.2398C14.406 29.2126 14.2048 29.1762 14.055 29.1444L13.4936 29.0216C13.3064 28.9716 13.0537 28.9126 12.8666 28.8626L12.1694 28.6535C11.912 28.5626 11.5657 28.4489 11.3131 28.3535L10.4475 27.9944C10.0497 27.8035 9.52096 27.549 9.1326 27.3399C4.98691 25.0535 2.25434 20.5353 2.2637 14.9854C2.27305 9.49452 4.97755 4.29912 9.07645 0.921875C8.90332 1.15369 8.67405 1.45824 8.50093 1.69005C1.36061 13.24 14.4434 26.9717 25.9681 23.999C30.8577 22.7353 35.5321 17.8763 34.236 10.1854C34.236 10.2036 34.2454 10.2264 34.2454 10.2445" fill="#950217"/>
<path d="M2.26288 14.981C2.25352 20.531 4.98614 25.0491 9.12715 27.3355C8.83704 27.1628 8.44865 26.9309 8.15854 26.7582C7.7187 26.4537 7.13383 26.0446 6.70803 25.7173L5.78626 24.9264C5.45404 24.5946 5.00012 24.1537 4.68662 23.8082L3.88651 22.8492C3.62916 22.4901 3.27826 22.0128 3.03962 21.6401L2.39859 20.5401C2.21142 20.1492 1.94936 19.6355 1.78091 19.2446L1.32705 18.0356C1.21008 17.6219 1.03697 17.0719 0.938709 16.6583L0.690703 15.3674C0.615837 14.6492 0.540974 13.6901 0.517578 12.9674L0.573725 11.622C0.629874 11.1902 0.686035 10.6129 0.760901 10.1856L1.04164 8.90381C1.16797 8.49472 1.32234 7.94473 1.46739 7.54473L1.94936 6.35382C2.1412 5.97201 2.3892 5.45383 2.59976 5.08111L3.25953 4.0084C3.51688 3.65385 3.85376 3.17658 4.12515 2.83567L4.92994 1.9084C5.2528 1.58568 5.68332 1.14933 6.0249 0.84024L6.91857 0.099334C7.33033 -0.196118 7.8825 -0.596117 8.3083 -0.868842L9.16924 -1.37339C10.3109 -1.9552 10.3531 -1.98247 11.0456 -2.25974L11.6679 -2.4961C12.7862 -2.86428 13.5816 -3.10973 15.224 -3.35064L15.6638 -3.40064C15.7902 -3.41428 15.9633 -3.43246 16.0943 -3.44155L16.4874 -3.46882C16.6044 -3.47337 16.7587 -3.48246 16.8757 -3.48701L17.2454 -3.49609C17.353 -3.49609 17.5027 -3.49609 17.6103 -3.49609L17.9753 -3.48701C18.0876 -3.48246 18.2327 -3.47792 18.345 -3.47337L18.7239 -3.45064C18.8409 -3.44155 18.9954 -3.42792 19.1123 -3.41883L19.5241 -3.37791C19.6551 -3.35973 19.8235 -3.34155 19.9546 -3.32337L20.4225 -3.25064C20.5722 -3.22336 20.7734 -3.18701 20.9232 -3.15519L21.4846 -3.03247C21.6718 -2.98247 21.9245 -2.92337 22.1117 -2.87337L22.8089 -2.66429L23.2206 -2.52792L22.3316 -2.80973C16.0475 -4.54608 11.3544 -2.02338 9.05227 0.917504C4.95805 4.29475 2.24882 9.49018 2.23946 14.981" fill="#950217"/>
<path d="M34.4786 13.0178C34.4599 13.8678 34.4458 14.6042 34.2025 15.9678L33.9077 17.2405C33.7767 17.6496 33.6176 18.195 33.4679 18.5996L32.9719 19.7814C32.7754 20.1632 32.5227 20.6768 32.3121 21.0496L31.6384 22.1177C31.3763 22.4677 31.0394 22.945 30.7587 23.2859L29.9445 24.2041C29.6123 24.5268 29.1772 24.9586 28.8309 25.2677L27.9372 25.995C27.5161 26.2904 26.9592 26.6859 26.5241 26.9586L25.6725 27.445C24.5542 28.0041 24.4887 28.0359 23.7494 28.3268L23.1317 28.5495C22.2755 28.8222 21.3864 29.104 19.7628 29.3359L19.3229 29.3904C19.1919 29.404 19.0235 29.4177 18.8925 29.4313L18.4947 29.4586C18.3777 29.4631 18.2233 29.4722 18.1064 29.4768L17.7367 29.4859C17.6291 29.4859 17.4794 29.4859 17.3671 29.4859H17.0021C16.8898 29.4768 16.7447 29.4722 16.6324 29.4631L16.2535 29.4404C16.1365 29.4313 15.982 29.4177 15.8651 29.4086L15.4533 29.3631C15.327 29.3449 15.1539 29.3268 15.0275 29.3086L14.5596 29.2359C14.4099 29.2086 14.2087 29.1722 14.0589 29.145L13.4975 29.0222C13.3103 28.9768 13.0576 28.9131 12.8705 28.8631L12.1732 28.654C11.9159 28.5631 11.5696 28.4495 11.3123 28.3541L10.4467 27.9949C10.0489 27.804 9.52018 27.5495 9.13182 27.3404C4.99081 25.0541 2.25824 20.5359 2.2676 14.9905C2.27696 10.2405 4.2983 5.71333 7.49413 2.39062C7.44266 2.48153 7.37247 2.59517 7.321 2.68607C1.051 15.0769 14.9761 28.0949 26.4212 24.4177C30.3189 23.1632 34.4879 19.4814 34.4832 12.9042C34.4832 12.9405 34.4832 12.9905 34.4832 13.0224" fill="#900217"/>
<path d="M2.26288 14.981C2.25352 20.531 4.98614 25.0491 9.12715 27.3355C8.83704 27.1628 8.44865 26.9309 8.15854 26.7582C7.7187 26.4537 7.13383 26.0446 6.70803 25.7173L5.78626 24.9264C5.45404 24.5946 5.00012 24.1537 4.68662 23.8082L3.88651 22.8492C3.62916 22.4901 3.27826 22.0128 3.03962 21.6401L2.39859 20.5401C2.21142 20.1492 1.94936 19.6355 1.78091 19.2446L1.32705 18.0356C1.21008 17.6219 1.03697 17.0719 0.938709 16.6583L0.690703 15.3674C0.615837 14.6492 0.540974 13.6901 0.517578 12.9674L0.573725 11.622C0.629874 11.1902 0.686035 10.6129 0.760901 10.1856L1.04164 8.90381C1.16797 8.49472 1.32234 7.94473 1.46739 7.54473L1.94936 6.35382C2.1412 5.97201 2.3892 5.45383 2.59976 5.08111L3.25953 4.0084C3.51688 3.65385 3.85376 3.17658 4.12515 2.83567L4.92994 1.9084C5.2528 1.58568 5.68332 1.14933 6.0249 0.84024L6.91857 0.099334C7.33033 -0.196118 7.88251 -0.596117 8.3083 -0.868842L9.16924 -1.37339C10.3109 -1.9552 10.3531 -1.98247 11.0456 -2.25974L11.6679 -2.4961C12.7862 -2.86428 13.5816 -3.10973 15.224 -3.35064L15.6638 -3.40064C15.7902 -3.41428 15.9633 -3.43246 16.0943 -3.44155L16.4874 -3.46882C16.6044 -3.47337 16.7587 -3.48246 16.8757 -3.48701L17.2454 -3.49609C17.353 -3.49609 17.5027 -3.49609 17.6103 -3.49609L17.9753 -3.48701C18.0876 -3.48246 18.2327 -3.47792 18.345 -3.47337L18.7239 -3.45064C18.8409 -3.44155 18.9954 -3.42792 19.1123 -3.41883L19.5241 -3.37791C19.6551 -3.35973 19.8235 -3.34155 19.9546 -3.32337L20.4225 -3.25064L20.5488 -3.22792L20.4132 -3.25064C11.4106 -4.61426 7.84505 1.6675 7.46604 2.38568C4.27021 5.70838 2.24882 10.2356 2.23946 14.981" fill="#900217"/>
<path d="M34.2021 15.9649C34.0898 16.524 33.9213 17.3694 33.4675 18.5967L32.9715 19.7785C32.775 20.1603 32.5223 20.6739 32.3117 21.0467L31.638 22.1148C31.3759 22.4648 31.039 22.9421 30.7583 23.283L29.9441 24.2012C29.6119 24.5239 29.1768 24.9557 28.8305 25.2648L27.9368 25.9921C27.5157 26.2875 26.9588 26.683 26.5237 26.9557L25.6721 27.4421C24.5491 28.0012 24.4836 28.033 23.749 28.3239L23.1313 28.5466C22.2751 28.8193 21.386 29.1011 19.7624 29.333L19.3225 29.383C19.1915 29.3966 19.0184 29.4148 18.8921 29.4239L18.4943 29.4511C18.3773 29.4557 18.2229 29.4648 18.106 29.4693L17.7363 29.4784C17.6287 29.4784 17.479 29.4784 17.3667 29.4784H16.997C16.8894 29.4693 16.7397 29.4648 16.6274 29.4557L16.2484 29.433C16.1314 29.4239 15.977 29.4102 15.86 29.4011L15.4482 29.3557C15.3172 29.3375 15.1488 29.3193 15.0178 29.3011L14.5499 29.2284C14.4001 29.2011 14.1989 29.1648 14.0492 29.1375L13.4877 29.0148C13.3005 28.9648 13.0479 28.9057 12.8607 28.8557L12.1635 28.6466C11.9062 28.5557 11.5599 28.4421 11.3025 28.3466L10.4369 27.9875C10.0392 27.7966 9.51047 27.5421 9.12211 27.333C4.9811 25.0466 2.24848 20.5285 2.25784 14.9785C2.26719 10.9695 3.70838 7.11951 6.08069 4.01953C5.95903 4.32862 5.80457 4.74225 5.68292 5.05134C1.86009 19.1558 17.9656 30.0284 28.5029 23.9966C33.1586 21.3285 34.0149 16.8467 34.3004 15.3694C34.2723 15.5467 34.2349 15.7831 34.2021 15.9603" fill="#8B0216"/>
<path d="M2.26288 14.981C2.25352 20.531 4.98614 25.0491 9.12715 27.3355C8.83704 27.1628 8.44865 26.9309 8.15854 26.7582C7.7187 26.4537 7.13383 26.0446 6.70803 25.7173L5.78626 24.9264C5.45404 24.5946 5.00012 24.1537 4.68662 23.8082L3.88651 22.8492C3.62916 22.4901 3.27826 22.0128 3.03962 21.6401L2.39859 20.5401C2.21142 20.1492 1.94936 19.6355 1.78091 19.2446L1.32705 18.0356C1.21008 17.6219 1.03697 17.0719 0.938709 16.6583L0.690703 15.3674C0.615837 14.6492 0.540974 13.6901 0.517578 12.9674L0.573725 11.622C0.629874 11.1902 0.686035 10.6129 0.760901 10.1856L1.04164 8.90381C1.16797 8.49472 1.32234 7.94473 1.46739 7.54473L1.94936 6.35382C2.1412 5.97201 2.3892 5.45383 2.59976 5.08111L3.25953 4.0084C3.51688 3.65385 3.85376 3.17658 4.12515 2.83567L4.92994 1.9084C5.2528 1.58568 5.68332 1.14933 6.0249 0.84024L6.91857 0.099334C7.33033 -0.196118 7.88251 -0.596117 8.3083 -0.868842L9.16924 -1.37339C10.3109 -1.9552 10.3531 -1.98247 11.0456 -2.25974L11.6679 -2.4961C12.7862 -2.86428 13.5816 -3.10973 15.224 -3.35064L15.6638 -3.40064C15.7902 -3.41428 15.9633 -3.43246 16.0943 -3.44155L16.4874 -3.46882C16.6044 -3.47337 16.7587 -3.48246 16.8757 -3.48701L17.2454 -3.49609C17.353 -3.49609 17.5027 -3.49609 17.6103 -3.49609C17.7039 -3.49609 17.8256 -3.49154 17.9192 -3.49154C17.8349 -3.49154 17.7226 -3.49155 17.6384 -3.49609C8.93996 -3.45518 6.32902 3.26294 6.06231 4.02657C3.69 7.12654 2.24882 10.9765 2.23946 14.981" fill="#8B0216"/>
<path d="M33.4675 18.5971C33.2803 19.0835 32.9715 19.8971 32.3118 21.0471L31.638 22.1153C31.376 22.4653 31.0344 22.9425 30.7583 23.2834L29.9442 24.2016C29.6119 24.5244 29.1768 24.9562 28.8305 25.2652L27.9368 25.9925C27.5157 26.288 26.9589 26.6834 26.5237 26.9562L25.6721 27.4425C24.5538 28.0016 24.4837 28.0334 23.749 28.3243L23.1314 28.5471C22.2704 28.8198 21.3861 29.1061 19.7624 29.3334L19.3226 29.3834C19.1915 29.3971 19.0185 29.4152 18.8921 29.4243L18.4943 29.4516C18.3774 29.4561 18.223 29.4652 18.106 29.4698L17.7363 29.4789C17.624 29.4789 17.479 29.4789 17.3667 29.4789H16.9971C16.8894 29.4698 16.7397 29.4652 16.6274 29.4561L16.2484 29.4334C16.1314 29.4243 15.977 29.4107 15.86 29.4016L15.4482 29.3561C15.3219 29.3379 15.1488 29.3198 15.0225 29.3016L14.5499 29.2289C14.4002 29.2016 14.1989 29.1652 14.0492 29.138L13.4877 29.0152C13.3006 28.9698 13.0479 28.9061 12.8607 28.8561L12.1636 28.647C11.9062 28.5561 11.5599 28.4425 11.3026 28.3471L10.4369 27.988C10.0392 27.7971 9.5105 27.5425 9.12214 27.3334C4.98113 25.0471 2.24383 20.5289 2.25787 14.979C2.26255 11.7608 3.1937 8.64266 4.78928 5.93359C4.7612 6.05177 4.71905 6.20632 4.6863 6.31996C1.75717 20.5017 18.4757 30.8243 28.5919 24.4743C30.2811 23.4107 32.5457 21.4107 33.7014 17.9199C33.6313 18.1199 33.547 18.3926 33.4675 18.5926" fill="#860215"/>
<path d="M2.26288 14.9782C2.25352 20.5282 4.98614 25.0463 9.12715 27.3326C8.83704 27.1599 8.44865 26.9281 8.15854 26.7554C7.7187 26.4508 7.13383 26.0418 6.70803 25.7145L5.78626 24.9236C5.45404 24.5917 5.00012 24.1509 4.68662 23.8054L3.88651 22.8463C3.62916 22.4872 3.27826 22.01 3.03962 21.6372L2.39859 20.5372C2.21142 20.1463 1.94936 19.6327 1.78091 19.2418L1.32705 18.0327C1.21008 17.6191 1.03697 17.0691 0.938709 16.6555L0.690703 15.3646C0.615837 14.6464 0.540974 13.6873 0.517578 12.9646L0.573725 11.6191C0.629874 11.1873 0.686035 10.61 0.760901 10.1828L1.04164 8.90097C1.16797 8.49188 1.32234 7.94189 1.46739 7.54189L1.94936 6.35098C2.1412 5.96916 2.3892 5.45099 2.59976 5.07827L3.25953 4.00556C3.51688 3.65101 3.85376 3.17374 4.12515 2.83283L4.92994 1.90556C5.2528 1.58284 5.68332 1.14649 6.0249 0.837398L6.91857 0.0964921C7.33033 -0.19896 7.88251 -0.598959 8.3083 -0.871685L9.16924 -1.37623C10.3109 -1.95805 10.3531 -1.98531 11.0456 -2.26258L11.6679 -2.49894C12.5803 -2.80348 13.4413 -3.0853 15.1304 -3.33984L14.8684 -3.30349C8.87443 -2.2944 5.43999 2.19648 4.78024 5.93736C3.18466 8.64643 2.2535 11.76 2.24883 14.9782" fill="#860215"/>
<path d="M32.3129 21.0483C31.9667 21.6256 31.5736 22.2801 30.7595 23.2801L29.9453 24.1983C29.6131 24.521 29.1779 24.9529 28.8317 25.262L27.938 25.9892C27.5168 26.2847 26.96 26.6801 26.5249 26.9528L25.6733 27.4438C24.555 28.0028 24.4848 28.0347 23.7502 28.3256L23.1325 28.5483C22.2715 28.821 21.3872 29.1028 19.7636 29.3346L19.3237 29.3892C19.1927 29.4028 19.0196 29.4165 18.8933 29.4256L18.4955 29.4528C18.3785 29.4528 18.2241 29.4664 18.1071 29.471L17.7375 29.4801C17.6299 29.4801 17.4802 29.4801 17.3679 29.4801H16.9982C16.8906 29.471 16.7408 29.4665 16.6285 29.4619L16.2496 29.4392C16.1326 29.4301 15.9781 29.4165 15.8612 29.4074L15.4494 29.3619C15.3231 29.3437 15.15 29.3255 15.0236 29.3074L14.5557 29.2347C14.406 29.2074 14.2048 29.171 14.055 29.1437L13.4936 29.021C13.3017 28.9755 13.0537 28.9119 12.8666 28.8619L12.1694 28.6528C11.912 28.5619 11.5657 28.4483 11.3084 28.3528L10.4428 27.9937C10.045 27.8028 9.51633 27.5483 9.12797 27.3392C4.98696 25.0529 2.25434 20.5347 2.2637 14.9847C2.26837 12.7029 2.73626 10.4711 3.5785 8.39844C3.5551 8.61207 3.52238 8.88935 3.49899 9.10299C2.9141 22.5756 20.0443 32.4301 29.6879 24.1665C31.349 22.7438 32.1024 21.4256 32.4627 20.7938C32.4206 20.8711 32.3597 20.9756 32.3176 21.0529" fill="#810214"/>
<path d="M2.26288 14.9816C2.25352 20.5316 4.98614 25.0497 9.12715 27.3361C8.83704 27.1633 8.44865 26.9315 8.15854 26.7588C7.7187 26.4542 7.13383 26.0452 6.70803 25.7179L5.78626 24.927C5.45404 24.5952 5.00012 24.1543 4.68662 23.8088L3.88651 22.8497C3.62916 22.4907 3.27826 22.0134 3.03962 21.6406L2.39859 20.5407C2.21142 20.1498 1.94936 19.6361 1.78091 19.2452L1.32705 18.0361C1.21008 17.6225 1.03697 17.0725 0.938709 16.6589L0.690703 15.368C0.615837 14.6498 0.540974 13.6907 0.517578 12.968L0.573725 11.6226C0.629874 11.1907 0.686035 10.6135 0.760901 10.1862L1.04164 8.90439C1.16797 8.4953 1.32234 7.94531 1.46739 7.54531L1.94936 6.3544C2.1412 5.97259 2.3892 5.45441 2.59976 5.08169L3.25953 4.00898C3.51688 3.65443 3.85376 3.17716 4.12515 2.83625L4.92994 1.90898C5.2528 1.58626 5.68332 1.14991 6.0249 0.840819L6.91857 0.0999141C7.33033 -0.195538 7.88251 -0.595537 8.3083 -0.868262L9.16924 -1.37281C10.3109 -1.95462 10.3531 -1.98189 11.0456 -2.25916L11.6679 -2.49552C11.9299 -2.58188 12.2762 -2.69553 12.5429 -2.77734H12.5195C6.4507 -0.904631 3.6479 4.18624 3.559 8.40439C2.71676 10.4726 2.24882 12.7044 2.24414 14.9907" fill="#810214"/>
<path d="M25.0128 -1.5756C35.6718 3.30163 37.2112 17.6788 27.474 21.3833C17.2548 25.2696 5.54771 13.4515 9.82909 3.5698C12.5664 -2.74833 19.6973 -4.01194 25.0128 -1.5756Z" fill="#A9021B"/>
<path d="M26.4674 -0.713887C36.7333 5.35879 36.228 19.3723 25.6766 21.3405C14.545 23.4177 5.12128 9.99967 11.6767 1.40428C15.4247 -3.50932 21.952 -3.38204 26.4674 -0.709337" fill="#AE021B"/>
<path d="M27.7882 0.284444C37.0341 7.19803 34.47 19.1116 25.7715 20.7661C16.0998 22.607 5.88531 10.9344 12.1085 1.67534C14.8786 -2.4519 21.841 -3.9928 27.7882 0.284444Z" fill="#B3021C"/>
<path d="M28.9614 1.41942C37.3557 9.24209 32.7702 20.392 23.7255 20.392C13.1179 20.392 6.53443 7.46028 13.6607 0.633057C18.0638 -3.58509 25.0309 -2.23965 28.9614 1.42396" fill="#B8021D"/>
<path d="M28.9198 1.60585C36.5328 8.52852 33.3603 19.7648 23.7728 19.8239C13.446 19.8875 7.32575 7.56944 14.2836 0.71949C17.9005 -2.83957 24.4653 -2.44412 28.9198 1.60585Z" fill="#BD021E"/>
<path d="M29.8889 2.87485C36.1121 10.293 31.7325 20.0293 22.5614 19.1566C11.9258 18.1429 8.63639 5.48393 15.4819 0.370336C20.1517 -3.12055 26.5948 -1.04784 29.8889 2.87485Z" fill="#C2021E"/>
<path d="M29.7574 3.06202C35.9479 10.4892 30.843 20.1982 21.597 18.5619C11.6446 16.8028 9.64663 4.93928 16.422 0.321137C20.3103 -2.3243 26.2902 -1.09703 29.7574 3.06202Z" fill="#C7021F"/>
<path d="M30.4781 4.4627C35.3537 12.2854 29.168 19.4717 21.6019 18.0762C11.5465 16.2217 10.7464 4.93996 16.4923 0.90363C21.8312 -2.84634 28.045 0.562722 30.4781 4.46724" fill="#CC0220"/>
<path d="M30.2535 4.64663C34.7876 12.0466 28.7983 18.8783 21.6065 17.5784C12.2858 15.8965 10.8914 5.69209 17.3018 0.978489C20.6427 -1.47604 27.1653 -0.389683 30.2488 4.6421" fill="#D10321"/>
<path d="M29.9729 4.84389C34.0484 11.6529 28.382 18.1165 21.6066 17.1938C13.1187 16.0393 11.4717 5.90298 17.2831 1.68937C22.1307 -1.82878 27.8673 1.32119 29.9729 4.84389Z" fill="#D60322"/>
<path d="M30.3242 6.3816C33.0802 13.4997 25.5656 18.8178 19.3143 16.177C11.9026 13.0452 13.063 3.61343 19.4594 1.10436C23.4647 -0.468355 28.6444 2.04527 30.3242 6.3816Z" fill="#DB0322"/>
<path d="M29.9155 6.57976C32.1942 12.9615 25.7557 18.5797 19.3079 15.8342C12.3126 12.8524 13.5012 4.11161 19.5934 1.66162C23.8794 -0.0610888 28.5772 2.83888 29.9108 6.57976" fill="#E00323"/>
<path d="M29.4437 6.78096C31.6195 13.1127 24.7506 17.8763 19.3041 15.5445C12.6972 12.7127 13.9512 4.35372 19.772 2.17192C23.9926 0.585565 28.2552 3.331 29.4437 6.78551" fill="#E50324"/>
<path d="M28.943 6.97021C31.0065 12.9702 24.4744 17.4701 19.304 15.252C13.5955 12.8065 13.9745 4.92477 19.9076 2.6657C23.0613 1.46571 27.5954 3.05206 28.943 6.97021Z" fill="#EA0325"/>
<path d="M28.7411 8.60915C29.0639 13.0909 25.8494 14.5364 24.7966 15.0091C21.1235 16.6591 18.4096 14.3955 17.5159 13.6546C13.3047 10.1409 15.6303 3.59554 21.3434 2.87737C25.302 2.37737 28.5165 5.49099 28.7411 8.60915Z" fill="#EF0325"/>
<path d="M28.2558 8.74226C28.6816 11.965 25.9443 14.0695 25.9162 14.0877C24.1428 15.1786 24.0961 15.1831 21.5787 15.3195C21.5647 15.3195 19.5433 14.8695 18.9678 14.465C12.5855 9.96954 16.7218 4.51502 20.1189 3.51048C23.4317 2.52867 27.7083 4.60139 28.2605 8.74226" fill="#F40326"/>
<path d="M27.8667 8.84855C28.3626 13.1394 23.1595 17.3758 18.2557 13.6122C13.2444 9.76673 17.0345 3.69404 21.6528 3.70314C23.6133 3.70314 27.4455 5.22131 27.862 8.84855" fill="#F90327"/>
<path d="M27.4595 8.94243C27.5765 10.1288 27.4501 13.0515 23.7864 14.556C22.7429 14.9833 19.884 15.156 17.7082 12.9424C14.62 9.79696 16.5478 3.99247 21.7978 4.1152C25.017 4.19247 27.263 6.97881 27.4595 8.94243Z" fill="#FA2141"/>
<path d="M27.0395 9.03884C27.601 14.6479 20.9754 15.9388 18.0182 12.9434C14.4013 9.28429 17.5409 4.08889 21.9112 4.43434C25.4673 4.71616 26.9038 7.65704 27.0442 9.03431" fill="#FA2E4C"/>
<path d="M26.7212 9.10135C27.1564 11.9286 25.3456 13.0377 23.7453 14.0149C23.5207 14.1513 21.5134 14.8013 19.2721 13.6559C18.9633 13.4968 16.2634 12.0104 16.7173 8.46499C16.8202 7.63318 18.0742 5.32865 20.3998 4.81047C22.3275 4.37866 26.1925 5.67865 26.7212 9.1059" fill="#FA3754"/>
<path d="M26.4452 10.6919C26.4452 10.6919 25.7808 12.151 25.5749 12.3783C25.1164 12.8964 24.2975 13.3737 23.7267 13.7737C23.1839 14.151 22.192 14.0692 21.5275 14.1237C21.3638 14.1373 18.6592 13.7691 17.3912 11.4237C15.833 8.54646 18.2147 4.52377 22.103 5.05559C24.8076 5.42377 27.0395 8.32374 26.4452 10.6919Z" fill="#FA3F5B"/>
<path d="M26.1358 10.7464C25.3543 13.6054 22.5656 13.8282 21.5175 13.9145C20.8063 13.9736 19.8564 13.5554 19.2574 13.1736C18.6117 12.76 17.6338 11.4373 17.6291 11.4282C16.1786 8.85547 18.083 4.74186 22.1959 5.37367C22.3644 5.40095 24.1846 6.20548 24.1939 6.21003C24.5729 6.47366 24.9005 6.70094 25.7053 7.79639C26.482 8.86002 26.1404 10.7282 26.1358 10.7464Z" fill="#FB4761"/>
<path d="M25.8221 10.7992C25.4431 12.1037 24.2546 12.9037 23.6837 13.29C23.1363 13.6582 22.1677 13.6537 21.5033 13.7037C20.7874 13.7582 19.8515 13.3037 19.2479 12.9264C18.7238 12.5991 18.1764 11.9446 17.8676 11.4219C17.4699 10.7537 16.7119 8.98554 18.1905 7.04919C19.4398 5.41284 21.5641 5.48101 22.2753 5.64919C22.9164 5.79464 23.7071 6.20827 24.2405 6.581C24.3528 6.66281 25.4009 7.83554 25.4103 7.84464C26.2759 9.09917 25.8689 10.6264 25.8221 10.7946" fill="#FB4D66"/>
<path d="M25.5041 10.8521C25.5041 10.8521 25.0643 12.1202 23.6605 13.0475C23.1084 13.4111 22.1539 13.4475 21.4894 13.4975C21.4801 13.4975 19.8377 13.0202 19.2388 12.6566C18.8083 12.393 18.3638 11.852 18.1064 11.4248C16.7916 9.24297 18.069 7.59298 18.4855 7.05208C18.9627 6.4339 19.8985 6.05664 20.5957 5.85209C21.101 5.70664 21.8403 5.79755 22.3504 5.92027C22.3925 5.92936 26.599 7.26117 25.5041 10.8521Z" fill="#FB536C"/>
<path d="M25.3019 10.1063C25.2785 10.3427 25.3299 10.6836 25.2129 10.8927C24.9041 11.4518 24.4175 12.1836 23.9216 12.5972C23.6361 12.8336 23.5799 12.8836 21.479 13.2881C21.4603 13.2881 19.3501 13.0154 18.3675 11.4427C17.0339 9.30633 18.213 7.77908 18.7839 7.04272C19.0974 6.63817 20.6275 6.07909 20.6415 6.07909C21.1656 5.95636 21.9095 6.05636 22.4289 6.18818C23.608 6.48817 24.8012 7.93361 24.8105 7.94725C25.4329 8.79724 25.3674 9.46542 25.3019 10.1063Z" fill="#FB5970"/>
<path d="M24.9283 10.9393C24.6849 11.512 24.1469 12.2211 23.6088 12.5529C23.5152 12.612 21.6716 13.0665 21.4658 13.0847C21.447 13.0847 19.3461 12.6302 18.5881 11.4211C17.2686 9.3302 18.5085 7.76203 18.9718 7.17112C19.0232 7.10749 20.5533 6.33477 20.6796 6.3075C21.2177 6.19841 21.9711 6.32113 22.4998 6.46204C23.562 6.7484 25.8454 8.79384 24.9283 10.9393Z" fill="#FB5E75"/>
<path d="M24.6375 10.9735C24.4363 11.428 24.0152 12.0053 23.58 12.2644C23.4583 12.3371 21.6335 12.8598 21.4557 12.8735C21.3621 12.878 19.2331 11.8371 19.2144 11.8235C19.0647 11.7416 18.9197 11.5507 18.8261 11.4098C17.9558 10.0462 18.0119 8.73259 18.9945 7.50078C19.1208 7.34623 20.4731 6.5826 20.7164 6.5326C21.2638 6.41442 22.0313 6.57806 22.5694 6.7326C22.7331 6.77806 24.2398 8.01894 24.2445 8.02803C24.4457 8.44167 24.7779 8.97803 24.8387 9.42803C24.8995 9.89166 24.8246 10.5417 24.6375 10.9735Z" fill="#FB6379"/>
<path d="M24.3429 11.0145C24.1885 11.3464 23.8891 11.7827 23.5616 11.96C22.9813 12.2827 22.097 12.76 21.4372 12.6373C20.7026 12.5009 19.7527 12.0463 19.2053 11.5509C18.8497 11.2282 18.4519 9.93273 18.4473 9.92364C18.4473 9.91 18.4472 8.23275 19.0134 7.84184C19.4579 7.5373 20.5201 6.81911 20.7541 6.76457C21.3109 6.64184 22.1203 6.80548 22.6397 7.03729C23.103 7.24184 23.6458 7.6782 23.9546 8.06456C24.2447 8.4282 24.3991 9.04182 24.5769 9.46455C24.7594 9.89636 24.5348 10.5827 24.3336 11.01" fill="#FB677D"/>
<path d="M24.0443 11.0517C23.9366 11.2789 23.7355 11.5835 23.5109 11.6971C22.926 11.9971 22.0697 12.5289 21.4193 12.3971C20.7549 12.2562 19.8939 11.8471 19.3933 11.3971C19.0142 11.0562 18.668 9.92894 18.668 9.91985C18.668 9.91076 18.668 8.6926 19.0376 8.18351C19.4073 7.67443 20.17 7.13805 20.797 7.00624C21.3725 6.88806 22.1773 7.14715 22.7248 7.35624C23.0617 7.48806 23.4454 7.82442 23.67 8.10623C23.9601 8.46987 24.2642 9.04714 24.3251 9.50168C24.3859 9.96986 24.2501 10.6199 24.0443 11.0471" fill="#FB6C81"/>
<path d="M23.7447 11.0905C23.6885 11.2041 23.5902 11.3632 23.4733 11.4178C22.8743 11.6905 22.0649 12.195 21.4051 12.1541C20.8764 12.1223 20.2541 11.6905 19.8283 11.3814C19.5663 11.1951 19.3323 10.8269 19.1685 10.5542C18.5556 9.54962 19.1545 8.45871 19.1591 8.44962C19.5335 7.96781 20.2353 7.39963 20.8436 7.27236C21.4332 7.14964 22.238 7.48599 22.8042 7.68145C23.0147 7.75417 23.2487 7.9678 23.3844 8.14507C23.6651 8.5178 24.0067 9.08143 24.0628 9.54052C24.1237 10.0132 23.9599 10.6632 23.7494 11.0905" fill="#FC7084"/>
<path d="M23.4452 11.1222C23.0147 11.6131 22.0461 11.945 21.3864 11.9086C21.0073 11.8904 20.5394 11.6086 20.2587 11.3631C19.8516 11.0132 19.3837 10.4495 19.1404 9.97679C19.0327 9.76315 19.6083 8.44499 19.6176 8.4359C19.8937 8.06772 20.4224 7.63136 20.8857 7.54045C21.4846 7.42227 22.2894 7.8359 22.8743 8.00408C22.9538 8.02681 23.0428 8.10863 23.0896 8.17681C23.3656 8.55862 23.7446 9.10862 23.8008 9.57225C23.8569 10.045 23.6698 10.695 23.4499 11.1222" fill="#FC7488"/>
<path d="M23.3321 10.4719C22.8033 11.4401 21.3762 11.6673 21.3621 11.6673C21.1375 11.6537 20.8474 11.4946 20.6837 11.3401C20.2766 10.9537 19.5841 10.4446 19.4998 9.89917C19.425 9.43099 19.804 8.81282 20.0754 8.41282C20.2485 8.15373 20.6135 7.86282 20.9223 7.80827C21.4323 7.71736 22.1061 8.05372 22.5927 8.23099C22.7378 8.28099 22.8875 8.44009 22.9904 8.55373C23.3882 8.99009 23.6175 9.95372 23.3367 10.4719" fill="#FC788B"/>
<path d="M23.2246 9.80277C22.9345 10.3482 22.242 10.8664 21.7694 11.2755C21.6664 11.3618 21.4793 11.4346 21.3436 11.43C21.0067 11.4118 19.9165 9.90277 19.9118 9.88914C19.8416 9.41187 20.2815 8.81641 20.5295 8.39369C20.609 8.25733 20.8055 8.11188 20.9599 8.08461C21.2219 8.03915 21.6057 8.14824 21.8115 8.30733C22.2327 8.62551 22.7988 9.05278 23.1544 9.4346C23.234 9.51641 23.2761 9.70731 23.2199 9.80731" fill="#FC7C8F"/>
<path d="M21.3068 11.0158C20.8436 10.9931 20.3897 10.3067 20.3242 9.86127C20.3242 9.83855 20.9793 8.3522 20.998 8.34766C21.0074 8.34766 21.0214 8.34765 21.0261 8.35674C21.5221 8.75674 22.631 9.07037 22.6638 9.6931C22.6965 10.2522 21.8823 11.0476 21.3068 11.0158Z" fill="#FC8092"/>
<path d="M21.2469 10.4391C21.0083 10.4301 20.7697 10.0755 20.7369 9.8437C20.6995 9.58461 20.8258 9.10279 21.0879 9.0437C21.4201 8.96643 21.9394 9.43006 21.9535 9.75733C21.9628 10.0482 21.5464 10.4528 21.2469 10.4391Z" fill="#FC8395"/>
<path d="M21.1847 9.86274C21.1847 9.86274 21.1473 9.83548 21.1426 9.81729C21.1426 9.79457 21.152 9.76275 21.1707 9.7582C21.1941 9.75366 21.2361 9.79002 21.2361 9.81274C21.2361 9.83547 21.2081 9.86274 21.1847 9.86274Z" fill="#FC8798"/>
<g style="mix-blend-mode:overlay">
<mask id="mask0_4247_353161" style="mask-type:luminance" maskUnits="userSpaceOnUse" x="7" y="9" width="18" height="18">
<path d="M24.1603 9.91016H7.07227V26.4464H24.1603V9.91016Z" fill="white"/>
</mask>
<g mask="url(#mask0_4247_353161)">
<mask id="mask1_4247_353161" style="mask-type:luminance" maskUnits="userSpaceOnUse" x="7" y="9" width="18" height="18">
<path d="M24.1557 9.91016H7.07227V26.4464H24.1557V9.91016Z" fill="white"/>
</mask>
<g mask="url(#mask1_4247_353161)">
<path d="M9.9914 24.3871C6.43995 21.3689 6.07967 16.1462 9.18192 12.719C12.2888 9.29173 17.6838 8.95992 21.2352 11.9735C24.7867 14.9917 25.147 20.2144 22.0448 23.6462C18.9379 27.0734 13.5428 27.4052 9.9914 24.3871Z" fill="#EDEDEE"/>
</g>
</g>
</g>
<g style="mix-blend-mode:overlay">
<mask id="mask2_4247_353161" style="mask-type:luminance" maskUnits="userSpaceOnUse" x="8" y="-4" width="16" height="7">
<path d="M23.3181 -3.49609H8.79883V2.13567H23.3181V-3.49609Z" fill="white"/>
</mask>
<g mask="url(#mask2_4247_353161)">
<mask id="mask3_4247_353161" style="mask-type:luminance" maskUnits="userSpaceOnUse" x="8" y="-4" width="16" height="7">
<path d="M23.3228 -3.49609H8.79883V2.13567H23.3228V-3.49609Z" fill="white"/>
</mask>
<g mask="url(#mask3_4247_353161)">
<path d="M10.0014 0.0675993C9.54284 -0.323307 9.14508 -0.74148 8.79883 -1.19148C13.1878 -3.696 18.5361 -4.18237 23.3228 -2.53693C22.9999 -1.86875 22.5788 -1.24147 22.0547 -0.664207C18.9525 2.75849 13.5621 3.0903 10.006 0.0675993" fill="#EDEDEE"/>
</g>
</g>
</g>
<g style="mix-blend-mode:overlay">
<mask id="mask4_4247_353161" style="mask-type:luminance" maskUnits="userSpaceOnUse" x="7" y="9" width="18" height="18">
<path d="M24.1603 9.91016H7.07227V26.4464H24.1603V9.91016Z" fill="white"/>
</mask>
<g mask="url(#mask4_4247_353161)">
<mask id="mask5_4247_353161" style="mask-type:luminance" maskUnits="userSpaceOnUse" x="7" y="9" width="18" height="18">
<path d="M24.1557 9.91016H7.07227V26.4464H24.1557V9.91016Z" fill="white"/>
</mask>
<g mask="url(#mask5_4247_353161)">
<path d="M9.9914 24.3871C6.43995 21.3689 6.07967 16.1462 9.18192 12.719C12.2888 9.29173 17.6838 8.95992 21.2352 11.9735C24.7867 14.9917 25.147 20.2144 22.0448 23.6462C18.9379 27.0734 13.5428 27.4052 9.9914 24.3871Z" fill="#EDEDEE"/>
</g>
</g>
</g>
<g style="mix-blend-mode:overlay">
<mask id="mask6_4247_353161" style="mask-type:luminance" maskUnits="userSpaceOnUse" x="8" y="-4" width="16" height="7">
<path d="M23.3181 -3.49609H8.79883V2.13567H23.3181V-3.49609Z" fill="white"/>
</mask>
<g mask="url(#mask6_4247_353161)">
<mask id="mask7_4247_353161" style="mask-type:luminance" maskUnits="userSpaceOnUse" x="8" y="-4" width="16" height="7">
<path d="M23.3228 -3.49609H8.79883V2.13567H23.3228V-3.49609Z" fill="white"/>
</mask>
<g mask="url(#mask7_4247_353161)">
<path d="M10.0014 0.0675993C9.54284 -0.323307 9.14508 -0.74148 8.79883 -1.19148C13.1878 -3.696 18.5361 -4.18237 23.3228 -2.53693C22.9999 -1.86875 22.5788 -1.24147 22.0547 -0.664207C18.9525 2.75849 13.5621 3.0903 10.006 0.0675993" fill="#EDEDEE"/>
</g>
</g>
</g>
<g opacity="0.9">
<mask id="mask8_4247_353161" style="mask-type:luminance" maskUnits="userSpaceOnUse" x="7" y="9" width="18" height="18">
<path d="M24.1603 9.91016H7.07227V26.4464H24.1603V9.91016Z" fill="white"/>
</mask>
<g mask="url(#mask8_4247_353161)">
<mask id="mask9_4247_353161" style="mask-type:luminance" maskUnits="userSpaceOnUse" x="7" y="9" width="18" height="18">
<path d="M24.1557 9.91016H7.07227V26.4464H24.1557V9.91016Z" fill="white"/>
</mask>
<g mask="url(#mask9_4247_353161)">
<path d="M9.9914 24.3871C6.43995 21.3689 6.07967 16.1462 9.18192 12.719C12.2888 9.29173 17.6838 8.95992 21.2352 11.9735C24.7867 14.9917 25.147 20.2144 22.0448 23.6462C18.9379 27.0734 13.5428 27.4052 9.9914 24.3871Z" fill="#EDEDEE"/>
</g>
</g>
</g>
<g opacity="0.81">
<mask id="mask10_4247_353161" style="mask-type:luminance" maskUnits="userSpaceOnUse" x="8" y="-4" width="16" height="7">
<path d="M23.3181 -3.49609H8.79883V2.13567H23.3181V-3.49609Z" fill="white"/>
</mask>
<g mask="url(#mask10_4247_353161)">
<mask id="mask11_4247_353161" style="mask-type:luminance" maskUnits="userSpaceOnUse" x="8" y="-4" width="16" height="7">
<path d="M23.3228 -3.49609H8.79883V2.13567H23.3228V-3.49609Z" fill="white"/>
</mask>
<g mask="url(#mask11_4247_353161)">
<path d="M10.0014 0.0675993C9.54284 -0.323307 9.14508 -0.74148 8.79883 -1.19148C13.1878 -3.696 18.5361 -4.18237 23.3228 -2.53693C22.9999 -1.86875 22.5788 -1.24147 22.0547 -0.664207C18.9525 2.75849 13.5621 3.0903 10.006 0.0675993" fill="#EDEDEE"/>
</g>
</g>
</g>
</svg>
