<svg width="550" height="550" viewBox="0 0 550 550" fill="none" xmlns="http://www.w3.org/2000/svg">
<path d="M198.937 70.1761C198.442 63.7727 195.498 57.8066 190.716 53.519C185.935 49.2315 179.684 46.9526 173.265 47.1566C166.845 47.3607 160.752 50.0318 156.252 54.6144C151.753 59.197 149.193 65.3381 149.106 71.7599H158.38C158.378 69.6184 158.816 67.4993 159.666 65.5338C160.516 63.5683 161.761 61.7982 163.323 60.3331C164.885 58.868 166.731 57.7392 168.747 57.0163C170.763 56.2935 172.905 55.9921 175.043 56.1307C178.826 56.4121 182.384 58.043 185.066 60.7264C187.749 63.4099 189.378 66.9676 189.658 70.7516C189.86 73.8513 189.135 76.941 187.575 79.6272C186.015 82.3135 183.691 84.4747 180.899 85.8358C173.912 89.2479 169.395 96.6576 169.395 104.709V110.178H178.679V104.709C178.679 100.177 181.149 96.0516 184.973 94.1775C189.42 92.0144 193.122 88.5769 195.609 84.3027C198.096 80.0285 199.254 75.1109 198.937 70.1761ZM174.044 120.114C172.697 120.114 171.379 120.514 170.258 121.263C169.138 122.012 168.264 123.076 167.749 124.322C167.233 125.567 167.098 126.937 167.362 128.259C167.625 129.581 168.275 130.795 169.228 131.748C170.181 132.701 171.396 133.349 172.718 133.612C174.04 133.874 175.41 133.738 176.655 133.222C177.9 132.705 178.964 131.831 179.712 130.71C180.461 129.589 180.859 128.271 180.858 126.923C180.858 126.028 180.682 125.142 180.339 124.316C179.997 123.49 179.495 122.739 178.862 122.107C178.229 121.474 177.478 120.973 176.652 120.631C175.825 120.289 174.939 120.113 174.044 120.114Z" fill="#F16667"/>
<path d="M448.927 375.049L436.168 387.808L367 318.64L379.759 305.881L448.927 375.049Z" fill="#F16667"/>
<path d="M436.171 305.883L448.929 318.641L379.761 387.809L367.003 375.051L436.171 305.883Z" fill="#F16667"/>
<path d="M236.861 161.792C236.643 161.792 236.431 161.723 236.255 161.593L214.209 145.231H122.66C119.356 145.228 116.188 143.914 113.851 141.578C111.515 139.241 110.201 136.073 110.198 132.769V46.0831C110.2 42.7775 111.513 39.6076 113.849 37.2693C116.185 34.931 119.354 33.6154 122.66 33.6113H134.638C134.908 33.6113 135.167 33.7186 135.358 33.9096C135.549 34.1007 135.656 34.3597 135.656 34.6298C135.656 34.9 135.549 35.159 135.358 35.35C135.167 35.5411 134.908 35.6484 134.638 35.6484H122.66C119.896 35.6524 117.247 36.752 115.293 38.7061C113.339 40.6602 112.239 43.3094 112.235 46.0729V132.769C112.239 135.533 113.339 138.182 115.293 140.136C117.247 142.09 119.896 143.19 122.66 143.194H214.545C214.766 143.194 214.98 143.265 215.157 143.397L235.843 158.752V46.0831C235.841 43.3196 234.744 40.6693 232.792 38.7133C230.84 36.7573 228.192 35.6551 225.428 35.6484H147.542C147.272 35.6484 147.013 35.5411 146.822 35.35C146.631 35.159 146.524 34.9 146.524 34.6298C146.524 34.3597 146.631 34.1007 146.822 33.9096C147.013 33.7186 147.272 33.6113 147.542 33.6113H225.428C228.733 33.614 231.901 34.9278 234.237 37.2642C236.573 39.6006 237.887 42.7687 237.89 46.0729V160.763C237.89 160.952 237.838 161.137 237.739 161.298C237.64 161.459 237.498 161.59 237.33 161.675C237.185 161.751 237.025 161.791 236.861 161.792Z" fill="#F16667"/>
<path d="M310.047 153.914C308.577 159.061 308.666 164.529 310.303 169.626C311.941 174.723 315.053 179.22 319.246 182.548C323.439 185.877 328.525 187.887 333.861 188.324C339.196 188.762 344.542 187.607 349.221 185.007C353.901 182.407 357.704 178.477 360.15 173.715C362.596 168.953 363.575 163.573 362.963 158.254C362.351 152.936 360.176 147.918 356.713 143.836C353.249 139.754 348.653 136.791 343.506 135.321C340.088 134.344 336.511 134.05 332.98 134.456C329.449 134.862 326.032 135.96 322.925 137.686C319.818 139.413 317.081 141.735 314.872 144.519C312.662 147.303 311.023 150.496 310.047 153.914ZM322.83 157.565C323.58 154.953 325.088 152.622 327.163 150.867C329.238 149.111 331.786 148.01 334.486 147.702C337.186 147.394 339.917 147.893 342.334 149.136C344.751 150.379 346.745 152.311 348.065 154.686C349.384 157.062 349.97 159.776 349.749 162.484C349.527 165.193 348.508 167.775 346.82 169.905C345.131 172.035 342.85 173.616 340.263 174.45C337.676 175.284 334.901 175.333 332.287 174.59C330.546 174.095 328.921 173.262 327.503 172.138C326.085 171.014 324.903 169.622 324.025 168.04C323.146 166.459 322.588 164.719 322.383 162.922C322.178 161.124 322.33 159.304 322.83 157.565Z" fill="#B5B5B5"/>
<path d="M283.922 482.645C347.809 497.068 405.635 499.726 411.924 477.665C422.619 440.209 384.134 410.952 395.445 350.325C409.052 277.368 413.233 214.154 361.065 183.598C348.206 176.051 332.037 170.831 317.625 168.478C244.694 156.343 212.763 220.647 185.543 290.349C163.111 347.824 114.98 352.306 104.276 389.762C97.9762 411.823 148.464 440.107 210.324 461.618L283.922 482.645Z" fill="#D9D9D9"/>
<path d="M116.585 395.44C111.558 413.009 202.945 452.019 293.735 472.44C352.035 485.564 396.392 487.769 399.661 476.326C404.352 459.989 324.856 424.564 238.669 403.165C172.593 386.711 120.144 382.963 116.585 395.44Z" fill="#423E3E"/>
<path d="M213.766 432.102C211.665 439.446 211.443 447.201 213.121 454.654C214.799 462.106 218.323 469.018 223.369 474.753C228.416 480.488 234.822 484.863 242.001 487.476C249.179 490.088 256.899 490.855 264.451 489.706C272.003 488.556 279.145 485.527 285.221 480.897C291.297 476.266 296.112 470.183 299.223 463.206C302.335 456.23 303.643 448.583 303.027 440.968C302.412 433.354 299.893 426.017 295.701 419.63C277.475 413.621 257.614 407.886 238.664 403.186C232.665 405.912 227.332 409.91 223.032 414.903C218.733 419.896 215.571 425.765 213.766 432.102Z" fill="#B5B5B5"/>
<path d="M493.385 457.315C490.121 457.315 486.93 456.347 484.216 454.533C481.501 452.72 479.386 450.142 478.137 447.126C476.887 444.11 476.561 440.791 477.197 437.59C477.834 434.388 479.406 431.447 481.715 429.139C484.023 426.831 486.964 425.259 490.165 424.622C493.367 423.985 496.686 424.312 499.702 425.561C502.718 426.81 505.295 428.926 507.109 431.64C508.923 434.354 509.891 437.545 509.891 440.81C509.886 445.186 508.146 449.382 505.052 452.476C501.957 455.571 497.762 457.311 493.385 457.315ZM493.385 426.347C490.524 426.347 487.726 427.195 485.347 428.785C482.968 430.375 481.113 432.635 480.018 435.279C478.923 437.923 478.637 440.833 479.196 443.639C479.754 446.446 481.133 449.024 483.157 451.047C485.181 453.07 487.759 454.448 490.566 455.006C493.373 455.563 496.282 455.276 498.926 454.18C501.569 453.084 503.828 451.229 505.418 448.849C507.007 446.469 507.854 443.672 507.853 440.81C507.855 436.97 506.332 433.287 503.619 430.571C500.906 427.854 497.225 426.325 493.385 426.321V426.347ZM130.91 516.389C130.708 516.389 130.511 516.329 130.343 516.217C130.175 516.105 130.044 515.945 129.968 515.759C129.891 515.572 129.871 515.367 129.911 515.169C129.951 514.971 130.049 514.789 130.192 514.647L157.004 487.835C157.196 487.644 157.455 487.536 157.725 487.536C157.995 487.536 158.254 487.644 158.446 487.835C158.637 488.026 158.744 488.285 158.744 488.555C158.744 488.826 158.637 489.085 158.446 489.276L131.633 516.088C131.538 516.184 131.426 516.259 131.302 516.311C131.177 516.363 131.044 516.389 130.91 516.389Z" fill="#D9D9D9"/>
<path d="M157.723 516.389C157.453 516.388 157.195 516.28 157.005 516.089L130.192 489.276C130.097 489.182 130.022 489.069 129.971 488.946C129.92 488.822 129.894 488.689 129.894 488.556C129.894 488.422 129.92 488.289 129.971 488.166C130.022 488.042 130.097 487.93 130.192 487.835C130.287 487.74 130.399 487.665 130.523 487.614C130.646 487.563 130.779 487.537 130.913 487.537C131.046 487.537 131.179 487.563 131.303 487.614C131.426 487.665 131.539 487.74 131.633 487.835L158.446 514.648C158.589 514.79 158.687 514.972 158.727 515.17C158.767 515.369 158.747 515.574 158.669 515.761C158.592 515.948 158.46 516.108 158.292 516.22C158.123 516.331 157.925 516.39 157.723 516.389ZM371.311 90.674H334.425C334.247 90.6738 334.071 90.6266 333.917 90.5371C333.762 90.4476 333.633 90.3191 333.544 90.1642C333.455 90.0094 333.408 89.8339 333.408 89.6552C333.408 89.4765 333.455 89.3009 333.544 89.1462L351.985 57.2003C352.074 57.0448 352.203 56.9156 352.358 56.8257C352.513 56.7358 352.689 56.6885 352.868 56.6885C353.048 56.6885 353.224 56.7358 353.379 56.8257C353.534 56.9156 353.663 57.0448 353.752 57.2003L372.192 89.1462C372.281 89.3009 372.328 89.4765 372.329 89.6552C372.329 89.8339 372.282 90.0094 372.192 90.1642C372.103 90.3191 371.975 90.4476 371.82 90.5371C371.665 90.6266 371.49 90.6738 371.311 90.674ZM336.172 88.6369H369.534L352.866 59.7466L336.172 88.6369Z" fill="#D9D9D9"/>
<path d="M60.8666 301.4C60.6503 301.401 60.4395 301.332 60.2646 301.205C60.0897 301.078 59.9599 300.898 59.8939 300.692L51.3078 273.895C51.2254 273.638 51.2486 273.358 51.3723 273.118C51.496 272.878 51.71 272.697 51.9673 272.614C52.2246 272.532 52.5041 272.555 52.7443 272.679C52.9845 272.802 53.1657 273.016 53.2481 273.274L61.5236 299.103L143.968 272.688L124.855 213.033L42.4111 239.449L49.4592 261.438C49.5416 261.696 49.5184 261.975 49.3947 262.215C49.3335 262.334 49.2494 262.44 49.1473 262.527C49.0452 262.613 48.9271 262.678 48.7997 262.719C48.5424 262.802 48.2629 262.778 48.0227 262.655C47.7825 262.531 47.6013 262.317 47.5189 262.06L40.1601 239.097C40.0834 238.843 40.109 238.569 40.2314 238.333C40.2922 238.213 40.3761 238.107 40.4784 238.019C40.5807 237.932 40.6992 237.865 40.8273 237.824L125.212 210.788C125.467 210.705 125.746 210.727 125.986 210.849C126.106 210.909 126.212 210.993 126.3 211.096C126.387 211.198 126.454 211.316 126.495 211.444L146.229 273.065C146.27 273.192 146.286 273.327 146.275 273.46C146.264 273.594 146.227 273.724 146.166 273.843C146.105 273.962 146.021 274.068 145.919 274.155C145.817 274.241 145.699 274.307 145.572 274.348L61.1875 301.385C61.0818 301.405 60.9737 301.41 60.8666 301.4Z" fill="#B5B5B5"/>
<path d="M92.685 267.168C90.4884 267.169 88.3288 266.603 86.416 265.523L40.6285 239.678C40.3935 239.543 40.2217 239.32 40.1511 239.058C40.0804 238.797 40.1166 238.517 40.2516 238.282C40.3867 238.047 40.6096 237.876 40.8713 237.805C41.133 237.734 41.412 237.771 41.647 237.906L87.4243 263.751C88.7075 264.473 90.1261 264.923 91.5913 265.072C93.0564 265.22 94.5365 265.065 95.9387 264.615C97.341 264.165 98.6352 263.431 99.7403 262.457C100.845 261.484 101.738 260.293 102.361 258.958L124.59 211.343C124.704 211.098 124.911 210.908 125.165 210.815C125.419 210.722 125.7 210.735 125.945 210.849C126.19 210.963 126.38 211.17 126.472 211.424C126.565 211.678 126.553 211.958 126.439 212.203L104.204 259.824C103.181 262.016 101.553 263.871 99.513 265.172C97.4729 266.472 95.1044 267.165 92.685 267.168Z" fill="#B5B5B5"/>
<path d="M145.246 274.364C145.067 274.365 144.892 274.319 144.737 274.231L106.379 252.593C106.263 252.526 106.161 252.437 106.079 252.33C105.997 252.224 105.937 252.103 105.902 251.973C105.867 251.843 105.858 251.708 105.875 251.575C105.892 251.442 105.935 251.314 106.002 251.197C106.069 251.081 106.158 250.979 106.265 250.897C106.371 250.815 106.492 250.755 106.622 250.72C106.752 250.685 106.887 250.676 107.02 250.693C107.153 250.71 107.281 250.754 107.398 250.82L145.75 272.454C145.946 272.565 146.1 272.738 146.187 272.946C146.274 273.154 146.29 273.385 146.232 273.603C146.174 273.821 146.045 274.013 145.865 274.15C145.686 274.287 145.466 274.36 145.241 274.358L145.246 274.364ZM60.8615 301.4C60.7135 301.4 60.5673 301.367 60.4338 301.303C60.3116 301.248 60.2015 301.17 60.1097 301.072C60.018 300.974 59.9464 300.86 59.8991 300.734C59.8518 300.609 59.8297 300.475 59.834 300.342C59.8384 300.208 59.8691 300.076 59.9245 299.954L78.5583 260.023C78.6148 259.901 78.6947 259.792 78.7933 259.702C78.892 259.611 79.0075 259.541 79.1333 259.495C79.2591 259.449 79.3927 259.429 79.5265 259.434C79.6602 259.44 79.7916 259.472 79.9129 259.529C80.0343 259.585 80.1434 259.665 80.2339 259.764C80.3244 259.863 80.3946 259.978 80.4405 260.104C80.4864 260.23 80.507 260.363 80.5012 260.497C80.4955 260.631 80.4634 260.762 80.4069 260.883L61.7731 300.814C61.6917 300.988 61.5629 301.135 61.4017 301.239C61.2404 301.342 61.0532 301.398 60.8615 301.4Z" fill="#B5B5B5"/>
<path d="M412.352 184.199C412.171 184.199 411.993 184.15 411.837 184.059C411.681 183.967 411.552 183.835 411.464 183.677C411.376 183.518 411.331 183.339 411.335 183.158C411.339 182.977 411.391 182.8 411.487 182.646L434.8 144.533C434.944 144.307 435.17 144.147 435.431 144.086C435.691 144.026 435.965 144.07 436.193 144.21C436.421 144.35 436.585 144.574 436.649 144.833C436.714 145.093 436.673 145.367 436.537 145.597L413.223 183.71C413.132 183.86 413.004 183.983 412.852 184.069C412.699 184.154 412.527 184.199 412.352 184.199ZM434.266 207.269C434.037 207.275 433.813 207.203 433.629 207.066C433.446 206.929 433.314 206.734 433.255 206.512C433.197 206.291 433.214 206.056 433.305 205.846C433.396 205.636 433.555 205.462 433.757 205.354L473.005 184.001C473.243 183.872 473.522 183.842 473.781 183.919C474.041 183.996 474.259 184.173 474.388 184.411C474.517 184.648 474.546 184.928 474.469 185.187C474.392 185.446 474.216 185.664 473.978 185.793L434.729 207.141C434.588 207.221 434.428 207.265 434.266 207.269ZM486.378 239.296H486.343L436.715 238.033C436.582 238.03 436.45 238 436.327 237.946C436.205 237.891 436.095 237.814 436.003 237.717C435.91 237.62 435.838 237.506 435.79 237.381C435.742 237.256 435.719 237.123 435.722 236.989C435.726 236.855 435.755 236.724 435.81 236.601C435.864 236.479 435.942 236.369 436.039 236.276C436.136 236.184 436.25 236.112 436.375 236.064C436.499 236.016 436.632 235.993 436.766 235.996L486.394 237.254C486.664 237.254 486.923 237.361 487.114 237.552C487.305 237.743 487.412 238.002 487.412 238.272C487.412 238.543 487.305 238.802 487.114 238.993C486.923 239.184 486.664 239.291 486.394 239.291L486.378 239.296Z" fill="#F16667"/>
</svg>
