<svg width="550" height="550" viewBox="0 0 550 550" fill="none" xmlns="http://www.w3.org/2000/svg">
<path d="M275.297 523.699C405.827 523.699 511.643 462.606 511.643 387.244C511.643 311.882 405.827 250.789 275.297 250.789C144.767 250.789 38.9509 311.882 38.9509 387.244C38.9509 462.606 144.767 523.699 275.297 523.699Z" fill="#838383"/>
<path d="M401.5 491.469C427.593 491.469 448.745 478.206 448.745 461.846C448.745 445.486 427.593 432.223 401.5 432.223C375.407 432.223 354.255 445.486 354.255 461.846C354.255 478.206 375.407 491.469 401.5 491.469Z" fill="#D0D0D0"/>
<path d="M311.234 273.515L304.865 269.874C304.583 269.663 304.361 269.383 304.218 269.061C304.076 268.74 304.018 268.387 304.051 268.037V225.599C304.114 224.461 304.495 223.363 305.151 222.431L311.487 226.083C310.853 227.013 310.494 228.103 310.453 229.229V271.7C310.413 272.044 310.464 272.393 310.601 272.712C310.738 273.03 310.956 273.307 311.234 273.515Z" fill="#FF725E"/>
<path opacity="0.55" d="M311.234 273.515L304.865 269.874C304.583 269.663 304.361 269.383 304.218 269.061C304.076 268.74 304.018 268.387 304.051 268.037V225.599C304.114 224.461 304.495 223.363 305.151 222.431L311.487 226.083C310.853 227.013 310.494 228.103 310.453 229.229V271.7C310.413 272.044 310.464 272.393 310.601 272.712C310.738 273.03 310.956 273.307 311.234 273.515Z" fill="white"/>
<path d="M313.258 224.235L402.116 172.942C403.711 172.018 404.998 172.766 404.998 174.603V217.129C404.945 218.128 404.656 219.101 404.156 219.967C403.655 220.833 402.956 221.568 402.116 222.112L313.258 273.328C311.674 274.241 310.376 273.493 310.376 271.656V229.229C310.432 228.229 310.722 227.257 311.223 226.389C311.723 225.522 312.42 224.784 313.258 224.235Z" fill="#FF725E"/>
<path opacity="0.7" d="M313.258 224.235L402.116 172.942C403.711 172.018 404.998 172.766 404.998 174.603V217.129C404.945 218.128 404.656 219.101 404.156 219.967C403.655 220.833 402.956 221.568 402.116 222.112L313.258 273.328C311.674 274.241 310.376 273.493 310.376 271.656V229.229C310.432 228.229 310.722 227.257 311.223 226.389C311.723 225.522 312.42 224.784 313.258 224.235Z" fill="white"/>
<path d="M397.782 169.103L404.052 172.678C403.733 172.559 403.39 172.521 403.053 172.565C402.715 172.609 402.394 172.734 402.116 172.931L313.258 224.235C312.507 224.7 311.874 225.332 311.41 226.083L305.074 222.431C305.526 221.687 306.148 221.062 306.889 220.605L395.747 169.301C396.135 169.062 396.579 168.929 397.034 168.916C397.295 168.914 397.553 168.978 397.782 169.103Z" fill="#FF725E"/>
<path opacity="0.85" d="M397.782 169.103L404.052 172.678C403.733 172.559 403.39 172.521 403.053 172.565C402.715 172.609 402.394 172.734 402.116 172.931L313.258 224.235C312.507 224.7 311.874 225.332 311.41 226.083L305.074 222.431C305.526 221.687 306.148 221.062 306.889 220.605L395.747 169.301C396.135 169.062 396.579 168.929 397.034 168.916C397.295 168.914 397.553 168.978 397.782 169.103Z" fill="white"/>
<path d="M320.21 228.162L395.164 184.8C395.934 184.36 396.55 184.668 396.55 185.493C396.517 185.958 396.374 186.409 396.133 186.809C395.892 187.208 395.56 187.545 395.164 187.792L320.21 231.132C319.451 231.572 318.824 231.264 318.824 230.439C318.862 229.978 319.007 229.532 319.247 229.136C319.488 228.741 319.818 228.407 320.21 228.162Z" fill="#FF725E"/>
<path d="M320.21 258.5L395.164 215.16C395.934 214.72 396.55 215.028 396.55 215.864C396.517 216.328 396.374 216.777 396.133 217.175C395.892 217.573 395.56 217.908 395.164 218.152L320.21 261.448C319.451 261.888 318.824 261.569 318.824 260.744C318.868 260.289 319.016 259.85 319.256 259.461C319.497 259.072 319.823 258.743 320.21 258.5Z" fill="#FF725E"/>
<path d="M320.21 243.309L395.164 199.958C395.934 199.518 396.55 199.837 396.55 200.662C396.515 201.127 396.371 201.577 396.13 201.976C395.89 202.375 395.559 202.713 395.164 202.961L320.21 246.301C319.451 246.741 318.824 246.422 318.824 245.597C318.86 245.134 319.004 244.685 319.245 244.288C319.486 243.89 319.816 243.555 320.21 243.309Z" fill="#FF725E"/>
<path d="M320.21 250.877L395.164 207.537C395.934 207.097 396.55 207.405 396.55 208.23C396.517 208.695 396.374 209.146 396.133 209.546C395.892 209.945 395.56 210.282 395.164 210.529L320.21 253.869C319.451 254.309 318.824 254.001 318.824 253.176C318.858 252.711 319.002 252.26 319.242 251.861C319.483 251.461 319.815 251.124 320.21 250.877Z" fill="#FF725E"/>
<path d="M320.21 235.73L395.164 192.39C395.934 191.95 396.55 192.258 396.55 193.094C396.517 193.558 396.374 194.007 396.133 194.405C395.892 194.803 395.56 195.138 395.164 195.382L320.21 238.7C319.451 239.14 318.824 238.821 318.824 237.996C318.865 237.537 319.011 237.094 319.252 236.701C319.492 236.308 319.82 235.976 320.21 235.73Z" fill="#FF725E"/>
<path d="M310.75 208.747L304.7 205.304C304.418 205.094 304.194 204.814 304.052 204.492C303.909 204.171 303.852 203.817 303.886 203.467V90.585C303.945 89.4461 304.326 88.3474 304.986 87.417L310.882 90.827C310.282 91.7376 309.943 92.7953 309.903 93.885V206.888C309.862 207.246 309.919 207.608 310.068 207.935C310.217 208.263 310.453 208.543 310.75 208.747Z" fill="#263238"/>
<path d="M403.15 37.2129C402.617 37.1653 402.082 37.2969 401.632 37.5869L312.774 88.8909C311.996 89.3775 311.344 90.0408 310.871 90.8269L304.964 87.4169C305.423 86.6789 306.044 86.0546 306.779 85.5909L395.637 34.2979C396.023 34.0526 396.467 33.9158 396.924 33.9019C397.185 33.8998 397.443 33.9642 397.672 34.0889L403.15 37.2129Z" fill="#37474F"/>
<path d="M312.774 88.8909L401.632 37.5979C403.227 36.6739 404.514 37.4219 404.514 39.2589V152.361C404.461 153.36 404.173 154.333 403.672 155.199C403.171 156.065 402.472 156.8 401.632 157.344L312.785 208.56C311.19 209.473 309.892 208.725 309.892 206.888V93.8849C309.948 92.8851 310.239 91.9124 310.739 91.0451C311.24 90.1778 311.937 89.4399 312.774 88.8909Z" fill="#455A64"/>
<path d="M317.702 92.5757L397.452 46.5297C398.882 45.7047 400.037 46.3757 400.037 48.0257V149.6C399.989 150.497 399.729 151.37 399.28 152.148C398.831 152.925 398.205 153.586 397.452 154.077L317.702 200.035C316.272 200.86 315.117 200.189 315.117 198.539V97.0527C315.165 96.1557 315.424 95.2827 315.874 94.5048C316.323 93.7269 316.949 93.0659 317.702 92.5757Z" fill="#D0D0D0"/>
<mask id="mask0_1863_2" style="mask-type:luminance" maskUnits="userSpaceOnUse" x="315" y="46" width="86" height="155">
<path d="M317.702 92.5757L397.452 46.5297C398.882 45.7047 400.037 46.3757 400.037 48.0257V149.6C399.989 150.497 399.729 151.37 399.28 152.148C398.831 152.925 398.205 153.586 397.452 154.077L317.702 200.035C316.272 200.86 315.117 200.189 315.117 198.539V97.0527C315.165 96.1557 315.424 95.2827 315.874 94.5048C316.323 93.7269 316.949 93.0659 317.702 92.5757Z" fill="white"/>
</mask>
<g mask="url(#mask0_1863_2)">
<path d="M383.999 134.2C382.598 131.753 380.373 129.884 377.721 128.926C375.069 127.969 372.163 127.986 369.523 128.975C369.523 128.975 369.061 137.478 373.417 149.688C373.417 149.688 392.392 177.342 396.176 179.916L401.423 162.514C401.423 162.514 387.574 139.799 383.999 134.2Z" fill="#B16668"/>
<path d="M337.502 140.107C333.025 141.812 333.696 146.707 333.839 151.052C333.916 153.725 334.356 158.257 334.642 164.472L335.918 184.481L335.632 227.887C350.185 232.848 368.698 228.481 384.23 211.222C384.23 211.222 383.361 155.672 383.361 146.553C383.361 146.135 383.361 145.728 383.361 145.31C382.811 132.836 376.618 127.501 369.545 128.997C367.279 129.481 362.373 131.043 359.128 132.055L350.218 134.937C350.218 134.937 341.968 138.402 337.502 140.107Z" fill="#FF725E"/>
<path opacity="0.2" d="M337.502 140.107C333.025 141.812 333.696 146.707 333.839 151.052C333.916 153.725 334.356 158.257 334.642 164.472L335.918 184.481L335.632 227.887C350.185 232.848 368.698 228.481 384.23 211.222C384.23 211.222 383.361 155.672 383.361 146.553C383.361 146.135 383.361 145.728 383.361 145.31C382.811 132.836 376.618 127.501 369.545 128.997C367.279 129.481 362.373 131.043 359.128 132.055L350.218 134.937C350.218 134.937 341.968 138.402 337.502 140.107Z" fill="black"/>
<path d="M371.206 96.8876C371.206 92.8726 371.833 87.6036 375.914 85.6786C377.982 84.6996 380.93 84.2926 382.899 85.5686C384.868 86.8446 386.122 88.6486 385.77 91.1566C385.426 93.0292 384.489 94.7414 383.097 96.0406C382.856 96.2259 382.676 96.4787 382.58 96.7666C382.543 96.9987 382.562 97.2362 382.635 97.4596C383.163 99.9346 383.13 102.773 381.447 104.665C380.868 105.308 380.136 105.796 379.319 106.082C378.502 106.368 377.626 106.445 376.772 106.304C375.812 106.077 374.917 105.634 374.155 105.009C373.392 104.383 372.782 103.592 372.372 102.696C371.533 100.878 371.134 98.8883 371.206 96.8876Z" fill="#263238"/>
<path d="M344.3 110.99C344.3 110.99 346.566 122.661 347.468 124.432C347.74 124.947 348.138 125.386 348.624 125.707C349.111 126.028 349.67 126.221 350.251 126.269L350.097 117.689L344.3 110.99Z" fill="#263238"/>
<path d="M347.083 92.6528C347.083 92.6528 344.982 93.1698 344.883 93.2248C343.914 93.5863 343.044 94.1703 342.342 94.9298C341.797 95.5093 341.4 96.2122 341.185 96.9784C340.971 97.7446 340.945 98.5514 341.11 99.3298C341.463 100.464 342.103 101.487 342.969 102.3C342.303 102.979 341.782 103.788 341.44 104.676C341.104 105.573 341.104 106.562 341.44 107.459C341.674 107.981 341.978 108.469 342.342 108.911C343.145 109.934 344.091 110.935 345.477 110.781C346.489 110.671 347.512 110.506 348.524 110.374L347.083 92.6528Z" fill="#263238"/>
<path d="M349.8 110.077C348.953 110.902 347.732 109.329 346.676 108.339C345.62 107.349 342.188 106.535 340.472 111.166C338.756 115.797 341.99 120.626 344.696 120.89C349.36 121.33 350.064 117.689 350.064 117.689L350.218 136.851C355.311 147.51 376.299 143.451 365.618 132.385V126.5C367.757 126.313 369.866 125.87 371.899 125.18C375.331 123.651 377.498 119.944 378.499 115.379C380.171 108.042 380.028 103.697 379.467 90.4638C379.082 81.3778 362.879 78.5728 354.805 86.6028C346.731 94.6328 349.8 110.077 349.8 110.077Z" fill="#B16668"/>
<path d="M346.654 108.339C346.104 107.91 346.159 106.656 346.126 106.051C346.069 104.584 346.095 103.115 346.203 101.651C346.346 99.3408 346.984 96.9208 346.456 94.6548C346.194 93.8312 346.115 92.9602 346.225 92.1028C346.288 91.6736 346.486 91.2756 346.79 90.9669C347.095 90.6582 347.491 90.455 347.919 90.3868C347.413 89.0633 347.273 87.6278 347.515 86.2315C347.756 84.8353 348.37 83.5301 349.291 82.4534C350.212 81.3768 351.407 80.5686 352.749 80.1141C354.091 79.6595 355.531 79.5755 356.917 79.8708C357.289 78.6033 357.996 77.4597 358.964 76.5613C359.932 75.6628 361.125 75.0427 362.417 74.7668C363.896 74.4547 365.429 74.5075 366.883 74.9208C367.624 75.1212 368.312 75.4823 368.897 75.9785C369.483 76.4747 369.952 77.0938 370.271 77.7918C371.184 75.8338 374.341 74.0738 377.223 74.4038C379.643 74.6898 382.129 76.1858 382.954 78.1438C383.517 79.4153 383.807 80.7904 383.807 82.1808C383.807 83.5713 383.517 84.9463 382.954 86.2178C382.503 87.1017 381.867 87.8778 381.089 88.4929C380.31 89.1081 379.408 89.5477 378.444 89.7818C376.479 90.2574 374.406 89.9329 372.68 88.8798C372.676 89.92 372.336 90.9311 371.712 91.7632C371.088 92.5954 370.212 93.2043 369.215 93.4998C367.829 93.9476 366.348 94.0197 364.925 93.7088C363.587 93.1975 362.37 92.4147 361.35 91.4098C361.261 92.3497 360.915 93.247 360.351 94.0036C359.786 94.7602 359.025 95.347 358.149 95.6998C357.27 96.0298 356.329 96.1643 355.393 96.094C354.456 96.0237 353.546 95.7503 352.726 95.2928C353.135 96.6014 353.365 97.9595 353.408 99.3298C353.469 100.042 353.36 100.758 353.089 101.42C352.942 101.742 352.707 102.016 352.411 102.211C352.116 102.405 351.771 102.512 351.417 102.52C352.21 104.524 352.494 106.693 352.242 108.834C352.218 109.69 351.881 110.508 351.296 111.133C349.393 112.893 347.831 109.263 346.654 108.339Z" fill="#263238"/>
<path d="M347.094 93.7416L341.924 91.9266C342.661 90.0236 344.41 88.8906 345.84 89.3856C347.27 89.8806 347.82 91.8386 347.094 93.7416Z" fill="#263238"/>
<path d="M365.563 126.5C365.563 126.5 357.863 126.764 355.223 125.84C353.617 125.28 352.289 124.121 351.516 122.606C351.893 124.208 352.614 125.71 353.628 127.006C355.586 129.371 365.563 128.832 365.563 128.832V126.5Z" fill="#9A4A4D"/>
<path d="M363.583 105.699C363.581 106.179 363.433 106.647 363.157 107.04C362.882 107.433 362.493 107.733 362.043 107.899C361.196 108.13 360.503 107.481 360.503 106.469C360.506 105.989 360.655 105.522 360.93 105.129C361.205 104.736 361.593 104.436 362.043 104.269C362.89 104.038 363.583 104.687 363.583 105.699Z" fill="#263238"/>
<path d="M362.417 100.661L358.677 103.037C358.514 102.471 358.533 101.869 358.73 101.315C358.928 100.76 359.294 100.282 359.777 99.946C359.989 99.7905 360.233 99.6848 360.491 99.6366C360.75 99.5884 361.016 99.5991 361.269 99.6677C361.523 99.7364 361.758 99.8614 361.956 100.033C362.155 100.205 362.313 100.42 362.417 100.661Z" fill="#263238"/>
<path d="M364.87 116.072L368.368 116.644C368.269 117.201 367.977 117.706 367.542 118.068C367.107 118.43 366.558 118.627 365.992 118.624C365.024 118.47 364.518 117.326 364.87 116.072Z" fill="#9A4A4D"/>
<path d="M377.487 99.9241L374.495 98.0651C375.1 96.9101 376.266 96.3931 377.091 96.8991C377.513 97.269 377.787 97.7802 377.86 98.3369C377.932 98.8936 377.8 99.4578 377.487 99.9241Z" fill="#263238"/>
<path d="M376.706 102.608C376.705 103.086 376.558 103.553 376.285 103.946C376.012 104.339 375.625 104.64 375.177 104.808C374.33 105.039 373.637 104.39 373.637 103.378C373.642 102.898 373.791 102.432 374.066 102.039C374.341 101.647 374.728 101.346 375.177 101.178C376.024 100.947 376.706 101.585 376.706 102.608Z" fill="#263238"/>
<path d="M368.368 103.037L368.544 113.729L374.044 110.858L368.368 103.037Z" fill="#9A4A4D"/>
<path d="M334.719 231.66C334.969 234.548 335.804 237.354 337.172 239.91C338.688 242.288 340.541 244.433 342.672 246.279C342.9 246.453 343.065 246.696 343.145 246.972C343.222 247.544 342.573 247.94 342.045 248.072C340.842 248.251 339.615 248.01 338.569 247.39C337.785 246.932 337.064 246.373 336.424 245.729C336.204 245.531 334.84 244.563 334.84 244.343C335.272 246.66 336.082 248.889 337.238 250.943C338.375 252.71 339.4 254.547 340.307 256.443C340.824 257.686 341.066 259.292 340.109 260.238C339.704 260.58 339.226 260.825 338.712 260.953C336.97 261.444 335.129 261.464 333.376 261.012C331.624 260.56 330.022 259.651 328.735 258.379C327.607 257.152 326.665 255.766 325.941 254.265C325.501 253.439 325.104 252.591 324.753 251.724C324.167 250.212 323.715 248.651 323.4 247.06C322.553 243.243 322.234 239.36 321.651 235.532C319.919 223.34 319.227 211.024 319.583 198.715C321.563 157.949 324.346 144.166 337.524 140.107C341.253 142.879 342.925 154.748 338.998 165.33C337.049 177.15 335.771 189.071 335.17 201.036C334.928 206.69 334.015 218.086 334.279 223.74C334.4 226.27 334.4 228.8 334.719 231.66Z" fill="#B16668"/>
</g>
<path d="M70.2571 412.555L63.8881 408.914C63.6067 408.703 63.3841 408.423 63.2415 408.102C63.099 407.78 63.0414 407.427 63.0741 407.077V364.65C63.1373 363.512 63.5184 362.414 64.1741 361.482L70.4001 365.134C69.7658 366.064 69.4074 367.155 69.3661 368.28V410.696C69.3296 411.058 69.3934 411.423 69.5506 411.751C69.7078 412.078 69.9522 412.357 70.2571 412.555Z" fill="#FF725E"/>
<path opacity="0.55" d="M70.2571 412.555L63.8881 408.914C63.6067 408.703 63.3841 408.423 63.2415 408.102C63.099 407.78 63.0414 407.427 63.0741 407.077V364.65C63.1373 363.512 63.5184 362.414 64.1741 361.482L70.4001 365.134C69.7658 366.064 69.4074 367.155 69.3661 368.28V410.696C69.3296 411.058 69.3934 411.423 69.5506 411.751C69.7078 412.078 69.9522 412.357 70.2571 412.555Z" fill="white"/>
<path d="M72.2809 363.286L161.139 311.982C162.723 311.058 164.021 311.806 164.021 313.643V356.169C163.964 357.17 163.673 358.143 163.17 359.011C162.668 359.878 161.968 360.616 161.128 361.163L72.2809 412.368C70.6859 413.281 69.3989 412.533 69.3989 410.696V368.269C69.4517 367.27 69.7404 366.297 70.2414 365.431C70.7423 364.565 71.4412 363.83 72.2809 363.286Z" fill="#FF725E"/>
<path opacity="0.7" d="M72.2809 363.286L161.139 311.982C162.723 311.058 164.021 311.806 164.021 313.643V356.169C163.964 357.17 163.673 358.143 163.17 359.011C162.668 359.878 161.968 360.616 161.128 361.163L72.2809 412.368C70.6859 413.281 69.3989 412.533 69.3989 410.696V368.269C69.4517 367.27 69.7404 366.297 70.2414 365.431C70.7423 364.565 71.4412 363.83 72.2809 363.286Z" fill="white"/>
<path d="M156.805 308.154L163.075 311.729C162.756 311.61 162.413 311.571 162.076 311.615C161.738 311.659 161.417 311.785 161.139 311.982L72.281 363.286C71.5181 363.746 70.8738 364.379 70.4 365.134L64.064 361.482C64.5308 360.75 65.164 360.14 65.912 359.7L154.77 308.396C155.158 308.157 155.602 308.024 156.057 308.011C156.314 307.995 156.572 308.044 156.805 308.154Z" fill="#FF725E"/>
<path opacity="0.85" d="M156.805 308.154L163.075 311.729C162.756 311.61 162.413 311.571 162.076 311.615C161.738 311.659 161.417 311.785 161.139 311.982L72.281 363.286C71.5181 363.746 70.8738 364.379 70.4 365.134L64.064 361.482C64.5308 360.75 65.164 360.14 65.912 359.7L154.77 308.396C155.158 308.157 155.602 308.024 156.057 308.011C156.314 307.995 156.572 308.044 156.805 308.154Z" fill="white"/>
<path d="M79.2 367.202L154.154 323.862C154.913 323.422 155.54 323.73 155.54 324.566C155.504 325.029 155.36 325.477 155.119 325.875C154.878 326.272 154.548 326.607 154.154 326.854L79.2 370.194C78.43 370.634 77.814 370.326 77.814 369.501C77.8474 369.035 77.9904 368.585 78.2313 368.185C78.4721 367.785 78.8041 367.449 79.2 367.202Z" fill="#FF725E"/>
<path d="M79.2 397.496L154.187 354.2C154.946 353.76 155.573 354.079 155.573 354.904C155.537 355.367 155.393 355.815 155.152 356.213C154.911 356.61 154.581 356.946 154.187 357.192L79.2 400.488C78.43 400.928 77.814 400.609 77.814 399.784C77.8473 399.32 77.9904 398.871 78.2314 398.473C78.4723 398.075 78.8043 397.74 79.2 397.496Z" fill="#FF725E"/>
<path d="M79.2 382.349L154.154 339.009C154.913 338.569 155.54 338.877 155.54 339.702C155.504 340.167 155.36 340.617 155.119 341.016C154.879 341.415 154.548 341.752 154.154 342.001L79.2 385.341C78.43 385.781 77.814 385.473 77.814 384.648C77.8456 384.182 77.9879 383.731 78.2289 383.331C78.47 382.931 78.8029 382.594 79.2 382.349Z" fill="#FF725E"/>
<path d="M79.2 389.917L154.154 346.577C154.913 346.137 155.54 346.445 155.54 347.27C155.506 347.735 155.362 348.186 155.122 348.585C154.881 348.984 154.549 349.321 154.154 349.569L79.2 392.909C78.43 393.349 77.814 393.041 77.814 392.216C77.8474 391.751 77.9904 391.3 78.2313 390.9C78.4721 390.501 78.8041 390.164 79.2 389.917Z" fill="#FF725E"/>
<path d="M79.2 374.781L154.154 331.43C154.913 330.99 155.54 331.309 155.54 332.134C155.504 332.597 155.36 333.045 155.119 333.443C154.878 333.84 154.548 334.176 154.154 334.422L79.2 377.773C78.43 378.213 77.814 377.894 77.814 377.069C77.8473 376.605 77.9904 376.156 78.2314 375.758C78.4723 375.36 78.8043 375.025 79.2 374.781Z" fill="#FF725E"/>
<path d="M69.883 347.6L63.8 344.201C63.5178 343.991 63.2946 343.711 63.152 343.389C63.0094 343.067 62.9522 342.714 62.986 342.364V229.482C63.045 228.343 63.4265 227.244 64.086 226.314L69.982 229.724C69.3822 230.635 69.0436 231.692 69.003 232.782V345.785C68.9736 346.139 69.0398 346.494 69.1946 346.813C69.3494 347.132 69.5872 347.404 69.883 347.6Z" fill="#263238"/>
<path d="M162.283 176.11C161.749 176.062 161.215 176.194 160.765 176.484L71.9069 227.788C71.1291 228.274 70.4771 228.938 70.0039 229.724L64.0969 226.314C64.5562 225.576 65.1767 224.952 65.9119 224.488L154.77 173.195C155.156 172.95 155.6 172.813 156.057 172.799C156.318 172.797 156.575 172.861 156.805 172.986L162.283 176.11Z" fill="#37474F"/>
<path d="M71.9069 227.777L160.765 176.484C162.349 175.56 163.647 176.308 163.647 178.145V291.247C163.591 292.247 163.3 293.22 162.8 294.087C162.299 294.954 161.602 295.692 160.765 296.241L71.9069 347.446C70.3119 348.359 69.0249 347.622 69.0249 345.785V232.771C69.0795 231.771 69.3689 230.798 69.8696 229.93C70.3702 229.062 71.0682 228.325 71.9069 227.777Z" fill="#455A64"/>
<path d="M76.461 231.286L156.2 185.24C157.63 184.415 158.785 185.086 158.785 186.736V288.2C158.738 289.098 158.48 289.971 158.031 290.749C157.581 291.528 156.954 292.188 156.2 292.677L76.461 338.69C75.031 339.515 73.876 338.844 73.876 337.194V235.763C73.9243 234.866 74.1835 233.993 74.6327 233.215C75.0819 232.437 75.7083 231.776 76.461 231.286Z" fill="#D0D0D0"/>
<mask id="mask1_1863_2" style="mask-type:luminance" maskUnits="userSpaceOnUse" x="73" y="184" width="86" height="156">
<path d="M76.461 231.286L156.2 185.24C157.63 184.415 158.785 185.086 158.785 186.736V288.2C158.738 289.098 158.48 289.971 158.031 290.749C157.581 291.528 156.954 292.188 156.2 292.677L76.461 338.69C75.031 339.515 73.876 338.844 73.876 337.194V235.763C73.9243 234.866 74.1835 233.993 74.6327 233.215C75.0819 232.437 75.7083 231.776 76.461 231.286Z" fill="white"/>
</mask>
<g mask="url(#mask1_1863_2)">
<path d="M140.492 273.626C134.266 265.541 123.992 266.685 123.992 266.685C124.898 273.713 126.607 280.615 129.085 287.255C129.085 287.255 148.071 314.898 151.855 317.483L157.102 300.07C157.102 300.07 144.529 278.884 140.492 273.626Z" fill="#FFBDA7"/>
<path d="M121.77 267.08C124.461 266.216 127.285 265.843 130.108 265.98C134.585 266.266 140.096 271.337 143.385 276.617C147.785 283.679 150.711 288.717 150.711 288.717C150.711 288.717 149.248 297.011 137.929 300.586L127.457 286.924L121.77 267.08Z" fill="#FF725E"/>
<path opacity="0.5" d="M121.77 267.08C124.461 266.216 127.285 265.843 130.108 265.98C134.585 266.266 140.096 271.337 143.385 276.617C147.785 283.679 150.711 288.717 150.711 288.717C150.711 288.717 149.248 297.011 137.929 300.586L127.457 286.924L121.77 267.08Z" fill="black"/>
<path d="M92.8839 299.487L91.4209 322.587L92.5979 365.806C107.151 370.767 125.664 366.4 141.196 349.141C141.196 349.141 140.558 291.743 138.534 281.942C136.103 270.139 130.306 263.682 118.558 267.884L107.041 272.482L95.1939 277.201C95.1939 277.201 92.8839 295.021 92.8839 299.487Z" fill="#FF725E"/>
<path opacity="0.4" d="M92.8839 299.487L91.4209 322.587L92.5979 365.806C107.151 370.767 125.664 366.4 141.196 349.141C141.196 349.141 140.558 291.743 138.534 281.942C136.103 270.139 130.306 263.682 118.558 267.884L107.041 272.482L95.1939 277.201C95.1939 277.201 92.8839 295.021 92.8839 299.487Z" fill="black"/>
<path d="M108.086 235.071C108.086 244.861 114.961 250.955 123.486 248.678C132.011 246.401 138.886 236.633 138.886 226.843C138.886 217.053 131.571 217.053 123.09 219.33C114.609 221.607 108.086 225.281 108.086 235.071Z" fill="#263238"/>
<path d="M105.6 255.552L103.026 252.571L104.071 248.281L101.871 231.33C100.976 231.181 100.058 231.323 99.2497 231.734C98.4418 232.146 97.7874 232.807 97.3829 233.618C93.6979 240.306 102.289 260.865 103.026 262.295C103.297 262.812 103.694 263.253 104.181 263.576C104.667 263.899 105.227 264.094 105.809 264.143L105.6 255.552Z" fill="#263238"/>
<path d="M105.303 247.94C104.456 248.765 103.235 247.192 102.179 246.202C101.123 245.212 97.6908 244.398 95.9748 249.029C94.2588 253.66 97.4818 258.5 100.188 258.753C104.863 259.193 105.556 255.552 105.556 255.552L105.721 275.462C113.542 283.767 131.56 279.708 121.121 270.303V264.396C123.263 264.21 125.375 263.771 127.413 263.087C130.845 261.547 133.001 257.851 134.013 253.275C135.685 245.949 136.323 240.218 134.904 227.051C133.342 212.619 118.404 216.469 110.308 224.499C102.212 232.529 105.303 247.94 105.303 247.94Z" fill="#FFBDA7"/>
<path d="M105.149 249.337C103.719 248.963 102.784 246.675 102.179 246.202C101.574 245.729 101.673 244.519 101.651 243.914C101.703 242.428 101.666 240.941 101.541 239.459C101.235 237.9 101.066 236.318 101.035 234.729C101.035 231.429 101.112 226.831 102.465 223.784C104.962 218.163 108.856 216.744 113.553 215.237C117.161 214.137 121.11 214.247 124.652 212.905C127.549 211.607 130.202 209.821 132.495 207.625C133.364 206.888 134.574 206.118 135.531 206.723C135.984 207.076 136.296 207.58 136.411 208.142C136.935 209.835 137.096 211.619 136.884 213.378C137.293 213.408 137.704 213.344 138.085 213.192C138.467 213.039 138.808 212.802 139.084 212.498C139.249 212.3 139.425 212.069 139.678 212.069C139.931 212.069 140.206 212.476 140.261 212.817C140.468 214.294 140.337 215.799 139.876 217.217C137.852 224.301 130.812 228.591 123.629 230.241C119.608 231.342 115.387 231.492 111.298 230.681C110.806 230.577 110.294 230.668 109.868 230.934C109.503 231.212 109.234 231.596 109.098 232.034C108.317 234.047 109.098 238.161 108.9 240.933C108.603 244.31 108.086 247.17 106.81 248.765C106.636 249.032 106.378 249.233 106.078 249.336C105.777 249.44 105.45 249.44 105.149 249.337Z" fill="#263238"/>
<path d="M101.42 231.616L96.261 229.79C96.987 227.887 98.736 226.754 100.166 227.26C101.596 227.766 102.157 229.702 101.42 231.616Z" fill="#263238"/>
<path d="M121.077 264.396C121.077 264.396 113.377 264.671 110.748 263.736C109.142 263.176 107.814 262.018 107.041 260.502C107.417 262.103 108.133 263.604 109.142 264.902C111.1 267.267 121.077 266.728 121.077 266.728V264.396Z" fill="#F0997A"/>
<path d="M119.24 243.497C119.239 243.975 119.092 244.442 118.819 244.835C118.546 245.228 118.159 245.529 117.711 245.697C116.853 245.917 116.171 245.279 116.171 244.256C116.174 243.776 116.323 243.309 116.598 242.916C116.873 242.523 117.261 242.223 117.711 242.056C118.558 241.836 119.24 242.474 119.24 243.497Z" fill="#263238"/>
<path d="M116.776 236.82L113.476 239.79C113.26 239.238 113.218 238.633 113.356 238.057C113.494 237.481 113.804 236.961 114.246 236.567C114.403 236.367 114.607 236.211 114.84 236.112C115.074 236.012 115.328 235.973 115.58 235.999C115.833 236.024 116.074 236.112 116.283 236.256C116.492 236.399 116.662 236.593 116.776 236.82Z" fill="#263238"/>
<path d="M120.384 253.88L123.893 254.463C123.788 255.019 123.491 255.52 123.055 255.879C122.619 256.239 122.071 256.435 121.506 256.432C120.549 256.3 120.043 255.134 120.384 253.88Z" fill="#F0997A"/>
<path d="M133.32 233.937L130.328 232.1C130.933 231 132.099 230.428 132.924 231C133.328 231.363 133.589 231.858 133.662 232.396C133.734 232.934 133.613 233.48 133.32 233.937Z" fill="#263238"/>
<path d="M132.671 239.382C132.668 239.862 132.519 240.329 132.243 240.722C131.968 241.115 131.58 241.415 131.131 241.582C130.284 241.813 129.602 241.164 129.602 240.152C129.593 239.665 129.735 239.186 130.009 238.782C130.283 238.379 130.675 238.07 131.131 237.897C132 237.721 132.671 238.359 132.671 239.382Z" fill="#263238"/>
<path d="M124.421 239.47L124.597 250.173L130.097 247.291L124.421 239.47Z" fill="#F0997A"/>
<path d="M74.6679 344.157C79.5079 292.523 86.0859 279.906 95.5679 278.608C99.2859 281.38 100.463 293.238 97.8339 305.536C97.8339 305.536 92.4659 333.377 91.9929 343.398C91.5749 352.198 89.1439 362.978 90.2219 369.908C90.4199 371.129 91.0579 374.693 91.7179 375.518C93.9179 378.224 93.3789 379.478 95.0179 381.59C96.3379 383.24 98.5269 384.23 98.3179 384.89C97.9989 385.682 96.5579 386.705 94.2699 385.649C92.9393 384.936 91.8057 383.904 90.9699 382.646C90.9699 382.646 91.2119 385.946 94.2699 390.962C97.1409 395.769 97.9879 400.785 89.9909 399.861C85.4699 399.344 82.1479 398.068 79.2219 386.408C78.4079 383.185 77.7479 377.333 77.1099 373.12C75.2289 360.965 73.9969 351.263 74.6679 344.157Z" fill="#FFBDA7"/>
<path d="M95.6999 277.035C95.6999 277.035 86.1189 278.916 83.4459 287.826C81.2459 295.35 79.4199 302.126 77.0439 317.922C79.5389 320.204 82.6341 321.725 85.9649 322.306C89.2956 322.886 92.723 322.503 95.8429 321.2C95.8429 321.2 100.903 300.597 101.409 291.335C101.959 281.193 95.6999 277.035 95.6999 277.035Z" fill="#FF725E"/>
<path opacity="0.5" d="M95.6999 277.035C95.6999 277.035 86.1189 278.916 83.4459 287.826C81.2459 295.35 79.4199 302.126 77.0439 317.922C79.5389 320.204 82.6341 321.725 85.9649 322.306C89.2956 322.886 92.723 322.503 95.8429 321.2C95.8429 321.2 100.903 300.597 101.409 291.335C101.959 281.193 95.6999 277.035 95.6999 277.035Z" fill="black"/>
</g>
<path d="M190.85 341.979L184.481 338.338C184.201 338.125 183.98 337.845 183.837 337.524C183.695 337.203 183.636 336.851 183.667 336.501V294.074C183.73 292.936 184.111 291.838 184.767 290.906L191.103 294.558C190.472 295.489 190.117 296.58 190.08 297.704V340.12C190.031 340.47 190.076 340.827 190.211 341.154C190.347 341.481 190.567 341.766 190.85 341.979Z" fill="#FF725E"/>
<path opacity="0.55" d="M190.85 341.979L184.481 338.338C184.201 338.125 183.98 337.845 183.837 337.524C183.695 337.203 183.636 336.851 183.667 336.501V294.074C183.73 292.936 184.111 291.838 184.767 290.906L191.103 294.558C190.472 295.489 190.117 296.58 190.08 297.704V340.12C190.031 340.47 190.076 340.827 190.211 341.154C190.347 341.481 190.567 341.766 190.85 341.979Z" fill="white"/>
<path d="M192.885 292.71L281.732 241.406C283.327 240.482 284.614 241.23 284.614 243.067V285.593C284.561 286.592 284.272 287.565 283.772 288.431C283.271 289.297 282.572 290.032 281.732 290.576L192.885 341.792C191.29 342.705 190.003 341.957 190.003 340.12V297.693C190.056 296.694 190.344 295.721 190.845 294.855C191.346 293.989 192.045 293.254 192.885 292.71Z" fill="#FF725E"/>
<path opacity="0.7" d="M192.885 292.71L281.732 241.406C283.327 240.482 284.614 241.23 284.614 243.067V285.593C284.561 286.592 284.272 287.565 283.772 288.431C283.271 289.297 282.572 290.032 281.732 290.576L192.885 341.792C191.29 342.705 190.003 341.957 190.003 340.12V297.693C190.056 296.694 190.344 295.721 190.845 294.855C191.346 293.989 192.045 293.254 192.885 292.71Z" fill="white"/>
<path d="M277.398 237.6L283.668 241.175C283.349 241.057 283.006 241.018 282.669 241.062C282.331 241.106 282.01 241.232 281.732 241.428L192.874 292.71C192.123 293.175 191.49 293.807 191.026 294.558L184.69 290.906C185.142 290.162 185.764 289.537 186.505 289.08L275.363 237.776C275.755 237.537 276.202 237.404 276.661 237.391C276.921 237.394 277.175 237.466 277.398 237.6Z" fill="#FF725E"/>
<path opacity="0.85" d="M277.398 237.6L283.668 241.175C283.349 241.057 283.006 241.018 282.669 241.062C282.331 241.106 282.01 241.232 281.732 241.428L192.874 292.71C192.123 293.175 191.49 293.807 191.026 294.558L184.69 290.906C185.142 290.162 185.764 289.537 186.505 289.08L275.363 237.776C275.755 237.537 276.202 237.404 276.661 237.391C276.921 237.394 277.175 237.466 277.398 237.6Z" fill="white"/>
<path d="M199.826 296.626L274.791 253.286C275.55 252.846 276.166 253.154 276.166 253.979C276.134 254.443 275.992 254.893 275.753 255.293C275.515 255.692 275.185 256.03 274.791 256.278L199.826 299.618C199.067 300.058 198.451 299.75 198.451 298.925C198.485 298.461 198.627 298.011 198.866 297.612C199.104 297.213 199.433 296.875 199.826 296.626Z" fill="#FF725E"/>
<path d="M199.826 326.92L274.791 283.569C275.55 283.129 276.166 283.448 276.166 284.273C276.132 284.735 275.99 285.183 275.751 285.581C275.512 285.978 275.183 286.314 274.791 286.561L199.826 329.912C199.067 330.352 198.451 330.033 198.451 329.208C198.485 328.746 198.627 328.298 198.866 327.9C199.105 327.503 199.434 327.167 199.826 326.92Z" fill="#FF725E"/>
<path d="M199.826 311.773L274.791 268.4C275.55 267.96 276.166 268.268 276.166 269.093C276.132 269.557 275.99 270.006 275.751 270.405C275.512 270.805 275.184 271.142 274.791 271.392L199.826 314.732C199.067 315.172 198.451 314.864 198.451 314.028C198.49 313.571 198.634 313.13 198.873 312.738C199.111 312.347 199.438 312.016 199.826 311.773Z" fill="#FF725E"/>
<path d="M199.826 319.341L274.791 276.001C275.55 275.561 276.166 275.869 276.166 276.694C276.134 277.158 275.992 277.608 275.753 278.008C275.515 278.407 275.185 278.745 274.791 278.993L199.826 322.3C199.067 322.74 198.451 322.432 198.451 321.607C198.49 321.149 198.634 320.706 198.873 320.312C199.111 319.919 199.437 319.587 199.826 319.341Z" fill="#FF725E"/>
<path d="M199.826 304.205L274.791 260.854C275.55 260.414 276.166 260.733 276.166 261.558C276.132 262.02 275.99 262.468 275.751 262.866C275.512 263.263 275.183 263.599 274.791 263.846L199.826 307.197C199.067 307.637 198.451 307.318 198.451 306.493C198.485 306.03 198.627 305.582 198.866 305.185C199.105 304.787 199.434 304.452 199.826 304.205Z" fill="#FF725E"/>
<path d="M190.729 278.41L184.69 275C184.408 274.79 184.185 274.51 184.042 274.188C183.9 273.867 183.842 273.513 183.876 273.163V160.248C183.935 159.109 184.317 158.01 184.976 157.08L190.872 160.49C190.272 161.401 189.934 162.458 189.893 163.548V276.551C189.851 276.908 189.906 277.269 190.054 277.596C190.201 277.924 190.434 278.205 190.729 278.41Z" fill="#263238"/>
<path d="M283.129 106.876C282.596 106.828 282.061 106.96 281.611 107.25L192.753 158.554C191.975 159.041 191.323 159.704 190.85 160.49L184.943 157.08C185.402 156.342 186.023 155.718 186.758 155.254L275.616 103.961C276.002 103.716 276.446 103.579 276.903 103.565C277.164 103.563 277.422 103.627 277.651 103.752L283.129 106.876Z" fill="#37474F"/>
<path d="M192.753 158.554L281.6 107.25C283.195 106.337 284.482 107.074 284.482 108.922V222.024C284.429 223.023 284.141 223.996 283.64 224.862C283.139 225.728 282.44 226.463 281.6 227.007L192.742 278.212C191.158 279.136 189.86 278.388 189.86 276.551V163.548C189.917 162.547 190.208 161.573 190.711 160.706C191.213 159.838 191.913 159.101 192.753 158.554Z" fill="#455A64"/>
<path d="M197.318 162.052L277.068 116.006C278.498 115.181 279.653 115.852 279.653 117.502V219.021C279.605 219.918 279.345 220.791 278.896 221.569C278.447 222.347 277.821 223.007 277.068 223.498L197.318 269.5C195.888 270.325 194.733 269.654 194.733 268.004V166.54C194.781 165.641 195.04 164.767 195.49 163.987C195.939 163.207 196.565 162.544 197.318 162.052Z" fill="#D0D0D0"/>
<mask id="mask2_1863_2" style="mask-type:luminance" maskUnits="userSpaceOnUse" x="194" y="115" width="86" height="155">
<path d="M197.318 162.052L277.068 116.006C278.498 115.181 279.653 115.852 279.653 117.502V219.021C279.605 219.918 279.345 220.791 278.896 221.569C278.447 222.347 277.821 223.007 277.068 223.498L197.318 269.5C195.888 270.325 194.733 269.654 194.733 268.004V166.529C194.782 165.632 195.042 164.759 195.491 163.982C195.94 163.204 196.566 162.543 197.318 162.052Z" fill="white"/>
</mask>
<g mask="url(#mask2_1863_2)">
<path d="M264.132 252.615C252.329 211.002 252.197 204.215 252.901 199.309C263.615 196.724 268.301 204.072 271.161 216.458C272.536 222.409 276.496 245.058 278.949 254.529C281.149 262.834 283.811 271.744 287.045 277.629C287.307 278.127 287.685 278.556 288.146 278.879C288.607 279.202 289.138 279.411 289.696 279.488C292.699 279.917 293.59 281.6 296.032 282.854C297.946 283.822 299.332 283.58 299.277 284.251C299.135 284.997 298.77 285.683 298.23 286.217C297.69 286.752 297 287.109 296.252 287.243C295.049 287.373 293.832 287.294 292.655 287.012C294.103 288.908 295.876 290.532 297.891 291.808C302.599 294.855 304.062 299.508 295.911 301.807C292.71 302.698 286.748 301.686 279.653 292.105C277.29 288.675 275.33 284.984 273.812 281.105C269.775 270.886 266.486 260.931 264.132 252.615Z" fill="#FFA8A7"/>
<path d="M235.477 204.094C235.477 204.094 223.795 208.241 220.781 209.66C228.481 218.9 219.263 244.112 219.263 244.112L224.18 261.096L261.14 248.149C267.256 232.749 268.455 225.764 267.916 221.54C266.695 211.97 260.975 205.689 252.901 199.309L235.477 204.094Z" fill="#FF725E"/>
<path d="M263.23 193.842L243.958 199.892C241.02 200.815 237.906 201.034 234.867 200.531C231.829 200.028 228.952 198.818 226.467 196.998C223.983 195.177 221.962 192.798 220.567 190.053C219.172 187.307 218.443 184.271 218.438 181.192V177.1C218.438 163.284 228.14 149.49 240.108 146.3L241.725 145.871C253.693 142.659 263.395 151.261 263.395 165.077V168.938C263.395 181.302 263.23 193.842 263.23 193.842Z" fill="#37474F"/>
<path d="M225.896 152.031C224.708 150.865 222.717 151.305 221.441 153.01L223.817 155.364C223.254 155.297 222.685 155.408 222.189 155.683C221.328 156.166 220.634 156.899 220.198 157.784C219.762 158.67 219.605 159.667 219.747 160.644L225.918 157.487C225.886 157.345 225.845 157.206 225.797 157.069C226.963 155.375 227.04 153.164 225.896 152.031Z" fill="#37474F"/>
<path d="M254.958 156.64C257.158 158.081 260.238 160.666 259.952 175.197C259.71 187.506 256.267 191.455 254.54 192.797C252.813 194.139 249.48 194.491 246.246 194.733V202.499C246.246 202.499 251.845 207.801 251.559 211.299C251.273 214.797 246.246 217.668 238.656 213.015C235.984 211.233 233.731 208.891 232.056 206.151L232.122 189.541C232.122 189.541 230.219 192.181 226.996 189.783C225.635 188.704 224.727 187.156 224.45 185.442C224.173 183.728 224.548 181.972 225.5 180.521C225.917 179.874 226.467 179.325 227.114 178.909C227.761 178.494 228.49 178.222 229.251 178.112C229.697 178.091 230.143 178.161 230.561 178.317C230.98 178.474 231.362 178.713 231.685 179.022C232.008 179.331 232.265 179.701 232.44 180.112C232.615 180.523 232.705 180.965 232.705 181.412V182.325C232.705 182.325 235.059 182.688 235.213 178.09C235.301 175.538 238.348 171.49 241.329 168.938C246.4 164.571 252.857 164.516 254.958 156.64Z" fill="#FFA8A7"/>
<path d="M246.763 174.438C246.783 174.861 246.672 175.28 246.445 175.638C246.219 175.996 245.888 176.276 245.498 176.44C244.761 176.682 244.134 176.165 244.101 175.34C244.081 174.915 244.191 174.495 244.417 174.135C244.644 173.775 244.975 173.493 245.366 173.327C246.092 173.052 246.73 173.558 246.763 174.438Z" fill="#263238"/>
<path d="M247.654 184.987L251.581 185.383C251.484 186.003 251.176 186.572 250.709 186.992C250.242 187.413 249.645 187.66 249.018 187.693C247.94 187.583 247.324 186.373 247.654 184.987Z" fill="#F28F8F"/>
<path d="M258.313 167.75L255.618 166.309C256.102 165.286 257.114 164.78 257.818 165.209C258.202 165.495 258.465 165.914 258.556 166.384C258.648 166.853 258.561 167.34 258.313 167.75Z" fill="#263238"/>
<path d="M242.946 171.743L245.641 168.85C245.146 168.102 244.145 168.124 243.441 168.927C243.073 169.285 242.827 169.749 242.738 170.255C242.649 170.76 242.722 171.281 242.946 171.743Z" fill="#263238"/>
<path d="M257.994 172.139C258.017 172.564 257.908 172.986 257.682 173.346C257.455 173.707 257.122 173.988 256.729 174.152C255.992 174.394 255.365 173.877 255.332 173.052C255.31 172.627 255.42 172.205 255.646 171.845C255.873 171.485 256.205 171.203 256.597 171.039C257.323 170.753 257.961 171.27 257.994 172.139Z" fill="#263238"/>
<path d="M251.581 172.579L251.79 181.797L256.014 179.157L251.581 172.579Z" fill="#F28F8F"/>
<path d="M246.246 194.7C242.836 195.096 235.818 194.7 234.718 191.741C235.103 193.142 235.977 194.36 237.182 195.173C239.283 196.68 246.246 197.153 246.246 197.153V194.7Z" fill="#F28F8F"/>
<path d="M200.651 276.166C204.292 236.401 206.371 213.994 220.781 209.66C222.926 210.441 224.917 215.16 225.291 218.581C225.94 224.367 225.159 234.355 221.573 239.481C221.573 239.481 217.052 263.307 215.303 277.024C214.093 286.517 211.486 300.19 212.091 307.89C212.377 309.281 212.988 310.585 213.873 311.696L216.315 315.755C216.796 316.606 217.348 317.416 217.965 318.175C218.526 318.824 219.175 319.385 219.78 319.99C220.231 320.43 220.671 321.09 220.297 321.618C220.152 321.789 219.961 321.914 219.747 321.981C219.03 322.252 218.261 322.355 217.498 322.282C216.736 322.21 216 321.964 215.347 321.563C214.533 321.057 213.873 320.32 213.026 319.88C213.096 321.299 213.499 322.682 214.203 323.917C214.687 324.918 215.171 325.93 215.71 326.92C216.291 327.911 216.806 328.94 217.25 330C217.707 331.06 217.819 332.238 217.569 333.366C217.289 334.226 216.774 334.991 216.082 335.575C215.39 336.158 214.548 336.536 213.653 336.666C211.854 336.897 210.028 336.538 208.45 335.643C203.027 332.838 201.212 327.206 200.53 321.552C199.868 316.849 199.5 312.11 199.43 307.362C199.639 294.8 199.947 283.91 200.651 276.166Z" fill="#FFA8A7"/>
<path d="M232.1 205.007C229.753 205.509 227.516 206.433 225.5 207.735C225.5 207.735 230.692 217.767 239.602 219.219C248.512 220.671 249.15 214.676 249.15 214.676C243.573 214.907 237.941 212.487 232.1 205.007Z" fill="#455A64"/>
<path d="M246.246 200.981V202.499C250.03 207.427 251.185 211.684 249.095 214.676C249.095 214.676 255.332 216.799 256.432 212.223C257.532 207.647 249.612 200.233 249.612 200.233C248.459 200.317 247.325 200.569 246.246 200.981Z" fill="#455A64"/>
</g>
<path d="M165 81.6423L158.4 85.4593C158.434 85.1671 158.453 84.8734 158.455 84.5793V82.6763C158.455 79.2663 156.068 77.8913 153.12 79.5853C151.847 80.3646 150.758 81.4118 149.93 82.6543C149.457 78.3643 146.091 76.7803 142.021 79.1343C139.694 80.6462 137.758 82.687 136.37 85.09C134.982 87.493 134.182 90.1901 134.035 92.9613V95.8213C134.007 96.9578 134.237 98.0858 134.706 99.1213L129.206 102.289C128.346 102.853 127.629 103.61 127.114 104.5C126.598 105.39 126.297 106.388 126.236 107.415C126.236 109.307 127.567 110.077 129.206 109.131L165 88.4843C165.858 87.9192 166.573 87.1615 167.086 86.2715C167.6 85.3816 167.899 84.384 167.959 83.3583C167.97 81.4663 166.65 80.7073 165 81.6423Z" fill="#D0D0D0"/>
<path d="M121.374 64.1082L117.7 65.5052V57.4862C117.7 51.1281 112.629 49.5992 107.129 52.7782C101.629 55.9682 97.1521 63.7012 97.1521 70.0592V71.2252C96.3769 70.9824 95.5563 70.9206 94.7535 71.0445C93.9507 71.1685 93.187 71.4749 92.5211 71.9402C90.4322 73.3019 88.694 75.1372 87.4478 77.297C86.2016 79.4568 85.4826 81.8802 85.3491 84.3701V84.8982L80.3001 87.8241C78.924 88.7206 77.7786 89.9289 76.9568 91.3508C76.135 92.7727 75.6599 94.3683 75.5701 96.0081C75.5701 99.0222 77.6931 100.243 80.3001 98.7362L121.374 75.0201C122.749 74.1231 123.892 72.9145 124.712 71.4925C125.532 70.0705 126.005 68.4752 126.093 66.8362C126.093 63.8002 123.981 62.6012 121.374 64.1082Z" fill="#D0D0D0"/>
<path d="M350.559 293.7C349.008 292.424 346.621 292.16 343.761 293.227C338.03 295.35 332.552 301.961 331.518 307.978C331.001 310.992 331.705 313.291 333.245 314.578L438.35 408.76C440.484 410.773 443.938 411.268 448.14 409.717C456.148 406.747 463.815 397.518 465.245 389.092C466.004 384.692 464.882 381.392 462.495 379.643L350.559 293.7Z" fill="#FF725E"/>
<path opacity="0.15" d="M347.925 309.109C352.704 303.348 353.879 296.44 350.55 293.678C347.221 290.916 340.649 293.347 335.87 299.107C331.091 304.867 329.915 311.776 333.244 314.538C336.573 317.3 343.146 314.869 347.925 309.109Z" fill="black"/>
<path d="M310.981 270.941C309.132 271.739 307.499 272.964 306.214 274.514C304.93 276.065 304.03 277.897 303.589 279.862C303.392 280.558 303.384 281.293 303.566 281.993C303.748 282.693 304.113 283.332 304.623 283.844L336.666 310.431C337.262 310.841 337.956 311.085 338.677 311.138C339.399 311.19 340.121 311.048 340.769 310.728C342.618 309.929 344.253 308.704 345.539 307.154C346.826 305.604 347.728 303.772 348.172 301.807C348.37 301.109 348.377 300.37 348.193 299.668C348.01 298.966 347.641 298.326 347.127 297.814L315.095 271.238C314.498 270.826 313.802 270.582 313.079 270.53C312.355 270.477 311.631 270.619 310.981 270.941Z" fill="#263238"/>
<path opacity="0.1" d="M345.125 311.927L453.629 406.637C451.94 407.891 450.09 408.912 448.129 409.673C443.927 411.224 440.429 410.773 438.328 408.705L333.3 314.6C334.862 315.887 337.227 316.129 340.098 315.073C341.94 314.316 343.639 313.253 345.125 311.927Z" fill="black"/>
<path d="M367.169 168.3C367.169 167.2 367.081 166.1 366.993 165C366.905 163.9 366.861 162.855 366.751 161.799C366.751 161.084 366.619 160.391 366.531 159.676C366.344 157.839 366.08 156.013 365.772 154.286C365.64 153.494 365.497 152.691 365.343 151.899C365.189 151.107 365.035 150.403 364.881 149.699C364.419 147.697 363.924 145.739 363.363 143.858C363.066 142.967 362.791 142.076 362.494 141.207C362.435 141.077 362.391 140.94 362.362 140.8C362.043 139.931 361.735 139.095 361.405 138.27C361.075 137.445 360.657 136.378 360.217 135.476C359.909 134.805 359.623 134.156 359.271 133.507C359.072 133.021 358.837 132.55 358.567 132.099C358.295 131.52 357.994 130.954 357.665 130.405C357.601 130.275 357.527 130.15 357.445 130.031C357.181 129.547 356.873 129.052 356.587 128.568C356.301 128.084 356.18 127.952 355.993 127.644C354.608 125.451 353.044 123.376 351.318 121.44C351.021 121.11 350.724 120.78 350.46 120.461L349.723 119.691C349.426 119.372 349.096 119.075 348.766 118.745C347.879 117.846 346.938 117.001 345.95 116.215C345.488 115.819 345.004 115.445 344.509 115.115C344.014 114.785 343.541 114.389 343.024 114.015C342.248 113.445 341.44 112.92 340.604 112.442L339.955 112.035L339.823 111.925L324.654 103.015L324.434 102.883C317.038 98.7635 308.688 96.6654 300.223 96.8C287.628 96.8 273.427 100.925 258.368 109.593C206.668 139.458 164.747 212.069 164.747 271.788C164.747 301.576 175.164 322.52 192.005 332.288L192.159 332.365L207.35 341.253L207.526 341.352L207.746 341.473L207.988 341.605C208.714 342.023 209.44 342.408 210.188 342.771C210.936 343.134 212.058 343.64 213.004 344.003C213.846 344.372 214.709 344.692 215.589 344.96C216.036 345.121 216.491 345.257 216.953 345.367C217.44 345.552 217.94 345.699 218.449 345.807C218.948 345.958 219.455 346.082 219.967 346.181C220.328 346.287 220.695 346.368 221.067 346.423C221.716 346.555 222.42 346.698 223.102 346.786C223.252 346.833 223.407 346.859 223.564 346.863C224.367 346.995 225.192 347.116 225.995 347.193C239.943 348.656 256.157 344.718 273.515 334.708C325.215 304.854 367.18 232.21 367.18 172.513C367.246 171.127 367.213 169.719 367.169 168.3ZM196.537 309.21C194.372 301.223 193.306 292.977 193.369 284.702C193.369 228.118 234.773 156.387 283.778 128.095C290.934 123.858 298.656 120.661 306.713 118.602C310.576 117.647 314.537 117.148 318.516 117.117C320.52 117.108 322.521 117.262 324.5 117.579H324.665C334.697 129.448 336.171 148.456 336.171 158.62C336.171 215.204 294.811 286.935 245.784 315.216C233.31 322.41 221.32 326.216 211.035 326.216C208.9 326.231 206.773 325.961 204.71 325.413C200.906 320.628 198.124 315.113 196.537 309.21Z" fill="#FF725E"/>
<path opacity="0.15" d="M353.782 168.553C353.782 198.616 342.1 232.936 323.796 262.768C322.938 264.187 322.058 265.573 321.156 266.97C320.397 268.169 319.616 269.368 318.802 270.556C317.086 273.108 315.348 275.627 313.522 278.091C312.664 279.268 311.795 280.434 310.904 281.578C310.013 282.722 308.968 284.097 307.978 285.34C306.097 287.716 304.15 290.026 302.17 292.281C300.872 293.788 299.541 295.262 298.199 296.681C287.419 308.275 275.638 318.065 263.384 325.127C261.041 326.48 258.731 327.712 256.432 328.823C248.979 332.609 240.904 335.02 232.595 335.94C231.253 336.072 229.933 336.127 228.657 336.127C227.975 336.127 227.326 336.127 226.677 336.072H226.6C225.354 336.019 224.113 335.89 222.882 335.687C222.277 335.599 221.683 335.5 221.111 335.368C220.536 335.257 219.967 335.118 219.406 334.95C213.602 333.476 208.443 330.137 204.721 325.446C206.781 325.993 208.904 326.263 211.035 326.249C221.32 326.249 233.31 322.454 245.784 315.249C294.811 286.968 336.171 215.237 336.171 158.653C336.171 148.489 334.697 129.481 324.665 117.612H324.5C337.282 119.658 344.553 128.348 348.645 138.391C349.806 141.246 350.74 144.189 351.439 147.191C351.439 147.356 351.516 147.521 351.549 147.686C351.681 148.225 351.813 148.786 351.912 149.314C352.011 149.842 352.121 150.414 352.22 150.898C352.253 151.032 352.279 151.168 352.297 151.305C352.407 151.877 352.506 152.438 352.594 152.988C352.913 155.089 353.177 157.135 353.353 159.093C353.353 159.665 353.452 160.193 353.485 160.743C353.518 161.293 353.551 161.568 353.573 161.964C353.573 162.129 353.573 162.305 353.573 162.47C353.573 162.91 353.628 163.339 353.65 163.768C353.65 163.889 353.65 163.999 353.65 164.131C353.65 164.67 353.65 165.231 353.705 165.726C353.771 166.672 353.782 167.64 353.782 168.553Z" fill="black"/>
<path opacity="0.1" d="M206.052 340.56L191.994 332.299C175.153 322.454 164.736 301.499 164.736 271.799C164.736 245.157 173.085 215.974 186.901 189.178L202.906 198.385C189.079 225.181 179.916 254.067 179.916 280.698C179.916 309.815 189.827 330.473 206.052 340.56Z" fill="black"/>
<path opacity="0.4" d="M339.966 112.035L339.834 111.925L324.676 103.015H324.621L324.412 102.883C317.022 98.7688 308.68 96.6709 300.223 96.8001C287.639 96.8001 273.427 100.914 258.368 109.593C229.768 126.093 204.061 155.793 186.868 189.189L202.796 198.561L202.455 199.221C219.67 166.221 245.201 136.378 273.548 118.514C299.211 102.344 323.565 102.124 340.571 112.464L339.966 112.035Z" fill="white"/>
<path opacity="0.3" d="M345.631 163.757C345.631 220.341 304.227 292.072 255.222 320.364C248.067 324.601 240.344 327.798 232.287 329.857C228.425 330.813 224.463 331.311 220.484 331.342C216.396 331.394 212.333 330.701 208.494 329.296C202.411 324.192 198.737 316.8 196.537 309.21C194.372 301.223 193.306 292.977 193.369 284.702C193.369 228.118 234.773 156.387 283.778 128.095C290.934 123.858 298.656 120.661 306.713 118.602C310.576 117.647 314.537 117.148 318.516 117.117C322.603 117.066 326.665 117.755 330.506 119.152C336.6 124.256 340.274 131.659 342.474 139.249C344.631 147.238 345.693 155.482 345.631 163.757Z" fill="white"/>
<mask id="mask3_1863_2" style="mask-type:luminance" maskUnits="userSpaceOnUse" x="193" y="117" width="144" height="210">
<path d="M245.784 315.271C294.811 286.99 336.171 215.259 336.171 158.675C336.171 148.511 334.697 129.503 324.665 117.634H324.5C322.521 117.318 320.52 117.163 318.516 117.172C314.537 117.204 310.576 117.702 306.713 118.657C298.667 120.701 290.952 123.879 283.8 128.095C234.795 156.387 193.391 228.118 193.391 284.702C193.328 292.978 194.394 301.223 196.559 309.21C198.173 315.245 201.048 320.869 204.996 325.71C206.997 326.059 209.026 326.228 211.057 326.216C221.32 326.26 233.31 322.465 245.784 315.271Z" fill="white"/>
</mask>
<g mask="url(#mask3_1863_2)">
<path d="M322.421 81.7962C321.647 81.7351 320.875 81.9282 320.221 82.3462L189.651 157.718C188.511 158.433 187.554 159.405 186.857 160.556L178.2 155.551C178.868 154.463 179.779 153.544 180.862 152.867L311.388 77.5172C311.955 77.1564 312.608 76.955 313.28 76.9342C313.664 76.9311 314.042 77.0257 314.38 77.2092L322.421 81.7962Z" fill="#37474F"/>
<path d="M189.662 157.707L320.188 82.357C322.52 81.004 324.423 82.093 324.423 84.799V250.899C324.342 252.367 323.916 253.795 323.181 255.068C322.445 256.341 321.42 257.422 320.188 258.225L189.662 333.498C187.319 334.84 185.427 333.751 185.427 331.045V165C185.512 163.538 185.94 162.116 186.676 160.849C187.411 159.582 188.434 158.506 189.662 157.707Z" fill="#455A64"/>
<path d="M196.361 162.855L313.5 95.2161C315.59 94.0061 317.295 94.9851 317.295 97.4161V246.532C317.227 247.854 316.848 249.14 316.189 250.287C315.529 251.434 314.608 252.409 313.5 253.132L196.35 320.65C194.249 321.86 192.544 320.881 192.544 318.45V169.4C192.624 168.087 193.011 166.81 193.674 165.674C194.337 164.537 195.257 163.572 196.361 162.855Z" fill="#D0D0D0"/>
<mask id="mask4_1863_2" style="mask-type:luminance" maskUnits="userSpaceOnUse" x="192" y="94" width="126" height="228">
<path d="M196.361 162.855L313.5 95.2161C315.59 94.0061 317.295 94.9851 317.295 97.4161V246.532C317.227 247.854 316.848 249.14 316.189 250.287C315.529 251.434 314.608 252.409 313.5 253.132L196.35 320.65C194.249 321.86 192.544 320.881 192.544 318.45V169.4C192.624 168.087 193.011 166.81 193.674 165.674C194.337 164.537 195.257 163.572 196.361 162.855Z" fill="white"/>
</mask>
<g mask="url(#mask4_1863_2)">
<path d="M294.503 295.9C277.167 234.773 276.98 224.763 278.003 217.602C293.744 213.807 300.597 224.587 304.821 242.792C306.856 251.592 312.664 284.834 316.272 298.716C319.44 310.915 323.411 324.016 328.152 332.728C328.54 333.457 329.095 334.084 329.772 334.556C330.449 335.028 331.228 335.333 332.046 335.445C336.446 336.072 337.766 338.558 341.363 340.384C344.179 341.825 346.258 341.484 346.126 342.452C345.919 343.552 345.382 344.562 344.586 345.348C343.79 346.134 342.773 346.659 341.671 346.852C340.164 347.116 338.998 346.852 336.402 346.5C338.527 349.294 341.135 351.686 344.102 353.562C351.01 358.039 353.166 364.925 341.187 368.247C336.49 369.545 327.723 368.06 317.317 354.002C313.848 348.966 310.969 343.548 308.737 337.854C302.797 322.729 297.979 308.11 294.503 295.9Z" fill="#FFA8A7"/>
<path d="M252.428 224.609C252.428 224.609 235.268 230.703 230.824 232.793C242.066 246.356 228.624 283.393 228.624 283.393L235.851 308.352C228.074 321.926 289.036 296.725 290.147 289.322C299.123 266.629 300.872 256.443 300.047 250.239C298.265 236.181 289.861 226.952 278.047 217.58L252.428 224.609Z" fill="#FF725E"/>
<path d="M235.829 308.352C250.481 307.967 283.514 295.317 290.125 289.322C299.101 266.629 300.85 256.443 300.025 250.239" fill="#FF725E"/>
<path d="M293.183 209.539L264.88 218.427C260.561 219.784 255.984 220.106 251.519 219.366C247.053 218.626 242.824 216.845 239.174 214.167C235.524 211.49 232.556 207.991 230.509 203.954C228.462 199.916 227.394 195.454 227.392 190.927V185.02C227.392 164.725 241.637 144.452 259.215 139.744L261.591 139.106C279.191 134.387 293.425 147.026 293.425 167.332V172.997C293.425 191.125 293.183 209.539 293.183 209.539Z" fill="#37474F"/>
<path d="M238.337 148.126C236.61 146.421 233.673 147.026 231.792 149.567L235.29 153.021C234.461 152.933 233.625 153.098 232.892 153.494C231.626 154.204 230.607 155.281 229.968 156.584C229.33 157.886 229.102 159.352 229.317 160.787L238.381 156.156C238.333 155.943 238.271 155.734 238.194 155.529C239.921 153.043 240.02 149.787 238.337 148.126Z" fill="#37474F"/>
<path d="M281.028 154.913C284.328 157.014 288.794 160.809 288.365 182.16C288.013 200.244 282.953 206.052 280.423 208.01C277.893 209.968 272.987 210.496 268.235 210.859V222.266C268.235 222.266 276.452 230.065 276.045 235.125C275.638 240.185 268.235 244.475 257.092 237.644C253.18 235.022 249.881 231.585 247.423 227.568L247.522 203.159C247.522 203.159 244.728 207.053 239.987 203.533C237.987 201.947 236.653 199.67 236.246 197.151C235.839 194.631 236.389 192.05 237.787 189.915C238.396 188.966 239.203 188.16 240.152 187.55C241.101 186.941 242.17 186.543 243.287 186.384C243.946 186.344 244.606 186.442 245.225 186.67C245.845 186.898 246.41 187.253 246.886 187.711C247.361 188.169 247.737 188.72 247.988 189.331C248.24 189.941 248.362 190.597 248.347 191.257V192.599C248.347 192.599 251.812 193.138 252.043 186.384C252.175 182.633 256.652 176.704 261.03 172.942C268.488 166.551 277.948 166.474 281.028 154.913Z" fill="#FFA8A7"/>
<path d="M268.994 181.038C269.025 181.663 268.863 182.281 268.531 182.811C268.198 183.34 267.711 183.754 267.135 183.997C266.035 184.349 265.133 183.59 265.078 182.303C265.051 181.681 265.214 181.065 265.546 180.538C265.879 180.012 266.364 179.599 266.937 179.355C268.015 179.003 268.939 179.762 268.994 181.038Z" fill="#263238"/>
<path d="M270.303 196.548L276.067 197.131C275.583 199.166 273.867 200.684 272.316 200.519C270.765 200.354 269.819 198.583 270.303 196.548Z" fill="#F28F8F"/>
<path d="M286 171.226L282.04 169.114C282.766 167.607 284.24 166.914 285.34 167.453C286.44 167.992 286.682 169.719 286 171.226Z" fill="#263238"/>
<path d="M263.384 177.1L267.344 172.865C266.618 171.765 265.144 171.765 264.044 172.964C263.514 173.498 263.166 174.184 263.047 174.926C262.929 175.668 263.047 176.429 263.384 177.1Z" fill="#263238"/>
<path d="M285.494 177.672C285.525 178.296 285.363 178.915 285.031 179.444C284.698 179.974 284.211 180.388 283.635 180.631C282.535 180.972 281.633 180.224 281.578 178.937C281.551 178.315 281.714 177.699 282.046 177.172C282.379 176.645 282.864 176.233 283.437 175.989C284.515 175.637 285.439 176.396 285.494 177.672Z" fill="#263238"/>
<path d="M276.067 178.321L276.386 191.862L282.59 187.979L276.067 178.321Z" fill="#F28F8F"/>
<path d="M268.235 210.859C263.219 211.442 252.912 210.782 251.306 206.514C251.873 208.571 253.157 210.358 254.925 211.552C258.005 213.752 268.235 214.467 268.235 214.467V210.859Z" fill="#F28F8F"/>
<path d="M201.3 330.484C206.657 272.063 209.704 239.184 230.868 232.793C234.025 233.893 236.951 240.911 237.468 245.894C238.414 254.386 237.27 269.071 231.968 276.628C231.968 276.628 225.368 311.63 222.761 331.771C220.979 345.719 217.151 365.816 218.042 377.124C218.218 379.258 219.582 380.919 220.66 382.712L224.246 388.663C224.954 389.918 225.767 391.11 226.677 392.227C227.491 393.184 228.448 394.009 229.339 394.889C229.999 395.538 230.648 396.55 230.098 397.287C229.887 397.537 229.608 397.72 229.295 397.815C228.236 398.22 227.098 398.377 225.968 398.272C224.839 398.167 223.749 397.804 222.783 397.21C221.584 396.462 220.583 395.373 219.362 394.735C219.466 396.817 220.061 398.845 221.1 400.653C221.804 402.138 222.508 403.623 223.3 405.053C224.173 406.495 224.948 407.995 225.621 409.541C226.29 411.105 226.455 412.839 226.094 414.502C225.674 415.76 224.912 416.877 223.894 417.727C222.877 418.578 221.643 419.13 220.33 419.32C217.685 419.651 215.003 419.118 212.685 417.802C204.732 413.688 202.07 405.416 201.058 397.111C200.104 390.202 199.586 383.24 199.507 376.266C199.771 357.885 200.2 341.847 201.3 330.484Z" fill="#FFA8A7"/>
<path d="M247.423 225.951C243.958 226.685 240.656 228.042 237.677 229.955C237.677 229.955 245.311 244.695 258.401 246.829C271.491 248.963 272.415 240.152 272.415 240.152C264.308 240.493 256.025 236.951 247.423 225.951Z" fill="#455A64"/>
<path d="M268.235 220V222.2C273.79 229.438 275.495 235.686 272.415 240.086C272.415 240.086 281.589 243.199 283.195 236.489C284.801 229.779 273.185 218.889 273.185 218.889C271.489 219.016 269.822 219.39 268.235 220Z" fill="#455A64"/>
</g>
</g>
<path d="M419.749 272.8C427.372 271.953 430.298 274.186 433.136 280.5C435.842 286.528 444.136 304.7 443.718 308.935C443.3 313.17 425.964 331.199 425.964 331.199L421.025 325.193L431.739 307.175L423.214 288.992L419.749 272.8Z" fill="#FFA8A7"/>
<path d="M404.437 266.882L405.867 281.842L419.232 281.006L418.165 264.418L404.437 266.882Z" fill="#FFA8A7"/>
<path d="M387.31 238.128C387.195 237.425 387.195 236.708 387.31 236.005C387.478 235.096 387.841 234.233 388.375 233.478C388.908 232.722 389.6 232.092 390.401 231.629C391.202 231.167 392.094 230.884 393.015 230.8C393.936 230.716 394.865 230.833 395.736 231.143C395.478 229.77 395.687 228.349 396.331 227.109C396.976 225.868 398.017 224.88 399.289 224.301C400.278 223.926 401.332 223.754 402.388 223.796C403.445 223.837 404.482 224.092 405.438 224.543C406.586 224.946 407.541 225.767 408.111 226.842C408.788 225.709 409.782 224.799 410.971 224.225C412.159 223.651 413.49 223.439 414.799 223.615C416.107 223.79 417.335 224.346 418.33 225.213C419.326 226.08 420.045 227.22 420.398 228.492C422.433 228.041 425.304 228.943 426.217 230.967C427.251 233.266 425.986 236.115 426.459 238.524C426.767 240.086 427.438 241.549 427.724 243.133C428.016 244.897 428.181 246.68 428.219 248.468C428.516 255.849 411.367 260.645 411.719 265.716L402.6 254.595C402.6 254.133 401.302 252.978 401.016 252.593C400.466 251.856 399.982 251.075 399.476 250.305C397.905 248.057 395.721 246.308 393.184 245.267C391.392 244.442 389.84 243.174 388.674 241.582C387.963 240.549 387.497 239.368 387.31 238.128Z" fill="#263238"/>
<path d="M394.515 250.47C394.515 250.47 391.556 254.87 391.941 255.332C392.633 255.786 393.4 256.114 394.207 256.3L394.515 250.47Z" fill="#F28F8F"/>
<path d="M403.557 236.5C400.686 237.963 395.714 240.658 394.427 251.086C393.118 261.778 395.527 265.496 397.023 266.893C398.024 267.839 403.194 268.18 405.889 267.366C409.255 266.332 416.57 262.79 419.991 257.268C424.017 250.767 424.853 242.11 420.2 238.722C413.655 233.981 405.999 235.301 403.557 236.5Z" fill="#FFA8A7"/>
<path d="M397.298 267.124C398.508 267.784 401.951 268.059 404.514 267.685L404.426 265.771C403.326 266.244 402.184 266.612 401.016 266.871C399.796 267.14 398.543 267.225 397.298 267.124Z" fill="#F28F8F"/>
<path d="M402.303 236.214C401.081 236.66 399.946 237.316 398.948 238.15C398.448 238.566 398.043 239.083 397.76 239.668C397.543 240.213 397.46 240.801 397.518 241.384C397.603 242.187 397.897 242.953 398.37 243.607C398.842 244.261 399.478 244.78 400.213 245.113C399.823 245.64 399.555 246.247 399.429 246.89C399.304 247.533 399.324 248.197 399.487 248.831C400.013 250.309 400.925 251.619 402.127 252.626C402.188 252.696 402.263 252.753 402.347 252.791C402.432 252.805 402.518 252.799 402.6 252.775C402.682 252.75 402.757 252.707 402.82 252.648C404.624 251.438 405.746 249.348 408.32 250.195C411.675 251.295 411.51 255.431 408.881 258.005C407.943 258.954 406.701 259.542 405.372 259.666C404.698 259.682 404.041 259.451 403.524 259.017C403.524 259.017 403.623 264.407 408.309 266.552C411.576 267.504 415.041 267.545 418.33 266.673C420.101 264.418 423.071 261.547 425.513 258.973C433.554 250.514 434.016 238.227 422.147 234.344C421.74 234.212 421.333 234.091 420.915 233.981C417.098 232.985 413.101 232.898 409.244 233.728C407.343 234.138 405.498 234.769 403.744 235.609L402.303 236.214Z" fill="#263238"/>
<path d="M401.918 256.399C401.607 256.294 401.319 256.128 401.073 255.91C400.827 255.692 400.628 255.427 400.486 255.131C400.344 254.834 400.264 254.512 400.249 254.184C400.234 253.856 400.286 253.528 400.4 253.22C400.633 252.594 401.103 252.086 401.709 251.806C402.315 251.526 403.007 251.496 403.634 251.724L401.918 256.399Z" fill="#263238"/>
<path d="M403.238 461.549C403.718 463.016 404.122 464.507 404.448 466.015C404.789 467.676 405.273 470.415 404.69 471.691C404.107 472.967 401.841 473.748 398.332 473.715C396.066 473.715 392.524 475.244 390.093 476.597C387.662 477.95 382.393 478.555 379.731 478.236C376.607 477.873 373.373 476.036 372.867 474.771C372.361 473.506 371.943 471.702 380.391 468.996C380.468 468.996 390.621 465.696 394.185 461.736L403.238 461.549Z" fill="#263238"/>
<path d="M403.238 461.78L401.621 461.582L394.185 461.736C390.621 465.663 380.468 468.974 380.391 468.996L379.038 469.447C377.575 470.635 378.818 472.648 382.338 472.956C385.858 473.264 396.693 469.656 399.102 468.457C400.364 467.864 401.426 466.917 402.16 465.732C402.894 464.547 403.268 463.174 403.238 461.78Z" fill="#FFA8A7"/>
<path d="M403.238 458.59C403.238 458.59 403.238 460.625 403.238 461.78C403.238 462.935 401.874 464.673 398.321 464.552C395.824 464.464 394.086 463.793 394.185 461.736V458.777L403.238 458.59Z" fill="#FFA8A7"/>
<path d="M427.108 448.184C427.746 448.448 427.878 449.68 427.911 452.133C427.911 453.981 428.241 457.226 426.052 457.809C423.863 458.392 420.706 457.985 419.353 456.203C417.681 454.003 416.559 452.023 414.161 449.306C412.071 446.941 409.761 444.73 409.024 441.463C408.32 438.526 409.024 437.272 411.026 436.48C413.028 435.688 414.865 436.337 417.626 438.68C418.407 439.202 419.24 439.64 420.112 439.989C421.971 440.539 426.47 447.92 427.108 448.184Z" fill="#263238"/>
<path d="M427.163 445.918L427.086 448.921C427.086 448.921 425.073 452.859 419.485 448.921C419.364 448.635 418.869 442.816 418.869 442.816L427.163 445.918Z" fill="#FFA8A7"/>
<path d="M420.134 440C419.262 439.651 418.429 439.212 417.648 438.691C415.448 437.965 410.652 438.801 412.797 442.068C414.569 444.763 416.839 447.097 419.485 448.943C422.015 450.186 422.906 448.646 422.906 448.646L422.004 441.595C421.511 440.927 420.871 440.382 420.134 440Z" fill="#FFA8A7"/>
<path d="M431.2 404.338C430.681 399.051 429.575 393.837 427.9 388.795C427.9 388.795 429.792 375.529 431.277 362.791C434.775 332.915 432.443 332.442 428.219 322.091C428.219 322.091 389.917 317.163 388.322 333.091C386.32 352.891 387.222 391.391 387.563 398.431C387.904 405.471 388.465 408.65 390.555 423.39C392.15 434.61 393.657 459.129 393.657 459.129C398.673 462.022 403.557 458.634 403.557 458.634C403.557 458.634 408.353 428.472 408.243 420.354C408.165 414.351 407.311 408.384 405.702 402.6C405.702 402.6 409.002 370.271 409.783 365.134C409.783 365.134 410.707 375.441 411.048 382.481C411.389 389.521 413.248 396.275 414.975 409.376C416.427 420.739 418.847 444.455 418.847 444.455C423.874 447.348 427.383 446.039 427.383 446.039C427.383 446.039 432.355 414.194 431.2 404.338Z" fill="#FF725E"/>
<g opacity="0.4">
<path d="M431.2 404.338C430.681 399.051 429.575 393.837 427.9 388.795C427.9 388.795 429.792 375.529 431.277 362.791C434.775 332.915 432.443 332.442 428.219 322.091C428.219 322.091 389.917 317.163 388.322 333.091C386.32 352.891 387.222 391.391 387.563 398.431C387.904 405.471 388.465 408.65 390.555 423.39C392.15 434.61 393.657 459.129 393.657 459.129C398.673 462.022 403.557 458.634 403.557 458.634C403.557 458.634 408.353 428.472 408.243 420.354C408.165 414.351 407.311 408.384 405.702 402.6C405.702 402.6 409.002 370.271 409.783 365.134C409.783 365.134 410.707 375.441 411.048 382.481C411.389 389.521 413.248 396.275 414.975 409.376C416.427 420.739 418.847 444.455 418.847 444.455C423.874 447.348 427.383 446.039 427.383 446.039C427.383 446.039 432.355 414.194 431.2 404.338Z" fill="black"/>
</g>
<path opacity="0.15" d="M409.783 365.079L411.631 351.109C417.029 351.099 422.267 349.274 426.503 345.928C426.503 345.928 423.995 351.032 413.82 353.265L411.829 367.642L411.114 383.482C410.777 377.293 410.333 371.159 409.783 365.079Z" fill="black"/>
<path d="M429.561 279.026C428.263 275.176 425.612 272.91 419.749 272.844H418.715C418.297 275.044 411.422 276.958 405.185 274.758C404.327 274.912 401.357 275.242 399.993 275.429L397.012 275.858C392.48 277.343 390.478 285.23 390.038 297.715C389.598 310.2 387.739 336.919 387.739 336.919C387.739 336.919 397.496 342.155 412.885 340.131C426.668 338.316 432.784 330.231 432.311 331.243C430.225 324.36 427.591 317.654 424.435 311.19C431.695 293.403 431.497 284.757 429.561 279.026Z" fill="#455A64"/>
<path d="M405.262 340.615C407.81 340.646 410.358 340.495 412.885 340.164C425.458 338.514 431.772 331.628 432.3 331.21C430.241 324.34 427.61 317.654 424.435 311.223C428.109 302.214 429.869 295.559 430.463 290.433C429.869 294.173 424.347 308.649 417.12 312.983C417.12 312.983 421.19 313.621 424.677 318.406C428.164 323.191 425.304 339.592 405.262 340.615Z" fill="#37474F"/>
<path d="M399.993 275.462C393.987 276.221 389.235 277.475 386.606 283.162C382.206 292.875 377.355 300.85 373.857 304.601C370.117 308.605 354.783 315.601 351.329 315.084C347.875 314.567 344.432 310.552 342.65 311.575C340.868 312.598 344.168 316.459 343.948 317.328C343.728 318.197 337.469 317.735 334.51 315.645C331.551 313.555 330.451 317.845 334.279 322.355C338.107 326.865 345.279 327.195 353.122 325.655C360.965 324.115 375.694 319.968 381.722 315.029C388.993 309.045 391.468 304.513 394.559 299.145C405.724 287.617 399.993 275.462 399.993 275.462Z" fill="#FFA8A7"/>
</svg>
