<svg width="538" height="538" viewBox="0 0 538 538" fill="none" xmlns="http://www.w3.org/2000/svg">
<path d="M370.192 199.308C362.944 199.308 357.121 192.902 358.105 185.472C358.918 179.334 364.459 174.916 370.651 174.916H487.891C503.741 174.916 513.916 158.073 506.541 144.043L506.322 143.625C502.639 136.617 495.373 132.228 487.456 132.228H398.372C394.458 132.228 391.258 129.027 391.258 125.113C391.258 121.201 394.458 117.999 398.372 117.999H446.687C465.41 117.999 474.797 95.5399 461.795 82.0692C412.957 31.4703 344.432 0 268.555 0C153.959 0 56.1419 71.7814 17.5817 172.831C9.50684 193.991 25.3526 216.657 48.0004 216.657H113.036C118.104 216.657 122.652 220.336 123.162 225.379C123.748 231.167 119.168 236.095 113.493 236.095H32.465C14.6652 236.095 0.021489 250.426 0 268.226C0 268.336 0 268.446 0 268.556C0 415.372 117.813 534.671 264.057 537.073C411.825 539.5 534.728 420.667 537.075 272.898C537.383 253.465 535.615 234.501 531.994 216.204C530.044 206.355 521.315 199.308 511.275 199.308H370.192ZM198.932 177.275C198.932 180.069 196.646 182.356 193.851 182.356H52.5733C49.7782 182.356 47.4923 180.069 47.4923 177.275V177.274C47.4923 174.48 49.7782 172.194 52.5733 172.194H193.851C196.646 172.194 198.932 174.48 198.932 177.274V177.275Z" fill="white"/>
<path d="M475.019 440.291C425.777 499.458 351.568 537.118 268.547 537.118C185.546 537.118 111.337 499.458 62.0747 440.291H475.019Z" fill="#4E4E4E"/>
<path d="M19.4391 220.039C19.4391 225.407 15.0874 229.759 9.71954 229.759C4.35165 229.759 0 225.407 0 220.039C0 214.671 4.35165 210.32 9.71954 210.32C15.0874 210.32 19.4391 214.671 19.4391 220.039Z" fill="#B5B5B5"/>
<path d="M537.109 180.731C537.109 187.515 531.611 193.014 524.826 193.014C518.041 193.014 512.541 187.515 512.541 180.731C512.541 173.946 518.041 168.446 524.826 168.446C531.611 168.446 537.109 173.946 537.109 180.731Z" fill="#B5B5B5"/>
<path d="M485.982 118.819C485.982 122.749 482.797 125.934 478.867 125.934C474.938 125.934 471.754 122.749 471.754 118.819C471.754 114.89 474.938 111.705 478.867 111.705C482.797 111.705 485.982 114.89 485.982 118.819Z" fill="#B5B5B5"/>
<path d="M303.585 254.216C309.592 264.812 314.848 275.741 319.854 286.921C321.105 289.674 322.357 292.511 323.525 295.264L327.029 303.691L330.366 312.201C330.95 313.619 331.451 315.038 331.952 316.456L333.537 320.711C335.706 326.384 337.625 332.225 339.544 337.981L342.297 346.658C342.714 348.077 343.215 349.578 343.632 350.997L344.884 355.419L346.135 359.841C346.552 361.342 346.969 362.761 347.386 364.262L349.639 373.106C349.973 374.608 350.39 376.026 350.724 377.528C351.057 379.03 351.391 380.532 351.725 381.95L352.643 386.372C352.976 387.874 353.227 389.376 353.56 390.877C349.556 379.364 345.885 367.85 341.88 356.42C339.961 350.663 337.875 344.99 335.873 339.233L332.786 330.723L331.284 326.468L329.782 322.129C327.697 316.456 325.611 310.783 323.442 305.109L316.934 288.089C312.595 276.826 308.09 265.563 303.585 254.216Z" fill="url(#paint0_linear_1826_546)"/>
<path d="M412.797 155.849C419.722 143.919 423.226 130.569 420.223 115.468C414.8 88.0192 391.188 66.0766 362.905 64.7417C331.451 63.3233 302.25 88.186 298.913 119.556C302 87.7689 270.045 60.4866 240.093 59.0683C206.22 57.4831 177.436 83.6807 175.851 117.637C174.098 154.932 209.307 183.465 233.335 206.993C237.507 211.081 266.207 242.118 281.726 259.972C287.482 266.563 297.494 267.064 303.835 261.057C328.865 237.446 354.145 214.418 380.259 191.808C392.523 181.296 404.871 169.532 412.797 155.849Z" fill="url(#paint1_linear_1826_546)"/>
<path d="M283.394 256.135C285.053 256.135 286.398 254.79 286.398 253.131C286.398 251.472 285.053 250.127 283.394 250.127C281.735 250.127 280.391 251.472 280.391 253.131C280.391 254.79 281.735 256.135 283.394 256.135Z" fill="white"/>
<path d="M305.837 253.464C305.837 255.133 304.503 256.468 302.834 256.468C301.165 256.468 299.83 255.133 299.83 253.464C299.83 251.796 301.165 250.461 302.834 250.461C304.503 250.461 305.837 251.796 305.837 253.464Z" fill="white"/>
<path d="M282.56 254.216C277.471 265.062 272.214 275.825 266.875 286.504L251.023 318.625C245.766 329.388 240.51 340.067 235.421 350.913C234.753 352.248 234.169 353.583 233.502 355.002C232.918 356.336 232.25 357.755 231.666 359.09C230.415 361.843 229.08 364.513 227.995 367.266C226.827 370.019 225.576 372.689 224.324 375.442L222.572 379.614C221.988 380.949 221.404 382.367 220.82 383.786C221.237 382.367 221.655 380.865 221.988 379.447L223.24 375.109C223.407 374.358 223.657 373.69 223.907 372.939L224.658 370.77L226.077 366.515C226.577 365.097 227.078 363.678 227.578 362.26L229.164 358.089C229.664 356.67 230.248 355.252 230.749 353.917C231.333 352.499 231.917 351.164 232.417 349.745C236.923 338.649 242.012 327.719 247.268 316.957C252.524 306.194 258.114 295.598 263.955 285.086C266.875 279.829 269.878 274.657 272.882 269.484C276.136 264.395 279.223 259.222 282.56 254.216Z" fill="url(#paint2_linear_1826_546)"/>
<path d="M356.564 405.061L353.56 470.054L303.585 438.433L297.995 434.929L356.564 405.061Z" fill="url(#paint3_linear_1826_546)"/>
<path d="M270.212 433.678L264.288 436.681L211.643 463.463L214.646 398.553L270.212 433.678Z" fill="url(#paint4_linear_1826_546)"/>
<path d="M353.56 470.054L353.394 473.475C353.227 476.311 350.807 478.564 347.97 478.481L216.482 472.39C213.645 472.223 211.392 469.804 211.476 466.967L211.643 463.546L264.288 436.681L270.212 433.678L279.556 439.601C280.057 439.935 280.557 440.185 281.058 440.352C281.225 440.436 281.392 440.519 281.559 440.519C282.31 440.769 282.977 440.853 283.728 440.936C284.479 441.02 285.23 440.936 285.981 440.769C286.147 440.769 286.314 440.686 286.565 440.603C287.149 440.436 287.649 440.269 288.15 440.019L297.995 435.013L303.585 438.517L353.56 470.054Z" fill="url(#paint5_linear_1826_546)"/>
<path d="M357.315 388.374L356.564 405.06L297.995 434.929L288.15 439.935C285.396 441.353 282.143 441.186 279.556 439.518L270.212 433.594L214.646 398.552L215.397 381.866C215.564 379.029 217.984 376.777 220.82 376.86L352.309 382.951C355.229 383.034 357.482 385.537 357.315 388.374Z" fill="url(#paint6_linear_1826_546)"/>
<path d="M297.995 434.929L288.15 439.935C287.649 440.185 287.065 440.436 286.565 440.519C286.398 440.602 286.231 440.602 285.981 440.686C285.23 440.853 284.479 440.936 283.728 440.853C282.977 440.853 282.226 440.686 281.559 440.436C281.392 440.352 281.225 440.352 281.058 440.269C280.557 440.102 280.057 439.852 279.556 439.518L270.212 433.594L214.646 398.553L214.396 404.393L264.288 436.681L269.878 440.269L279.223 446.192C280.474 447.027 281.976 447.444 283.478 447.527H283.561C285.063 447.611 286.565 447.277 287.899 446.61L297.744 441.604L303.668 438.517L356.314 410.984L356.564 405.144L297.995 434.929Z" fill="url(#paint7_linear_1826_546)"/>
<path d="M299.33 437.015C300.247 435.43 300.748 433.678 300.331 431.675C299.58 428.004 296.493 425.084 292.739 424.917C288.567 424.751 284.729 428.004 284.229 432.176C284.646 427.921 280.391 424.333 276.386 424.166C271.881 424 268.043 427.42 267.876 431.926C267.626 436.848 272.298 440.686 275.468 443.773C276.052 444.357 279.807 448.445 281.892 450.781C282.643 451.616 283.978 451.699 284.813 450.948C288.15 447.778 291.487 444.774 294.908 441.771C296.66 440.436 298.245 438.851 299.33 437.015Z" fill="url(#paint8_linear_1826_546)"/>
<path opacity="0.8" d="M225.326 383.452C225.326 385.12 223.907 386.455 222.239 386.455C220.57 386.455 219.235 385.12 219.235 383.368C219.235 381.7 220.653 380.365 222.322 380.365C223.991 380.365 225.326 381.7 225.326 383.452Z" fill="white"/>
<path opacity="0.8" d="M354.812 388.792C354.812 390.46 353.393 391.795 351.725 391.795C350.056 391.795 348.721 390.46 348.721 388.708C348.721 387.039 350.14 385.705 351.808 385.705C353.477 385.788 354.812 387.123 354.812 388.792Z" fill="white"/>
<path d="M450.508 271.903C451.927 275.574 453.095 279.245 454.096 283C454.346 283.918 454.596 284.919 454.847 285.836L455.598 288.673L456.265 291.51C456.349 292.01 456.515 292.428 456.599 292.928L456.933 294.347C457.35 296.265 457.683 298.184 458.017 300.103L458.518 303.023C458.601 303.524 458.685 304.025 458.768 304.442L458.935 305.86L459.102 307.278C459.185 307.779 459.269 308.28 459.269 308.697L459.602 311.617C459.686 312.117 459.686 312.618 459.769 313.035C459.769 313.536 459.853 314.036 459.853 314.454L459.936 315.872C459.936 316.373 460.02 316.873 460.02 317.374C459.269 313.536 458.685 309.698 457.934 305.86C457.6 303.941 457.183 302.022 456.849 300.103L456.265 297.267L456.015 295.848L455.681 294.43C455.264 292.511 454.847 290.592 454.513 288.757L453.262 283.083C452.26 279.496 451.426 275.741 450.508 271.903Z" fill="url(#paint9_linear_1826_546)"/>
<path d="M489.721 245.873C492.475 242.452 494.227 238.364 493.976 233.441C493.559 224.514 487.052 216.421 478.208 214.669C468.279 212.75 457.85 219.258 455.348 229.019C457.85 219.091 449.007 208.912 439.495 207.077C428.816 204.991 418.471 211.916 416.385 222.595C414.049 234.359 423.894 245.038 430.401 253.632C431.569 255.134 439.162 266.313 443.25 272.738C444.752 275.074 447.922 275.741 450.175 274.156C459.269 267.815 468.363 261.725 477.624 255.801C482.129 252.964 486.635 249.794 489.721 245.873Z" fill="url(#paint10_linear_1826_546)"/>
<path d="M444.167 271.569C444.72 271.569 445.169 271.121 445.169 270.568C445.169 270.015 444.72 269.567 444.167 269.567C443.614 269.567 443.166 270.015 443.166 270.568C443.166 271.121 443.614 271.569 444.167 271.569Z" fill="url(#paint11_linear_1826_546)"/>
<path d="M451.259 271.736C451.176 272.237 450.675 272.654 450.175 272.57C449.674 272.487 449.257 271.986 449.34 271.486C449.424 270.985 449.924 270.568 450.425 270.651C450.925 270.735 451.343 271.235 451.259 271.736Z" fill="url(#paint12_linear_1826_546)"/>
<path d="M443.834 270.902C441.665 274.072 439.495 277.243 437.326 280.413L430.818 289.841C428.649 293.011 426.48 296.182 424.394 299.352C424.144 299.769 423.894 300.186 423.56 300.52C423.31 300.937 423.059 301.354 422.809 301.688C422.308 302.523 421.724 303.273 421.224 304.108C420.723 304.942 420.223 305.693 419.722 306.527L418.971 307.779C418.721 308.196 418.471 308.613 418.22 309.03C418.387 308.613 418.637 308.112 418.804 307.695L419.388 306.36C419.472 306.11 419.555 305.943 419.722 305.693L420.056 305.026L420.723 303.774C420.973 303.357 421.14 302.94 421.391 302.523L422.058 301.271C422.308 300.854 422.559 300.437 422.809 300.02C423.059 299.602 423.31 299.185 423.56 298.768C425.479 295.431 427.648 292.26 429.817 289.09C431.986 285.92 434.239 282.833 436.575 279.746C437.743 278.244 438.911 276.742 440.163 275.24C441.331 273.822 442.499 272.32 443.834 270.902Z" fill="url(#paint13_linear_1826_546)"/>
<path d="M460.187 322.213L456.182 342.654L441.832 330.306L440.246 328.971L460.187 322.213Z" fill="url(#paint14_linear_1826_546)"/>
<path d="M431.486 327.218L429.483 327.886L411.462 333.893L415.467 313.452L431.486 327.218Z" fill="url(#paint15_linear_1826_546)"/>
<path d="M456.182 342.653L455.931 343.738C455.764 344.656 454.847 345.24 453.929 345.073L412.547 336.98C411.629 336.813 411.045 335.895 411.212 334.977L411.462 333.893L429.4 327.886L431.402 327.218L434.072 329.554C434.239 329.638 434.322 329.805 434.489 329.888C434.573 329.888 434.573 329.972 434.656 329.972C434.906 330.055 435.073 330.138 435.324 330.222C435.574 330.305 435.824 330.305 436.075 330.305C436.158 330.305 436.158 330.305 436.241 330.305C436.408 330.305 436.575 330.222 436.742 330.222L440.079 329.054L441.664 330.472L456.182 342.653Z" fill="url(#paint16_linear_1826_546)"/>
<path d="M461.187 316.956L460.186 322.212L440.246 328.887L436.909 330.055C435.991 330.389 434.906 330.138 434.239 329.554L431.569 327.218L415.634 313.452L416.635 308.196C416.802 307.278 417.719 306.694 418.637 306.861L460.019 314.954C460.77 315.204 461.438 316.038 461.187 316.956Z" fill="url(#paint17_linear_1826_546)"/>
<path opacity="0.8" d="M440.246 328.97L436.909 330.138C436.742 330.222 436.575 330.222 436.408 330.222C436.325 330.222 436.325 330.222 436.241 330.222C435.991 330.222 435.741 330.222 435.49 330.138C435.24 330.055 434.99 330.055 434.823 329.888C434.739 329.888 434.739 329.805 434.656 329.805C434.489 329.721 434.322 329.638 434.239 329.471L431.569 327.135L415.634 313.369L415.3 315.204L429.567 327.802L431.152 329.221L433.822 331.557C434.155 331.891 434.656 332.057 435.073 332.141C435.574 332.224 435.991 332.224 436.492 332.057L439.829 330.889L441.831 330.222L459.852 323.965L460.186 322.129L440.246 328.97Z" fill="url(#paint18_linear_1826_546)"/>
<path d="M419.555 309.197C419.472 309.697 418.971 310.115 418.47 310.031C417.97 309.948 417.553 309.447 417.636 308.947C417.72 308.446 418.22 308.029 418.721 308.112C419.221 308.196 419.639 308.613 419.555 309.197Z" fill="white"/>
<path d="M460.437 316.956C460.353 317.457 459.853 317.874 459.352 317.79C458.851 317.707 458.434 317.206 458.518 316.706C458.601 316.205 459.102 315.788 459.602 315.872C460.103 315.955 460.52 316.456 460.437 316.956Z" fill="white"/>
<path d="M440.496 329.638C440.83 329.221 441.081 328.637 441.081 327.97C440.997 326.802 440.163 325.717 438.995 325.467C437.66 325.216 436.325 326.051 435.991 327.386C436.325 326.051 435.157 324.716 433.905 324.465C432.487 324.215 431.152 325.133 430.818 326.551C430.485 328.136 431.82 329.555 432.654 330.639C432.821 330.806 433.822 332.308 434.322 333.142C434.489 333.476 434.907 333.559 435.24 333.309C436.408 332.475 437.66 331.641 438.911 330.89C439.495 330.639 440.079 330.222 440.496 329.638Z" fill="url(#paint19_linear_1826_546)"/>
<path d="M112.025 288.506C109.856 294.179 108.02 300.019 106.352 305.86C105.935 307.361 105.517 308.78 105.184 310.282L104.099 314.703L103.098 319.125C102.931 319.876 102.764 320.627 102.597 321.378L102.097 323.631C101.429 326.634 100.929 329.638 100.345 332.641L99.5937 337.147C99.5102 337.898 99.3434 338.648 99.26 339.399L98.9262 341.652L98.5925 343.905C98.5091 344.655 98.3422 345.406 98.3422 346.157L97.8416 350.663C97.7582 351.414 97.6747 352.164 97.6747 352.915C97.5913 353.666 97.5913 354.417 97.5079 355.168L97.341 357.421C97.341 358.171 97.2576 358.922 97.2576 359.673C98.3422 353.666 99.3434 347.659 100.511 341.735C101.012 338.732 101.679 335.812 102.18 332.808L103.098 328.386L103.515 326.134L104.016 323.881C104.6 320.877 105.267 317.957 105.851 314.954L107.853 306.277C109.188 300.353 110.607 294.43 112.025 288.506Z" fill="url(#paint20_linear_1826_546)"/>
<path d="M50.7026 247.875C46.3641 242.452 43.6943 236.111 44.028 228.435C44.6955 214.419 54.7908 201.821 68.6405 199.067C84.1588 196.064 100.428 206.243 104.349 221.511C100.511 205.992 114.278 190.14 129.045 187.22C145.732 183.966 161.917 194.812 165.171 211.499C168.759 229.854 153.491 246.54 143.229 259.973C141.477 262.309 129.546 279.746 123.121 289.758C120.785 293.429 115.863 294.43 112.275 291.927C98.1753 282.082 83.9085 272.488 69.3079 263.227C62.5499 258.972 55.6251 254.049 50.7026 247.875Z" fill="url(#paint21_linear_1826_546)"/>
<path d="M122.178 287.986C122.999 287.864 123.565 287.1 123.443 286.28C123.321 285.46 122.558 284.893 121.737 285.015C120.917 285.137 120.35 285.9 120.472 286.721C120.594 287.541 121.358 288.108 122.178 287.986Z" fill="white"/>
<path d="M110.857 288.339C110.94 289.174 111.775 289.758 112.609 289.591C113.443 289.507 114.027 288.673 113.86 287.839C113.777 287.004 112.943 286.42 112.108 286.587C111.274 286.671 110.69 287.505 110.857 288.339Z" fill="white"/>
<path d="M122.454 287.004C125.791 292.01 129.212 296.933 132.633 301.855L142.811 316.623C146.232 321.545 149.569 326.468 152.907 331.474C153.324 332.058 153.741 332.725 154.158 333.309C154.575 333.977 154.992 334.561 155.409 335.228C156.244 336.48 157.078 337.731 157.829 338.982C158.663 340.234 159.414 341.485 160.249 342.737L161.417 344.656C161.834 345.323 162.167 345.907 162.585 346.575C162.251 345.907 162.001 345.24 161.667 344.489L160.749 342.403C160.582 342.069 160.415 341.736 160.249 341.402L159.748 340.401L158.747 338.398C158.413 337.731 158.079 337.064 157.662 336.396L156.578 334.394C156.244 333.726 155.827 333.059 155.493 332.391C155.076 331.724 154.742 331.14 154.325 330.472C151.238 325.3 147.984 320.294 144.563 315.288C141.143 310.365 137.638 305.526 133.967 300.771C132.132 298.351 130.296 296.015 128.378 293.679C126.375 291.51 124.456 289.257 122.454 287.004Z" fill="url(#paint22_linear_1826_546)"/>
<path d="M96.8403 367.099L103.098 399.054L125.541 379.781L128.044 377.612L96.8403 367.099Z" fill="url(#paint23_linear_1826_546)"/>
<path d="M141.727 374.942L144.897 375.943L172.93 385.371L166.673 353.5L141.727 374.942Z" fill="url(#paint24_linear_1826_546)"/>
<path d="M103.098 399.053L103.432 400.722C103.682 402.14 105.1 403.058 106.519 402.808L171.178 390.126C172.597 389.876 173.514 388.457 173.264 387.039L172.93 385.37L144.897 375.943L141.727 374.858L137.555 378.445C137.305 378.612 137.138 378.779 136.888 378.946C136.804 379.029 136.721 379.029 136.638 379.113C136.304 379.28 135.97 379.363 135.553 379.447C135.219 379.53 134.802 379.53 134.468 379.53C134.385 379.53 134.301 379.53 134.218 379.53C133.968 379.53 133.634 379.447 133.384 379.363L128.127 377.611L125.625 379.78L103.098 399.053Z" fill="url(#paint25_linear_1826_546)"/>
<path d="M95.2552 358.923L96.8404 367.182L128.044 377.695L133.3 379.447C134.718 379.947 136.387 379.614 137.555 378.613L141.727 375.025L166.673 353.583L165.088 345.323C164.837 343.905 163.419 342.987 162.001 343.237L97.341 355.919C95.9227 356.169 95.0049 357.504 95.2552 358.923Z" fill="url(#paint26_linear_1826_546)"/>
<path opacity="0.8" d="M166.673 353.5L141.727 374.942L137.555 378.529C137.305 378.696 137.138 378.863 136.888 379.03C136.804 379.113 136.721 379.113 136.637 379.197C136.304 379.363 135.97 379.447 135.553 379.53C135.219 379.614 134.802 379.614 134.468 379.614C134.385 379.614 134.301 379.614 134.218 379.614C133.968 379.614 133.634 379.53 133.384 379.447L128.127 377.695L96.9238 367.182L97.5079 370.019L125.624 379.781L128.795 380.865L134.051 382.617C134.802 382.868 135.553 382.868 136.304 382.784C137.055 382.617 137.722 382.284 138.306 381.783L142.478 378.195L144.981 376.026L167.34 356.336L166.673 353.5Z" fill="url(#paint27_linear_1826_546)"/>
<path d="M160.249 346.742C160.416 347.576 161.166 348.16 162.001 347.993C162.835 347.826 163.419 347.075 163.252 346.241C163.085 345.407 162.334 344.823 161.5 344.989C160.749 345.156 160.165 345.907 160.249 346.742Z" fill="white"/>
<path d="M127.543 378.779C126.959 378.029 126.625 377.194 126.625 376.193C126.709 374.357 128.044 372.689 129.879 372.272C131.965 371.855 134.051 373.189 134.635 375.275C134.134 373.189 135.97 371.104 137.889 370.77C140.141 370.353 142.227 371.771 142.644 374.024C143.145 376.443 141.059 378.696 139.724 380.448C139.474 380.782 137.889 383.034 137.054 384.369C136.721 384.87 136.053 384.953 135.636 384.62C133.801 383.285 131.882 382.033 129.963 380.782C129.128 380.198 128.211 379.614 127.543 378.779Z" fill="url(#paint28_linear_1826_546)"/>
<defs>
<linearGradient id="paint0_linear_1826_546" x1="303.622" y1="322.574" x2="353.565" y2="322.574" gradientUnits="userSpaceOnUse">
<stop stop-color="#D0D0D0"/>
<stop offset="1" stop-color="#FF5C5D"/>
</linearGradient>
<linearGradient id="paint1_linear_1826_546" x1="322.454" y1="67.7348" x2="155.397" y2="458.194" gradientUnits="userSpaceOnUse">
<stop stop-color="#FF2E2F"/>
<stop offset="1" stop-color="#393939"/>
</linearGradient>
<linearGradient id="paint2_linear_1826_546" x1="220.794" y1="319.002" x2="282.522" y2="319.002" gradientUnits="userSpaceOnUse">
<stop stop-color="#D0D0D0"/>
<stop offset="1" stop-color="#FF5C5D"/>
</linearGradient>
<linearGradient id="paint3_linear_1826_546" x1="326.29" y1="442.428" x2="328.211" y2="400.79" gradientUnits="userSpaceOnUse">
<stop stop-color="#D0D0D0"/>
<stop offset="1" stop-color="#FF5C5D"/>
</linearGradient>
<linearGradient id="paint4_linear_1826_546" x1="241.396" y1="438.517" x2="243.318" y2="396.879" gradientUnits="userSpaceOnUse">
<stop stop-color="#D0D0D0"/>
<stop offset="1" stop-color="#FF5C5D"/>
</linearGradient>
<linearGradient id="paint5_linear_1826_546" x1="281.777" y1="474.239" x2="288.263" y2="427.119" gradientUnits="userSpaceOnUse">
<stop stop-color="#D0D0D0"/>
<stop offset="1" stop-color="#FF5C5D"/>
</linearGradient>
<linearGradient id="paint6_linear_1826_546" x1="285.4" y1="406.711" x2="280.242" y2="518.503" gradientUnits="userSpaceOnUse">
<stop stop-color="#D0D0D0"/>
<stop offset="1" stop-color="#FF5C5D"/>
</linearGradient>
<linearGradient id="paint7_linear_1826_546" x1="214.368" y1="423.043" x2="356.561" y2="423.043" gradientUnits="userSpaceOnUse">
<stop stop-color="#F3F3F3"/>
<stop offset="1" stop-color="#E7E7E7"/>
</linearGradient>
<linearGradient id="paint8_linear_1826_546" x1="287.559" y1="425.713" x2="265.411" y2="477.479" gradientUnits="userSpaceOnUse">
<stop stop-color="#FF2E2F"/>
<stop offset="1" stop-color="#393939"/>
</linearGradient>
<linearGradient id="paint9_linear_1826_546" x1="450.505" y1="294.751" x2="459.912" y2="294.751" gradientUnits="userSpaceOnUse">
<stop stop-color="#D0D0D0"/>
<stop offset="1" stop-color="#FF5C5D"/>
</linearGradient>
<linearGradient id="paint10_linear_1826_546" x1="465.311" y1="213.569" x2="393.954" y2="329.535" gradientUnits="userSpaceOnUse">
<stop stop-color="#FF2E2F"/>
<stop offset="1" stop-color="#393939"/>
</linearGradient>
<linearGradient id="paint11_linear_1826_546" x1="443.169" y1="270.588" x2="445.118" y2="270.588" gradientUnits="userSpaceOnUse">
<stop stop-color="#F3F3F3"/>
<stop offset="1" stop-color="#E7E7E7"/>
</linearGradient>
<linearGradient id="paint12_linear_1826_546" x1="449.303" y1="271.624" x2="451.251" y2="271.624" gradientUnits="userSpaceOnUse">
<stop stop-color="#F3F3F3"/>
<stop offset="1" stop-color="#E7E7E7"/>
</linearGradient>
<linearGradient id="paint13_linear_1826_546" x1="418.143" y1="289.997" x2="443.813" y2="289.997" gradientUnits="userSpaceOnUse">
<stop stop-color="#D0D0D0"/>
<stop offset="1" stop-color="#FF5C5D"/>
</linearGradient>
<linearGradient id="paint14_linear_1826_546" x1="448.891" y1="332.604" x2="451.46" y2="319.489" gradientUnits="userSpaceOnUse">
<stop stop-color="#D0D0D0"/>
<stop offset="1" stop-color="#FF5C5D"/>
</linearGradient>
<linearGradient id="paint15_linear_1826_546" x1="422.152" y1="327.368" x2="424.721" y2="314.254" gradientUnits="userSpaceOnUse">
<stop stop-color="#D0D0D0"/>
<stop offset="1" stop-color="#FF5C5D"/>
</linearGradient>
<linearGradient id="paint16_linear_1826_546" x1="433.277" y1="340.596" x2="437.551" y2="325.959" gradientUnits="userSpaceOnUse">
<stop stop-color="#D0D0D0"/>
<stop offset="1" stop-color="#FF5C5D"/>
</linearGradient>
<linearGradient id="paint17_linear_1826_546" x1="437.604" y1="319.352" x2="430.707" y2="354.562" gradientUnits="userSpaceOnUse">
<stop stop-color="#D0D0D0"/>
<stop offset="1" stop-color="#FF5C5D"/>
</linearGradient>
<linearGradient id="paint18_linear_1826_546" x1="437.664" y1="313.482" x2="437.664" y2="332.307" gradientUnits="userSpaceOnUse">
<stop stop-color="#F3F3F3"/>
<stop offset="1" stop-color="#E7E7E7"/>
</linearGradient>
<linearGradient id="paint19_linear_1826_546" x1="437.395" y1="325.454" x2="427.935" y2="340.829" gradientUnits="userSpaceOnUse">
<stop stop-color="#FF2E2F"/>
<stop offset="1" stop-color="#393939"/>
</linearGradient>
<linearGradient id="paint20_linear_1826_546" x1="97.301" y1="324.208" x2="111.994" y2="324.208" gradientUnits="userSpaceOnUse">
<stop stop-color="#D0D0D0"/>
<stop offset="1" stop-color="#FF5C5D"/>
</linearGradient>
<linearGradient id="paint21_linear_1826_546" x1="89.0138" y1="197.391" x2="200.467" y2="378.502" gradientUnits="userSpaceOnUse">
<stop stop-color="#FF2E2F"/>
<stop offset="1" stop-color="#393939"/>
</linearGradient>
<linearGradient id="paint22_linear_1826_546" x1="122.445" y1="316.784" x2="162.537" y2="316.784" gradientUnits="userSpaceOnUse">
<stop stop-color="#D0D0D0"/>
<stop offset="1" stop-color="#FF5C5D"/>
</linearGradient>
<linearGradient id="paint23_linear_1826_546" x1="114.527" y1="383.425" x2="110.515" y2="362.943" gradientUnits="userSpaceOnUse">
<stop stop-color="#D0D0D0"/>
<stop offset="1" stop-color="#FF5C5D"/>
</linearGradient>
<linearGradient id="paint24_linear_1826_546" x1="156.288" y1="375.249" x2="152.276" y2="354.766" gradientUnits="userSpaceOnUse">
<stop stop-color="#D0D0D0"/>
<stop offset="1" stop-color="#FF5C5D"/>
</linearGradient>
<linearGradient id="paint25_linear_1826_546" x1="138.913" y1="395.909" x2="132.237" y2="373.048" gradientUnits="userSpaceOnUse">
<stop stop-color="#D0D0D0"/>
<stop offset="1" stop-color="#FF5C5D"/>
</linearGradient>
<linearGradient id="paint26_linear_1826_546" x1="132.155" y1="362.729" x2="142.926" y2="417.72" gradientUnits="userSpaceOnUse">
<stop stop-color="#D0D0D0"/>
<stop offset="1" stop-color="#FF5C5D"/>
</linearGradient>
<linearGradient id="paint27_linear_1826_546" x1="132.049" y1="353.464" x2="132.049" y2="382.863" gradientUnits="userSpaceOnUse">
<stop stop-color="#F3F3F3"/>
<stop offset="1" stop-color="#E7E7E7"/>
</linearGradient>
<linearGradient id="paint28_linear_1826_546" x1="132.618" y1="372.131" x2="147.395" y2="396.142" gradientUnits="userSpaceOnUse">
<stop stop-color="#FF2E2F"/>
<stop offset="1" stop-color="#393939"/>
</linearGradient>
</defs>
</svg>
