<svg xmlns="http://www.w3.org/2000/svg" version="1.1" xmlns:xlink="http://www.w3.org/1999/xlink" width="512" height="512" x="0" y="0" viewBox="0 0 60 60" style="enable-background:new 0 0 512 512" xml:space="preserve" class=""><g><g fill="#000" fill-rule="nonzero"><path d="M30 0C13.431 0 0 13.431 0 30s13.431 30 30 30 30-13.431 30-30C59.981 13.44 46.56.019 30 0zm20.807 11.287c-.961.463-1.951.862-2.965 1.194A26.89 26.89 0 0 0 41.6 4.527c3.5 1.6 6.633 3.9 9.207 6.76zM57.975 29h-5.994a38.007 38.007 0 0 0-3.248-14.708 24.726 24.726 0 0 0 3.385-1.432A27.854 27.854 0 0 1 57.975 29zm-5.857 18.14a24.62 24.62 0 0 0-3.385-1.432A38.011 38.011 0 0 0 51.981 31h5.994a27.854 27.854 0 0 1-5.857 16.14zM37.7 45.01a1 1 0 0 0-1.179.781C35.007 53.208 32.447 58 30 58s-5.007-4.792-6.521-12.209a1 1 0 1 0-1.958.4c1.028 5.04 2.486 8.838 4.222 11.165-4.723-1.439-8.828-5.219-11.661-10.428 1.289-.357 2.7-.678 4.226-.953a1 1 0 1 0-.356-1.968c-1.61.285-3.204.653-4.777 1.1A36.089 36.089 0 0 1 10.018 31h1.562a1 1 0 0 0 0-2h-1.562a36.089 36.089 0 0 1 3.157-14.11c1.573.447 3.167.815 4.777 1.1a1 1 0 0 0 .356-1.968 48.998 48.998 0 0 1-4.226-.953c2.833-5.205 6.938-8.985 11.661-10.424-1.736 2.327-3.194 6.125-4.222 11.165a1 1 0 1 0 1.958.4C24.993 6.792 27.553 2 30 2s5.007 4.792 6.521 12.209a1 1 0 0 0 1.178.78 1 1 0 0 0 .779-1.18c-1.028-5.04-2.486-8.838-4.222-11.165 4.723 1.439 8.828 5.219 11.661 10.428-1.289.357-2.7.678-4.226.953a1 1 0 1 0 .356 1.968 48.288 48.288 0 0 0 4.777-1.1A36.085 36.085 0 0 1 49.982 29H48.42a1 1 0 0 0 0 2h1.562a36.089 36.089 0 0 1-3.157 14.11 48.222 48.222 0 0 0-4.777-1.1 1 1 0 0 0-.356 1.968c1.523.275 2.937.6 4.226.953-2.833 5.209-6.938 8.989-11.661 10.428 1.736-2.327 3.194-6.125 4.222-11.165a1 1 0 0 0-.779-1.184zM2.025 31h5.994a38.016 38.016 0 0 0 3.248 14.709 24.66 24.66 0 0 0-3.384 1.431A27.848 27.848 0 0 1 2.025 31zm5.858-18.14c1.09.561 2.222 1.04 3.384 1.432A38.007 38.007 0 0 0 8.019 29H2.025a27.848 27.848 0 0 1 5.858-16.14zM18.4 4.527a26.89 26.89 0 0 0-6.24 7.954 24.213 24.213 0 0 1-2.965-1.2A28.137 28.137 0 0 1 18.4 4.527zM9.191 48.712c.962-.462 1.953-.86 2.967-1.192a26.914 26.914 0 0 0 6.24 7.953 28.151 28.151 0 0 1-9.207-6.761zM41.6 55.473a26.89 26.89 0 0 0 6.24-7.954c1.014.334 2.004.735 2.965 1.2a28.137 28.137 0 0 1-9.205 6.754z" fill="#fff" opacity="1" data-original="#fff" class=""></path><path d="M45.992 27.072a9.658 9.658 0 0 0-3.523-7.17 8.2 8.2 0 0 0-6.644-1.781A10.273 10.273 0 0 0 30 21.418a10.273 10.273 0 0 0-5.825-3.3 8.2 8.2 0 0 0-6.644 1.782 9.658 9.658 0 0 0-3.523 7.17c-.223 5.988 4.359 9.9 11.3 15.83.88.752 1.8 1.539 2.763 2.373 1.107.97 2.76.97 3.867 0 .961-.834 1.882-1.621 2.762-2.373 6.933-5.924 11.515-9.84 11.292-15.828zM33.4 41.382c-.882.754-1.806 1.548-2.772 2.381a.932.932 0 0 1-1.247 0c-.965-.836-1.89-1.63-2.773-2.381-6.725-5.746-10.785-9.214-10.6-14.236a7.659 7.659 0 0 1 2.785-5.69 6.182 6.182 0 0 1 5.042-1.365 8.528 8.528 0 0 1 5.318 3.476 1 1 0 0 0 1.693.001 8.528 8.528 0 0 1 5.319-3.477 6.228 6.228 0 0 1 5.042 1.365 7.659 7.659 0 0 1 2.785 5.69c.189 5.022-3.871 8.49-10.592 14.236z" fill="#fff" opacity="1" data-original="#fff" class=""></path><path d="M24.193 22.08a5.621 5.621 0 0 0-4.3 1.024A5.978 5.978 0 0 0 18 27.979a1 1 0 0 0 2 0 4.14 4.14 0 0 1 1.148-3.321 3.628 3.628 0 0 1 2.664-.615 1 1 0 0 0 .381-1.963z" fill="#fff" opacity="1" data-original="#fff" class=""></path></g></g></svg>