<svg xmlns="http://www.w3.org/2000/svg" version="1.1" xmlns:xlink="http://www.w3.org/1999/xlink" width="512" height="512" x="0" y="0" viewBox="0 0 512 512" style="enable-background:new 0 0 512 512" xml:space="preserve" class=""><g><path d="M256 38c29.45 0 57.99 5.76 84.84 17.12 25.95 10.98 49.27 26.7 69.31 46.73 20.03 20.03 35.76 43.35 46.73 69.31C468.24 198.01 474 226.56 474 256s-5.76 57.99-17.12 84.84c-10.98 25.95-26.7 49.27-46.73 69.31-20.03 20.03-43.35 35.76-69.31 46.73C313.99 468.24 285.44 474 256 474s-57.99-5.76-84.84-17.12c-25.95-10.98-49.27-26.7-69.31-46.73-20.03-20.03-35.76-43.35-46.73-69.31C43.76 313.99 38 285.44 38 256s5.76-57.99 17.12-84.84c10.98-25.95 26.7-49.27 46.73-69.31 20.03-20.03 43.35-35.76 69.31-46.73C198.01 43.76 226.56 38 256 38m0-38C114.62 0 0 114.62 0 256s114.62 256 256 256 256-114.61 256-256S397.38 0 256 0z" fill="#ffffff" opacity="1" data-original="#000000" class=""></path><path d="M363.91 275.14H256c-10.49 0-19-8.51-19-19V106.92c0-10.49 8.51-19 19-19s19 8.51 19 19v130.22h88.91c10.49 0 19 8.51 19 19s-8.51 19-19 19z" fill="#ffffff" opacity="1" data-original="#000000" class=""></path></g></svg>