<svg xmlns="http://www.w3.org/2000/svg" version="1.1" xmlns:xlink="http://www.w3.org/1999/xlink" width="512" height="512" x="0" y="0" viewBox="0 0 512 512" style="enable-background:new 0 0 512 512" xml:space="preserve" class=""><g><path d="M403.454 155.124v313.138c0 20.014-16.224 36.238-36.238 36.238H144.784c-20.014 0-36.238-16.224-36.238-36.238v-75.223M297.736 47.361h-83.471a18.544 18.544 0 0 1-16.573-10.226L182.823 7.5h146.354l-14.869 29.634a18.542 18.542 0 0 1-16.572 10.227zM110.546 430.262h290.107M239.065 466.381h33.87" style="stroke-width:15;stroke-linecap:round;stroke-linejoin:round;stroke-miterlimit:10;" fill="none" stroke="#ffffff" stroke-width="15" stroke-linecap="round" stroke-linejoin="round" stroke-miterlimit="10" data-original="#000000" class="" opacity="1"></path><path d="M108.546 357.039V43.738c0-20.014 16.224-36.238 36.238-36.238h222.433c20.014 0 36.238 16.224 36.238 36.238v73.386M277.026 328.576c-7.95 0-15.048 3.634-19.732 9.329a1.673 1.673 0 0 1-2.587 0c-4.685-5.695-11.783-9.329-19.732-9.329-14.108 0-25.545 11.437-25.545 25.545 0 14.113 11.75 22.255 22.096 29.584 7.325 5.189 14.843 10.125 22.469 14.865a3.797 3.797 0 0 0 3.996.006c7.497-4.618 33.718-21.06 38.745-28.203 3.296-4.683 5.836-10.079 5.836-16.253-.001-14.107-11.438-25.544-25.546-25.544z" style="stroke-width:15;stroke-linecap:round;stroke-linejoin:round;stroke-miterlimit:10;" fill="none" stroke="#ffffff" stroke-width="15" stroke-linecap="round" stroke-linejoin="round" stroke-miterlimit="10" data-original="#000000" class="" opacity="1"></path><path d="M219.99 228.257c-14.739 8.39-26.268 21.771-32.291 37.843M324.301 266.099c-6.251-16.679-18.432-30.461-33.977-38.773" style="stroke-width:15;stroke-linecap:round;stroke-linejoin:round;stroke-miterlimit:10;" fill="none" stroke="#ffffff" stroke-width="15" stroke-linecap="round" stroke-linejoin="round" stroke-miterlimit="10" data-original="#000000" class="" opacity="1"></path><path d="M299.628 188.388v10.306c0 23.908-19.381 43.289-43.289 43.289h0c-23.908 0-43.289-19.381-43.289-43.289v-9.745" style="stroke-width:15;stroke-linecap:round;stroke-linejoin:round;stroke-miterlimit:10;" fill="none" stroke="#ffffff" stroke-width="15" stroke-linecap="round" stroke-linejoin="round" stroke-miterlimit="10" data-original="#000000" class="" opacity="1"></path><circle cx="256" cy="187.608" r="104.075" style="stroke-width:15;stroke-linecap:round;stroke-linejoin:round;stroke-miterlimit:10;" fill="none" stroke="#ffffff" stroke-width="15" stroke-linecap="round" stroke-linejoin="round" stroke-miterlimit="10" data-original="#000000" class="" opacity="1"></circle><path d="M299.628 188.388v-14.167c0-23.908-19.381-43.289-43.289-43.289h0c-23.908 0-43.289 19.381-43.289 43.289v14.167" style="stroke-width:15;stroke-linecap:round;stroke-linejoin:round;stroke-miterlimit:10;" fill="none" stroke="#ffffff" stroke-width="15" stroke-linecap="round" stroke-linejoin="round" stroke-miterlimit="10" data-original="#000000" class="" opacity="1"></path><path d="M213.049 185.31c27.915 0 38.32-9.594 41.769-14.365.724-1.001 2.318-1.001 3.041 0 3.449 4.771 13.854 14.365 41.769 14.365" style="stroke-width:15;stroke-linecap:round;stroke-linejoin:round;stroke-miterlimit:10;" fill="none" stroke="#ffffff" stroke-width="15" stroke-linecap="round" stroke-linejoin="round" stroke-miterlimit="10" data-original="#000000" class="" opacity="1"></path></g></svg>