<svg xmlns="http://www.w3.org/2000/svg" version="1.1" xmlns:xlink="http://www.w3.org/1999/xlink" width="512" height="512" x="0" y="0" viewBox="0 0 512 512" style="enable-background:new 0 0 512 512" xml:space="preserve" class=""><g><path d="m468.602 263.441-20.497-7.414v-77.922c0-41.964-34.14-76.105-76.105-76.105s-76.105 34.14-76.105 76.105v77.922l-14.41 5.211a105.71 105.71 0 0 0-28.68-15.773L184 220.578V198.29c17.39-11.21 28.938-30.734 28.938-52.922V64c0-5.523-4.477-10-10-10H131.03c-24.246 0-43.969 19.727-43.969 43.969v47.398c0 22.188 11.547 41.711 28.938 52.922V220.578l-69.77 25.234C18.578 255.816 0 282.29 0 311.695v149.121C0 489.04 22.96 512 51.184 512h409.632C489.04 512 512 489.04 512 460.816V325.29c0-27.602-17.441-52.46-43.398-61.848zm-152.707-85.336C315.895 147.168 341.063 122 372 122s56.105 25.168 56.105 56.105v118.79C428.105 327.832 402.937 353 372 353s-56.105-25.168-56.105-56.105zM107.063 97.97C107.063 84.754 117.816 74 131.03 74h61.907v71.367c0 23.676-19.262 42.938-42.938 42.938s-42.937-19.262-42.937-42.938zM150 208.305c4.813 0 9.492-.559 14-1.586v11.91h-28v-11.91a62.907 62.907 0 0 0 14 1.586zM58 377.629c-5.523 0-10 4.476-10 10v104.21c-15.703-1.6-28-14.902-28-31.023v-149.12c0-21.012 13.273-39.93 33.035-47.075l71.867-25.992h50.192l70.91 25.644a85.689 85.689 0 0 1 50.539 49.106l23.43 59.371a55.061 55.061 0 0 0 39.359 33.594l67.465 14.941c6.594 1.461 11.203 7.203 11.203 13.957 0 4.078-1.66 7.832-4.676 10.574-3.011 2.747-6.906 4.043-10.965 3.66l-83.921-7.902c-20.848-1.96-39.536-13.035-51.278-30.37l-36.86-54.442a9.982 9.982 0 0 0-8.3-4.43c-5.523 0-10 4.48-10 10V492H68V387.629c0-5.524-4.477-10-10-10zm194 17.308 18.602 27.477A90.135 90.135 0 0 0 286 439.82V492h-34zm54 58.075a90 90 0 0 0 30.563 8.476l83.925 7.903A34.391 34.391 0 0 0 438 466.41V492H306zm186 7.804C492 478.012 478.012 492 460.816 492H458v-56.758c0-16.207-11.055-29.976-26.879-33.484l-67.465-14.942a35.098 35.098 0 0 1-25.082-21.406l-.078-.203A75.644 75.644 0 0 0 372 373c41.965 0 76.105-34.14 76.105-76.105v-19.598l13.692 4.953C479.863 288.781 492 306.078 492 325.29zm0 0" fill="#fff" opacity="1" data-original="#fff" class=""></path><path d="M372 159.195c10.426 0 18.91 8.485 18.91 18.91 0 5.524 4.477 10 10 10 5.524 0 10-4.476 10-10 0-21.453-17.457-38.91-38.91-38.91-5.523 0-10 4.48-10 10 0 5.524 4.477 10 10 10zM65.07 342.559a10.046 10.046 0 0 0-7.07-2.93c-2.64 0-5.21 1.062-7.07 2.93a10.073 10.073 0 0 0-2.93 7.07c0 2.633 1.07 5.21 2.93 7.07 1.86 1.86 4.441 2.93 7.07 2.93s5.21-1.07 7.07-2.93a10.073 10.073 0 0 0 2.93-7.07c0-2.629-1.07-5.207-2.93-7.07zM452.578 39h9v9c0 5.523 4.477 10 10 10 5.52 0 10-4.477 10-10v-9h9c5.52 0 10-4.477 10-10s-4.48-10-10-10h-9v-9c0-5.523-4.48-10-10-10-5.523 0-10 4.477-10 10v9h-9c-5.523 0-10 4.477-10 10s4.477 10 10 10zM264 74.016h9v9c0 5.52 4.477 10 10 10s10-4.48 10-10v-9h9c5.523 0 10-4.48 10-10 0-5.524-4.477-10-10-10h-9v-9c0-5.524-4.477-10-10-10s-10 4.476-10 10v9h-9c-5.523 0-10 4.476-10 10 0 5.52 4.477 10 10 10zM400.91 209.629c-2.629 0-5.21 1.062-7.07 2.93a10.073 10.073 0 0 0-2.93 7.07c0 2.633 1.07 5.21 2.93 7.07s4.441 2.93 7.07 2.93 5.211-1.07 7.07-2.93a10.093 10.093 0 0 0 2.93-7.07c0-2.64-1.07-5.207-2.93-7.07a10.03 10.03 0 0 0-7.07-2.93zm0 0" fill="#fff" opacity="1" data-original="#fff" class=""></path></g></svg>