<svg xmlns="http://www.w3.org/2000/svg" version="1.1" xmlns:xlink="http://www.w3.org/1999/xlink" width="512" height="512" x="0" y="0" viewBox="0 0 426.667 426.667" style="enable-background:new 0 0 512 512" xml:space="preserve" class=""><g><path d="M213.333 0C95.467 0 0 95.467 0 213.333s95.467 213.333 213.333 213.333S426.667 331.2 426.667 213.333 331.2 0 213.333 0zM42.667 213.333c0-94.293 76.373-170.667 170.667-170.667 39.467 0 75.627 13.547 104.533 35.947L78.613 317.867c-22.4-28.907-35.946-65.067-35.946-104.534zM213.333 384c-39.467 0-75.627-13.547-104.533-35.947L348.053 108.8C370.453 137.707 384 173.867 384 213.333 384 307.627 307.627 384 213.333 384z" fill="#ffffff" opacity="1" data-original="#000000" class=""></path></g></svg>