<svg xmlns="http://www.w3.org/2000/svg" version="1.1" xmlns:xlink="http://www.w3.org/1999/xlink" width="512" height="512" x="0" y="0" viewBox="0 0 511.999 511.999" style="enable-background:new 0 0 512 512" xml:space="preserve" class=""><g><path d="m230.301 361.972-13.464 13.464c-9.474 9.474-24.837 9.474-34.311 0L136.56 329.47c-9.474-9.474-9.474-24.837 0-34.311l13.464-13.464M76.099 386.4l64.56-52.82 37.76 37.76-96.34 117.74c-15.75 19.25-44.68 20.69-62.27 3.11-17.58-17.59-16.14-46.52 3.11-62.27l26.14-21.39" style="stroke-width:15;stroke-linecap:round;stroke-linejoin:round;stroke-miterlimit:10;" fill="none" stroke="#fff" stroke-width="15" stroke-linecap="round" stroke-linejoin="round" stroke-miterlimit="10" data-original="#fff" class=""></path><path d="M479.959 288.12c15.62-27.39 24.54-59.09 24.54-92.87 0-103.69-84.06-187.75-187.75-187.75-103.7 0-187.76 84.06-187.76 187.75 0 103.7 84.06 187.76 187.76 187.76 57.38 0 108.75-25.74 143.18-66.3" style="stroke-width:15;stroke-linecap:round;stroke-linejoin:round;stroke-miterlimit:10;" fill="none" stroke="#fff" stroke-width="15" stroke-linecap="round" stroke-linejoin="round" stroke-miterlimit="10" data-original="#fff" class=""></path><circle cx="316.744" cy="195.254" r="150.542" style="stroke-width:15;stroke-linecap:round;stroke-linejoin:round;stroke-miterlimit:10;" fill="none" stroke="#fff" stroke-width="15" stroke-linecap="round" stroke-linejoin="round" stroke-miterlimit="10" data-original="#fff" class=""></circle><path d="M264.389 131.35c27.87-3.68 43.22 20.84 49.28 33.68 1.22 2.59 4.93 2.59 6.15 0 6.27-13.31 22.56-39.19 52.42-33.15 39.11 7.92 52.61 89.6-49.95 146.23a11.5 11.5 0 0 1-11.09 0c-75.22-41.54-88.02-96.55-74.05-126.05" style="stroke-width:15;stroke-linecap:round;stroke-linejoin:round;stroke-miterlimit:10;" fill="none" stroke="#fff" stroke-width="15" stroke-linecap="round" stroke-linejoin="round" stroke-miterlimit="10" data-original="#fff" class=""></path></g></svg>