<svg width="27" height="32" viewBox="0 0 27 32" fill="none" xmlns="http://www.w3.org/2000/svg">
<path d="M12.78 28.6999C12.912 28.8565 13.0455 29.0117 13.1996 29.1933C13.248 29.2504 13.245 29.3397 13.1922 29.3924C12.2885 30.2957 11.244 30.9369 9.98533 31.1712C7.62638 31.6118 5.65618 30.7891 3.97792 29.1845C1.55295 26.8669 0.308927 23.9945 0.0448655 20.6726C-0.251471 16.9452 0.926539 13.7272 3.38965 10.95C3.83415 10.4478 3.83415 10.4551 4.34761 10.8929C4.83906 11.3116 5.32464 11.7391 6.02587 11.764C6.82686 11.7933 7.36525 11.3658 7.79802 10.7626C8.7501 9.43324 9.20341 7.896 9.57897 6.33828C10.0704 4.30181 10.4489 2.30048 10.5252 0.201059C10.5252 0.183491 10.5281 0.160067 10.5325 0.130786C10.5457 0.0283038 10.6382 -0.0258653 10.7335 0.0121995C13.4988 1.12193 15.5908 3.04274 17.3512 5.37348C19.0632 7.64126 20.36 10.1096 21.0495 12.9396C21.0921 13.1167 21.208 13.1387 21.3121 12.9894C21.4031 12.8591 21.4911 12.7273 21.5674 12.5897C21.8857 12.0114 22.1835 11.4229 22.496 10.8416C22.6852 10.4903 22.8965 10.461 23.1782 10.7743C25.3127 13.1504 26.6007 15.8603 26.6784 19.1134C26.7313 21.3168 26.4041 23.425 25.455 25.4131C24.2902 27.8493 22.6632 29.8667 20.0666 30.893C17.7488 31.8095 15.1287 31.1258 13.5458 29.3675C13.5018 29.3177 13.4988 29.2343 13.5384 29.1815C13.6118 29.0849 13.6866 28.9868 13.7614 28.8887C13.7643 28.8843 13.7702 28.8785 13.7746 28.8741C13.9653 28.6823 14.1575 28.492 14.3482 28.3002C16.1409 26.5126 17.9321 24.7265 19.7248 22.9389C19.7366 22.917 19.7542 22.8848 19.7644 22.8628L19.9566 21.8834C19.9566 21.8819 19.9581 21.8775 19.9581 21.876L20.1825 20.98C20.1825 20.9595 20.1825 20.9288 20.1825 20.9083C20.0534 20.4076 19.9243 19.9084 19.7952 19.4077C19.7908 19.3974 19.785 19.3813 19.7806 19.3711L19.3331 18.5893C19.3258 18.5805 19.3155 18.5659 19.3082 18.5571C19.0808 18.3331 18.8534 18.1091 18.626 17.8851L18.629 17.888C17.8646 17.2292 16.9683 17.1443 16.0074 17.3434C16.003 17.3449 15.9971 17.3463 15.9942 17.3463L14.9072 17.6626C14.8954 17.6684 14.8763 17.6772 14.8646 17.683C14.3922 18.011 13.9199 18.3389 13.4475 18.6683C13.3917 18.6683 13.336 18.6683 13.2802 18.6683C12.8812 18.3946 12.4836 18.1193 12.0846 17.8456C12.0773 17.8412 12.067 17.8353 12.0597 17.8324L11.3144 17.5103C11.3071 17.5074 11.2968 17.5044 11.2895 17.5015C11.0298 17.44 10.7716 17.38 10.512 17.3185C10.5032 17.317 10.4885 17.3156 10.4782 17.3141L9.32224 17.3126C9.3017 17.317 9.27236 17.3258 9.25182 17.3302L8.07675 17.9641L7.8655 18.0769C7.85376 18.0857 7.83616 18.1003 7.82589 18.1091L7.50461 18.4692C7.50168 18.4722 7.49728 18.478 7.49435 18.4824L7.28896 18.7723H7.29337C7.176 18.967 7.05864 19.1617 6.94128 19.355C6.93688 19.3652 6.92955 19.3813 6.92514 19.3916C6.82245 19.762 6.71976 20.1338 6.61707 20.5042C6.61561 20.5159 6.61267 20.5335 6.6112 20.5438L6.61561 21.0869C6.61561 21.0928 6.61707 21.1016 6.61707 21.1074L6.7535 22.0268C6.75791 22.0415 6.76524 22.0634 6.77111 22.0766L7.35791 23.1234C7.36965 23.1453 7.37845 23.1834 7.37552 23.2083L7.37112 23.2595C7.38872 23.2991 7.40926 23.3474 7.42686 23.3869C7.93005 23.7837 8.32174 24.2931 8.77505 24.7411C10.1056 26.0588 11.4391 27.372 12.7712 28.6867C12.7727 28.6926 12.7771 28.697 12.78 28.6999Z" fill="#F16667"/>
</svg>
