<svg width="23" height="23" viewBox="0 0 23 23" fill="none" xmlns="http://www.w3.org/2000/svg">
<path d="M10.8783 3.04066C11.0796 2.63291 11.661 2.63291 11.8623 3.04066L14.0752 7.52391C14.1551 7.68568 14.3094 7.79786 14.4879 7.82395L19.4375 8.54742C19.8874 8.61317 20.0667 9.16614 19.741 9.48335L16.1603 12.9709C16.0309 13.097 15.9719 13.2787 16.0024 13.4567L16.8473 18.3831C16.9242 18.8313 16.4537 19.1731 16.0512 18.9614L11.6257 16.6341C11.4658 16.55 11.2748 16.55 11.1149 16.6341L6.68938 18.9614C6.28686 19.1731 5.81636 18.8313 5.89324 18.3831L6.73816 13.4567C6.7687 13.2787 6.70963 13.097 6.58022 12.9709L2.99955 9.48335C2.67386 9.16614 2.85316 8.61317 3.30301 8.54742L8.25268 7.82395C8.43119 7.79786 8.58546 7.68568 8.66531 7.52391L10.8783 3.04066Z" fill="white"/>
</svg>
