<svg width="23" height="27" viewBox="0 0 23 27" fill="none" xmlns="http://www.w3.org/2000/svg">
<path d="M10.8944 24.4655C11.007 24.5991 11.1208 24.7313 11.2521 24.8861C11.2933 24.9348 11.2908 25.0109 11.2458 25.0558C10.4755 25.8259 9.58507 26.3725 8.51209 26.5722C6.50117 26.9478 4.82166 26.2465 3.39102 24.8786C1.32383 22.903 0.263348 20.4544 0.038246 17.6226C-0.214368 14.4451 0.789837 11.7019 2.88954 9.33442C3.26846 8.90635 3.26846 8.91259 3.70616 9.28575C4.1251 9.64268 4.53904 10.0071 5.13681 10.0283C5.81962 10.0533 6.27857 9.68886 6.64749 9.17467C7.45911 8.04146 7.84553 6.73103 8.16568 5.40313C8.58462 3.66712 8.90727 1.96107 8.97229 0.171395C8.97229 0.156419 8.9748 0.13645 8.97855 0.11149C8.9898 0.0241279 9.06859 -0.0220492 9.14988 0.0103996C11.5072 0.956405 13.2905 2.59382 14.7912 4.58068C16.2506 6.51388 17.3561 8.61805 17.9439 11.0305C17.9801 11.1815 18.0789 11.2002 18.1677 11.0729C18.2452 10.9618 18.3203 10.8495 18.3853 10.7322C18.6567 10.2392 18.9105 9.73753 19.1769 9.24206C19.3382 8.94254 19.5183 8.91758 19.7584 9.18466C21.578 11.2102 22.676 13.5203 22.7423 16.2934C22.7873 18.1717 22.5084 19.9689 21.6993 21.6637C20.7064 23.7404 19.3195 25.4602 17.106 26.3351C15.1301 27.1163 12.8966 26.5335 11.5472 25.0346C11.5097 24.9922 11.5072 24.921 11.541 24.8761C11.6035 24.7937 11.6673 24.7101 11.731 24.6265C11.7335 24.6228 11.7385 24.6178 11.7423 24.614C11.9049 24.4505 12.0687 24.2883 12.2313 24.1248C13.7595 22.601 15.2864 21.0784 16.8146 19.5545C16.8246 19.5358 16.8396 19.5083 16.8484 19.4896L17.0122 18.6547C17.0122 18.6534 17.0134 18.6497 17.0134 18.6485L17.2048 17.8847C17.2048 17.8672 17.2048 17.841 17.2048 17.8235C17.0947 17.3967 16.9847 16.9711 16.8746 16.5443C16.8709 16.5355 16.8659 16.5218 16.8621 16.5131L16.4807 15.8466C16.4744 15.8391 16.4657 15.8267 16.4594 15.8192C16.2656 15.6282 16.0718 15.4373 15.8779 15.2463L15.8804 15.2488C15.2289 14.6872 14.4648 14.6148 13.6457 14.7846C13.6419 14.7858 13.6369 14.7871 13.6344 14.7871L12.7077 15.0566C12.6977 15.0616 12.6815 15.0691 12.6715 15.0741C12.2688 15.3537 11.8661 15.6332 11.4634 15.914C11.4159 15.914 11.3684 15.914 11.3209 15.914C10.9807 15.6806 10.6418 15.446 10.3016 15.2126C10.2954 15.2089 10.2866 15.2039 10.2804 15.2014L9.6451 14.9268C9.63885 14.9243 9.63009 14.9218 9.62384 14.9193C9.40249 14.8669 9.18239 14.8158 8.96104 14.7633C8.95354 14.7621 8.94103 14.7608 8.93228 14.7596L7.94683 14.7583C7.92932 14.7621 7.90431 14.7696 7.8868 14.7733L6.8851 15.3137L6.70502 15.4098C6.69501 15.4173 6.68 15.4298 6.67125 15.4373L6.39738 15.7443C6.39488 15.7468 6.39112 15.7518 6.38862 15.7555L6.21354 16.0026H6.2173C6.11725 16.1686 6.0172 16.3346 5.91716 16.4993C5.91341 16.5081 5.90715 16.5218 5.9034 16.5306C5.81586 16.8463 5.72832 17.1633 5.64079 17.4791C5.63953 17.489 5.63703 17.504 5.63578 17.5127L5.63953 17.9758C5.63953 17.9808 5.64079 17.9882 5.64079 17.9932L5.75709 18.777C5.76084 18.7895 5.76709 18.8082 5.77209 18.8194L6.27232 19.7118C6.28232 19.7305 6.28983 19.7629 6.28733 19.7842L6.28358 19.8278C6.29858 19.8615 6.31609 19.9027 6.3311 19.9364C6.76004 20.2746 7.09394 20.7089 7.48037 21.0908C8.61463 22.2141 9.7514 23.3336 10.8869 24.4543C10.8882 24.4593 10.8919 24.463 10.8944 24.4655Z" fill="white"/>
</svg>
