<svg width="153" height="126" viewBox="0 0 153 126" fill="none" xmlns="http://www.w3.org/2000/svg">
<path d="M79.5072 126C117.961 126 149.134 119.407 149.134 111.275C149.134 103.142 117.961 96.5497 79.5072 96.5497C41.0536 96.5497 9.88086 103.142 9.88086 111.275C9.88086 119.407 41.0536 126 79.5072 126Z" fill="white"/>
<path opacity="0.3" d="M79.5072 126C117.961 126 149.134 119.407 149.134 111.275C149.134 103.142 117.961 96.5497 79.5072 96.5497C41.0536 96.5497 9.88086 103.142 9.88086 111.275C9.88086 119.407 41.0536 126 79.5072 126Z" fill="white"/>
<path d="M0.0820527 12.6126C-0.00277068 12.3059 -0.0220977 11.9847 0.0253259 11.67C0.0727495 11.3552 0.185863 11.054 0.357316 10.7858C0.52877 10.5177 0.754727 10.2886 1.0205 10.1135C1.28628 9.93839 1.58593 9.82115 1.89997 9.76941C3.80152 9.51127 6.13573 12.0636 6.87744 13.6089C6.93925 13.7434 7.69914 15.9467 7.66278 15.9467C7.62642 15.9467 4.29236 16.0231 2.93619 15.4195C1.74727 14.9069 0.398371 13.9288 0.0820527 12.6126ZM48.9187 6.74439C48.6387 8.06784 47.3153 9.08224 46.1591 9.62762C45.0029 10.173 42.2578 10.2675 41.5852 10.2784C41.2216 10.7111 40.8326 11.1801 40.4144 11.7037C39.6873 12.6345 38.8801 13.6925 38.0802 14.8996C37.8657 15.2232 37.6476 15.5759 37.4294 15.9176C37.9166 15.4195 38.5892 14.7469 38.662 14.6887C40.0036 13.6234 43.2177 12.3472 44.8138 13.4089C45.0743 13.5921 45.2933 13.8281 45.4565 14.1015C45.6198 14.3749 45.7236 14.6796 45.7613 14.9958C45.7991 15.312 45.7698 15.6326 45.6755 15.9368C45.5811 16.2409 45.4238 16.5218 45.2137 16.7611C44.3521 17.8083 42.7123 18.0991 41.4325 18.0482C40.1527 17.9973 37.5967 16.7793 37.0513 16.5066C36.5823 17.2665 36.1169 18.0591 35.6806 18.9136C34.8682 20.4538 34.1953 22.0636 33.6699 23.7238L33.7681 23.771C34.1572 23.2584 35.0043 22.2004 35.0843 22.124C36.2987 20.9133 39.3564 19.2953 41.0616 20.1716C41.3374 20.3261 41.578 20.5366 41.7678 20.7894C41.9577 21.0422 42.0927 21.3319 42.1642 21.6399C42.2357 21.9479 42.2422 22.2674 42.1832 22.578C42.1242 22.8886 42.001 23.1835 41.8215 23.4438C41.0943 24.5818 39.4837 25.0509 38.2075 25.1381C36.7531 25.2436 33.6954 24.0946 33.5791 24.0474C33.1072 25.7105 32.7429 27.4022 32.4883 29.1121C32.292 30.3774 32.1429 31.6572 32.0047 32.9624C32.2702 32.5989 33.3827 31.2063 33.4591 31.1154C34.6734 29.9083 37.7312 28.2868 39.4328 29.1666C39.7119 29.3203 39.9556 29.531 40.1479 29.7851C40.3403 30.0392 40.4769 30.331 40.5489 30.6414C40.6209 30.9519 40.6268 31.274 40.566 31.5868C40.5053 31.8996 40.3793 32.1962 40.1963 32.4571C39.4691 33.5914 37.8584 34.0605 36.5823 34.1477C35.1461 34.2495 32.2192 33.1624 31.9793 33.057C31.9175 33.646 31.8557 34.2313 31.7975 34.824C31.6084 36.7474 31.4339 38.6816 31.1939 40.5832C31.1103 41.2413 31.0085 41.8884 30.9067 42.5356C31.3212 41.9975 32.092 41.034 32.1684 40.9577C33.3827 39.7506 36.4405 38.129 38.1457 39.0089C38.4219 39.163 38.6629 39.3732 38.853 39.626C39.0432 39.8788 39.1784 40.1686 39.25 40.4768C39.3215 40.7849 39.3279 41.1046 39.2685 41.4153C39.2092 41.7261 39.0856 42.021 38.9056 42.2811C38.1784 43.4155 36.5677 43.8845 35.2915 43.9754C34.0154 44.0663 31.5357 43.2046 30.8413 42.9501C30.6631 44.0409 30.4777 45.0916 30.2159 46.1278C30.0996 46.575 30.0123 47.0368 29.8741 47.4585L29.5105 48.7274C29.2197 49.5855 28.9543 50.3818 28.6634 51.1744C28.518 51.5743 28.3762 51.9488 28.2307 52.3378C28.5689 51.727 29.1215 50.7744 29.1797 50.6908C30.1977 49.3128 32.9719 47.2513 34.7898 47.8621C35.0891 47.9712 35.3621 48.1421 35.5909 48.3638C35.8197 48.5855 35.9991 48.853 36.1175 49.1488C36.2359 49.4446 36.2905 49.762 36.2779 50.0803C36.2653 50.3987 36.1856 50.7108 36.0442 50.9962C35.4842 52.2324 33.9754 52.9378 32.7246 53.2177C31.3503 53.5304 28.398 52.9305 28.038 52.8541C27.6744 53.8031 27.3109 54.7193 26.9691 55.5737C25.8783 58.2752 24.8421 60.4858 24.1041 62.0237L23.9841 62.271H29.3615L27.5036 98.4839C27.4527 99.8227 26.8841 101.089 25.9176 102.017C24.9511 102.945 23.6622 103.462 22.3225 103.458C20.9957 103.459 19.7193 102.95 18.7571 102.036C17.7949 101.123 17.2204 99.8744 17.1523 98.5494L15.2944 62.3364H21.0681C21.039 62.0855 21.01 61.8201 20.9772 61.522C20.7845 59.8495 20.4718 57.4571 19.9701 54.6139C19.8283 53.7922 19.6647 52.9232 19.4829 52.0324C19.1193 52.0797 16.1307 52.4578 14.7818 52.0324C13.5601 51.6688 12.1058 50.8399 11.6404 49.5673C11.5211 49.2721 11.4653 48.9551 11.4766 48.6369C11.4879 48.3187 11.5661 48.0064 11.706 47.7204C11.8459 47.4344 12.0445 47.181 12.2887 46.9768C12.533 46.7726 12.8175 46.6221 13.1238 46.535C14.9817 46.0587 17.5959 48.3275 18.5085 49.7746C18.5667 49.8691 19.1302 51.0435 19.4065 51.6507C19.2975 51.1126 19.192 50.5781 19.0684 50.0182C18.8939 49.2147 18.7048 48.3711 18.4903 47.5494C18.374 47.1277 18.254 46.7023 18.1267 46.2733C17.9995 45.8442 17.854 45.437 17.7195 45.008C17.5086 44.3899 17.2578 43.7609 16.9923 43.1319C16.1852 43.3573 13.8001 43.9718 12.5748 43.7936C11.3495 43.6155 9.74612 43.0228 9.0953 41.8375C8.93217 41.5637 8.82858 41.2585 8.79129 40.9419C8.75399 40.6253 8.78383 40.3045 8.87885 40.0002C8.97387 39.6959 9.13195 39.4151 9.34277 39.176C9.5536 38.9369 9.81244 38.7449 10.1024 38.6125C11.8658 37.8599 14.7927 39.7033 15.9198 41.0013C15.9561 41.0413 16.167 41.3394 16.4106 41.6957C16.1488 41.0922 15.8907 40.485 15.6071 39.8778C14.7999 38.1617 13.9237 36.4347 13.062 34.704C12.8802 34.3404 12.6984 33.9768 12.5239 33.6133C11.844 33.806 9.25164 34.4968 7.98274 34.3113C6.71383 34.1259 5.15405 33.5405 4.50324 32.3516C4.34283 32.0779 4.24162 31.7735 4.20616 31.4582C4.1707 31.1429 4.20178 30.8236 4.29737 30.5211C4.39297 30.2185 4.55096 29.9394 4.76115 29.7017C4.97134 29.464 5.22905 29.2731 5.51764 29.1412C7.28102 28.3922 10.2079 30.2319 11.335 31.5336C11.375 31.5772 11.6258 31.9335 11.8985 32.3371C11.4404 31.3881 10.9932 30.4392 10.5787 29.4793C9.86292 27.8412 9.25564 26.1578 8.76081 24.44C8.52448 24.5091 5.51764 25.3817 4.08875 25.1672C2.82348 24.9854 1.2637 24.3964 0.612885 23.2111C0.449641 22.9375 0.345866 22.6325 0.308318 22.3161C0.27077 21.9997 0.300293 21.6789 0.394961 21.3747C0.48963 21.0704 0.647322 20.7896 0.857769 20.5503C1.06822 20.3111 1.3267 20.1188 1.61638 19.9861C3.3834 19.2371 6.31025 21.0769 7.43372 22.3749C7.51371 22.4694 8.40086 23.7638 8.70263 24.2401C8.70102 24.2195 8.70102 24.1988 8.70263 24.1783C8.25794 22.4782 7.96591 20.7419 7.83003 18.9899C7.69636 17.4267 7.65266 15.857 7.69914 14.2888C7.7355 12.8344 7.85548 11.5037 7.97183 10.3293C8.04091 9.69306 8.11363 9.11133 8.18998 8.56958L8.15726 8.5914C8.12453 8.61322 7.48463 6.37354 7.45917 6.22811C7.17558 4.53744 7.62642 1.10884 9.328 0.225331C9.61516 0.0869357 9.92823 0.0105073 10.2469 0.00100907C10.5655 -0.00848915 10.8825 0.0491548 11.1774 0.170199C11.4723 0.291244 11.7385 0.472979 11.9585 0.703595C12.1786 0.934211 12.3477 1.20855 12.4548 1.50878C12.9493 2.77042 12.4039 4.34474 11.7277 5.43913C11.0514 6.53352 8.81898 8.12238 8.2736 8.50414C8.20816 9.06769 8.14271 9.67124 8.08454 10.3221C7.99364 11.4964 7.90275 12.8235 7.89911 14.2742C7.89911 14.6633 7.89911 15.0777 7.91729 15.4813C8.04818 14.7978 8.24088 13.867 8.28087 13.7761C8.80807 12.1473 10.786 9.3113 12.7057 9.31493C13.0241 9.3242 13.337 9.40042 13.6241 9.53863C13.9111 9.67685 14.1658 9.87396 14.3716 10.1171C14.5774 10.3603 14.7296 10.6441 14.8185 10.95C14.9073 11.256 14.9307 11.5772 14.8872 11.8927C14.749 13.2416 13.5383 14.3869 12.4439 15.0523C11.3495 15.7176 8.53175 16.1285 7.9282 16.1976C7.95728 17.092 8.00455 18.0155 8.11363 18.9608C8.28608 20.6927 8.61217 22.4059 9.08803 24.0801H9.19711C9.24074 23.4365 9.36436 22.0876 9.38617 21.9749C9.74975 20.2988 11.3859 17.2483 13.2947 17.0556C13.6122 17.03 13.9316 17.0715 14.232 17.1775C14.5324 17.2834 14.8071 17.4514 15.0383 17.6706C15.2694 17.8898 15.4519 18.1552 15.5737 18.4495C15.6955 18.7438 15.7539 19.0605 15.7453 19.3789C15.7453 20.7315 14.68 22.0077 13.6656 22.7857C12.4948 23.6838 9.32436 24.4037 9.20438 24.4291C9.72229 26.0802 10.3478 27.6955 11.0768 29.2648C11.6113 30.4283 12.1967 31.5881 12.7966 32.7443C12.8184 32.2898 12.9784 30.5192 13.0038 30.3919C13.3674 28.7158 15.0035 25.6653 16.9124 25.469C17.2297 25.4439 17.5489 25.4858 17.849 25.592C18.1492 25.6981 18.4237 25.8662 18.6547 26.0852C18.8857 26.3043 19.0682 26.5694 19.1902 26.8635C19.3122 27.1576 19.371 27.474 19.3629 27.7923C19.3629 29.1484 18.294 30.421 17.2796 31.1991C16.1379 32.0753 13.1056 32.7807 12.8475 32.8388C13.1202 33.3624 13.3929 33.8896 13.6692 34.4131C14.5745 36.1256 15.4871 37.8345 16.3452 39.5506C16.6397 40.1469 16.9087 40.7431 17.1814 41.3394C17.2287 40.6595 17.345 39.4306 17.3632 39.3252C17.7268 37.649 19.3666 34.5986 21.2717 34.4022C21.5892 34.3766 21.9086 34.4181 22.209 34.5241C22.5094 34.63 22.7841 34.798 23.0153 35.0172C23.2465 35.2364 23.4289 35.5018 23.5507 35.7961C23.6725 36.0904 23.731 36.4071 23.7223 36.7255C23.7223 38.0817 22.657 39.3543 21.6426 40.1323C20.6282 40.9104 18.0831 41.5612 17.3668 41.7357C17.814 42.7392 18.2431 43.7209 18.6067 44.7244C18.7557 45.1607 18.9339 45.5934 19.0539 46.0187L19.4393 47.2877C19.6683 48.1639 19.8865 48.9747 20.0828 49.7964C20.1846 50.2109 20.2682 50.6035 20.3628 51.0035C20.3082 50.3127 20.2428 49.211 20.2464 49.1092C20.3373 47.4004 21.5117 44.1463 23.366 43.6555C23.6761 43.582 23.9981 43.5747 24.3112 43.6341C24.6243 43.6934 24.9214 43.818 25.1831 43.9998C25.4448 44.1816 25.6653 44.4165 25.8302 44.6892C25.9951 44.9619 26.1007 45.2662 26.1401 45.5825C26.1657 45.7484 26.1767 45.9163 26.1728 46.0842C26.9195 47.3918 27.3188 48.8688 27.3327 50.3745C27.3327 50.4836 27.1545 51.7743 27.0491 52.4324C27.2563 51.9234 27.4599 51.418 27.6635 50.8871C27.9653 50.12 28.2562 49.3019 28.5471 48.5093L28.9543 47.2477C29.0997 46.8223 29.187 46.4005 29.3178 45.9678C29.4851 45.3352 29.6233 44.6699 29.7614 44.0118C28.9652 43.75 26.6346 42.9501 25.7111 42.1248C24.7876 41.2994 23.7805 39.9214 23.8932 38.5725C23.9088 38.2545 23.9911 37.9432 24.1347 37.659C24.2783 37.3747 24.4801 37.1239 24.7269 36.9226C24.9738 36.7214 25.2601 36.5743 25.5675 36.4909C25.8748 36.4074 26.1963 36.3895 26.511 36.4383C28.398 36.8019 29.8232 39.9396 30.0414 41.6376C30.0414 41.6921 30.0596 42.0557 30.0668 42.4883C30.1832 41.8412 30.3032 41.1904 30.3977 40.5286C30.674 38.6525 30.8922 36.7292 31.1249 34.8058C31.1721 34.4022 31.2267 34.0023 31.2739 33.6024C30.6013 33.3878 28.0708 32.5443 27.1036 31.679C26.1365 30.8137 25.173 29.4757 25.2857 28.1268C25.3002 27.8083 25.3817 27.4965 25.525 27.2117C25.6683 26.9269 25.8701 26.6755 26.1172 26.4741C26.3643 26.2726 26.6511 26.1256 26.9589 26.0426C27.2668 25.9596 27.5886 25.9426 27.9035 25.9925C29.7905 26.3561 31.2121 29.4939 31.4339 31.1918C31.4339 31.25 31.4339 31.6863 31.4594 32.1735C31.5975 31.1263 31.7502 30.0901 31.9357 29.0612C32.2373 27.2918 32.6588 25.545 33.1973 23.8328C32.9573 23.7601 29.9723 22.8294 28.8961 21.8695C27.9399 21.0151 26.9618 19.6662 27.0782 18.3173C27.0927 17.9988 27.1742 17.687 27.3175 17.4022C27.4608 17.1174 27.6626 16.866 27.9097 16.6646C28.1568 16.4631 28.4436 16.3161 28.7514 16.2331C29.0592 16.1501 29.3811 16.1331 29.696 16.183C31.5793 16.5466 33.0046 19.6844 33.2264 21.3823C33.2264 21.5023 33.2664 23.073 33.2555 23.6365C33.2555 23.6147 33.2555 23.5929 33.2736 23.5747C33.8417 21.9115 34.5559 20.3018 35.4079 18.7645C36.1644 17.3845 36.9996 16.0492 37.9093 14.7651C38.7419 13.5689 39.5746 12.529 40.3235 11.6128C40.7308 11.1183 41.1125 10.6747 41.4725 10.2639H41.4325C41.3961 10.2639 42.0978 8.03875 42.1596 7.90423C42.8577 6.34082 45.1228 3.72665 47.028 3.93025C47.3453 3.9735 47.6499 4.08343 47.9217 4.25281C48.1935 4.4222 48.4263 4.6472 48.6049 4.91303C48.7835 5.17885 48.9038 5.47947 48.9579 5.79511C49.0119 6.11076 48.9986 6.43428 48.9187 6.74439ZM26.9255 52.7741C26.5982 52.6178 24.0859 51.3743 23.1042 50.309C22.2545 50.7719 21.3779 51.1834 20.4791 51.5416C20.7009 52.5305 20.9118 53.494 21.0899 54.3994C21.6571 57.2644 22.0244 59.6713 22.257 61.362C22.3043 61.7256 22.3479 62.0419 22.3843 62.3364H22.5116L22.9333 61.5183C23.6932 60.0167 24.7512 57.8498 25.9074 55.1956C26.2419 54.4321 26.5837 53.6177 26.9255 52.7741ZM36.9749 16.1612C37.004 16.1612 37.5858 13.9252 37.6076 13.7761C37.8439 12.0818 37.3022 8.66412 35.5751 7.82788C35.2842 7.69744 34.969 7.62971 34.6501 7.62908C34.3312 7.62845 34.0158 7.69494 33.7243 7.82423C33.4328 7.95351 33.1718 8.14269 32.9582 8.37948C32.7447 8.61626 32.5833 8.89535 32.4847 9.19859C32.0229 10.4711 32.6119 12.0309 33.3064 13.1035C34.1208 14.3797 36.9713 16.1612 36.9749 16.1612Z" fill="white"/>
<path opacity="0.3" d="M0.0820527 12.6126C-0.00277068 12.3059 -0.0220977 11.9847 0.0253259 11.67C0.0727495 11.3552 0.185863 11.054 0.357316 10.7858C0.52877 10.5177 0.754727 10.2886 1.0205 10.1135C1.28628 9.93839 1.58593 9.82115 1.89997 9.76941C3.80152 9.51127 6.13573 12.0636 6.87744 13.6089C6.93925 13.7434 7.69914 15.9467 7.66278 15.9467C7.62642 15.9467 4.29236 16.0231 2.93619 15.4195C1.74727 14.9069 0.398371 13.9288 0.0820527 12.6126ZM48.9187 6.74439C48.6387 8.06784 47.3153 9.08224 46.1591 9.62762C45.0029 10.173 42.2578 10.2675 41.5852 10.2784C41.2216 10.7111 40.8326 11.1801 40.4144 11.7037C39.6873 12.6345 38.8801 13.6925 38.0802 14.8996C37.8657 15.2232 37.6476 15.5759 37.4294 15.9176C37.9166 15.4195 38.5892 14.7469 38.662 14.6887C40.0036 13.6234 43.2177 12.3472 44.8138 13.4089C45.0743 13.5921 45.2933 13.8281 45.4565 14.1015C45.6198 14.3749 45.7236 14.6796 45.7613 14.9958C45.7991 15.312 45.7698 15.6326 45.6755 15.9368C45.5811 16.2409 45.4238 16.5218 45.2137 16.7611C44.3521 17.8083 42.7123 18.0991 41.4325 18.0482C40.1527 17.9973 37.5967 16.7793 37.0513 16.5066C36.5823 17.2665 36.1169 18.0591 35.6806 18.9136C34.8682 20.4538 34.1953 22.0636 33.6699 23.7238L33.7681 23.771C34.1572 23.2584 35.0043 22.2004 35.0843 22.124C36.2987 20.9133 39.3564 19.2953 41.0616 20.1716C41.3374 20.3261 41.578 20.5366 41.7678 20.7894C41.9577 21.0422 42.0927 21.3319 42.1642 21.6399C42.2357 21.9479 42.2422 22.2674 42.1832 22.578C42.1242 22.8886 42.001 23.1835 41.8215 23.4438C41.0943 24.5818 39.4837 25.0509 38.2075 25.1381C36.7531 25.2436 33.6954 24.0946 33.5791 24.0474C33.1072 25.7105 32.7429 27.4022 32.4883 29.1121C32.292 30.3774 32.1429 31.6572 32.0047 32.9624C32.2702 32.5989 33.3827 31.2063 33.4591 31.1154C34.6734 29.9083 37.7312 28.2868 39.4328 29.1666C39.7119 29.3203 39.9556 29.531 40.1479 29.7851C40.3403 30.0392 40.4769 30.331 40.5489 30.6414C40.6209 30.9519 40.6268 31.274 40.566 31.5868C40.5053 31.8996 40.3793 32.1962 40.1963 32.4571C39.4691 33.5914 37.8584 34.0605 36.5823 34.1477C35.1461 34.2495 32.2192 33.1624 31.9793 33.057C31.9175 33.646 31.8557 34.2313 31.7975 34.824C31.6084 36.7474 31.4339 38.6816 31.1939 40.5832C31.1103 41.2413 31.0085 41.8884 30.9067 42.5356C31.3212 41.9975 32.092 41.034 32.1684 40.9577C33.3827 39.7506 36.4405 38.129 38.1457 39.0089C38.4219 39.163 38.6629 39.3732 38.853 39.626C39.0432 39.8788 39.1784 40.1686 39.25 40.4768C39.3215 40.7849 39.3279 41.1046 39.2685 41.4153C39.2092 41.7261 39.0856 42.021 38.9056 42.2811C38.1784 43.4155 36.5677 43.8845 35.2915 43.9754C34.0154 44.0663 31.5357 43.2046 30.8413 42.9501C30.6631 44.0409 30.4777 45.0916 30.2159 46.1278C30.0996 46.575 30.0123 47.0368 29.8741 47.4585L29.5105 48.7274C29.2197 49.5855 28.9543 50.3818 28.6634 51.1744C28.518 51.5743 28.3762 51.9488 28.2307 52.3378C28.5689 51.727 29.1215 50.7744 29.1797 50.6908C30.1977 49.3128 32.9719 47.2513 34.7898 47.8621C35.0891 47.9712 35.3621 48.1421 35.5909 48.3638C35.8197 48.5855 35.9991 48.853 36.1175 49.1488C36.2359 49.4446 36.2905 49.762 36.2779 50.0803C36.2653 50.3987 36.1856 50.7108 36.0442 50.9962C35.4842 52.2324 33.9754 52.9378 32.7246 53.2177C31.3503 53.5304 28.398 52.9305 28.038 52.8541C27.6744 53.8031 27.3109 54.7193 26.9691 55.5737C25.8783 58.2752 24.8421 60.4858 24.1041 62.0237L23.9841 62.271H29.3615L27.5036 98.4839C27.4527 99.8227 26.8841 101.089 25.9176 102.017C24.9511 102.945 23.6622 103.462 22.3225 103.458C20.9957 103.459 19.7193 102.95 18.7571 102.036C17.7949 101.123 17.2204 99.8744 17.1523 98.5494L15.2944 62.3364H21.0681C21.039 62.0855 21.01 61.8201 20.9772 61.522C20.7845 59.8495 20.4718 57.4571 19.9701 54.6139C19.8283 53.7922 19.6647 52.9232 19.4829 52.0324C19.1193 52.0797 16.1307 52.4578 14.7818 52.0324C13.5601 51.6688 12.1058 50.8399 11.6404 49.5673C11.5211 49.2721 11.4653 48.9551 11.4766 48.6369C11.4879 48.3187 11.5661 48.0064 11.706 47.7204C11.8459 47.4344 12.0445 47.181 12.2887 46.9768C12.533 46.7726 12.8175 46.6221 13.1238 46.535C14.9817 46.0587 17.5959 48.3275 18.5085 49.7746C18.5667 49.8691 19.1302 51.0435 19.4065 51.6507C19.2975 51.1126 19.192 50.5781 19.0684 50.0182C18.8939 49.2147 18.7048 48.3711 18.4903 47.5494C18.374 47.1277 18.254 46.7023 18.1267 46.2733C17.9995 45.8442 17.854 45.437 17.7195 45.008C17.5086 44.3899 17.2578 43.7609 16.9923 43.1319C16.1852 43.3573 13.8001 43.9718 12.5748 43.7936C11.3495 43.6155 9.74612 43.0228 9.0953 41.8375C8.93217 41.5637 8.82858 41.2585 8.79129 40.9419C8.75399 40.6253 8.78383 40.3045 8.87885 40.0002C8.97387 39.6959 9.13195 39.4151 9.34277 39.176C9.5536 38.9369 9.81244 38.7449 10.1024 38.6125C11.8658 37.8599 14.7927 39.7033 15.9198 41.0013C15.9561 41.0413 16.167 41.3394 16.4106 41.6957C16.1488 41.0922 15.8907 40.485 15.6071 39.8778C14.7999 38.1617 13.9237 36.4347 13.062 34.704C12.8802 34.3404 12.6984 33.9768 12.5239 33.6133C11.844 33.806 9.25164 34.4968 7.98274 34.3113C6.71383 34.1259 5.15405 33.5405 4.50324 32.3516C4.34283 32.0779 4.24162 31.7735 4.20616 31.4582C4.1707 31.1429 4.20178 30.8236 4.29737 30.5211C4.39297 30.2185 4.55096 29.9394 4.76115 29.7017C4.97134 29.464 5.22905 29.2731 5.51764 29.1412C7.28102 28.3922 10.2079 30.2319 11.335 31.5336C11.375 31.5772 11.6258 31.9335 11.8985 32.3371C11.4404 31.3881 10.9932 30.4392 10.5787 29.4793C9.86292 27.8412 9.25564 26.1578 8.76081 24.44C8.52448 24.5091 5.51764 25.3817 4.08875 25.1672C2.82348 24.9854 1.2637 24.3964 0.612885 23.2111C0.449641 22.9375 0.345866 22.6325 0.308318 22.3161C0.27077 21.9997 0.300293 21.6789 0.394961 21.3747C0.48963 21.0704 0.647322 20.7896 0.857769 20.5503C1.06822 20.3111 1.3267 20.1188 1.61638 19.9861C3.3834 19.2371 6.31025 21.0769 7.43372 22.3749C7.51371 22.4694 8.40086 23.7638 8.70263 24.2401C8.70102 24.2195 8.70102 24.1988 8.70263 24.1783C8.25794 22.4782 7.96591 20.7419 7.83003 18.9899C7.69636 17.4267 7.65266 15.857 7.69914 14.2888C7.7355 12.8344 7.85548 11.5037 7.97183 10.3293C8.04091 9.69306 8.11363 9.11133 8.18998 8.56958L8.15726 8.5914C8.12453 8.61322 7.48463 6.37354 7.45917 6.22811C7.17558 4.53744 7.62642 1.10884 9.328 0.225331C9.61516 0.0869357 9.92823 0.0105073 10.2469 0.00100907C10.5655 -0.00848915 10.8825 0.0491548 11.1774 0.170199C11.4723 0.291244 11.7385 0.472979 11.9585 0.703595C12.1786 0.934211 12.3477 1.20855 12.4548 1.50878C12.9493 2.77042 12.4039 4.34474 11.7277 5.43913C11.0514 6.53352 8.81898 8.12238 8.2736 8.50414C8.20816 9.06769 8.14271 9.67124 8.08454 10.3221C7.99364 11.4964 7.90275 12.8235 7.89911 14.2742C7.89911 14.6633 7.89911 15.0777 7.91729 15.4813C8.04818 14.7978 8.24088 13.867 8.28087 13.7761C8.80807 12.1473 10.786 9.3113 12.7057 9.31493C13.0241 9.3242 13.337 9.40042 13.6241 9.53863C13.9111 9.67685 14.1658 9.87396 14.3716 10.1171C14.5774 10.3603 14.7296 10.6441 14.8185 10.95C14.9073 11.256 14.9307 11.5772 14.8872 11.8927C14.749 13.2416 13.5383 14.3869 12.4439 15.0523C11.3495 15.7176 8.53175 16.1285 7.9282 16.1976C7.95728 17.092 8.00455 18.0155 8.11363 18.9608C8.28608 20.6927 8.61217 22.4059 9.08803 24.0801H9.19711C9.24074 23.4365 9.36436 22.0876 9.38617 21.9749C9.74975 20.2988 11.3859 17.2483 13.2947 17.0556C13.6122 17.03 13.9316 17.0715 14.232 17.1775C14.5324 17.2834 14.8071 17.4514 15.0383 17.6706C15.2694 17.8898 15.4519 18.1552 15.5737 18.4495C15.6955 18.7438 15.7539 19.0605 15.7453 19.3789C15.7453 20.7315 14.68 22.0077 13.6656 22.7857C12.4948 23.6838 9.32436 24.4037 9.20438 24.4291C9.72229 26.0802 10.3478 27.6955 11.0768 29.2648C11.6113 30.4283 12.1967 31.5881 12.7966 32.7443C12.8184 32.2898 12.9784 30.5192 13.0038 30.3919C13.3674 28.7158 15.0035 25.6653 16.9124 25.469C17.2297 25.4439 17.5489 25.4858 17.849 25.592C18.1492 25.6981 18.4237 25.8662 18.6547 26.0852C18.8857 26.3043 19.0682 26.5694 19.1902 26.8635C19.3122 27.1576 19.371 27.474 19.3629 27.7923C19.3629 29.1484 18.294 30.421 17.2796 31.1991C16.1379 32.0753 13.1056 32.7807 12.8475 32.8388C13.1202 33.3624 13.3929 33.8896 13.6692 34.4131C14.5745 36.1256 15.4871 37.8345 16.3452 39.5506C16.6397 40.1469 16.9087 40.7431 17.1814 41.3394C17.2287 40.6595 17.345 39.4306 17.3632 39.3252C17.7268 37.649 19.3666 34.5986 21.2717 34.4022C21.5892 34.3766 21.9086 34.4181 22.209 34.5241C22.5094 34.63 22.7841 34.798 23.0153 35.0172C23.2465 35.2364 23.4289 35.5018 23.5507 35.7961C23.6725 36.0904 23.731 36.4071 23.7223 36.7255C23.7223 38.0817 22.657 39.3543 21.6426 40.1323C20.6282 40.9104 18.0831 41.5612 17.3668 41.7357C17.814 42.7392 18.2431 43.7209 18.6067 44.7244C18.7557 45.1607 18.9339 45.5934 19.0539 46.0187L19.4393 47.2877C19.6683 48.1639 19.8865 48.9747 20.0828 49.7964C20.1846 50.2109 20.2682 50.6035 20.3628 51.0035C20.3082 50.3127 20.2428 49.211 20.2464 49.1092C20.3373 47.4004 21.5117 44.1463 23.366 43.6555C23.6761 43.582 23.9981 43.5747 24.3112 43.6341C24.6243 43.6934 24.9214 43.818 25.1831 43.9998C25.4448 44.1816 25.6653 44.4165 25.8302 44.6892C25.9951 44.9619 26.1007 45.2662 26.1401 45.5825C26.1657 45.7484 26.1767 45.9163 26.1728 46.0842C26.9195 47.3918 27.3188 48.8688 27.3327 50.3745C27.3327 50.4836 27.1545 51.7743 27.0491 52.4324C27.2563 51.9234 27.4599 51.418 27.6635 50.8871C27.9653 50.12 28.2562 49.3019 28.5471 48.5093L28.9543 47.2477C29.0997 46.8223 29.187 46.4005 29.3178 45.9678C29.4851 45.3352 29.6233 44.6699 29.7614 44.0118C28.9652 43.75 26.6346 42.9501 25.7111 42.1248C24.7876 41.2994 23.7805 39.9214 23.8932 38.5725C23.9088 38.2545 23.9911 37.9432 24.1347 37.659C24.2783 37.3747 24.4801 37.1239 24.7269 36.9226C24.9738 36.7214 25.2601 36.5743 25.5675 36.4909C25.8748 36.4074 26.1963 36.3895 26.511 36.4383C28.398 36.8019 29.8232 39.9396 30.0414 41.6376C30.0414 41.6921 30.0596 42.0557 30.0668 42.4883C30.1832 41.8412 30.3032 41.1904 30.3977 40.5286C30.674 38.6525 30.8922 36.7292 31.1249 34.8058C31.1721 34.4022 31.2267 34.0023 31.2739 33.6024C30.6013 33.3878 28.0708 32.5443 27.1036 31.679C26.1365 30.8137 25.173 29.4757 25.2857 28.1268C25.3002 27.8083 25.3817 27.4965 25.525 27.2117C25.6683 26.9269 25.8701 26.6755 26.1172 26.4741C26.3643 26.2726 26.6511 26.1256 26.9589 26.0426C27.2668 25.9596 27.5886 25.9426 27.9035 25.9925C29.7905 26.3561 31.2121 29.4939 31.4339 31.1918C31.4339 31.25 31.4339 31.6863 31.4594 32.1735C31.5975 31.1263 31.7502 30.0901 31.9357 29.0612C32.2373 27.2918 32.6588 25.545 33.1973 23.8328C32.9573 23.7601 29.9723 22.8294 28.8961 21.8695C27.9399 21.0151 26.9618 19.6662 27.0782 18.3173C27.0927 17.9988 27.1742 17.687 27.3175 17.4022C27.4608 17.1174 27.6626 16.866 27.9097 16.6646C28.1568 16.4631 28.4436 16.3161 28.7514 16.2331C29.0592 16.1501 29.3811 16.1331 29.696 16.183C31.5793 16.5466 33.0046 19.6844 33.2264 21.3823C33.2264 21.5023 33.2664 23.073 33.2555 23.6365C33.2555 23.6147 33.2555 23.5929 33.2736 23.5747C33.8417 21.9115 34.5559 20.3018 35.4079 18.7645C36.1644 17.3845 36.9996 16.0492 37.9093 14.7651C38.7419 13.5689 39.5746 12.529 40.3235 11.6128C40.7308 11.1183 41.1125 10.6747 41.4725 10.2639H41.4325C41.3961 10.2639 42.0978 8.03875 42.1596 7.90423C42.8577 6.34082 45.1228 3.72665 47.028 3.93025C47.3453 3.9735 47.6499 4.08343 47.9217 4.25281C48.1935 4.4222 48.4263 4.6472 48.6049 4.91303C48.7835 5.17885 48.9038 5.47947 48.9579 5.79511C49.0119 6.11076 48.9986 6.43428 48.9187 6.74439ZM26.9255 52.7741C26.5982 52.6178 24.0859 51.3743 23.1042 50.309C22.2545 50.7719 21.3779 51.1834 20.4791 51.5416C20.7009 52.5305 20.9118 53.494 21.0899 54.3994C21.6571 57.2644 22.0244 59.6713 22.257 61.362C22.3043 61.7256 22.3479 62.0419 22.3843 62.3364H22.5116L22.9333 61.5183C23.6932 60.0167 24.7512 57.8498 25.9074 55.1956C26.2419 54.4321 26.5837 53.6177 26.9255 52.7741ZM36.9749 16.1612C37.004 16.1612 37.5858 13.9252 37.6076 13.7761C37.8439 12.0818 37.3022 8.66412 35.5751 7.82788C35.2842 7.69744 34.969 7.62971 34.6501 7.62908C34.3312 7.62845 34.0158 7.69494 33.7243 7.82423C33.4328 7.95351 33.1718 8.14269 32.9582 8.37948C32.7447 8.61626 32.5833 8.89535 32.4847 9.19859C32.0229 10.4711 32.6119 12.0309 33.3064 13.1035C34.1208 14.3797 36.9713 16.1612 36.9749 16.1612Z" fill="white"/>
<path d="M139.902 29.0176C139.902 29.0176 136.346 31.7372 135.855 33.8314C135.364 35.9257 135.997 38.1545 136.415 39.4815C136.833 40.8086 136.902 47.2259 132.997 50.0837C129.092 52.9414 127.347 55.8028 127.765 59.3623C128.183 62.9218 133.484 66.8267 137.88 67.7248C142.276 68.6228 148.482 66.6086 150.922 61.3766C153.362 56.1446 150.086 50.3745 148.271 47.1023C146.457 43.83 146.599 40.7541 148.635 40.6159C150.671 40.4778 151.704 40.9795 151.776 38.1036C151.849 35.2276 151.147 30.781 147.45 28.5486C143.752 26.3162 139.902 29.0176 139.902 29.0176Z" fill="#263238" stroke="#263238" stroke-linecap="round" stroke-linejoin="round"/>
<path d="M131.147 64.1034C131.51 64.347 134.783 65.6814 137.204 61.9219C139.626 58.1625 136.328 54.6975 136.964 51.378" stroke="white" stroke-width="0.5" stroke-miterlimit="10"/>
<path d="M143.88 33.3443C143.88 33.3443 142.746 29.6794 145.203 30.8683C147.839 32.1408 149.93 38.14 149.021 39.5034" stroke="white" stroke-width="0.5" stroke-miterlimit="10"/>
<path d="M143.203 32.8679C143.203 32.8679 141.839 30.2319 142.748 29.0503C143.657 27.8686 145.748 29.2321 146.838 30.0501" stroke="white" stroke-width="0.5" stroke-miterlimit="10"/>
<path d="M146.293 40.0488C146.293 40.0488 146.657 41.6849 145.566 44.9572C144.475 48.2294 142.475 51.9561 144.475 55.4102C146.475 58.8642 148.02 61.2275 145.748 64.6816" stroke="white" stroke-width="0.5" stroke-miterlimit="10"/>
<path d="M146.294 41.9576C146.373 44.0887 146.221 46.2221 145.839 48.3203C145.203 51.9561 147.203 54.3194 149.294 56.5918C151.384 58.8642 150.839 60.7731 150.112 62.8637" stroke="white" stroke-width="0.5" stroke-miterlimit="10"/>
<path d="M143.112 33.4133C143.112 33.4133 138.839 33.7769 137.567 33.2315C136.294 32.6862 136.567 32.2317 136.567 32.2317" stroke="white" stroke-width="0.5" stroke-miterlimit="10"/>
<path d="M143.679 47.9349C143.679 47.9349 144.236 53.585 144.948 56.8537C145.661 60.1223 146.795 64.249 146.512 65.387C146.228 66.525 139.967 76.1927 139.967 76.1927L138.12 74.9129L141.96 63.3945L138.727 52.5961C138.727 52.5961 141.687 48.2585 143.679 47.9349Z" fill="white" stroke="#263238" stroke-linecap="round" stroke-linejoin="round"/>
<path d="M143.181 47.015C142.273 45.9679 140.32 43.2483 140.32 43.2483L137.251 39.6124L132.997 33.7551C132.438 32.9879 130.554 33.2642 125.115 33.337C119.676 33.4097 103.165 30.2683 103.165 30.2683L102.609 33.9042C102.609 33.9042 117.72 37.1764 121.555 37.54C125.391 37.9036 128.951 38.3762 128.951 38.3762C128.427 39.4199 127.961 40.4917 127.555 41.5867C127.137 42.8411 122.254 49.5383 122.254 49.5383C122.254 49.5383 122.134 49.611 121.926 49.7491C121.872 50.9635 121.988 53.5413 123.802 54.9011C125.206 55.9519 127.26 56.3955 128.744 56.5809C128.769 56.4973 128.791 56.4246 128.809 56.3736C129.02 55.8137 130.554 54.9775 131.39 54.9193C132.227 54.8611 134.808 54.9884 136.346 54.8502C137.884 54.7121 138.717 52.6178 138.717 52.6178C138.717 52.6178 142.105 49.3092 143.665 47.9567C143.568 47.6136 143.404 47.2934 143.181 47.015Z" fill="white" stroke="#263238" stroke-linecap="round" stroke-linejoin="round"/>
<path d="M130.881 39.2198L128.951 38.3654L130.354 40.5978" stroke="#263238" stroke-width="0.75" stroke-linecap="round" stroke-linejoin="round"/>
<path d="M126.012 51.9234C127.465 52.8249 129.184 53.1985 130.88 52.9814" stroke="#263238" stroke-width="0.75" stroke-linecap="round" stroke-linejoin="round"/>
<path d="M124.41 49.3819C124.41 49.3819 124.726 50.6544 126.74 51.5016" stroke="#263238" stroke-width="0.75" stroke-linecap="round" stroke-linejoin="round"/>
<path d="M141.948 63.3945C141.948 63.3945 143.268 62.8273 144.326 64.3107" stroke="#263238" stroke-width="0.75" stroke-linecap="round" stroke-linejoin="round"/>
<path d="M142.316 53.5122L138.716 52.596L141.891 55.1011" stroke="#263238" stroke-width="0.75" stroke-linecap="round" stroke-linejoin="round"/>
<path d="M132.471 35.104C132.471 35.104 130.671 38.2781 128.555 38.1726C125.679 38.0272 117.542 35.6275 117.542 34.784C117.542 33.9405 119.767 33.6205 119.767 33.6205" stroke="#263238" stroke-width="0.75" stroke-linecap="round" stroke-linejoin="round"/>
<path d="M138.716 37.7364C138.716 37.7364 137.262 37.3728 136.204 38.0163C135.146 38.6599 132.368 44.7135 132.368 44.7135C132.368 44.7135 132.575 44.9935 133.415 44.9935C134.255 44.9935 134.462 46.1097 134.462 47.1532C134.462 48.1967 134.39 48.6875 134.739 48.6075C135.088 48.5275 137.182 47.7713 137.6 48.0512C138.018 48.3312 137.04 49.7237 137.236 49.8692C137.433 50.0146 139.189 48.2621 139.749 46.3788C140.309 44.4954 140.865 41.7067 140.723 40.5905C140.581 39.4743 139.68 38.0127 138.716 37.7364Z" fill="white" stroke="#263238" stroke-linecap="round" stroke-linejoin="round"/>
<path d="M139.901 43.5282C139.133 44.3852 138.319 45.1997 137.462 45.9679C135.854 47.4222 134.531 48.4802 134.6 47.7858C134.669 47.0913 136.273 43.321 136.691 41.2413C137.109 39.1616 137.88 37.7509 138.716 37.7509C139.552 37.7509 141.366 42.0121 139.901 43.5282Z" fill="white" stroke="#263238" stroke-linecap="round" stroke-linejoin="round"/>
<path d="M139.066 34.5295C139.121 34.6993 139.212 34.8555 139.333 34.9877C139.453 35.1199 139.6 35.2252 139.764 35.2967C140.251 35.4348 143.88 33.3442 143.88 33.3442C143.88 33.3442 146.461 38.8525 146.039 39.6888C145.617 40.525 144.367 41.5758 142.971 42.5502C141.574 43.5246 138.997 44.2954 138.019 43.7355C137.041 43.1756 137.739 37.46 137.739 37.46C137.739 37.46 136.971 36.551 137.808 35.0858C138.644 33.6206 139.066 34.5295 139.066 34.5295Z" fill="white" stroke="#263238" stroke-linecap="round" stroke-linejoin="round"/>
<path d="M144.97 39.4327C144.97 39.4327 145.032 39 144.225 39C143.418 39 142 40.4834 142 40.4834" stroke="#263238" stroke-width="0.75" stroke-linecap="round" stroke-linejoin="round"/>
<path d="M141.381 41.394L140.948 40.9614" stroke="#263238" stroke-width="0.75" stroke-linecap="round" stroke-linejoin="round"/>
<path d="M140.77 42.2011C140.77 42.2011 139.658 42.0157 139.472 40.5905L140.77 42.2011Z" fill="#263238"/>
<path d="M140.77 42.2011C140.77 42.2011 139.658 42.0157 139.472 40.5905" stroke="#263238" stroke-width="0.75" stroke-linecap="round" stroke-linejoin="round"/>
<path d="M143.346 37.9727C143.346 37.9727 143.069 36.6165 141.891 36.3547L143.346 37.9727Z" fill="#263238"/>
<path d="M143.346 37.9727C143.346 37.9727 143.069 36.6165 141.891 36.3547" stroke="#263238" stroke-width="0.75" stroke-linecap="round" stroke-linejoin="round"/>
<path d="M141.945 38.6999C141.661 38.9217 141.349 38.9944 141.243 38.8599C141.138 38.7253 141.279 38.4381 141.559 38.2163C141.839 37.9945 142.156 37.9218 142.261 38.0563C142.367 38.1909 142.225 38.4781 141.945 38.6999Z" fill="#263238"/>
<path d="M143.697 40.9904C143.465 41.1722 143.206 41.234 143.119 41.1213C143.032 41.0086 143.148 40.7577 143.381 40.5868C143.614 40.4159 143.872 40.3468 143.959 40.4559C144.046 40.565 143.93 40.8049 143.697 40.9904Z" fill="#263238"/>
<path d="M136.91 100.356L140.477 105.312C140.477 105.312 140.477 106.221 139.204 106.221C137.932 106.221 137.204 106.221 136.477 105.312C135.75 104.403 135.75 103.858 135.023 103.494C134.296 103.131 133.569 103.131 133.932 101.131C134.296 99.1312 136.91 100.356 136.91 100.356Z" fill="white" stroke="#979797" stroke-linecap="round" stroke-linejoin="round"/>
<path d="M140.462 105.425C139.897 105.696 139.263 105.79 138.644 105.694C137.357 105.461 136.575 104.174 136.099 103.621C135.623 103.069 135.041 103.072 134.492 102.611C134.231 102.388 134.003 102.128 133.816 101.84C133.739 103.134 134.368 103.178 134.994 103.494C135.721 103.858 135.721 104.403 136.448 105.312C137.175 106.221 137.902 106.221 139.175 106.221C140.197 106.221 140.408 105.668 140.462 105.425Z" fill="white" stroke="#979797" stroke-linecap="round" stroke-linejoin="round"/>
<path d="M136.706 99.7275C135.979 97.546 134.943 84.486 134.405 80.3521C133.314 71.946 128.464 61.0348 128.464 61.0348L128.744 56.57C127.26 56.3846 125.206 55.941 123.803 54.8903C121.985 53.5305 121.872 50.9527 121.927 49.7383C121.007 50.3309 118.291 52.1161 115.975 53.9922C113.117 56.2937 111.161 64.4562 110.605 67.034C110.048 69.6118 109.419 77.2143 109.419 77.2143C109.419 77.2143 104.395 79.1668 102.373 81.9409C100.352 84.7151 94.2106 91.0087 94.2106 91.0087L94.7705 93.103C94.7705 93.103 96.6539 91.7795 98.2573 90.5215C99.8607 89.2635 112.35 82.29 113.186 81.7955C114.022 81.301 115.004 80.3412 116.117 77.5416C116.524 76.5199 117.098 74.8474 117.665 73.1349L119.603 67.0994L121.468 65.5106C123.308 70.4844 127.584 80.0721 128.191 81.4428C128.918 83.0862 129.471 90.3943 131.482 94.9645C133.492 99.5348 134.027 101.727 134.027 101.727C134.027 101.727 137.437 101.92 136.706 99.7275Z" fill="#263238" stroke="#263238" stroke-linecap="round" stroke-linejoin="round"/>
<path d="M128.624 57.4316L129.318 61.4856" stroke="white" stroke-width="0.5" stroke-miterlimit="10"/>
<path d="M30.3068 26.1198L19.8064 115.307C19.7922 115.435 19.8143 115.565 19.8702 115.682C19.9261 115.798 20.0135 115.897 20.1226 115.966C20.2316 116.035 20.358 116.073 20.4872 116.074C20.6164 116.075 20.7433 116.04 20.8536 115.972L27.6017 111.82C28.0022 111.572 28.4835 111.489 28.944 111.589C29.4046 111.688 29.8084 111.963 30.0704 112.355L38.5492 124.96L42.0869 71.935L30.3068 26.1198Z" fill="white" stroke="#979797" stroke-linecap="round" stroke-linejoin="round"/>
<path d="M30.2418 28.3631L20.7522 113.078C20.7317 113.261 20.765 113.446 20.8481 113.61C20.9311 113.774 21.0602 113.911 21.2197 114.003C21.3791 114.094 21.5619 114.138 21.7456 114.127C21.9293 114.117 22.1059 114.053 22.2538 113.944L27.1877 110.308C27.4443 110.118 27.7369 109.983 28.0476 109.91C28.3584 109.837 28.6807 109.828 28.9949 109.885C29.309 109.941 29.6084 110.06 29.8747 110.236C30.141 110.412 30.3686 110.641 30.5435 110.908L36.3173 119.721C36.3798 119.819 36.4734 119.893 36.583 119.931C36.6926 119.97 36.812 119.971 36.9221 119.933C37.0321 119.896 37.1265 119.823 37.1902 119.726C37.2539 119.629 37.2832 119.513 37.2735 119.397L30.5326 28.3668C30.5256 28.3336 30.5076 28.3039 30.4814 28.2824C30.4552 28.2609 30.4225 28.249 30.3887 28.2485C30.3548 28.2481 30.3218 28.2592 30.2951 28.2801C30.2684 28.3009 30.2496 28.3302 30.2418 28.3631Z" fill="white" stroke="#979797" stroke-linecap="round" stroke-linejoin="round"/>
<path opacity="0.6" d="M30.3725 27.1343L20.7448 113.071C20.7243 113.254 20.7576 113.439 20.8406 113.603C20.9236 113.767 21.0528 113.904 21.2122 113.995C21.3716 114.087 21.5544 114.131 21.7381 114.12C21.9218 114.11 22.0985 114.046 22.2464 113.936L27.1802 110.3C27.4368 110.111 27.7294 109.975 28.0402 109.903C28.3509 109.83 28.6732 109.821 28.9874 109.877C29.3016 109.934 29.601 110.053 29.8673 110.229C30.1336 110.405 30.3612 110.633 30.5361 110.9L36.3098 119.714C36.3724 119.812 36.4659 119.886 36.5756 119.924C36.6852 119.963 36.8045 119.963 36.9146 119.926C37.0247 119.889 37.1191 119.816 37.1828 119.719C37.2465 119.622 37.2758 119.506 37.266 119.39L30.4416 27.1343C30.4392 27.127 30.4346 27.1207 30.4283 27.1162C30.4221 27.1117 30.4147 27.1093 30.407 27.1093C30.3994 27.1093 30.3919 27.1117 30.3857 27.1162C30.3795 27.1207 30.3749 27.127 30.3725 27.1343Z" fill="#979797"/>
<path d="M28.6153 109.835C28.9973 109.842 29.3718 109.942 29.7064 110.126C30.041 110.31 30.3254 110.574 30.535 110.893L36.3088 119.706C36.3713 119.804 36.4649 119.878 36.5745 119.917C36.6841 119.955 36.8035 119.956 36.9136 119.919C37.0236 119.882 37.118 119.809 37.1817 119.711C37.2454 119.614 37.2747 119.499 37.265 119.383L36.4396 108.243L28.4917 109.799C28.5339 109.807 28.5753 109.819 28.6153 109.835Z" fill="white" stroke="#979797" stroke-linecap="round" stroke-linejoin="round"/>
<path opacity="0.3" d="M28.6153 109.835C28.9973 109.842 29.3718 109.942 29.7064 110.126C30.041 110.31 30.3254 110.574 30.535 110.893L36.3088 119.706C36.3713 119.804 36.4649 119.878 36.5745 119.917C36.6841 119.955 36.8035 119.956 36.9136 119.919C37.0236 119.882 37.118 119.809 37.1817 119.711C37.2454 119.614 37.2747 119.499 37.265 119.383L36.4396 108.243L28.4917 109.799C28.5339 109.807 28.5753 109.819 28.6153 109.835Z" fill="#979797"/>
<path d="M30.5208 26.0653L38.5451 124.96L132.113 107.13L110.124 30.0029L30.5208 26.0653Z" fill="#979797" stroke="#979797" stroke-linecap="round" stroke-linejoin="round"/>
<path d="M34.8586 28.1995L40.3706 119.732L128.358 103.734L109.812 32.6207L34.8586 28.1995Z" fill="white" stroke="#979797" stroke-linecap="round" stroke-linejoin="round"/>
<path d="M40.2358 73.244L44.4207 116.631L124.366 102.094L116.938 69.4846L40.2358 73.244Z" fill="white" stroke="#979797" stroke-linecap="round" stroke-linejoin="round"/>
<path d="M55.6666 114.471L54.3395 100.535" stroke="#979797" stroke-linecap="round" stroke-linejoin="round"/>
<path d="M67.9016 112.315L66.6218 100.698" stroke="#979797" stroke-linecap="round" stroke-linejoin="round"/>
<path d="M79.8963 109.991L78.402 100.698" stroke="#979797" stroke-linecap="round" stroke-linejoin="round"/>
<path d="M92.2544 107.872L90.4764 96.7933" stroke="#979797" stroke-linecap="round" stroke-linejoin="round"/>
<path d="M103.14 105.908L101.624 95.0953" stroke="#979797" stroke-linecap="round" stroke-linejoin="round"/>
<path d="M113.579 103.978L111.321 90.976" stroke="#979797" stroke-linecap="round" stroke-linejoin="round"/>
<path d="M138.109 74.9128C138.109 74.9128 136.996 76.0327 136.924 76.6144C136.851 77.1962 137.433 78.9486 137.433 78.9486L139.185 79.2395L139.956 76.1927L138.109 74.9128Z" fill="white" stroke="#979797" stroke-linecap="round" stroke-linejoin="round"/>
<g style="mix-blend-mode:multiply" opacity="0.49">
<path d="M35.3029 53.4868C35.3029 53.4868 37.1499 80.0684 38.8478 89.7615C40.5457 99.4547 43.6944 113.962 43.6944 113.962C43.6944 113.962 98.232 105.519 125.137 94.1245L122.956 83.7042L35.3029 53.4868Z" fill="white"/>
</g>
<path d="M32.8369 27.2032L109.433 31.3299C109.433 31.3299 116.89 53.6722 124.311 66.2885C131.732 78.9049 143.97 78.0832 143.97 78.0832C143.97 78.0832 115.901 93.4301 94.039 101.6C71.2859 110.097 51.5542 111.624 51.5542 111.624C51.5542 111.624 33.5823 87.0746 32.8369 27.2032Z" fill="white" stroke="#979797" stroke-linecap="round" stroke-linejoin="round"/>
<path d="M41.6069 23.2258C40.1853 23.2258 39.1564 24.4874 38.8328 26.4653L40.2871 26.5453C40.5125 25.4036 40.9597 24.6801 41.6033 24.6801C42.3523 24.6801 43.1849 25.8836 43.1849 27.6142C43.1849 29.3449 42.3523 30.552 41.6033 30.552C41.4104 30.552 41.2255 30.6286 41.0891 30.765C40.9527 30.9013 40.8761 31.0863 40.8761 31.2792C40.8761 31.472 40.9527 31.657 41.0891 31.7933C41.2255 31.9297 41.4104 32.0063 41.6033 32.0063C43.3048 32.0063 44.6392 30.0757 44.6392 27.6142C44.6392 25.1528 43.3085 23.2258 41.6069 23.2258Z" fill="white" stroke="#263238" stroke-miterlimit="10"/>
<path d="M43.6934 28.7922C43.6237 29.0487 43.5338 29.2991 43.4243 29.5412" stroke="#979797" stroke-width="0.75" stroke-linecap="round" stroke-linejoin="round"/>
<path d="M39.5529 25.8108C39.5529 25.8108 40.0982 23.8402 41.7089 23.9493C42.9742 24.0365 44.0177 25.9162 43.8431 27.9269" stroke="#263238" stroke-width="0.75" stroke-linecap="round" stroke-linejoin="round"/>
<path d="M54.2383 23.862C52.8166 23.862 51.7877 25.1236 51.4641 27.1015L52.9184 27.1815C53.1439 26.0399 53.5911 25.3163 54.2346 25.3163C54.9836 25.3163 55.8162 26.5198 55.8162 28.2505C55.8162 29.9811 54.9836 31.1882 54.2346 31.1882C54.0418 31.1882 53.8568 31.2648 53.7204 31.4012C53.5841 31.5376 53.5075 31.7225 53.5075 31.9154C53.5075 32.1082 53.5841 32.2932 53.7204 32.4296C53.8568 32.5659 54.0418 32.6426 54.2346 32.6426C55.9362 32.6426 57.2706 30.7119 57.2706 28.2505C57.2706 25.789 55.9435 23.862 54.2383 23.862Z" fill="white" stroke="#263238" stroke-miterlimit="10"/>
<path d="M56.3284 29.4285C56.2587 29.6849 56.1688 29.9354 56.0593 30.1775" stroke="#979797" stroke-width="0.75" stroke-linecap="round" stroke-linejoin="round"/>
<path d="M52.1866 26.4471C52.1866 26.4471 52.732 24.4765 54.3427 24.5855C55.608 24.6728 56.6515 26.5525 56.4769 28.5631" stroke="#263238" stroke-width="0.75" stroke-linecap="round" stroke-linejoin="round"/>
<path d="M66.8757 24.4983C65.4541 24.4983 64.4252 25.7599 64.1016 27.7378L65.5559 27.8178C65.7813 26.6762 66.2285 25.9526 66.8721 25.9526C67.6211 25.9526 68.4537 27.1561 68.4537 28.8867C68.4537 30.6174 67.6211 31.8245 66.8721 31.8245C66.6792 31.8245 66.4943 31.9011 66.3579 32.0375C66.2215 32.1739 66.1449 32.3588 66.1449 32.5517C66.1449 32.7445 66.2215 32.9295 66.3579 33.0659C66.4943 33.2022 66.6792 33.2788 66.8721 33.2788C68.5736 33.2788 69.908 31.3482 69.908 28.8867C69.908 26.4253 68.5773 24.4983 66.8757 24.4983Z" fill="white" stroke="#263238" stroke-miterlimit="10"/>
<path d="M68.9634 30.0648C68.8938 30.3212 68.8038 30.5716 68.6943 30.8137" stroke="#979797" stroke-width="0.75" stroke-linecap="round" stroke-linejoin="round"/>
<path d="M64.8217 27.0834C64.8217 27.0834 65.367 25.1128 66.9777 25.2218C68.243 25.3091 69.2865 27.1888 69.1119 29.1994" stroke="#263238" stroke-width="0.75" stroke-linecap="round" stroke-linejoin="round"/>
<path d="M79.5107 25.1345C78.0891 25.1345 77.0602 26.3962 76.7366 28.3741L78.1909 28.454C78.4163 27.3124 78.8635 26.5889 79.5071 26.5889C80.2561 26.5889 81.0887 27.7923 81.0887 29.523C81.0887 31.2536 80.2561 32.4607 79.5071 32.4607C79.3142 32.4607 79.1293 32.5374 78.9929 32.6737C78.8565 32.8101 78.7799 32.995 78.7799 33.1879C78.7799 33.3808 78.8565 33.5657 78.9929 33.7021C79.1293 33.8385 79.3142 33.9151 79.5071 33.9151C81.2087 33.9151 82.543 31.9844 82.543 29.523C82.543 27.0615 81.2123 25.1345 79.5107 25.1345Z" fill="white" stroke="#263238" stroke-miterlimit="10"/>
<path d="M81.5972 30.701C81.5275 30.9575 81.4376 31.2079 81.3281 31.45" stroke="#979797" stroke-width="0.75" stroke-linecap="round" stroke-linejoin="round"/>
<path d="M77.4567 27.7196C77.4567 27.7196 78.002 25.749 79.6127 25.8581C80.878 25.9453 81.9215 27.8251 81.747 29.8357" stroke="#263238" stroke-width="0.75" stroke-linecap="round" stroke-linejoin="round"/>
<path d="M92.3734 25.6981C90.9518 25.6981 89.9229 26.9598 89.6029 28.9413L91.0572 29.0213C91.2863 27.8796 91.7335 27.1525 92.3734 27.1525C93.1224 27.1525 93.9586 28.3596 93.9586 30.0902C93.9586 31.8209 93.1224 33.0243 92.3734 33.0243C92.1806 33.0243 91.9956 33.1009 91.8592 33.2373C91.7229 33.3737 91.6463 33.5586 91.6463 33.7515C91.6463 33.9444 91.7229 34.1293 91.8592 34.2657C91.9956 34.4021 92.1806 34.4787 92.3734 34.4787C94.0786 34.4787 95.413 32.5517 95.413 30.0902C95.413 27.6288 94.0786 25.6981 92.3734 25.6981Z" fill="white" stroke="#263238" stroke-miterlimit="10"/>
<path d="M94.4611 31.2682C94.392 31.5236 94.302 31.7729 94.192 32.0135" stroke="#979797" stroke-width="0.75" stroke-linecap="round" stroke-linejoin="round"/>
<path d="M90.3193 28.2868C90.3193 28.2868 90.8684 26.3125 92.4754 26.4216C93.7443 26.5089 94.7841 28.3922 94.6133 30.4028" stroke="#263238" stroke-width="0.75" stroke-linecap="round" stroke-linejoin="round"/>
<path d="M104.733 26.378C103.311 26.378 102.282 27.6396 101.962 29.6175L103.416 29.7011C103.645 28.5595 104.093 27.8323 104.733 27.8323C105.482 27.8323 106.318 29.0394 106.318 30.7665C106.318 32.4935 105.482 33.7042 104.733 33.7042C104.54 33.7042 104.355 33.7808 104.218 33.9172C104.082 34.0536 104.005 34.2385 104.005 34.4314C104.005 34.6242 104.082 34.8092 104.218 34.9456C104.355 35.0819 104.54 35.1585 104.733 35.1585C106.438 35.1585 107.772 33.2279 107.772 30.7665C107.772 28.305 106.438 26.378 104.733 26.378Z" fill="white" stroke="#263238" stroke-miterlimit="10"/>
<path d="M106.819 31.9263C106.75 32.1831 106.66 32.4336 106.55 32.6753" stroke="#979797" stroke-width="0.75" stroke-linecap="round" stroke-linejoin="round"/>
<path d="M102.678 28.9485C102.678 28.9485 103.227 26.9743 104.835 27.0833C106.103 27.1706 107.143 29.0503 106.972 31.0609" stroke="#263238" stroke-width="0.75" stroke-linecap="round" stroke-linejoin="round"/>
<path d="M139.956 76.189C139.956 76.189 140.683 77.1852 140.683 77.6106C140.683 78.036 139.687 78.7486 139.687 79.7412C139.687 80.7338 138.407 80.4684 138.265 79.7412C138.123 79.014 138.549 78.036 138.549 78.036C138.549 78.036 137.956 77.6724 137.822 76.3926C137.687 75.1128 138.84 75.4764 138.84 75.4764L139.956 76.189Z" fill="white" stroke="#263238" stroke-linecap="round" stroke-linejoin="round"/>
<path d="M121.777 66.3468C116.509 57.388 110.975 43.241 109.008 38.0345L40.5564 35.2603C40.5127 85.853 55.8269 106.756 55.8269 106.756C55.8269 106.756 73.2608 105.407 93.367 97.895C112.688 90.6778 135.732 78.5632 135.732 78.5632C135.732 78.5632 128.333 77.4979 121.777 66.3468Z" fill="white" stroke="#979797" stroke-linecap="round" stroke-linejoin="round"/>
<path d="M109.008 38.0345L40.5563 35.2603C40.5563 40.2378 40.6981 44.9207 40.9599 49.331L113.248 48.6548C111.375 44.1936 109.866 40.285 109.008 38.0345Z" fill="#263238" stroke="#263238" stroke-linecap="round" stroke-linejoin="round"/>
<path d="M110.218 53.1159L113.454 53.0032" stroke="#263238" stroke-width="3" stroke-linecap="round" stroke-linejoin="round"/>
<path d="M100.708 53.4395L107.794 53.1959" stroke="#263238" stroke-width="3" stroke-linecap="round" stroke-linejoin="round"/>
<path d="M89.1921 53.8285L98.2999 53.5195" stroke="#263238" stroke-width="3" stroke-linecap="round" stroke-linejoin="round"/>
<path d="M77.4777 54.2249L87.1817 53.8976" stroke="#263238" stroke-width="3" stroke-linecap="round" stroke-linejoin="round"/>
<path d="M66.1517 54.6102L75.0486 54.3085" stroke="#263238" stroke-width="3" stroke-linecap="round" stroke-linejoin="round"/>
<path d="M54.2195 55.0175L63.1237 54.712" stroke="#263238" stroke-width="3" stroke-linecap="round" stroke-linejoin="round"/>
<path d="M43.7151 55.3738L52.0012 55.0902" stroke="#263238" stroke-width="3" stroke-linecap="round" stroke-linejoin="round"/>
<path d="M42.3665 63.1727L117.676 58.5842" stroke="#979797" stroke-linecap="round" stroke-linejoin="round"/>
<path d="M54.2665 62.5255C54.2665 62.5255 55.5027 82.5517 68.7044 104.781" stroke="#979797" stroke-linecap="round" stroke-linejoin="round"/>
<path d="M66.4177 61.722C66.4177 61.722 67.8103 84.6278 82.2845 101.4" stroke="#979797" stroke-linecap="round" stroke-linejoin="round"/>
<path d="M77.4196 61.0457C77.4196 61.0457 78.1467 82.1336 94.4171 97.2878" stroke="#979797" stroke-linecap="round" stroke-linejoin="round"/>
<path d="M88.8259 60.5549C88.8259 60.5549 90.622 83.9988 106.369 92.2558" stroke="#979797" stroke-linecap="round" stroke-linejoin="round"/>
<path d="M100.777 59.6132C100.777 59.6132 102.042 77.3452 118.149 87.0566" stroke="#979797" stroke-linecap="round" stroke-linejoin="round"/>
<path d="M110.186 59.0387C110.186 59.0387 114.52 77.2179 126.646 83.1043" stroke="#979797" stroke-linecap="round" stroke-linejoin="round"/>
<path d="M44.017 73.5021L120.937 65.0415" stroke="#979797" stroke-linecap="round" stroke-linejoin="round"/>
<path d="M46.0238 82.5517C46.0238 82.5517 62.4469 81.9081 124.514 70.4698" stroke="#979797" stroke-linecap="round" stroke-linejoin="round"/>
<path d="M48.9227 92.1322C48.9227 92.1322 64.9204 93.9501 127.595 73.993" stroke="#979797" stroke-linecap="round" stroke-linejoin="round"/>
<path d="M52.3833 100.491C52.3833 100.491 65.7196 104.908 131.23 76.858" stroke="#979797" stroke-linecap="round" stroke-linejoin="round"/>
<path d="M70.1223 45.1571L45.464 44.8262C45.2643 44.8232 45.0724 44.7479 44.9239 44.6142C44.7755 44.4804 44.6806 44.2974 44.6569 44.0991L44.446 42.1066C44.4336 41.9919 44.4457 41.876 44.4815 41.7663C44.5174 41.6567 44.5761 41.5559 44.6537 41.4707C44.7314 41.3854 44.8263 41.3177 44.9322 41.2719C45.038 41.226 45.1524 41.2032 45.2677 41.2049L69.6278 41.6267C69.8078 41.6298 69.9818 41.692 70.1231 41.8037C70.2643 41.9154 70.3649 42.0703 70.4095 42.2448L70.904 44.139C70.9349 44.2588 70.9382 44.3841 70.9135 44.5053C70.8888 44.6266 70.8367 44.7406 70.7614 44.8387C70.686 44.9368 70.5893 45.0165 70.4786 45.0717C70.3679 45.1268 70.246 45.156 70.1223 45.1571Z" fill="white"/>
</svg>
