<svg width="315" height="315" viewBox="0 0 315 315" fill="none" xmlns="http://www.w3.org/2000/svg">
<g clip-path="url(#clip0_2303_2)">
<mask id="mask0_2303_2" style="mask-type:luminance" maskUnits="userSpaceOnUse" x="0" y="0" width="315" height="315">
<path d="M315 0H0V315H315V0Z" fill="white"/>
</mask>
<g mask="url(#mask0_2303_2)">
<path d="M314.447 157.276C314.447 243.863 244.254 314.056 157.667 314.056C71.08 314.056 0.886963 243.863 0.886963 157.276C0.886963 70.6891 71.08 0.496094 157.667 0.496094C244.254 0.496094 314.447 70.6891 314.447 157.276Z" fill="#FDFFF3"/>
<path d="M132.658 180.11C132.658 180.11 161.06 165.586 197.996 181.823L197.23 211.082L129.019 209.294L132.658 180.11Z" fill="#A8364D"/>
<path d="M191.634 206.832C190.865 207.486 180.909 215.613 162.665 215.312C144.111 215.006 134.07 206.264 133.374 205.634C136.709 192.764 140.045 179.894 143.38 167.024L186.531 168.154C188.231 181.047 189.933 193.939 191.634 206.832Z" fill="url(#paint0_linear_2303_2)"/>
<mask id="mask1_2303_2" style="mask-type:alpha" maskUnits="userSpaceOnUse" x="0" y="0" width="315" height="315">
<path d="M314.447 157.276C314.447 243.863 244.254 314.056 157.667 314.056C71.08 314.056 0.886963 243.863 0.886963 157.276C0.886963 70.6891 71.08 0.496094 157.667 0.496094C244.254 0.496094 314.447 70.6891 314.447 157.276Z" fill="#E9E9F3"/>
</mask>
<g mask="url(#mask1_2303_2)">
<path d="M135.962 202.642L18.3832 248.189C18.3832 248.189 28.5981 290.658 45.5975 300.56C81.0999 321.243 123.367 332.173 164.439 333.272C202.877 334.3 243.493 326.126 276.701 306.744C295.052 296.034 306.468 250.379 306.468 250.379L198.785 208.097L135.962 202.642Z" fill="url(#paint1_linear_2303_2)"/>
<path d="M159.114 193.917C160.346 203.056 161.577 212.197 162.809 221.336C160.607 221.941 156.319 222.804 151.072 221.79C145.623 220.737 141.868 218.185 140.057 216.769C142.936 208.462 145.813 200.155 148.692 191.847C152.166 192.537 155.64 193.227 159.114 193.917Z" fill="#DA3E24"/>
<path d="M169.407 193.467C167.207 202.757 165.008 212.045 162.809 221.335C165.323 221.674 168.97 221.865 173.222 221.027C179.227 219.844 183.54 217.18 185.903 215.454C185.471 206.642 185.039 197.828 184.606 189.016C182.842 190.057 180.536 191.199 177.731 192.069C174.487 193.075 171.608 193.398 169.407 193.467Z" fill="#DA3E24"/>
<path d="M131.872 180.089C135.159 182.179 138.817 184.29 142.851 186.305C148.929 189.341 154.66 191.566 159.797 193.215C156.887 202.72 153.978 212.223 151.068 221.727C151.068 221.727 127.181 219.484 121.302 209.091L131.872 180.089Z" fill="#FAB84E"/>
<path d="M169.407 193.468C171.033 203.09 172.66 212.712 174.286 222.335C177.707 222.746 184.911 223.101 193.009 219.413C199.961 216.246 204.396 211.547 206.629 208.813C203.997 199.84 201.366 190.867 198.734 181.894C198.734 181.894 177.854 193.689 169.407 193.468Z" fill="#FAB84E"/>
<path d="M171.496 229.784L171.913 256.145L172.061 282.504C172.124 300.077 171.764 335.208 171.929 335.218C170.616 335.583 170.482 335.51 170.482 335.51L171.343 229.783L171.496 229.784Z" fill="#482A36"/>
<path d="M157.802 229.425L158.219 255.786L158.367 282.145C158.429 299.718 158.277 317.287 158.235 334.859C157.391 334.778 156.79 334.868 156.79 334.868L157.649 229.424L157.802 229.425Z" fill="#492B37"/>
<path d="M199.262 225.154C199.023 230.176 198.185 234.575 197.193 238.205C196.482 240.811 193.5 242.04 191.161 240.689C184.011 236.56 176.858 232.43 169.707 228.301C169.662 226.878 169.618 225.454 169.573 224.03C169.549 223.272 169.526 222.516 169.501 221.759C169.501 221.755 169.501 221.752 169.501 221.748C169.487 221.283 169.471 220.817 169.457 220.354C169.426 219.403 169.397 218.451 169.367 217.498C169.351 216.976 169.334 216.454 169.318 215.932L170.736 215.326C170.743 215.322 170.751 215.32 170.758 215.316L194.068 205.355C195.348 204.808 196.816 205.512 197.2 206.85C197.383 207.491 197.57 208.068 197.75 208.58C198.648 212.436 199.375 217.268 199.326 222.824C199.32 223.588 199.299 224.365 199.262 225.154Z" fill="#D43D35"/>
<path d="M199.327 222.824C199.265 222.862 199.203 222.899 199.141 222.936C198.806 223.131 198.427 223.241 198.039 223.251C189.311 223.49 180.585 223.73 171.856 223.968C170.597 224.003 169.547 223.016 169.501 221.759C169.501 221.755 169.501 221.753 169.501 221.749C169.487 221.284 169.472 220.818 169.458 220.354C169.427 219.403 169.397 218.451 169.367 217.498C169.337 216.563 169.881 215.703 170.736 215.327C170.743 215.323 170.751 215.32 170.758 215.316L194.069 205.356C195.349 204.808 196.816 205.512 197.2 206.85C197.383 207.491 197.571 208.069 197.751 208.581C198.135 209.672 199.913 214.081 200.272 215.492C200.52 216.463 200.816 221.926 199.327 222.824Z" fill="#D53D34"/>
<path d="M199.326 222.825C199.13 223.032 198.838 223.109 198.599 223.236C188.923 223.502 179.248 223.767 169.573 224.031C169.535 222.807 169.495 221.58 169.457 220.355L200.547 216.967C200.832 217.609 200.658 221.417 199.326 222.825Z" fill="#CD3440"/>
<path d="M130.401 223.35C130.377 228.377 130.984 232.814 131.784 236.49C132.358 239.13 135.27 240.514 137.677 239.288C145.034 235.538 152.393 231.789 159.751 228.04C159.87 226.621 159.989 225.201 160.108 223.782C160.172 223.026 160.235 222.273 160.299 221.517C160.3 221.513 160.3 221.51 160.3 221.506C160.338 221.043 160.378 220.579 160.416 220.117C160.497 219.169 160.576 218.219 160.656 217.269C160.7 216.749 160.743 216.229 160.787 215.708L159.402 215.028C159.395 215.024 159.388 215.022 159.382 215.018L136.625 203.85C135.375 203.236 133.872 203.862 133.419 205.178C133.203 205.809 132.986 206.375 132.779 206.877C131.681 210.681 130.701 215.468 130.459 221.019C130.425 221.783 130.405 222.559 130.401 223.35Z" fill="#D53D34"/>
<path d="M130.458 221.02C130.451 221.305 130.93 221.33 131.163 221.469C140.811 222.241 150.459 223.012 160.107 223.783C160.209 222.562 160.313 221.34 160.415 220.118L131.042 215.271C130.724 215.896 130.514 218.828 130.458 221.02Z" fill="#CD3440"/>
<path d="M169.051 229.354L160.806 229.138C158.763 229.085 157.134 227.369 157.188 225.325L157.41 216.842C157.464 214.799 159.18 213.17 161.223 213.224L169.468 213.44C171.512 213.493 173.14 215.21 173.087 217.253L172.864 225.736C172.811 227.779 171.095 229.408 169.051 229.354Z" fill="#CD3440"/>
<path d="M169.365 247.165C169.301 249.602 167.274 251.525 164.837 251.462C162.4 251.398 160.476 249.371 160.54 246.933C160.604 244.496 162.631 242.573 165.068 242.637C167.505 242.701 169.429 244.728 169.365 247.165Z" fill="url(#paint2_linear_2303_2)"/>
<path d="M168.905 302.502C168.841 304.939 166.814 306.862 164.377 306.799C161.94 306.735 160.016 304.708 160.08 302.27C160.144 299.833 162.171 297.91 164.608 297.974C167.045 298.037 168.969 300.065 168.905 302.502Z" fill="url(#paint3_linear_2303_2)"/>
</g>
<path d="M217.234 108.368C214.103 119.028 210.978 129.696 207.848 140.356C211.192 139.926 216.025 138.984 221.381 136.664C221.542 136.592 221.7 136.527 221.862 136.454C227.622 133.96 233.656 131.215 236.694 124.98C237.128 124.088 240.864 116.145 237.337 110.509C237.07 110.065 236.746 109.638 236.379 109.235C232.457 104.894 224.268 104.1 217.234 108.368Z" fill="url(#paint4_linear_2303_2)"/>
<path d="M217.648 129.834C218.449 130.499 220.007 129.737 220.996 130.857C221.73 131.693 221.738 133.114 221.736 133.216C221.731 133.845 221.561 134.119 221.597 134.914C221.624 135.455 221.713 135.967 221.861 136.457C225.923 134.7 230.121 132.811 233.31 129.667C234.644 128.352 235.8 126.819 236.696 124.982C237.128 124.087 240.862 116.147 237.334 110.509C234.885 110.914 231.413 111.731 228.008 113.492C225.406 114.841 222.848 116.735 220.826 119.423C217.949 123.246 216.183 128.621 217.648 129.834Z" fill="#E78751"/>
<path d="M217.648 129.834C218.449 130.499 220.007 129.736 220.996 130.856C221.731 131.691 221.738 133.114 221.736 133.216C221.731 133.845 221.561 134.119 221.597 134.914C221.624 135.455 221.712 135.967 221.86 136.456C225.922 134.7 230.121 132.811 233.31 129.667C234.724 121.654 230.559 116.068 228.008 113.492C225.406 114.84 222.848 116.734 220.826 119.423C217.949 123.246 216.183 128.621 217.648 129.834Z" fill="url(#paint5_linear_2303_2)"/>
<path d="M130.789 95.536C130.687 106.646 130.579 117.761 130.478 128.871C127.402 127.488 123.052 125.182 118.601 121.407C118.467 121.291 118.335 121.182 118.201 121.067C113.414 117.006 108.438 112.627 107.342 105.778C107.186 104.799 105.918 96.1124 110.93 91.744C111.314 91.3966 111.749 91.0831 112.217 90.8038C117.231 87.7893 125.298 89.4084 130.789 95.536Z" fill="url(#paint6_linear_2303_2)"/>
<path d="M124.157 115.956C123.197 116.359 121.928 115.178 120.656 115.962C119.71 116.548 119.29 117.906 119.263 118.004C119.084 118.608 119.167 118.919 118.902 119.669C118.719 120.179 118.486 120.644 118.201 121.069C114.825 118.208 111.357 115.181 109.218 111.246C108.324 109.6 107.664 107.798 107.339 105.78C107.186 104.798 105.919 96.1158 110.933 91.7457C113.159 92.8444 116.243 94.6347 118.991 97.3091C121.089 99.3554 122.986 101.911 124.14 105.07C125.783 109.564 125.911 115.22 124.157 115.956Z" fill="#E78751"/>
<path d="M124.157 115.956C123.197 116.359 121.928 115.177 120.656 115.961C119.71 116.547 119.29 117.906 119.263 118.004C119.084 118.607 119.167 118.919 118.902 119.669C118.719 120.179 118.487 120.644 118.202 121.069C114.826 118.208 111.357 115.181 109.218 111.246C110.193 103.168 115.801 99.0332 118.991 97.3088C121.089 99.3551 122.986 101.91 124.14 105.07C125.783 109.564 125.911 115.22 124.157 115.956Z" fill="url(#paint7_linear_2303_2)"/>
<path d="M148.661 60.0327C148.661 60.0327 137.705 39.4024 154.39 24.0783C171.075 8.75414 216.985 32.0984 214.208 73.645C214.208 73.645 203.455 46.4846 192.977 47.8893C191.752 48.0542 189.494 49.5924 187.62 51.4735C186.558 52.5391 184.595 54.5568 183.701 57.8846C182.805 61.2152 183.471 64.0334 183.868 65.3258C183.868 65.3258 169.956 70.9671 148.661 60.0327Z" fill="url(#paint8_linear_2303_2)"/>
<path d="M175.244 64.8947C175.244 64.8947 184.586 26.2293 197.039 36.5549C209.493 46.8805 214.946 68.6683 214.005 83.5747C214.005 83.5747 178.23 71.9071 175.244 64.8947Z" fill="#3A1A27"/>
<path d="M208.233 159.429C200.414 173.931 180.73 189.914 158.997 186.027C136.154 181.94 124.07 158.235 121.908 142.164C121.131 136.391 121.811 132.911 126.058 110.994C126.588 108.252 127.352 104.318 128.205 99.9141C129.257 94.4817 130.447 88.3379 131.511 82.8395C133.587 72.107 141.293 63.2879 151.694 59.9297C158.287 57.8017 166.385 56.4077 175.562 57.312C189.09 58.6439 199.523 64.4335 206.868 70.3148C215.066 76.8828 219.264 87.2344 217.939 97.6568C217.47 101.344 216.958 105.439 216.412 109.874C216.271 111.002 216.131 112.152 215.986 113.324C211.608 149.112 211.712 152.98 208.233 159.429Z" fill="url(#paint9_linear_2303_2)"/>
<path d="M203.583 130.65C203.926 124.4 198.296 120.181 197.653 119.714C200.742 125.285 201.137 130.851 198.631 133.713C196.484 136.167 192.798 135.954 188.935 135.676C185.095 135.399 178.146 134.231 170.21 128.765L168.566 130.58L167.52 128.365C158.338 131.291 151.349 130.39 147.594 129.539C143.817 128.683 140.228 127.816 138.886 124.844C137.32 121.377 139.316 116.167 143.889 111.733C143.139 111.993 136.525 114.395 135.038 120.475C133.97 124.841 136.158 128.593 136.764 129.632C140.895 136.716 153.043 139.035 167.673 136.591C180.963 143.18 193.26 144.49 199.271 138.911C200.153 138.093 203.336 135.138 203.583 130.65Z" fill="url(#paint10_linear_2303_2)"/>
<path d="M188.366 124.694C187.612 123.662 186.67 123.34 183.252 122.027C179.861 120.725 178.167 120.075 178.045 119.982C175.842 118.327 175.529 114.252 178.503 99.9443C179.24 96.4072 180.334 91.4754 181.88 85.5865C179.922 85.4455 177.967 85.3039 176.009 85.1629C174.095 84.7292 172.183 84.2967 170.269 83.8629C170.037 89.9468 169.651 94.9838 169.329 98.5825C168.019 113.137 166.536 116.945 163.946 117.889C163.803 117.943 161.993 118.073 158.37 118.333C154.718 118.597 153.723 118.631 152.702 119.4C151.351 120.415 150.305 122.445 150.581 124.079C151.353 128.633 162.387 130.202 168.765 131.108C168.901 131.127 169.04 131.147 169.18 131.167C169.319 131.189 169.459 131.21 169.594 131.231C175.959 132.217 186.975 133.921 189.036 129.787C189.775 128.304 189.364 126.058 188.366 124.694Z" fill="url(#paint11_linear_2303_2)"/>
<path d="M168.847 110.565C168.847 110.565 172.775 96.9496 164.976 86.68C157.176 76.4105 137.876 82.2346 135.308 90.9652C132.74 99.6958 135.178 114.679 137.566 117.153C139.954 119.626 163.368 126.069 168.847 110.565Z" fill="url(#paint12_linear_2303_2)"/>
<path d="M174.807 111.45C174.807 111.45 175.004 97.2803 185.45 89.7193C195.897 82.1582 212.673 93.3378 212.594 102.438C212.515 111.538 205.829 125.167 202.826 126.84C199.823 128.513 175.547 127.877 174.807 111.45Z" fill="url(#paint13_linear_2303_2)"/>
<g opacity="0.4">
<path d="M208.233 159.429C200.414 173.932 180.73 189.914 158.997 186.027C136.154 181.941 124.069 158.235 121.908 142.165C121.131 136.391 121.811 132.911 126.058 110.994C126.588 108.252 127.352 104.318 128.205 99.9144C133.67 110.95 143.95 126.187 160.274 130.136C184.37 135.965 203.06 130.755 216.412 109.874C216.271 111.002 216.131 112.153 215.986 113.324C211.608 149.112 211.712 152.98 208.233 159.429Z" fill="url(#paint14_linear_2303_2)"/>
</g>
<path d="M151.454 138.075C151.454 138.075 165.89 155.048 184.536 143.621C184.536 143.621 173.899 143.239 168.734 142.374C162.871 141.391 151.454 138.075 151.454 138.075Z" fill="#FFFDFA"/>
<path d="M137.297 98.974C140.995 91.7972 148.853 88.2506 155.714 90.1586C163.771 92.3999 166.276 101.005 166.394 101.433C165.678 102.396 161.526 107.785 154.338 108.481C147.594 109.134 140.872 105.393 137.297 98.974Z" fill="#FFFDFA"/>
<mask id="mask2_2303_2" style="mask-type:alpha" maskUnits="userSpaceOnUse" x="137" y="89" width="30" height="20">
<path d="M137.297 98.974C140.995 91.7972 148.853 88.2506 155.714 90.1586C163.771 92.3999 166.276 101.005 166.394 101.433C165.678 102.396 161.526 107.785 154.338 108.481C147.594 109.134 140.872 105.393 137.297 98.974Z" fill="#FFFDFA"/>
</mask>
<g mask="url(#mask2_2303_2)">
<path d="M164.877 100.355C164.199 104.921 159.947 108.073 155.381 107.396C150.814 106.718 147.662 102.466 148.34 97.8997C149.018 93.3328 153.269 90.1808 157.836 90.8587C162.402 91.5365 165.555 95.7876 164.877 100.355Z" fill="url(#paint15_linear_2303_2)"/>
<path d="M166.827 98.7062C166.628 100.046 165.38 100.972 164.039 100.773C162.699 100.574 161.773 99.3258 161.972 97.9855C162.171 96.6452 163.42 95.7195 164.76 95.9184C166.1 96.1174 167.026 97.3659 166.827 98.7062Z" fill="#FFFDFA"/>
</g>
<path d="M179.803 105.284C183.501 98.1072 191.359 94.5606 198.219 96.4686C206.276 98.71 208.782 107.315 208.899 107.743C208.183 108.706 204.032 114.095 196.843 114.791C190.099 115.444 183.377 111.703 179.803 105.284Z" fill="#FFFDFA"/>
<mask id="mask3_2303_2" style="mask-type:alpha" maskUnits="userSpaceOnUse" x="179" y="95" width="30" height="20">
<path d="M179.803 105.284C183.501 98.1072 191.359 94.5606 198.219 96.4686C206.276 98.71 208.782 107.315 208.899 107.743C208.183 108.706 204.032 114.095 196.843 114.791C190.099 115.444 183.377 111.703 179.803 105.284Z" fill="#FFFDFA"/>
</mask>
<g mask="url(#mask3_2303_2)">
<path d="M207.382 106.665C206.704 111.231 202.452 114.383 197.886 113.706C193.319 113.028 190.167 108.776 190.845 104.21C191.523 99.6428 195.774 96.4909 200.341 97.1688C204.907 97.8466 208.06 102.098 207.382 106.665Z" fill="url(#paint16_linear_2303_2)"/>
<path d="M209.332 105.016C209.133 106.357 207.885 107.282 206.544 107.083C205.204 106.884 204.278 105.636 204.477 104.296C204.676 102.955 205.925 102.03 207.265 102.228C208.605 102.427 209.531 103.676 209.332 105.016Z" fill="#FFFDFA"/>
</g>
<path d="M183.018 79.6107L193.142 77.0868L188.794 80.6794C188.794 80.6794 203.401 76.4909 210.794 85.217C218.187 93.9431 215.49 99.2648 215.49 99.2648C215.49 99.2648 204.881 87.9422 181.587 92.1131L183.018 79.6107Z" fill="url(#paint17_linear_2303_2)"/>
<path d="M171.996 77.9744L163.043 72.6186L166.159 77.3192C166.159 77.3192 153.398 69.068 143.789 75.2703C134.181 81.4726 135.215 87.3482 135.215 87.3482C135.215 87.3482 148.656 79.5958 169.734 90.3534L171.996 77.9744Z" fill="url(#paint18_linear_2303_2)"/>
<path d="M152.399 57.476C151.897 56.6232 146.883 48.326 140.415 48.8236C134.963 49.2425 131.58 55.5855 129.528 60.2266C120.913 79.7148 126.018 110.988 126.018 110.988C126.279 104.993 127.358 96.6467 130.95 87.403C136.966 71.9236 146.814 62.2154 152.399 57.476Z" fill="url(#paint19_linear_2303_2)"/>
<path d="M204.786 67.1604C206.362 65.5614 209.98 62.3094 213.436 63.1469C218.108 64.2792 219.6 72.1911 220.473 77.1177C221.888 85.104 222.962 100.684 214.311 124.095C215.835 118.505 217.37 110.154 216.51 100.105C215.153 84.2426 208.562 72.7656 204.786 67.1604Z" fill="url(#paint20_linear_2303_2)"/>
</g>
</g>
<defs>
<linearGradient id="paint0_linear_2303_2" x1="162.259" y1="207.53" x2="164.887" y2="177.255" gradientUnits="userSpaceOnUse">
<stop stop-color="#E78D5A"/>
<stop offset="0.5" stop-color="#E78853"/>
<stop offset="1" stop-color="#E7844C"/>
</linearGradient>
<linearGradient id="paint1_linear_2303_2" x1="161.39" y1="202.505" x2="159.939" y2="563.257" gradientUnits="userSpaceOnUse">
<stop stop-color="#FABA4F"/>
<stop offset="0.3" stop-color="#DF7A42"/>
<stop offset="0.59" stop-color="#C53B35"/>
<stop offset="0.89" stop-color="#A43651"/>
<stop offset="1" stop-color="#83306C"/>
</linearGradient>
<linearGradient id="paint2_linear_2303_2" x1="160.237" y1="246.49" x2="169.062" y2="246.722" gradientUnits="userSpaceOnUse">
<stop stop-color="#593D49"/>
<stop offset="0.5" stop-color="#492C38"/>
<stop offset="1" stop-color="#3A1A27"/>
</linearGradient>
<linearGradient id="paint3_linear_2303_2" x1="159.796" y1="301.498" x2="168.622" y2="301.729" gradientUnits="userSpaceOnUse">
<stop stop-color="#593D49"/>
<stop offset="0.5" stop-color="#492C38"/>
<stop offset="1" stop-color="#3A1A27"/>
</linearGradient>
<linearGradient id="paint4_linear_2303_2" x1="223.092" y1="124.908" x2="250.696" y2="133.049" gradientUnits="userSpaceOnUse">
<stop stop-color="#E78D5A"/>
<stop offset="0.5" stop-color="#E78853"/>
<stop offset="1" stop-color="#E7844C"/>
</linearGradient>
<linearGradient id="paint5_linear_2303_2" x1="232.435" y1="123.262" x2="207.832" y2="128.961" gradientUnits="userSpaceOnUse">
<stop stop-color="#EC8750"/>
<stop offset="0.5" stop-color="#E87141"/>
<stop offset="1" stop-color="#E45B32"/>
</linearGradient>
<linearGradient id="paint6_linear_2303_2" x1="120.378" y1="109.66" x2="91.5995" y2="109.432" gradientUnits="userSpaceOnUse">
<stop stop-color="#E78D5A"/>
<stop offset="0.5" stop-color="#E78853"/>
<stop offset="1" stop-color="#E7844C"/>
</linearGradient>
<linearGradient id="paint7_linear_2303_2" x1="111.916" y1="105.371" x2="133.803" y2="117.972" gradientUnits="userSpaceOnUse">
<stop stop-color="#EC8750"/>
<stop offset="0.5" stop-color="#E87141"/>
<stop offset="1" stop-color="#E45B32"/>
</linearGradient>
<linearGradient id="paint8_linear_2303_2" x1="187.508" y1="37.7371" x2="173.319" y2="72.0254" gradientUnits="userSpaceOnUse">
<stop stop-color="#593D49"/>
<stop offset="0.5" stop-color="#492C38"/>
<stop offset="1" stop-color="#3A1A27"/>
</linearGradient>
<linearGradient id="paint9_linear_2303_2" x1="124.432" y1="115.317" x2="214.319" y2="128.66" gradientUnits="userSpaceOnUse">
<stop stop-color="#E78D5A"/>
<stop offset="0.5" stop-color="#E78853"/>
<stop offset="1" stop-color="#E7844C"/>
</linearGradient>
<linearGradient id="paint10_linear_2303_2" x1="169.532" y1="117.967" x2="168.28" y2="140.022" gradientUnits="userSpaceOnUse">
<stop stop-color="#593D49"/>
<stop offset="0.5" stop-color="#492C38"/>
<stop offset="1" stop-color="#3A1A27"/>
</linearGradient>
<linearGradient id="paint11_linear_2303_2" x1="173.272" y1="106.391" x2="168.626" y2="128.617" gradientUnits="userSpaceOnUse">
<stop stop-color="#EC8750"/>
<stop offset="0.5" stop-color="#E87141"/>
<stop offset="1" stop-color="#E45B32"/>
</linearGradient>
<linearGradient id="paint12_linear_2303_2" x1="151.364" y1="104.151" x2="154.558" y2="82.6365" gradientUnits="userSpaceOnUse">
<stop stop-color="#EC8750"/>
<stop offset="0.5" stop-color="#E87141"/>
<stop offset="1" stop-color="#E45B32"/>
</linearGradient>
<linearGradient id="paint13_linear_2303_2" x1="193.202" y1="108.339" x2="195.919" y2="90.0399" gradientUnits="userSpaceOnUse">
<stop stop-color="#EC8750"/>
<stop offset="0.5" stop-color="#E87141"/>
<stop offset="1" stop-color="#E45B32"/>
</linearGradient>
<linearGradient id="paint14_linear_2303_2" x1="179.462" y1="112.366" x2="141.757" y2="171.132" gradientUnits="userSpaceOnUse">
<stop stop-color="#593D49"/>
<stop offset="0.5" stop-color="#492C38"/>
<stop offset="1" stop-color="#3A1A27"/>
</linearGradient>
<linearGradient id="paint15_linear_2303_2" x1="147.399" y1="98.5071" x2="163.935" y2="100.962" gradientUnits="userSpaceOnUse">
<stop stop-color="#2A73A4"/>
<stop offset="0.5" stop-color="#2F6394"/>
<stop offset="1" stop-color="#355385"/>
</linearGradient>
<linearGradient id="paint16_linear_2303_2" x1="189.932" y1="104.821" x2="206.469" y2="107.276" gradientUnits="userSpaceOnUse">
<stop stop-color="#2A73A4"/>
<stop offset="0.5" stop-color="#2F6394"/>
<stop offset="1" stop-color="#355385"/>
</linearGradient>
<linearGradient id="paint17_linear_2303_2" x1="200.869" y1="77.1268" x2="198.611" y2="92.3352" gradientUnits="userSpaceOnUse">
<stop stop-color="#593D49"/>
<stop offset="0.5" stop-color="#492C38"/>
<stop offset="1" stop-color="#3A1A27"/>
</linearGradient>
<linearGradient id="paint18_linear_2303_2" x1="153.937" y1="73.1929" x2="152.903" y2="87.8246" gradientUnits="userSpaceOnUse">
<stop stop-color="#593D49"/>
<stop offset="0.5" stop-color="#492C38"/>
<stop offset="1" stop-color="#3A1A27"/>
</linearGradient>
<linearGradient id="paint19_linear_2303_2" x1="142.438" y1="55.3099" x2="119.404" y2="103.787" gradientUnits="userSpaceOnUse">
<stop stop-color="#593D49"/>
<stop offset="0.5" stop-color="#492C38"/>
<stop offset="1" stop-color="#3A1A27"/>
</linearGradient>
<linearGradient id="paint20_linear_2303_2" x1="213.287" y1="82.0035" x2="221.37" y2="129.707" gradientUnits="userSpaceOnUse">
<stop stop-color="#593D49"/>
<stop offset="0.5" stop-color="#492C38"/>
<stop offset="1" stop-color="#3A1A27"/>
</linearGradient>
<clipPath id="clip0_2303_2">
<rect width="315" height="315" fill="white"/>
</clipPath>
</defs>
</svg>
