<svg width="120" height="127" viewBox="0 0 120 127" fill="none" xmlns="http://www.w3.org/2000/svg">
<path d="M112.87 55.0473C112.87 55.0473 112.87 55.0216 112.87 54.9788V54.7903C112.87 54.619 112.87 54.3763 112.87 54.0679C112.87 53.434 112.87 52.5203 112.847 51.3724L112.89 51.4152L98.9982 51.4409C99.0296 51.4095 98.9268 51.5123 99.0696 51.3724V53.2341C99.0696 53.8452 99.0696 54.4505 99.0696 55.0416L99.0011 54.9702L108.901 55.0016L111.822 55.0216H112.613H112.819C112.843 55.0192 112.868 55.0192 112.893 55.0216H112.83H112.63H111.856L108.921 55.0873L98.9725 55.1187H98.904V55.0502C98.904 54.4591 98.904 53.8537 98.904 53.2427V51.3752L98.9754 51.3038L112.867 51.3295H112.918V51.3752C112.918 52.5345 112.901 53.4568 112.896 54.0965C112.896 54.402 112.896 54.639 112.896 54.8103C112.896 54.8846 112.896 54.9445 112.896 54.9902C112.89 55.0103 112.881 55.0295 112.87 55.0473Z" fill="#E0E0E0"/>
<path d="M61.6776 112.944L58.5366 114.295L58.7479 95.6631C58.845 93.433 57.8199 92.4822 57.263 91.8483C52.2061 86.0974 44.6649 90.2692 44.5992 96.0971L44.4107 112.747L41.3525 112.713L41.6552 95.2948C41.6781 93.3331 43.2029 89.9294 44.7419 88.7101C53.2512 81.9684 61.9574 88.9328 61.8746 96.2999L61.6776 112.944Z" fill="#F5F5F5"/>
<path d="M61.6779 112.944V112.61C61.6779 112.39 61.6779 112.068 61.6779 111.645C61.6779 110.788 61.695 109.546 61.7064 107.933C61.7178 106.32 61.7378 104.364 61.7578 102.082C61.7692 100.94 61.7806 99.7244 61.7921 98.4357C61.7921 97.145 61.9091 95.7716 61.6436 94.361C61.3777 92.8838 60.7791 91.4865 59.8932 90.2749C59.7761 90.1178 59.6648 89.9579 59.542 89.8037C59.4192 89.6495 59.2793 89.5182 59.1479 89.3611C58.8795 89.0634 58.5935 88.7821 58.2913 88.5188C58.1457 88.3788 57.9743 88.2675 57.8144 88.139C57.6545 88.0105 57.4975 87.8791 57.3176 87.7763C56.9716 87.5458 56.6111 87.3378 56.2382 87.1539C55.4753 86.7701 54.6677 86.4824 53.834 86.2972L53.1886 86.1916L52.866 86.1373L52.5376 86.1173L51.8751 86.0745C51.6524 86.0745 51.4297 86.0888 51.207 86.0973C49.361 86.1812 47.5742 86.7741 46.0443 87.8106C44.4344 88.9006 43.1725 90.4312 42.4094 92.2194C42.026 93.1419 41.7742 94.1137 41.6612 95.1063C41.5756 96.1057 41.5984 97.1365 41.5784 98.1673C41.5327 102.299 41.4842 106.577 41.4357 110.96C41.4357 111.544 41.429 112.127 41.4157 112.707L41.3443 112.633L44.4025 112.667L44.3311 112.739C44.3672 109.426 44.4044 106.19 44.4424 103.03C44.4596 101.458 44.4776 99.9072 44.4967 98.3786C44.4967 97.6171 44.5052 96.8604 44.5224 96.1085C44.5387 95.3577 44.6638 94.6133 44.8936 93.8984C45.3623 92.5073 46.245 91.2928 47.4235 90.4176C47.5631 90.3074 47.709 90.2054 47.8604 90.1121L48.3173 89.8265C48.6273 89.6624 48.9489 89.5211 49.2795 89.4039C49.6064 89.2849 49.9413 89.1895 50.2818 89.1184C50.4503 89.0813 50.6216 89.067 50.7901 89.0384L51.0442 89.0042H51.3012C51.9721 88.967 52.6448 89.0237 53.3 89.1727C53.9386 89.326 54.5548 89.5611 55.1332 89.8722C56.7791 90.7859 58.0071 92.3016 58.5597 94.1011C58.7211 94.6592 58.8169 95.2342 58.8453 95.8144C58.8453 95.9572 58.8453 96.0999 58.8595 96.2399C58.8738 96.3798 58.8595 96.5254 58.8595 96.6596C58.8595 96.9452 58.8595 97.2136 58.8595 97.4877C58.8595 98.0331 58.8595 98.5699 58.8395 99.0953C58.811 101.197 58.7882 103.127 58.7653 104.869C58.7168 108.35 58.6796 111.074 58.6539 112.884L58.634 112.864L60.9412 112.901H61.5122H61.6978H60.9497L58.6311 112.887H58.6111V112.867C58.6111 111.057 58.6511 108.333 58.6825 104.852C58.6996 103.11 58.7196 101.177 58.7396 99.0753C58.7396 98.5499 58.7396 98.0131 58.7567 97.4677C58.7567 97.1822 58.7567 96.9195 58.7567 96.6396C58.7567 96.5026 58.7567 96.3541 58.7567 96.2227L58.7396 95.803C58.6971 94.6327 58.3497 93.4939 57.7316 92.4992C57.0873 91.4341 56.1745 90.5567 55.0846 89.955C54.5159 89.6503 53.9103 89.42 53.2829 89.2697C52.6358 89.1246 51.9717 89.0708 51.3098 89.1098H51.0585L50.8101 89.147C50.6416 89.1727 50.4731 89.1869 50.3075 89.224C49.6366 89.3672 48.9882 89.6006 48.3801 89.9179L47.9318 90.1863C47.7836 90.2731 47.6406 90.3685 47.5035 90.4719C46.3452 91.3332 45.4791 92.5292 45.0221 93.8984C44.7972 94.6004 44.676 95.3315 44.6623 96.0685C44.6623 96.8186 44.6537 97.5753 44.6366 98.3386C44.6195 99.8615 44.6023 101.412 44.5852 102.99C44.5509 106.131 44.5138 109.378 44.4767 112.699V112.77H44.4053L41.3443 112.736H41.2729V112.664C41.2729 112.093 41.2796 111.511 41.2929 110.917C41.3443 106.537 41.3928 102.259 41.4414 98.1245C41.4613 97.0908 41.4414 96.0714 41.5242 95.0491C41.6407 94.0437 41.8973 93.0595 42.2866 92.1252C42.6847 91.2322 43.1993 90.3959 43.8171 89.6381C44.4429 88.8997 45.164 88.2478 45.9615 87.6992C47.5113 86.6482 49.322 86.0473 51.1927 85.9631C51.4183 85.9631 51.6438 85.9374 51.8694 85.9431L52.6375 85.9888L53.0601 86.0374L53.6998 86.143L53.9853 86.2059C54.7782 86.3914 55.5453 86.6733 56.2697 87.0454C56.648 87.2309 57.0133 87.4417 57.3633 87.6764C57.5432 87.7821 57.6974 87.9248 57.863 88.0448C58.0286 88.1647 58.1971 88.2875 58.3484 88.4274C58.6507 88.6957 58.9368 88.9817 59.205 89.284L59.6048 89.7323C59.7276 89.8894 59.839 90.0521 59.956 90.212C60.8501 91.4373 61.4526 92.8505 61.7178 94.3439C61.9834 95.7716 61.8492 97.1536 61.8577 98.4443C61.8663 99.7349 61.8235 100.963 61.8092 102.105C61.7778 104.389 61.7492 106.354 61.7264 107.961C61.7036 109.569 61.6864 110.817 61.6721 111.656C61.6721 112.073 61.6721 112.396 61.655 112.613C61.6379 112.83 61.6779 112.944 61.6779 112.944Z" fill="#E0E0E0"/>
<path d="M37.8596 101.837L65.5556 102.151C65.8388 102.154 66.1091 102.27 66.3071 102.472C66.5051 102.675 66.6146 102.948 66.6113 103.231L66.3685 124.637C66.3656 124.894 66.2605 125.14 66.0764 125.32C65.8922 125.5 65.6442 125.6 65.3867 125.597L37.6051 125.282L37.871 101.837L37.8596 101.837Z" fill="#E0E0E0"/>
<path d="M37.8591 101.777L62.216 102.021C62.5235 102.024 62.8172 102.149 63.0324 102.368C63.2476 102.588 63.3668 102.884 63.3637 103.191L63.1553 124.036C63.1515 124.415 62.9975 124.776 62.727 125.042C62.4566 125.307 62.092 125.453 61.7133 125.45L37.6648 125.209C37.3467 125.206 37.0429 125.077 36.8203 124.849C36.5976 124.622 36.4743 124.316 36.4775 123.998L36.6882 102.925C36.6913 102.617 36.8164 102.324 37.036 102.108C37.2556 101.893 37.5517 101.774 37.8591 101.777Z" fill="#EBEBEB"/>
<path d="M53.483 111.668C53.488 111.23 53.405 110.795 53.2388 110.39C53.0727 109.985 52.8267 109.617 52.5156 109.308C52.2045 109 51.8346 108.757 51.4279 108.594C51.0211 108.432 50.5858 108.352 50.1478 108.361C49.3053 108.386 48.5042 108.732 47.9082 109.328C47.3122 109.924 46.9663 110.725 46.9412 111.568C46.928 112.282 47.1501 112.981 47.5732 113.557C47.9962 114.133 48.5969 114.554 49.2826 114.755L47.0982 119.243L52.7377 119.412L51.0701 114.766C51.7543 114.582 52.3598 114.18 52.7952 113.621C53.2305 113.062 53.472 112.376 53.483 111.668Z" fill="#E0E0E0"/>
<path d="M63 123.358C62.96 123.358 63 119.278 63.0714 114.246C63.1428 109.215 63.2456 105.132 63.2855 105.132C63.3255 105.132 63.2855 109.212 63.2141 114.246C63.1428 119.281 63.04 123.361 63 123.358Z" fill="#FAFAFA"/>
<path d="M57.0486 102.773C57.0486 102.813 53.4594 102.853 49.0306 102.862C44.6018 102.87 41.0096 102.845 41.0096 102.805C41.0096 102.765 44.5989 102.727 49.0306 102.719C53.4622 102.71 57.0486 102.727 57.0486 102.773Z" fill="white"/>
<path d="M46.8149 113.355C46.759 113.295 46.7136 113.225 46.6807 113.15C46.5782 112.951 46.4959 112.742 46.4351 112.527C46.2308 111.81 46.2498 111.048 46.4896 110.342C46.7293 109.636 47.1785 109.02 47.7772 108.575C47.9552 108.441 48.1465 108.325 48.3483 108.23C48.4193 108.19 48.4966 108.163 48.5767 108.15C48.5767 108.173 48.2655 108.307 47.8372 108.655C47.2746 109.104 46.8526 109.706 46.6213 110.387C46.39 111.069 46.3591 111.803 46.5322 112.502C46.6721 113.053 46.8378 113.338 46.8149 113.355Z" fill="white"/>
<path d="M48.1006 114.92C48.0806 114.954 47.8893 114.872 47.6723 114.737C47.4553 114.603 47.2983 114.466 47.3182 114.432C47.3382 114.398 47.5324 114.48 47.7494 114.615C47.9664 114.749 48.1006 114.886 48.1006 114.92Z" fill="white"/>
<path d="M50.8185 86.8312C50.6364 86.866 50.4524 86.8899 50.2674 86.9026C49.7687 86.9693 49.2761 87.0753 48.794 87.2195C47.1924 87.6843 45.7562 88.5955 44.6534 89.8465C43.5505 91.0975 42.8266 92.6366 42.5663 94.2839C42.4804 94.7799 42.4374 95.2824 42.4378 95.7859C42.4378 96.1399 42.4378 96.3398 42.4378 96.3398C42.4225 96.2938 42.4148 96.2456 42.415 96.197C42.415 96.1028 42.3864 95.9658 42.3836 95.7859C42.3634 95.2779 42.3921 94.7692 42.4692 94.2668C42.7075 92.5918 43.4309 91.0232 44.5503 89.7547C45.6697 88.4861 47.136 87.573 48.7683 87.1282C49.2567 86.9848 49.7578 86.8892 50.2646 86.8426C50.4416 86.8226 50.5815 86.8255 50.6758 86.8226C50.7235 86.8208 50.7713 86.8236 50.8185 86.8312Z" fill="white"/>
<path d="M42.2862 98.8669C42.2212 98.5863 42.2038 98.2967 42.2348 98.0103C42.2153 97.7218 42.2453 97.4321 42.3234 97.1537C42.4094 97.7227 42.3969 98.3022 42.2862 98.8669Z" fill="white"/>
<path d="M59.8843 19.3287H45.9926V23.0036H59.8843V19.3287Z" fill="#F5F5F5"/>
<path d="M54.0107 26.8756C54.0107 26.8756 54.0107 26.8528 54.0107 26.81V26.6215C54.0107 26.4473 54.0107 26.2046 54.0107 25.8962C54.0107 25.2623 54.0107 24.3514 53.9879 23.2007L54.0307 23.2435L40.139 23.2721C40.1704 23.2407 40.0676 23.3406 40.2104 23.2007V25.0624C40.2104 25.6754 40.2104 26.2779 40.2104 26.8699L40.1418 26.8014L50.0416 26.8328L52.9628 26.8528H53.7537H53.9593C53.984 26.8504 54.0089 26.8504 54.0335 26.8528H53.9707H53.7708H52.997L50.0902 26.8728L40.1418 26.9042H40.0733V26.8357C40.0733 26.2436 40.0733 25.6411 40.0733 25.0282V23.1664L40.1447 23.095L54.0364 23.1236H54.0792V23.1664C54.0792 24.3257 54.0621 25.248 54.0564 25.8877C54.0564 26.1932 54.0564 26.4302 54.0564 26.6015C54.0564 26.6758 54.0564 26.7357 54.0564 26.7814C54.0564 26.8271 54.0136 26.8756 54.0107 26.8756Z" fill="#E0E0E0"/>
<path d="M109.837 82.7936H95.9453V86.4686H109.837V82.7936Z" fill="#F5F5F5"/>
<path d="M103.963 90.3405C103.961 90.3177 103.961 90.2948 103.963 90.272V90.0835C103.963 89.9122 103.963 89.6695 103.963 89.3611C103.963 88.7272 103.949 87.8163 103.94 86.6655L103.983 86.7084L90.0912 86.7369C90.1226 86.7055 90.0198 86.8054 90.1597 86.6655V90.3348L90.0912 90.2662L99.991 90.2977L102.912 90.3176H103.703H103.909H103.983H103.917H103.72H102.946L100.04 90.3376L90.0741 90.409H90.0027V86.6712L90.0741 86.5999L103.966 86.6284H104.009V86.6712C104.009 87.8305 103.991 88.7529 103.986 89.3925C103.986 89.698 103.986 89.935 103.986 90.1063C103.986 90.1806 103.986 90.2405 103.986 90.2862C103.979 90.3048 103.972 90.3229 103.963 90.3405Z" fill="#E0E0E0"/>
<path d="M18.7634 13.5721C18.7609 13.5503 18.7609 13.5282 18.7634 13.5064C18.7634 13.4579 18.7634 13.3951 18.7634 13.318C18.7634 13.1438 18.7634 12.9039 18.7634 12.5927C18.7634 11.9588 18.7634 11.0479 18.7406 9.89716L18.7834 9.93999L4.87171 9.9714C4.90312 9.93999 4.80032 10.0428 4.94024 9.90001V13.5721L4.87171 13.5036L14.7715 13.535L17.6926 13.555H18.4836H18.6892H18.7634C18.7416 13.5577 18.7196 13.5577 18.6977 13.555H18.5007H17.724L14.8201 13.575L4.87171 13.6064H4.80032V9.90287L4.87171 9.83148L18.7634 9.86004H18.8063V9.90287C18.8063 11.065 18.7891 11.9845 18.7834 12.6241C18.7834 12.9296 18.7834 13.1695 18.7834 13.338C18.7834 13.4122 18.7834 13.4722 18.7834 13.5207C18.7781 13.5383 18.7714 13.5555 18.7634 13.5721Z" fill="#E0E0E0"/>
<path d="M101.599 8.29525C101.599 8.29525 101.599 8.26955 101.599 8.22672V8.03826C101.599 7.86694 101.599 7.62422 101.599 7.31584C101.599 6.68193 101.599 5.76819 101.576 4.6203L101.619 4.66313L87.7275 4.68883L87.7989 4.6203V6.48776C87.7989 7.10263 87.7989 7.70513 87.7989 8.29525L87.7303 8.22672L97.6301 8.25813L100.551 8.27526H101.342H101.551C101.574 8.27292 101.598 8.27292 101.622 8.27526H101.559H101.359H100.586L97.6787 8.29525L87.7303 8.32666H87.6618V8.25813C87.6618 7.66705 87.6618 7.06456 87.6618 6.45064V4.62601L87.7332 4.55463L101.625 4.58318H101.668V4.62601C101.668 5.78532 101.651 6.70763 101.645 7.34725C101.645 7.65278 101.645 7.88978 101.645 8.06111V8.241C101.632 8.26122 101.617 8.2795 101.599 8.29525Z" fill="#E0E0E0"/>
<path d="M103.496 4.62028C103.494 4.59653 103.494 4.57264 103.496 4.54889C103.496 4.4975 103.496 4.43182 103.496 4.35473C103.496 4.17483 103.496 3.92927 103.496 3.61802C103.496 2.97269 103.479 2.06466 103.467 0.945331L103.519 0.993874L95.1723 1.01386L95.2408 0.945331V2.83278C95.2408 3.4467 95.2408 4.04348 95.2408 4.61457L95.1752 4.54604L101.146 4.57745L102.885 4.59744H103.353H103.522C103.471 4.60152 103.421 4.60152 103.37 4.59744H102.913L101.2 4.61457L95.1837 4.64598H95.1152V4.5803C95.1152 4.00922 95.1152 3.41243 95.1152 2.79851V0.951042C95.0981 0.951042 95.2494 0.816837 95.1866 0.879656L103.533 0.899644H103.584V0.951042C103.584 2.09322 103.562 3.00125 103.556 3.65514C103.556 3.96068 103.556 4.20053 103.556 4.38042C103.556 4.56032 103.496 4.62314 103.496 4.62028Z" fill="#E0E0E0"/>
<path d="M13.9374 95.92C13.9362 95.8982 13.9362 95.8762 13.9374 95.8544C13.9374 95.8058 13.9374 95.743 13.9374 95.6659C13.9374 95.4917 13.9374 95.2519 13.9374 94.9435C13.9374 94.3096 13.9374 93.3958 13.9146 92.2451L13.9574 92.2879L0.065675 92.3165L0.137061 92.2451V94.1097C0.137061 94.7227 0.137061 95.3252 0.137061 95.9172L0.068531 95.8487L9.96834 95.8801L12.8894 95.9001H13.6804H13.8889H13.9602C13.9602 95.9001 13.9403 95.9001 13.8974 95.9001H13.6975H12.9237L10.0169 95.92L0.068531 95.9515H0V95.92C0 95.329 0 94.7265 0 94.1126V92.248C0.142772 92.108 0.0399761 92.2108 0.071386 92.1794L13.9631 92.2051H14.0059V92.248C14.0059 93.4101 13.9888 94.3296 13.9831 94.972C13.9831 95.2776 13.9831 95.5146 13.9831 95.6859V95.8658C13.9402 95.92 13.9403 95.92 13.9374 95.92Z" fill="#E0E0E0"/>
<path d="M15.8328 92.2508C15.8305 92.228 15.8305 92.2051 15.8328 92.1823C15.8328 92.128 15.8328 92.0652 15.8328 91.9881C15.8328 91.8054 15.8328 91.5598 15.8328 91.2514C15.8328 90.6061 15.8156 89.6952 15.8042 88.5759L15.8556 88.6273L7.50916 88.6473C7.44635 88.7101 7.59483 88.5616 7.57769 88.5759V90.4662C7.57769 91.0829 7.57769 91.6769 7.57769 92.248L7.51202 92.1823L13.4827 92.2137L15.2217 92.2337H15.69H15.8585C15.8081 92.2378 15.7575 92.2378 15.7071 92.2337H15.2503L13.537 92.2537L7.52059 92.2851H7.45206V92.2166C7.45206 91.6455 7.45206 91.0515 7.45206 90.4348V88.5445L7.52344 88.4731L15.8328 88.5245H15.8842V88.5759C15.8842 89.7181 15.8613 90.6289 15.8556 91.28C15.8556 91.5855 15.8556 91.8282 15.8556 92.0081C15.8556 92.188 15.8328 92.2565 15.8328 92.2508Z" fill="#E0E0E0"/>
<path d="M57.6822 65.7067C57.6797 65.6849 57.6797 65.6629 57.6822 65.641V65.4526C57.6822 65.2784 57.6822 65.0386 57.6822 64.7302C57.6822 64.0934 57.6679 63.1825 57.6593 62.0318L57.7022 62.0746L43.8105 62.1032C43.8419 62.0718 43.7391 62.1745 43.879 62.0318V65.701L43.8105 65.6325L53.7103 65.6639L56.6314 65.6839H57.4223H57.6279H57.7022H57.6365H57.4395H56.6628L53.7588 65.701L43.8105 65.7324H43.7391V61.9918L43.8105 61.9204L57.7022 61.949H57.745V61.9918C57.745 63.154 57.7279 64.0734 57.7222 64.7159C57.7222 65.0186 57.7222 65.2584 57.7222 65.4269V65.6096C57.7138 65.6438 57.7003 65.6765 57.6822 65.7067Z" fill="#E0E0E0"/>
<path d="M59.5668 62.0318C59.5628 62.0091 59.5628 61.9859 59.5668 61.9632C59.5668 61.909 59.5668 61.8462 59.5668 61.7662L59.5526 61.0295C59.5526 60.387 59.5526 59.4761 59.5269 58.3568L59.5783 58.4082L51.229 58.4282L51.3003 58.3568V60.2471C51.3003 60.861 51.3003 61.4578 51.3003 62.0289L51.2318 61.9632L57.2025 61.9946L58.9443 62.0118H59.4126H59.5811C59.5298 62.0156 59.4782 62.0156 59.4269 62.0118H58.9729L57.2596 62.0318L51.2432 62.0632H51.1776V61.9946C51.1776 61.4236 51.1776 60.8268 51.1776 60.2129V58.3226C51.1776 58.3368 51.3146 58.1883 51.2489 58.2512L59.5982 58.2712H59.6496V58.3226C59.6496 59.4647 59.6297 60.3756 59.6239 61.0267C59.6239 61.3322 59.6239 61.5749 59.6097 61.7519C59.5954 61.929 59.5697 62.0346 59.5668 62.0318Z" fill="#E0E0E0"/>
<path d="M119.357 125.925C119.357 126.079 92.6354 126.21 59.6824 126.21C26.7294 126.21 -3.5526e-08 126.046 -2.49645e-08 125.925C-1.4403e-08 125.804 26.7163 125.639 59.6824 125.639C92.6485 125.639 119.357 125.771 119.357 125.925Z" fill="#263238"/>
<path d="M6.24621 109.798L1.11499 116.765L9.75555 123.195C10.3266 122.339 7.08 117.347 7.08 117.347L10.5522 113.018L6.24621 109.798Z" fill="#455A64"/>
<path d="M4.6989 114.989C4.59729 114.952 4.48558 114.954 4.38536 114.994C4.28515 115.035 4.20355 115.111 4.15636 115.209C4.11623 115.309 4.11605 115.422 4.15585 115.522C4.19565 115.623 4.27243 115.705 4.37052 115.751C4.47818 115.789 4.59606 115.786 4.70148 115.742C4.80691 115.698 4.89243 115.617 4.94161 115.514C4.97316 115.405 4.96103 115.287 4.90777 115.187C4.85451 115.086 4.76428 115.01 4.65607 114.974" fill="white"/>
<path d="M1.10333 116.782L1.64872 116.034L9.72105 122.533C9.72105 122.533 9.97803 122.99 9.72105 123.227L1.10333 116.782Z" fill="#263238"/>
<path d="M7.26846 117.41C7.23705 117.453 7.01147 117.316 6.69737 117.296C6.38327 117.276 6.14627 117.373 6.12628 117.327C6.10629 117.282 6.34615 117.085 6.71736 117.113C7.08857 117.142 7.2913 117.379 7.26846 117.41Z" fill="#263238"/>
<path d="M7.88264 118.461C7.8598 118.51 7.62565 118.444 7.34867 118.515C7.07169 118.587 6.8918 118.747 6.84897 118.712C6.80614 118.678 6.96033 118.427 7.30584 118.338C7.65135 118.25 7.91119 118.421 7.88264 118.461Z" fill="#263238"/>
<path d="M7.58789 119.929C7.5422 119.909 7.64214 119.643 7.92198 119.503C8.20181 119.363 8.46737 119.409 8.4588 119.457C8.45023 119.506 8.23608 119.537 8.0105 119.666C7.78492 119.794 7.63358 119.954 7.58789 119.929Z" fill="#263238"/>
<path d="M7.93594 116.337C7.88739 116.362 7.73891 116.16 7.48763 116C7.23635 115.84 6.9965 115.774 6.99935 115.714C7.00221 115.654 7.2849 115.643 7.58757 115.837C7.89025 116.031 7.98162 116.319 7.93594 116.337Z" fill="#263238"/>
<path d="M27.1363 80.6322C27.2905 81.5059 27.5361 88.9386 27.6931 92.8592C27.8502 96.7797 27.459 98.7071 27.0107 99.5866C26.5624 100.466 9.65531 112.924 8.36751 115.908L4.08435 112.456C4.08435 112.456 10.3663 101.18 13.0447 99.1297C15.7231 97.0795 20.8772 95.1978 20.8772 95.1978L19.4123 73.7277L26.4339 73.3451L27.1363 80.6322Z" fill="#263238"/>
<path d="M11.4222 116.688L11.348 125.331L22.1159 125.48C22.0673 124.452 16.5249 122.307 16.5249 122.307L16.8104 116.765L11.4222 116.688Z" fill="#455A64"/>
<path d="M13.2013 121.808C13.0974 121.838 13.0082 121.905 12.9507 121.997C12.8933 122.088 12.8717 122.198 12.89 122.304C12.9165 122.409 12.9821 122.5 13.0733 122.559C13.1646 122.617 13.2747 122.638 13.3811 122.618C13.4909 122.586 13.5847 122.514 13.6448 122.417C13.7048 122.319 13.7269 122.203 13.7067 122.09C13.6684 121.983 13.5901 121.896 13.4883 121.846C13.3865 121.796 13.2692 121.787 13.1613 121.822" fill="white"/>
<path d="M11.346 125.363V124.435L21.697 124.971C21.697 124.971 22.171 125.191 22.111 125.528L11.346 125.363Z" fill="#263238"/>
<path d="M16.6909 122.267C16.6909 122.322 16.4254 122.342 16.1655 122.507C15.9057 122.673 15.7629 122.89 15.7144 122.87C15.6658 122.85 15.7486 122.544 16.0684 122.35C16.3882 122.156 16.7138 122.219 16.6909 122.267Z" fill="#263238"/>
<path d="M17.8335 122.761C17.8335 122.813 17.6137 122.898 17.4338 123.118C17.2539 123.338 17.1968 123.575 17.1482 123.569C17.0997 123.564 17.0654 123.269 17.2967 122.998C17.528 122.727 17.8335 122.701 17.8335 122.761Z" fill="#263238"/>
<path d="M18.4479 124.112C18.3994 124.112 18.3309 123.858 18.4679 123.572C18.605 123.287 18.8563 123.175 18.8763 123.218C18.8963 123.261 18.7449 123.415 18.6336 123.652C18.5222 123.889 18.4993 124.106 18.4479 124.112Z" fill="#263238"/>
<path d="M16.6227 120.997C16.5999 121.045 16.36 120.968 16.0516 120.997C15.7432 121.025 15.5205 121.102 15.4805 121.057C15.4405 121.011 15.6776 120.828 16.0288 120.814C16.38 120.8 16.6484 120.957 16.6227 120.997Z" fill="#263238"/>
<path d="M27.9123 72.457C27.9123 72.9624 28.7318 85.7576 24.5486 95.015C24.5486 95.015 23.1009 97.9104 22.8354 99.1753C22.5698 100.44 17.1587 121.422 17.1587 121.422L10.9053 121.194C10.9053 121.194 9.90593 110.683 10.9053 104.598C11.9047 98.5129 13.7608 99.2267 13.7608 95.2977C13.7608 91.3686 12.827 83.222 12.827 83.222C12.827 83.222 11.4621 80.9976 10.9967 76.683C10.6169 73.1794 12.2674 69.4245 12.2674 69.4245L13.8978 66.5377L27.6925 65.8152L27.9123 72.457Z" fill="#263238"/>
<path d="M27.9132 72.457C27.9132 72.457 27.9132 72.3086 27.9132 72.0202C27.9132 71.7318 27.8961 71.3034 27.8847 70.7409C27.859 69.613 27.8161 67.9512 27.7647 65.8039V65.7725H27.7305L13.9359 66.4749H13.9073L13.8902 66.5006C13.3848 67.3972 12.8279 68.3766 12.2569 69.3874C11.8321 70.4121 11.5005 71.4729 11.266 72.557C11.007 73.6984 10.8909 74.8677 10.9205 76.0378C11.0074 77.2597 11.1985 78.4719 11.4916 79.6613C11.7744 80.9101 12.2188 82.1167 12.8137 83.2506V83.222C13.0507 85.3522 13.2705 87.5595 13.4561 89.8324C13.5475 90.9746 13.6275 92.1167 13.6846 93.2903C13.7131 93.8614 13.736 94.461 13.7388 95.0521C13.7388 95.3377 13.7388 95.6432 13.7217 95.9373C13.7014 96.2322 13.6652 96.5258 13.6132 96.8168C13.4963 97.4029 13.2892 97.9674 12.9993 98.4901C12.7137 99.024 12.4282 99.5523 12.1426 100.109C11.6255 101.239 11.2486 102.428 11.0205 103.65C10.5236 106.106 10.4237 108.658 10.3951 111.231C10.3951 114.626 10.555 117.961 10.8348 121.185V121.254H10.9005L17.1539 121.482H17.2139L17.2282 121.422C19.0414 114.395 20.7318 107.827 22.2223 101.922L22.762 99.7379C22.8562 99.3753 22.9162 99.0155 23.0276 98.6728C23.1389 98.3302 23.2646 97.9904 23.3959 97.6591C23.6643 96.9967 23.967 96.3542 24.2526 95.7289L24.4753 95.2634C24.5544 95.1114 24.6249 94.955 24.6866 94.7951C24.8151 94.4782 24.9436 94.1669 25.0721 93.8557C25.9601 91.5528 26.6209 89.1686 27.0452 86.7371C27.6567 83.2732 27.972 79.7636 27.9875 76.2462C28.0046 73.7848 27.9047 72.4485 27.9047 72.4485C27.9047 72.4485 27.9047 72.5313 27.9047 72.694C27.9047 72.8568 27.9047 73.1052 27.9218 73.425C27.9389 74.0675 27.9503 75.0155 27.9218 76.2462C27.8954 79.7606 27.5773 83.2667 26.9709 86.7285C26.5369 89.1522 25.8674 91.5277 24.9721 93.8214L24.5895 94.7552C24.5267 94.9151 24.4553 95.0664 24.3782 95.2206C24.3011 95.3748 24.2269 95.5318 24.1526 95.6889C23.8671 96.3142 23.5644 96.9567 23.296 97.622C23.1618 97.9561 23.0333 98.2959 22.9219 98.6443C22.8106 98.9926 22.7449 99.361 22.6535 99.7151C22.4736 100.435 22.2937 101.16 22.1081 101.899C20.5919 107.799 18.9043 114.366 17.0968 121.394L17.1711 121.339L10.9177 121.108L10.9919 121.177C10.7064 117.958 10.5407 114.626 10.5522 111.237C10.5807 108.667 10.6807 106.126 11.1746 103.687C11.4021 102.477 11.7751 101.298 12.2854 100.178C12.5424 99.6265 12.8565 99.104 13.142 98.5615C13.4301 98.0246 13.6342 97.4468 13.7474 96.8482C13.8015 96.5507 13.8387 96.2504 13.8588 95.9487C13.8588 95.6632 13.8873 95.3491 13.8759 95.055C13.8759 94.461 13.8502 93.87 13.8216 93.2846C13.7645 92.1139 13.6817 90.9603 13.5875 89.8238C13.3971 87.5395 13.1811 85.3341 12.9393 83.2078V83.1906C12.3442 82.0713 11.8979 80.8791 11.6115 79.6442C11.3201 78.4631 11.129 77.2596 11.0404 76.0463C11.0097 74.887 11.1229 73.7284 11.3774 72.597C11.6075 71.5236 11.9314 70.4726 12.3454 69.456L13.973 66.5663L13.9273 66.5948L27.7219 65.8496L27.6848 65.8181C27.7533 67.9626 27.8047 69.6244 27.839 70.7523C27.859 71.3234 27.8733 71.7403 27.8847 72.0316C27.8961 72.3228 27.9132 72.457 27.9132 72.457Z" fill="#455A64"/>
<path d="M23.4278 46.2555C23.4278 46.2555 19.7157 45.5987 20.0612 50.3759C20.2782 53.2313 21.1177 58.1312 21.5832 61.2579C21.7431 62.3401 22.0971 64.2761 23.5277 65.4126L33.7787 72.5055L37.014 68.6364L27.8594 59.9187L26.4317 51.2953L23.4278 46.2555Z" fill="#455A64"/>
<path d="M23.8642 29.0372C24.4526 29.511 24.9182 30.1196 25.2214 30.8115C25.5246 31.5034 25.6565 32.2582 25.6061 33.0119C25.549 33.7429 25.3462 34.5739 25.8231 35.1307C26.2999 35.6875 27.2137 35.6675 27.6648 36.2329C28.1931 36.901 27.7505 37.8947 27.9504 38.7257C28.0523 39.1138 28.2889 39.453 28.6179 39.6827C28.947 39.9123 29.347 40.0174 29.7464 39.9792C28.8093 40.7461 27.6791 41.24 26.4798 41.4069L25.5432 40.2391C25.8916 40.6502 25.7974 41.3041 25.4633 41.7239C25.1004 42.1146 24.6324 42.3922 24.1155 42.5234C22.8854 42.9019 21.5845 42.9913 20.3141 42.7848C19.0438 42.5782 17.8382 42.0813 16.7913 41.3327" fill="#263238"/>
<path d="M10.1498 35.4819C10.3325 34.9109 10.6409 34.4054 10.7637 33.8315C11.0264 32.5951 10.4239 31.2016 11.0235 30.088C11.4518 29.2971 12.3599 28.9087 13.2222 28.6432C14.0846 28.3776 15.004 28.1549 15.6465 27.5238C16.1148 27.0613 16.3832 26.4216 16.8515 25.9591C17.5196 25.2966 18.5076 25.071 19.4442 25.0139C20.4113 24.9204 21.3862 25.0788 22.274 25.4736C22.7148 25.6748 23.1022 25.9768 23.4047 26.3552C23.7073 26.7337 23.9166 27.178 24.0158 27.6523C24.09 28.1149 24.0329 28.6032 24.1814 29.0515C24.3413 29.5426 24.7268 29.9253 24.9666 30.385C25.2069 30.8787 25.2764 31.4382 25.1642 31.9757C25.0521 32.5132 24.7646 32.9982 24.347 33.3546L17.7281 41.9038C16.3375 42.4292 12.9681 41.7953 11.8944 40.7617C10.8208 39.728 9.69003 36.8954 10.1498 35.4819Z" fill="#263238"/>
<path d="M24.1724 32.2696C23.8869 30.3279 22.4221 28.0349 20.4946 28.389L14.5439 30.3878C13.9728 30.4963 14.3783 31.4529 14.4354 32.044L15.7289 45.4645C15.7289 45.4645 14.9237 46.0356 14.6381 45.9271C14.6219 45.9214 14.6043 45.921 14.5877 45.9258C14.5712 45.9306 14.5565 45.9404 14.5459 45.9539C14.5352 45.9674 14.529 45.9839 14.5281 46.0011C14.5273 46.0183 14.5318 46.0354 14.5411 46.0499C15.2635 47.0921 18.63 51.6237 22.1165 50.2331C22.8932 49.9219 22.0337 47.4748 22.1165 46.5696L22.0137 44.2538C21.9366 43.0717 21.8995 42.5863 21.8995 42.5977C21.8995 42.6091 24.3609 41.9923 24.6265 38.7C24.7607 37.0695 24.4751 34.4254 24.1724 32.2696Z" fill="#FFBF9D"/>
<path d="M23.7586 35.2563C23.7674 35.365 23.7336 35.4729 23.6644 35.5571C23.5951 35.6413 23.4957 35.6952 23.3874 35.7075C23.3346 35.716 23.2807 35.7138 23.2287 35.701C23.1768 35.6883 23.128 35.6653 23.0851 35.6333C23.0423 35.6014 23.0062 35.5611 22.9792 35.515C22.9521 35.4689 22.9346 35.4178 22.9277 35.3648C22.9188 35.2562 22.9526 35.1483 23.0219 35.0641C23.0912 34.9799 23.1905 34.9259 23.2989 34.9137C23.3516 34.9052 23.4056 34.9074 23.4575 34.9202C23.5094 34.9329 23.5583 34.9559 23.6011 34.9879C23.644 35.0198 23.68 35.06 23.7071 35.1061C23.7341 35.1523 23.7516 35.2033 23.7586 35.2563Z" fill="#263238"/>
<path d="M19.7033 35.5105C19.7129 35.6189 19.6798 35.7267 19.611 35.811C19.5422 35.8953 19.4431 35.9494 19.335 35.9616C19.2822 35.9697 19.2284 35.9672 19.1766 35.9543C19.1249 35.9414 19.0762 35.9183 19.0334 35.8865C18.9906 35.8546 18.9546 35.8145 18.9275 35.7686C18.9003 35.7227 18.8826 35.6718 18.8752 35.619C18.8664 35.5103 18.9002 35.4024 18.9695 35.3182C19.0387 35.234 19.1381 35.1801 19.2464 35.1678C19.2991 35.1594 19.3528 35.1616 19.4046 35.1743C19.4563 35.1871 19.505 35.2102 19.5476 35.2422C19.5902 35.2741 19.626 35.3144 19.6528 35.3605C19.6795 35.4066 19.6967 35.4576 19.7033 35.5105Z" fill="#263238"/>
<path d="M23.9067 33.8801C23.861 33.9571 23.4726 33.7116 22.9872 33.783C22.5018 33.8544 22.1905 34.1856 22.1306 34.1256C22.0706 34.0657 22.1306 33.9657 22.2705 33.8144C22.4462 33.6171 22.6864 33.489 22.9481 33.4529C23.2097 33.4168 23.4757 33.4751 23.6982 33.6174C23.8581 33.7287 23.9295 33.8458 23.9067 33.8801Z" fill="#263238"/>
<path d="M19.5464 34.2427C19.4893 34.3141 19.1095 34.0371 18.587 34.06C18.0644 34.0828 17.6932 34.3769 17.6332 34.3112C17.5733 34.2456 17.6589 34.157 17.8217 34.0257C18.0353 33.8493 18.3015 33.7489 18.5784 33.7402C18.854 33.7293 19.1253 33.8107 19.3494 33.9714C19.5121 34.0885 19.5721 34.2084 19.5464 34.2427Z" fill="#263238"/>
<path d="M21.1823 37.318C21.4129 37.2238 21.6548 37.1605 21.9019 37.1295C22.0132 37.1095 22.1217 37.0781 22.1332 36.9981C22.1347 36.8788 22.0987 36.7619 22.0304 36.6641C21.9019 36.3956 21.7677 36.113 21.6249 35.8074C21.0538 34.5996 20.6398 33.6059 20.6883 33.583C20.7369 33.5602 21.2366 34.5196 21.8019 35.7246C21.939 36.0244 22.0703 36.2957 22.1931 36.5813C22.2767 36.7137 22.3101 36.8717 22.2874 37.0267C22.2743 37.0685 22.2518 37.1067 22.2216 37.1384C22.1914 37.1701 22.1543 37.1944 22.1132 37.2094C22.0513 37.2306 21.987 37.2441 21.9219 37.2494C21.6789 37.3014 21.4307 37.3244 21.1823 37.318Z" fill="#263238"/>
<path d="M21.8988 42.6034C20.3697 42.7438 18.8316 42.4571 17.4557 41.7753C17.4557 41.7753 18.7264 43.974 21.9559 43.4201L21.8988 42.6034Z" fill="#FF9A6C"/>
<path d="M19.8155 38.6259C19.8664 38.513 19.945 38.4148 20.0439 38.3403C20.165 38.2827 20.3024 38.2696 20.4322 38.3032C20.6251 38.3313 20.8035 38.4216 20.9405 38.5602C21.0077 38.6301 21.0551 38.7168 21.0777 38.8111C21.1003 38.9055 21.0973 39.0042 21.069 39.097C21.0176 39.2855 20.7378 39.3825 20.5465 39.4225C20.3483 39.4515 20.1462 39.41 19.9754 39.3054C19.9011 39.2716 19.8362 39.2201 19.7864 39.1554C19.7366 39.0907 19.7035 39.0147 19.6898 38.9342C19.7025 38.8218 19.746 38.7151 19.8155 38.6259Z" fill="#FF9A6C"/>
<path d="M19.9064 37.9947C19.9778 37.9947 20.0178 38.4715 20.4604 38.7856C20.903 39.0997 21.417 39.0055 21.4255 39.0712C21.4341 39.1369 21.3199 39.174 21.1 39.1968C20.8147 39.223 20.5294 39.1471 20.2948 38.9827C20.0684 38.8265 19.9125 38.5875 19.8608 38.3174C19.8322 38.1203 19.8722 37.9947 19.9064 37.9947Z" fill="#263238"/>
<path d="M19.5068 32.4866C19.4696 32.6094 19.0185 32.5866 18.4959 32.6922C17.9734 32.7979 17.5594 32.9778 17.4823 32.8664C17.448 32.8179 17.5108 32.6979 17.6736 32.5666C17.8916 32.4041 18.144 32.2939 18.4113 32.2444C18.6787 32.1949 18.9538 32.2074 19.2155 32.281C19.4154 32.3381 19.521 32.4267 19.5068 32.4866Z" fill="#263238"/>
<path d="M23.6299 32.2439C23.5471 32.3524 23.1873 32.2753 22.7733 32.3039C22.3593 32.3324 21.9938 32.4323 21.9024 32.3324C21.8624 32.2839 21.9024 32.1754 22.0594 32.0669C22.2659 31.9308 22.5061 31.8547 22.7533 31.847C22.9989 31.8293 23.2445 31.8818 23.4615 31.9983C23.6099 32.084 23.6671 32.1868 23.6299 32.2439Z" fill="#263238"/>
<path d="M13.2276 30.8561C13.5131 30.3936 14.0671 30.1566 14.5811 29.9595C16.8008 29.1024 19.1148 28.5129 21.4741 28.2034C21.7596 28.686 21.4969 29.3456 21.0544 29.6968C20.6118 30.048 20.0407 30.188 19.5124 30.385C18.9842 30.582 18.4388 30.8904 18.2189 31.4129C17.999 31.9355 18.1846 32.6236 17.979 33.189C17.6278 34.1656 16.2658 34.4797 15.926 35.4534C15.6633 36.1929 16.0916 36.9782 16.2115 37.7549C16.2664 38.1491 16.2365 38.5504 16.1239 38.9321C16.0113 39.3138 15.8186 39.6671 15.5586 39.9685C15.2987 40.2698 14.9774 40.5122 14.6163 40.6795C14.2552 40.8468 13.8626 40.9352 13.4646 40.9387C13.3047 38.1423 13.1438 35.3477 12.982 32.5551C12.9335 31.9726 12.9106 31.3444 13.2276 30.8561Z" fill="#263238"/>
<path d="M7.59671 37.9176C8.0393 37.5207 8.59326 37.1781 8.76744 36.6127C9.02443 35.7875 8.36197 34.8195 8.79028 34.0685C9.17862 33.3832 10.3237 33.4203 10.6863 32.7207C10.9718 32.1725 10.6435 31.6899 10.7491 31.2102C10.8548 30.7305 11.5401 30.3107 12.0255 30.3678L15.8347 35.8988C16.1887 37.7549 16.5457 38.7543 16.1487 39.8279C15.8862 40.406 15.688 41.0112 15.5577 41.6325C15.472 42.2607 15.6348 42.9717 16.1459 43.3458C13.8615 43.5257 11.7257 42.3321 9.74971 41.1757L7.6681 39.9535C7.44022 39.8445 7.24373 39.6795 7.09701 39.4738C6.78576 38.9656 7.15697 38.3117 7.59671 37.9176Z" fill="#263238"/>
<path d="M9.70059 40.6132C9.78029 40.6388 9.8627 40.6551 9.94616 40.6617C10.1844 40.6845 10.4247 40.6671 10.6572 40.6103C11.0282 40.5214 11.3697 40.3374 11.648 40.0763C12.0156 39.7226 12.2462 39.2502 12.299 38.7428C12.3334 38.4486 12.3081 38.1505 12.2248 37.8662C12.1224 37.5633 11.9803 37.2752 11.8022 37.0096C11.6133 36.74 11.4661 36.4435 11.3653 36.1301C11.3118 35.9699 11.295 35.7997 11.3163 35.6321C11.3376 35.4645 11.3963 35.3039 11.4881 35.1621C11.6937 34.8766 12.0792 34.8166 12.439 34.6738C12.6333 34.604 12.8023 34.4777 12.9244 34.3112C13.0368 34.1331 13.0916 33.9247 13.0814 33.7144C13.032 33.3112 12.9451 32.9135 12.8216 32.5266C12.7777 32.3387 12.7777 32.1433 12.8216 31.9555C12.8719 31.766 12.9884 31.6009 13.15 31.49C13.4974 31.2897 13.8911 31.1834 14.2921 31.1816C14.7072 31.1679 15.112 31.049 15.4686 30.8361C15.8155 30.6246 16.0972 30.3212 16.2824 29.9595C16.4344 29.6122 16.5307 29.2431 16.5679 28.8659C16.6075 28.5166 16.6822 28.1722 16.7906 27.8379C16.9109 27.5339 17.0938 27.2585 17.3275 27.0298C17.7584 26.6209 18.3148 26.3694 18.9065 26.316C19.3999 26.2738 19.8951 26.3728 20.3342 26.6015C20.6646 26.7705 20.9623 26.9968 21.2137 27.2697C21.4238 27.5079 21.6058 27.7695 21.7563 28.0492C21.7563 28.0492 21.7563 28.0292 21.7363 27.9893C21.7128 27.9326 21.6861 27.8773 21.6563 27.8236C21.5473 27.6164 21.4141 27.4227 21.2594 27.2468C21.0082 26.9629 20.7085 26.7261 20.3742 26.5473C19.9304 26.3033 19.4261 26.1914 18.9208 26.2246C18.3007 26.27 17.715 26.5271 17.2618 26.9527C17.0121 27.1939 16.8173 27.4861 16.6907 27.8094C16.5775 28.1499 16.499 28.501 16.4566 28.8573C16.4169 29.2222 16.3206 29.5787 16.171 29.9138C15.9969 30.2509 15.7343 30.5342 15.4115 30.7333C15.0713 30.9329 14.6864 31.0438 14.2921 31.056C13.8625 31.0551 13.4404 31.1695 13.07 31.3872C12.8847 31.5133 12.7509 31.7018 12.6931 31.9183C12.643 32.1296 12.643 32.3496 12.6931 32.5608C12.814 32.9405 12.9 33.3305 12.9501 33.7258C12.9619 33.9095 12.9159 34.0922 12.8187 34.2484C12.7084 34.3932 12.5587 34.5033 12.3876 34.5653C12.2191 34.6367 12.0363 34.6853 11.8593 34.7595C11.675 34.8291 11.5124 34.9463 11.3882 35.0993C11.2873 35.257 11.2227 35.4351 11.199 35.6207C11.1753 35.8064 11.1931 35.995 11.2511 36.1729C11.358 36.4964 11.512 36.8023 11.708 37.081C11.8819 37.3334 12.0211 37.6081 12.122 37.8976C12.2029 38.1677 12.2301 38.4509 12.202 38.7314C12.1552 39.2198 11.939 39.6764 11.5909 40.0221C11.3245 40.2801 10.996 40.465 10.6372 40.5589C10.3316 40.6387 10.0133 40.6571 9.70059 40.6132Z" fill="#455A64"/>
<path d="M6.65734 36.6812C6.61998 36.7373 6.5947 36.8005 6.58309 36.8668C6.54512 37.0626 6.57962 37.2656 6.68018 37.4379C6.74986 37.5609 6.84772 37.6656 6.96572 37.7434C7.11283 37.8324 7.28211 37.878 7.454 37.8748C7.6629 37.8702 7.86653 37.8084 8.04274 37.6961C8.21896 37.5839 8.361 37.4254 8.45341 37.238C8.56202 37.0229 8.61782 36.7851 8.61617 36.5441C8.60927 36.2852 8.55507 36.0297 8.45626 35.7903C8.27637 35.2963 7.94514 34.8137 7.93943 34.2369C7.92863 34.0949 7.94659 33.9522 7.99221 33.8173C8.03784 33.6824 8.11021 33.558 8.20498 33.4517C8.4365 33.2605 8.73399 33.1682 9.03306 33.1947C9.36587 33.219 9.70036 33.1842 10.021 33.0919C10.1891 33.0235 10.3311 32.9035 10.4265 32.7493C10.5184 32.5959 10.5759 32.4245 10.595 32.2467C10.6114 31.9057 10.5836 31.564 10.5122 31.2302C10.4611 30.9168 10.4796 30.5961 10.5664 30.2907C10.7283 29.7078 11.1074 29.2091 11.6258 28.8973C12.1179 28.6466 12.6641 28.5211 13.2163 28.5318C13.707 28.5329 14.1947 28.4558 14.6611 28.3033C15.0404 28.1642 15.3879 27.9506 15.6834 27.6752C15.9096 27.4661 16.1023 27.2234 16.2545 26.9556C16.3884 26.7334 16.4804 26.4886 16.5257 26.2332C16.4407 26.4742 16.3347 26.7074 16.2088 26.9299C15.849 27.5303 15.2949 27.9897 14.6383 28.232C14.1758 28.3735 13.6942 28.4428 13.2106 28.4376C12.6424 28.4216 12.0791 28.5472 11.5715 28.803C11.0264 29.1227 10.624 29.6385 10.4465 30.245C10.3551 30.5671 10.3347 30.9052 10.3865 31.2359C10.4534 31.5588 10.4812 31.8886 10.4693 32.2182C10.4626 32.3748 10.413 32.5267 10.3258 32.6571C10.2387 32.7875 10.1175 32.8915 9.97536 32.9577C9.67023 33.0443 9.35217 33.0762 9.03592 33.0519C8.70473 33.023 8.37546 33.1256 8.11932 33.3375C8.01473 33.4566 7.93548 33.5957 7.88639 33.7464C7.83729 33.8971 7.8194 34.0563 7.83378 34.2141C7.84639 34.5106 7.91722 34.8016 8.04222 35.0707C8.15359 35.3277 8.27637 35.5676 8.3706 35.8074C8.46642 36.0348 8.52058 36.2776 8.5305 36.5242C8.53441 36.7493 8.48551 36.9723 8.38773 37.1752C8.30488 37.3502 8.17562 37.4992 8.01402 37.606C7.85242 37.7127 7.66466 37.7731 7.47114 37.7805C7.3124 37.7862 7.15521 37.7477 7.01712 37.6692C6.89892 37.6002 6.80055 37.5018 6.73158 37.3836C6.63148 37.2248 6.59007 37.0359 6.6145 36.8497C6.62878 36.7469 6.6659 36.6841 6.65734 36.6812Z" fill="#263238"/>
<path d="M30.7083 38.0432C30.7762 38.2363 30.7762 38.4469 30.7083 38.64C30.6706 38.7509 30.6084 38.8518 30.5263 38.9354C30.4443 39.0189 30.3445 39.0829 30.2343 39.1226C30.0874 39.1659 29.9313 39.1675 29.7835 39.1271C29.6358 39.0868 29.5021 39.0061 29.3976 38.8941C29.2777 38.7623 29.208 38.5925 29.2006 38.4144C29.1951 38.2203 29.2251 38.0267 29.2891 37.8433C29.409 37.4579 29.6575 37.0381 29.6204 36.5327C29.6023 36.2764 29.531 36.0268 29.4111 35.7996C29.2911 35.5725 29.1251 35.3728 28.9236 35.2135C28.7126 35.0446 28.4713 34.9176 28.2126 34.8394C27.9484 34.7662 27.6759 34.7268 27.4017 34.7223C27.136 34.7201 26.8711 34.6924 26.6107 34.6395C26.3677 34.5894 26.1502 34.4549 25.9968 34.2598C25.861 34.0595 25.7847 33.8249 25.7769 33.583C25.7642 33.3474 25.7834 33.1111 25.834 32.8806C25.9594 32.4457 26.0285 31.9966 26.0396 31.5442C26.0166 31.1426 25.8745 30.7569 25.6313 30.4363C25.4257 30.182 25.1738 29.9688 24.8889 29.8081C24.6808 29.6849 24.4814 29.5476 24.2921 29.3969C24.1369 29.2641 24.0106 29.1008 23.9209 28.9172C23.9209 28.9172 23.9209 28.9172 23.9209 28.9572C23.9322 28.9958 23.9475 29.0332 23.9666 29.0686C24.0378 29.2074 24.1347 29.3314 24.2521 29.4341C24.4372 29.5952 24.6349 29.7413 24.8432 29.871C25.1156 30.033 25.3557 30.244 25.5514 30.4934C25.7777 30.8007 25.907 31.1686 25.9226 31.55C25.9056 31.9921 25.8337 32.4305 25.7084 32.8549C25.6532 33.0963 25.6311 33.3442 25.6427 33.5916C25.6534 33.8581 25.7384 34.1162 25.8883 34.3369C26.0585 34.5571 26.3013 34.7099 26.5736 34.768C26.8415 34.823 27.114 34.8527 27.3874 34.8565C27.6517 34.86 27.9145 34.8965 28.1698 34.9651C28.4121 35.0404 28.6385 35.1594 28.838 35.3163C29.0256 35.4642 29.1806 35.6495 29.2932 35.8603C29.4057 36.0711 29.4734 36.303 29.4919 36.5413C29.5318 37.001 29.3034 37.3979 29.1778 37.8119C29.1118 38.0106 29.0827 38.2196 29.0921 38.4287C29.1045 38.6282 29.1863 38.8171 29.3234 38.9627C29.4407 39.0855 29.5902 39.1729 29.7548 39.2148C29.9194 39.2567 30.0925 39.2515 30.2543 39.1997C30.3724 39.1538 30.4786 39.0817 30.5647 38.9886C30.6508 38.8956 30.7145 38.7842 30.7511 38.6628C30.8029 38.514 30.8108 38.3535 30.774 38.2003C30.7615 38.1444 30.7393 38.0913 30.7083 38.0432Z" fill="#263238"/>
<path d="M27.9787 60.4099V57.2518C28.3328 55.4786 28.1643 53.377 27.3391 51.758C26.7404 50.7144 26.0786 49.7084 25.3574 48.7455L22.2164 44.6651C20.486 45.9243 17.7762 45.0134 15.4519 44.1682C15.4519 44.1682 13.1676 45.4389 12.0882 46.6325C10.966 47.8889 14.8037 63.608 14.8037 63.608C13.0648 67.086 10.8204 70.1756 10.4806 73.3451L28.6412 74.0447L27.8702 65.7182L27.9787 60.4099Z" fill="#455A64"/>
<path d="M27.7275 65.8067C27.7095 65.6886 27.7047 65.5689 27.7132 65.4497C27.7132 65.1899 27.7132 64.8786 27.7132 64.4817C27.7275 63.6251 27.7446 62.5201 27.7646 61.2894C27.7846 60.0587 27.8217 58.9136 27.8617 58.097C27.8817 57.6887 27.9017 57.3574 27.9188 57.129C27.9208 57.0106 27.9361 56.8928 27.9645 56.7778C27.9761 56.8955 27.9761 57.0141 27.9645 57.1318C27.9645 57.3917 27.9645 57.7029 27.9645 58.0998C27.9502 58.9565 27.9302 60.0615 27.9103 61.2922C27.8903 62.5229 27.856 63.6679 27.816 64.4846C27.796 64.8929 27.776 65.2242 27.7561 65.4526C27.7605 65.5713 27.7509 65.6902 27.7275 65.8067Z" fill="#263238"/>
<path d="M36.0225 68.6792C36.0225 68.6792 37.7929 68.7763 38.8779 69.4616C39.963 70.1469 41.7334 71.2148 42.4615 72.5369C42.7956 73.1451 41.8447 73.2736 41.3736 72.9224C40.9025 72.5712 40.1857 71.903 39.8288 71.823L39.4719 71.7402C39.7977 72.4778 40.1608 73.1983 40.5598 73.8989C40.9282 74.47 41.248 75.418 40.14 75.4609C40.14 75.4609 39.3948 76.4317 38.6409 75.7121C38.6409 75.7121 38.0527 76.5945 37.1047 75.3723C37.1047 75.3723 36.5508 76.0719 36.3223 75.8035C36.0939 75.5351 35.3372 75.1125 35.1173 74.2387C34.7874 73.2216 34.4062 72.2219 33.9752 71.2434L36.0225 68.6792Z" fill="#FFBF9D"/>
<path d="M75.6592 44.1396C75.8562 44.1396 83.9628 43.283 83.9628 43.283C83.9628 43.283 84.651 39.9878 84.6138 39.1312C84.5767 38.2745 83.9999 32.6065 83.9999 32.6065L87.0353 31.1788C87.0353 31.1788 91.0928 44.862 90.2077 45.9985C89.3225 47.135 87.6577 48.1544 87.515 48.1601C87.3722 48.1658 79.6597 51.5866 74.2943 49.8076C68.9289 48.0287 75.6592 44.1396 75.6592 44.1396Z" fill="#FFBF9D"/>
<path d="M68.5536 51.5266C69.7472 52.7116 71.8031 53.6967 75.2354 52.8401C82.0199 51.144 87.1054 49.6991 89.1271 48.614C91.1487 47.529 90.3606 42.6804 90.532 42.4606C91.0431 41.7981 90.4806 40.3761 89.7524 40.1534C87.6765 39.5252 84.0644 39.7736 83.8816 39.9621C82.8166 41.0814 83.7874 42.4406 83.7874 42.4406L74.8413 43.6142C73.7415 43.5626 72.6393 43.6325 71.5547 43.8226" fill="#455A64"/>
<path d="M71.5556 43.8226L71.7698 43.777C71.9126 43.7513 72.1238 43.7141 72.4037 43.6799C73.2132 43.5779 74.0298 43.5436 74.8451 43.5771L83.7883 42.3778L83.7455 42.4777C83.4517 42.0455 83.3073 41.5291 83.3343 41.0072C83.3587 40.7372 83.4468 40.4769 83.5913 40.2476C83.6639 40.1324 83.746 40.0235 83.8369 39.9221C83.8727 39.8956 83.9121 39.8745 83.9539 39.8593L84.0567 39.8336C84.1253 39.8165 84.1909 39.8107 84.2566 39.7965C85.3646 39.6687 86.4823 39.6458 87.5946 39.7279C88.1786 39.7635 88.759 39.8437 89.3307 39.9678C89.4735 39.9992 89.6163 40.042 89.7648 40.0792C89.917 40.1277 90.0565 40.2097 90.1731 40.319C90.4001 40.5347 90.5732 40.8008 90.6785 41.0957C90.7918 41.3911 90.8319 41.7095 90.7956 42.0237C90.7694 42.1872 90.7081 42.3431 90.6157 42.4806C90.59 42.5091 90.5928 42.5862 90.59 42.6605V42.8889C90.61 43.5028 90.6385 44.1282 90.6214 44.7564C90.6259 45.6482 90.4802 46.5343 90.1902 47.3777C90.0413 47.8002 89.7855 48.1769 89.4478 48.4713C89.2729 48.608 89.0809 48.7213 88.8767 48.8082C88.6882 48.9082 88.4884 48.9853 88.3056 49.0766C87.5232 49.4107 86.738 49.6849 85.9642 49.9333C85.1903 50.1817 84.4308 50.4216 83.6798 50.6414C80.693 51.4981 77.9689 52.1919 75.7017 52.7602C75.1601 52.9034 74.611 53.0168 74.057 53.1C73.5605 53.1692 73.0589 53.1959 72.5579 53.1799C71.7529 53.1627 70.9588 52.9901 70.2193 52.6716C69.7554 52.467 69.3228 52.1978 68.9343 51.8721C68.7974 51.7615 68.6695 51.6402 68.5517 51.5095C68.5517 51.5095 68.683 51.6351 68.9543 51.8493C69.3479 52.1632 69.782 52.4225 70.245 52.6202C70.98 52.9236 71.7657 53.0854 72.5607 53.0971C73.0564 53.109 73.5522 53.0784 74.0427 53.0057C74.593 52.9189 75.1382 52.8026 75.676 52.6574C77.9604 52.0863 80.6616 51.3838 83.6398 50.5101C84.3851 50.2902 85.1446 50.0561 85.9242 49.7991C86.7037 49.5421 87.4775 49.2708 88.2514 48.9424C88.4398 48.8539 88.6368 48.7768 88.8225 48.6769C89.0131 48.593 89.1925 48.4855 89.3564 48.3571C89.6752 48.0801 89.9163 47.7248 90.056 47.3263C90.3373 46.494 90.4773 45.6206 90.47 44.7421C90.4872 44.1168 90.47 43.4971 90.4386 42.8803V42.6462C90.4386 42.6062 90.4386 42.5662 90.4386 42.5234C90.4363 42.5006 90.4363 42.4777 90.4386 42.4549C90.445 42.4372 90.4527 42.4201 90.4615 42.4035L90.4758 42.3806C90.556 42.2636 90.6088 42.1298 90.6299 41.9895C90.6634 41.6991 90.6252 41.405 90.5186 41.1328C90.4227 40.8601 90.2643 40.6137 90.056 40.4132C89.9549 40.3184 89.8339 40.2472 89.7019 40.2048C89.5592 40.1677 89.4164 40.1277 89.2765 40.0934C88.7122 39.9711 88.1395 39.8919 87.5632 39.8564C86.4625 39.7723 85.3562 39.7933 84.2595 39.9193C84.1938 39.9193 84.1281 39.9364 84.0653 39.9535L83.9739 39.9735C83.9541 39.9813 83.9349 39.9908 83.9168 40.0021C83.8308 40.0958 83.7534 40.1971 83.6855 40.3047C83.5496 40.5148 83.4672 40.755 83.4457 41.0043C83.4209 41.4951 83.5551 41.9808 83.8283 42.3892L83.8854 42.4777H83.7855L74.8365 43.6199C74.026 43.5788 73.2135 43.6017 72.4065 43.6884C72.121 43.717 71.9126 43.7484 71.7698 43.7684C71.627 43.7884 71.5556 43.8226 71.5556 43.8226Z" fill="#263238"/>
<path d="M47.3335 53.1222L43.6896 46.5753L112.612 8.21384C113.406 7.77187 114.343 7.66344 115.217 7.91241C116.091 8.16137 116.83 8.74734 117.272 9.5414L117.584 10.1028C118.026 10.8968 118.135 11.8339 117.886 12.7079C117.637 13.582 117.051 14.3212 116.257 14.7632L47.3349 53.1247L47.3335 53.1222Z" fill="white"/>
<path d="M105.128 18.4984L96.689 3.33628C96.6482 3.26288 96.6222 3.18216 96.6125 3.09872C96.6029 3.01528 96.6098 2.93076 96.6328 2.84998C96.6558 2.76919 96.6945 2.69374 96.7467 2.62791C96.7988 2.56208 96.8635 2.50718 96.9369 2.46633L100.809 0.311066C100.882 0.270216 100.963 0.244217 101.047 0.234564C101.13 0.22491 101.215 0.231783 101.295 0.254795C101.376 0.277806 101.452 0.316505 101.517 0.36868C101.583 0.420854 101.638 0.48548 101.679 0.558873L110.118 15.721L105.128 18.4984Z" fill="white"/>
<path d="M88.5259 11.4381L94.6765 22.4885C94.925 22.9349 95.4883 23.0954 95.9348 22.8469L99.308 20.9694C99.7545 20.7209 99.915 20.1575 99.6665 19.7111L93.5159 8.66072C93.2674 8.21427 92.704 8.05378 92.2576 8.30228L88.8843 10.1798C88.4379 10.4283 88.2774 10.9917 88.5259 11.4381Z" fill="white"/>
<path d="M93.9567 10.7928L97.7645 17.6341L105.514 13.3208L101.706 6.47949L93.9567 10.7928Z" fill="white"/>
<path d="M111.603 8.78932C111.623 8.82359 98.0971 16.3905 81.3985 25.6878C64.6999 34.9851 51.1309 42.4949 51.1309 42.4578C51.1309 42.4207 64.6342 34.8566 81.3385 25.5565C98.0429 16.2563 111.583 8.7522 111.603 8.78932Z" fill="#263238"/>
<path d="M19.421 65.7697C24.5037 74.9071 35.2202 78.6191 43.3582 74.0933C51.4962 69.5674 53.9804 58.4883 48.8977 49.3623C43.815 40.2363 33.1014 36.5128 24.9606 41.0387C16.8197 45.5646 14.3412 56.6437 19.421 65.7697ZM44.4889 51.818C48.0497 58.2142 46.3107 65.9724 40.6055 69.1448C34.9004 72.3172 27.3934 69.7159 23.8327 63.314C20.272 56.9121 22.0109 49.1596 27.7132 45.9843C33.4155 42.8091 40.9282 45.4218 44.4889 51.818Z" fill="white"/>
<path d="M55.2923 40.0388L59.0529 46.7953C59.5529 47.6937 60.6866 48.0167 61.5851 47.5166L61.8894 47.3472C62.7879 46.8471 63.1108 45.7135 62.6108 44.815L58.8502 38.0586C58.3501 37.1601 57.2164 36.8372 56.318 37.3373L56.0136 37.5067C55.1152 38.0067 54.7922 39.1404 55.2923 40.0388Z" fill="white"/>
<path d="M62.5141 36.0188L66.2747 42.7752C66.7748 43.6737 67.9085 43.9966 68.8069 43.4965L69.1113 43.3271C70.0097 42.8271 70.3327 41.6934 69.8326 40.7949L66.072 34.0385C65.572 33.1401 64.4383 32.8171 63.5398 33.3172L63.2354 33.4866C62.337 33.9866 62.0141 35.1203 62.5141 36.0188Z" fill="white"/>
<path d="M58.7697 37.9548C58.8068 37.9348 59.6777 39.4682 60.7199 41.3813C61.7622 43.2945 62.576 44.8535 62.5388 44.8735C62.5017 44.8935 61.6308 43.363 60.5886 41.447C59.5463 39.531 58.7325 37.9548 58.7697 37.9548Z" fill="#263238"/>
<path d="M55.4543 40.3105C55.4914 40.2905 56.3423 41.7554 57.3589 43.5771C58.3754 45.3989 59.1664 46.898 59.1321 46.918C59.0978 46.938 58.2441 45.4731 57.2389 43.6656C56.2338 41.8582 55.42 40.3305 55.4543 40.3105Z" fill="#263238"/>
<path d="M66.036 33.9772C66.0731 33.9572 66.9612 35.482 68.0205 37.3837C69.0799 39.2854 69.908 40.8474 69.8709 40.8674C69.8337 40.8873 68.9485 39.3597 67.8892 37.458C66.8298 35.5562 66.0017 33.9972 66.036 33.9772Z" fill="#263238"/>
<path d="M62.5501 36.0816C62.5844 36.0616 63.4553 37.5778 64.489 39.4681C65.5226 41.3584 66.3364 42.8946 66.2993 42.926C66.2622 42.9575 65.397 41.4298 64.3605 39.5395C63.3239 37.6492 62.513 36.1015 62.5501 36.0816Z" fill="#263238"/>
<path d="M83.2596 25.782C83.5921 25.8212 83.9272 25.7352 84.1998 25.5408C84.4724 25.3464 84.6628 25.0575 84.7341 24.7304C84.8053 24.4033 84.7523 24.0614 84.5853 23.7712C84.4183 23.481 84.1493 23.2634 83.8307 23.1607C84.0366 22.9498 84.171 22.6795 84.2149 22.388C84.2587 22.0965 84.2097 21.7986 84.0748 21.5365C83.94 21.2743 83.7261 21.0613 83.4635 20.9274C83.2008 20.7936 82.9027 20.7458 82.6114 20.7907C82.5994 20.5008 82.5126 20.2189 82.3595 19.9724C82.2063 19.726 81.992 19.5233 81.7373 19.3842C81.4826 19.2451 81.1963 19.1743 80.9062 19.1785C80.616 19.1828 80.3319 19.2621 80.0815 19.4087C79.7549 19.1417 79.3485 18.9916 78.9268 18.9823C78.5051 18.973 78.0923 19.105 77.7543 19.3573C77.4703 19.3031 77.1764 19.3418 76.9161 19.4678C76.6559 19.5938 76.4432 19.8003 76.3095 20.0567C76.1759 20.3131 76.1284 20.6057 76.1742 20.8912C76.22 21.1767 76.3565 21.4398 76.5636 21.6416" fill="#263238"/>
<path d="M77.4662 20.6879H77.7518C79.1915 20.6891 80.578 21.2324 81.6352 22.2097C82.6924 23.1871 83.3428 24.5267 83.457 25.9619C83.6711 28.7288 83.871 31.787 83.8481 33.2718C83.7939 36.3557 80.7272 36.8125 80.7272 36.8125L80.9756 40.5075L73.5143 40.2648L72.8947 26.8727C72.632 23.6775 74.2681 20.8649 77.4662 20.6879Z" fill="#FFBF9D"/>
<path d="M80.7527 36.8125C79.3253 36.8087 77.929 36.3954 76.7294 35.6218C76.7294 35.6218 77.7173 37.949 80.7841 37.6806L80.7527 36.8125Z" fill="#FF9A6C"/>
<path d="M81.7701 28.8602C81.7708 28.9746 81.7267 29.0847 81.6472 29.167C81.5676 29.2492 81.459 29.2969 81.3446 29.2999C81.2888 29.3038 81.2329 29.2966 81.1799 29.2787C81.127 29.2608 81.0781 29.2325 81.0362 29.1956C80.9942 29.1587 80.96 29.1138 80.9355 29.0636C80.911 29.0134 80.8967 28.9588 80.8934 28.903C80.8933 28.7885 80.9376 28.6785 81.017 28.596C81.0963 28.5134 81.2045 28.4648 81.3189 28.4604C81.3749 28.4565 81.4311 28.4639 81.4842 28.4819C81.5373 28.5 81.5863 28.5285 81.6283 28.5657C81.6703 28.6029 81.7044 28.6481 81.7288 28.6987C81.7531 28.7492 81.7672 28.8041 81.7701 28.8602Z" fill="#263238"/>
<path d="M82.7916 27.4724C82.7374 27.5295 82.4033 27.2839 81.935 27.2839C81.4667 27.2839 81.1155 27.5181 81.0641 27.461C81.0127 27.4039 81.0955 27.3325 81.2468 27.2211C81.4516 27.0804 81.6951 27.0065 81.9436 27.0098C82.1891 27.0088 82.4284 27.0869 82.626 27.2325C82.7688 27.3439 82.8173 27.4495 82.7916 27.4724Z" fill="#263238"/>
<path d="M77.5117 28.6546C77.514 28.7707 77.4702 28.8831 77.39 28.9671C77.3097 29.0511 77.1995 29.0999 77.0834 29.1029C77.0276 29.1068 76.9717 29.0995 76.9187 29.0816C76.8658 29.0637 76.8169 29.0355 76.775 28.9986C76.733 28.9617 76.6988 28.9168 76.6743 28.8666C76.6498 28.8164 76.6355 28.7618 76.6322 28.706C76.6314 28.5913 76.6754 28.4808 76.7549 28.3982C76.8344 28.3155 76.943 28.2671 77.0577 28.2634C77.1132 28.2591 77.169 28.2659 77.2219 28.2832C77.2749 28.3006 77.3238 28.3282 77.366 28.3646C77.4082 28.401 77.4428 28.4453 77.4678 28.4951C77.4928 28.5448 77.5077 28.599 77.5117 28.6546Z" fill="#263238"/>
<path d="M78.1487 27.5467C78.0944 27.6038 77.7603 27.3582 77.2921 27.3582C76.8238 27.3582 76.4725 27.5924 76.4211 27.5352C76.3697 27.4781 76.4526 27.4068 76.6039 27.2954C76.8087 27.1546 77.0521 27.0808 77.3006 27.0841C77.5461 27.0831 77.7854 27.1612 77.9831 27.3068C78.1258 27.4182 78.1744 27.521 78.1487 27.5467Z" fill="#263238"/>
<path d="M79.8502 31.0559C80.0993 30.9776 80.3575 30.9315 80.6183 30.9189C80.7383 30.9189 80.8525 30.8846 80.8753 30.8018C80.8854 30.6775 80.8575 30.553 80.7954 30.4448L80.4413 29.5254C79.9502 28.2148 79.5847 27.1383 79.6475 27.1211C79.7103 27.104 80.1415 28.1462 80.6326 29.454C80.7497 29.7767 80.8639 30.0851 80.9724 30.3792C81.0465 30.5255 81.0676 30.693 81.0324 30.8532C81.0144 30.8955 80.9871 30.9331 80.9525 30.9633C80.9179 30.9935 80.8768 31.0154 80.8325 31.0274C80.7667 31.0469 80.6984 31.0565 80.6297 31.0559C80.3709 31.0883 80.109 31.0883 79.8502 31.0559Z" fill="#263238"/>
<path d="M78.5624 25.7306C78.4996 25.8505 78.097 25.7306 77.5973 25.702C77.0976 25.6735 76.6807 25.7677 76.635 25.642C76.615 25.5821 76.7035 25.4764 76.8834 25.3793C77.1154 25.2647 77.3731 25.2116 77.6315 25.2252C77.8878 25.2342 78.1371 25.3111 78.354 25.4479C78.5167 25.5592 78.591 25.6763 78.5624 25.7306Z" fill="#263238"/>
<path d="M82.821 25.5278C82.7211 25.6335 82.3299 25.5278 81.8616 25.5278C81.3933 25.5278 81.005 25.5992 80.905 25.485C80.8651 25.4308 80.9279 25.3222 81.1021 25.2223C81.342 25.0965 81.6109 25.0364 81.8816 25.0481C82.1508 25.0517 82.4142 25.1277 82.644 25.268C82.8096 25.3651 82.8639 25.4736 82.821 25.5278Z" fill="#263238"/>
<path d="M83.165 24.5627C83.165 24.5627 82.3597 22.6353 81.4317 22.1841C80.3095 21.6359 79.8241 22.8666 78.7533 22.5639C77.6825 22.2612 76.6117 21.7387 75.5153 22.5639C74.316 23.4662 74.8756 24.103 74.7957 25.4679C74.4816 30.996 73.465 32.5551 73.1881 29.9509C73.1567 29.6654 72.3657 29.437 72.2515 28.2377C72.103 26.6757 72.0488 24.7769 72.4028 23.669C72.6884 22.7352 73.2338 22.0899 74.1903 21.3846C75.7037 20.2653 77.7768 20.2424 79.1845 20.3938C80.5922 20.5451 83.2992 22.1527 83.165 24.5627Z" fill="#263238"/>
<path d="M73.3826 29.8653C73.3795 29.7525 73.3535 29.6415 73.3062 29.539C73.2588 29.4366 73.1912 29.3448 73.1074 29.2692C73.0236 29.1937 72.9253 29.1359 72.8185 29.0995C72.7117 29.063 72.5986 29.0487 72.486 29.0572C71.9149 29.1115 71.2725 29.4341 71.3067 30.6191C71.3667 32.7207 73.4654 32.2267 73.4683 32.1639C73.4712 32.1011 73.4169 30.7448 73.3826 29.8653Z" fill="#FFBF9D"/>
<path d="M72.9867 31.3872C72.9867 31.3872 72.9524 31.4158 72.8896 31.4443C72.8043 31.4835 72.7073 31.4886 72.6184 31.4586C72.4797 31.3766 72.3655 31.2589 72.2876 31.1178C72.2098 30.9767 72.1712 30.8173 72.1758 30.6562C72.1648 30.4769 72.1941 30.2974 72.2614 30.1308C72.2796 30.065 72.3135 30.0046 72.3603 29.9548C72.407 29.905 72.4652 29.8675 72.5298 29.8453C72.5717 29.8325 72.6167 29.835 72.657 29.8522C72.6972 29.8695 72.7301 29.9004 72.7497 29.9395C72.7783 29.9966 72.7668 30.0394 72.7783 30.0423C72.7897 30.0452 72.8211 30.0052 72.8011 29.9195C72.7898 29.8674 72.7592 29.8215 72.7154 29.791C72.6866 29.7698 72.6538 29.7546 72.619 29.7463C72.5842 29.7379 72.548 29.7366 72.5127 29.7425C72.4267 29.7619 72.3471 29.803 72.2816 29.862C72.2161 29.921 72.1669 29.9959 72.1386 30.0794C72.0538 30.2634 72.0155 30.4654 72.0273 30.6676C72.053 31.0903 72.2814 31.4814 72.5984 31.5614C72.6549 31.5763 72.7142 31.5781 72.7716 31.5668C72.8289 31.5554 72.883 31.5311 72.9296 31.4957C72.9867 31.4386 72.9953 31.3872 72.9867 31.3872Z" fill="#FF9A6C"/>
<path d="M73.4368 25.7934C73.6939 26.003 73.9991 26.1453 74.3248 26.2075C74.4884 26.2331 74.6558 26.1986 74.7959 26.1105C74.9361 26.0223 75.0396 25.8863 75.0872 25.7277C75.1129 25.5821 75.0872 25.4108 75.1729 25.2994C75.2586 25.1881 75.5013 25.2081 75.6755 25.228C76.2865 25.2937 77.0032 24.6198 77.1603 24.0259C77.2396 24.1398 77.3594 24.2192 77.4952 24.2478C77.6311 24.2765 77.7727 24.2522 77.8913 24.1801C78.0855 24.0614 78.2575 23.9097 78.3995 23.7318C78.4823 23.6185 78.5912 23.5269 78.717 23.4648C78.8428 23.4026 78.9817 23.3718 79.122 23.3749C79.2698 23.4259 79.4232 23.4595 79.5788 23.4748C79.8644 23.452 79.99 23.1293 80.0329 22.8552C80.0757 22.5811 80.11 22.2641 80.3441 22.1156C80.5844 22.0215 80.8501 22.0144 81.0951 22.0956C81.3492 22.1356 81.6662 22.0756 81.7433 21.8272C81.7538 21.7608 81.7508 21.693 81.7346 21.6278C81.7184 21.5626 81.6893 21.5012 81.649 21.4474C81.4792 21.1927 81.2283 21.0029 80.937 20.9085C80.6458 20.8142 80.3312 20.821 80.0443 20.9278C79.9432 20.5763 79.7399 20.2629 79.4601 20.0275C79.1803 19.7921 78.8367 19.6453 78.4732 19.6058C78.1097 19.5662 77.7427 19.6358 77.4188 19.8057C77.095 19.9755 76.8291 20.2379 76.6549 20.5594C76.4325 20.3557 76.1641 20.2088 75.8727 20.1313C75.5813 20.0537 75.2754 20.0478 74.9812 20.114C74.687 20.1802 74.4131 20.3165 74.183 20.5114C73.9529 20.7063 73.7733 20.954 73.6595 21.2333C73.4025 21.1647 73.1309 21.1733 72.8787 21.2579C72.6264 21.3424 72.4046 21.4994 72.2409 21.709C72.0772 21.9187 71.9787 22.172 71.9578 22.4372C71.9369 22.7024 71.9944 22.9679 72.1233 23.2007C71.9276 23.2973 71.7597 23.4421 71.6354 23.6214C71.511 23.8007 71.4342 24.0087 71.4123 24.2258C71.4123 24.6598 71.8263 25.0824 72.2461 24.9796C72.159 25.1507 72.1408 25.3485 72.195 25.5326C72.2493 25.7167 72.372 25.873 72.5379 25.9695C72.7037 26.0659 72.9003 26.0952 73.0871 26.0513C73.2739 26.0074 73.4369 25.8937 73.5424 25.7335" fill="#263238"/>
<path d="M80.1995 21.5446C80.1995 21.5446 80.1995 21.5446 80.1995 21.5845C80.1995 21.6245 80.1995 21.6474 80.1852 21.6959C80.1557 21.8384 80.1037 21.9753 80.031 22.1014C79.915 22.299 79.7559 22.4678 79.5656 22.5954C79.3139 22.767 79.0133 22.8522 78.7089 22.8381L78.7432 22.7924C78.8049 22.9809 78.7895 23.1862 78.7004 23.3635C78.606 23.5513 78.4848 23.7245 78.3406 23.8774C78.2706 23.9666 78.1911 24.048 78.1036 24.1202C77.9482 24.2224 77.7617 24.2661 77.5771 24.2436C77.3925 24.2211 77.2219 24.1339 77.0956 23.9974L77.1727 23.9745C77.1432 24.1927 77.0683 24.4023 76.9527 24.5897C76.8371 24.7771 76.6834 24.9382 76.5017 25.0625C76.3021 25.2109 76.0594 25.2901 75.8107 25.288C75.5774 25.2753 75.3478 25.2242 75.1311 25.1367L75.1882 25.111C75.0782 25.3653 74.9064 25.5881 74.6885 25.7592C74.589 25.8444 74.4717 25.9063 74.3453 25.9404C74.2188 25.9745 74.0863 25.9799 73.9575 25.9562C73.7366 25.9082 73.5347 25.7966 73.3764 25.6353C73.2181 25.474 73.1104 25.2699 73.0666 25.0482L73.1151 25.071C72.8929 25.1861 72.6382 25.2223 72.3927 25.1738C72.2099 25.1389 72.0377 25.0617 71.8902 24.9482C71.7983 24.8762 71.7192 24.7894 71.656 24.6913C71.6329 24.6572 71.6156 24.6196 71.6046 24.5799C71.6844 24.7112 71.788 24.8264 71.9101 24.9197C72.0556 25.0249 72.2239 25.0944 72.4013 25.1224C72.6345 25.1666 72.8757 25.1282 73.0837 25.0139L73.1237 24.9911V25.0368C73.1669 25.2431 73.2694 25.4324 73.4185 25.5815C73.5675 25.7306 73.7568 25.833 73.9632 25.8763C74.0809 25.8968 74.2018 25.8908 74.3169 25.8587C74.432 25.8266 74.5384 25.7692 74.6285 25.6907C74.8331 25.528 74.994 25.317 75.0968 25.0767L75.114 25.0396H75.1539C75.3606 25.1227 75.5796 25.171 75.8021 25.1824C76.0323 25.1842 76.2568 25.1111 76.4417 24.9739C76.6128 24.8565 76.7575 24.7047 76.8667 24.5282C76.9758 24.3517 77.047 24.1544 77.0756 23.9488V23.8489L77.1413 23.926C77.2156 24.008 77.3088 24.0707 77.4128 24.1085C77.5168 24.1463 77.6285 24.1582 77.7381 24.143C77.8404 24.1294 77.9381 24.0922 78.0236 24.0345C78.1062 23.968 78.181 23.8924 78.2464 23.8089C78.3876 23.6632 78.5068 23.4978 78.6004 23.3178C78.6425 23.2376 78.6682 23.1499 78.6761 23.0597C78.6839 22.9695 78.6737 22.8786 78.6461 22.7924L78.629 22.741H78.6832C78.9749 22.7591 79.2645 22.6819 79.5085 22.5211C79.6958 22.4005 79.8539 22.2395 79.971 22.05C80.0765 21.8963 80.1538 21.7252 80.1995 21.5446Z" fill="#455A64"/>
<path d="M79.8451 32.6237C79.828 32.5466 79.3168 32.6722 78.8428 32.3238C78.3688 31.9755 78.2917 31.4158 78.2203 31.4301C78.149 31.4444 78.149 31.5786 78.2004 31.8099C78.2707 32.1116 78.4458 32.3787 78.6944 32.5637C78.9318 32.7406 79.2287 32.8185 79.5224 32.7807C79.7423 32.7464 79.8565 32.6579 79.8451 32.6237Z" fill="#263238"/>
<path d="M95.6818 112.516L97.7092 119.423C97.7092 119.423 105.419 119.68 105.913 120.922L92.6465 125.331L89.0429 114.695L95.6818 112.516Z" fill="#455A64"/>
<path d="M93.419 120.214C93.3045 120.296 93.2241 120.416 93.193 120.553C93.1619 120.69 93.1824 120.834 93.2505 120.957C93.3273 121.074 93.4462 121.158 93.5827 121.19C93.7192 121.222 93.863 121.201 93.9844 121.131C94.1057 121.044 94.1907 120.916 94.2229 120.77C94.2551 120.625 94.2321 120.472 94.1585 120.343C94.0655 120.228 93.9318 120.154 93.7854 120.136C93.6391 120.118 93.4914 120.157 93.3733 120.246" fill="#E0E0E0"/>
<path d="M105.164 120.423C105.164 120.423 105.841 120.483 105.912 120.922L92.6459 125.331L92.326 124.243L105.153 120.417" fill="#263238"/>
<path d="M97.8998 119.283C97.9198 119.349 97.6142 119.486 97.3572 119.8C97.1003 120.114 97.0289 120.443 96.9603 120.437C96.8918 120.431 96.8661 120.026 97.1745 119.652C97.4829 119.278 97.8941 119.221 97.8998 119.283Z" fill="white"/>
<path d="M99.4813 119.395C99.5184 119.455 99.2757 119.657 99.1444 120.003C99.013 120.348 99.0501 120.662 98.9844 120.68C98.9188 120.697 98.756 120.346 98.9245 119.917C99.0929 119.489 99.4613 119.335 99.4813 119.395Z" fill="white"/>
<path d="M100.827 120.797C100.772 120.831 100.575 120.537 100.624 120.129C100.672 119.72 100.927 119.475 100.972 119.52C101.018 119.566 100.892 119.806 100.858 120.154C100.824 120.503 100.89 120.763 100.827 120.797Z" fill="white"/>
<path d="M97.2631 117.761C97.2631 117.83 96.929 117.838 96.5721 117.984C96.2152 118.13 95.9667 118.341 95.9153 118.298C95.8639 118.255 96.061 117.933 96.4864 117.764C96.9119 117.596 97.2802 117.699 97.2631 117.761Z" fill="white"/>
<path d="M64.7452 112.576L61.8583 119.172C61.8583 119.172 67.5949 124.312 67.1808 125.591L54.1886 120.451L58.2633 109.989L64.7452 112.576Z" fill="#455A64"/>
<path d="M58.0641 117.022C57.9244 117.011 57.7855 117.052 57.6739 117.136C57.5622 117.221 57.4857 117.344 57.4588 117.482C57.4428 117.621 57.4806 117.761 57.5644 117.874C57.6483 117.986 57.7718 118.062 57.9099 118.087C58.0583 118.098 58.2055 118.054 58.3234 117.963C58.4414 117.873 58.5219 117.742 58.5496 117.596C58.5496 117.31 58.2897 116.985 58.0099 117.025" fill="#E0E0E0"/>
<path d="M66.9267 124.729C66.9267 124.729 67.4064 125.211 67.1808 125.585L54.1886 120.446L54.6426 119.409L66.921 124.72" fill="#263238"/>
<path d="M62.0928 119.189C62.0671 119.252 61.7387 119.155 61.3447 119.235C60.9506 119.315 60.6793 119.52 60.6308 119.469C60.5823 119.418 60.8221 119.092 61.299 119.004C61.7758 118.915 62.1328 119.135 62.0928 119.189Z" fill="white"/>
<path d="M63.2348 120.291C63.2348 120.357 62.9093 120.357 62.5867 120.54C62.264 120.722 62.0927 120.982 62.0156 120.957C61.9385 120.931 62.0556 120.554 62.4582 120.334C62.8608 120.114 63.2577 120.231 63.2348 120.291Z" fill="white"/>
<path d="M63.3662 122.227C63.3034 122.227 63.3405 121.868 63.6517 121.585C63.963 121.302 64.3028 121.279 64.3085 121.342C64.3142 121.405 64.0572 121.519 63.8145 121.756C63.5718 121.993 63.4319 122.247 63.3662 122.227Z" fill="white"/>
<path d="M62.587 117.621C62.5384 117.667 62.2814 117.467 61.9131 117.336C61.5447 117.205 61.2221 117.222 61.2107 117.156C61.1992 117.09 61.5562 116.968 61.9873 117.11C62.4185 117.253 62.6384 117.576 62.587 117.621Z" fill="white"/>
<path d="M69.6077 76.3404L65.0562 94.8037C65.0562 94.8037 56.8468 108.624 55.4562 115.54L62.966 118.492C62.966 118.492 68.4284 105.172 70.0303 102.728C70.7511 101.632 71.5794 100.611 72.5031 99.6808C73.1037 99.085 73.5345 98.3398 73.751 97.522L77.1975 84.3499L69.6077 76.3404Z" fill="#263238"/>
<path d="M67.6697 73.3879C67.6697 73.3879 68.3037 78.3335 73.0637 80.5264L83.092 96.8596C83.092 96.8596 83.8772 102.171 85.3763 106.645C86.8754 111.12 89.905 119.743 89.905 119.743L98.1544 116.659L92.8975 98.687L92.0409 92.4536L83.8572 71.6089L76.8271 67.3943L67.6697 73.3879Z" fill="#263238"/>
<path d="M67.6697 73.3878L67.8211 73.285L68.2751 72.9824L70.0569 71.8059L76.8128 67.3657L76.8357 67.3514L76.8585 67.3657L83.8943 71.5718V71.5889L92.0952 92.4136V92.4279C92.3664 94.3981 92.6663 96.5083 92.9518 98.6613C94.3795 103.516 95.8929 108.71 97.4577 114.061C97.7109 114.923 97.9621 115.78 98.2115 116.631L98.2315 116.696L98.1658 116.719L89.9165 119.803L89.8451 119.829L89.8222 119.757C88.3945 115.614 87.0125 111.625 85.7075 107.842C85.3792 106.896 85.0565 105.96 84.7881 105.023C84.5197 104.087 84.277 103.156 84.0571 102.236C83.6231 100.397 83.2747 98.6014 83.0006 96.8595V96.8824L73.0294 80.5436L73.0465 80.5578C71.8405 79.9939 70.7694 79.178 69.9055 78.165C69.2723 77.4213 68.7527 76.588 68.3636 75.6922C68.1228 75.1391 67.9317 74.5658 67.7925 73.9789C67.744 73.7847 67.7154 73.6334 67.6983 73.5306C67.6812 73.4278 67.6783 73.3764 67.6783 73.3764C67.6783 73.3764 67.6783 73.4278 67.7097 73.5277C67.7411 73.6277 67.7583 73.779 67.8125 73.9761C67.9599 74.5553 68.1567 75.1209 68.4007 75.6665C68.7947 76.5532 69.3161 77.3776 69.9484 78.1136C70.8154 79.116 71.8862 79.922 73.0894 80.4779L83.1377 96.7996V96.8139C83.4232 98.55 83.7659 100.343 84.1999 102.179C84.4197 103.096 84.6596 104.024 84.9309 104.958C85.2021 105.891 85.5219 106.822 85.8503 107.767C87.161 111.551 88.5401 115.54 89.9736 119.68L89.8793 119.637L98.1287 116.554L98.083 116.642C97.8355 115.791 97.5843 114.934 97.3292 114.072L92.829 98.6699C92.5435 96.5169 92.2408 94.4067 91.9724 92.4365V92.4536L83.803 71.6089L83.8258 71.6346L76.8014 67.4114H76.8443L70.0883 71.8316L68.2894 72.9909L67.8268 73.2907L67.6697 73.3878Z" fill="#455A64"/>
<path d="M72.0867 38.1032C72.0867 38.1032 69.6825 39.9535 68.5146 42.0209C67.1154 44.4965 66.9641 48.1658 66.9212 53.8652C66.8784 59.1364 67.6665 60.6012 67.3638 62.5886C66.7671 66.4691 66.3245 79.4928 66.3245 79.4928C66.3245 79.4928 74.0341 76.5317 75.5304 75.2096L77.0352 73.9018L86.6837 77.0914L84.7363 65.2356L83.4 50.4587L81.6867 42.6205L81.4012 39.5452L73.1147 36.2158L72.0867 38.1032Z" fill="#455A64"/>
<path d="M81.0907 39.3824C81.1906 39.4024 80.8537 40.0791 80.2597 41.0728L80.234 41.1128L80.1883 41.0957C79.3517 40.7701 78.2438 40.3618 77.0331 39.9192C75.6682 39.4224 74.4346 38.9598 73.5523 38.6C73.1097 38.4201 72.7556 38.2688 72.5129 38.1574C72.384 38.1076 72.2598 38.0464 72.1417 37.9747C72.2772 38.0049 72.4093 38.0489 72.5358 38.106L73.5894 38.5029L77.0845 39.7793C78.2952 40.2219 79.4002 40.6359 80.2255 40.99L80.1569 41.0129C80.7794 40.0392 81.1478 39.3967 81.0907 39.3824Z" fill="#263238"/>
<path d="M91.0607 33.2262C91.0607 33.2262 90.4496 32.2753 89.8728 31.3987C89.296 30.5221 88.4222 30.0909 88.2823 29.634C88.1424 29.1771 87.3743 27.1412 87.2515 26.6358C87.1448 26.1463 87.095 25.6462 87.103 25.1453C87.103 25.1453 87.7341 24.8769 88.0367 25.7792C88.2195 26.3217 88.802 28.1635 88.9276 28.2548C89.0533 28.3462 89.2132 28.212 89.2132 28.212C88.9538 27.5224 88.7299 26.82 88.5422 26.1075C88.5136 25.7735 88.6307 23.5576 88.6307 23.5576C88.7872 23.5261 88.9499 23.5516 89.0892 23.6297C89.2286 23.7077 89.3354 23.8331 89.3902 23.9831C89.69 24.5542 89.7015 25.9819 89.7015 25.9819L90.1555 27.5752L89.9956 25.999L90.224 23.1008C90.4459 23.1324 90.6526 23.2316 90.8161 23.3849C90.9796 23.5381 91.0919 23.738 91.1377 23.9574C91.3291 24.7398 91.0749 25.8306 91.2034 26.0619C91.3319 26.2931 91.4718 27.6923 91.4718 27.6923C91.4718 27.6923 91.6289 24.2943 91.9915 24.1973C92.3542 24.1002 92.6511 24.46 92.5997 25.1453C92.5483 25.8306 92.5341 27.2811 92.7225 27.9207C92.911 28.5604 94.8441 31.0617 94.6871 32.1582C94.5908 32.8207 94.5307 33.488 94.5072 34.157H91.1949L91.0607 33.2262Z" fill="#FFBF9D"/>
<path d="M79.4417 41.7839C79.6273 41.8552 87.5398 43.8141 87.5398 43.8141C87.5398 43.8141 89.3073 40.9586 89.5671 40.1306C89.827 39.3025 91.2176 33.7858 91.2176 33.7858L94.5613 33.4717C94.5613 33.4717 93.7047 47.7175 92.4939 48.4856C91.2832 49.2537 89.353 49.642 89.2273 49.5992C89.1017 49.5564 80.6753 50.1417 76.2351 46.6438C71.7949 43.1459 79.4417 41.7839 79.4417 41.7839Z" fill="#FFBF9D"/>
<g opacity="0.3">
<path d="M73.771 49.3251C74.6203 50.2863 75.7533 50.9524 77.0063 51.2268C79.105 51.6894 83.5738 52.5089 83.5738 52.5089L83.3567 50.3159L73.6483 49.2766" fill="black"/>
</g>
<path d="M70.2476 46.3098C70.9672 47.8289 72.5662 49.4508 76.0813 49.8191C83.04 50.5387 88.3083 50.9213 90.5841 50.5787C92.8598 50.236 93.765 45.4189 94.0106 45.2704C94.7187 44.825 94.673 43.2944 94.062 42.8376C92.3259 41.5383 88.8451 40.5532 88.6109 40.6589C87.2261 41.347 87.6772 42.9575 87.6772 42.9575L78.8539 41.0101C77.8376 40.5874 76.7774 40.279 75.6929 40.0906" fill="#455A64"/>
<path d="M75.6924 40.0906C75.6924 40.0906 75.7667 40.0906 75.9094 40.1192C76.0522 40.1477 76.2664 40.182 76.5405 40.2419C77.3363 40.4224 78.1156 40.6689 78.8705 40.9786L87.6881 42.8975L87.6139 42.9774C87.4833 42.4714 87.5235 41.9364 87.7281 41.4555C87.8409 41.2093 88.0113 40.9938 88.2249 40.8273C88.3332 40.7429 88.4489 40.6684 88.5705 40.6046C88.6122 40.5921 88.6554 40.5854 88.6989 40.5846H88.8046C88.876 40.5846 88.9388 40.6074 89.0073 40.6189C90.0924 40.8754 91.1507 41.234 92.1683 41.6896C92.7046 41.9232 93.2228 42.1962 93.7188 42.5063C93.8416 42.5862 93.9644 42.6748 94.0872 42.7604C94.2141 42.8569 94.3176 42.9809 94.3898 43.1231C94.5291 43.4035 94.6014 43.7123 94.6011 44.0254C94.6084 44.3422 94.5378 44.656 94.3955 44.9391C94.3166 45.0852 94.2053 45.2112 94.07 45.3075C94.0358 45.3246 94.0129 45.3989 93.9844 45.4674L93.9101 45.6815C93.7217 46.2526 93.5332 46.8637 93.3048 47.4519C93.0056 48.2954 92.5674 49.083 92.0084 49.782C91.8058 50.0476 91.5473 50.2656 91.2513 50.4205C90.9553 50.5754 90.6289 50.6635 90.2951 50.6786C90.081 50.71 89.8668 50.7157 89.6555 50.7328C88.7989 50.7842 87.9765 50.7728 87.1627 50.7499C86.3489 50.7271 85.5523 50.6843 84.7784 50.6357C81.6746 50.4359 78.8905 50.1532 76.5548 49.9104C75.9968 49.8616 75.4419 49.7815 74.8929 49.6706C74.4056 49.5664 73.928 49.4212 73.4652 49.2366C72.7152 48.9452 72.028 48.5129 71.4407 47.963C71.074 47.6121 70.7587 47.2113 70.5041 46.7723C70.4129 46.6217 70.3337 46.4642 70.2671 46.3012C70.2671 46.3012 70.347 46.4639 70.5298 46.758C70.7936 47.186 71.1134 47.5768 71.4807 47.9202C72.0674 48.4582 72.7517 48.8788 73.4966 49.1595C73.9602 49.3383 74.4377 49.4787 74.9243 49.5792C75.4719 49.6842 76.0247 49.7595 76.5805 49.8048C78.9162 50.0361 81.7003 50.3074 84.7984 50.5015C85.5751 50.5472 86.3689 50.5872 87.1798 50.6072C87.9908 50.6272 88.8217 50.6386 89.6612 50.59C89.8697 50.5701 90.0838 50.5643 90.2923 50.5329C90.5004 50.522 90.7059 50.4826 90.9033 50.4159C91.2978 50.2637 91.6461 50.0119 91.9142 49.6849C92.4611 48.9994 92.8897 48.2273 93.182 47.4005C93.4104 46.8294 93.596 46.2269 93.7845 45.6387L93.8644 45.416C93.8644 45.3817 93.893 45.3446 93.9101 45.3046C93.9205 45.2826 93.933 45.2616 93.9472 45.2418C93.9581 45.228 93.9706 45.2156 93.9844 45.2047L94.0044 45.1876C94.1229 45.1055 94.2206 44.997 94.2899 44.8706C94.4233 44.6053 94.4881 44.3108 94.4784 44.014C94.4791 43.7251 94.4137 43.4398 94.287 43.1802C94.2247 43.0576 94.136 42.9503 94.0272 42.8661C93.9044 42.7833 93.7873 42.6948 93.6646 42.6177C93.1756 42.3098 92.664 42.0397 92.134 41.8096C91.1278 41.3559 90.0809 40.9984 89.0073 40.7416C88.9417 40.7416 88.876 40.7131 88.8132 40.7074H88.7189H88.6561C88.5437 40.7674 88.4367 40.8372 88.3363 40.9158C88.1374 41.0659 87.9777 41.2618 87.8709 41.4869C87.6817 41.9386 87.6426 42.4391 87.7595 42.9146L87.7852 43.0146L87.6853 42.9917L78.8819 41.0215C78.1339 40.7068 77.3625 40.4509 76.5748 40.2562C76.2892 40.1905 76.0922 40.1449 75.9494 40.1163C75.8066 40.0877 75.6924 40.0906 75.6924 40.0906Z" fill="#263238"/>
<path d="M90.5845 45.713C90.3816 45.6627 90.1886 45.5787 90.0135 45.4645C89.5756 45.2203 89.1723 44.9188 88.8142 44.5679C88.4542 44.2184 88.1396 43.8251 87.8776 43.3972C87.7584 43.2219 87.6669 43.0293 87.6063 42.8261C87.9977 43.4029 88.4361 43.9463 88.917 44.4509C89.434 44.9205 89.9921 45.3429 90.5845 45.713Z" fill="#263238"/>
<path d="M28.4617 69.2304C28.4617 69.2304 30.232 69.3246 31.3171 70.0128C32.4022 70.701 34.1725 71.7632 34.9007 73.0881C35.2348 73.6963 34.2839 73.8248 33.8156 73.4707C33.3473 73.1167 32.6249 72.4542 32.268 72.3714L31.911 72.2914C32.2365 73.0282 32.5996 73.7478 32.9989 74.4473C33.3673 75.0184 33.6871 75.9664 32.5821 76.0121C32.5821 76.0121 31.8339 76.9829 31.0801 76.2634C31.0801 76.2634 30.4919 77.1428 29.5439 75.9236C29.5439 75.9236 28.9928 76.6203 28.7615 76.3547C28.5302 76.0892 27.7764 75.6637 27.5565 74.7899C27.2284 73.7722 26.8472 72.7724 26.4143 71.7946L28.4617 69.2304Z" fill="#FFBF9D"/>
<path d="M13.3963 45.95C12.4888 46.2422 11.7056 46.8304 11.1719 47.6204C10.4923 48.6655 10.2839 50.4758 10.478 51.8236C10.8892 54.6648 12.1913 59.459 12.9251 62.5372C13.1764 63.5994 13.6932 65.5011 15.2095 66.5091L26.0287 72.9967L28.9213 68.7135L19.0586 60.6755L17.1084 49.6592L13.3963 45.95Z" fill="#455A64"/>
<path d="M11.5257 56.7778C11.5406 56.8138 11.552 56.8511 11.56 56.8892L11.6514 57.2232C11.7285 57.5259 11.837 57.9599 11.9797 58.5168C12.2653 59.6589 12.6708 61.2808 13.1762 63.2996C13.4696 64.3992 14.0911 65.3833 14.958 66.1208C15.4531 66.5172 15.9825 66.8688 16.5399 67.1716L18.2788 68.2224L26.0713 72.9282L25.9714 72.951L27.0136 71.4062L28.864 68.6564L28.8782 68.7564L19.1041 60.7069H19.0869V60.6869C18.4416 57.9714 17.9733 55.747 17.6763 54.1993C17.5307 53.4255 17.4279 52.823 17.3622 52.4118C17.3337 52.2119 17.3108 52.0549 17.2937 51.9435C17.2766 51.8322 17.2737 51.7836 17.2737 51.7836C17.2892 51.8352 17.3016 51.8876 17.3108 51.9407C17.3308 52.052 17.3594 52.2062 17.3937 52.4061C17.4707 52.8144 17.5821 53.4169 17.742 54.1879C18.0533 55.7299 18.5387 57.9485 19.1983 60.6612L19.1783 60.6298L28.9696 68.6421L29.021 68.685L28.9839 68.7392L27.1336 71.489L26.0913 73.0338L26.0542 73.0909L25.9914 73.0566L18.2103 68.3366L16.4742 67.283C15.9131 66.9771 15.38 66.6226 14.8809 66.2236C13.999 65.4683 13.3702 64.4607 13.0791 63.3367C12.5908 61.3122 12.1996 59.6761 11.9369 58.5425C11.8084 57.9714 11.7056 57.5459 11.6342 57.2432L11.5514 56.892C11.5402 56.8546 11.5316 56.8164 11.5257 56.7778Z" fill="#263238"/>
<path d="M11.7025 47.4719C11.7697 47.4278 11.8441 47.3959 11.9224 47.3777C12.1296 47.3137 12.3416 47.2659 12.5563 47.2349C13.2725 47.1245 14.0054 47.2236 14.6665 47.5204C15.3054 47.8536 15.8481 48.3452 16.2427 48.9482C16.3623 49.1304 16.4582 49.3271 16.5282 49.5335C16.5589 49.607 16.5763 49.6853 16.5796 49.7648C16.4562 49.5027 16.314 49.2498 16.1541 49.0081C15.7477 48.4454 15.2159 47.985 14.6008 47.6632C13.9628 47.3805 13.2613 47.2721 12.5677 47.3491C12.0337 47.3919 11.7111 47.4976 11.7025 47.4719Z" fill="#263238"/>
</svg>
