<svg width="191" height="130" viewBox="0 0 191 130" fill="none" xmlns="http://www.w3.org/2000/svg">
<path d="M0 118.152L3.45749 113.25C5.28211 115.074 8.09317 116.595 11.5507 116.595C13.7924 116.595 15.1604 115.721 15.1604 114.505C15.1604 111.048 0.796665 113.821 0.796665 104.056C0.796665 99.7995 4.40637 96 10.9042 96C14.9706 96 18.5052 97.2158 21.2016 99.5346L17.6294 104.208C15.5024 102.46 12.7269 101.587 10.2202 101.587C8.32051 101.587 7.4843 102.346 7.4843 103.411C7.4843 106.641 21.8104 104.285 21.8104 113.708C21.8104 118.801 18.0485 122.183 11.2462 122.183C6.11831 122.179 2.54617 120.584 0 118.152Z" fill="white"/>
<path d="M35.1879 121.723V119.519C34.0472 120.812 31.9202 122.179 28.8422 122.179C24.6612 122.179 22.801 119.823 22.801 116.441V103.368H28.6525V114.047C28.6525 116.251 29.7931 117.01 31.6928 117.01C33.3652 117.01 34.5059 116.099 35.1899 115.225V103.368H41.0413V121.723H35.1879Z" fill="white"/>
<path d="M42.9014 126.436L45.4476 122.255C46.8531 123.775 48.9051 124.382 51.0341 124.382C52.9714 124.382 55.7074 123.583 55.7074 120.163V118.758C54.1872 120.545 52.3626 121.418 50.2731 121.418C45.7896 121.418 42.1779 118.341 42.1779 112.147C42.1779 106.106 45.6749 102.913 50.2731 102.913C52.325 102.913 54.2248 103.712 55.7074 105.535V103.368H61.5213V120.088C61.5213 127.574 55.5927 129.17 51.0322 129.17C47.8811 129.172 45.2578 128.375 42.9014 126.436ZM55.7094 114.618V109.716C54.9878 108.727 53.4301 108.081 52.2123 108.081C49.8935 108.081 48.1835 109.486 48.1835 112.147C48.1835 114.846 49.8935 116.251 52.2123 116.251C53.4281 116.251 54.9858 115.607 55.7094 114.618Z" fill="white"/>
<path d="M74.7463 121.723V119.898C73.6057 121.266 71.4015 122.177 69.0471 122.177C66.2341 122.177 62.739 120.278 62.739 116.136C62.739 111.69 66.236 110.245 69.0471 110.245C71.4786 110.245 73.6452 111.004 74.7463 112.372V110.168C74.7463 108.573 73.3783 107.507 71.022 107.507C69.1973 107.507 67.2976 108.191 65.815 109.445L63.7255 105.758C66.0818 103.743 69.2349 102.907 72.0479 102.907C76.4563 102.907 80.5977 104.542 80.5977 110.241V121.717H74.7463V121.723ZM74.7463 117.012V115.377C74.1375 114.541 72.7695 114.084 71.4786 114.084C69.9209 114.084 68.5529 114.768 68.5529 116.213C68.5529 117.658 69.9209 118.34 71.4786 118.34C72.7695 118.342 74.1375 117.886 74.7463 117.012Z" fill="white"/>
<path d="M82.9542 121.723V103.368H88.8056V105.609C90.0213 104.127 92.3402 102.874 94.5444 102.874V108.498C94.2024 108.423 93.7081 108.345 93.1013 108.345C91.5811 108.345 89.5667 108.992 88.8076 110.018V121.723H82.9542Z" fill="white"/>
<path d="M125.513 121.723V105.23L119.091 121.723H116.203L109.819 105.23V121.723H103.284V96.3777H112.366L117.648 110.134L122.967 96.3777H132.049V121.725H125.513V121.723Z" fill="white"/>
<path d="M145.389 121.723V119.898C144.248 121.266 142.044 122.177 139.689 122.177C136.878 122.177 133.381 120.278 133.381 116.136C133.381 111.69 136.878 110.245 139.689 110.245C142.121 110.245 144.287 111.004 145.389 112.372V110.168C145.389 108.573 144.021 107.507 141.664 107.507C139.84 107.507 137.94 108.191 136.457 109.445L134.368 105.758C136.724 103.743 139.877 102.907 142.69 102.907C147.099 102.907 151.24 104.542 151.24 110.241V121.717H145.389V121.723ZM145.389 117.012V115.377C144.78 114.541 143.412 114.084 142.121 114.084C140.563 114.084 139.195 114.768 139.195 116.213C139.195 117.658 140.563 118.34 142.121 118.34C143.412 118.342 144.78 117.886 145.389 117.012Z" fill="white"/>
<path d="M165.224 121.723L161.195 115.225L159.448 117.314V121.723H153.596V96.3777H159.448V110.704L165.034 103.37H172.101L165.337 111.73L172.443 121.725H165.224V121.723Z" fill="white"/>
<path d="M170.923 112.528C170.923 107.209 174.952 102.915 180.689 102.915C186.123 102.915 190.075 106.904 190.075 113.137V114.391H177.002C177.344 116.101 178.939 117.658 181.6 117.658C182.893 117.658 185.135 117.089 186.161 116.101L188.63 119.748C186.805 121.383 183.765 122.179 180.954 122.179C175.292 122.179 170.923 118.493 170.923 112.528ZM180.689 107.436C178.143 107.436 177.154 109.261 176.927 110.591H184.488C184.338 109.298 183.387 107.436 180.689 107.436Z" fill="white"/>
<path d="M94.1314 70.6036C94.453 70.9889 94.7782 71.3707 95.1534 71.8173C95.2713 71.9578 95.2642 72.1775 95.1355 72.3071C92.9342 74.5293 90.3899 76.1068 87.3238 76.6831C81.5776 77.7672 76.7783 75.7431 72.6902 71.7957C66.7831 66.0944 63.7528 59.028 63.1095 50.8559C62.3877 41.6862 65.2572 33.7699 71.2572 26.9376C72.34 25.7023 72.34 25.7203 73.5907 26.7972C74.7878 27.8272 75.9707 28.8789 77.6788 28.9401C79.63 29.0122 80.9415 27.9605 81.9957 26.4766C84.3149 23.2064 85.4191 19.4247 86.3339 15.5926C87.5311 10.5827 88.453 5.65933 88.6389 0.494619C88.6389 0.4514 88.646 0.393774 88.6567 0.321742C88.6889 0.0696292 88.914 -0.0636304 89.1463 0.0300115C95.8824 2.76003 100.978 7.48535 105.267 13.2191C109.437 18.798 112.596 24.8703 114.275 31.8322C114.379 32.268 114.661 32.3221 114.915 31.9547C115.137 31.6341 115.351 31.31 115.537 30.9714C116.312 29.5488 117.038 28.101 117.799 26.6711C118.26 25.8067 118.774 25.7347 119.461 26.5055C124.66 32.3509 127.798 39.0175 127.987 47.0202C128.116 52.4407 127.319 57.627 125.007 62.518C122.169 68.511 118.206 73.4741 111.881 75.9988C106.235 78.2534 99.8526 76.5715 95.9968 72.2459C95.8896 72.1235 95.8824 71.9182 95.9789 71.7885C96.1576 71.5508 96.3398 71.3095 96.5221 71.0682C96.5292 71.0574 96.5435 71.043 96.5542 71.0322C97.0188 70.5604 97.4869 70.0921 97.9515 69.6203C102.318 65.2228 106.682 60.8288 111.048 56.4312C111.077 56.3772 111.12 56.298 111.145 56.244L111.613 53.8345C111.613 53.8309 111.617 53.8201 111.617 53.8165L112.163 51.6123C112.163 51.5619 112.163 51.4862 112.163 51.4358C111.849 50.2041 111.534 48.9759 111.22 47.7442C111.209 47.7189 111.195 47.6793 111.184 47.6541L110.094 45.7309C110.076 45.7092 110.051 45.6732 110.034 45.6516C109.48 45.1006 108.926 44.5495 108.372 43.9985L108.379 44.0057C106.517 42.385 104.334 42.1761 101.993 42.6659C101.982 42.6695 101.968 42.6731 101.961 42.6731L99.313 43.451C99.2844 43.4654 99.238 43.487 99.2094 43.5015C98.0587 44.3082 96.908 45.115 95.7573 45.9253C95.6215 45.9253 95.4857 45.9253 95.3499 45.9253C94.3779 45.2518 93.4095 44.5747 92.4375 43.9012C92.4196 43.8904 92.3946 43.876 92.3768 43.8688L90.5614 43.0765C90.5435 43.0693 90.5185 43.0621 90.5007 43.0549C89.8681 42.9036 89.2392 42.7559 88.6067 42.6047C88.5852 42.6011 88.5495 42.5974 88.5245 42.5938L85.7086 42.5902C85.6585 42.6011 85.5871 42.6227 85.537 42.6335L82.6746 44.193L82.16 44.4703C82.1314 44.4919 82.0886 44.5279 82.0635 44.5495L81.2809 45.4355C81.2738 45.4427 81.2631 45.4571 81.2559 45.4679L80.7556 46.1811H80.7664C80.4805 46.6601 80.1946 47.1391 79.9087 47.6145C79.898 47.6397 79.8801 47.6793 79.8694 47.7045C79.6193 48.6157 79.3691 49.5306 79.119 50.4418C79.1154 50.4706 79.1082 50.5138 79.1047 50.539L79.1154 51.8752C79.1154 51.8896 79.119 51.9112 79.119 51.9256L79.4513 54.1874C79.462 54.2235 79.4799 54.2775 79.4942 54.3099L80.9236 56.885C80.9522 56.9391 80.9736 57.0327 80.9665 57.0939L80.9558 57.22C80.9986 57.3172 81.0487 57.4361 81.0915 57.5333C82.3173 58.5094 83.2714 59.7627 84.3756 60.8648C87.6168 64.1063 90.8652 67.3369 94.1099 70.5712C94.1135 70.5856 94.1242 70.5964 94.1314 70.6036Z" fill="#F16667"/>
</svg>
