<svg width="314" height="315" viewBox="0 0 314 315" fill="none" xmlns="http://www.w3.org/2000/svg">
<g clip-path="url(#clip0_2303_145)">
<mask id="mask0_2303_145" style="mask-type:luminance" maskUnits="userSpaceOnUse" x="0" y="0" width="314" height="315">
<path d="M314 0H0V315H314V0Z" fill="white"/>
</mask>
<g mask="url(#mask0_2303_145)">
<path d="M313.759 157.559C313.759 244.146 243.566 314.339 156.979 314.339C70.392 314.339 0.199005 244.146 0.199005 157.559C0.199005 70.9718 70.392 0.778809 156.979 0.778809C243.566 0.778809 313.759 70.9718 313.759 157.559Z" fill="#FDFFF3"/>
<path d="M117.822 193.443C117.822 193.443 150.905 175.417 195.017 193.443V228.011H114.429L117.822 193.443Z" fill="#7994A1"/>
<path d="M185.693 232.374C180.67 235.321 169.681 240.855 154.696 241.184C138.092 241.549 125.909 235.319 120.885 232.374C120.885 195.452 120.885 158.529 120.885 121.607H185.693V232.374Z" fill="url(#paint0_linear_2303_145)"/>
<mask id="mask1_2303_145" style="mask-type:alpha" maskUnits="userSpaceOnUse" x="0" y="0" width="314" height="315">
<path d="M313.759 157.559C313.759 244.146 243.566 314.339 156.979 314.339C70.392 314.339 0.199005 244.146 0.199005 157.559C0.199005 70.9718 70.392 0.778809 156.979 0.778809C243.566 0.778809 313.759 70.9718 313.759 157.559Z" fill="#E9E9F3"/>
</mask>
<g mask="url(#mask1_2303_145)">
<path d="M122.419 219.944L0.653 267.781L61.536 505.1H258.06L307.139 262.811L196.763 224.441L122.419 219.944Z" fill="url(#paint1_linear_2303_145)"/>
<path d="M149.485 208.924C151.222 219.677 152.959 230.43 154.696 241.183C152.114 241.965 147.079 243.117 140.853 242.082C134.387 241.007 129.874 238.111 127.692 236.494C130.833 226.597 133.975 216.7 137.116 206.803C141.239 207.51 145.362 208.217 149.485 208.924Z" fill="#7994A1"/>
<path d="M161.623 208.076C159.314 219.112 157.005 230.147 154.696 241.183C157.675 241.506 161.986 241.618 166.98 240.497C174.034 238.914 179.043 235.636 181.78 233.525C180.997 223.133 180.214 212.742 179.431 202.35C177.38 203.634 174.692 205.053 171.408 206.167C167.609 207.456 164.22 207.927 161.623 208.076Z" fill="#7994A1"/>
<path d="M116.893 193.443C120.837 195.809 125.223 198.188 130.047 200.442C137.317 203.839 144.153 206.289 150.269 208.077C147.128 219.388 143.986 230.698 140.845 242.009C140.845 242.009 112.573 240.1 105.309 228.012L116.893 193.443Z" fill="url(#paint2_linear_2303_145)"/>
<path d="M161.622 208.076C163.84 219.387 166.058 230.697 168.276 242.008C172.328 242.388 180.844 242.585 190.292 237.979C198.403 234.025 203.494 228.339 206.046 225.042C202.661 214.529 199.276 204.017 195.891 193.504C195.891 193.504 171.603 208.076 161.622 208.076Z" fill="url(#paint3_linear_2303_145)"/>
<path d="M165.213 250.889L166.523 282L167.512 313.117C168.13 333.862 168.492 354.612 168.986 375.359C169.233 396.111 169.631 416.86 169.754 437.614L169.889 468.746L169.708 499.884L169.528 499.887L165.033 250.892L165.213 250.889Z" fill="#492A37"/>
<path d="M149.033 250.889L150.343 282L151.332 313.117C151.95 333.862 152.312 354.612 152.806 375.359C153.053 396.111 153.451 416.86 153.574 437.614L153.709 468.746L153.528 499.884L153.348 499.887L148.853 250.892L149.033 250.889Z" fill="#492A37"/>
<path d="M197.853 250.511C197.727 256.448 196.872 261.667 195.814 265.983C195.055 269.082 191.572 270.626 188.769 269.104C180.199 264.45 171.627 259.795 163.055 255.141C162.958 253.462 162.862 251.783 162.765 250.103C162.713 249.209 162.663 248.317 162.611 247.423C162.61 247.419 162.609 247.414 162.609 247.41C162.578 246.861 162.546 246.313 162.515 245.766C162.449 244.643 162.385 243.52 162.32 242.396C162.285 241.78 162.249 241.165 162.214 240.549L163.869 239.79C163.877 239.786 163.886 239.781 163.894 239.777L191.108 227.295C192.604 226.609 194.357 227.394 194.851 228.963C195.087 229.714 195.327 230.391 195.556 230.99C196.735 235.515 197.743 241.196 197.857 247.758C197.874 248.66 197.873 249.578 197.853 250.511Z" fill="url(#paint4_linear_2303_145)"/>
<path d="M201.5 243.075C201.282 245.097 199.586 246.651 197.856 247.758C197.784 247.804 197.712 247.849 197.64 247.894C197.25 248.135 196.806 248.277 196.349 248.301C186.051 248.854 175.756 249.407 165.458 249.958C163.972 250.038 162.703 248.906 162.61 247.423C162.609 247.419 162.609 247.414 162.609 247.41C162.578 246.861 162.546 246.313 162.515 245.766C162.449 244.643 162.384 243.52 162.319 242.396C162.254 241.293 162.871 240.26 163.869 239.79C163.877 239.786 163.886 239.781 163.894 239.777L191.107 227.295C192.603 226.609 194.357 227.394 194.851 228.963C195.087 229.714 195.326 230.391 195.555 230.99C196.042 232.265 196.615 233.665 197.594 235.381C198.054 236.185 198.545 236.939 199.115 237.743C199.8 238.708 200.558 239.644 201.036 240.657C201.392 241.406 201.594 242.199 201.5 243.075Z" fill="url(#paint5_linear_2303_145)"/>
<path d="M201.5 243.075C201.282 245.097 199.586 246.651 197.856 247.758C197.573 247.939 197.289 248.109 197.01 248.266C185.594 248.879 174.18 249.491 162.764 250.103C162.681 248.658 162.598 247.211 162.515 245.766L201.036 240.657C201.392 241.406 201.594 242.199 201.5 243.075Z" fill="#3D1D2A"/>
<path d="M116.494 250.511C116.62 256.448 117.475 261.667 118.533 265.983C119.292 269.082 122.775 270.626 125.578 269.104C134.148 264.45 142.72 259.795 151.292 255.141C151.389 253.462 151.485 251.783 151.582 250.103C151.634 249.209 151.684 248.317 151.736 247.423C151.737 247.419 151.738 247.414 151.738 247.41C151.769 246.861 151.801 246.313 151.832 245.766C151.898 244.643 151.963 243.52 152.027 242.396C152.062 241.78 152.098 241.165 152.133 240.549L150.478 239.79C150.47 239.786 150.461 239.781 150.453 239.777L123.239 227.295C121.743 226.609 119.99 227.394 119.496 228.963C119.26 229.714 119.02 230.391 118.791 230.99C117.612 235.515 116.604 241.196 116.49 247.758C116.473 248.66 116.474 249.578 116.494 250.511Z" fill="url(#paint6_linear_2303_145)"/>
<path d="M112.847 243.075C113.064 245.097 114.761 246.651 116.491 247.758C116.563 247.804 116.636 247.849 116.707 247.894C117.097 248.135 117.541 248.277 117.998 248.301C128.296 248.854 138.592 249.407 148.889 249.958C150.375 250.038 151.644 248.906 151.737 247.423C151.738 247.419 151.738 247.414 151.738 247.41C151.769 246.861 151.801 246.313 151.832 245.766C151.898 244.643 151.963 243.52 152.027 242.396C152.092 241.293 151.476 240.26 150.478 239.79C150.47 239.786 150.461 239.781 150.453 239.777L123.24 227.295C121.744 226.609 119.99 227.394 119.496 228.963C119.26 229.714 119.021 230.391 118.792 230.99C118.305 232.265 117.732 233.665 116.753 235.381C116.293 236.185 115.802 236.939 115.232 237.743C114.547 238.708 113.789 239.644 113.311 240.657C112.955 241.406 112.753 242.199 112.847 243.075Z" fill="url(#paint7_linear_2303_145)"/>
<path d="M112.847 243.075C113.064 245.097 114.761 246.651 116.491 247.758C116.774 247.939 117.058 248.109 117.337 248.266C128.753 248.879 140.166 249.491 151.582 250.103C151.665 248.658 151.749 247.211 151.832 245.766L113.311 240.657C112.955 241.406 112.753 242.199 112.847 243.075Z" fill="#3A1A27"/>
<path d="M162.314 256.405H152.572C150.158 256.405 148.182 254.429 148.182 252.015V241.993C148.182 239.579 150.158 237.603 152.572 237.603H162.314C164.728 237.603 166.704 239.579 166.704 241.993V252.015C166.704 254.429 164.728 256.405 162.314 256.405Z" fill="#3D1D2A"/>
<path d="M163.236 271.476C163.236 274.355 160.901 276.69 158.022 276.69C155.143 276.69 152.808 274.355 152.808 271.476C152.808 268.597 155.143 266.262 158.022 266.262C160.901 266.262 163.236 268.597 163.236 271.476Z" fill="url(#paint8_linear_2303_145)"/>
</g>
<path d="M93.9374 103.602C86.1456 81.3339 90.3009 57.6729 105.041 43.0549C119.136 29.0766 144.621 22.0896 156.213 30.5446C158.986 32.5672 161.928 36.1791 164.525 35.2646C167.972 34.0515 168.213 25.7793 167.886 19.0293C173.129 21.9503 177.186 25.2415 180.317 28.3664C202.601 50.6061 198.524 84.8961 197.506 92.1502C162.982 95.9668 128.461 99.7853 93.9374 103.602Z" fill="url(#paint9_linear_2303_145)"/>
<path d="M200.572 150.926C199.413 160.967 192.805 169.504 183.444 172.899C175.446 175.799 165.568 178.398 154.112 179.433C146.984 180.077 136.339 180.378 123.704 178.199C114.116 176.545 106.178 169.657 103.098 160.273C101.103 154.197 99.2915 147.562 97.8398 140.396C93.407 118.521 93.7785 98.8772 95.6878 83.2389C97.1512 71.2556 104.758 60.9723 115.701 56.3024C122.191 53.5331 130.038 51.0909 139.098 49.9308C150.623 48.4555 160.882 49.4683 169.232 51.3013C181.077 53.9017 190.616 62.8827 194.04 74.7055C198.716 90.8472 202.408 111.113 201.757 134.372C201.595 140.167 201.176 145.693 200.572 150.926Z" fill="url(#paint10_linear_2303_145)"/>
<path d="M94.7966 95.2769C96.9891 106.629 99.1765 117.99 101.369 129.342C98.0351 128.547 93.2466 127.068 88.0552 124.11C87.8993 124.018 87.7442 123.935 87.5884 123.844C82.0044 120.662 76.1663 117.192 73.6662 110.425C73.3096 109.457 70.2618 100.853 74.3288 95.3915C74.6382 94.9599 75.0031 94.5534 75.4096 94.1742C79.758 90.0933 88.0889 90.1277 94.7966 95.2769Z" fill="url(#paint11_linear_2303_145)"/>
<path d="M92.4382 117.434C91.57 118.038 90.0674 117.088 88.9688 118.142C88.1524 118.93 88.0151 120.399 88.0086 120.505C87.957 121.157 88.1037 121.458 87.996 122.277C87.9197 122.833 87.783 123.353 87.5894 123.844C83.6516 121.602 79.5879 119.211 76.6564 115.626C75.4305 114.126 74.4047 112.42 73.6664 110.427C73.3115 109.456 70.262 100.855 74.3308 95.3914C76.7634 96.0662 80.192 97.2735 83.4672 99.4506C85.9694 101.117 88.3784 103.342 90.174 106.334C92.7302 110.588 94.0245 116.333 92.4382 117.434Z" fill="#FEAC83"/>
<path d="M92.4372 117.434C91.569 118.038 90.0664 117.088 88.9678 118.142C88.1514 118.93 88.0141 120.399 88.0076 120.505C87.956 121.156 88.1027 121.457 87.995 122.276C87.9187 122.833 87.782 123.353 87.5883 123.843C83.6506 121.602 79.587 119.212 76.6555 115.627C75.9544 107.191 80.6598 101.85 83.4663 99.4513C85.9685 101.118 88.3775 103.343 90.173 106.335C92.7293 110.589 94.0235 116.333 92.4372 117.434Z" fill="#FDB194"/>
<path d="M197.154 86.0273C197.032 97.5882 196.916 109.158 196.794 120.718C199.932 119.339 204.378 117.026 208.955 113.184C209.092 113.067 209.229 112.957 209.366 112.839C214.289 108.708 219.411 104.247 220.657 97.1421C220.835 96.126 222.29 87.1144 217.31 82.4708C216.928 82.1016 216.497 81.7671 216.029 81.467C211.019 78.2318 202.829 79.7591 197.154 86.0273Z" fill="url(#paint12_linear_2303_145)"/>
<path d="M203.446 107.403C204.408 107.841 205.716 106.637 206.986 107.477C207.93 108.106 208.329 109.527 208.354 109.63C208.522 110.261 208.431 110.584 208.684 111.37C208.859 111.904 209.087 112.391 209.365 112.839C212.837 109.928 216.406 106.847 218.648 102.795C219.585 101.1 220.288 99.2367 220.657 97.144C220.832 96.1251 222.291 87.1163 217.308 82.4709C215.036 83.5709 211.879 85.3733 209.048 88.1022C206.885 90.1904 204.914 92.8114 203.683 96.0764C201.931 100.72 201.688 106.604 203.446 107.403Z" fill="#FEAC83"/>
<path d="M203.447 107.403C204.409 107.841 205.717 106.637 206.987 107.478C207.931 108.106 208.33 109.527 208.355 109.63C208.523 110.262 208.432 110.584 208.685 111.37C208.86 111.904 209.088 112.391 209.366 112.839C212.838 109.928 216.408 106.848 218.649 102.796C217.826 94.3708 212.24 89.9597 209.049 88.1033C206.886 90.1915 204.915 92.8125 203.685 96.0775C201.932 100.721 201.689 106.604 203.447 107.403Z" fill="#FDB194"/>
<path d="M202.104 114.93C202.806 123.915 203.086 134.501 202.452 146.248C202.341 148.295 202.205 150.377 202.035 152.493C201.926 153.854 201.82 155.188 201.711 156.495C201.407 160.199 201.094 163.683 200.725 166.957C200.178 171.809 199.508 176.195 198.549 180.145C196.606 188.138 190.128 193.881 182.416 194.578C174.21 196.799 164.126 198.827 152.51 199.695C143.003 200.404 134.453 200.189 127.146 199.573C116.024 196.6 110.178 191.768 108.517 187.879C107.067 184.484 105.811 180.575 104.632 176.074C103.832 173.014 103.067 169.682 102.303 166.053C101.673 163.044 101.038 159.833 100.386 156.403C99.7653 153.138 99.1268 149.672 98.4528 146.003C97.3127 139.797 96.4463 134.143 95.7908 129.056C93.0854 108.074 93.988 96.785 94.2851 96.7612C94.722 96.7297 92.9341 121.189 107.243 131.08C108.174 131.723 108.876 132.099 109.358 132.355C121.938 139.06 130.645 128.92 148.875 126.974C166.749 125.065 177.129 132.811 187.923 123.683C188.768 122.968 189.367 122.361 189.631 122.086C202.727 108.499 195.873 83.4731 196.554 83.3855C197.025 83.3249 200.571 95.3335 202.104 114.93Z" fill="url(#paint13_linear_2303_145)"/>
<path d="M200.725 166.957C200.178 171.809 199.507 176.194 198.548 180.144C196.605 188.137 190.127 193.881 182.415 194.578C174.209 196.799 164.125 198.827 152.509 199.695C143.002 200.404 134.452 200.189 127.145 199.573C116.023 196.6 110.178 191.768 108.517 187.879C107.067 184.484 105.81 180.575 104.631 176.074C123.732 183.681 158.586 190.562 200.725 166.957Z" fill="url(#paint14_linear_2303_145)"/>
<path d="M134.286 143.64C136.052 143.782 137.767 143.99 139.505 143.951C141.224 144.019 142.932 143.959 144.622 143.899C148 143.7 151.322 143.229 154.507 142.321C156.137 141.974 157.647 141.293 159.214 140.745C160.696 140.016 162.248 139.385 163.654 138.474C166.602 136.846 169.196 134.642 171.942 132.375L172.095 132.491C170.321 136.458 165.581 145.798 155.015 148.316C142.265 150.98 136.92 146.004 134.225 143.823L134.286 143.64Z" fill="#FC8770"/>
<g opacity="0.4">
<path d="M201.914 112.834C202.563 121.229 202.781 131.12 202.078 142.104C200.41 143.488 198.325 144.668 195.745 145.576C179.084 151.439 159.306 145.694 149.892 142.188C141.258 147.325 122.832 156.522 105.389 153.742C103.354 153.417 101.569 152.889 100.006 152.197C99.4049 149.148 98.7873 145.915 98.1352 142.488C97.0325 136.695 96.1998 131.415 95.5748 126.665C99.771 133.412 108.112 140.902 123.349 135.221C141.591 128.42 147.047 128.227 148.667 128.628C150.186 127.943 155.589 127.155 174.756 130.575C194.132 134.034 200.107 120.321 201.914 112.834Z" fill="url(#paint15_linear_2303_145)"/>
</g>
<path d="M202.282 103.948C202.282 103.948 200.7 130.966 174.366 126.265C155.199 122.843 149.797 123.635 148.276 124.319C146.658 123.919 141.201 124.108 122.958 130.911C97.8924 140.257 91.4937 113.96 91.4937 113.96C91.4937 113.96 81.1602 145.632 104.999 149.431C122.442 152.212 140.868 143.014 149.502 137.878C158.915 141.383 178.693 147.129 195.355 141.266C218.126 133.254 202.282 103.948 202.282 103.948Z" fill="url(#paint16_linear_2303_145)"/>
<path d="M132.794 81.2614C132.794 81.2614 109.842 76.5761 95.2201 92.8642C95.2201 92.8642 95.3605 88.1845 97.4416 83.1689C100.726 75.2542 108.517 72.5701 111.31 71.4552C117.541 68.9673 123.204 69.1945 126.431 69.6058C127.591 71.7541 128.75 73.9025 129.91 76.0508L128.434 68.6205L136.009 66.97L132.794 81.2614Z" fill="#762B00"/>
<path d="M153.879 75.8756C153.879 75.8756 175.62 67.1514 192.925 80.5544C192.925 80.5544 191.948 75.9758 189.001 71.4144C184.352 64.2167 176.206 62.9728 173.258 62.3767C166.682 61.0462 161.151 62.285 158.05 63.268C157.294 65.5895 156.539 67.9108 155.783 70.2323L155.903 62.6578L148.154 62.3921L153.879 75.8756Z" fill="#762B00"/>
<path d="M138.168 99.7657C137.457 98.629 130.995 88.632 120.295 88.3449C114.535 88.1897 110.242 90.9222 108.637 91.9739C102.203 96.1891 99.6614 102.51 98.8701 104.765C100.293 106.029 107.854 112.495 118.747 111.498C130.711 110.404 137.21 101.174 138.168 99.7657Z" fill="#FFFDFA"/>
<mask id="mask2_2303_145" style="mask-type:alpha" maskUnits="userSpaceOnUse" x="98" y="88" width="41" height="24">
<path d="M138.168 99.7657C137.457 98.629 130.995 88.632 120.295 88.3449C114.535 88.1897 110.242 90.9222 108.637 91.9739C102.203 96.1891 99.6614 102.51 98.8701 104.765C100.293 106.029 107.854 112.495 118.747 111.498C130.711 110.404 137.21 101.174 138.168 99.7657Z" fill="#FFFDFA"/>
</mask>
<g mask="url(#mask2_2303_145)">
<path d="M137.924 98.7901C137.451 104.957 132.585 110.061 126.22 110.636C119.123 111.278 112.851 106.044 112.21 98.947C112.061 97.3027 112.228 95.7052 112.659 94.2094C114.316 90.3124 120.48 85.4098 127.602 86.4951C135.797 87.7437 137.774 94.3425 137.924 98.7901Z" fill="url(#paint17_linear_2303_145)"/>
<path d="M117.134 101.801C117.262 103.211 116.222 104.458 114.812 104.585C113.401 104.713 112.155 103.673 112.027 102.263C111.9 100.852 112.94 99.6057 114.35 99.4782C115.76 99.3508 117.007 100.391 117.134 101.801Z" fill="#FFFDFA"/>
</g>
<path d="M102.662 97.3024C103.567 95.9283 104.716 94.7441 105.901 93.5928C107.134 92.4973 108.469 91.5012 109.899 90.633C112.764 88.9131 116.116 87.9054 119.536 87.7981C121.247 87.7911 122.953 88.0596 124.582 88.5319C126.212 88.9971 127.798 89.633 129.207 90.5438C130.653 91.3942 131.948 92.4469 133.186 93.5308C133.783 94.1014 134.335 94.7142 134.905 95.2993C135.445 95.9162 135.959 96.5556 136.459 97.1971L136.379 97.2727C134.158 94.9261 131.638 92.8363 128.799 91.2966C125.982 89.7369 122.769 88.8484 119.548 88.8995C116.324 88.9247 113.144 89.8648 110.306 91.3904C107.468 92.922 104.885 94.9548 102.747 97.372L102.662 97.3024Z" fill="url(#paint18_linear_2303_145)"/>
<path d="M191.772 96.3693C190.6 97.8689 184.319 105.586 173.425 106.557C161.459 107.625 153.409 99.7096 152.215 98.4961C152.614 97.4942 155.65 90.1742 162.281 86.2103C163.89 85.2507 165.708 84.4849 167.752 84.0562C173.39 82.871 178.104 84.7905 179.87 85.5366C183.126 86.9111 185.653 88.8737 187.546 90.791C189.777 93.0484 191.134 95.2472 191.772 96.3693Z" fill="#FFFDFA"/>
<mask id="mask3_2303_145" style="mask-type:alpha" maskUnits="userSpaceOnUse" x="152" y="83" width="40" height="24">
<path d="M191.772 96.3693C190.6 97.8689 184.319 105.586 173.425 106.557C161.459 107.625 153.409 99.7096 152.215 98.4961C152.614 97.4942 155.65 90.1742 162.281 86.2103C163.89 85.2507 165.708 84.4849 167.752 84.0562C173.39 82.871 178.104 84.7905 179.87 85.5366C183.126 86.9111 185.653 88.8737 187.546 90.791C189.777 93.0484 191.134 95.2472 191.772 96.3693Z" fill="#FFFDFA"/>
</mask>
<g mask="url(#mask3_2303_145)">
<path d="M190.6 94.0296C190.127 100.196 185.262 105.301 178.898 105.876C171.801 106.517 165.527 101.284 164.886 94.1866C164.737 92.5423 164.904 90.9448 165.335 89.4489C168.188 83.6867 175.988 81.547 180.437 82.0969C185.039 82.666 190.084 88.4856 190.6 94.0296Z" fill="url(#paint19_linear_2303_145)"/>
<path d="M169.811 97.0408C169.938 98.4511 168.898 99.6977 167.488 99.8252C166.078 99.9526 164.831 98.9126 164.704 97.5023C164.576 96.0921 165.616 94.8454 167.026 94.718C168.437 94.5905 169.683 95.6305 169.811 97.0408Z" fill="#FFFDFA"/>
</g>
<path d="M155.338 92.5431C156.243 91.1691 157.392 89.9848 158.578 88.8335C159.811 87.7381 161.145 86.742 162.574 85.8738C165.439 84.154 168.793 83.146 172.212 83.0388C173.924 83.0318 175.631 83.3002 177.259 83.7726C178.888 84.2379 180.474 84.8737 181.884 85.7845C183.329 86.6349 184.624 87.6876 185.863 88.7716C186.459 89.3422 187.012 89.9549 187.582 90.54C188.122 91.1569 188.634 91.7964 189.136 92.4378L189.055 92.5134C186.834 90.1668 184.315 88.077 181.476 86.5373C178.658 84.9776 175.445 84.0892 172.224 84.1402C169.001 84.1655 165.82 85.1055 162.982 86.6311C160.144 88.1628 157.561 90.1955 155.424 92.6127L155.338 92.5431Z" fill="url(#paint20_linear_2303_145)"/>
<path d="M137.916 85.6711C137.492 90.5691 137.069 95.466 136.645 100.364C136.634 100.487 136.637 100.609 136.652 100.731C136.848 102.293 138.243 113.463 138.762 117.617C138.872 118.5 138.303 119.326 137.437 119.536C135.943 119.898 134.452 120.26 132.959 120.622C132.143 120.82 131.582 121.568 131.622 122.406C131.694 123.957 131.767 125.508 131.839 127.06C131.875 127.819 132.395 128.469 133.129 128.668C137.843 129.948 142.556 131.229 147.27 132.509C147.677 132.62 148.111 132.58 148.491 132.396C152.993 130.215 157.495 128.034 161.997 125.853C162.615 125.554 163 124.922 162.985 124.235L162.88 119.804C162.858 118.869 162.106 118.117 161.172 118.095C159.024 118.043 156.879 117.992 154.731 117.94C153.774 117.917 153.011 117.127 153.022 116.169C153.086 110.489 153.149 104.809 153.213 99.1289C153.215 98.9691 153.195 98.8103 153.154 98.6564C151.922 94.0616 150.691 89.4677 149.459 84.8729C149.244 84.069 148.492 83.5265 147.661 83.5775C144.959 83.7434 142.255 83.9084 139.553 84.0743C138.686 84.1275 137.991 84.8069 137.916 85.6711Z" fill="url(#paint21_linear_2303_145)"/>
<path d="M137.72 99.3382L135.961 96.2056C139.581 93.3936 143.827 92.2217 148.242 92.8154C151.573 93.2642 153.848 94.5639 153.942 94.6189L152.654 97.9503L153.298 96.2842L152.659 97.9527C152.639 97.9414 150.696 96.8489 147.876 96.4922C144.171 96.0239 140.755 96.9816 137.72 99.3382Z" fill="url(#paint22_linear_2303_145)"/>
<path d="M201.148 73.0057L182.881 74.6565C182.196 74.4728 181.614 74.3452 181.174 74.2608C175.931 73.2508 170.032 73.8455 164.99 75.8914C162.185 77.0301 159.716 78.5783 157.652 80.4923C155.372 82.608 153.63 85.1363 152.474 88.0075C150.325 93.346 150.466 99.2152 152.884 104.978C154.887 109.752 158.376 114.161 162.456 117.074C169.476 122.086 177.108 121.783 178.566 121.672C178.666 121.663 178.771 121.655 178.879 121.645C181.636 121.396 186.619 120.443 191.125 116.942C195.32 113.682 198.534 108.625 199.941 103.068C201.45 97.1104 200.797 91.0802 198.102 86.087C198.023 85.9383 197.94 85.7916 197.857 85.6451L201.533 77.2664L201.148 73.0057ZM188.843 114.004C184.929 117.044 180.547 117.79 178.283 117.962C177.527 118.02 170.717 118.402 164.616 114.046C157.607 109.042 152.178 98.7019 155.924 89.3971C158.895 82.0179 166.265 78.2507 173.557 77.5918C175.92 77.3782 178.276 77.4912 180.471 77.9139C182.826 78.3678 190.82 80.4243 194.829 87.8535C199.879 97.2095 195.653 108.712 188.843 114.004Z" fill="url(#paint23_linear_2303_145)"/>
<path d="M85.2161 87.778L90.335 95.3619C90.2794 95.521 90.2246 95.68 90.1729 95.8406C88.4175 101.236 88.8558 107.286 91.4079 112.876C93.7888 118.091 97.857 122.489 102.568 124.944C107.63 127.582 112.702 127.626 115.46 127.376C115.567 127.367 115.671 127.356 115.771 127.346C117.226 127.194 124.789 126.124 130.797 119.935C134.288 116.338 136.931 111.375 138.045 106.319C139.391 100.216 138.477 94.4169 135.406 89.5502C133.754 86.9327 131.588 84.7575 128.965 83.0849C126.592 81.5719 123.885 80.4914 120.921 79.8741C115.594 78.7652 109.684 79.2377 104.707 81.1712C104.289 81.3332 103.74 81.563 103.099 81.8665L84.831 83.5174L85.2161 87.778ZM93.7095 96.9917C96.3223 88.9641 103.818 85.5077 106.054 84.639C108.137 83.8298 110.434 83.2963 112.798 83.0827C120.089 82.4238 128.016 84.8086 132.261 91.5358C137.614 100.018 134.127 111.164 128.129 117.344C122.907 122.723 116.14 123.568 115.385 123.646C113.127 123.883 108.682 123.934 104.287 121.645C96.6389 117.66 90.4192 107.101 93.7095 96.9917Z" fill="url(#paint24_linear_2303_145)"/>
<mask id="mask4_2303_145" style="mask-type:alpha" maskUnits="userSpaceOnUse" x="92" y="77" width="106" height="47">
<path d="M111.558 83.4074C99.7417 84.5705 91.4776 93.136 92.422 103.587C93.3664 114.037 99.3967 125.309 115.544 123.336C131.309 121.409 136.022 109.68 135.078 99.2295C134.133 88.7788 127.109 81.877 111.558 83.4074Z" fill="#04048E"/>
<path d="M174.257 77.2392C162.43 78.308 153.113 84.9245 154.86 98.6978C156.432 111.094 166.144 119.014 178.932 117.859C191.721 116.703 198.053 107.839 197.232 95.3701C196.559 85.1397 185.585 76.2154 174.257 77.2392Z" fill="#04048E"/>
</mask>
<g mask="url(#mask4_2303_145)">
<g opacity="0.22">
<path d="M189.501 136.113C187.492 136.765 186.009 136.947 185.674 136.982C184.476 137.108 182.687 137.182 180.613 136.892L146.625 64.9841C149.114 60.1705 153.181 57.3275 155.924 55.8591L189.501 136.113Z" fill="#D3DEE0"/>
</g>
<g opacity="0.22">
<path d="M196.729 132.25C195.176 133.496 193.581 134.418 192.1 135.099C187.77 122.843 163.805 65.1244 159.698 54.2574C161.432 53.702 163.277 53.3289 165.164 53.1584C165.836 53.0976 166.514 53.0616 167.194 53.0543L196.729 132.25Z" fill="#D3DEE0"/>
</g>
<g opacity="0.22">
<path d="M127.252 140.163C125.319 140.772 120.7 141.174 118.707 140.912L85.5605 80.8975C87.9681 76.4265 91.885 73.7773 94.5261 72.4069L127.252 140.163Z" fill="#D3DEE0"/>
</g>
<g opacity="0.22">
<path d="M134.21 136.559C132.714 137.718 131.178 138.578 129.752 139.214C125.629 127.863 102.07 80.975 98.1569 70.9104C99.8252 70.3898 106.364 68.628 107.018 68.6184L134.21 136.559Z" fill="#D3DEE0"/>
</g>
</g>
</g>
</g>
<defs>
<linearGradient id="paint0_linear_2303_145" x1="151.5" y1="217.5" x2="157" y2="133.75" gradientUnits="userSpaceOnUse">
<stop stop-color="#FDB395"/>
<stop offset="0.5" stop-color="#FC9E83"/>
<stop offset="1" stop-color="#FC8871"/>
</linearGradient>
<linearGradient id="paint1_linear_2303_145" x1="154.5" y1="276.5" x2="156.5" y2="406" gradientUnits="userSpaceOnUse">
<stop stop-color="#A7C1D4"/>
<stop offset="0.77" stop-color="#98B0C0"/>
<stop offset="1" stop-color="#89A0AB"/>
</linearGradient>
<linearGradient id="paint2_linear_2303_145" x1="131.5" y1="203.5" x2="122.5" y2="241.167" gradientUnits="userSpaceOnUse">
<stop stop-color="#A7C1D4"/>
<stop offset="0.77" stop-color="#98B0C0"/>
<stop offset="1" stop-color="#89A0AB"/>
</linearGradient>
<linearGradient id="paint3_linear_2303_145" x1="183.5" y1="212.5" x2="188.167" y2="238.167" gradientUnits="userSpaceOnUse">
<stop stop-color="#A7C1D4"/>
<stop offset="0.77" stop-color="#98B0C0"/>
<stop offset="1" stop-color="#89A0AB"/>
</linearGradient>
<linearGradient id="paint4_linear_2303_145" x1="179.5" y1="267.5" x2="183" y2="209" gradientUnits="userSpaceOnUse">
<stop stop-color="#593D49"/>
<stop offset="0.5" stop-color="#492C38"/>
<stop offset="1" stop-color="#3A1A27"/>
</linearGradient>
<linearGradient id="paint5_linear_2303_145" x1="162.5" y1="238.5" x2="201.708" y2="238.5" gradientUnits="userSpaceOnUse">
<stop stop-color="#593D49"/>
<stop offset="0.5" stop-color="#492C38"/>
<stop offset="1" stop-color="#3A1A27"/>
</linearGradient>
<linearGradient id="paint6_linear_2303_145" x1="134.5" y1="264.5" x2="136.25" y2="212" gradientUnits="userSpaceOnUse">
<stop stop-color="#593D49"/>
<stop offset="0.5" stop-color="#492C38"/>
<stop offset="1" stop-color="#3A1A27"/>
</linearGradient>
<linearGradient id="paint7_linear_2303_145" x1="149.5" y1="244.5" x2="108.75" y2="234.75" gradientUnits="userSpaceOnUse">
<stop stop-color="#593D49"/>
<stop offset="0.5" stop-color="#492C38"/>
<stop offset="1" stop-color="#3A1A27"/>
</linearGradient>
<linearGradient id="paint8_linear_2303_145" x1="153.5" y1="270.5" x2="163.927" y2="270.5" gradientUnits="userSpaceOnUse">
<stop stop-color="#593D49"/>
<stop offset="0.5" stop-color="#492C38"/>
<stop offset="1" stop-color="#3A1A27"/>
</linearGradient>
<linearGradient id="paint9_linear_2303_145" x1="142.812" y1="27.8689" x2="144.44" y2="86.6278" gradientUnits="userSpaceOnUse">
<stop stop-color="#733C0B"/>
<stop offset="0.5" stop-color="#6C3508"/>
<stop offset="1" stop-color="#642E05"/>
</linearGradient>
<linearGradient id="paint10_linear_2303_145" x1="148.644" y1="125.741" x2="148.172" y2="-7.256" gradientUnits="userSpaceOnUse">
<stop stop-color="#FFB494"/>
<stop offset="0.5" stop-color="#FEAD87"/>
<stop offset="1" stop-color="#FDA77A"/>
</linearGradient>
<linearGradient id="paint11_linear_2303_145" x1="90.9812" y1="109.866" x2="31.3523" y2="101.868" gradientUnits="userSpaceOnUse">
<stop stop-color="#FFB494"/>
<stop offset="0.5" stop-color="#FEAD87"/>
<stop offset="1" stop-color="#FDA77A"/>
</linearGradient>
<linearGradient id="paint12_linear_2303_145" x1="203.523" y1="99.6966" x2="260.752" y2="81.1376" gradientUnits="userSpaceOnUse">
<stop stop-color="#FFB494"/>
<stop offset="0.5" stop-color="#FEAD87"/>
<stop offset="1" stop-color="#FDA77A"/>
</linearGradient>
<linearGradient id="paint13_linear_2303_145" x1="158.298" y1="188.126" x2="141.736" y2="64.113" gradientUnits="userSpaceOnUse">
<stop stop-color="#733C0B"/>
<stop offset="0.5" stop-color="#6C3508"/>
<stop offset="1" stop-color="#642E05"/>
</linearGradient>
<linearGradient id="paint14_linear_2303_145" x1="106.149" y1="188.822" x2="202.28" y2="180.135" gradientUnits="userSpaceOnUse">
<stop stop-color="#733C0B"/>
<stop offset="0.5" stop-color="#6C3508"/>
<stop offset="1" stop-color="#642E05"/>
</linearGradient>
<linearGradient id="paint15_linear_2303_145" x1="97.5749" y1="138.388" x2="204.293" y2="128.744" gradientUnits="userSpaceOnUse">
<stop stop-color="#733C0B"/>
<stop offset="0.5" stop-color="#6C3508"/>
<stop offset="1" stop-color="#642E05"/>
</linearGradient>
<linearGradient id="paint16_linear_2303_145" x1="154.338" y1="144.303" x2="146.364" y2="114.399" gradientUnits="userSpaceOnUse">
<stop stop-color="#733C0B"/>
<stop offset="0.5" stop-color="#6C3508"/>
<stop offset="1" stop-color="#642E05"/>
</linearGradient>
<linearGradient id="paint17_linear_2303_145" x1="124.729" y1="108.323" x2="126.039" y2="92.2652" gradientUnits="userSpaceOnUse">
<stop stop-color="#A7C1D4"/>
<stop offset="0.77" stop-color="#98B0C0"/>
<stop offset="1" stop-color="#89A0AB"/>
</linearGradient>
<linearGradient id="paint18_linear_2303_145" x1="132.547" y1="92.0524" x2="103.313" y2="94.9452" gradientUnits="userSpaceOnUse">
<stop stop-color="#593D49"/>
<stop offset="0.5" stop-color="#492C38"/>
<stop offset="1" stop-color="#3A1A27"/>
</linearGradient>
<linearGradient id="paint19_linear_2303_145" x1="176.518" y1="103.643" x2="178.474" y2="86.397" gradientUnits="userSpaceOnUse">
<stop stop-color="#A7C1D4"/>
<stop offset="0.77" stop-color="#98B0C0"/>
<stop offset="1" stop-color="#89A0AB"/>
</linearGradient>
<linearGradient id="paint20_linear_2303_145" x1="188.318" y1="87.0134" x2="155.079" y2="90.0172" gradientUnits="userSpaceOnUse">
<stop stop-color="#593D49"/>
<stop offset="0.5" stop-color="#492C38"/>
<stop offset="1" stop-color="#3A1A27"/>
</linearGradient>
<linearGradient id="paint21_linear_2303_145" x1="144.588" y1="91.9691" x2="147.963" y2="129.317" gradientUnits="userSpaceOnUse">
<stop stop-color="#FDB395"/>
<stop offset="0.5" stop-color="#FC9E83"/>
<stop offset="1" stop-color="#FC8871"/>
</linearGradient>
<linearGradient id="paint22_linear_2303_145" x1="144.567" y1="107.518" x2="145.455" y2="81.1745" gradientUnits="userSpaceOnUse">
<stop stop-color="#5C3769"/>
<stop offset="0.5" stop-color="#45254E"/>
<stop offset="1" stop-color="#2D1333"/>
</linearGradient>
<linearGradient id="paint23_linear_2303_145" x1="177.906" y1="114.776" x2="174.251" y2="74.3308" gradientUnits="userSpaceOnUse">
<stop stop-color="#5C3769"/>
<stop offset="0.5" stop-color="#45254E"/>
<stop offset="1" stop-color="#2D1333"/>
</linearGradient>
<linearGradient id="paint24_linear_2303_145" x1="114.671" y1="117.69" x2="109.974" y2="82.941" gradientUnits="userSpaceOnUse">
<stop stop-color="#5C3769"/>
<stop offset="0.5" stop-color="#45254E"/>
<stop offset="1" stop-color="#2D1333"/>
</linearGradient>
<clipPath id="clip0_2303_145">
<rect width="314" height="315" fill="white"/>
</clipPath>
</defs>
</svg>
