<svg width="327" height="327" viewBox="0 0 327 327" fill="none" xmlns="http://www.w3.org/2000/svg">
<circle cx="163.5" cy="163.5" r="163.5" fill="#FDFFF3"/>
<mask id="mask0_2314_351" style="mask-type:alpha" maskUnits="userSpaceOnUse" x="0" y="0" width="327" height="327">
<circle cx="163.5" cy="163.5" r="163.5" fill="#FDFFF3"/>
</mask>
<g mask="url(#mask0_2314_351)">
<path d="M234.019 84.0299C234.019 84.0299 236.119 115.515 247.715 137.249C264.439 168.593 239.784 170.751 243.186 191.887C246.589 213.024 283.006 233.271 234.749 277.572C203.166 306.565 172.442 243.342 172.442 243.342L168.385 163.342L234.019 84.0299Z" fill="#FF6A59"/>
<path d="M215.862 133.683C211.391 129.791 207.061 125.791 202.841 121.705L168.759 158.201L173.492 228.92C173.492 228.92 181.226 242.807 192.852 253.646C196.318 250.323 202.656 267.368 207.021 266.204C221.582 262.319 249.247 236.854 232.188 214.721C211.813 188.286 240.421 162.003 215.862 133.683Z" fill="#F1534F"/>
<path d="M189.006 231.011C175.069 223.402 178.871 186.619 178.871 186.619L157.998 187.966V186.624L155.765 187.295L153.531 186.624V187.966L132.659 186.619C132.659 186.619 136.46 223.402 122.523 231.011C108.586 238.621 26.2332 242.425 35.1021 327.395H153.531H157.998H276.428C285.296 242.425 202.943 238.621 189.006 231.011Z" fill="#FF9C7B"/>
<path d="M129.733 221.523C146.405 219.035 163.065 216.469 179.715 213.824C177.372 201.141 178.871 186.619 178.871 186.619L157.998 187.966V186.624L155.765 187.295L153.531 186.624V187.966L132.659 186.619C132.659 186.619 134.859 207.991 129.733 221.523Z" fill="#D97E65"/>
<path d="M208.492 294.037C204.788 275.438 205.665 255.673 210.181 237.444C206.654 236.421 203.364 235.546 200.434 234.756C199.104 250.11 197.305 265.703 191.533 279.535C189.31 284.862 186.627 289.657 183.521 294.037H208.492Z" fill="#352836"/>
<path d="M233.856 245.442C220.075 264.315 190.537 277.365 156.313 277.365C122.088 277.365 92.55 264.315 78.7688 245.442C54.2449 257.016 30.076 279.215 35.1049 327.395H154.069H158.556H277.52C282.549 279.215 258.38 257.016 233.856 245.442Z" fill="#438584"/>
<path d="M150.058 305.001C198.739 305.001 241.345 290.908 264.787 269.835C256.451 258.424 245.195 250.793 233.856 245.442C220.075 264.315 190.537 277.365 156.313 277.365C122.088 277.365 92.55 264.315 78.7688 245.442C65.3767 251.762 52.102 261.265 43.6187 276.423C68.0879 293.789 106.651 305.001 150.058 305.001Z" fill="#559B99"/>
<path d="M120.043 128.952C116.874 115.935 106.962 118.172 106.031 118.413C105.071 118.455 94.9383 119.213 95.705 132.589C96.4762 146.045 103.677 153.832 111.076 152.239C118.617 151.6 123.231 142.047 120.043 128.952Z" fill="#D97E65"/>
<path d="M201.819 134.92C206.841 122.501 216.325 126.153 217.21 126.526C218.154 126.707 228.07 128.929 225.373 142.052C222.66 155.253 214.408 161.913 207.318 159.262C199.948 157.535 196.767 147.413 201.819 134.92Z" fill="#D97E65"/>
<path d="M111.511 108.961C120.647 53.5749 162.766 59.7885 166.729 60.5C170.753 60.3714 213.327 60.3387 214.341 116.465C215.361 172.926 187.735 207.736 156.319 203.417C124.61 203.129 102.32 164.676 111.511 108.961Z" fill="#FF9C7B"/>
<path d="M135.691 65.5853C135.691 65.5853 137.794 108.339 179.258 119.611L170.771 92.8812C170.771 92.8812 172.032 124.58 213.939 125.989C213.939 125.989 228.716 134.214 222.059 150.219C222.059 150.219 237.996 138.739 233.814 116.996C229.632 95.2528 243.114 94.8628 224.101 61.8681C207.331 32.7672 146.053 25.1152 135.691 65.5853Z" fill="#FF6A59"/>
<path d="M148.093 57.4209C148.093 57.4209 129.077 39.5422 112.427 57.0164C95.7783 74.4907 97.4914 103.749 81.9748 120.756C66.4582 137.764 67.4883 153.78 83.7334 172.005C99.9785 190.231 32.1816 201.224 50.4187 244.881C68.6558 288.538 123.274 269.986 129.527 236.912C135.781 203.837 134.113 196.57 134.113 196.57C134.113 196.57 112.992 177.439 111.199 149.274C109.407 121.109 116.957 107.919 129.692 98.9535C142.426 89.9884 153.988 82.0373 148.093 57.4209Z" fill="#FF6A59"/>
<path d="M61.6846 225.914C57.8574 216.98 57.6974 210.232 59.6879 204.875C49.9447 214.547 42.9328 226.961 50.4187 244.881C68.6558 288.537 123.274 269.987 129.527 236.912C129.666 236.178 129.796 235.473 129.927 234.765C112.195 246.799 75.8129 258.895 61.6846 225.914Z" fill="#F1534F"/>
<path d="M168.197 141.121L170.453 157.861L163.564 164.04" stroke="#B26651" stroke-width="1.66181" stroke-miterlimit="10"/>
<path d="M180.07 175.314C169.273 184.388 152.237 182.597 139.938 172.911Z" fill="white"/>
<path d="M202.208 124.598C202.208 124.598 190.112 107.382 175.729 121.552" stroke="#352836" stroke-width="2.70231" stroke-miterlimit="10"/>
<path d="M149.458 120.748C149.458 120.748 137.362 103.533 122.98 117.702" stroke="#352836" stroke-width="2.70231" stroke-miterlimit="10"/>
<path d="M146.313 140.83C146.313 140.83 146.329 130.06 137.099 130.156C129.347 130.237 129.493 139.603 129.493 139.603" stroke="#352836" stroke-width="1.19558" stroke-miterlimit="10"/>
<path d="M193.771 143.525C193.771 143.525 193.787 132.755 184.556 132.85C176.805 132.931 176.951 142.297 176.951 142.297" stroke="#352836" stroke-width="1.19558" stroke-miterlimit="10"/>
</g>
</svg>
