<svg width="189" height="136" viewBox="0 0 189 136" fill="none" xmlns="http://www.w3.org/2000/svg">
<path d="M93.1314 70.6036C93.453 70.9889 93.7782 71.3707 94.1534 71.8173C94.2713 71.9578 94.2642 72.1775 94.1355 72.3071C91.9342 74.5293 89.3899 76.1068 86.3238 76.6831C80.5776 77.7672 75.7783 75.7431 71.6902 71.7957C65.7831 66.0944 62.7528 59.028 62.1095 50.8559C61.3877 41.6862 64.2572 33.7699 70.2572 26.9376C71.34 25.7023 71.34 25.7203 72.5907 26.7972C73.7878 27.8272 74.9707 28.8789 76.6788 28.9401C78.63 29.0122 79.9415 27.9605 80.9957 26.4766C83.3149 23.2064 84.4191 19.4247 85.3339 15.5926C86.5311 10.5827 87.453 5.65933 87.6389 0.494619C87.6389 0.4514 87.646 0.393774 87.6567 0.321742C87.6889 0.0696292 87.914 -0.0636304 88.1463 0.0300115C94.8824 2.76003 99.9783 7.48535 104.267 13.2191C108.437 18.798 111.596 24.8703 113.275 31.8322C113.379 32.268 113.661 32.3221 113.915 31.9547C114.137 31.6341 114.351 31.31 114.537 30.9714C115.312 29.5488 116.038 28.101 116.799 26.6711C117.26 25.8067 117.774 25.7347 118.461 26.5055C123.66 32.3509 126.798 39.0175 126.987 47.0202C127.116 52.4407 126.319 57.627 124.007 62.518C121.169 68.511 117.206 73.4741 110.881 75.9988C105.235 78.2534 98.8526 76.5715 94.9968 72.2459C94.8896 72.1235 94.8824 71.9182 94.9789 71.7885C95.1576 71.5508 95.3398 71.3095 95.5221 71.0682C95.5292 71.0574 95.5435 71.043 95.5542 71.0322C96.0188 70.5604 96.4869 70.0921 96.9515 69.6203C101.318 65.2228 105.682 60.8288 110.048 56.4312C110.077 56.3772 110.12 56.298 110.145 56.244L110.613 53.8345C110.613 53.8309 110.617 53.8201 110.617 53.8165L111.163 51.6123C111.163 51.5619 111.163 51.4862 111.163 51.4358C110.849 50.2041 110.534 48.9759 110.22 47.7442C110.209 47.7189 110.195 47.6793 110.184 47.6541L109.094 45.7309C109.076 45.7092 109.051 45.6732 109.034 45.6516C108.48 45.1006 107.926 44.5495 107.372 43.9985L107.379 44.0057C105.517 42.385 103.334 42.1761 100.993 42.6659C100.982 42.6695 100.968 42.6731 100.961 42.6731L98.313 43.451C98.2844 43.4654 98.238 43.487 98.2094 43.5015C97.0587 44.3082 95.908 45.115 94.7573 45.9253C94.6215 45.9253 94.4857 45.9253 94.3499 45.9253C93.3779 45.2518 92.4095 44.5747 91.4375 43.9012C91.4196 43.8904 91.3946 43.876 91.3768 43.8688L89.5614 43.0765C89.5435 43.0693 89.5185 43.0621 89.5007 43.0549C88.8681 42.9036 88.2392 42.7559 87.6067 42.6047C87.5852 42.6011 87.5495 42.5974 87.5245 42.5938L84.7086 42.5902C84.6585 42.6011 84.5871 42.6227 84.537 42.6335L81.6746 44.193L81.16 44.4703C81.1314 44.4919 81.0886 44.5279 81.0635 44.5495L80.2809 45.4355C80.2738 45.4427 80.2631 45.4571 80.2559 45.4679L79.7556 46.1811H79.7664C79.4805 46.6601 79.1946 47.1391 78.9087 47.6145C78.898 47.6397 78.8801 47.6793 78.8694 47.7045C78.6193 48.6157 78.3691 49.5306 78.119 50.4418C78.1154 50.4706 78.1082 50.5138 78.1047 50.539L78.1154 51.8752C78.1154 51.8896 78.119 51.9112 78.119 51.9256L78.4513 54.1874C78.462 54.2235 78.4799 54.2775 78.4942 54.3099L79.9236 56.885C79.9522 56.9391 79.9736 57.0327 79.9665 57.0939L79.9558 57.22C79.9986 57.3172 80.0487 57.4361 80.0915 57.5333C81.3173 58.5094 82.2714 59.7627 83.3756 60.8648C86.6168 64.1063 89.8652 67.3369 93.1099 70.5712C93.1135 70.5856 93.1242 70.5964 93.1314 70.6036Z" fill="#F16667"/>
<path d="M1.75599 121.028C3.41908 122.121 5.7829 122.905 8.40394 122.905C11.2467 122.905 13.8279 121.378 13.8279 118.536C13.8279 116.615 12.5595 115.305 9.71668 113.778C6.30622 111.946 3.72509 109.631 3.72509 106.095C3.72509 100.461 8.62568 96.9686 14.5729 96.9686C17.8548 96.9686 19.9968 97.7564 21.1366 98.4513L19.4735 102.643C18.5111 102.12 16.542 101.288 14.1782 101.333C10.8964 101.333 9.06031 103.209 9.06031 105.174C9.06031 107.184 10.7234 108.405 13.4775 109.932C17.0653 111.809 19.2074 114.168 19.2074 117.748C19.2074 123.644 14.3955 127.264 7.83183 127.264C4.24398 127.22 1.31249 126.215 -0.000244141 125.21L1.75599 121.028Z" fill="white"/>
<path d="M44.1497 105.573L41.3513 120.245C40.8723 122.776 40.5619 125.003 40.3002 126.839H35.75L36.2334 123.131H36.1447C34.0869 125.879 31.4215 127.322 28.7517 127.322C25.6472 127.322 23.1947 125.662 23.1947 121.298C23.1947 120.165 23.3277 118.939 23.6338 117.501L25.9089 105.582H30.9824L28.796 117.195C28.5787 118.244 28.4457 119.289 28.4457 120.121C28.4457 121.869 29.1464 123.135 31.1598 123.135C33.5236 123.135 36.2334 120.342 37.1115 115.93L39.0318 105.573H44.1497Z" fill="white"/>
<path d="M46.5127 130.632C47.7368 131.376 50.1006 131.898 52.114 131.898C55.4402 131.898 57.977 130.327 59.0281 125.392L59.5514 122.993H59.4627C57.7109 125.525 55.4802 126.746 52.7704 126.746C48.5262 126.746 46.1225 123.254 46.1225 119.236C46.0781 112.119 51.196 105.09 60.0348 105.09C62.7889 105.09 65.4587 105.701 67.4278 106.573L64.1903 124.126C63.4009 128.273 62.2212 131.593 59.8175 133.602C57.5867 135.434 54.6109 135.961 51.9411 135.961C49.187 135.961 46.6458 135.395 45.2488 134.523L46.5127 130.632ZM61.9108 109.591C61.3431 109.33 60.2477 109.069 59.068 109.069C54.6065 109.069 51.4577 113.871 51.4577 118.457C51.4577 120.683 52.3314 122.781 54.8681 122.781C57.4049 122.781 59.9417 119.767 60.6868 115.925L61.9108 109.591Z" fill="white"/>
<path d="M83.3056 126.835C83.3056 125.569 83.4786 123.865 83.656 122.077H83.5673C81.4652 125.963 78.6224 127.317 75.9126 127.317C72.1075 127.317 69.6106 124.348 69.6106 120.068C69.6106 112.818 74.6841 105.09 84.6184 105.09C86.9378 105.09 89.4303 105.528 91.0934 106.051L88.8626 117.142C88.2506 120.285 87.9002 124.303 87.9889 126.835H83.3056ZM85.3635 109.242C84.8401 109.109 84.1838 109.025 83.2657 109.025C78.5825 109.025 74.9103 114.31 74.9103 119.156C74.9103 121.382 75.7397 123.214 77.9749 123.214C80.383 123.214 83.2702 120.245 84.2769 114.832L85.3635 109.242Z" fill="white"/>
<path d="M93.0177 126.835L95.5101 113.739C96.0778 110.725 96.3838 107.449 96.6056 105.573H101.023C100.89 107.016 100.761 108.498 100.544 110.025H100.677C102.123 107.188 104.438 105.09 107.325 105.09C107.719 105.09 108.114 105.135 108.46 105.135L107.453 110.114C107.192 110.069 106.841 110.069 106.491 110.069C102.859 110.069 100.539 113.739 99.71 118.28L98.0913 126.835H93.0177Z" fill="white"/>
<path d="M129.212 113.738H118.626L116.963 122.515H128.862L128.033 126.839H111.016L116.617 97.4113H132.978L132.148 101.735H120.906L119.42 109.463H130.051L129.212 113.738Z" fill="white"/>
<path d="M132.539 126.835L138.446 95.8356H143.564L137.612 126.835H132.539Z" fill="white"/>
<path d="M143.431 126.835L147.497 105.573H152.571L148.504 126.835H143.431ZM148.287 99.8103C148.287 98.0222 149.688 96.752 151.351 96.752C152.97 96.752 154.066 97.8452 154.066 99.4606C154.021 101.337 152.62 102.519 150.872 102.519C149.338 102.519 148.287 101.426 148.287 99.8103Z" fill="white"/>
<path d="M165.131 100.115L164.124 105.573H168.892L168.103 109.503H163.339L161.676 118.058C161.459 119.063 161.282 120.156 161.282 121.072C161.282 122.249 161.805 122.993 163.162 122.993C163.774 122.993 164.386 122.949 164.914 122.86L164.435 126.835C163.69 127.14 162.333 127.273 161.109 127.273C157.61 127.273 156.08 125.352 156.08 122.909C156.08 121.732 156.213 120.55 156.519 118.979L158.355 109.503H155.512L156.257 105.573H159.1L159.889 101.598L165.131 100.115Z" fill="white"/>
<path d="M185.388 125.613C183.286 126.707 180.443 127.317 177.862 127.317C171.955 127.317 169.112 123.692 169.112 118.496C169.112 112.079 173.835 105.09 181.188 105.09C185.388 105.09 188.058 107.494 188.058 111.07C188.058 116.527 182.328 118.275 174.101 118.098C174.012 118.842 174.19 120.28 174.669 121.112C175.498 122.551 177.033 123.294 179.042 123.294C181.45 123.294 183.375 122.683 184.905 121.896L185.388 125.613ZM180.532 108.892C177.339 108.892 175.236 111.729 174.624 114.305C179.875 114.349 183.241 113.65 183.241 111.074C183.246 109.72 182.15 108.892 180.532 108.892Z" fill="white"/>
</svg>
