<svg width="165" height="125" viewBox="0 0 165 125" fill="none" xmlns="http://www.w3.org/2000/svg">
<path d="M82.5 125C128.063 125 165 122.761 165 120C165 117.239 128.063 115 82.5 115C36.9365 115 0 117.239 0 120C0 122.761 36.9365 125 82.5 125Z" fill="#F5F5F5" fill-opacity="0.7"/>
<path d="M44.7088 23.3585C44.3147 25.1022 43.8474 26.8006 43.3138 28.492C43.0453 29.3359 42.7523 30.1694 42.4489 31.0064C42.2955 31.4249 42.1351 31.8399 41.9712 32.2549L41.7166 32.8896C41.5522 33.3294 41.3008 33.7315 40.9773 34.0718C40.5501 34.5115 39.99 34.7983 39.3835 34.8878C38.9157 34.9533 38.4393 34.914 37.9886 34.7728C37.3996 34.5833 36.8458 34.2982 36.3495 33.9288C35.5698 33.3422 34.8533 32.676 34.2117 31.941C33.0097 30.5869 31.9378 29.1228 31.0103 27.5678C30.8778 27.3552 30.828 27.1013 30.8704 26.8544C30.9127 26.6075 31.0444 26.3848 31.2402 26.2286C31.436 26.0723 31.6824 25.9935 31.9326 26.007C32.1827 26.0205 32.4192 26.1254 32.597 26.3019L32.6319 26.3333C33.2283 26.9122 33.8351 27.5294 34.4593 28.077C35.0836 28.6245 35.6973 29.2173 36.3251 29.737C36.9073 30.2362 37.5342 30.681 38.1978 31.0657C38.412 31.1998 38.6481 31.2954 38.8953 31.3481C38.9546 31.3481 38.9302 31.3133 38.7907 31.3237C38.6162 31.3454 38.4528 31.421 38.3233 31.5399C38.2222 31.6376 38.2257 31.6585 38.2327 31.6062L38.407 31.0099L38.7558 29.7893C38.9894 28.9732 39.2057 28.1467 39.4288 27.3272L40.7262 22.3995V22.3681C40.8682 21.8522 41.2056 21.412 41.6668 21.1408C42.128 20.8695 42.6767 20.7886 43.1966 20.9151C43.7165 21.0417 44.1666 21.3658 44.4515 21.8187C44.7364 22.2716 44.8337 22.8177 44.7227 23.3411L44.7088 23.3585Z" fill="#FFC3BD"/>
<path d="M41.6573 18.4344C39.7044 20.1781 39.2859 25.2069 39.2859 25.2069L45.1168 28.8129C45.1168 28.8129 45.6539 26.0229 46.027 22.6367C46.449 18.9645 44.0218 16.314 41.6573 18.4344Z" fill="white"/>
<path d="M54.9511 15.5364C50.9302 15.5155 46.9301 15.9758 42.9371 17.5207C42.0735 17.8669 41.35 18.491 40.8807 19.2943C40.4115 20.0976 40.2233 21.0344 40.3459 21.9567C40.8272 25.7091 42.1629 32.7223 45.87 42.3719L59.8719 38.5357C59.415 36.3631 55.401 26.1415 54.9511 15.5364Z" fill="white"/>
<path d="M32.8518 26.6297L31.9276 24.4152L29.469 26.281C29.469 26.281 29.905 28.1398 31.7323 27.7666L32.8518 26.6297Z" fill="#FFC3BD"/>
<path d="M29.8386 23.5259L28.9807 24.6594C28.9123 24.736 28.8677 24.8308 28.8522 24.9324C28.8367 25.0339 28.8511 25.1378 28.8935 25.2313L29.4689 26.2775L31.9276 24.4117L30.7139 23.3167C30.57 23.2289 30.3971 23.2015 30.2331 23.2408C30.0691 23.28 29.9273 23.3825 29.8386 23.5259Z" fill="#FFC3BD"/>
<path opacity="0.2" d="M53.3854 20.614C53.4482 21.6323 55.171 25.8695 56.5241 26.6437C56.1997 25.2209 55.8998 23.7248 55.6487 22.1764L53.3854 20.614Z" fill="black"/>
<path d="M47.7432 9.36017C47.8443 11.3619 48.35 14.9609 50.0344 15.9548C49.2393 17.2173 48.1582 18.7099 45.867 19.2818C43.5758 19.8537 43.5827 18.1972 43.9838 17.2417C46.0274 16.2687 45.5705 14.6889 44.8173 13.2765L47.7432 9.36017Z" fill="#FFC3BD"/>
<path opacity="0.2" d="M46.5502 10.9574L44.8065 13.2765C44.9877 13.6017 45.1394 13.9425 45.2598 14.2948C46.0584 14.0019 46.9721 12.8615 46.8466 11.9862C46.8099 11.6283 46.7095 11.2799 46.5502 10.9574Z" fill="black"/>
<path d="M42.5955 5.12995C44.1823 5.68794 43.8824 6.98176 43.2512 7.57113C44.2381 7.91987 44.9321 9.24159 44.9321 9.24159L43.2581 10.5842C43.2581 10.5842 40.9251 10.511 40.517 9.18928C40.109 7.86756 37.8387 6.29474 40.2973 4.7568C42.756 3.21886 42.5955 5.12995 42.5955 5.12995Z" fill="#263238"/>
<path d="M47.5579 6.3331C47.9763 8.99049 48.3565 10.518 47.3277 12.1536C45.7758 14.5947 42.264 14.0891 41.0504 11.606C39.9623 9.36713 39.4601 5.39847 41.8037 3.80822C42.3231 3.45562 42.9236 3.2406 43.5488 3.18328C44.174 3.12596 44.8036 3.22823 45.3785 3.4805C45.9534 3.73277 46.4549 4.12681 46.8361 4.62571C47.2173 5.12461 47.4656 5.71207 47.5579 6.3331Z" fill="#FFC3BD"/>
<path d="M45.6716 4.25469C45.424 5.1091 42.9793 4.25469 41.2426 5.11259C40.451 5.50318 39.2513 7.20503 37.0577 6.05419C37.0577 6.05419 38.5503 5.4404 38.7282 4.24074C38.9374 2.84578 39.3699 1.04629 41.825 1.48919C44.2801 1.93209 44.6882 0.885866 46.2784 1.24507C48.2837 1.69494 49.03 5.56595 45.6716 4.25469Z" fill="#263238"/>
<path d="M45.1761 4.09421C44.4193 5.6182 45.5527 6.31568 46.4246 6.31568C45.9747 7.26425 46.3967 8.68711 46.3967 8.68711L48.5309 8.4674C48.5309 8.4674 50.1456 6.78299 49.5039 5.54846C48.8622 4.31392 49.3888 1.6077 46.5571 2.23194C43.7253 2.85619 45.1761 4.09421 45.1761 4.09421Z" fill="#263238"/>
<path d="M45.8421 2.88756C47.3242 2.1308 47.9066 1.08458 47.9729 0C48.7576 1.41239 48.3495 2.905 45.8421 2.88756Z" fill="#263238"/>
<path d="M49.0609 8.71498C48.8612 9.32382 48.4373 9.83381 47.8752 10.1413C47.1568 10.4901 46.7034 9.79259 46.8289 8.97305C46.9371 8.21629 47.4427 7.11776 48.1995 7.10381C48.9563 7.08986 49.3259 7.93729 49.0609 8.71498Z" fill="#FFC3BD"/>
<path d="M43.6699 99.1605L47.0666 98.7281L47.3839 92.4822L43.7012 92.8449L43.6699 99.1605Z" fill="#FFC3BD"/>
<path d="M49.6297 66.9056C53.3856 57.2909 56.7928 39.3796 56.7928 39.3796L45.8808 42.3683C45.8808 42.3683 43.1955 59.0799 42.9165 67.3416C42.6235 75.9345 42.8642 94.5154 42.8642 94.5154H48.0604C48.0604 94.5154 50.6201 73.6224 49.6297 66.9056Z" fill="#263238"/>
<path opacity="0.2" d="M54.1842 48.1365C51.4431 50.9648 51.0211 56.6249 51.4396 61.6432C52.7822 57.2561 54.0063 52.297 54.9444 48.1749L54.1842 48.1365Z" fill="black"/>
<path d="M42.7282 95.1431L48.1825 95.3697L48.5382 93.6086L42.4562 93.2634L42.7282 95.1431Z" fill="white"/>
<path d="M44.1542 7.63387C44.203 7.85009 44.1263 8.04538 43.9868 8.07677C43.8473 8.10816 43.6939 7.95471 43.6381 7.72803C43.5823 7.50135 43.666 7.31652 43.8055 7.28862C43.9449 7.26072 44.1089 7.42114 44.1542 7.63387Z" fill="#263238"/>
<path d="M41.4972 8.13955C41.546 8.35577 41.4693 8.55106 41.3298 8.58245C41.1903 8.61383 41.0369 8.46039 40.9811 8.23371C40.9253 8.00703 41.009 7.82219 41.1485 7.7943C41.288 7.7664 41.4519 7.92682 41.4972 8.13955Z" fill="#263238"/>
<path d="M41.9467 8.22681C41.8366 8.93333 41.6289 9.62111 41.3294 10.2704C41.4956 10.3411 41.675 10.3752 41.8556 10.3703C42.0361 10.3655 42.2134 10.3219 42.3756 10.2425L41.9467 8.22681Z" fill="#ED847E"/>
<path d="M43.07 10.9469C43.3146 10.931 43.5534 10.8652 43.7716 10.7536C43.9899 10.6421 44.1831 10.4871 44.3394 10.2983C44.3467 10.2917 44.3524 10.2835 44.3562 10.2744C44.36 10.2653 44.3617 10.2555 44.3612 10.2457C44.3607 10.2359 44.3581 10.2263 44.3534 10.2176C44.3487 10.2089 44.3422 10.2014 44.3342 10.1956C44.3263 10.1897 44.3171 10.1858 44.3075 10.1839C44.2978 10.1821 44.2878 10.1824 44.2783 10.1849C44.2688 10.1874 44.2599 10.192 44.2524 10.1983C44.2449 10.2046 44.2388 10.2126 44.2347 10.2215C44.0588 10.4287 43.8362 10.5912 43.5851 10.6954C43.3341 10.7997 43.0619 10.8429 42.791 10.8214C42.774 10.8213 42.7576 10.8278 42.7453 10.8395C42.733 10.8512 42.7256 10.8672 42.7247 10.8841C42.7242 10.8927 42.7255 10.9012 42.7284 10.9092C42.7314 10.9173 42.7359 10.9246 42.7418 10.9308C42.7477 10.937 42.7548 10.9419 42.7626 10.9453C42.7705 10.9487 42.7789 10.9504 42.7875 10.9504C42.8816 10.9563 42.976 10.9551 43.07 10.9469Z" fill="#263238"/>
<path d="M44.1895 6.43779C44.2096 6.43079 44.2276 6.41879 44.2418 6.40292C44.2649 6.37835 44.2777 6.34593 44.2777 6.31224C44.2777 6.27856 44.2649 6.24614 44.2418 6.22157C44.0892 6.08456 43.9062 5.98589 43.7079 5.93373C43.5096 5.88157 43.3017 5.87744 43.1014 5.92166C43.0694 5.93138 43.0423 5.95319 43.0261 5.98247C43.0098 6.01176 43.0056 6.04623 43.0142 6.07859C43.024 6.11156 43.0462 6.13945 43.0761 6.15637C43.106 6.17329 43.1414 6.17791 43.1747 6.16926C43.3335 6.13554 43.4981 6.14042 43.6547 6.18351C43.8112 6.22659 43.9552 6.30662 44.0744 6.41687C44.0903 6.42971 44.1092 6.43836 44.1293 6.44201C44.1494 6.44567 44.1701 6.44422 44.1895 6.43779Z" fill="#263238"/>
<path d="M40.0006 7.53973C40.0213 7.53487 40.0403 7.52454 40.0556 7.50982C40.0709 7.49509 40.082 7.47651 40.0877 7.45603C40.128 7.29757 40.2061 7.15129 40.3155 7.02978C40.4248 6.90826 40.5621 6.81518 40.7155 6.75855C40.732 6.75417 40.7474 6.74647 40.7609 6.73591C40.7743 6.72535 40.7855 6.71215 40.7936 6.69713C40.8018 6.68211 40.8068 6.66558 40.8084 6.64856C40.8099 6.63154 40.808 6.61437 40.8026 6.59813C40.7929 6.56606 40.7711 6.53904 40.7418 6.52277C40.7125 6.5065 40.6781 6.50226 40.6457 6.51094C40.4532 6.57732 40.2796 6.68942 40.1399 6.83763C40.0002 6.98584 39.8985 7.16573 39.8436 7.36187C39.836 7.38389 39.8347 7.40757 39.8399 7.43029C39.845 7.453 39.8563 7.47385 39.8726 7.49049C39.8889 7.50714 39.9095 7.51892 39.9321 7.52454C39.9547 7.53015 39.9784 7.52937 40.0006 7.52229V7.53973Z" fill="#263238"/>
<path d="M70.8295 89.2877L73.4416 87.0732L70.3099 81.6608L67.4188 83.9729L70.8295 89.2877Z" fill="#FFC3BD"/>
<path d="M62.9026 65.6397C59.8232 53.7372 64.7962 44.5236 59.8616 38.5392L50.6095 41.071C50.6095 41.071 54.0202 59.488 56.9112 67.3102C59.9243 75.4393 67.4362 85.8283 67.4362 85.8283L71.8826 83.122C71.8826 83.122 67.6698 73.0818 62.9026 65.6397Z" fill="#263238"/>
<path d="M72.849 86.5606C73.0398 86.4958 73.2458 86.49 73.4399 86.5442C73.6341 86.5983 73.8073 86.7098 73.9371 86.864L75.9598 89.1553C76.0014 89.2061 76.0323 89.2649 76.0506 89.3281C76.0688 89.3913 76.074 89.4575 76.0659 89.5227C76.0577 89.588 76.0364 89.6509 76.0031 89.7076C75.9699 89.7643 75.9255 89.8137 75.8726 89.8527C74.6485 90.7385 74.8682 90.4526 73.672 91.2895C72.2771 92.2695 72.1899 92.7577 70.3137 93.5738C69.2012 94.0585 68.5944 93.4866 68.8001 92.9984C69.7592 90.7316 69.8463 89.4796 70.3346 88.9007C70.3346 88.9007 68.8106 88.4055 69.0163 87.5057C69.2221 86.606 70.8786 85.5388 71.5342 85.9015C71.7619 85.9996 71.9558 86.1621 72.0922 86.3691C72.2285 86.5761 72.3013 86.8185 72.3015 87.0663C72.4129 86.8342 72.6088 86.6534 72.849 86.5606Z" fill="#263238"/>
<path d="M46.5536 97.8668C46.7554 97.8652 46.953 97.9246 47.1204 98.0372C47.2878 98.1499 47.4172 98.3105 47.4917 98.498L48.6844 101.316C48.7079 101.378 48.7184 101.444 48.7154 101.511C48.7123 101.577 48.6958 101.642 48.6667 101.702C48.6377 101.762 48.5967 101.815 48.5464 101.858C48.4961 101.901 48.4374 101.934 48.3741 101.954C46.9338 102.404 47.7707 102.09 46.3688 102.505C44.7297 102.99 42.1839 104.224 40.2659 104.793C39.1046 105.141 38.5884 104.074 39.0139 103.764C41.7306 101.783 42.7907 99.6907 43.4289 99.2931C43.4289 99.2931 42.1386 98.3411 42.6199 97.5494C43.1011 96.7578 43.8335 96.4753 44.3391 97.0263C44.5216 97.1927 44.6517 97.4086 44.7136 97.6476C44.7755 97.8866 44.7666 98.1384 44.6879 98.3725C45.2958 98.1561 45.9196 97.987 46.5536 97.8668Z" fill="#263238"/>
<path d="M67.691 86.6652L72.3641 83.8439L71.691 82.1804L66.4286 85.2458L67.691 86.6652Z" fill="white"/>
<path d="M55.8443 16.6314C56.7126 17.2277 57.4938 17.8275 58.2854 18.4518C59.0771 19.076 59.8548 19.7282 60.622 20.3943C62.1883 21.7523 63.634 23.2435 64.9429 24.8511C65.1103 25.0534 65.2916 25.2696 65.4311 25.4963C65.5706 25.723 65.7554 25.9392 65.9019 26.1694L66.3274 26.8669L66.7145 27.5643C67.1945 28.4788 67.6252 29.4182 68.0048 30.3787C68.7582 32.2567 69.3623 34.1912 69.8113 36.1643C69.8635 36.4062 69.8264 36.6588 69.707 36.8756C69.5875 37.0923 69.3936 37.2586 69.1611 37.3436C68.9287 37.4285 68.6733 37.4266 68.4422 37.338C68.2111 37.2495 68.0198 37.0803 67.9037 36.8617V36.8338C67.0109 35.132 66.0972 33.4057 65.1486 31.7632C64.6674 30.9436 64.1826 30.138 63.6735 29.3813C63.1806 28.6444 62.6339 27.945 62.0379 27.2888C60.7709 25.9312 59.411 24.6634 57.9681 23.4945C57.2392 22.8843 56.4929 22.2949 55.7431 21.7055C54.9933 21.1161 54.2156 20.5338 53.4868 19.9897L53.4589 19.9723C53.2388 19.8154 53.0518 19.6168 52.9085 19.3876C52.7653 19.1585 52.6685 18.9034 52.6238 18.6369C52.5791 18.3704 52.5874 18.0977 52.6481 17.8343C52.7088 17.571 52.8208 17.3222 52.9776 17.1022C53.2944 16.6577 53.7748 16.3574 54.313 16.2671C54.5795 16.2224 54.8522 16.2307 55.1156 16.2914C55.3789 16.3521 55.6277 16.464 55.8477 16.6209L55.8443 16.6314Z" fill="#FFC3BD"/>
<path d="M54.9514 15.5364C57.5739 15.5817 60.4231 19.6864 60.4231 19.6864L57.8773 24.4153C55.856 23.7379 54.079 22.4801 52.7683 20.7989C50.5608 17.8241 51.7744 15.4841 54.9514 15.5364Z" fill="white"/>
<path d="M67.5933 35.9585L68.3222 38.6054L71.1121 36.8617C71.1121 36.8617 70.16 34.5461 68.8488 34.853L67.5933 35.9585Z" fill="#FFC3BD"/>
<path d="M70.791 40.0249L71.6698 39.2542C71.8394 39.105 71.9507 38.9005 71.9839 38.6771C72.0171 38.4536 71.9701 38.2256 71.8511 38.0336L71.1223 36.8688L68.3324 38.6125L69.4448 39.9377C69.5274 40.032 69.6277 40.1091 69.7401 40.1645C69.8525 40.22 69.9747 40.2527 70.0998 40.2608C70.2249 40.2689 70.3503 40.2522 70.4689 40.2117C70.5875 40.1713 70.697 40.1078 70.791 40.0249Z" fill="#FFC3BD"/>
<path d="M126.827 30.6124C127.828 27.5017 135.089 32.792 135.584 34.7659C136.079 36.7398 130.032 38.2533 133.969 41.1025C137.907 43.9517 130.51 42.9439 131.989 44.8724C133.467 46.8009 134.221 50.6928 127.106 47.9901C119.992 45.2874 114.726 42.4103 119.26 40.956C123.793 39.5018 116.355 37.1199 120.975 35.2507C125.596 33.3814 119.995 31.2506 126.827 30.6124Z" fill="white"/>
<path d="M132.431 51.7878C132.829 53.1584 133.293 54.5952 133.781 55.9727C134.032 56.6702 134.293 57.3258 134.572 57.9745C134.722 58.2918 134.865 58.6162 135.022 58.9161C135.095 59.073 135.176 59.2195 135.256 59.359L135.378 59.5752L135.409 59.631V59.6589C135.325 59.5875 135.224 59.5373 135.116 59.5124C135.04 59.4818 134.955 59.4818 134.879 59.5124C135.057 59.4796 135.222 59.4015 135.361 59.2857C135.897 58.8959 136.391 58.4518 136.836 57.9605C137.812 56.9143 138.768 55.7356 139.671 54.5638L139.692 54.5394C139.822 54.3724 140.008 54.2585 140.216 54.219C140.424 54.1796 140.639 54.2174 140.82 54.3252C141.002 54.4331 141.139 54.6037 141.204 54.8049C141.269 55.0062 141.258 55.2242 141.174 55.4182C140.543 56.886 139.769 58.2878 138.862 59.6031C138.374 60.3245 137.802 60.9848 137.157 61.57C136.721 61.9643 136.206 62.2614 135.647 62.4418C135.201 62.5787 134.727 62.5895 134.276 62.4732C133.8 62.34 133.373 62.0724 133.045 61.7025C132.968 61.6223 132.916 61.5491 132.853 61.4723L132.79 61.3817L132.742 61.3154L132.557 61.0469C132.431 60.8655 132.316 60.6981 132.208 60.5063C131.974 60.1576 131.782 59.7844 131.584 59.4183C131.207 58.6894 130.865 57.957 130.562 57.2142C129.952 55.7407 129.447 54.2257 129.052 52.6806C128.946 52.2402 129.016 51.776 129.246 51.3862C129.477 50.9964 129.85 50.7115 130.287 50.5919C130.724 50.4723 131.19 50.5273 131.587 50.7453C131.984 50.9633 132.28 51.3272 132.414 51.7599L132.431 51.7878Z" fill="#FF8B7B"/>
<path d="M140.598 56.1436L142.143 55.2299L140.584 52.9352C140.584 52.9352 139.336 54.2535 139.325 55.5752L140.598 56.1436Z" fill="#FF8B7B"/>
<path d="M142.74 52.6492L142.67 52.5794C142.493 52.3691 142.241 52.2353 141.968 52.2061C141.694 52.1768 141.42 52.2544 141.202 52.4225L140.585 52.9352L142.144 55.2299L142.806 54.6056C143.048 54.3334 143.177 53.9784 143.164 53.6142C143.152 53.25 143 52.9044 142.74 52.6492Z" fill="#FF8B7B"/>
<path d="M127.42 49.6257C127.462 50.5394 127.992 52.3284 128.435 53.6676C128.756 54.6371 129.024 55.3659 129.024 55.3659L129.558 55.209L133.98 53.8942C133.931 51.5403 133.704 48.9596 131.336 47.4949C129.837 46.5742 127.336 47.9936 127.42 49.6257Z" fill="#263238"/>
<path opacity="0.3" d="M128.424 53.6675C128.745 54.637 129.013 55.3659 129.013 55.3659L129.547 55.2089C129.585 54.2883 129.575 52.827 129.163 52.1121C128.807 52.5711 128.555 53.1017 128.424 53.6675Z" fill="black"/>
<path d="M107.496 116.594L110.261 116.859L111.757 110.407L108.992 110.142L107.496 116.594Z" fill="#FF8B7B"/>
<path d="M87.855 108.96L90.1602 110.585L94.4846 105.713L92.1794 104.092L87.855 108.96Z" fill="#FF8B7B"/>
<path d="M90.5962 110.334L88.8908 107.663C88.8631 107.617 88.8192 107.583 88.7675 107.567C88.7159 107.552 88.6604 107.556 88.6118 107.579L86.359 108.66C86.3033 108.691 86.2546 108.733 86.2157 108.784C86.1769 108.834 86.1487 108.892 86.1331 108.954C86.1174 109.015 86.1145 109.08 86.1246 109.143C86.1346 109.206 86.1574 109.266 86.1916 109.319C86.8019 110.244 87.1436 110.655 87.8899 111.83C88.3538 112.556 89.2849 114.223 89.9057 115.224C90.5264 116.224 91.5378 115.628 91.3599 115.154C90.5613 113.023 90.5962 111.802 90.7078 110.829C90.7284 110.656 90.689 110.482 90.5962 110.334Z" fill="#263238"/>
<path d="M110.642 116.022H107.311C107.252 116.023 107.195 116.044 107.149 116.08C107.102 116.117 107.069 116.167 107.053 116.224L106.405 118.857C106.389 118.921 106.388 118.987 106.403 119.051C106.417 119.114 106.445 119.174 106.486 119.225C106.527 119.276 106.579 119.316 106.638 119.344C106.697 119.372 106.762 119.385 106.827 119.384C107.998 119.384 108.57 119.304 110.021 119.304C110.921 119.304 113.25 119.391 114.495 119.391C115.74 119.391 115.932 118.16 115.427 118.048C113.153 117.55 111.835 116.859 111.12 116.203C110.989 116.085 110.818 116.02 110.642 116.022Z" fill="#263238"/>
<path opacity="0.2" d="M111.755 110.407L110.921 114.013L108.159 113.734L108.989 110.142L111.755 110.407Z" fill="black"/>
<path opacity="0.2" d="M92.1759 104.092L94.4846 105.713L92.2526 108.224L89.9474 106.599L92.1759 104.092Z" fill="black"/>
<path d="M113.512 57.8455L123.796 62.7802C132.919 48.9108 131.957 47.9727 131.957 47.9727C131.957 47.9727 130.366 46.7416 128.685 45.664C128.431 45.5036 128.173 45.3432 127.918 45.1897C126.418 44.3281 124.859 43.5741 123.252 42.9334C123.015 42.8323 122.778 42.7381 122.555 42.6439C121.273 42.1573 119.965 41.7474 118.635 41.4164C118.234 43.46 117.871 45.1828 117.522 46.6754C117.069 48.6213 116.64 50.1628 116.211 51.5019C115.482 53.6851 114.579 55.8064 113.512 57.8455Z" fill="#263238"/>
<path opacity="0.3" d="M116.201 51.5159C117.397 50.1767 118.778 46.8846 118.674 45.5629L117.512 46.6893C117.059 48.6353 116.63 50.1872 116.201 51.5159Z" fill="black"/>
<path d="M125.418 40.0528C124.912 41.3641 124.19 42.6265 123.249 42.9473C123.249 42.9473 122.129 45.6954 125.721 48.7748C129.505 46.8358 127.918 45.1897 127.918 45.1897C126.422 43.9796 126.893 42.8392 128.183 41.1792L127.071 40.0214C127 39.8598 126.882 39.7229 126.733 39.6278C126.584 39.5328 126.411 39.4839 126.234 39.4872C126.057 39.4906 125.886 39.5461 125.74 39.6467C125.595 39.7473 125.483 39.8886 125.418 40.0528Z" fill="#FF8B7B"/>
<path opacity="0.2" d="M127.071 40.0213C127.005 39.8671 126.897 39.7344 126.759 39.6384C126.622 39.5423 126.46 39.4868 126.293 39.4781C126.125 39.4694 125.959 39.5078 125.812 39.589C125.665 39.6703 125.544 39.7911 125.463 39.9376C125.656 41.1284 126.21 42.2312 127.05 43.0972C127.303 42.3942 127.683 41.7439 128.173 41.1792L127.071 40.0213Z" fill="black"/>
<path d="M124.63 35.1634C124.508 37.9743 124.396 39.16 125.627 40.7677C127.479 43.1844 130.89 42.7939 131.835 40.0946C132.686 37.6534 132.748 33.4686 130.185 32.0283C129.628 31.7039 128.995 31.531 128.35 31.5268C127.706 31.5225 127.071 31.687 126.509 32.004C125.948 32.3209 125.479 32.7793 125.149 33.3335C124.819 33.8878 124.64 34.5186 124.63 35.1634Z" fill="#FF8B7B"/>
<path d="M132.769 35.8435C132.775 35.8447 132.781 35.8447 132.787 35.8435C132.806 35.8132 132.812 35.7767 132.805 35.7417C132.798 35.7066 132.778 35.6757 132.749 35.6552C132.58 35.5298 132.384 35.4474 132.177 35.4152C131.97 35.383 131.758 35.4019 131.559 35.4703C131.526 35.4842 131.5 35.5107 131.486 35.5441C131.472 35.5775 131.472 35.6149 131.486 35.6482C131.5 35.6815 131.526 35.7079 131.56 35.7216C131.593 35.7354 131.631 35.7353 131.664 35.7214C131.822 35.6687 131.99 35.6554 132.154 35.6827C132.318 35.7101 132.473 35.7773 132.606 35.8784C132.632 35.8938 132.664 35.8987 132.694 35.8923C132.724 35.8858 132.751 35.8685 132.769 35.8435Z" fill="#263238"/>
<path d="M126.129 32.5514C128.295 35.6691 125.407 34.6438 125.941 36.3875C126.29 37.5628 123.615 40.0458 122.889 37.9534C122.164 35.8609 122.6 32.1225 126.129 32.5514Z" fill="white"/>
<path d="M125.25 32.5304C125.641 35.4563 128.33 32.3735 129.23 33.9254C130.129 35.4773 134.579 34.574 133.289 32.7745C131.999 30.975 126.931 29.3953 125.25 32.5304Z" fill="white"/>
<path d="M123.611 37.5244C123.689 38.1113 123.992 38.6452 124.455 39.0135C125.069 39.4947 125.655 39.0135 125.714 38.2741C125.767 37.608 125.512 36.5583 124.783 36.3665C124.054 36.1747 123.521 36.8025 123.611 37.5244Z" fill="#FF8B7B"/>
<path d="M123.796 62.7801C123.796 62.7801 120.902 76.775 118.75 87.5406C117.038 96.0986 111.957 112.43 111.957 112.43L107.89 112.026C107.89 112.026 109.188 92.688 112.898 87.0489C112.832 74.4942 111.179 62.2535 115.569 58.7556L123.796 62.7801Z" fill="white"/>
<path d="M107.312 110.784L112.658 111.443L112.197 113.25L107.19 112.709L107.312 110.784Z" fill="#263238"/>
<path opacity="0.3" d="M116.588 69.6014L112.752 65.9188C112.295 70.2675 112.602 75.952 112.773 81.9852C115.148 77.8317 116.909 73.312 116.588 69.6014Z" fill="black"/>
<path d="M121.536 61.7338C121.536 61.7338 113.707 75.4323 109.679 85.6051C109.193 86.8538 108.596 88.0571 107.897 89.2006C103.015 97.0891 93.707 107.366 93.707 107.366L90.7323 104.88C90.7323 104.88 99.9809 87.4987 103.681 83.558C106.206 71.5369 108.138 60.8899 113.502 57.8454L121.536 61.7338Z" fill="white"/>
<path d="M93.6128 108.305L89.7557 105.319L90.6764 103.607L94.9101 107.087L93.6128 108.305Z" fill="#263238"/>
<path d="M113.631 57.1584L112.752 57.8559C112.686 57.9082 112.734 58.0232 112.856 58.0825L123.64 63.2613C123.734 63.3032 123.828 63.2962 123.863 63.2404L124.368 62.3511C124.407 62.2918 124.347 62.1977 124.246 62.1488L113.819 57.1619C113.79 57.1466 113.758 57.1383 113.725 57.1377C113.693 57.1371 113.66 57.1442 113.631 57.1584Z" fill="white"/>
<path opacity="0.2" d="M113.631 57.1584L112.752 57.8559C112.686 57.9082 112.734 58.0232 112.856 58.0825L123.64 63.2613C123.734 63.3032 123.828 63.2962 123.863 63.2404L124.368 62.3511C124.407 62.2918 124.347 62.1977 124.246 62.1488L113.819 57.1619C113.79 57.1466 113.758 57.1383 113.725 57.1377C113.693 57.1371 113.66 57.1442 113.631 57.1584Z" fill="black"/>
<path d="M114.516 59.0102L114.237 58.8742C114.181 58.8498 114.15 58.801 114.171 58.7661L114.84 57.6187C114.861 57.5839 114.924 57.5804 114.976 57.6187L115.255 57.7547C115.311 57.7791 115.343 57.8315 115.322 57.8628L114.652 59.0102C114.633 59.0264 114.609 59.0353 114.584 59.0353C114.559 59.0353 114.535 59.0264 114.516 59.0102Z" fill="white"/>
<path d="M122.809 62.9998L122.53 62.8637C122.474 62.8393 122.446 62.787 122.467 62.7556L123.137 61.6083C123.158 61.5734 123.217 61.5699 123.273 61.6083L123.552 61.7443C123.608 61.7687 123.636 61.8175 123.618 61.8524L122.945 62.9998C122.928 63.0207 122.865 63.0242 122.809 62.9998Z" fill="white"/>
<path d="M118.656 61.005L118.377 60.869C118.325 60.8446 118.293 60.7958 118.314 60.7609L118.984 59.6135C119.005 59.5787 119.064 59.5752 119.12 59.6135L119.399 59.7495C119.455 59.774 119.486 59.8228 119.465 59.8577L118.795 61.005C118.775 61.0259 118.701 61.0294 118.656 61.005Z" fill="white"/>
<path d="M128.577 36.4747C128.553 36.7014 128.651 36.9002 128.797 36.9211C128.944 36.942 129.08 36.7711 129.104 36.5444C129.128 36.3178 129.027 36.1155 128.884 36.098C128.741 36.0806 128.602 36.248 128.577 36.4747Z" fill="#263238"/>
<path d="M131.096 36.799C131.071 37.0257 131.169 37.2245 131.315 37.2454C131.462 37.2663 131.598 37.0955 131.622 36.8653C131.647 36.6351 131.549 36.4398 131.402 36.4224C131.256 36.405 131.12 36.5723 131.096 36.799Z" fill="#263238"/>
<path d="M131.336 36.4259L131.887 36.3387C131.887 36.3387 131.57 36.7293 131.336 36.4259Z" fill="#263238"/>
<path d="M128.728 38.2427C128.618 38.2425 128.509 38.2285 128.403 38.2009C128.193 38.1449 127.997 38.0417 127.832 37.8991C127.667 37.7565 127.537 37.5783 127.451 37.3778C127.258 36.9315 127.217 36.4339 127.336 35.9622C127.454 35.4905 127.725 35.0711 128.107 34.7693C128.275 34.63 128.475 34.5323 128.688 34.4841C128.901 34.4359 129.123 34.4385 129.335 34.4918C129.547 34.5451 129.744 34.6475 129.909 34.7908C130.074 34.9341 130.204 35.1143 130.286 35.3168C130.489 35.7609 130.529 36.2617 130.402 36.7327C130.292 37.2079 130.019 37.6298 129.631 37.9254C129.372 38.1259 129.055 38.2372 128.728 38.2427ZM129.01 34.6158C128.718 34.6213 128.436 34.7203 128.204 34.8983C127.853 35.1775 127.602 35.5648 127.493 36.0004C127.383 36.436 127.42 36.8956 127.598 37.3081C127.67 37.4887 127.785 37.6495 127.931 37.7776C128.078 37.9056 128.252 37.9971 128.441 38.0447C128.63 38.0923 128.827 38.0946 129.017 38.0515C129.207 38.0083 129.384 37.9209 129.533 37.7963C129.885 37.5172 130.135 37.1299 130.245 36.6943C130.355 36.2587 130.318 35.7991 130.14 35.3865C130.064 35.2084 129.948 35.0497 129.802 34.9223C129.656 34.7949 129.483 34.7021 129.296 34.6507C129.203 34.6271 129.106 34.6154 129.01 34.6158Z" fill="white"/>
<path d="M131.779 38.6961C131.703 38.6956 131.627 38.6863 131.552 38.6682C130.855 38.4903 130.506 37.5173 130.747 36.4955C130.987 35.4737 131.793 34.7832 132.49 34.9576C133.188 35.132 133.537 36.1084 133.293 37.1337C133.184 37.5957 132.941 38.0154 132.595 38.3404C132.377 38.556 132.086 38.6828 131.779 38.6961ZM132.257 35.0936C131.695 35.0936 131.116 35.6934 130.907 36.5339C130.67 37.4685 130.977 38.3543 131.605 38.5078C131.766 38.5387 131.933 38.5284 132.09 38.4778C132.246 38.4272 132.388 38.338 132.501 38.2183C132.821 37.9145 133.045 37.5225 133.143 37.0919C133.376 36.1573 133.069 35.2715 132.445 35.118C132.384 35.1013 132.32 35.0931 132.257 35.0936Z" fill="white"/>
<path d="M130.813 36.6561C130.8 36.6568 130.787 36.6539 130.775 36.6477C130.764 36.6416 130.754 36.6324 130.747 36.6212C130.653 36.4991 130.398 36.5793 130.398 36.5793C130.388 36.5828 130.377 36.5842 130.367 36.5835C130.356 36.5828 130.346 36.5801 130.336 36.5754C130.327 36.5707 130.318 36.5641 130.311 36.5562C130.304 36.5482 130.299 36.5389 130.295 36.5288C130.292 36.5187 130.29 36.5081 130.291 36.4974C130.292 36.4868 130.295 36.4764 130.299 36.4669C130.304 36.4573 130.31 36.4488 130.318 36.4418C130.326 36.4347 130.336 36.4293 130.346 36.4259C130.346 36.4259 130.719 36.3038 130.883 36.5235C130.898 36.5391 130.906 36.5597 130.906 36.5811C130.906 36.6025 130.898 36.6231 130.883 36.6386C130.862 36.6525 130.838 36.6587 130.813 36.6561Z" fill="white"/>
<path d="M130.576 37.0989C130.719 37.6414 130.935 38.1622 131.217 38.6473C131.094 38.7161 130.958 38.7564 130.817 38.7655C130.676 38.7745 130.536 38.752 130.405 38.6997L130.576 37.0989Z" fill="#FF5652"/>
<path d="M129.491 39.4982C129.504 39.4938 129.515 39.4859 129.524 39.4755C129.533 39.465 129.538 39.4524 129.54 39.4389C129.541 39.4215 129.536 39.4043 129.525 39.3908C129.514 39.3772 129.498 39.3683 129.481 39.3657C129.199 39.334 128.929 39.2371 128.692 39.0827C128.455 38.9283 128.257 38.7207 128.114 38.4764C128.111 38.4668 128.106 38.458 128.1 38.4504C128.094 38.4429 128.085 38.4369 128.076 38.4329C128.067 38.4289 128.058 38.4269 128.048 38.4272C128.038 38.4275 128.028 38.43 128.019 38.4345C128.01 38.4391 128.003 38.4455 127.997 38.4534C127.991 38.4613 127.987 38.4705 127.985 38.4802C127.983 38.4899 127.983 38.4999 127.985 38.5095C127.988 38.5191 127.992 38.5281 127.999 38.5357C128.148 38.802 128.36 39.0284 128.615 39.1959C128.871 39.3634 129.163 39.4671 129.467 39.4982H129.491Z" fill="#263238"/>
<path d="M128.42 35.5749C128.442 35.5688 128.461 35.5567 128.476 35.5401C128.586 35.416 128.723 35.3197 128.877 35.2591C129.031 35.1985 129.197 35.1753 129.362 35.1913C129.379 35.1949 129.397 35.1949 129.414 35.1915C129.431 35.1882 129.447 35.1814 129.461 35.1716C129.475 35.1618 129.488 35.1493 129.497 35.1347C129.506 35.1201 129.513 35.1038 129.515 35.0867C129.522 35.0512 129.514 35.0146 129.494 34.9847C129.474 34.9548 129.443 34.9339 129.407 34.9263C129.201 34.8981 128.99 34.9212 128.794 34.9935C128.598 35.0659 128.423 35.1853 128.284 35.3413C128.264 35.363 128.252 35.3907 128.249 35.42C128.246 35.4494 128.253 35.4789 128.268 35.5041C128.284 35.5292 128.307 35.5488 128.334 35.5597C128.362 35.5706 128.392 35.5723 128.42 35.5645V35.5749Z" fill="#263238"/>
<path d="M91.0774 111.781H91.1192C91.1815 111.796 91.2463 111.793 91.3074 111.775C91.3685 111.757 91.4238 111.723 91.468 111.677C91.499 111.651 91.523 111.617 91.5376 111.579C91.5522 111.542 91.5571 111.501 91.5517 111.461C91.4959 111.112 90.5822 110.686 90.4776 110.638C90.4654 110.632 90.4519 110.631 90.4388 110.633C90.4257 110.636 90.4137 110.642 90.4043 110.651C90.3949 110.661 90.3885 110.673 90.3861 110.686C90.3836 110.699 90.3851 110.713 90.3904 110.725C90.5124 111.077 90.76 111.652 91.0774 111.781ZM90.5717 110.843C90.9205 111.021 91.3948 111.307 91.4261 111.495C91.4282 111.513 91.4255 111.532 91.4181 111.548C91.4107 111.565 91.3991 111.579 91.3843 111.59C91.3558 111.621 91.3195 111.644 91.2791 111.657C91.2386 111.67 91.1955 111.672 91.1541 111.663C90.9693 111.614 90.7566 111.314 90.5717 110.843Z" fill="white"/>
<path d="M90.4917 110.805C90.8055 110.931 91.4856 110.997 91.6983 110.784C91.7347 110.745 91.7575 110.696 91.7632 110.643C91.7689 110.59 91.7571 110.537 91.7297 110.491C91.708 110.445 91.6764 110.404 91.6372 110.372C91.5981 110.339 91.5523 110.316 91.503 110.303C91.1159 110.191 90.4568 110.652 90.4184 110.652C90.4091 110.658 90.4015 110.667 90.3967 110.678C90.3918 110.688 90.3897 110.699 90.3905 110.711C90.3906 110.722 90.3939 110.734 90.4001 110.744C90.4062 110.754 90.415 110.762 90.4254 110.767L90.4917 110.805ZM91.496 110.439C91.5475 110.46 91.5888 110.5 91.6111 110.55C91.6495 110.627 91.6286 110.666 91.6111 110.686C91.4751 110.826 90.9137 110.812 90.6068 110.704C90.8592 110.522 91.1639 110.426 91.4751 110.432L91.496 110.439Z" fill="white"/>
<path d="M112.134 116.57C112.36 116.587 112.586 116.533 112.779 116.416C112.829 116.379 112.869 116.33 112.897 116.274C112.925 116.219 112.939 116.158 112.94 116.095C112.943 116.06 112.936 116.024 112.92 115.992C112.904 115.96 112.879 115.933 112.849 115.914C112.542 115.712 111.423 116.224 111.203 116.329C111.191 116.335 111.181 116.346 111.174 116.358C111.168 116.371 111.166 116.385 111.168 116.399C111.17 116.412 111.176 116.425 111.186 116.435C111.195 116.445 111.207 116.452 111.221 116.455C111.52 116.525 111.826 116.564 112.134 116.57ZM112.647 115.998C112.693 115.993 112.739 116.003 112.779 116.026C112.779 116.026 112.807 116.05 112.807 116.088C112.808 116.131 112.798 116.174 112.778 116.212C112.759 116.25 112.731 116.283 112.696 116.308C112.504 116.458 112.047 116.476 111.447 116.367C111.825 116.183 112.23 116.058 112.647 115.998Z" fill="white"/>
<path d="M111.235 116.458H111.259C111.632 116.305 112.372 115.698 112.305 115.384C112.305 115.314 112.246 115.227 112.075 115.206C111.409 115.129 111.165 116.333 111.154 116.381C111.152 116.393 111.152 116.406 111.156 116.417C111.159 116.429 111.166 116.44 111.175 116.448C111.184 116.453 111.194 116.457 111.204 116.459C111.214 116.461 111.225 116.461 111.235 116.458ZM112.03 115.332H112.075C112.145 115.332 112.183 115.353 112.19 115.394C112.218 115.576 111.709 116.057 111.332 116.266C111.413 115.977 111.632 115.332 112.03 115.332Z" fill="white"/>
<path d="M128.815 36.1015L129.366 36.0143C129.366 36.0143 129.052 36.4049 128.815 36.1015Z" fill="#263238"/>
<path d="M118.576 46.1906C117.906 46.7904 117.24 47.3135 116.553 47.8541C115.866 48.3946 115.158 48.9003 114.433 49.3885C113.698 49.8918 112.938 50.3574 112.155 50.7835C111.301 51.2743 110.389 51.6552 109.439 51.9169L109.355 51.9378C109.149 51.9884 108.934 51.9884 108.727 51.9378C108.02 51.7577 107.338 51.4857 106.701 51.1287C106.126 50.8154 105.572 50.466 105.041 50.0825C104.525 49.7035 104.031 49.3048 103.559 48.8863C103.088 48.4574 102.642 48.0389 102.202 47.5542C102.068 47.4024 101.99 47.2083 101.983 47.0054C101.976 46.8024 102.04 46.6034 102.164 46.4426C102.288 46.2818 102.464 46.1694 102.662 46.1246C102.86 46.0799 103.068 46.1057 103.249 46.1976H103.28C103.786 46.4696 104.309 46.7695 104.828 47.0345C105.348 47.2996 105.875 47.5716 106.384 47.8157C106.893 48.0598 107.43 48.283 107.915 48.4678C108.364 48.6436 108.832 48.7676 109.31 48.8375L108.612 48.8654C109.268 48.6073 109.896 48.2824 110.485 47.8959C111.141 47.4809 111.8 47.0206 112.452 46.5463C113.104 46.072 113.753 45.5698 114.398 45.0642C115.043 44.5585 115.688 44.0179 116.302 43.5332H116.319C116.673 43.2504 117.123 43.1164 117.574 43.1597C118.025 43.203 118.442 43.42 118.735 43.765C119.029 44.1099 119.177 44.5556 119.148 45.0077C119.119 45.4598 118.915 45.8828 118.579 46.1871L118.576 46.1906Z" fill="#FF8B7B"/>
<path d="M103.743 46.9926L102.823 44.9002L101.013 46.4207C101.013 46.4207 102.007 47.8819 103.126 48.1295L103.743 46.9926Z" fill="#FF8B7B"/>
<path d="M101.99 43.4599L101.32 44.0807C101.13 44.2577 100.987 44.4799 100.904 44.7267C100.822 44.9735 100.803 45.237 100.849 45.4931L101.013 46.4277L102.823 44.8897L101.99 43.4599Z" fill="#FF8B7B"/>
<path d="M118.621 41.4303C117.244 41.1722 114.108 44.2655 114.108 44.2655L116.379 49.0398C116.379 49.0398 120.424 46.5986 120.407 44.8549C120.393 43.2821 120.382 41.7616 118.621 41.4303Z" fill="#263238"/>
<path d="M100.7 40.0353C100.311 40.0356 99.9259 39.959 99.5668 39.81C99.2077 39.661 98.8816 39.4425 98.6073 39.167C94.7803 35.3418 89.5908 33.193 84.1799 33.193C78.769 33.193 73.5796 35.3418 69.7526 39.167C69.1875 39.6692 68.4519 39.9365 67.6962 39.9143C66.9405 39.892 66.2219 39.5819 65.6874 39.0473C65.1528 38.5128 64.8427 37.7941 64.8204 37.0385C64.7982 36.2828 65.0655 35.5472 65.5677 34.9821C70.5065 30.0453 77.2038 27.272 84.1869 27.272C91.17 27.272 97.8673 30.0453 102.806 34.9821C103.22 35.3965 103.503 35.9243 103.617 36.499C103.732 37.0736 103.673 37.6693 103.449 38.2108C103.225 38.7522 102.846 39.2152 102.359 39.5412C101.872 39.8672 101.3 40.0416 100.714 40.0423L100.7 40.0353Z" fill="white"/>
<path opacity="0.4" d="M100.7 40.0353C100.311 40.0356 99.9259 39.959 99.5668 39.81C99.2077 39.661 98.8816 39.4425 98.6073 39.167C94.7803 35.3418 89.5908 33.193 84.1799 33.193C78.769 33.193 73.5796 35.3418 69.7526 39.167C69.1875 39.6692 68.4519 39.9365 67.6962 39.9143C66.9405 39.892 66.2219 39.5819 65.6874 39.0473C65.1528 38.5128 64.8427 37.7941 64.8204 37.0385C64.7982 36.2828 65.0655 35.5472 65.5677 34.9821C70.5065 30.0453 77.2038 27.272 84.1869 27.272C91.17 27.272 97.8673 30.0453 102.806 34.9821C103.22 35.3965 103.503 35.9243 103.617 36.499C103.732 37.0736 103.673 37.6693 103.449 38.2108C103.225 38.7522 102.846 39.2152 102.359 39.5412C101.872 39.8672 101.3 40.0416 100.714 40.0423L100.7 40.0353Z" fill="white"/>
<path d="M102.795 72.2275C103.297 71.6624 103.565 70.9268 103.542 70.1712C103.52 69.4155 103.21 68.6969 102.675 68.1623C102.141 67.6278 101.422 67.3176 100.667 67.2954C99.9109 67.2731 99.1753 67.5405 98.6102 68.0426C94.7687 71.7955 89.6025 73.8826 84.2321 73.8513C78.8618 73.82 73.7203 71.6727 69.9229 67.8752C66.1254 64.0778 63.9782 58.9363 63.9468 53.566C63.9155 48.1956 66.0026 43.0295 69.7555 39.1879C70.2577 38.6229 70.525 37.8872 70.5027 37.1316C70.4805 36.3759 70.1704 35.6573 69.6358 35.1227C69.1012 34.5882 68.3826 34.278 67.627 34.2558C66.8713 34.2336 66.1357 34.5009 65.5706 35.0031C62.0663 38.5063 59.6218 42.9273 58.5182 47.7579C57.4145 52.5884 57.6966 57.6324 59.3318 62.3098C60.9671 66.9873 63.8892 71.1082 67.7622 74.1989C71.6352 77.2896 76.3018 79.2245 81.2255 79.7812V89.9505H75.2237C74.4375 89.9505 73.6835 90.2628 73.1276 90.8187C72.5717 91.3746 72.2594 92.1286 72.2594 92.9148C72.2594 93.7009 72.5717 94.4549 73.1276 95.0108C73.6835 95.5667 74.4375 95.879 75.2237 95.879H81.2116V101.836C81.2116 102.622 81.5239 103.376 82.0798 103.932C82.6357 104.487 83.3897 104.8 84.1758 104.8C84.962 104.8 85.716 104.487 86.2719 103.932C86.8278 103.376 87.1401 102.622 87.1401 101.836V95.8511H93.128C93.9142 95.8511 94.6681 95.5388 95.2241 94.9829C95.78 94.427 96.0923 93.673 96.0923 92.8868C96.0923 92.1007 95.78 91.3467 95.2241 90.7908C94.6681 90.2349 93.9142 89.9226 93.128 89.9226H87.1401V79.7533C93.0634 79.1013 98.5864 76.4462 102.795 72.2275Z" fill="white"/>
<path d="M122.583 18.3961C122.585 18.3728 122.585 18.3495 122.583 18.3263C122.583 18.2391 122.583 18.1484 122.583 18.0613C122.583 17.9741 122.583 17.9915 122.583 17.9566C122.583 17.9218 122.583 17.7892 122.559 17.709C122.56 17.68 122.56 17.6509 122.559 17.6218C122.52 17.3988 122.456 17.1811 122.367 16.9732L122.335 16.9104C122.3 16.8275 122.26 16.7471 122.213 16.6698C122.213 16.6419 122.182 16.6175 122.164 16.5896C122.121 16.5158 122.074 16.4447 122.021 16.3768L121.966 16.3036C121.897 16.212 121.821 16.1257 121.739 16.0455C121.659 15.9644 121.574 15.8887 121.484 15.8189L121.408 15.7631C121.338 15.7108 121.268 15.6654 121.198 15.6201L121.111 15.5678C121.037 15.5253 120.96 15.4868 120.881 15.4527L120.808 15.4178C120.602 15.3283 120.387 15.2639 120.166 15.226H120.069C119.992 15.226 119.912 15.2051 119.831 15.2016H119.72C119.636 15.2016 119.549 15.2016 119.465 15.2016H119.385C119.268 15.2104 119.151 15.2268 119.036 15.2504L101.512 18.9366C100.743 19.0985 100.069 19.5594 99.6392 20.218C99.2095 20.8766 99.0591 21.6789 99.2209 22.4484C99.3828 23.2179 99.8437 23.8916 100.502 24.3213C101.161 24.751 101.963 24.9015 102.733 24.7396L110.499 23.104L98.6176 34.9856C98.4754 35.1281 98.348 35.2847 98.2375 35.4529C98.1821 35.5333 98.1321 35.6172 98.0875 35.704C97.9972 35.8739 97.9248 36.0527 97.8713 36.2376C97.8171 36.4209 97.7797 36.6089 97.7597 36.799C97.7597 36.8944 97.7597 36.9885 97.7597 37.0815C97.7597 37.1792 97.7597 37.2733 97.7597 37.3675C97.8264 38.0522 98.1298 38.6923 98.6176 39.1774C102.437 43.0076 104.581 48.1959 104.581 53.6048C104.581 59.0137 102.437 64.202 98.6176 68.0321C98.3156 68.3005 98.0717 68.6277 97.9008 68.9937C97.7299 69.3598 97.6356 69.7569 97.6237 70.1607C97.6118 70.5644 97.6826 70.9664 97.8317 71.3418C97.9808 71.7173 98.205 72.0583 98.4907 72.3439C98.7763 72.6296 99.1173 72.8538 99.4928 73.0029C99.8682 73.152 100.27 73.2228 100.674 73.2109C101.078 73.199 101.475 73.1047 101.841 72.9338C102.207 72.7629 102.534 72.519 102.802 72.217C107.369 67.6375 110.093 61.5395 110.457 55.0826C110.821 48.6257 108.799 42.2603 104.776 37.1966L114.684 27.2889L113.048 35.0553C112.888 35.8247 113.039 36.6262 113.469 37.2844C113.898 37.9425 114.571 38.4038 115.34 38.5671C115.542 38.6085 115.747 38.6296 115.953 38.6299C116.633 38.6293 117.292 38.3951 117.82 37.9665C118.347 37.538 118.712 36.9411 118.851 36.2759L122.538 18.7483C122.56 18.6319 122.575 18.5143 122.583 18.3961Z" fill="white"/>
<path opacity="0.4" d="M122.583 18.3961C122.585 18.3728 122.585 18.3495 122.583 18.3263C122.583 18.2391 122.583 18.1484 122.583 18.0613C122.583 17.9741 122.583 17.9915 122.583 17.9566C122.583 17.9218 122.583 17.7892 122.559 17.709C122.56 17.68 122.56 17.6509 122.559 17.6218C122.52 17.3988 122.456 17.1811 122.367 16.9732L122.335 16.9104C122.3 16.8275 122.26 16.7471 122.213 16.6698C122.213 16.6419 122.182 16.6175 122.164 16.5896C122.121 16.5158 122.074 16.4447 122.021 16.3768L121.966 16.3036C121.897 16.212 121.821 16.1257 121.739 16.0455C121.659 15.9644 121.574 15.8887 121.484 15.8189L121.408 15.7631C121.338 15.7108 121.268 15.6654 121.198 15.6201L121.111 15.5678C121.037 15.5253 120.96 15.4868 120.881 15.4527L120.808 15.4178C120.602 15.3283 120.387 15.2639 120.166 15.226H120.069C119.992 15.226 119.912 15.2051 119.831 15.2016H119.72C119.636 15.2016 119.549 15.2016 119.465 15.2016H119.385C119.268 15.2104 119.151 15.2268 119.036 15.2504L101.512 18.9366C100.743 19.0985 100.069 19.5594 99.6392 20.218C99.2095 20.8766 99.0591 21.6789 99.2209 22.4484C99.3828 23.2179 99.8437 23.8916 100.502 24.3213C101.161 24.751 101.963 24.9015 102.733 24.7396L110.499 23.104L98.6176 34.9856C98.4754 35.1281 98.348 35.2847 98.2375 35.4529C98.1821 35.5333 98.1321 35.6172 98.0875 35.704C97.9972 35.8739 97.9248 36.0527 97.8713 36.2376C97.8171 36.4209 97.7797 36.6089 97.7597 36.799C97.7597 36.8944 97.7597 36.9885 97.7597 37.0815C97.7597 37.1792 97.7597 37.2733 97.7597 37.3675C97.8264 38.0522 98.1298 38.6923 98.6176 39.1774C102.437 43.0076 104.581 48.1959 104.581 53.6048C104.581 59.0137 102.437 64.202 98.6176 68.0321C98.3156 68.3005 98.0717 68.6277 97.9008 68.9937C97.7299 69.3598 97.6356 69.7569 97.6237 70.1607C97.6118 70.5644 97.6826 70.9664 97.8317 71.3418C97.9808 71.7173 98.205 72.0583 98.4907 72.3439C98.7763 72.6296 99.1173 72.8538 99.4928 73.0029C99.8682 73.152 100.27 73.2228 100.674 73.2109C101.078 73.199 101.475 73.1047 101.841 72.9338C102.207 72.7629 102.534 72.519 102.802 72.217C107.369 67.6375 110.093 61.5395 110.457 55.0826C110.821 48.6257 108.799 42.2603 104.776 37.1966L114.684 27.2889L113.048 35.0553C112.888 35.8247 113.039 36.6262 113.469 37.2844C113.898 37.9425 114.571 38.4038 115.34 38.5671C115.542 38.6085 115.747 38.6296 115.953 38.6299C116.633 38.6293 117.292 38.3951 117.82 37.9665C118.347 37.538 118.712 36.9411 118.851 36.2759L122.538 18.7483C122.56 18.6319 122.575 18.5143 122.583 18.3961Z" fill="white"/>
</svg>
