<svg width="136" height="126" viewBox="0 0 136 126" fill="none" xmlns="http://www.w3.org/2000/svg">
<path d="M19.8677 116.53C46.3599 129.155 89.3103 129.159 115.803 116.53C142.295 103.901 142.291 83.4326 115.803 70.8074C89.3142 58.1821 46.3599 58.1821 19.8677 70.8074C-6.6245 83.4326 -6.62065 103.904 19.8677 116.53Z" fill="#F5F5F5" fill-opacity="0.7"/>
<path d="M115.711 107.199C120.59 107.199 124.545 105.314 124.545 102.99C124.545 100.665 120.59 98.7798 115.711 98.7798C110.831 98.7798 106.876 100.665 106.876 102.99C106.876 105.314 110.831 107.199 115.711 107.199Z" fill="#EBEBEB"/>
<path d="M17.8571 103.593L20.9826 101.79C22.7277 100.366 24.0559 98.497 24.8271 96.3808C25.792 93.7204 25.6575 91.6982 24.9655 90.6833C24.1158 89.4338 21.913 89.653 21.8245 92.2826C21.64 97.4649 20.1291 101.059 17.8571 103.593Z" fill="white"/>
<path opacity="0.2" d="M17.8571 103.593L20.9826 101.79C22.7277 100.366 24.0559 98.497 24.8271 96.3808C25.792 93.7204 25.6575 91.6982 24.9655 90.6833C24.1158 89.4338 21.913 89.653 21.8245 92.2826C21.64 97.4649 20.1291 101.059 17.8571 103.593Z" fill="black"/>
<path d="M17.8569 103.785C17.8162 103.785 17.7767 103.771 17.7441 103.747C17.7115 103.723 17.6875 103.689 17.6755 103.65C17.6635 103.611 17.6642 103.569 17.6775 103.531C17.6907 103.492 17.7158 103.459 17.7492 103.435C24.9768 98.4377 23.5774 91.4677 23.562 91.3985C23.5567 91.3732 23.5565 91.3472 23.5612 91.3218C23.566 91.2965 23.5757 91.2723 23.5898 91.2507C23.6039 91.2291 23.6221 91.2105 23.6434 91.1959C23.6647 91.1814 23.6887 91.1712 23.7139 91.1659C23.7391 91.1606 23.7652 91.1603 23.7905 91.1651C23.8159 91.1698 23.8401 91.1795 23.8617 91.1936C23.8832 91.2077 23.9019 91.2259 23.9164 91.2472C23.931 91.2685 23.9412 91.2925 23.9465 91.3177C23.9465 91.3908 25.4228 98.5991 17.9799 103.751C17.9438 103.775 17.9005 103.788 17.8569 103.785Z" fill="white"/>
<path d="M11.5941 107.211C11.5941 107.211 10.5062 106.326 10.7676 105.127C11.029 103.927 11.7325 103.066 10.5292 101.521C9.32591 99.9754 8.99144 97.9147 10.4293 96.7998C11.5249 95.9348 13.2357 97.1574 13.8508 94.8776C14.3045 93.2091 14.1507 89.5145 16.2767 88.2843C18.4027 87.0541 19.7367 88.9071 19.4023 91.4137C19.1101 93.655 18.6949 95.8118 19.0178 96.4115C19.6406 97.5649 20.7055 97.4072 20.6555 99.514C20.6133 101.475 18.7564 103.097 18.7564 103.097L11.5941 107.211Z" fill="white"/>
<path d="M15.1659 105.331C15.1189 105.33 15.0736 105.313 15.0383 105.282C15.0031 105.251 14.9801 105.208 14.9737 105.162C14.4239 100.606 15.7426 92.74 16.819 90.4026C16.8281 90.3767 16.8426 90.353 16.8616 90.3331C16.8806 90.3133 16.9036 90.2978 16.9291 90.2876C16.9546 90.2774 16.982 90.2727 17.0094 90.274C17.0368 90.2753 17.0637 90.2824 17.0881 90.295C17.1111 90.3053 17.1317 90.3201 17.1488 90.3386C17.166 90.357 17.1792 90.3787 17.1878 90.4023C17.1964 90.426 17.2002 90.4511 17.1989 90.4763C17.1976 90.5014 17.1913 90.526 17.1804 90.5487C16.1155 92.8554 14.8429 100.744 15.3696 105.1C15.375 105.15 15.3603 105.201 15.3286 105.241C15.2969 105.28 15.2509 105.306 15.2005 105.311L15.1659 105.331Z" fill="white"/>
<path d="M15.0619 101.782C15.0325 101.784 15.0032 101.777 14.9773 101.763C13.6433 101.113 12.7975 98.7951 12.7629 98.6875C12.7535 98.6636 12.7489 98.638 12.7496 98.6123C12.7502 98.5866 12.756 98.5613 12.7665 98.5379C12.7771 98.5145 12.7923 98.4934 12.8112 98.476C12.83 98.4585 12.8522 98.445 12.8764 98.4363C12.9005 98.4275 12.9262 98.4237 12.9519 98.4251C12.9775 98.4264 13.0027 98.4329 13.0258 98.4441C13.0489 98.4554 13.0695 98.4711 13.0864 98.4905C13.1034 98.5098 13.1162 98.5324 13.1243 98.5568C13.1243 98.5798 13.9508 100.825 15.1465 101.406C15.1857 101.425 15.2173 101.456 15.2361 101.496C15.2549 101.535 15.2598 101.579 15.2499 101.622C15.2401 101.664 15.2161 101.702 15.182 101.729C15.1478 101.756 15.1055 101.771 15.0619 101.771V101.782Z" fill="white"/>
<path d="M15.039 103.32C15.0004 103.32 14.9628 103.308 14.9312 103.286C14.8996 103.264 14.8755 103.233 14.8621 103.197C14.843 103.15 14.8432 103.098 14.8626 103.051C14.882 103.004 14.9192 102.967 14.9659 102.947C17.2111 102.048 18.6105 99.3756 18.6259 99.3449C18.6493 99.2995 18.6898 99.2653 18.7385 99.2498C18.7872 99.2343 18.84 99.2388 18.8854 99.2622C18.9307 99.2857 18.9649 99.3262 18.9804 99.3749C18.9959 99.4235 18.9915 99.4764 18.968 99.5217C18.9065 99.6371 17.4879 102.351 15.1235 103.305C15.0972 103.317 15.068 103.322 15.039 103.32Z" fill="white"/>
<path d="M93.5157 82.6368C93.5157 82.6368 91.8356 79.9149 91.6703 76.9586C91.505 74.0022 92.1547 72.7719 93.0466 72.4182C93.9385 72.0645 94.0077 73.1525 94.4652 73.7946C94.9227 74.4366 95.8569 74.0714 96.2029 72.0684C96.5489 70.0654 97.8099 66.6861 100.432 66.0287C103.315 65.3137 101.77 68.6968 101.043 70.0154C100.317 71.3341 99.7552 73.1333 100.232 73.6216C100.709 74.1098 101.451 73.2064 102.154 74.0445C103.011 75.0555 100.347 78.6963 98.8172 79.5766L93.5157 82.6368Z" fill="white"/>
<path d="M95.8184 81.4951C95.7931 81.4941 95.7683 81.4881 95.7454 81.4775C95.7224 81.467 95.7018 81.452 95.6846 81.4334C95.6675 81.4148 95.6542 81.3931 95.6455 81.3693C95.6368 81.3456 95.6328 81.3204 95.6338 81.2952C95.8942 76.5394 97.3772 71.9313 99.9396 67.9164C99.9542 67.8955 99.9728 67.8778 99.9943 67.8642C100.016 67.8507 100.04 67.8417 100.065 67.8377C100.09 67.8338 100.116 67.835 100.141 67.8412C100.165 67.8475 100.189 67.8587 100.209 67.8741C100.249 67.9041 100.276 67.9486 100.284 67.9982C100.292 68.0477 100.28 68.0984 100.251 68.1394C97.7344 72.0955 96.2781 76.6327 96.0221 81.3144C96.0207 81.3397 96.0142 81.3644 96.0032 81.3871C95.9921 81.4099 95.9767 81.4303 95.9578 81.447C95.9388 81.4638 95.9168 81.4767 95.8929 81.485C95.8689 81.4932 95.8436 81.4966 95.8184 81.4951Z" fill="white"/>
<path d="M96.0382 79.223C96.006 79.2227 95.9744 79.2148 95.9459 79.2C94.8695 78.6041 94.2736 76.8356 94.2505 76.7626C94.242 76.7386 94.2384 76.7132 94.2398 76.6878C94.2412 76.6624 94.2476 76.6375 94.2587 76.6147C94.2698 76.5918 94.2853 76.5713 94.3044 76.5545C94.3234 76.5376 94.3456 76.5247 94.3697 76.5165C94.4181 76.5008 94.4708 76.5049 94.5162 76.5279C94.5617 76.551 94.5961 76.5911 94.6119 76.6395C94.6119 76.6395 95.1886 78.3426 96.1497 78.8616C96.1932 78.8874 96.2251 78.929 96.2387 78.9777C96.2524 79.0264 96.2466 79.0785 96.2227 79.1231C96.2053 79.1562 96.1785 79.1833 96.1457 79.2011C96.1128 79.2189 96.0754 79.2266 96.0382 79.223Z" fill="white"/>
<path d="M96.2264 78.0581C96.1838 78.0576 96.1425 78.043 96.1091 78.0166C96.0757 77.9901 96.0521 77.9534 96.0418 77.912C96.0355 77.8878 96.0341 77.8625 96.0377 77.8377C96.0412 77.8129 96.0497 77.7891 96.0626 77.7676C96.0755 77.7461 96.0925 77.7274 96.1127 77.7126C96.1329 77.6978 96.1559 77.6872 96.1803 77.6813C98.956 76.9778 99.9171 75.5246 99.9248 75.5092C99.9384 75.4878 99.9561 75.4692 99.9769 75.4546C99.9977 75.44 100.021 75.4296 100.046 75.4241C100.071 75.4185 100.096 75.4179 100.122 75.4223C100.147 75.4267 100.17 75.436 100.192 75.4496C100.213 75.4633 100.232 75.481 100.247 75.5018C100.261 75.5226 100.272 75.5461 100.277 75.5709C100.283 75.5957 100.283 75.6213 100.279 75.6464C100.274 75.6714 100.265 75.6953 100.252 75.7168C100.209 75.7822 99.2097 77.3084 96.2764 78.0542L96.2264 78.0581Z" fill="white"/>
<path d="M51.6887 76.6625C51.6887 76.6625 48.0019 75.7629 47.8096 68.8583C47.6059 61.4077 48.7131 52.7115 44.3496 52.008C39.9861 51.3044 37.5641 56.6213 37.6179 62.8301C37.6679 68.2662 39.8593 80.0687 51.6733 82.3831L51.6887 76.6625Z" fill="white"/>
<path opacity="0.2" d="M51.6887 76.6625C51.6887 76.6625 48.0019 75.7629 47.8096 68.8583C47.6059 61.4077 48.7131 52.7115 44.3496 52.008C39.9861 51.3044 37.5641 56.6213 37.6179 62.8301C37.6679 68.2662 39.8593 80.0687 51.6733 82.3831L51.6887 76.6625Z" fill="black"/>
<path d="M51.6885 81.6758H51.6539C48.9973 81.1914 46.8329 79.7266 45.2221 77.3277C40.4472 70.2039 41.9504 56.9021 42.4464 54.58C42.4574 54.5305 42.4873 54.4873 42.5296 54.4593C42.5719 54.4314 42.6233 54.4209 42.6732 54.4301C42.723 54.442 42.7662 54.4726 42.7941 54.5155C42.822 54.5584 42.8324 54.6104 42.8231 54.6607C42.3349 56.9674 40.8394 70.1001 45.5412 77.1124C46.2255 78.1999 47.1285 79.1332 48.1927 79.8533C49.2569 80.5733 50.4591 81.0643 51.7231 81.2952C51.7481 81.2998 51.7721 81.3093 51.7934 81.3233C51.8148 81.3372 51.8331 81.3553 51.8475 81.3764C51.8618 81.3975 51.8717 81.4212 51.8768 81.4462C51.8818 81.4712 51.8818 81.497 51.8768 81.522C51.8687 81.5658 51.8453 81.6052 51.8108 81.6334C51.7763 81.6615 51.733 81.6765 51.6885 81.6758Z" fill="white"/>
<path d="M51.6876 99.3949C47.8778 99.9101 41.692 99.9024 38.1205 97.0882C34.549 94.2741 35.2948 91.8521 36.6673 90.841C38.0398 89.8299 39.2316 88.6765 36.8711 86.4314C34.5106 84.1862 30.7199 80.5801 29.4897 75.1709C28.2595 69.7618 28.8669 66.3786 31.2812 65.2522C33.6225 64.1604 34.2415 65.8981 35.6754 69.4811C37.1094 73.0641 40.3349 69.9924 43.0953 71.1112C45.8556 72.2299 45.7441 74.4443 45.9171 76.3473C46.0901 78.2503 47.0012 78.777 48.5659 78.777C50.1306 78.777 51.6876 79.6766 51.6876 81.4682V99.3949Z" fill="white"/>
<path d="M51.6877 93.1131C51.6712 93.1167 51.6541 93.1167 51.6377 93.1131C51.4724 93.0669 47.5318 91.9213 41.792 86.6505C35.6793 81.0376 32.796 72.6182 32.7652 72.5336C32.7505 72.4852 32.755 72.4329 32.778 72.3878C32.8009 72.3426 32.8404 72.3081 32.8882 72.2914C32.9362 72.2755 32.9884 72.2791 33.0338 72.3014C33.0791 72.3237 33.1138 72.3629 33.1304 72.4106C33.1573 72.4952 36.0138 80.8223 42.0534 86.366C47.7125 91.5676 51.6992 92.7325 51.7415 92.744C51.7657 92.7511 51.7883 92.7628 51.808 92.7786C51.8277 92.7945 51.8441 92.814 51.8562 92.8361C51.8683 92.8582 51.876 92.8826 51.8788 92.9076C51.8815 92.9327 51.8793 92.9581 51.8722 92.9824C51.8597 93.0212 51.835 93.0549 51.8017 93.0785C51.7685 93.1021 51.7284 93.1142 51.6877 93.1131Z" fill="white"/>
<path d="M43.3956 87.9884C43.3569 87.989 43.3191 87.9774 43.2873 87.9553C43.2556 87.9333 43.2316 87.9018 43.2187 87.8653C41.9847 84.6975 41.704 77.9197 41.681 77.6314C41.6799 77.5806 41.6985 77.5315 41.7329 77.4942C41.7673 77.4569 41.8148 77.4344 41.8655 77.4315C41.9157 77.4322 41.9639 77.4514 42.0008 77.4855C42.0376 77.5195 42.0607 77.566 42.0654 77.616C42.0654 77.6852 42.3537 84.6168 43.5647 87.7269C43.574 87.7507 43.5785 87.776 43.5779 87.8014C43.5773 87.8269 43.5716 87.8519 43.5612 87.8752C43.5509 87.8984 43.536 87.9194 43.5174 87.9368C43.4989 87.9543 43.4771 87.9679 43.4533 87.9768C43.4347 87.9835 43.4153 87.9874 43.3956 87.9884Z" fill="white"/>
<path d="M43.3652 92.5441C43.0107 92.5468 42.6564 92.5289 42.3041 92.4902C42.2788 92.4872 42.2544 92.4792 42.2323 92.4668C42.2101 92.4543 42.1906 92.4376 42.1749 92.4176C42.1592 92.3976 42.1476 92.3747 42.1407 92.3503C42.1339 92.3258 42.1319 92.3002 42.1349 92.2749C42.138 92.2497 42.1459 92.2253 42.1584 92.2031C42.1708 92.181 42.1875 92.1615 42.2075 92.1458C42.2275 92.1301 42.2504 92.1184 42.2749 92.1116C42.2994 92.1047 42.325 92.1027 42.3502 92.1058C42.3848 92.1058 45.964 92.5133 47.6056 90.841C47.6227 90.8207 47.6438 90.8042 47.6675 90.7925C47.6913 90.7808 47.7172 90.7742 47.7437 90.773C47.7702 90.7718 47.7966 90.776 47.8213 90.7855C47.846 90.795 47.8685 90.8095 47.8874 90.8281C47.9063 90.8467 47.9211 90.869 47.9309 90.8936C47.9408 90.9182 47.9454 90.9445 47.9446 90.971C47.9437 90.9975 47.9375 91.0235 47.9261 91.0474C47.9147 91.0714 47.8985 91.0927 47.8786 91.1101C46.6906 92.3364 44.6185 92.5441 43.3652 92.5441Z" fill="white"/>
<path d="M40.596 19.7452L40.1808 17.35L38.0433 18.7571C37.848 18.3727 37.5711 18.0355 37.2321 17.7691L38.2547 15.0011L36.3325 14.5743L34.9254 17.2655C34.4163 17.3513 33.9228 17.512 33.4607 17.7422L32.8494 15.7123L30.5658 17.5077L30.7157 19.8912C30.2507 20.4122 29.829 20.9702 29.4547 21.5597L27.5709 21.4636L26.2484 24.4277L27.867 25.1197C27.698 25.7328 27.5911 26.3613 27.5479 26.9958L25.4911 28.8873L25.9024 31.2862L28.0438 29.8792C28.238 30.2632 28.5151 30.5994 28.855 30.8633L27.8516 33.6352L29.7738 34.0581L31.7883 32.0974C32.2535 32.0244 32.1382 31.1478 32.6456 30.8979L33.2569 32.9201L35.5367 31.1286L35.479 30.1906C35.9403 29.6754 37.6857 28.5413 38.0625 27.9492L38.5354 27.1803L39.8579 24.2163L39.2427 23.1014L38.5584 21.6482L40.596 19.7452ZM33.6183 27.6301C31.8652 29.0065 31.3116 29.3102 31.0156 27.4687C30.7196 25.6272 31.723 22.8284 33.476 21.4482C35.2291 20.0681 35.8981 19.972 36.2133 21.8096C36.5286 23.6473 35.3752 26.2692 33.6183 27.6301Z" fill="#E0E0E0"/>
<path d="M36.3486 14.5743L38.8437 16.0122L37.4366 18.6956L34.9415 17.2578L36.3486 14.5743Z" fill="#F5F5F5"/>
<path d="M42.6767 18.7879L40.5391 20.1949L38.0441 18.7571L40.1816 17.35L42.6767 18.7879Z" fill="#F5F5F5"/>
<path d="M42.3345 25.6426L40.716 24.9544L38.2209 23.5166L39.8395 24.2048L42.3345 25.6426Z" fill="#E0E0E0"/>
<path d="M27.8488 33.6353L30.3438 35.0693L31.3664 32.3012L28.8714 30.8634L27.8488 33.6353Z" fill="#E0E0E0"/>
<path d="M35.7292 34.358L33.238 32.9202L32.6267 30.898L35.1218 32.3358L35.7292 34.358Z" fill="#E0E0E0"/>
<path d="M43.0883 21.183L42.6769 18.7879L40.5394 20.1949C40.3426 19.8103 40.0645 19.4732 39.7243 19.2069L40.747 16.4389L38.844 16.0121L37.433 18.7033C36.924 18.7892 36.4304 18.9498 35.9683 19.18L35.3609 17.1578L33.0773 18.9532L33.2272 21.3367C32.7616 21.8613 32.3399 22.4232 31.9662 23.0168L30.0786 22.9207L28.7561 25.8847L30.3746 26.5767C30.2072 27.1915 30.1003 27.8211 30.0555 28.4567L28.0026 30.3213L28.4139 32.7202L30.5514 31.3131C30.7482 31.6966 31.0264 32.0325 31.3665 32.2973L30.3438 35.0653L32.2661 35.4921L33.6732 32.8009C34.1842 32.716 34.6794 32.554 35.1417 32.3204L35.7492 34.3426L38.0328 32.551L37.8828 30.1675C38.3479 29.6466 38.7696 29.0885 39.1438 28.499L41.0315 28.5912L42.354 25.6272L40.7124 24.939C40.8826 24.3247 40.9907 23.6949 41.0353 23.0591L43.0883 21.183ZM36.1182 29.0833C34.369 30.4597 32.6928 30.0867 32.3737 28.2491C32.0546 26.4114 33.2195 23.801 34.9726 22.4247C36.7257 21.0484 38.398 21.4252 38.7171 23.2628C39.0362 25.1005 37.8713 27.707 36.1182 29.0833Z" fill="#EBEBEB"/>
<path d="M35.3608 17.1502L32.8658 15.7124L30.5822 17.5078L33.0772 18.9456L35.3608 17.1502Z" fill="#F5F5F5"/>
<path d="M30.5822 17.5078L30.7321 19.8913L33.2271 21.3292L33.0772 18.9456L30.5822 17.5078Z" fill="#E0E0E0"/>
<path d="M31.9661 22.9976L29.4711 21.5598L27.5873 21.4675L30.0785 22.9054L31.9661 22.9976Z" fill="#F5F5F5"/>
<path d="M27.587 21.4675L26.2645 24.4278L28.7557 25.8656L30.0782 22.9054L27.587 21.4675Z" fill="#E0E0E0"/>
<path d="M30.0556 28.4336L27.5644 26.9958L25.5076 28.8873L27.9988 30.3251L30.0556 28.4336Z" fill="#F5F5F5"/>
<path d="M28.414 32.7241L25.9189 31.2863L25.5076 28.8873L27.9988 30.3252L28.414 32.7241Z" fill="#E0E0E0"/>
<path d="M38.8439 16.0122L36.3489 14.5743L38.2557 15.0011L40.7469 16.4389L38.8439 16.0122Z" fill="#F5F5F5"/>
<path d="M29.4247 8.87303V5.29383L26.576 6.57788C26.4251 5.97063 26.1645 5.39606 25.8071 4.88247L27.6024 1.26483L25.4111 0L23.1736 3.36391C22.5501 3.30943 21.9218 3.37069 21.3206 3.5446L21.0053 0.434427L17.9067 2.22595L17.5953 5.68597C16.9209 6.28352 16.3008 6.93964 15.7423 7.64664L13.5048 6.87775L11.3134 10.6761L13.1049 12.2139C12.7739 13.051 12.5166 13.9154 12.3361 14.7974L9.4873 16.8003V20.3834L12.3361 19.0993C12.4869 19.7066 12.7475 20.2811 13.1049 20.7947L11.3211 24.4162L13.5125 25.681L15.7499 22.3171C16.3735 22.3714 17.0017 22.3102 17.603 22.1364L17.9144 25.2466L21.013 23.4551L21.3283 19.9951C22.2954 19.6422 23.1521 19.0401 23.8118 18.2497L25.4188 18.8148L27.6101 15.0203L26.2646 13.867C26.5567 12.9052 26.6649 11.8971 26.5836 10.8952L29.4247 8.87303ZM19.456 17.8153C17.0801 19.1877 15.6115 18.1997 15.6115 15.4663C15.6115 12.7329 17.5761 9.35359 19.9558 7.98111C22.3355 6.60864 23.7733 7.59667 23.7733 10.3531C23.7733 13.1096 21.8357 16.4389 19.456 17.8153Z" fill="#E0E0E0"/>
<path d="M27.9017 1.43399L25.4105 0L23.173 3.36391L25.6642 4.80174L27.9017 1.43399Z" fill="#F5F5F5"/>
<path d="M31.9193 6.73165L29.4242 5.29382L26.5754 6.57787L29.0705 8.01571L31.9193 6.73165Z" fill="#F5F5F5"/>
<path d="M20.3978 26.6845L17.9066 25.2466L17.5952 22.1365L20.0864 23.5743L20.3978 26.6845Z" fill="#E0E0E0"/>
<path d="M11.3099 24.4163L13.805 25.8541L15.6004 22.2365L13.1053 20.7986L11.3099 24.4163Z" fill="#E0E0E0"/>
<path d="M31.9197 10.3301V6.75086L29.071 8.02338C28.9216 7.41558 28.6609 6.84072 28.3021 6.32797L30.0974 2.71033L27.9061 1.44165L25.6686 4.8094C25.0451 4.75304 24.4165 4.81433 23.8156 4.99009L23.5003 1.87223L20.4017 3.66375L20.0864 7.12378C19.413 7.72232 18.793 8.37836 18.2334 9.08445L15.9959 8.31556L13.8046 12.1139L15.5999 13.6517C15.2672 14.4882 15.0098 15.3528 14.831 16.2352L11.9823 18.2381V21.8212L14.831 20.5371C14.9803 21.145 15.241 21.7198 15.5999 22.2325L13.8046 25.8502L15.9959 27.115L18.2334 23.7511C18.8569 23.8056 19.4852 23.7443 20.0864 23.5704L20.4017 26.6806L23.5003 24.8891L23.8117 21.429C24.4861 20.8315 25.1062 20.1754 25.6648 19.4684L27.9022 20.2373L30.0936 16.4428L28.2982 14.905C28.6309 14.0684 28.8882 13.2038 29.0671 12.3215L31.9197 10.3301ZM21.951 19.2723C19.5713 20.6448 17.6414 19.5299 17.6414 16.7849C17.6414 14.04 19.5636 10.6991 21.951 9.32281C24.3384 7.94649 26.2568 9.06523 26.2568 11.8102C26.2568 14.5551 24.3269 17.8767 21.951 19.2531V19.2723Z" fill="#EBEBEB"/>
<path d="M15.7425 7.65439L18.2337 9.09222L15.9962 8.31179L13.505 6.87012L15.7425 7.65439Z" fill="#F0F0F0"/>
<path d="M13.5041 6.87403L11.3121 10.6736L13.8064 12.1125L15.9983 8.31291L13.5041 6.87403Z" fill="#F5F5F5"/>
<path d="M11.3099 10.6684L13.805 12.1062L15.6004 13.6517L13.1053 12.2177L11.3099 10.6684Z" fill="#E0E0E0"/>
<path d="M12.3361 14.8012L14.8311 16.239L11.9824 18.242L9.4873 16.8042L12.3361 14.8012Z" fill="#F5F5F5"/>
<path d="M9.4873 16.8041L11.9824 18.242V21.825L9.4873 20.3872V16.8041Z" fill="#E0E0E0"/>
<path d="M23.5009 1.87222L21.0059 0.434387L17.9072 2.22591L20.3984 3.66374L23.5009 1.87222Z" fill="#F5F5F5"/>
<path d="M55.4871 104.539L91.6251 83.671C91.7047 83.643 91.7736 83.5909 91.8224 83.5221C91.8712 83.4532 91.8974 83.3709 91.8974 83.2865C91.8974 83.2021 91.8712 83.1198 91.8224 83.0509C91.7736 82.9821 91.7047 82.93 91.6251 82.9021L88.2842 80.9798C88.0773 80.8757 87.8489 80.8215 87.6172 80.8215C87.3856 80.8215 87.1571 80.8757 86.9502 80.9798L50.8007 101.828C50.7211 101.856 50.6521 101.908 50.6033 101.977C50.5545 102.046 50.5283 102.128 50.5283 102.213C50.5283 102.297 50.5545 102.38 50.6033 102.448C50.6521 102.517 50.7211 102.569 50.8007 102.597L54.1531 104.519C54.3585 104.627 54.5861 104.684 54.8178 104.687C55.0494 104.691 55.2787 104.64 55.4871 104.539Z" fill="#E0E0E0"/>
<path d="M90.6333 3.10251L58.0476 21.9173C57.5632 22.2335 57.1601 22.6592 56.8708 23.1602C56.5816 23.6611 56.4145 24.2231 56.3829 24.8007V102.101C56.3829 103.162 57.1288 103.593 58.0476 103.062L90.6333 84.2477C91.1183 83.9322 91.5219 83.5066 91.8112 83.0055C92.1005 82.5045 92.2673 81.9421 92.2979 81.3643V4.06362C92.2979 3.00255 91.556 2.57197 90.6333 3.10251Z" fill="#455A64"/>
<path d="M58.0479 21.9173L90.6336 3.1025C91.4563 2.62579 92.1368 2.92181 92.2752 3.74837C92.1983 3.2287 92.0123 2.73118 91.7293 2.28856C91.4464 1.84593 91.073 1.46822 90.6336 1.18027L89.2803 0.411377C88.7644 0.149646 88.1941 0.0132446 87.6157 0.0132446C87.0372 0.0132446 86.4669 0.149646 85.951 0.411377L53.3615 19.2108C52.8706 19.5186 52.4659 19.9458 52.1851 20.4526L56.8715 23.1437C57.1522 22.641 57.5572 22.2187 58.0479 21.9173Z" fill="#37474F"/>
<path d="M51.6885 99.3949C51.72 99.9724 51.8872 100.534 52.1764 101.035C52.4656 101.536 52.8687 101.962 53.3531 102.278L54.7102 103.047C55.1799 103.282 55.694 103.415 56.2187 103.438C56.7434 103.46 57.2669 103.372 57.755 103.178C56.9862 103.478 56.3749 103.036 56.3749 102.086V24.8007C56.3941 24.2207 56.5623 23.6553 56.8631 23.1591L52.1767 20.468C51.8801 20.9605 51.7122 21.5197 51.6885 22.0942V99.3949Z" fill="#263238"/>
<path d="M58.9431 32.2167L89.7488 14.436C90.3024 14.1208 90.7484 14.3784 90.7484 15.0127V72.2261C90.7299 72.5728 90.6297 72.9103 90.456 73.2109C90.2823 73.5116 90.04 73.7669 89.7488 73.9561L58.9546 91.7367C58.401 92.0558 57.9551 91.7982 57.9551 91.1601V33.9467C57.9726 33.6011 58.0711 33.2644 58.2427 32.9639C58.4144 32.6633 58.6543 32.4074 58.9431 32.2167Z" fill="white"/>
<path d="M74.34 15.4394C74.1699 15.551 74.0285 15.701 73.927 15.8773C73.8255 16.0536 73.7668 16.2512 73.7556 16.4543C73.7556 16.8388 74.017 16.981 74.34 16.7927C74.5107 16.6817 74.6526 16.5319 74.7542 16.3555C74.8558 16.179 74.9141 15.981 74.9243 15.7777C74.9243 15.4048 74.6629 15.2549 74.34 15.4394Z" fill="#37474F"/>
<path d="M74.3407 85.5817C73.6687 86.0214 73.1096 86.6132 72.7089 87.3091C72.3081 88.0051 72.0769 88.7857 72.0341 89.5877C72.0341 91.0601 73.0682 91.6598 74.3407 90.9217C75.0126 90.4818 75.5715 89.89 75.9722 89.194C76.3729 88.4981 76.6042 87.7176 76.6474 86.9158C76.6551 85.4433 75.6171 84.8436 74.3407 85.5817Z" fill="#37474F"/>
<path d="M68.8082 21.3906C68.4704 21.6149 68.19 21.9155 67.9896 22.2681C67.7893 22.6207 67.6746 23.0155 67.6549 23.4205C67.6549 24.1663 68.1778 24.4701 68.8082 24.0971C69.1497 23.875 69.4339 23.5754 69.6376 23.2226C69.8414 22.8699 69.959 22.474 69.9808 22.0673C69.9808 21.3214 69.458 21.0177 68.8082 21.3906Z" fill="#37474F"/>
<path d="M71.6803 21.1369C71.6803 21.6367 72.0647 21.8251 72.5146 21.5598L80.2035 17.1117C80.4417 16.963 80.6413 16.7601 80.7863 16.5196C80.9313 16.2791 81.0174 16.0078 81.0377 15.7277C81.0377 15.2318 80.6533 15.0434 80.2035 15.3087L72.5146 19.7567C72.2769 19.9051 72.0775 20.1074 71.9325 20.3472C71.7876 20.5869 71.7012 20.8575 71.6803 21.1369Z" fill="#37474F"/>
<path d="M54.2882 34.6925C54.561 34.8702 54.7881 35.1097 54.9511 35.3916C55.1141 35.6734 55.2084 35.9897 55.2263 36.3148C55.2263 36.9146 54.8072 37.1568 54.2882 36.8569C54.0163 36.6785 53.7901 36.4388 53.6278 36.157C53.4656 35.8752 53.3718 35.5592 53.354 35.2345C53.354 34.6386 53.773 34.3964 54.2882 34.6925Z" fill="#37474F"/>
<path d="M54.2882 41.9124C54.561 42.0901 54.7881 42.3296 54.9511 42.6115C55.1141 42.8934 55.2084 43.2097 55.2263 43.5348C55.2263 44.1307 54.8072 44.3729 54.2882 44.0769C54.0163 43.8985 53.7901 43.6588 53.6278 43.377C53.4656 43.0952 53.3718 42.7792 53.354 42.4545C53.354 41.8548 53.773 41.6126 54.2882 41.9124Z" fill="#37474F"/>
<path d="M53.9954 34.8386C54.2682 35.0163 54.4954 35.2558 54.6583 35.5377C54.8213 35.8195 54.9156 36.1359 54.9335 36.461C54.9335 37.0568 54.5144 37.2991 53.9954 37.003C53.7226 36.8253 53.4955 36.5858 53.3325 36.3039C53.1695 36.0221 53.0753 35.7058 53.0574 35.3807C53.0612 34.7809 53.4803 34.5503 53.9954 34.8386Z" fill="#455A64"/>
<path d="M53.9954 42.0546C54.2688 42.2327 54.4962 42.4728 54.6592 42.7554C54.8222 43.038 54.9162 43.355 54.9335 43.6808C54.9335 44.2767 54.5144 44.5189 53.9954 44.219C53.722 44.042 53.4944 43.8027 53.3313 43.5206C53.1682 43.2386 53.0744 42.922 53.0574 42.5967C53.0612 42.0008 53.4803 41.7586 53.9954 42.0546Z" fill="#455A64"/>
<path d="M96.9842 16.8234C96.9842 16.1852 96.5383 15.9276 95.9847 16.2467L92.2978 18.3727L65.1905 34.0274C64.8993 34.2165 64.657 34.4719 64.4833 34.7725C64.3096 35.0732 64.2094 35.4106 64.1909 35.7574V92.9553C64.1909 93.5935 64.6369 93.8511 65.1905 93.532L92.3093 77.8735L95.9847 75.7514C96.2758 75.5622 96.5181 75.3068 96.6918 75.0062C96.8656 74.7055 96.9657 74.3681 96.9842 74.0214V16.8234Z" fill="white"/>
<path d="M97.3687 16.8235C97.3929 16.6307 97.3597 16.435 97.2733 16.261C97.1869 16.087 97.0511 15.9423 96.8828 15.845C96.7146 15.7478 96.5215 15.7023 96.3275 15.7143C96.1336 15.7262 95.9475 15.7951 95.7925 15.9123L92.2748 17.946L64.9983 33.7084C64.6471 33.93 64.3551 34.2338 64.1475 34.5934C63.9399 34.9531 63.8229 35.3579 63.8065 35.7728V92.9554C63.7911 93.1474 63.828 93.3399 63.9133 93.5125C63.9986 93.6852 64.1291 93.8314 64.2909 93.9358C64.4286 94.0158 64.5854 94.057 64.7446 94.055C64.9699 94.0479 65.1897 93.983 65.3828 93.8666L92.6785 78.1043L96.1885 76.0782C96.5376 75.8544 96.8281 75.5501 97.0354 75.1909C97.2428 74.8317 97.361 74.4281 97.3803 74.0137L97.3687 16.8235ZM92.2825 77.4469L91.9672 77.6314L65.0137 93.1938C64.9684 93.2286 64.9159 93.2529 64.86 93.2648C64.8042 93.2768 64.7463 93.2762 64.6908 93.263C64.6408 93.2322 64.5908 93.1246 64.5908 92.9477V35.7575C64.6107 35.4783 64.6937 35.2073 64.8336 34.9649C64.9734 34.7225 65.1664 34.515 65.3981 34.3581L92.3248 18.788L96.1692 16.562C96.2146 16.5272 96.267 16.503 96.3229 16.491C96.3788 16.479 96.4366 16.4797 96.4922 16.4928C96.5422 16.5236 96.5921 16.6312 96.5921 16.8081V74.0214C96.5722 74.3006 96.4892 74.5716 96.3494 74.814C96.2095 75.0564 96.0165 75.2639 95.7848 75.4208L92.2748 77.4469H92.2825Z" fill="white"/>
<path d="M80.5873 30.1137C84.0474 28.1223 86.8346 29.7293 86.8346 33.7237C86.8346 37.7181 84.0358 42.566 80.5873 44.542C77.1389 46.5181 74.3401 44.9265 74.3401 40.9359C74.3401 36.9453 77.1389 32.109 80.5873 30.1137Z" fill="#ACACAC"/>
<path d="M80.5871 33.2508C81.7058 32.6049 82.6131 33.1278 82.6131 34.4041C82.5751 35.1073 82.3718 35.7916 82.0198 36.4014C81.6678 37.0113 81.1769 37.5295 80.5871 37.9141C79.4683 38.56 78.561 38.0372 78.561 36.7608C78.599 36.0577 78.8023 35.3734 79.1543 34.7635C79.5064 34.1537 79.9972 33.6354 80.5871 33.2508Z" fill="white"/>
<path d="M84.5361 40.1401C84.5361 38.0179 83.0483 37.1568 81.2068 38.2178L80.0534 38.8829C78.2158 39.944 76.7241 42.5275 76.7241 44.6496V45.2225C77.789 45.5723 79.1269 45.3839 80.5686 44.542C82.1656 43.5569 83.5162 42.2195 84.5169 40.6322L84.5361 40.1401Z" fill="white"/>
<path opacity="0.7" d="M80.5871 33.2508C81.7058 32.6049 82.6131 33.1278 82.6131 34.4041C82.5751 35.1073 82.3718 35.7916 82.0198 36.4014C81.6678 37.0113 81.1769 37.5295 80.5871 37.9141C79.4683 38.56 78.561 38.0372 78.561 36.7608C78.599 36.0577 78.8023 35.3734 79.1543 34.7635C79.5064 34.1537 79.9972 33.6354 80.5871 33.2508Z" fill="white"/>
<path opacity="0.7" d="M84.5361 40.1401C84.5361 38.0179 83.0483 37.1568 81.2068 38.2178L80.0534 38.8829C78.2158 39.944 76.7241 42.5275 76.7241 44.6496V45.2225C77.789 45.5723 79.1269 45.3839 80.5686 44.542C82.1656 43.5569 83.5162 42.2195 84.5169 40.6322L84.5361 40.1401Z" fill="white"/>
<path d="M68.5002 53.3266L76.539 48.6863C76.9234 48.4749 77.204 48.644 77.204 49.0708V49.336C77.1919 49.5671 77.1253 49.792 77.0097 49.9924C76.8941 50.1928 76.7328 50.3631 76.539 50.4894L68.5002 55.1297C68.1349 55.3411 67.8351 55.1681 67.8351 54.7452V54.4799C67.8476 54.249 67.9143 54.0242 68.0298 53.8238C68.1454 53.6234 68.3065 53.4531 68.5002 53.3266Z" fill="white"/>
<path opacity="0.1" d="M68.5002 53.3266L76.539 48.6863C76.9234 48.4749 77.204 48.644 77.204 49.0708V49.336C77.1919 49.5671 77.1253 49.792 77.0097 49.9924C76.8941 50.1928 76.7328 50.3631 76.539 50.4894L68.5002 55.1297C68.1349 55.3411 67.8351 55.1681 67.8351 54.7452V54.4799C67.8476 54.249 67.9143 54.0242 68.0298 53.8238C68.1454 53.6234 68.3065 53.4531 68.5002 53.3266Z" fill="black"/>
<path d="M68.1695 58.928L92.4896 44.888C92.6703 44.7804 92.8203 44.865 92.8203 45.0803V47.9175C92.8135 48.0326 92.7801 48.1446 92.7228 48.2447C92.6654 48.3447 92.5856 48.4301 92.4896 48.4941L68.1695 62.5341C67.985 62.6418 67.8351 62.5534 67.8351 62.3419V59.5047C67.8417 59.3891 67.8754 59.2766 67.9335 59.1764C67.9916 59.0763 68.0725 58.9912 68.1695 58.928Z" fill="white"/>
<path opacity="0.5" d="M68.1695 58.928L92.4896 44.888C92.6703 44.7804 92.8203 44.865 92.8203 45.0803V47.9175C92.8135 48.0326 92.7801 48.1446 92.7228 48.2447C92.6654 48.3447 92.5856 48.4301 92.4896 48.4941L68.1695 62.5341C67.985 62.6418 67.8351 62.5534 67.8351 62.3419V59.5047C67.8417 59.3891 67.8754 59.2766 67.9335 59.1764C67.9916 59.0763 68.0725 58.9912 68.1695 58.928Z" fill="#E5E5E5"/>
<path d="M68.5002 65.948L76.539 61.3078C76.9234 61.0963 77.204 61.2693 77.204 61.6922V61.9575C77.1922 62.1886 77.1257 62.4136 77.0101 62.6141C76.8945 62.8146 76.733 62.9848 76.539 63.1108L68.5002 67.7511C68.1349 67.9664 67.8351 67.7934 67.8351 67.3666V67.1014C67.8482 66.8706 67.9151 66.646 68.0306 66.4457C68.1461 66.2454 68.3069 66.075 68.5002 65.948Z" fill="white"/>
<path opacity="0.1" d="M68.5002 65.948L76.539 61.3078C76.9234 61.0963 77.204 61.2693 77.204 61.6922V61.9575C77.1922 62.1886 77.1257 62.4136 77.0101 62.6141C76.8945 62.8146 76.733 62.9848 76.539 63.1108L68.5002 67.7511C68.1349 67.9664 67.8351 67.7934 67.8351 67.3666V67.1014C67.8482 66.8706 67.9151 66.646 68.0306 66.4457C68.1461 66.2454 68.3069 66.075 68.5002 65.948Z" fill="black"/>
<path d="M68.1695 71.5494L92.4896 57.5094C92.6703 57.4018 92.8203 57.4902 92.8203 57.7016V60.5388C92.8135 60.654 92.7801 60.766 92.7228 60.8661C92.6654 60.9661 92.5856 61.0515 92.4896 61.1155L68.1695 75.1555C67.985 75.2631 67.8351 75.1786 67.8351 74.9633V72.1261C67.8417 72.0104 67.8754 71.898 67.9335 71.7978C67.9916 71.6976 68.0725 71.6125 68.1695 71.5494Z" fill="white"/>
<path opacity="0.5" d="M68.1695 71.5494L92.4896 57.5094C92.6703 57.4018 92.8203 57.4902 92.8203 57.7016V60.5388C92.8135 60.654 92.7801 60.766 92.7228 60.8661C92.6654 60.9661 92.5856 61.0515 92.4896 61.1155L68.1695 75.1555C67.985 75.2631 67.8351 75.1786 67.8351 74.9633V72.1261C67.8417 72.0104 67.8754 71.898 67.9335 71.7978C67.9916 71.6976 68.0725 71.6125 68.1695 71.5494Z" fill="#E5E5E5"/>
<path d="M77.8693 73.1602L87.4805 67.6203C87.8649 67.405 88.1494 67.578 88.1494 68.0048V70.9727C88.1368 71.2041 88.0696 71.4292 87.9534 71.6297C87.8371 71.8301 87.6751 72.0002 87.4805 72.126L77.8693 77.6698C77.4849 77.8812 77.2042 77.7082 77.2042 77.2853V74.3136C77.2176 74.0828 77.2847 73.8583 77.4002 73.6581C77.5156 73.4579 77.6763 73.2874 77.8693 73.1602Z" fill="white"/>
<path opacity="0.1" d="M77.8693 73.1602L87.4805 67.6203C87.8649 67.405 88.1494 67.578 88.1494 68.0048V70.9727C88.1368 71.2041 88.0696 71.4292 87.9534 71.6297C87.8371 71.8301 87.6751 72.0002 87.4805 72.126L77.8693 77.6698C77.4849 77.8812 77.2042 77.7082 77.2042 77.2853V74.3136C77.2176 74.0828 77.2847 73.8583 77.4002 73.6581C77.5156 73.4579 77.6763 73.2874 77.8693 73.1602Z" fill="black"/>
<path d="M100.629 60.6348C100.629 60.6348 95.9075 54.1222 95.6307 53.3303C95.4116 52.7459 95.6307 51.8771 95.6999 51.4734C95.7691 51.0697 95.8306 50.1701 95.8998 49.9356C96.0152 49.4973 95.45 49.5858 95.131 49.9856C94.8119 50.3854 94.7042 51.1851 94.5389 51.3158C94.3736 51.4465 93.1164 49.6127 92.459 48.7669C91.8016 47.9211 91.3903 47.4059 90.9866 47.7212C90.6983 47.948 90.9136 48.4401 91.3903 49.1629C91.6687 49.5521 91.9254 49.9563 92.1592 50.3739C92.2322 50.5315 91.8401 50.543 91.6287 50.8698C91.4633 51.1235 91.6286 51.5349 91.398 51.731C91.256 51.839 91.1588 51.9955 91.1247 52.1706C91.0907 52.3457 91.1223 52.5272 91.2134 52.6806C91.6414 53.3526 92.1933 53.9371 92.8397 54.4029C93.547 54.8911 93.8315 55.0641 94.2506 55.7292C94.6696 56.3943 98.4295 63.1875 98.6832 63.595C98.937 64.0025 99.4252 64.8329 100.167 64.856C100.909 64.879 106.983 59.6506 107.295 59.3892C108.294 58.5549 108.614 58.4357 108.783 59.1854C108.841 59.4519 108.885 59.7214 108.913 59.9927C109.033 60.9462 109.682 64.3524 109.682 64.3524C109.682 64.3524 112.758 65.8402 115.284 65.1213C117.809 64.4023 118.663 63.3297 118.663 63.3297L117.398 61.2691C117.74 60.4195 119.32 56.9748 119.832 54.5643L111.912 53.2841C111.751 53.2495 111.489 53.1842 111.143 53.0958C110.709 52.9804 109.605 52.5998 108.771 53.3303C106.049 55.7023 100.636 60.6348 100.636 60.6348" fill="#FFA8A7"/>
<path d="M116.33 100.594L114.911 102.566C115.556 102.867 116.26 103.019 116.972 103.009C118.244 103.055 118.594 102.624 118.64 102.54C118.855 102.078 118.521 101.248 118.429 100.533L116.33 100.594Z" fill="#37474F"/>
<path d="M114.991 101.621C114.991 101.621 113.269 101.509 112.081 101.363C110.893 101.217 109.951 101.794 110.228 102.282C110.505 102.77 111.162 103.178 112.185 103.52C113.057 103.816 114.107 104.027 115.014 104.289C115.922 104.55 116.552 104.892 117.079 104.708C117.667 104.504 117.921 104.27 117.871 103.839C117.742 103.227 117.583 102.621 117.394 102.024L114.991 101.621Z" fill="#37474F"/>
<path d="M118.64 98.6143C118.64 98.6143 118.425 100.406 118.409 100.79C118.394 101.175 116.66 101.298 116.329 100.594L116.276 98.4029L118.64 98.6143Z" fill="#F28F8F"/>
<path d="M116.895 99.7139L117.514 102.436C117.514 102.436 117.571 102.766 116.157 102.978C114.742 103.189 112.52 102.236 112.139 102.044C111.758 101.851 111.716 101.463 113.108 101.54C114.5 101.617 114.992 101.621 114.992 101.621L114.538 100.417L116.895 99.7139Z" fill="#FFA8A7"/>
<path d="M119.808 54.5414L120.789 54.2684C120.789 54.2684 122.838 60.754 123.065 61.3807C123.291 62.0073 123.549 62.6686 123.107 63.4413C122.58 64.3602 119.808 68.0547 119.808 68.0547L118.048 66.3324L120.047 62.6724L118.278 59.0971L119.808 54.5414Z" fill="#F28F8F"/>
<path d="M109.74 46.1181C109.51 45.6867 109.393 45.204 109.401 44.7152C109.408 44.2264 109.539 43.7475 109.782 43.3232C110.758 41.5125 112.934 40.6321 115.526 40.9666C116.725 41.1242 118.14 42.1199 118.913 43.6077C119.766 45.257 119.847 48.5786 120.066 49.8357L109.74 46.1181Z" fill="#37474F"/>
<path d="M109.671 46.8293C109.671 46.8293 109.056 48.0019 109.164 48.1096C109.323 48.2027 109.497 48.2677 109.679 48.3018L109.671 46.8293Z" fill="#FFA8A7"/>
<path d="M111.539 43.1233C110.87 43.5577 109.717 44.3574 109.667 46.9908C109.613 49.682 109.997 50.57 110.397 50.8814C110.666 51.0929 112.246 50.9852 112.923 50.8276C113.6 50.67 115.549 49.705 116.252 48.2403C117.079 46.518 116.91 44.0114 115.683 43.2425C115.059 42.8734 114.351 42.6688 113.627 42.6479C112.902 42.6271 112.183 42.7907 111.539 43.1233Z" fill="#FFA8A7"/>
<path d="M118.64 63.3144C119.824 65.1597 120.947 66.7744 121.193 68.8581C121.7 73.237 120.04 78.2424 119.682 81.4833C120.354 82.4052 120.742 83.5038 120.797 84.6435C120.797 85.9852 118.64 98.6143 118.64 98.6143C118.64 98.6143 117.072 99.091 116.276 98.4028L114.796 75.1707L115.565 72.3412L118.64 63.3144Z" fill="white"/>
<path opacity="0.2" d="M118.64 63.3144C119.824 65.1597 120.947 66.7744 121.193 68.8581C121.7 73.237 120.04 78.2424 119.682 81.4833C120.354 82.4052 120.742 83.5038 120.797 84.6435C120.797 85.9852 118.64 98.6143 118.64 98.6143C118.64 98.6143 117.072 99.091 116.276 98.4028L114.796 75.1707L115.565 72.3412L118.64 63.3144Z" fill="black"/>
<path d="M114.796 75.1708L115.565 72.3413C117.037 71.9537 118.457 71.3896 119.793 70.6613C119.793 70.6613 118.994 72.1183 116.695 72.918L115.507 76.551L115.407 84.8742L114.796 75.1708Z" fill="white"/>
<path opacity="0.3" d="M114.796 75.1708L115.565 72.3413C117.037 71.9537 118.457 71.3896 119.793 70.6613C119.793 70.6613 118.994 72.1183 116.695 72.918L115.507 76.551L115.407 84.8742L114.796 75.1708Z" fill="black"/>
<path d="M118.64 63.3144C119.274 64.3524 120.789 66.1208 120.466 67.8239C120.082 69.8846 118.967 71.3339 115.576 72.3412L112.393 83.8746C112.393 83.8746 114.05 85.4124 114.557 86.9002C115.065 88.388 116.895 99.7215 116.895 99.7215C116.895 99.7215 116.326 100.648 114.538 100.425C114.538 100.425 108.306 86.2005 107.868 85.274C107.336 84.3357 107.15 83.2406 107.341 82.1792C107.537 80.6875 109.648 64.3601 109.648 64.3601L118.64 63.3144Z" fill="white"/>
<path opacity="0.2" d="M118.64 63.3144C119.274 64.3524 120.789 66.1208 120.466 67.8239C120.082 69.8846 118.967 71.3339 115.576 72.3412L112.393 83.8746C112.393 83.8746 114.05 85.4124 114.557 86.9002C115.065 88.388 116.895 99.7215 116.895 99.7215C116.895 99.7215 116.326 100.648 114.538 100.425C114.538 100.425 108.306 86.2005 107.868 85.274C107.336 84.3357 107.15 83.2406 107.341 82.1792C107.537 80.6875 109.648 64.3601 109.648 64.3601L118.64 63.3144Z" fill="black"/>
<path d="M119.809 54.5414L111.89 53.2612C111.728 53.2266 111.467 53.1612 111.121 53.0728C111.121 53.0728 110.783 58.0399 108.749 59.1778C108.799 59.4162 108.841 59.6815 108.879 59.9852C108.999 60.9386 109.648 64.3448 109.648 64.3448C109.648 64.3448 112.724 65.8326 115.25 65.1137C117.776 64.3948 118.629 63.3222 118.629 63.3222L117.364 61.2615C117.718 60.4042 119.31 56.9596 119.809 54.5414Z" fill="white"/>
<path opacity="0.7" d="M119.809 54.5414L111.89 53.2612C111.728 53.2266 111.467 53.1612 111.121 53.0728C111.121 53.0728 110.783 58.0399 108.749 59.1778C108.799 59.4162 108.841 59.6815 108.879 59.9852C108.999 60.9386 109.648 64.3448 109.648 64.3448C109.648 64.3448 112.724 65.8326 115.25 65.1137C117.776 64.3948 118.629 63.3222 118.629 63.3222L117.364 61.2615C117.718 60.4042 119.31 56.9596 119.809 54.5414Z" fill="white"/>
<path d="M117.721 60.4426C116.669 61.0741 115.568 61.618 114.427 62.0688C115.462 62.0481 116.476 61.7679 117.375 61.2537L117.721 60.4426Z" fill="white"/>
<path d="M111.343 43.254C111.343 43.254 110.959 45.7529 111.866 47.2215C111.866 47.2215 112.205 46.2258 113.046 46.4141C113.888 46.6025 113.935 47.7136 113.342 48.3364C113.192 48.5111 112.995 48.6398 112.775 48.7078C112.555 48.7758 112.32 48.7803 112.097 48.7208C112.097 48.7208 111.962 50.5277 111.889 52.0424C111.816 53.5572 111.416 56.8596 113.119 58.1936C114.823 59.5276 119.098 59.9966 121.101 57.1979C122.215 55.6409 120.735 52.8882 120.047 49.8011C119.413 46.9639 119.055 42.7581 116.045 42.0814C113.035 41.4048 111.343 43.254 111.343 43.254Z" fill="#37474F"/>
</svg>
