<svg width="327" height="327" viewBox="0 0 327 327" fill="none" xmlns="http://www.w3.org/2000/svg">
<g clip-path="url(#clip0_2314_198)">
<mask id="mask0_2314_198" style="mask-type:luminance" maskUnits="userSpaceOnUse" x="0" y="0" width="327" height="327">
<path d="M327 0H0V327H327V0Z" fill="white"/>
</mask>
<g mask="url(#mask0_2314_198)">
<path d="M326.823 164.01C326.823 149.038 324.791 134.542 321.008 120.772C303.872 192.346 239.483 245.555 162.657 245.555C87.8962 245.555 24.9087 195.168 5.78578 126.504C2.90962 138.619 1.37927 151.254 1.37927 164.248C1.37927 206.399 17.395 244.811 43.6742 273.727C73.453 306.363 116.329 326.843 163.991 326.843C253.921 326.843 326.823 253.939 326.823 164.01Z" fill="#FDFFF3"/>
<path d="M162.657 257.182C239.483 257.182 313.92 196.2 321.008 120.772C302.065 51.8303 238.95 1.17871 163.991 1.17871C87.1652 1.17871 22.7753 54.3881 5.63904 125.962C5.68845 126.142 5.74803 126.321 5.78582 126.504C20.3468 197.653 87.8962 257.182 162.657 257.182Z" fill="#FDFFF3"/>
<mask id="mask1_2314_198" style="mask-type:alpha" maskUnits="userSpaceOnUse" x="1" y="1" width="326" height="326">
<path d="M326.823 164.01C326.823 149.038 324.791 134.542 321.008 120.772C303.872 192.346 239.483 245.555 162.657 245.555C87.8962 245.555 24.9087 195.168 5.78578 126.504C2.90962 138.619 1.37927 151.254 1.37927 164.248C1.37927 206.399 17.395 244.811 43.6742 273.727C73.453 306.363 116.329 326.843 163.991 326.843C253.921 326.843 326.823 253.939 326.823 164.01Z" fill="#AED36C"/>
<path d="M162.657 257.182C239.483 257.182 313.92 196.2 321.008 120.772C302.065 51.8303 238.95 1.17871 163.991 1.17871C87.1652 1.17871 22.7753 54.3881 5.63904 125.962C5.68845 126.142 5.74803 126.321 5.78582 126.504C20.3468 197.653 87.8962 257.182 162.657 257.182Z" fill="#C4E281"/>
</mask>
<g mask="url(#mask1_2314_198)">
<path d="M92.0134 118.58C81.2137 120.92 79.0874 150.382 69.7512 151.653C59.6491 153.026 42.8093 179.333 62.7287 194.036C90.1807 214.3 48.7404 218.122 48.7869 237.114C48.8334 256.106 65.1093 257.635 55.8457 270.605C46.5822 283.574 25.3926 304.914 25.3926 304.914L176.679 338.558L236.703 320.475C236.703 320.475 309.534 283.399 271.817 265.28C254.217 256.824 263.463 246.913 269.869 241.816C280.679 233.216 282.124 213.556 261.886 203.175C246.532 195.299 269.744 175.673 265.645 163.766C258.994 144.456 238.804 164.988 239.675 114.828C239.711 112.757 143.062 107.518 92.0134 118.58Z" fill="#A65B3B"/>
<path d="M101.493 131.29C101.493 131.29 105.079 182.449 89.2287 185.078C80.6817 186.495 70.1436 207.055 91.7953 226.345C113.447 245.635 79.0481 241.366 79.0874 257.506C79.1266 273.647 98.6304 274.528 90.7576 285.55C82.8849 296.572 41.9387 314.194 41.9387 314.194L170.514 342.788L221.526 327.419C221.526 327.419 283.423 295.911 251.368 280.511C236.411 273.326 244.269 264.899 249.713 260.568C258.9 253.26 260.129 236.552 242.929 227.729C229.879 221.035 249.608 204.356 246.123 194.237C240.471 177.826 223.313 195.274 224.053 152.645C224.084 150.885 101.493 131.29 101.493 131.29Z" fill="#8E4B33"/>
</g>
<mask id="mask2_2314_198" style="mask-type:alpha" maskUnits="userSpaceOnUse" x="1" y="1" width="326" height="326">
<path d="M326.823 164.01C326.823 149.038 324.791 134.542 321.008 120.772C303.872 192.346 239.483 245.555 162.657 245.555C87.8962 245.555 24.9087 195.168 5.78578 126.504C2.90962 138.619 1.37927 151.254 1.37927 164.248C1.37927 206.399 17.395 244.811 43.6742 273.727C73.453 306.363 116.329 326.843 163.991 326.843C253.921 326.843 326.823 253.939 326.823 164.01Z" fill="#AED36C"/>
<path d="M162.657 257.182C239.483 257.182 313.92 196.2 321.008 120.772C302.065 51.8303 238.95 1.17871 163.991 1.17871C87.1652 1.17871 22.7753 54.3881 5.63904 125.962C5.68845 126.142 5.74803 126.321 5.78582 126.504C20.3468 197.653 87.8962 257.182 162.657 257.182Z" fill="#C4E281"/>
</mask>
<g mask="url(#mask2_2314_198)">
<path d="M143.531 242.069V281.582C143.531 281.582 150.786 300.204 166.462 300.571C182.138 300.939 186.377 280.462 186.377 280.462V242.014L143.531 242.069Z" fill="#FAB4A7"/>
<path d="M245.893 305.138C245.893 305.138 225.947 284.579 186.377 278.452C186.377 278.452 180.181 296.04 164.955 295.691C149.728 295.343 143.531 277.43 143.531 277.43C106.65 282.207 80.7473 304.081 80.7473 304.081C80.7473 304.081 96.1483 337.601 162.308 337.632C238.328 337.666 245.893 305.138 245.893 305.138Z" fill="#2B2737"/>
</g>
<path d="M87.0896 116.377C87.0896 116.377 85.9837 183.569 92.0339 196.848C101.669 217.999 143.778 255.874 165.469 255.884C181.59 255.893 223.303 216.888 227.453 210.717C238.373 194.476 237.937 178.269 238.716 162.169C239.495 146.069 240.823 115.831 238.226 106.743C235.629 97.6553 222.388 75.5836 184.216 70.1307C141.864 64.0804 87.1085 73.2626 87.0896 116.377Z" fill="#FAB4A7"/>
<path d="M122.929 101.822C122.929 101.822 113.799 161.124 118.843 184.641C126.566 220.643 146.436 239.436 160.976 246.171C175.515 252.906 176.679 252.319 176.679 252.319C176.679 252.319 171.419 254.707 165.469 255.884C165.469 255.884 141.268 254.994 107.063 217.854C85.8615 196.522 89.3001 179.747 89.3001 179.747C89.1605 178.433 88.9585 176.5 88.7158 174.153C88.3917 171.009 88.2275 169.419 88.1592 168.586C87.9223 165.697 87.8714 163.631 87.7871 160.052C87.7871 160.052 87.7305 157.646 87.684 152.329L105.307 101.822H122.929Z" fill="#E8A39A"/>
<path d="M163.512 84.9051C163.512 84.9051 176.223 118.428 205.804 112.813C209.356 112.139 223.799 112.946 223.965 126.776C224.444 166.622 244.788 153.79 244.788 153.79C244.788 153.79 245.507 128.677 240.519 106.413C235.385 83.4939 220.636 46.6039 166.536 48.2709C138.477 49.919 116.46 55.5071 108.007 62.8638C99.5548 70.2206 87.6491 77.839 81.9346 124.51C80.9129 132.853 81.7689 143.283 86.937 152.915C97.7847 145.762 99.5127 142.707 101.501 131.534C104.197 116.38 108.775 111.8 122.76 111.799C149.831 111.796 163.512 84.9051 163.512 84.9051Z" fill="#A65B3B"/>
<path d="M236.08 180.405C243.65 180.852 251.669 174.079 252.116 166.509C252.562 158.938 239.171 151.959 231.6 151.513L236.08 180.405Z" fill="#FAB4A7"/>
<path d="M238.321 170.694C241.078 170.928 243.502 168.883 243.736 166.126C243.97 163.369 241.926 160.945 239.169 160.711L238.321 170.694Z" fill="#FADBD6"/>
<path d="M94.1876 182.722C86.6172 183.168 75.2231 174.173 74.7769 166.603C74.3307 159.033 88.492 143.954 94.9564 149.323C103.573 156.479 94.1876 182.722 94.1876 182.722Z" fill="#E8A39A"/>
<path d="M88.5704 170.789C85.8135 171.023 83.3893 168.978 83.1553 166.221C82.9213 163.464 84.9662 161.04 87.7231 160.806L88.5704 170.789Z" fill="#FADBD6"/>
<path d="M209.035 157.13C208.557 157.13 208.078 156.973 207.676 156.652C196.301 147.554 185.833 156.232 185.394 156.606C184.478 157.385 183.103 157.277 182.323 156.364C181.543 155.452 181.646 154.081 182.556 153.298C182.689 153.183 196.166 141.86 210.398 153.247C211.339 154 211.491 155.372 210.739 156.312C210.308 156.85 209.675 157.13 209.035 157.13Z" fill="#2B2737"/>
<path d="M202.619 159.762C202.619 164.699 199.884 168.702 196.507 168.702C193.131 168.702 190.395 164.699 190.395 159.762C190.395 154.825 193.131 150.824 196.507 150.824C199.884 150.824 202.619 154.825 202.619 159.762Z" fill="#2B2737"/>
<path d="M114.112 158.319C113.473 158.319 112.839 158.04 112.409 157.501C111.656 156.561 111.809 155.19 112.749 154.437C126.984 143.049 140.458 154.37 140.593 154.487C141.506 155.273 141.609 156.648 140.823 157.561C140.038 158.47 138.665 158.576 137.754 157.796C137.313 157.421 126.848 148.743 115.473 157.841C115.071 158.162 114.59 158.319 114.112 158.319Z" fill="#2B2737"/>
<path d="M120.529 160.953C120.529 165.89 123.265 169.891 126.641 169.891C130.017 169.891 132.753 165.89 132.753 160.953C132.753 156.016 130.017 152.013 126.641 152.013C123.265 152.013 120.529 156.016 120.529 160.953Z" fill="#2B2737"/>
<path d="M186.51 209.831C186.51 209.831 184.483 204.082 165.879 203.637C165.483 203.628 163.295 205.572 163.295 205.572C163.295 205.572 161.343 203.566 160.969 203.566C143.465 203.567 140.079 209.831 140.079 209.831C140.079 209.831 143.191 221.948 163.295 221.991C184.765 222.038 186.51 209.831 186.51 209.831Z" fill="#DB1A1B"/>
<path d="M186.51 209.831C186.51 209.831 182.374 204.893 170.093 204.384C168.15 204.304 166.373 204.3 164.751 204.354C164.251 204.37 163.295 205.572 163.295 205.572C163.295 205.572 162.55 204.466 162.191 204.495C151.353 205.352 148.639 209.023 148.639 209.023C148.639 209.023 151.957 222.766 171.951 220.659C184.68 219.317 186.51 209.831 186.51 209.831Z" fill="#E03841"/>
<path d="M184.112 211.777C184.109 211.777 184.103 211.777 184.099 211.777L141.506 211.302C140.904 211.295 140.422 210.802 140.428 210.199C140.434 209.602 140.92 209.122 141.518 209.122C141.518 209.122 141.525 209.122 141.529 209.122L184.124 209.597C184.725 209.605 185.208 210.097 185.202 210.7C185.196 211.298 184.709 211.777 184.112 211.777Z" fill="#DB1A1B"/>
<path d="M211.481 142.575C211.074 142.575 210.662 142.462 210.295 142.223C193.227 131.148 175.787 141.786 175.054 142.242C174.036 142.88 172.689 142.572 172.049 141.552C171.411 140.533 171.717 139.19 172.735 138.549C173.562 138.029 193.227 125.95 212.669 138.567C213.679 139.222 213.965 140.571 213.31 141.581C212.892 142.225 212.193 142.575 211.481 142.575Z" fill="#2B2737"/>
<path d="M149.645 142.8C149.248 142.8 148.847 142.693 148.486 142.466C147.715 141.985 130.295 131.386 113.246 142.45C112.237 143.107 110.886 142.819 110.23 141.808C109.575 140.797 109.863 139.447 110.873 138.792C130.318 126.177 149.979 138.256 150.806 138.774C151.826 139.415 152.133 140.763 151.492 141.781C151.078 142.441 150.37 142.8 149.645 142.8Z" fill="#2B2737"/>
<path d="M167.958 190.548H155.962C153.848 190.548 152.134 188.835 152.134 186.72C152.134 184.606 153.848 182.892 155.962 182.892H167.958C170.073 182.892 171.786 184.606 171.786 186.72C171.786 188.835 170.073 190.548 167.958 190.548Z" fill="#EAA69D"/>
</g>
</g>
<defs>
<clipPath id="clip0_2314_198">
<rect width="327" height="327" fill="white"/>
</clipPath>
</defs>
</svg>
