<svg width="512" height="512" viewBox="0 0 512 512" fill="none" xmlns="http://www.w3.org/2000/svg">
<g clip-path="url(#clip0_3272_6)">
<path d="M256 0C114.615 0 0 114.615 0 256C0 397.385 114.615 512 256 512C397.385 512 512 397.385 512 256C512 114.615 397.385 0 256 0ZM256 488.727C127.468 488.727 23.273 384.532 23.273 256C23.273 127.468 127.468 23.273 256 23.273C384.532 23.273 488.727 127.468 488.727 256C488.727 384.532 384.532 488.727 256 488.727Z" fill="white"/>
<path d="M357.645 198.177C344.405 198.177 332.188 193.79 322.378 186.391C311.127 177.908 303.043 165.466 300.189 151.124C299.473 147.518 299.096 143.853 299.065 140.177H261.243V243.525L261.197 300.134C261.197 315.269 251.342 328.101 237.68 332.614C233.588 333.967 229.278 334.539 224.974 334.3C219.283 333.987 213.95 332.27 209.314 329.497C199.45 323.597 192.762 312.894 192.58 300.651C192.295 281.515 207.765 265.914 226.887 265.914C230.661 265.914 234.286 266.531 237.68 267.65V229.248C234.1 228.717 230.457 228.441 226.773 228.441C205.843 228.441 186.268 237.141 172.276 252.815C161.7 264.659 155.356 279.771 154.378 295.617C153.095 316.433 160.712 336.221 175.484 350.821C177.655 352.964 179.934 354.953 182.317 356.789C194.982 366.535 210.465 371.819 226.773 371.819C230.457 371.819 234.1 371.547 237.68 371.017C252.914 368.76 266.97 361.787 278.063 350.821C291.693 337.35 299.223 319.465 299.305 300.429L299.11 215.894C305.628 220.921 312.768 225.085 320.353 228.282C332.22 233.289 344.803 235.827 357.754 235.822V198.168C357.763 198.177 357.654 198.177 357.645 198.177Z" fill="white"/>
</g>
<defs>
<clipPath id="clip0_3272_6">
<rect width="512" height="512" fill="white"/>
</clipPath>
</defs>
</svg>
