<svg xmlns="http://www.w3.org/2000/svg" version="1.1" xmlns:xlink="http://www.w3.org/1999/xlink" width="512" height="512" x="0" y="0" viewBox="0 0 512 512" style="enable-background:new 0 0 512 512" xml:space="preserve" class=""><g><path d="M377.6 166.4a96.684 96.684 0 0 1-30.371 11.636 48.058 48.058 0 0 0-34.909-14.895c-25.977-.195-47.263 20.571-47.709 46.545.011 3.606.44 7.199 1.28 10.706a136.262 136.262 0 0 1-98.444-49.105 46.55 46.55 0 0 0-6.516 23.273 46.545 46.545 0 0 0 21.295 39.098 48.176 48.176 0 0 1-21.644-5.935v.582c-.076 22.697 15.998 42.241 38.284 46.545a48.774 48.774 0 0 1-21.527.815c6.425 19.226 24.298 32.292 44.567 32.582a96.702 96.702 0 0 1-58.996 20.364 99.013 99.013 0 0 1-11.636-.698 136.726 136.726 0 0 0 73.193 21.178c73.893 1.35 134.89-57.459 136.24-131.352.014-.783.022-1.566.022-2.35v-6.051a96.698 96.698 0 0 0 23.273-24.32 96.564 96.564 0 0 1-27.462 7.447A47.36 47.36 0 0 0 377.6 166.4z" fill="#ffffff" opacity="1" data-original="#000000" class=""></path><path d="M256 0C114.615 0 0 114.615 0 256s114.615 256 256 256 256-114.615 256-256S397.385 0 256 0zm0 488.727C127.468 488.727 23.273 384.532 23.273 256S127.468 23.273 256 23.273 488.727 127.468 488.727 256 384.532 488.727 256 488.727z" fill="#ffffff" opacity="1" data-original="#000000" class=""></path></g></svg>