<svg width="47" height="47" viewBox="0 0 47 47" fill="none" xmlns="http://www.w3.org/2000/svg">
<path d="M23.335 0C10.4474 0 0 10.4474 0 23.335C0 36.2226 10.4474 46.67 23.335 46.67C36.2226 46.67 46.67 36.2226 46.67 23.335C46.67 10.4474 36.2226 0 23.335 0ZM23.335 44.5486C11.619 44.5486 2.12139 35.051 2.12139 23.335C2.12139 11.619 11.619 2.12139 23.335 2.12139C35.051 2.12139 44.5486 11.619 44.5486 23.335C44.5486 35.051 35.051 44.5486 23.335 44.5486Z" fill="#f16667"/>
<path d="M25.3864 21.6679L33.2837 12.4879H31.4123L24.555 20.4587L19.0782 12.4879H12.7612L21.0433 24.5412L12.7612 34.1679H14.6328L21.8742 25.7504L27.6582 34.1679H33.9751L25.3859 21.6679H25.3864ZM22.8231 24.6474L21.9839 23.4472L15.3071 13.8967H18.1816L23.5699 21.6043L24.4091 22.8045L31.4132 32.8231H28.5386L22.8231 24.6479V24.6474Z" fill="#f16667"/>
<path d="M25.3864 21.6679L33.2837 12.4879H31.4123L24.555 20.4587L19.0782 12.4879H12.7612L21.0433 24.5412L12.7612 34.1679H14.6328L21.8742 25.7504L27.6582 34.1679H33.9751L25.3859 21.6679H25.3864ZM22.8231 24.6474L21.9839 23.4472L15.3071 13.8967H18.1816L23.5699 21.6043L24.4091 22.8045L31.4132 32.8231H28.5386L22.8231 24.6479V24.6474Z" fill="#f16667"/>
</svg>
