<svg width="240" height="132" viewBox="0 0 240 132" fill="none" xmlns="http://www.w3.org/2000/svg">
<path d="M0 117.839L4.36563 111.649C6.66951 113.953 10.2189 115.872 14.5846 115.872C17.4151 115.872 19.1424 114.769 19.1424 113.234C19.1424 108.868 1.00592 112.37 1.00592 100.04C1.00592 94.6656 5.56375 89.8682 13.7683 89.8682C18.9028 89.8682 23.3658 91.4033 26.7704 94.3311L22.26 100.232C19.5742 98.0253 16.0697 96.9221 12.9047 96.9221C10.506 96.9221 9.45014 97.8806 9.45014 99.2259C9.45014 103.305 27.5392 100.329 27.5392 112.228C27.5392 118.658 22.7892 122.929 14.2002 122.929C7.72535 122.924 3.21494 120.909 0 117.839Z" fill="#232323"/>
<path d="M44.4304 122.348V119.565C42.9902 121.197 40.3044 122.925 36.418 122.925C31.1388 122.925 28.79 119.949 28.79 115.678V99.1719H36.1784V112.656C36.1784 115.439 37.6186 116.397 40.0174 116.397C42.1291 116.397 43.5693 115.247 44.4329 114.143V99.1719H51.8213V122.348H44.4304Z" fill="#232323"/>
<path d="M54.1702 128.297L57.3851 123.018C59.1598 124.938 61.7507 125.704 64.439 125.704C66.8852 125.704 70.3397 124.696 70.3397 120.377V118.603C68.4202 120.859 66.1164 121.962 63.478 121.962C57.8169 121.962 53.2566 118.076 53.2566 110.256C53.2566 102.628 57.6721 98.5967 63.478 98.5967C66.0689 98.5967 68.4677 99.6051 70.3397 101.906V99.1708H77.6807V120.283C77.6807 129.735 70.195 131.75 64.4365 131.75C60.4578 131.752 57.1455 130.746 54.1702 128.297ZM70.3422 113.376V107.186C69.4312 105.938 67.4642 105.121 65.9267 105.121C62.9988 105.121 60.8397 106.896 60.8397 110.256C60.8397 113.663 62.9988 115.438 65.9267 115.438C67.4618 115.438 69.4287 114.624 70.3422 113.376Z" fill="#232323"/>
<path d="M94.3792 122.347V120.044C92.9389 121.771 90.1558 122.922 87.183 122.922C83.6311 122.922 79.218 120.523 79.218 115.294C79.218 109.68 83.6336 107.855 87.183 107.855C90.2532 107.855 92.9889 108.814 94.3792 110.541V107.758C94.3792 105.744 92.6519 104.398 89.6766 104.398C87.3727 104.398 84.974 105.262 83.1019 106.844L80.4636 102.189C83.4389 99.6457 87.4201 98.5898 90.972 98.5898C96.5383 98.5898 101.768 100.654 101.768 107.85V122.34H94.3792V122.347ZM94.3792 116.399V114.335C93.6104 113.279 91.8831 112.703 90.2532 112.703C88.2862 112.703 86.559 113.566 86.559 115.391C86.559 117.216 88.2862 118.077 90.2532 118.077C91.8831 118.079 93.6104 117.503 94.3792 116.399Z" fill="#232323"/>
<path d="M104.743 122.348V99.1719H112.131V102.002C113.666 100.13 116.594 98.5479 119.377 98.5479V105.649C118.946 105.554 118.322 105.457 117.555 105.457C115.636 105.457 113.092 106.273 112.134 107.569V122.348H104.743Z" fill="#232323"/>
<path d="M158.481 122.348V101.523L150.371 122.348H146.724L138.665 101.523V122.348H130.413V90.3457H141.88L148.549 107.716L155.266 90.3457H166.733V122.35H158.481V122.348Z" fill="#232323"/>
<path d="M183.576 122.347V120.044C182.136 121.771 179.353 122.922 176.38 122.922C172.831 122.922 168.415 120.523 168.415 115.294C168.415 109.68 172.831 107.855 176.38 107.855C179.45 107.855 182.186 108.814 183.576 110.541V107.758C183.576 105.744 181.849 104.398 178.874 104.398C176.57 104.398 174.171 105.262 172.299 106.844L169.661 102.189C172.636 99.6457 176.617 98.5898 180.169 98.5898C185.736 98.5898 190.965 100.654 190.965 107.85V122.34H183.576V122.347ZM183.576 116.399V114.335C182.808 113.279 181.08 112.703 179.45 112.703C177.484 112.703 175.756 113.566 175.756 115.391C175.756 117.216 177.484 118.077 179.45 118.077C181.08 118.079 182.808 117.503 183.576 116.399Z" fill="#232323"/>
<path d="M208.622 122.348L203.535 114.143L201.329 116.782V122.348H193.94V90.3457H201.329V108.435L208.382 99.1743H217.306L208.764 109.73L217.738 122.35H208.622V122.348Z" fill="#232323"/>
<path d="M215.818 110.738C215.818 104.021 220.905 98.5996 228.149 98.5996C235.01 98.5996 240 103.637 240 111.507V113.089H223.494C223.925 115.248 225.94 117.215 229.299 117.215C230.932 117.215 233.762 116.496 235.058 115.248L238.175 119.854C235.872 121.918 232.033 122.924 228.483 122.924C221.334 122.924 215.818 118.269 215.818 110.738ZM228.149 104.308C224.934 104.308 223.686 106.612 223.399 108.292H232.946C232.756 106.659 231.556 104.308 228.149 104.308Z" fill="#232323"/>
<path d="M118.569 64.0644C118.864 64.4141 119.163 64.7605 119.507 65.1657C119.615 65.2932 119.609 65.4925 119.491 65.6102C117.471 67.6266 115.136 69.058 112.322 69.5809C107.048 70.5645 102.644 68.7279 98.8925 65.1461C93.4716 59.9728 90.6906 53.5609 90.1003 46.1458C89.4378 37.8253 92.0712 30.6422 97.5774 24.4427C98.5711 23.3218 98.5711 23.3381 99.7189 24.3153C100.818 25.2499 101.903 26.2042 103.471 26.2598C105.261 26.3251 106.465 25.3709 107.432 24.0244C109.561 21.057 110.574 17.6256 111.413 14.1484C112.512 9.60258 113.358 5.13517 113.529 0.448809C113.529 0.409592 113.535 0.357304 113.545 0.291943C113.575 0.0631803 113.781 -0.0577371 113.994 0.0272319C120.176 2.5044 124.853 6.79207 128.788 11.9948C132.615 17.057 135.514 22.5669 137.055 28.884C137.151 29.2794 137.41 29.3285 137.642 28.9951C137.846 28.7043 138.043 28.4101 138.213 28.1029C138.925 26.8121 139.59 25.4983 140.289 24.2009C140.712 23.4166 141.184 23.3512 141.814 24.0506C146.585 29.3546 149.465 35.4037 149.639 42.6653C149.757 47.5837 149.025 52.2897 146.904 56.7277C144.3 62.1657 140.663 66.669 134.858 68.9599C129.677 71.0057 123.82 69.4796 120.281 65.5546C120.183 65.4435 120.176 65.2572 120.265 65.1396C120.429 64.9239 120.596 64.705 120.763 64.486C120.77 64.4762 120.783 64.4631 120.793 64.4533C121.219 64.0252 121.649 63.6004 122.075 63.1722C126.082 59.182 130.087 55.195 134.094 51.2047C134.12 51.1557 134.16 51.0838 134.183 51.0348L134.612 48.8484C134.612 48.8452 134.616 48.8354 134.616 48.8321L135.117 46.8321C135.117 46.7863 135.117 46.7177 135.117 46.6719C134.829 45.5543 134.54 44.4399 134.251 43.3222C134.242 43.2993 134.229 43.2634 134.219 43.2405L133.218 41.4954C133.202 41.4757 133.179 41.4431 133.163 41.4235C132.654 40.9234 132.146 40.4234 131.638 39.9234L131.644 39.93C129.936 38.4593 127.932 38.2698 125.784 38.7143C125.774 38.7175 125.761 38.7208 125.754 38.7208L123.324 39.4267C123.298 39.4398 123.256 39.4594 123.229 39.4724C122.173 40.2045 121.117 40.9365 120.061 41.6718C119.937 41.6718 119.812 41.6718 119.687 41.6718C118.795 41.0607 117.907 40.4463 117.015 39.8352C116.998 39.8254 116.975 39.8123 116.959 39.8058L115.293 39.0868C115.277 39.0803 115.254 39.0737 115.237 39.0672C114.657 38.9299 114.08 38.796 113.499 38.6587C113.479 38.6554 113.447 38.6522 113.424 38.6489L110.84 38.6456C110.794 38.6554 110.728 38.675 110.682 38.6848L108.055 40.0999L107.583 40.3515C107.557 40.3711 107.517 40.4038 107.494 40.4234L106.776 41.2274C106.77 41.2339 106.76 41.247 106.753 41.2568L106.294 41.9039H106.304C106.042 42.3385 105.779 42.7732 105.517 43.2045C105.507 43.2274 105.491 43.2634 105.481 43.2862C105.251 44.1131 105.022 44.9431 104.792 45.7699C104.789 45.7961 104.782 45.8353 104.779 45.8582L104.789 47.0706C104.789 47.0837 104.792 47.1033 104.792 47.1164L105.097 49.1687C105.107 49.2014 105.123 49.2504 105.137 49.2798L106.448 51.6165C106.475 51.6655 106.494 51.7505 106.488 51.806L106.478 51.9204C106.517 52.0086 106.563 52.1165 106.602 52.2047C107.727 53.0903 108.603 54.2276 109.616 55.2276C112.591 58.1689 115.572 61.1003 118.549 64.035C118.553 64.0481 118.563 64.0579 118.569 64.0644Z" fill="#F16667"/>
</svg>
