<svg width="20" height="20" viewBox="0 0 20 20" fill="none" xmlns="http://www.w3.org/2000/svg">
<path d="M13.1634 15.5866C13.3396 15.7627 13.4385 16.0016 13.4385 16.2506C13.4385 16.4997 13.3396 16.7386 13.1634 16.9147C12.9873 17.0908 12.7484 17.1898 12.4994 17.1898C12.2503 17.1898 12.0114 17.0908 11.8353 16.9147L5.58531 10.6647C5.49791 10.5776 5.42856 10.4741 5.38124 10.3602C5.33393 10.2462 5.30957 10.124 5.30957 10.0006C5.30957 9.87726 5.33393 9.75509 5.38124 9.64113C5.42856 9.52718 5.49791 9.42368 5.58531 9.33659L11.8353 3.08659C12.0114 2.91047 12.2503 2.81152 12.4994 2.81152C12.7484 2.81152 12.9873 2.91047 13.1634 3.08659C13.3396 3.26271 13.4385 3.50158 13.4385 3.75065C13.4385 3.99972 13.3396 4.23859 13.1634 4.41471L7.57828 9.99987L13.1634 15.5866Z" fill="#555555"/>
</svg>
