<svg width="822" height="890" viewBox="0 0 822 890" fill="none" xmlns="http://www.w3.org/2000/svg">
<g clip-path="url(#clip0_1978_2)">
<path d="M668.24 759.6C667.69 759.6 667.15 759.29 666.89 758.76C666.53 758.02 666.83 757.12 667.58 756.75C669.99 755.56 672.61 754.31 675.57 752.91C676.32 752.56 677.21 752.88 677.57 753.63C677.92 754.38 677.6 755.27 676.85 755.63C674.19 756.88 671.54 758.15 668.9 759.45C668.68 759.55 668.46 759.6 668.24 759.6ZM687.99 750.28C687.42 750.28 686.88 749.96 686.63 749.41C686.28 748.66 686.61 747.77 687.36 747.42C691.36 745.56 695.27 743.75 699.12 741.91C699.87 741.56 700.76 741.87 701.12 742.62C701.48 743.37 701.16 744.26 700.41 744.62C696.55 746.46 692.63 748.28 688.62 750.14C688.41 750.23 688.2 750.28 687.99 750.28ZM711.42 739.03C710.87 739.03 710.35 738.73 710.08 738.21C709.7 737.47 710 736.57 710.73 736.19C714.84 734.09 718.57 732.08 722.12 730.06C722.84 729.65 723.76 729.9 724.17 730.62C724.58 731.34 724.33 732.26 723.61 732.67C720.02 734.71 716.26 736.74 712.1 738.86C711.89 738.98 711.65 739.03 711.42 739.03ZM733.97 726.11C733.48 726.11 733 725.87 732.71 725.43C732.26 724.74 732.45 723.81 733.15 723.35C736.83 720.95 740.37 718.44 743.67 715.91C744.33 715.41 745.27 715.53 745.77 716.19C746.27 716.85 746.15 717.79 745.49 718.29C742.13 720.87 738.52 723.42 734.78 725.86C734.54 726.03 734.25 726.11 733.97 726.11ZM754.56 710.28C754.15 710.28 753.75 710.11 753.45 709.79C752.89 709.18 752.94 708.23 753.55 707.67C756.72 704.78 759.78 701.73 762.65 698.6C763.21 697.99 764.16 697.95 764.77 698.51C765.38 699.07 765.42 700.02 764.86 700.63C761.93 703.83 758.8 706.95 755.57 709.9C755.28 710.15 754.92 710.28 754.56 710.28ZM772.08 691.14C771.76 691.14 771.44 691.04 771.17 690.83C770.51 690.33 770.38 689.39 770.89 688.73C773.45 685.37 775.92 681.82 778.23 678.17C778.67 677.47 779.6 677.26 780.3 677.71C781 678.15 781.21 679.08 780.76 679.78C778.4 683.5 775.88 687.13 773.27 690.55C772.98 690.94 772.53 691.14 772.08 691.14ZM786 669.24C785.76 669.24 785.52 669.18 785.3 669.07C784.57 668.68 784.29 667.78 784.68 667.04L785.11 666.23C786.88 662.82 788.54 659.18 790.05 655.39C790.36 654.62 791.23 654.24 792 654.55C792.77 654.86 793.15 655.73 792.84 656.5C791.3 660.38 789.6 664.13 787.78 667.62L787.34 668.45C787.05 668.94 786.53 669.24 786 669.24ZM795.63 645.13C795.49 645.13 795.35 645.11 795.21 645.07C794.41 644.84 793.96 644.01 794.19 643.21C795.37 639.18 796.4 634.97 797.27 630.71C797.44 629.9 798.23 629.37 799.04 629.54C799.85 629.71 800.38 630.5 800.21 631.31C799.33 635.65 798.27 639.94 797.07 644.05C796.88 644.71 796.28 645.13 795.63 645.13ZM800.85 619.69C800.79 619.69 800.72 619.69 800.66 619.68C799.84 619.58 799.26 618.83 799.36 618C799.89 613.79 800.28 609.47 800.51 605.16C800.55 604.33 801.27 603.7 802.09 603.74C802.92 603.78 803.55 604.49 803.51 605.32C803.27 609.7 802.88 614.09 802.34 618.37C802.24 619.13 801.59 619.69 800.85 619.69ZM802.25 593.75C801.43 593.75 800.76 593.09 800.75 592.27C800.68 587.99 800.47 583.65 800.11 579.39C800.04 578.56 800.65 577.84 801.48 577.77C802.3 577.7 803.03 578.31 803.1 579.14C803.47 583.47 803.69 587.88 803.75 592.23C803.76 593.06 803.1 593.74 802.27 593.75C802.27 593.75 802.26 593.75 802.25 593.75ZM800.07 567.85C799.34 567.85 798.7 567.32 798.59 566.58C797.93 562.33 797.12 558.07 796.18 553.91C796 553.1 796.5 552.3 797.31 552.11C798.12 551.92 798.92 552.43 799.11 553.24C800.07 557.46 800.9 561.79 801.56 566.11C801.69 566.93 801.13 567.69 800.31 567.82C800.22 567.85 800.14 567.85 800.07 567.85ZM794.3 542.52C793.66 542.52 793.06 542.1 792.87 541.46C791.62 537.35 790.2 533.25 788.66 529.28C788.36 528.51 788.74 527.64 789.52 527.34C790.29 527.04 791.16 527.42 791.46 528.2C793.03 532.24 794.47 536.4 795.74 540.59C795.98 541.38 795.53 542.22 794.74 542.46C794.59 542.5 794.44 542.52 794.3 542.52ZM177.56 523.5C175.39 523.5 173.2 523.47 171.05 523.41C170.22 523.39 169.57 522.7 169.59 521.87C169.61 521.04 170.31 520.4 171.13 520.41C175.39 520.53 179.71 520.53 184.04 520.41C184.87 520.37 185.56 521.04 185.58 521.87C185.6 522.7 184.95 523.39 184.12 523.41C181.94 523.47 179.73 523.5 177.56 523.5ZM197.06 522.7C196.29 522.7 195.63 522.11 195.57 521.32C195.5 520.49 196.12 519.77 196.94 519.7C201.18 519.36 205.5 518.9 209.79 518.33C210.61 518.22 211.36 518.8 211.47 519.62C211.58 520.44 211 521.19 210.18 521.3C205.84 521.87 201.47 522.34 197.18 522.69C197.14 522.7 197.1 522.7 197.06 522.7ZM158.12 522.66C158.08 522.66 158.03 522.66 157.99 522.65C153.6 522.26 149.23 521.73 144.99 521.08C144.17 520.95 143.61 520.19 143.74 519.37C143.87 518.55 144.63 517.99 145.45 518.12C149.62 518.76 153.93 519.28 158.26 519.67C159.09 519.74 159.7 520.47 159.62 521.3C159.54 522.07 158.88 522.66 158.12 522.66ZM222.83 519.31C222.12 519.31 221.49 518.8 221.36 518.08C221.21 517.27 221.75 516.48 222.57 516.34C226.76 515.58 231.02 514.7 235.23 513.73C236.03 513.54 236.84 514.05 237.03 514.85C237.22 515.66 236.71 516.46 235.91 516.65C231.66 517.63 227.35 518.52 223.11 519.29C223.01 519.3 222.92 519.31 222.83 519.31ZM132.44 518.68C132.33 518.68 132.22 518.67 132.11 518.64C127.79 517.66 123.53 516.52 119.44 515.24C118.65 514.99 118.21 514.15 118.45 513.36C118.7 512.57 119.54 512.12 120.33 512.37C124.34 513.62 128.53 514.74 132.77 515.7C133.58 515.88 134.08 516.69 133.9 517.5C133.75 518.2 133.13 518.68 132.44 518.68ZM784.89 518.31C784.33 518.31 783.79 518 783.54 517.46C781.68 513.59 779.66 509.76 777.52 506.08C777.1 505.36 777.35 504.45 778.06 504.03C778.77 503.61 779.69 503.86 780.11 504.57C782.29 508.32 784.35 512.22 786.25 516.16C786.61 516.91 786.29 517.8 785.55 518.16C785.33 518.26 785.11 518.31 784.89 518.31ZM248.15 513.47C247.49 513.47 246.89 513.03 246.7 512.37C246.48 511.57 246.95 510.75 247.75 510.53C251.91 509.38 256.07 508.21 260.25 507.02C261.04 506.79 261.88 507.25 262.1 508.05C262.33 508.85 261.87 509.68 261.07 509.9C256.88 511.1 252.7 512.27 248.54 513.42C248.42 513.45 248.28 513.47 248.15 513.47ZM107.66 510.92C107.47 510.92 107.28 510.88 107.09 510.81C102.96 509.12 98.9602 507.24 95.1902 505.24C94.4602 504.85 94.1802 503.94 94.5702 503.21C94.9602 502.48 95.8702 502.2 96.6002 502.59C100.28 504.55 104.2 506.38 108.23 508.04C109 508.35 109.36 509.23 109.05 510C108.81 510.57 108.25 510.92 107.66 510.92ZM273.16 506.32C272.51 506.32 271.91 505.9 271.72 505.24C271.49 504.45 271.94 503.61 272.73 503.38C276.87 502.16 281.02 500.92 285.18 499.66C285.97 499.42 286.81 499.87 287.05 500.66C287.29 501.45 286.84 502.29 286.05 502.53C281.88 503.79 277.73 505.03 273.58 506.26C273.44 506.3 273.3 506.32 273.16 506.32ZM298.02 498.8C297.38 498.8 296.79 498.39 296.59 497.74C296.35 496.95 296.79 496.11 297.58 495.86C301.7 494.59 305.83 493.3 309.97 492C310.76 491.75 311.6 492.19 311.85 492.98C312.1 493.77 311.66 494.61 310.87 494.86C306.73 496.16 302.6 497.45 298.47 498.72C298.32 498.78 298.17 498.8 298.02 498.8ZM84.7702 498.69C84.4802 498.69 84.1802 498.6 83.9202 498.43C80.2302 495.89 76.7402 493.14 73.5602 490.28C72.9502 489.73 72.9002 488.78 73.4502 488.16C74.0002 487.55 74.9502 487.5 75.5702 488.05C78.6502 490.83 82.0302 493.49 85.6202 495.96C86.3002 496.43 86.4702 497.36 86.0102 498.05C85.7202 498.46 85.2502 498.69 84.7702 498.69ZM771.83 495.87C771.36 495.87 770.89 495.65 770.6 495.23C768.15 491.72 765.53 488.27 762.81 484.98C762.28 484.34 762.37 483.4 763.01 482.87C763.65 482.34 764.59 482.43 765.12 483.07C767.89 486.42 770.56 489.93 773.06 493.51C773.53 494.19 773.37 495.12 772.69 495.6C772.42 495.78 772.12 495.87 771.83 495.87ZM322.8 491.03C322.16 491.03 321.57 490.62 321.37 489.98C321.12 489.19 321.56 488.35 322.35 488.1C326.47 486.79 330.6 485.48 334.72 484.15C335.51 483.9 336.35 484.33 336.61 485.12C336.86 485.91 336.43 486.75 335.64 487.01C331.51 488.33 327.38 489.65 323.26 490.96C323.1 491 322.95 491.03 322.8 491.03ZM347.55 483.11C346.92 483.11 346.33 482.7 346.12 482.07C345.87 481.28 346.3 480.44 347.09 480.18L359.47 476.2C360.26 475.95 361.1 476.38 361.36 477.17C361.61 477.96 361.18 478.8 360.39 479.06L348.01 483.04C347.86 483.09 347.71 483.11 347.55 483.11ZM65.6002 481.28C65.1702 481.28 64.7402 481.09 64.4402 480.73C61.6102 477.28 59.0802 473.62 56.9202 469.85C56.5102 469.13 56.7602 468.21 57.4802 467.8C58.2002 467.39 59.1102 467.64 59.5302 468.36C61.6002 471.98 64.0402 475.5 66.7702 478.83C67.3002 479.47 67.2002 480.42 66.5602 480.94C66.2702 481.17 65.9302 481.28 65.6002 481.28ZM755.27 475.87C754.88 475.87 754.49 475.72 754.2 475.42C751.21 472.37 748.06 469.41 744.82 466.61C744.19 466.07 744.12 465.12 744.67 464.49C745.21 463.86 746.16 463.79 746.79 464.34C750.09 467.19 753.31 470.21 756.35 473.32C756.93 473.91 756.92 474.86 756.33 475.44C756.03 475.73 755.65 475.87 755.27 475.87ZM372.32 475.16C371.69 475.16 371.1 474.75 370.89 474.12C370.64 473.33 371.07 472.49 371.86 472.23C375.99 470.91 380.13 469.59 384.26 468.27C385.05 468.02 385.89 468.46 386.14 469.25C386.39 470.04 385.95 470.88 385.16 471.13C381.03 472.44 376.9 473.76 372.77 475.08C372.62 475.14 372.47 475.16 372.32 475.16ZM397.13 467.28C396.49 467.28 395.9 466.87 395.7 466.23C395.45 465.44 395.89 464.6 396.68 464.35C400.83 463.05 404.98 461.75 409.12 460.47C409.91 460.23 410.75 460.67 411 461.46C411.24 462.25 410.8 463.09 410.01 463.34C405.87 464.62 401.73 465.91 397.58 467.22C397.43 467.26 397.28 467.28 397.13 467.28ZM422.02 459.59C421.38 459.59 420.78 459.17 420.58 458.53C420.34 457.74 420.79 456.9 421.58 456.66C425.74 455.4 429.9 454.15 434.05 452.92C434.84 452.69 435.68 453.14 435.91 453.93C436.14 454.72 435.69 455.56 434.9 455.79C430.76 457.02 426.61 458.26 422.45 459.52C422.31 459.57 422.17 459.59 422.02 459.59ZM735.63 458.9C735.32 458.9 735.01 458.81 734.75 458.61C731.32 456.11 727.72 453.69 724.06 451.44C723.35 451.01 723.13 450.08 723.57 449.38C724 448.67 724.93 448.45 725.63 448.89C729.36 451.18 733.02 453.64 736.52 456.19C737.19 456.68 737.34 457.62 736.85 458.29C736.55 458.68 736.09 458.9 735.63 458.9ZM52.7902 458.84C52.1702 458.84 51.6002 458.46 51.3802 457.84C49.9002 453.71 48.7802 449.4 48.0502 445.03C47.9102 444.21 48.4602 443.44 49.2802 443.3C50.0902 443.16 50.8702 443.71 51.0102 444.53C51.7202 448.73 52.7902 452.86 54.2102 456.82C54.4902 457.6 54.0802 458.46 53.3002 458.74C53.1202 458.81 52.9502 458.84 52.7902 458.84ZM446.96 452.21C446.31 452.21 445.71 451.78 445.52 451.12C445.29 450.32 445.75 449.49 446.55 449.26C450.73 448.06 454.91 446.88 459.08 445.72C459.88 445.5 460.7 445.97 460.93 446.76C461.15 447.56 460.68 448.38 459.89 448.61C455.73 449.76 451.56 450.94 447.39 452.14C447.24 452.19 447.1 452.21 446.96 452.21ZM713.53 445.28C713.3 445.28 713.06 445.23 712.84 445.11C709.07 443.17 705.15 441.33 701.18 439.63C700.42 439.3 700.06 438.42 700.39 437.66C700.72 436.9 701.6 436.54 702.36 436.87C706.39 438.59 710.38 440.47 714.21 442.44C714.95 442.82 715.24 443.72 714.86 444.46C714.59 444.99 714.07 445.28 713.53 445.28ZM472.02 445.27C471.36 445.27 470.75 444.83 470.57 444.15C470.36 443.35 470.83 442.53 471.63 442.32C475.91 441.18 480.15 440.08 484.23 439.05C485.03 438.85 485.85 439.33 486.05 440.14C486.25 440.95 485.77 441.76 484.96 441.96C480.89 442.99 476.66 444.08 472.39 445.22C472.28 445.25 472.15 445.27 472.02 445.27ZM497.24 438.91C496.56 438.91 495.95 438.45 495.78 437.76C495.59 436.95 496.09 436.15 496.89 435.95C501.17 434.93 505.44 433.95 509.59 433.04C510.4 432.86 511.2 433.37 511.38 434.18C511.56 434.99 511.05 435.79 510.24 435.97C506.11 436.88 501.85 437.86 497.59 438.87C497.47 438.9 497.35 438.91 497.24 438.91ZM689.66 435.06C689.5 435.06 689.33 435.03 689.17 434.98C685.17 433.59 681.03 432.3 676.85 431.16C676.05 430.94 675.58 430.12 675.8 429.32C676.02 428.52 676.84 428.05 677.64 428.27C681.88 429.43 686.09 430.74 690.15 432.15C690.93 432.42 691.35 433.28 691.07 434.06C690.86 434.68 690.28 435.06 689.66 435.06ZM522.63 433.32C521.93 433.32 521.31 432.83 521.16 432.12C521 431.31 521.52 430.52 522.33 430.35C526.65 429.48 530.96 428.65 535.13 427.89C535.94 427.74 536.73 428.28 536.87 429.1C537.02 429.91 536.48 430.7 535.66 430.84C531.51 431.59 527.22 432.42 522.92 433.29C522.83 433.31 522.73 433.32 522.63 433.32ZM48.4502 431.86H46.9502C46.9502 427.51 47.2802 423.11 47.9302 418.69C48.0502 417.87 48.8102 417.3 49.6302 417.42C50.4502 417.54 51.0202 418.3 50.9002 419.12C50.2702 423.39 49.9502 427.65 49.9502 431.77L48.4502 431.86ZM548.22 428.68C547.49 428.68 546.86 428.15 546.74 427.41C546.61 426.59 547.17 425.82 547.99 425.69C552.34 425 556.68 424.37 560.89 423.81C561.71 423.7 562.47 424.28 562.57 425.1C562.68 425.92 562.1 426.68 561.28 426.78C557.09 427.34 552.78 427.96 548.45 428.65C548.38 428.68 548.3 428.68 548.22 428.68ZM664.6 428.18C664.5 428.18 664.4 428.17 664.29 428.15C660.15 427.29 655.87 426.54 651.57 425.9C650.75 425.78 650.18 425.02 650.3 424.2C650.42 423.38 651.18 422.81 652 422.93C656.36 423.57 660.69 424.34 664.89 425.21C665.7 425.38 666.22 426.17 666.05 426.98C665.93 427.69 665.3 428.18 664.6 428.18ZM573.99 425.28C573.23 425.28 572.58 424.71 572.5 423.94C572.41 423.12 573.01 422.38 573.84 422.29C578.22 421.83 582.6 421.45 586.84 421.14C587.68 421.09 588.38 421.7 588.44 422.53C588.5 423.36 587.88 424.07 587.05 424.13C582.84 424.43 578.5 424.82 574.15 425.27C574.1 425.28 574.05 425.28 573.99 425.28ZM638.89 424.37C638.84 424.37 638.8 424.37 638.75 424.36C634.55 423.97 630.21 423.67 625.85 423.47C625.02 423.43 624.38 422.73 624.42 421.9C624.46 421.07 625.15 420.43 625.99 420.47C630.39 420.67 634.78 420.97 639.03 421.37C639.85 421.45 640.46 422.18 640.38 423C640.31 423.79 639.66 424.37 638.89 424.37ZM599.92 423.42C599.12 423.42 598.45 422.78 598.42 421.98C598.39 421.15 599.04 420.46 599.86 420.42C604.08 420.26 608.29 420.18 612.36 420.18C612.37 420.18 612.38 420.18 612.39 420.18H612.92C613.75 420.18 614.42 420.86 614.42 421.68C614.42 422.51 613.75 423.18 612.92 423.18H612.4C612.39 423.18 612.38 423.18 612.37 423.18C608.34 423.18 604.17 423.26 599.99 423.42C599.96 423.41 599.94 423.42 599.92 423.42ZM52.1302 407.71C52.0002 407.71 51.8602 407.69 51.7302 407.65C50.9302 407.43 50.4702 406.6 50.6902 405.8C51.8302 401.71 53.2502 397.52 54.9102 393.34C55.2202 392.57 56.0902 392.19 56.8602 392.5C57.6302 392.81 58.0102 393.68 57.7002 394.45C56.0802 398.53 54.6902 402.62 53.5802 406.61C53.3902 407.27 52.7902 407.71 52.1302 407.71ZM86.8702 384.61C83.6102 384.61 80.0702 384.45 76.3502 384.14C75.5202 384.07 74.9102 383.35 74.9802 382.52C75.0502 381.69 75.7602 381.07 76.6002 381.15C81.2302 381.53 85.5802 381.67 89.4202 381.57C90.2702 381.52 90.9402 382.2 90.9602 383.03C90.9802 383.86 90.3302 384.55 89.5002 384.57C88.6502 384.6 87.7702 384.61 86.8702 384.61ZM61.6502 383.56C61.4202 383.56 61.1902 383.51 60.9702 383.4C60.2302 383.02 59.9402 382.12 60.3102 381.38C60.4002 381.19 60.5002 381.01 60.5902 380.83C57.2802 379.65 54.0902 378.17 51.0802 376.42C50.3602 376 50.1202 375.08 50.5402 374.37C50.9602 373.65 51.8802 373.41 52.5902 373.83C55.5702 375.57 58.7302 377.02 62.0302 378.16C63.6902 375.24 65.4702 372.55 67.3402 370.14C67.8502 369.49 68.7902 369.37 69.4402 369.88C70.0902 370.39 70.2102 371.33 69.7002 371.98C67.9902 374.18 66.3602 376.62 64.8302 379.28C65.1602 379.66 65.3002 380.19 65.1502 380.71C64.9302 381.44 64.2102 381.88 63.4702 381.76C63.3002 382.08 63.1302 382.41 62.9702 382.74C62.7202 383.26 62.2002 383.56 61.6502 383.56ZM102.34 383.04C101.66 383.04 101.05 382.58 100.88 381.89C100.68 381.09 101.18 380.27 101.98 380.08C106.87 378.89 110.49 376.99 112.45 374.58C112.97 373.94 113.92 373.84 114.56 374.36C115.2 374.88 115.3 375.83 114.78 376.47C112.37 379.43 108.31 381.62 102.7 382.99C102.58 383.03 102.46 383.04 102.34 383.04ZM41.4902 368.82C41.1202 368.82 40.7502 368.68 40.4602 368.41C37.3102 365.42 34.4302 362 31.8802 358.26C31.4102 357.57 31.5902 356.64 32.2802 356.18C32.9702 355.71 33.9002 355.89 34.3602 356.58C36.7902 360.14 39.5302 363.4 42.5302 366.25C43.1302 366.82 43.1502 367.77 42.5802 368.37C42.2802 368.66 41.8902 368.82 41.4902 368.82ZM113.19 365.11C112.74 365.11 112.3 364.91 112 364.53C109.79 361.69 106.14 359.4 101.96 358.25C101.16 358.03 100.69 357.21 100.91 356.41C101.13 355.61 101.95 355.14 102.75 355.36C107.61 356.69 111.73 359.3 114.36 362.69C114.87 363.34 114.75 364.29 114.09 364.79C113.83 365 113.51 365.11 113.19 365.11ZM77.7802 363.48C77.3102 363.48 76.8602 363.26 76.5602 362.86C76.0802 362.19 76.2302 361.25 76.9002 360.77C80.7702 357.98 84.9002 356.07 89.1702 355.12C89.9802 354.94 90.7802 355.45 90.9602 356.25C91.1402 357.06 90.6302 357.86 89.8302 358.04C85.9602 358.91 82.2002 360.65 78.6602 363.2C78.3902 363.39 78.0802 363.48 77.7802 363.48ZM26.8602 347.54C26.2802 347.54 25.7302 347.2 25.4802 346.64C23.7502 342.7 22.3102 338.49 21.1902 334.13C20.9802 333.33 21.4702 332.51 22.2702 332.3C23.0702 332.09 23.8902 332.58 24.1002 333.38C25.1802 337.58 26.5702 341.64 28.2402 345.43C28.5702 346.19 28.2302 347.07 27.4702 347.41C27.2702 347.5 27.0602 347.54 26.8602 347.54ZM20.3202 322.48C19.5702 322.48 18.9202 321.91 18.8302 321.15C18.4302 317.51 18.2202 313.76 18.2202 310.02C18.2202 309.34 18.2302 308.66 18.2402 307.98C18.2602 307.15 18.9702 306.51 19.7702 306.51C20.6002 306.53 21.2602 307.21 21.2402 308.04C21.2302 308.7 21.2202 309.36 21.2202 310.02C21.2202 313.65 21.4202 317.29 21.8102 320.82C21.9002 321.64 21.3102 322.38 20.4802 322.48C20.4302 322.47 20.3802 322.48 20.3202 322.48ZM20.7902 296.55C20.7202 296.55 20.6502 296.55 20.5802 296.53C19.7602 296.41 19.1902 295.65 19.3102 294.83C19.9302 290.51 20.8102 286.17 21.9402 281.92C22.1502 281.12 22.9802 280.64 23.7702 280.86C24.5702 281.07 25.0502 281.89 24.8302 282.69C23.7302 286.82 22.8702 291.05 22.2702 295.25C22.1702 296.01 21.5302 296.55 20.7902 296.55ZM27.4402 271.47C27.2602 271.47 27.0702 271.44 26.8902 271.36C26.1202 271.06 25.7402 270.18 26.0502 269.41C27.6602 265.33 29.5302 261.32 31.6002 257.47C31.9902 256.74 32.9002 256.47 33.6302 256.86C34.3602 257.25 34.6302 258.16 34.2402 258.89C32.2302 262.63 30.4102 266.55 28.8402 270.51C28.6102 271.11 28.0402 271.47 27.4402 271.47ZM39.7302 248.63C39.4302 248.63 39.1302 248.54 38.8702 248.36C38.1902 247.88 38.0302 246.95 38.5002 246.27C41.0202 242.68 43.7702 239.22 46.6902 235.96C47.2402 235.34 48.1902 235.29 48.8102 235.84C49.4302 236.39 49.4802 237.34 48.9302 237.96C46.0902 241.13 43.4102 244.5 40.9602 247.99C40.6702 248.41 40.2102 248.63 39.7302 248.63ZM57.0502 229.33C56.6302 229.33 56.2202 229.16 55.9202 228.82C55.3702 228.2 55.4302 227.25 56.0602 226.7C59.3302 223.82 62.8302 221.1 66.4402 218.61C67.1202 218.14 68.0602 218.31 68.5302 218.99C69.0002 219.67 68.8302 220.61 68.1502 221.08C64.6302 223.51 61.2302 226.16 58.0402 228.95C57.7502 229.21 57.4002 229.33 57.0502 229.33ZM78.3802 214.6C77.8402 214.6 77.3302 214.31 77.0602 213.81C76.6702 213.08 76.9502 212.17 77.6802 211.78C81.4902 209.74 85.5002 207.88 89.6002 206.23C90.3702 205.92 91.2402 206.29 91.5502 207.06C91.8602 207.83 91.4902 208.7 90.7202 209.01C86.7302 210.62 82.8202 212.44 79.1002 214.43C78.8602 214.54 78.6202 214.6 78.3802 214.6ZM102.43 204.88C101.78 204.88 101.18 204.45 100.99 203.8C100.76 203 101.22 202.17 102.01 201.94C106.13 200.74 110.42 199.71 114.77 198.87C115.58 198.71 116.37 199.25 116.53 200.06C116.69 200.87 116.16 201.66 115.34 201.82C111.08 202.64 106.88 203.65 102.85 204.83C102.71 204.86 102.57 204.88 102.43 204.88ZM127.9 199.92C127.14 199.92 126.49 199.35 126.41 198.58C126.32 197.76 126.92 197.02 127.74 196.93C131.99 196.47 136.39 196.17 140.81 196.03C141.63 196 142.33 196.65 142.36 197.48C142.39 198.31 141.74 199 140.91 199.03C136.57 199.17 132.24 199.47 128.07 199.91C128 199.92 127.95 199.92 127.9 199.92Z" fill="#FF665D"/>
<path d="M477.63 542.12C460.81 548.8 452.59 567.83 459.26 584.65C465.93 601.46 484.98 609.68 501.79 603C518.6 596.33 526.82 577.28 520.15 560.48C513.48 543.66 494.44 535.45 477.63 542.12ZM492.84 580.43C488.49 582.16 483.57 580.03 481.84 575.68C480.12 571.34 482.23 566.41 486.59 564.68C490.93 562.96 495.86 565.08 497.59 569.43C499.31 573.78 497.19 578.7 492.84 580.43Z" fill="white"/>
<path d="M561.03 530.19L542.61 531.45C539.57 527.52 536.1 523.98 532.34 520.88L533.99 502.38C534.27 499.25 532.51 496.29 529.62 495.05L518.57 490.28C515.66 489.02 512.27 489.79 510.19 492.18L498.04 506.11H498.03C493.19 505.49 488.26 505.41 483.32 505.88L471.4 491.63C469.38 489.22 466.05 488.37 463.12 489.53L451.94 493.97C449 495.14 447.14 498.08 447.36 501.24L448.62 519.68C444.69 522.71 441.16 526.15 438.06 529.92C438.06 529.92 438.06 529.93 438.05 529.93L419.55 528.28C416.42 528 413.46 529.76 412.22 532.65L407.45 543.7C406.19 546.61 406.96 550 409.35 552.08L423.26 564.21C422.65 569.06 422.57 574 423.05 578.95L408.81 590.87C406.4 592.89 405.55 596.22 406.71 599.15L411.15 610.33C412.32 613.27 415.26 615.13 418.42 614.91L436.84 613.65C439.88 617.58 443.35 621.12 447.11 624.22L445.46 642.72C445.18 645.85 446.94 648.81 449.83 650.05L460.88 654.82C463.79 656.08 467.18 655.31 469.26 652.92L481.41 638.99C486.25 639.61 491.17 639.69 496.12 639.2H496.13L508.06 653.46C510.08 655.87 513.41 656.72 516.34 655.56L527.52 651.12C530.46 649.95 532.32 647.01 532.1 643.85L530.84 625.42C530.84 625.42 530.84 625.42 530.85 625.41C534.78 622.36 538.32 618.92 541.4 615.15L541.41 615.14L559.91 616.79C563.04 617.07 566 615.31 567.24 612.42L572 601.4C573.26 598.49 572.49 595.1 570.1 593.02L556.19 580.89C556.8 576.04 556.88 571.1 556.4 566.15L570.64 554.23C573.05 552.21 573.9 548.88 572.74 545.95L568.3 534.77C567.12 531.82 564.19 529.97 561.03 530.19ZM507.39 617.07C482.81 626.83 454.96 614.81 445.2 590.23C435.44 565.65 447.46 537.8 472.04 528.04C496.62 518.28 524.45 530.31 534.21 554.89C543.98 579.47 531.97 607.31 507.39 617.07Z" fill="#3B393A"/>
<path d="M635.46 475.97C626.59 477.92 620.98 486.67 622.92 495.54C624.86 504.4 633.63 510.01 642.5 508.07C651.36 506.13 656.97 497.36 655.03 488.5C653.08 479.63 644.32 474.03 635.46 475.97ZM639.89 496.17C637.59 496.67 635.33 495.22 634.83 492.93C634.33 490.64 635.77 488.37 638.07 487.87C640.36 487.37 642.63 488.82 643.13 491.11C643.63 493.4 642.18 495.67 639.89 496.17Z" fill="white"/>
<path d="M677.72 476.81L668.5 475.94C667.31 473.75 665.88 471.71 664.27 469.87L666.58 460.84C666.97 459.31 666.34 457.7 665.01 456.85L659.92 453.59C658.58 452.73 656.84 452.84 655.62 453.85L648.48 459.77H648.47C646.12 459.07 643.69 458.63 641.2 458.47L636.45 450.45C635.65 449.09 634.06 448.4 632.52 448.74L626.62 450.03C625.07 450.37 623.91 451.68 623.76 453.26L622.89 462.5C620.7 463.68 618.67 465.1 616.83 466.72L607.8 464.41C606.27 464.02 604.66 464.65 603.81 465.98L600.55 471.07C599.69 472.41 599.8 474.15 600.81 475.37L606.72 482.5C606.03 484.85 605.58 487.29 605.42 489.78L597.4 494.53C596.04 495.33 595.35 496.92 595.69 498.46L596.98 504.36C597.32 505.91 598.63 507.07 600.21 507.22L609.43 508.09C610.62 510.28 612.05 512.32 613.66 514.16L611.35 523.19C610.96 524.72 611.59 526.33 612.92 527.18L618.01 530.44C619.35 531.3 621.09 531.19 622.31 530.18L629.45 524.27C631.8 524.97 634.23 525.41 636.72 525.57H636.73L641.48 533.6C642.28 534.96 643.87 535.65 645.41 535.31L651.31 534.02C652.86 533.68 654.02 532.37 654.17 530.79L655.04 521.56C657.23 520.37 659.26 518.95 661.1 517.34L670.13 519.65C671.66 520.04 673.27 519.41 674.12 518.08L677.38 512.99C678.24 511.65 678.13 509.91 677.12 508.69L671.21 501.55C671.9 499.2 672.34 496.76 672.51 494.27L680.53 489.52C681.89 488.72 682.58 487.13 682.24 485.59L680.95 479.69C680.61 478.12 679.3 476.96 677.72 476.81ZM644.13 515.5C631.17 518.34 618.35 510.14 615.51 497.17C612.67 484.21 620.87 471.39 633.84 468.55C646.8 465.71 659.61 473.91 662.46 486.88C665.29 499.84 657.09 512.65 644.13 515.5Z" fill="#504D4E"/>
<path d="M228.81 35.7104C217.09 38.2804 209.67 49.8604 212.24 61.5804C214.81 73.3004 226.4 80.7104 238.12 78.1404C249.84 75.5704 257.25 63.9803 254.68 52.2703C252.11 40.5503 240.52 33.1404 228.81 35.7104ZM234.67 62.4104C231.63 63.0804 228.64 61.1504 227.98 58.1304C227.32 55.1004 229.23 52.1104 232.26 51.4404C235.29 50.7804 238.29 52.7004 238.95 55.7204C239.61 58.7504 237.69 61.7504 234.67 62.4104Z" fill="white"/>
<path d="M284.67 36.8196L272.48 35.6696C270.91 32.7696 269.02 30.0796 266.89 27.6496L269.95 15.7196C270.47 13.6996 269.63 11.5796 267.87 10.4496L261.15 6.14956C259.38 5.01956 257.08 5.15956 255.46 6.49956L246.02 14.3196H246.01C242.91 13.3996 239.69 12.8096 236.4 12.5996L230.12 1.99956C229.06 0.209563 226.96 -0.700436 224.93 -0.260436L217.13 1.44956C215.08 1.89956 213.55 3.62956 213.35 5.71956L212.2 17.9296C209.3 19.4896 206.63 21.3696 204.19 23.4996C204.19 23.4996 204.19 23.4996 204.18 23.4996L192.24 20.4396C190.22 19.9196 188.1 20.7596 186.97 22.5196L182.67 29.2396C181.54 31.0096 181.68 33.3096 183.02 34.9296L190.83 44.3596C189.91 47.4696 189.33 50.6896 189.12 53.9896L178.52 60.2696C176.73 61.3296 175.82 63.4296 176.26 65.4596L177.97 73.2596C178.42 75.3096 180.15 76.8396 182.24 77.0396L194.43 78.1896C196 81.0896 197.89 83.7796 200.02 86.2096L196.96 98.1396C196.44 100.16 197.28 102.28 199.04 103.41L205.76 107.71C207.53 108.84 209.83 108.7 211.45 107.36L220.89 99.5396C223.99 100.46 227.21 101.05 230.49 101.25H230.5L236.78 111.86C237.84 113.65 239.94 114.56 241.97 114.12L249.77 112.41C251.82 111.96 253.35 110.23 253.55 108.14L254.7 95.9396C257.6 94.3696 260.28 92.4896 262.7 90.3596C262.7 90.3596 262.7 90.3596 262.71 90.3496L274.65 93.4096C276.67 93.9296 278.79 93.0896 279.92 91.3296L284.22 84.6096C285.35 82.8396 285.21 80.5396 283.87 78.9196L276.06 69.4896C276.98 66.3796 277.56 63.1596 277.77 59.8596L288.37 53.5796C290.16 52.5196 291.07 50.4196 290.63 48.3896L288.92 40.5896C288.49 38.5396 286.76 37.0196 284.67 36.8196ZM240.27 87.9596C223.13 91.7196 206.19 80.8696 202.43 63.7396C198.67 46.5996 209.52 29.6596 226.65 25.8996C243.79 22.1396 260.72 32.9896 264.48 50.1296C268.24 67.2596 257.41 84.1996 240.27 87.9596Z" fill="#504D4E"/>
<path d="M182.7 396.58C167.89 396.58 155.32 384.54 154.27 368.9L139.43 148.99C138.9 141.11 141.34 133.5 146.3 127.56C149.1 124.2 152.65 121.52 156.56 119.81C159.45 118.53 162.54 117.77 165.73 117.56L540.81 92.2398C548.38 91.7298 555.7 94.3297 561.42 99.5597C567.12 104.77 570.56 111.98 571.09 119.86L585.93 339.77C586.46 347.64 584.03 355.25 579.08 361.18C574.11 367.13 567.21 370.69 559.64 371.2L184.56 396.52C183.93 396.56 183.31 396.58 182.7 396.58ZM542.67 95.1797C542.12 95.1797 541.56 95.1998 541.01 95.2398L165.93 120.56C163.09 120.75 160.34 121.43 157.77 122.57C154.28 124.1 151.11 126.5 148.6 129.5C144.14 134.84 141.94 141.69 142.42 148.8L157.26 368.71C158.25 383.34 170.39 394.47 184.35 393.53L559.43 368.21C566.17 367.75 572.33 364.58 576.77 359.26C581.22 353.92 583.41 347.07 582.93 339.97L568.09 120.06C567.61 112.96 564.52 106.47 559.39 101.78C554.7 97.4898 548.81 95.1797 542.67 95.1797Z" fill="#131313"/>
<path d="M457.9 390.25C460.14 395.02 449.78 397.69 450.45 398.56C455.7 405.37 473.34 394.66 477.45 396.73C483.56 399.8 467.01 409.17 458.79 412.32C454.08 414.12 444.06 410.72 435.59 408.14L431.96 398.5C438.03 393.46 446.3 394.08 452.95 390.9C454.8 390 457.21 388.78 457.9 390.25Z" fill="#FFD8B5"/>
<path d="M215.58 412.85C242.4 419.07 247.3 404.23 265.53 412.93C283.76 421.63 305.23 407.18 309.55 384.72C315.25 355.06 291.2 357.4 295.04 326.03C296.95 320.34 300.04 315.24 302.19 309.66C303.38 306.56 304.23 303.31 304.51 299.95C304.82 296.27 304.48 292.55 303.71 289.01C302.68 284.21 300.89 279.77 298.82 275.51C296.39 266.12 293.29 258.91 293.29 258.91C293.39 258.73 293.47 258.54 293.56 258.36C294.27 257.65 294.9 256.78 295.41 256.04C296.45 254.54 297.29 252.84 297.91 251.06C300.27 244.27 299.04 236.98 295.53 231.27C293.7 228.28 273.59 219.64 264.29 224.2C264.29 224.2 251.02 222.49 242.35 233.06C241.89 233.51 241.44 233.96 241 234.42C238.45 237.08 236.18 240.11 234.26 243.39C230.8 249.3 228.39 256.06 227.32 263.05C226.73 266.89 226.71 270.76 226.96 274.62C227.25 279.17 227.78 283.72 227.46 288.31C226.91 296.23 223.35 303.7 217.91 308.62C215.1 311.17 211.46 313.16 208.46 315.78C204.88 317.79 201.2 319.65 198.78 322.55C176.66 348.88 191.33 407.22 215.58 412.85ZM296.15 319.51C297.02 315.43 298.3 310.86 300.07 305.71C302.76 297.89 301.63 287.59 299.59 278.63C301.43 283.11 302.94 287.76 303.49 292.75C303.91 296.53 303.78 300.42 302.79 304.11C301.95 307.26 300.65 310.24 299.26 313.12C298.24 315.24 297.16 317.35 296.15 319.51ZM291.89 228.34C295.21 231.99 297.37 236.96 297.79 242.57C298.04 245.93 297.51 249.36 296.3 252.46C296 253.22 295.66 253.96 295.28 254.67C297.74 245.84 296.63 235.33 291.89 228.34ZM215.78 311.7C217.68 310.37 219.51 308.94 221.12 307.1C225.97 301.57 228.76 294.04 228.89 286.25C228.96 281.83 228.41 277.46 228.15 273.08C227.92 269.28 228.05 265.47 228.61 261.69C229.65 254.62 232.25 247.86 235.95 242.06C237.07 240.3 238.31 238.64 239.63 237.07C224.39 263.46 232.68 278.67 231.08 292.65C229.96 302.32 223.26 307.4 215.78 311.7Z" fill="#6B2E00"/>
<path d="M333.62 843.53C323.48 840.79 321.65 834.95 318.51 828.14C315.37 821.33 307.12 817.74 307.12 817.74L301.04 835.21L294.65 833.19C295.28 831.71 296.27 819.93 296.68 811.34C296.74 810.1 296.79 808.94 296.8 807.89L296.81 807.85C296.83 806 296.86 804.51 296.82 803.49C296.61 797.91 305.26 785.01 305.26 785.01C305.3 785.06 305.48 785.03 305.51 785.08C312.33 789.57 321.29 790.98 329.66 789.75C329.66 789.75 329.65 789.79 329.67 789.91C329.67 789.91 329.66 789.95 329.65 789.99C329.62 790.51 329.62 791.88 329.71 793.84C329.97 798.42 330.93 806.17 334.35 813.77C335.26 815.82 336.74 818.04 338.53 820.32C346.07 829.81 359.16 840.57 358.93 845.25C358.69 851.05 343.76 846.27 333.62 843.53Z" fill="#FF665D"/>
<path d="M344.43 827.04C325.54 840.01 305.37 785.02 305.37 785.02C306.8 785.62 312.98 746.15 312.98 746.15C312.98 746.15 336.18 753.35 342.35 752.45C338.91 771.61 324.37 799.02 344.43 827.04Z" fill="#FFD5B3"/>
<path d="M267.56 490.78C278.42 550.41 301.93 581.56 323.49 619.16L271.75 791.35C294.98 799.77 325.35 806.61 349.69 808.55C354.04 774.59 381.76 654.73 384.94 611.58C387.31 579.37 332.82 467.55 332.82 467.55L267.56 490.78Z" fill="#504D4E"/>
<path d="M304.27 320.73C306.52 323.05 309.51 377.49 311.33 381C312.64 383.11 344.46 415.16 356.87 419.63C378.77 427.52 375.82 403.41 375.82 403.41C375.82 403.41 352.94 358.26 337.36 339.62C323.84 323.43 307.7 320.96 304.27 320.73Z" fill="#E3292A"/>
<path d="M363.16 421.83C378.88 425.52 422 415.96 439.06 411.96C440.07 408.98 440.14 397.06 436.8 392.77C424.09 394.3 357.34 393.69 357.34 393.69C357.34 393.69 337.61 415.83 363.16 421.83Z" fill="#E3292A"/>
<path d="M288.91 849.25C278.51 848.85 275.62 843.18 271.27 836.81C266.92 830.44 258.2 828.7 258.2 828.7L255.57 848.48L248.96 847.93C249.3 846.23 248.04 833.65 246.82 824.55C246.65 823.24 246.47 822.01 246.29 820.91V820.87C245.96 818.92 245.71 817.36 245.48 816.3C244.22 810.51 250.22 794.88 250.22 794.88C250.26 794.92 250.44 794.85 250.48 794.89C257.98 797.93 266.98 797.22 274.91 793.89C274.91 793.89 274.91 793.93 274.95 794.06C274.95 794.06 274.95 794.1 274.95 794.14C275.02 794.69 275.28 796.13 275.74 798.16C276.86 802.89 279.26 810.78 284.03 817.9C285.31 819.83 287.17 821.79 289.35 823.74C298.5 831.84 313.29 839.92 313.95 844.87C314.78 851.01 299.32 849.64 288.91 849.25Z" fill="#FF665D"/>
<path d="M296.35 829.33C280.37 847.52 250.33 794.85 250.33 794.85C251.83 795.14 245.27 753.59 245.27 753.59C245.27 753.59 274.9 756.09 280.75 753.64C280.98 774.57 271.49 804.89 296.35 829.33Z" fill="#FFD5B3"/>
<path d="M233.46 811.42C240.27 815.6 254.45 816.5 269.8 815.69C286.98 814.77 307.58 809.88 307.58 809.88C307.58 809.88 296.36 679.2 297.97 635.26C299.42 595.62 311.26 521.22 305.54 476.77C305.15 473.73 299.89 460.68 299.48 457.76L238.87 458.53C224.64 510.95 244.89 588.95 243.01 637.5L233.46 811.42Z" fill="#3C393A"/>
<path d="M244.5 407.57C243.3 398.09 241.08 388.94 238.37 380.6C236.86 375.83 241.43 371.03 239.76 366.89C232.99 350.27 223.56 332.66 223.56 332.66C236.38 324.53 249.23 320.92 262.52 317.12L286.71 314.8C286.71 314.8 310.01 320.43 317.32 328.64C332.75 346.04 327 371.39 324.8 384.99C323.34 393.96 322.47 400.95 322.65 407.84C322.91 420.36 325.14 443.91 335.34 467.07C344.79 488.42 258.61 506.79 233.93 474.61C231.75 461.16 247.69 433.1 244.5 407.57Z" fill="#FF665D"/>
<path d="M290.64 318.46C282.6 327.37 272.98 328.7 259.55 323.43C261.74 322.23 261.64 319.55 262.51 317.13C264.04 312.94 265.38 307.84 263.93 300.33L285.66 297.45C285.17 301.42 285.31 305.51 286 309.05C286.84 313.42 288.45 316.96 290.64 318.46Z" fill="#FFD5B3"/>
<path d="M288.12 315.4C288.12 315.4 296.67 313.94 295.78 319.84C294.89 325.74 290.76 332.24 286.41 331.34C282.06 330.44 277.61 327.6 277.61 327.6C277.61 327.6 272.65 333.14 267.7 333.79C262.04 334.54 253.46 324.69 254.74 321.33C256.42 316.95 262.51 317.12 262.51 317.12C262.51 317.12 269.73 324.76 277.69 324C285.65 323.24 288.12 315.4 288.12 315.4Z" fill="white"/>
<path d="M280.319 337.49C281.595 337.092 282.302 335.718 281.897 334.421C281.492 333.124 280.13 332.395 278.854 332.793C277.578 333.191 276.872 334.565 277.277 335.862C277.681 337.159 279.044 337.888 280.319 337.49Z" fill="white"/>
<path d="M282.66 348.279C283.936 347.881 284.642 346.507 284.237 345.21C283.833 343.913 282.47 343.184 281.194 343.582C279.919 343.98 279.212 345.354 279.617 346.651C280.022 347.948 281.384 348.677 282.66 348.279Z" fill="white"/>
<path d="M191.18 288.23C185.75 286.17 183.71 297.78 182.7 297.12C174.77 291.94 185.02 271.66 182.39 267.32C178.49 260.88 169.62 279.84 166.87 289.15C165.3 294.47 169.88 305.19 173.45 314.26L184.35 317.43C189.37 310.33 187.98 301.3 190.9 293.73C191.72 291.61 192.86 288.86 191.18 288.23Z" fill="#FFD8B5"/>
<path d="M159.26 380.28C159.26 380.28 192.99 351.84 219.35 335.01C245.27 318.47 263.29 345.47 244.87 365.23C218.01 394.04 189.85 403.36 172.88 407.27C149.31 412.7 159.26 380.28 159.26 380.28Z" fill="#E3292A"/>
<path d="M164.41 310.09C160.7 327.4 149.65 382.74 156.33 398.2C162.13 411.62 170.48 407.16 187.88 397.44C188.12 391.69 187.88 323.88 190.3 312.63C185.95 308.65 167.69 309.25 164.41 310.09Z" fill="#E3292A"/>
<path d="M285.68 306.29C285.68 306.29 285.33 312.86 278.42 313.48C268.91 314.33 264.74 301.4 264.74 301.4L285.68 306.29Z" fill="#EDD6C7"/>
<path d="M239.91 269.13C241.36 266.77 244.29 267.1 246.78 267.97C249.08 268.77 250.51 270.52 250.3 272.43C249.81 277.03 253.59 281.49 254.93 286.1C238.55 287.01 237.11 273.66 239.91 269.13Z" fill="#FFD5B3"/>
<path d="M242.81 272.45C243.93 271.91 245.66 271.92 246.4 272.78C246.72 273.16 246.02 273.6 245.62 273.24C245.31 272.97 244.79 272.87 244.33 273.03C243.92 273.17 243.6 273.56 243.44 273.86C242.96 274.78 243.66 275.77 244.22 276.55C244.78 277.32 245.49 278.04 246.29 278.68C247.14 279.36 248.25 279.82 249.11 280.49C249.92 281.12 248.72 282.28 247.66 281.91C246.84 281.63 246.19 281.12 245.56 280.66C244.98 280.23 244.45 279.75 243.97 279.26C242.98 278.25 242.11 277.1 241.66 275.87C241.25 274.78 241.3 273.18 242.81 272.45Z" fill="#EDD6C7"/>
<path d="M245.66 265.31C247.69 290.73 261.99 309.32 281.85 307.73C300.74 306.22 313.12 284.19 309.37 257.84C305.78 232.59 293.35 220.59 273.49 222.18C253.64 223.76 243.62 239.89 245.66 265.31Z" fill="#FFD5B3"/>
<path d="M289.74 277.51C288.78 275.3 286.79 274.57 285.82 268.56C285.2 272.25 287.39 276.71 288.23 278.59C289.94 282.41 283.02 282.29 285.09 282.56C287.59 282.89 291.64 281.9 289.74 277.51Z" fill="#EDD6C7"/>
<path d="M294.02 260.79C298.82 257.63 305.19 261.46 305.7 263.55C305.83 264.1 305.3 263.6 302.94 262.27C301.19 261.33 297.98 261.33 296.16 262.04C294.26 262.78 291.74 262.45 294.02 260.79Z" fill="#6B2E00"/>
<path d="M276.17 289.18C276.2 290.84 276.93 292.33 278.11 293.42C279.37 294.6 281.14 295.32 283.09 295.28C285.18 295.24 287.04 294.34 288.25 292.96C289.22 291.86 289.8 290.45 289.77 288.92C289.71 285.47 285.39 288.15 282.85 288.2C280.73 288.24 276.11 285.73 276.17 289.18Z" fill="#942525"/>
<path d="M278.11 293.42C279.37 294.6 281.14 295.32 283.09 295.28C285.18 295.24 287.04 294.34 288.25 292.96C287.21 291.95 285.36 291.3 283.26 291.34C281 291.39 279.05 292.23 278.11 293.42Z" fill="#FF7878"/>
<path d="M291.59 270.43C292.66 274.22 303.17 273.56 304.69 272.26C304.77 272.19 304.85 272.11 304.93 272.04C304.94 272.04 304.94 272.03 304.94 272.03C305.61 270.77 306.12 268.62 306.12 268.62C306.12 268.62 304.04 266.77 302.95 266.27C302.94 266.27 302.93 266.26 302.9 266.25C302.63 266.13 301.56 265.68 300.14 265.43C298.2 265.09 295.61 265.12 293.58 266.88C293.35 267.08 291.96 268.28 291.51 269.85C291.51 270.05 291.54 270.24 291.59 270.43Z" fill="#943F27"/>
<path d="M291.4 271.4C291.84 274.14 295.71 275.55 298.42 275.54C298.69 275.54 299.46 275.52 300.42 275.26C301.32 275.03 302.38 274.59 303.37 273.76C303.5 273.66 304 273.25 304.52 272.65C304.66 272.49 304.8 272.28 304.93 272.04C304.94 272.04 304.94 272.03 304.94 272.03C305.61 270.77 306.12 268.62 306.12 268.62C306.12 268.62 304.04 266.77 302.95 266.27C302.94 266.27 302.93 266.26 302.9 266.25C302.63 266.13 301.56 265.68 300.14 265.43C298.2 265.09 295.61 265.12 293.58 266.88C293.35 267.08 291.96 268.28 291.51 269.85C291.37 270.34 291.31 270.86 291.4 271.4Z" fill="white"/>
<path d="M299.71 275.31C302.632 275.31 305 272.942 305 270.02C305 267.099 302.632 264.73 299.71 264.73C296.788 264.73 294.42 267.099 294.42 270.02C294.42 272.942 296.788 275.31 299.71 275.31Z" fill="#B56953"/>
<path d="M299.81 273.1C301.616 273.1 303.08 271.636 303.08 269.83C303.08 268.024 301.616 266.56 299.81 266.56C298.004 266.56 296.54 268.024 296.54 269.83C296.54 271.636 298.004 273.1 299.81 273.1Z" fill="#2E130C"/>
<path d="M297.39 268.95C297.843 268.95 298.21 268.582 298.21 268.13C298.21 267.677 297.843 267.31 297.39 267.31C296.937 267.31 296.57 267.677 296.57 268.13C296.57 268.582 296.937 268.95 297.39 268.95Z" fill="white"/>
<path d="M296.7 271.35C296.954 271.35 297.16 271.144 297.16 270.89C297.16 270.636 296.954 270.43 296.7 270.43C296.446 270.43 296.24 270.636 296.24 270.89C296.24 271.144 296.446 271.35 296.7 271.35Z" fill="white"/>
<path d="M291.51 269.86C291.96 268.28 293.35 267.09 293.58 266.89C295.61 265.13 298.2 265.11 300.14 265.44C301.55 265.69 302.62 266.14 302.9 266.26C302.92 266.27 302.93 266.28 302.95 266.28C304.05 266.78 306.12 268.63 306.12 268.63C306.12 268.63 305.61 270.78 304.94 272.04C305.46 271.54 305.71 271.09 305.71 271.09C305.83 270.88 306.04 270.46 306.24 269.93C306.49 269.26 306.51 268.96 306.73 268.89C306.91 268.83 307.68 270.37 309.63 269.9C309.8 269.86 309.97 269.65 309.97 269.65C309.2 269.88 307.84 269.04 306.25 267.25C301.95 262.38 294.17 263 291.96 268.05C291.77 268.49 291.49 269.15 291.51 269.86Z" fill="#6B2E00"/>
<path d="M277.38 271.49C276.92 275.4 266.44 276.42 264.74 275.37C264.65 275.31 264.55 275.25 264.47 275.19C264.46 275.19 264.46 275.18 264.46 275.18C263.6 274.04 262.75 272 262.75 272C262.75 272 264.51 269.84 265.51 269.18C265.52 269.18 265.53 269.16 265.55 269.15C265.8 268.99 266.79 268.38 268.14 267.9C270 267.26 272.57 266.87 274.85 268.29C275.11 268.45 276.67 269.41 277.37 270.9C277.4 271.09 277.4 271.29 277.38 271.49Z" fill="#943F27"/>
<path d="M277.72 272.41C277.72 275.19 274.12 277.19 271.44 277.62C271.17 277.66 270.41 277.77 269.42 277.66C268.5 277.58 267.38 277.31 266.27 276.65C266.12 276.57 265.57 276.24 264.96 275.74C264.8 275.61 264.63 275.42 264.46 275.2C264.45 275.2 264.45 275.19 264.45 275.19C263.59 274.05 262.74 272.01 262.74 272.01C262.74 272.01 264.5 269.85 265.5 269.19C265.51 269.19 265.52 269.17 265.54 269.16C265.79 269 266.78 268.39 268.13 267.91C269.99 267.27 272.56 266.88 274.84 268.3C275.1 268.46 276.66 269.42 277.36 270.91C277.59 271.35 277.72 271.86 277.72 272.41Z" fill="white"/>
<path d="M271.62 277.48C274.542 277.48 276.91 275.112 276.91 272.19C276.91 269.269 274.542 266.9 271.62 266.9C268.698 266.9 266.33 269.269 266.33 272.19C266.33 275.112 268.698 277.48 271.62 277.48Z" fill="#B56953"/>
<path d="M271.49 275.28C273.296 275.28 274.76 273.816 274.76 272.01C274.76 270.204 273.296 268.74 271.49 268.74C269.684 268.74 268.22 270.204 268.22 272.01C268.22 273.816 269.684 275.28 271.49 275.28Z" fill="#2E130C"/>
<path d="M273.61 270.78C274.063 270.78 274.43 270.412 274.43 269.96C274.43 269.507 274.063 269.14 273.61 269.14C273.157 269.14 272.79 269.507 272.79 269.96C272.79 270.412 273.157 270.78 273.61 270.78Z" fill="white"/>
<path d="M274.73 273.03C274.984 273.03 275.19 272.824 275.19 272.57C275.19 272.316 274.984 272.11 274.73 272.11C274.476 272.11 274.27 272.316 274.27 272.57C274.27 272.824 274.476 273.03 274.73 273.03Z" fill="white"/>
<path d="M277.37 270.9C276.67 269.42 275.11 268.46 274.85 268.29C272.57 266.87 270 267.26 268.14 267.9C266.79 268.37 265.8 268.99 265.55 269.15C265.53 269.16 265.52 269.17 265.51 269.18C264.51 269.85 262.75 272 262.75 272C262.75 272 263.6 274.04 264.46 275.18C263.87 274.77 263.54 274.37 263.54 274.37C263.39 274.18 263.11 273.8 262.83 273.3C262.48 272.68 262.4 272.38 262.18 272.35C261.99 272.32 261.48 273.96 259.47 273.81C259.3 273.79 259.1 273.62 259.1 273.62C259.9 273.72 261.11 272.68 262.39 270.66C265.86 265.17 273.65 264.55 276.62 269.18C276.9 269.6 277.28 270.21 277.37 270.9Z" fill="#6B2E00"/>
<path d="M274.11 262.09C268.87 259.73 263.18 264.53 263.02 266.67C262.98 267.23 263.42 266.65 265.54 264.96C267.11 263.75 270.28 263.25 272.2 263.66C274.19 264.1 276.62 263.37 274.11 262.09Z" fill="#6B2E00"/>
<path d="M308.47 247.65C309.7 252.29 308.93 256.3 308.93 256.3C304.79 257.12 305.38 246.6 300.57 242.54C302.69 246.63 305.29 253.54 302.07 256.72C300.78 257.99 290.24 258.27 287.51 257.24C286.34 256.8 283.91 243.63 283.91 243.63C283.91 243.63 284.98 256.62 283.88 257.74C282.76 258.87 267.88 258.81 266.16 257.39C265.43 256.79 263.26 244.07 263.26 244.07C263.26 244.07 263.8 256.11 261.79 258.39C260.98 259.31 255.17 263.22 251.59 260.63C250.41 259.78 249.68 249.45 249.68 249.45C249.27 257.66 249.52 266.03 245.27 266.85L243.67 248.47C243.67 248.47 248.77 223.83 273.1 222.01C292.72 220.56 304.21 231.58 308.47 247.65Z" fill="#6B2E00"/>
<path d="M818.51 854.19H3.49023C1.83023 854.19 0.490234 852.85 0.490234 851.19C0.490234 849.53 1.83023 848.19 3.49023 848.19H818.5C820.16 848.19 821.5 849.53 821.5 851.19C821.5 852.85 820.16 854.19 818.51 854.19Z" fill="#6E3F3C"/>
<path d="M399.52 890.381H174.68C173.02 890.381 171.68 889.041 171.68 887.381C171.68 885.721 173.02 884.381 174.68 884.381H399.52C401.18 884.381 402.52 885.721 402.52 887.381C402.52 889.041 401.18 890.381 399.52 890.381Z" fill="#6E3F3C"/>
<path d="M679.31 890.381H590.15C588.49 890.381 587.15 889.041 587.15 887.381C587.15 885.721 588.49 884.381 590.15 884.381H679.31C680.97 884.381 682.31 885.721 682.31 887.381C682.31 889.041 680.96 890.381 679.31 890.381Z" fill="#6E3F3C"/>
<path d="M153.77 890.381H120.82C119.16 890.381 117.82 889.041 117.82 887.381C117.82 885.721 119.16 884.381 120.82 884.381H153.77C155.43 884.381 156.77 885.721 156.77 887.381C156.77 889.041 155.43 890.381 153.77 890.381Z" fill="#6E3F3C"/>
<path d="M577.04 114.29L198.37 140.28C195.27 140.49 192.33 141.24 189.62 142.43C185.81 144.09 182.47 146.63 179.82 149.79C175.27 155.21 172.71 162.43 173.24 170.17L188.33 390.07C189.39 405.55 202.37 417.26 217.3 416.24L595.97 390.25C610.91 389.22 622.16 375.84 621.09 360.37L606 140.47C604.95 124.98 591.98 113.27 577.04 114.29ZM334.61 347.22C334.83 350.36 332.44 353.1 329.3 353.32L219.03 360.89C215.87 361.11 213.15 358.72 212.93 355.58L203.82 222.87C203.6 219.73 205.98 216.99 209.13 216.77L319.4 209.2C322.54 208.98 325.28 211.37 325.5 214.51L334.61 347.22Z" fill="#131313"/>
<path d="M572.76 139.241L209.86 164.151C204.32 164.531 200.14 169.331 200.52 174.861C200.9 180.401 205.7 184.581 211.23 184.201L574.13 159.291C579.67 158.911 583.85 154.111 583.47 148.581C583.09 143.041 578.3 138.861 572.76 139.241Z" fill="#2D2D2D"/>
<path d="M333.08 373.96L218.09 381.85C216.24 381.98 214.85 383.58 214.98 385.42C215.11 387.27 216.71 388.66 218.55 388.53L333.54 380.64C335.39 380.51 336.78 378.91 336.65 377.07C336.52 375.23 334.93 373.84 333.08 373.96Z" fill="#2D2D2D"/>
<path d="M360.59 213.09L583.49 197.79C585.34 197.66 586.73 196.06 586.6 194.22C586.47 192.38 584.87 190.98 583.03 191.11L360.13 206.41C358.28 206.54 356.89 208.14 357.02 209.98C357.15 211.83 358.75 213.22 360.59 213.09Z" fill="#2D2D2D"/>
<path d="M584.92 218.6L435.69 228.84C433.84 228.97 432.45 230.57 432.58 232.41C432.71 234.26 434.3 235.65 436.15 235.52L585.38 225.28C587.23 225.15 588.62 223.55 588.49 221.71C588.37 219.86 586.77 218.47 584.92 218.6Z" fill="#2D2D2D"/>
<path d="M362.48 240.581L418.74 236.721C420.59 236.591 421.98 234.991 421.85 233.151C421.72 231.301 420.12 229.911 418.28 230.041L362.02 233.901C360.17 234.031 358.78 235.631 358.91 237.471C359.04 239.311 360.63 240.711 362.48 240.581Z" fill="#2D2D2D"/>
<path d="M364.37 268.06L525.51 257C527.36 256.87 528.75 255.27 528.62 253.43C528.49 251.58 526.89 250.19 525.05 250.32L363.91 261.38C362.06 261.51 360.67 263.11 360.8 264.95C360.92 266.8 362.52 268.19 364.37 268.06Z" fill="#2D2D2D"/>
<path d="M552.38 276.06L404.26 286.23C402.41 286.36 401.02 287.96 401.15 289.8C401.28 291.65 402.88 293.04 404.72 292.91L552.84 282.74C554.69 282.61 556.08 281.01 555.95 279.17C555.82 277.33 554.22 275.94 552.38 276.06Z" fill="#2D2D2D"/>
<path d="M366.25 295.55L388.43 294.03C390.28 293.9 391.67 292.3 391.54 290.46C391.41 288.61 389.81 287.22 387.97 287.35L365.79 288.87C363.94 289 362.55 290.6 362.68 292.44C362.81 294.28 364.41 295.68 366.25 295.55Z" fill="#2D2D2D"/>
<path d="M470.66 309.291L367.68 316.361C365.83 316.491 364.44 318.091 364.57 319.931C364.7 321.781 366.3 323.171 368.14 323.041L471.12 315.971C472.97 315.841 474.36 314.241 474.23 312.401C474.1 310.551 472.51 309.161 470.66 309.291Z" fill="#2D2D2D"/>
<path d="M586.81 246.08L543.05 249.08C541.2 249.21 539.81 250.81 539.94 252.65C540.07 254.5 541.66 255.89 543.51 255.76L587.27 252.76C589.12 252.63 590.51 251.03 590.38 249.19C590.25 247.35 588.65 245.96 586.81 246.08Z" fill="#2D2D2D"/>
<path d="M591.48 339.841L578.69 340.721C575.88 340.911 573.75 343.351 573.94 346.171L574.82 358.961C575.01 361.771 577.45 363.901 580.27 363.711L593.06 362.831C595.87 362.641 598 360.201 597.81 357.381L596.93 344.591C596.73 341.781 594.29 339.651 591.48 339.841Z" fill="#2D2D2D"/>
<path d="M552.17 342.54L539.38 343.42C536.57 343.61 534.44 346.05 534.63 348.87L535.51 361.66C535.7 364.47 538.14 366.6 540.96 366.41L553.75 365.53C556.56 365.34 558.69 362.9 558.5 360.08L557.62 347.29C557.42 344.47 554.99 342.35 552.17 342.54Z" fill="#2D2D2D"/>
<path d="M512.86 345.24L500.07 346.12C497.26 346.31 495.13 348.75 495.32 351.57L496.2 364.36C496.39 367.17 498.83 369.3 501.65 369.11L514.44 368.23C517.25 368.04 519.38 365.6 519.19 362.78L518.31 349.99C518.12 347.17 515.68 345.05 512.86 345.24Z" fill="#2D2D2D"/>
<path d="M175.6 270.51C176.79 266.86 185.06 260.25 187.2 267.24C188.87 272.68 182 280.17 182.29 290.83C182.53 299.35 182.09 304.85 182.09 304.85C182.09 304.85 169.89 288.03 175.6 270.51Z" fill="#FFD8B5"/>
<path d="M475.04 403.1C478.26 401.76 483.7 393.59 477.18 392.37C467.35 390.52 466.17 396.87 456.17 398.48C448.53 399.71 443.49 400.71 443.49 400.71C443.49 400.71 459.58 409.51 475.04 403.1Z" fill="#FFD8B5"/>
<path d="M605.66 559.05V847.16C571.19 847.17 539.96 833.23 517.32 810.67C481.43 774.91 480.51 730.58 480.5 722.24C486.83 710.34 494.99 691.27 497.44 666.65C501.55 625.51 487.24 593.8 480.24 580.48C499.1 576.28 522.29 565.84 545.97 550.3L605.52 559.07L605.66 559.05Z" fill="#FF665D"/>
<path d="M729.81 721.78C729.82 730.11 729.07 774.45 693.32 810.34C670.71 833.03 639.45 847.1 604.89 847.16H604.67V559.05L663.7 550.09C687.43 565.54 710.67 575.9 729.55 580.02C722.6 593.36 708.42 625.13 712.67 666.26C715.21 690.86 723.43 709.9 729.81 721.78Z" fill="#FF665D"/>
<path d="M605.65 578.98V824.98C578.16 824.98 552.3 814.3 532.81 794.9C508.05 770.24 503.39 740.05 502.6 726.7C511.56 708.47 517.1 689.1 519.1 669.1C521.62 643.84 518.45 618.8 509.68 594.58C523.51 589.16 538.21 581.64 552.66 572.57L605.5 579.01L605.65 578.98Z" fill="white"/>
<path d="M707.7 726.27C706.96 739.63 702.4 769.83 677.75 794.58C658.3 814.1 632.41 824.88 604.85 824.94H604.67V578.94L657.07 572.33C671.55 581.34 686.29 588.81 700.13 594.18C691.45 618.44 688.37 643.49 690.98 668.75C693.05 688.73 698.68 708.08 707.7 726.27Z" fill="white"/>
<path d="M619.79 626.359H591.53C580.93 626.359 572.35 634.949 572.35 645.539V685.839H581.51V646.679C581.51 640.519 586.51 635.519 592.67 635.519H618.65C624.81 635.519 629.81 640.519 629.81 646.679V685.839H638.97V645.539C638.98 634.949 630.39 626.359 619.79 626.359Z" fill="#FF665D"/>
<path d="M551.53 682.84V697.56C551.53 727.46 575.77 751.69 605.66 751.69C635.56 751.69 659.79 727.45 659.79 697.56V682.84C659.79 674.04 652.66 666.91 643.86 666.91H567.45C558.66 666.91 551.53 674.04 551.53 682.84Z" fill="#FF665D"/>
<path d="M605.66 730.979C618.937 730.979 629.7 720.216 629.7 706.939C629.7 693.662 618.937 682.899 605.66 682.899C592.383 682.899 581.62 693.662 581.62 706.939C581.62 720.216 592.383 730.979 605.66 730.979Z" fill="white"/>
<path d="M612.21 699.36C612.21 695.63 609.09 692.62 605.31 692.83C601.95 693.01 599.22 695.81 599.13 699.17C599.06 701.63 600.35 703.78 602.29 704.96L601.1 719.94C601.05 720.55 601.54 721.08 602.15 721.08H609.18C609.8 721.08 610.28 720.55 610.23 719.94L609.04 704.96C610.94 703.81 612.21 701.73 612.21 699.36Z" fill="#FF665D"/>
<path d="M457.13 42.8404L462.74 37.1904C464.01 35.9104 464.01 33.8304 462.72 32.5604C461.44 31.2904 459.36 31.2904 458.09 32.5804L452.48 38.2304L446.83 32.6204C445.55 31.3504 443.47 31.3504 442.2 32.6404C440.93 33.9204 440.93 36.0004 442.22 37.2704L447.87 42.8804L442.27 48.5204C441 49.8004 441 51.8804 442.29 53.1504C442.93 53.7904 443.77 54.1004 444.61 54.1004C445.45 54.1004 446.28 53.7704 446.92 53.1304L452.52 47.4904L458.16 53.0904C458.8 53.7304 459.64 54.0404 460.48 54.0404C461.32 54.0404 462.15 53.7104 462.79 53.0704C464.06 51.7904 464.06 49.7104 462.77 48.4404L457.13 42.8404Z" fill="#FF665D"/>
<path d="M712.63 367.34C705.54 367.37 699.75 361.619 699.72 354.519C699.69 347.429 705.44 341.639 712.54 341.609C719.63 341.579 725.42 347.329 725.45 354.429C725.47 361.519 719.72 367.31 712.63 367.34ZM712.55 345.64C707.68 345.66 703.73 349.64 703.74 354.51C703.76 359.38 707.74 363.33 712.61 363.32C717.48 363.3 721.43 359.32 721.42 354.45C721.4 349.57 717.42 345.62 712.55 345.64Z" fill="#FF665D"/>
<path d="M104.46 581.86C105.1 582.88 105.3 584.12 105.01 585.33C104.62 586.94 103.45 588.17 101.86 588.64L86.5699 593.16C84.9899 593.63 83.3199 593.23 82.1299 592.09C80.9299 590.95 80.4499 589.31 80.8399 587.71L84.5699 572.21C84.9599 570.6 86.1299 569.37 87.7199 568.9C89.2999 568.43 90.9599 568.83 92.1599 569.97L103.72 580.95C104 581.22 104.25 581.53 104.46 581.86ZM84.4499 589.28C84.5099 589.37 84.5699 589.44 84.6099 589.48C84.7299 589.6 85.0699 589.85 85.5499 589.71L100.84 585.19C101.32 585.05 101.47 584.65 101.51 584.49C101.55 584.33 101.6 583.91 101.24 583.56L89.6799 572.57C89.3099 572.22 88.8999 572.3 88.7399 572.34C88.5799 572.39 88.1899 572.55 88.0699 573.04L84.3399 588.54C84.2599 588.87 84.3399 589.12 84.4499 589.28Z" fill="white"/>
</g>
<defs>
<clipPath id="clip0_1978_2">
<rect width="822" height="890" fill="white"/>
</clipPath>
</defs>
</svg>
