<svg width="127" height="83" viewBox="0 0 127 83" fill="none" xmlns="http://www.w3.org/2000/svg">
<mask id="mask0_2042_2" style="mask-type:luminance" maskUnits="userSpaceOnUse" x="0" y="1" width="127" height="81">
<path d="M0.527832 9.21565C0.527832 4.97425 3.96595 1.53613 8.20735 1.53613H118.792C123.034 1.53613 126.472 4.97425 126.472 9.21565V73.7236C126.472 77.965 123.034 81.4031 118.792 81.4031H8.20735C3.96595 81.4031 0.527832 77.965 0.527832 73.7236V9.21565Z" fill="white"/>
</mask>
<g mask="url(#mask0_2042_2)">
<path d="M0.527832 9.21565C0.527832 4.97425 3.96595 1.53613 8.20735 1.53613H118.792C123.034 1.53613 126.472 4.97425 126.472 9.21565V73.7236C126.472 77.965 123.034 81.4031 118.792 81.4031H8.20735C3.96595 81.4031 0.527832 77.965 0.527832 73.7236V9.21565Z" stroke="#131313" stroke-width="4.74074" stroke-linecap="round" stroke-linejoin="round"/>
<path fill-rule="evenodd" clip-rule="evenodd" d="M50.8842 42.9338L50.9625 42.9161C51.576 42.768 52.1232 42.4207 52.5183 41.9285C52.91 41.4386 53.1227 40.835 53.1227 40.2129C53.1227 38.9327 52.2319 37.8192 50.9625 37.5097L50.8834 37.4905L50.8842 42.9338ZM40.3594 26.6517L42.2002 24.6988L42.4843 24.7433C44.2921 25.0221 45.9666 25.8622 47.2709 27.1447C48.5601 28.4119 49.4061 30.0612 49.6831 31.8476L50.2828 35.758L50.8826 39.6684C51.8986 34.8204 51.6191 31.0098 50.0432 28.2359C49.8328 23.6805 47.3124 20.5956 42.482 18.9821C39.5338 11.8233 28.324 14.1617 23.6595 20.6709C21.3526 23.8893 20.3059 28.2037 20.517 33.6124C20.5908 35.4985 20.8181 37.5166 21.1974 39.6684L22.4722 32.3268C22.6096 31.5398 22.9271 30.7952 23.3999 30.1512C23.8771 29.5019 24.4955 28.9694 25.2085 28.5938C25.9271 28.2151 26.7212 28.0013 27.5329 27.9681C28.3446 27.9349 29.1534 28.0831 29.9006 28.4018L30.5319 28.6706C32.1855 29.3756 34.0147 29.5594 35.7755 29.1974C37.529 28.8403 39.1292 27.9514 40.3594 26.6517ZM20.4303 42.9338C19.787 42.7938 19.2105 42.4393 18.7953 41.9285C18.4048 41.4419 18.1916 40.8368 18.1909 40.2129C18.1909 38.9327 19.1608 37.8 20.4303 37.4905V42.9338Z" fill="#F9B9B9"/>
<path d="M27.833 55.1821V58.174L28.1102 58.4067C30.2034 60.1508 32.8536 61.0848 35.5778 61.0385C38.3011 60.9999 40.9197 59.9832 42.9555 58.174V55.0945L41.3574 56.0898C39.5676 57.2026 37.5018 57.7916 35.3943 57.79C33.2816 57.79 31.2128 57.2002 29.4311 56.0898L27.833 55.0938V55.1821Z" fill="#F9B9B9"/>
<path d="M20.4302 37.49L20.5515 42.8173C20.5515 45.1887 21.1628 47.5225 22.3286 49.6014C23.5039 51.6903 25.1876 53.4486 27.2235 54.7136L27.8332 55.0938L29.4306 56.0898C31.2206 57.2027 33.2867 57.7917 35.3945 57.79C37.5063 57.79 39.576 57.2003 41.3576 56.0898L42.955 55.0945L43.567 54.7136C45.6024 53.4485 47.2855 51.6901 48.4604 49.6014C49.6243 47.5297 50.2363 45.1936 50.2374 42.8173V36.4003L50.2835 35.7575L49.6838 31.8471C49.4068 30.0607 48.5608 28.4114 47.2716 27.1442C45.9671 25.8615 44.2923 25.0215 42.4842 24.7428L42.2008 24.6982L40.3601 26.6511C39.1301 27.9507 37.5295 28.8396 35.7761 29.1969C34.0145 29.5578 32.1821 29.3735 30.5326 28.6693L29.9006 28.4013C29.1533 28.0825 28.3445 27.9344 27.5328 27.9676C26.7211 28.0008 25.927 28.2145 25.2084 28.5933C24.4957 28.969 23.8776 29.5015 23.4006 30.1507C22.9278 30.7947 22.6103 31.5393 22.4729 32.3263L21.1981 39.6679C20.8188 37.5161 20.5914 35.4979 20.5177 33.6119L20.4302 37.49Z" fill="#F9B9B9"/>
<path d="M39.6735 26.6515C38.4435 27.9511 36.8429 28.84 35.0896 29.1973C33.3279 29.5582 31.4956 29.3739 29.846 28.6697L29.214 28.4017C28.4668 28.0829 27.6579 27.9347 26.8462 27.9679C26.0346 28.0011 25.2405 28.2149 24.5218 28.5937C23.8092 28.9693 23.1911 29.5018 22.7141 30.1511C22.2412 30.795 21.9237 31.5396 21.7864 32.3267L20.5116 39.6683C19.0433 31.3437 19.8634 25.0112 22.9736 20.6707C27.6382 14.1616 38.848 11.8231 41.7961 18.9828C46.6266 20.5955 49.147 23.6803 49.3574 28.2358C50.9332 31.0096 51.2128 34.8202 50.1975 39.6683L48.9972 31.8475C48.7203 30.0611 47.8743 28.4117 46.5851 27.1445C45.2806 25.8619 43.6058 25.0218 41.7977 24.7432L41.5143 24.6986L39.6735 26.6515ZM14.3511 59.2495C28.1329 55.7356 42.5762 55.7356 56.358 59.2495V68.1808H14.3511V59.2495Z" fill="#F16667"/>
<path d="M66.4027 18.42H102.016M66.4027 27.3513H83.753M66.4027 36.2825H92.8847M99.2772 64.8641H105.67M79.1868 64.8641H92.8847M95.624 57.7191H105.67M86.4923 57.7191H89.2324M73.7082 57.7191H80.0999M27.7932 55.1826V58.1745L28.0704 58.4072C30.1636 60.1513 32.8138 61.0853 35.538 61.039C38.2613 61.0004 40.8799 59.9837 42.9157 58.1745V55.4544M27.7932 57.0871C24.451 57.0871 21.7732 57.5617 18.5685 58.494L14.9976 59.5361M43.5623 57.0863C46.9044 57.0863 50.2281 57.5625 53.4335 58.4948L57.0045 59.5361M20.3893 37.4905L20.5107 42.8178C20.5107 45.1892 21.122 47.523 22.2885 49.6019C23.4637 51.6907 25.147 53.4491 27.1826 54.7141L29.3905 56.0903C31.1803 57.2031 33.2461 57.7921 35.3537 57.7905C37.4655 57.7905 39.5351 57.2008 41.3168 56.0903L43.5262 54.7149C45.5616 53.4495 47.2447 51.6909 48.4196 49.6019C49.5835 47.5302 50.1954 45.1941 50.1966 42.8178V36.4008M20.3893 37.4905L21.079 37.5105C19.8095 37.8192 18.15 38.9327 18.15 40.2137C18.15 40.8349 18.3627 41.4386 18.7544 41.9285C19.1696 42.4393 19.7461 42.7938 20.3893 42.9338V37.4905ZM20.5107 40.2129H19.9516M50.7549 40.2129H50.1966M50.8432 42.9338L50.9216 42.9161C51.5351 42.768 52.0823 42.4207 52.4774 41.9285C52.8691 41.4386 53.0818 40.8349 53.0818 40.2129C53.0818 38.9327 52.191 37.8192 50.9216 37.5097L50.8432 37.4905V42.9338ZM40.32 26.6517L42.1615 24.6988L42.4441 24.7433C44.2523 25.022 45.927 25.862 47.2316 27.1447C48.5208 28.4119 49.3667 30.0612 49.6437 31.8476L50.844 39.6684C51.8592 34.8204 51.5797 31.0098 50.0039 28.2359C49.7934 23.6805 47.273 20.5956 42.4426 18.9821C39.4944 11.8233 28.2847 14.1617 23.6201 20.6709C20.5099 25.0113 19.6897 31.3438 21.1581 39.6684L22.4329 32.3268C22.5702 31.5398 22.8877 30.7952 23.3606 30.1512C23.8378 29.5019 24.4561 28.9694 25.1691 28.5938C25.8877 28.2151 26.6818 28.0013 27.4935 27.9681C28.3052 27.9349 29.1141 28.0831 29.8613 28.4018L30.4925 28.6706C32.1461 29.3756 33.9753 29.5594 35.7361 29.1974C37.4897 28.8403 39.0898 27.9513 40.32 26.6517Z" stroke="#131313" stroke-width="2.37037" stroke-linecap="round" stroke-linejoin="round"/>
</g>
</svg>
