<svg width="240" height="137" viewBox="0 0 240 137" fill="none" xmlns="http://www.w3.org/2000/svg">
<path d="M118.569 64.0644C118.864 64.4141 119.163 64.7605 119.507 65.1657C119.615 65.2932 119.609 65.4925 119.491 65.6102C117.471 67.6266 115.136 69.058 112.322 69.5809C107.048 70.5645 102.644 68.7279 98.8925 65.1461C93.4716 59.9728 90.6906 53.5609 90.1003 46.1458C89.4378 37.8253 92.0712 30.6422 97.5774 24.4427C98.5711 23.3218 98.5711 23.3381 99.7189 24.3153C100.818 25.2499 101.903 26.2042 103.471 26.2598C105.261 26.3251 106.465 25.3709 107.432 24.0244C109.561 21.057 110.574 17.6256 111.413 14.1484C112.512 9.60258 113.358 5.13517 113.529 0.448809C113.529 0.409592 113.535 0.357304 113.545 0.291943C113.575 0.0631803 113.781 -0.0577371 113.994 0.0272319C120.176 2.5044 124.853 6.79207 128.788 11.9948C132.615 17.057 135.514 22.5669 137.055 28.884C137.151 29.2794 137.41 29.3284 137.642 28.9951C137.846 28.7043 138.043 28.4101 138.213 28.1029C138.925 26.8121 139.59 25.4983 140.289 24.2009C140.712 23.4166 141.184 23.3512 141.814 24.0506C146.585 29.3546 149.465 35.4037 149.639 42.6653C149.757 47.5837 149.025 52.2897 146.904 56.7277C144.3 62.1657 140.663 66.669 134.858 68.9599C129.677 71.0057 123.82 69.4796 120.281 65.5546C120.183 65.4435 120.176 65.2572 120.265 65.1396C120.429 64.9239 120.596 64.7049 120.763 64.486C120.77 64.4762 120.783 64.4631 120.793 64.4533C121.219 64.0252 121.649 63.6004 122.075 63.1722C126.082 59.182 130.087 55.195 134.094 51.2047C134.12 51.1557 134.16 51.0838 134.183 51.0348L134.612 48.8484C134.612 48.8452 134.616 48.8354 134.616 48.8321L135.117 46.8321C135.117 46.7863 135.117 46.7177 135.117 46.6719C134.829 45.5543 134.54 44.4399 134.251 43.3222C134.242 43.2993 134.229 43.2634 134.219 43.2405L133.218 41.4953C133.202 41.4757 133.179 41.4431 133.163 41.4235C132.654 40.9234 132.146 40.4234 131.638 39.9234L131.644 39.93C129.936 38.4593 127.932 38.2698 125.784 38.7143C125.774 38.7175 125.761 38.7208 125.754 38.7208L123.324 39.4267C123.298 39.4398 123.256 39.4594 123.229 39.4724C122.173 40.2045 121.117 40.9365 120.061 41.6718C119.937 41.6718 119.812 41.6718 119.687 41.6718C118.795 41.0607 117.907 40.4463 117.015 39.8352C116.998 39.8254 116.975 39.8123 116.959 39.8058L115.293 39.0868C115.277 39.0803 115.254 39.0737 115.237 39.0672C114.657 38.9299 114.08 38.796 113.499 38.6587C113.479 38.6554 113.447 38.6522 113.424 38.6489L110.84 38.6456C110.794 38.6554 110.728 38.675 110.682 38.6848L108.055 40.0999L107.583 40.3515C107.557 40.3711 107.517 40.4038 107.494 40.4234L106.776 41.2274C106.77 41.2339 106.76 41.247 106.753 41.2568L106.294 41.9039H106.304C106.042 42.3385 105.779 42.7732 105.517 43.2045C105.507 43.2274 105.491 43.2634 105.481 43.2862C105.251 44.1131 105.022 44.9431 104.792 45.7699C104.789 45.7961 104.782 45.8353 104.779 45.8582L104.789 47.0706C104.789 47.0837 104.792 47.1033 104.792 47.1164L105.097 49.1687C105.107 49.2014 105.123 49.2504 105.137 49.2798L106.448 51.6165C106.475 51.6655 106.494 51.7505 106.488 51.806L106.478 51.9204C106.517 52.0086 106.563 52.1165 106.602 52.2047C107.727 53.0903 108.603 54.2276 109.616 55.2276C112.591 58.1689 115.572 61.1003 118.549 64.035C118.553 64.0481 118.563 64.0579 118.569 64.0644Z" fill="#F16667"/>
<path d="M107.329 118.152C109.389 119.504 112.316 120.472 115.561 120.472C119.082 120.472 122.278 118.584 122.278 115.071C122.278 112.695 120.707 111.075 117.187 109.187C112.964 106.921 109.768 104.059 109.768 99.6864C109.768 92.7194 115.836 88.4014 123.201 88.4014C127.265 88.4014 129.917 89.3755 131.329 90.2348L129.269 95.4176C128.078 94.7718 125.639 93.7429 122.712 93.7976C118.648 93.7976 116.374 96.1181 116.374 98.548C116.374 101.033 118.434 102.543 121.844 104.431C126.287 106.752 128.94 109.669 128.94 114.096C128.94 121.386 122.981 125.863 114.853 125.863C110.41 125.808 106.78 124.566 105.154 123.324L107.329 118.152Z" fill="black"/>
<path d="M159.827 99.0391L156.362 117.182C155.769 120.312 155.384 123.065 155.06 125.336H149.426L150.024 120.75H149.914C147.366 124.149 144.065 125.933 140.759 125.933C136.915 125.933 133.878 123.88 133.878 118.484C133.878 117.083 134.043 115.567 134.422 113.788L137.239 99.05H143.522L140.814 113.411C140.545 114.708 140.38 115.999 140.38 117.028C140.38 119.19 141.248 120.755 143.741 120.755C146.669 120.755 150.024 117.302 151.112 111.846L153.49 99.0391H159.827Z" fill="black"/>
<path d="M162.754 130.027C164.269 130.946 167.197 131.592 169.69 131.592C173.809 131.592 176.95 129.649 178.252 123.547L178.9 120.581H178.79C176.621 123.711 173.858 125.222 170.503 125.222C165.247 125.222 162.27 120.904 162.27 115.934C162.215 107.134 168.553 98.4434 179.499 98.4434C182.909 98.4434 186.215 99.1986 188.654 100.277L184.645 121.982C183.667 127.11 182.206 131.215 179.229 133.699C176.467 135.965 172.782 136.616 169.476 136.616C166.065 136.616 162.918 135.916 161.188 134.838L162.754 130.027ZM181.822 104.009C181.119 103.686 179.762 103.363 178.301 103.363C172.776 103.363 168.877 109.301 168.877 114.971C168.877 117.724 169.959 120.318 173.1 120.318C176.242 120.318 179.383 116.591 180.306 111.841L181.822 104.009Z" fill="black"/>
<path d="M208.315 125.332C208.315 123.766 208.529 121.659 208.749 119.448H208.639C206.036 124.253 202.516 125.928 199.16 125.928C194.448 125.928 191.356 122.256 191.356 116.964C191.356 107.999 197.639 98.4434 209.941 98.4434C212.813 98.4434 215.899 98.9852 217.959 99.631L215.196 113.346C214.439 117.232 214.005 122.201 214.115 125.332H208.315ZM210.863 103.577C210.215 103.413 209.402 103.309 208.266 103.309C202.466 103.309 197.919 109.843 197.919 115.836C197.919 118.589 198.946 120.855 201.714 120.855C204.696 120.855 208.271 117.182 209.518 110.489L210.863 103.577Z" fill="black"/>
<path d="M220.342 125.331L223.429 109.137C224.132 105.41 224.511 101.36 224.785 99.0399H230.255C230.09 100.824 229.931 102.657 229.662 104.546H229.827C231.617 101.037 234.484 98.4434 238.059 98.4434C238.548 98.4434 239.037 98.4981 239.465 98.4981L238.219 104.655C237.894 104.6 237.461 104.6 237.027 104.6C232.529 104.6 229.657 109.137 228.63 114.752L226.625 125.331H220.342Z" fill="black"/>
<path d="M22.5334 109.137H9.42414L7.36466 119.989H22.0995L21.0725 125.336H0L6.93629 88.9473H27.196L26.169 94.2942H12.247L10.4072 103.85H23.5714L22.5334 109.137Z" fill="black"/>
<path d="M26.6519 125.332L33.9671 87H40.3048L32.9346 125.332H26.6519Z" fill="black"/>
<path d="M40.1406 125.331L45.1767 99.0392H51.4595L46.4234 125.331H40.1406ZM46.1543 91.9136C46.1543 89.7025 47.8897 88.1318 49.9492 88.1318C51.9538 88.1318 53.3103 89.4836 53.3103 91.4812C53.2553 93.8017 51.5199 95.2629 49.3561 95.2629C47.4559 95.2629 46.1543 93.9112 46.1543 91.9136Z" fill="black"/>
<path d="M67.0126 92.292L65.7659 99.04H71.6697L70.6922 103.9H64.7938L62.7344 114.479C62.4653 115.721 62.2456 117.073 62.2456 118.206C62.2456 119.662 62.8936 120.581 64.5742 120.581C65.332 120.581 66.0899 120.526 66.7435 120.417L66.1503 125.332C65.2277 125.709 63.5472 125.873 62.0314 125.873C57.6983 125.873 55.8036 123.498 55.8036 120.477C55.8036 119.021 55.9683 117.56 56.3472 115.617L58.6209 103.9H55.1006L56.0232 99.04H59.5436L60.5211 94.1254L67.0126 92.292Z" fill="black"/>
<path d="M92.0997 123.821C89.4965 125.173 85.9762 125.928 82.7799 125.928C75.4647 125.928 71.9443 121.446 71.9443 115.021C71.9443 107.085 77.7932 98.4434 86.8988 98.4434C92.0997 98.4434 95.4059 101.415 95.4059 105.837C95.4059 112.585 88.3103 114.747 78.1228 114.528C78.0129 115.448 78.2326 117.226 78.8257 118.255C79.8527 120.034 81.7529 120.953 84.2408 120.953C87.2229 120.953 89.6064 120.198 91.5011 119.224L92.0997 123.821ZM86.0861 103.145C82.1319 103.145 79.5287 106.653 78.7708 109.838C85.2732 109.893 89.4416 109.028 89.4416 105.843C89.4471 104.168 88.0906 103.145 86.0861 103.145Z" fill="black"/>
</svg>
