<svg width="512" height="512" viewBox="0 0 512 512" fill="none" xmlns="http://www.w3.org/2000/svg">
<g clip-path="url(#clip0_3272_2)">
<path d="M256 0C114.615 0 0 114.615 0 256C0 397.385 114.615 512 256 512C397.385 512 512 397.385 512 256C512 114.615 397.385 0 256 0ZM256 488.727C127.468 488.727 23.273 384.532 23.273 256C23.273 127.468 127.468 23.273 256 23.273C384.532 23.273 488.727 127.468 488.727 256C488.727 384.532 384.532 488.727 256 488.727Z" fill="#F16667"/>
<g clip-path="url(#clip1_3272_2)">
<path d="M369.325 185.063C360.486 174.556 344.167 170.27 313 170.27H199.867C167.987 170.27 151.391 174.832 142.585 186.019C134 196.926 134 212.997 134 235.239V277.632C134 320.722 144.187 342.6 199.867 342.6H313.001C340.029 342.6 355.005 338.818 364.694 329.545C374.63 320.036 378.87 304.511 378.87 277.632V235.239C378.87 211.782 378.205 195.617 369.325 185.063ZM291.207 262.288L239.833 289.138C238.63 289.767 237.283 290.076 235.925 290.034C234.567 289.991 233.243 289.599 232.081 288.895C230.919 288.191 229.958 287.199 229.291 286.015C228.625 284.831 228.275 283.495 228.276 282.137V228.61C228.276 227.253 228.625 225.919 229.29 224.737C229.956 223.554 230.914 222.563 232.074 221.859C233.233 221.155 234.555 220.761 235.911 220.716C237.267 220.67 238.611 220.975 239.815 221.6L291.189 248.277C292.471 248.942 293.546 249.947 294.297 251.181C295.048 252.416 295.446 253.832 295.448 255.277C295.45 256.722 295.055 258.139 294.308 259.375C293.56 260.611 292.488 261.619 291.207 262.288Z" fill="#F16667"/>
</g>
</g>
<defs>
<clipPath id="clip0_3272_2">
<rect width="512" height="512" fill="white"/>
</clipPath>
<clipPath id="clip1_3272_2">
<rect width="244.87" height="244.87" fill="white" transform="translate(134 134)"/>
</clipPath>
</defs>
</svg>
